<svg  xmlns="http://www.w3.org/2000/svg" width="24" height="24" viewBox="0 0 24 24" fill="none" stroke="currentColor" stroke-width="2" stroke-linecap="round" stroke-linejoin="round"><path d="M5.873 1.063 C 5.147 1.194,4.470 1.562,3.958 2.105 C 3.562 2.524,3.318 2.949,3.130 3.548 L 3.020 3.900 3.020 12.000 L 3.020 20.100 3.130 20.452 C 3.511 21.666,4.334 22.489,5.548 22.870 L 5.900 22.980 12.560 22.991 C 17.107 22.998,19.284 22.988,19.422 22.960 C 19.938 22.852,20.538 22.398,20.771 21.937 C 21.015 21.455,21.000 22.127,20.999 12.014 C 20.999 1.974,21.011 2.536,20.781 2.083 C 20.646 1.816,20.297 1.449,20.017 1.281 C 19.527 0.986,20.016 1.004,12.720 1.006 C 7.322 1.007,6.126 1.017,5.873 1.063 M19.000 9.500 L 19.000 16.000 12.625 16.000 C 5.699 16.000,5.896 15.994,5.296 16.220 C 5.150 16.275,5.023 16.320,5.014 16.320 C 5.006 16.320,5.003 13.580,5.009 10.230 L 5.020 4.140 5.132 3.900 C 5.330 3.475,5.756 3.124,6.174 3.042 C 6.265 3.024,9.189 3.007,12.670 3.004 L 19.000 3.000 19.000 9.500 M7.695 6.057 C 7.466 6.129,7.256 6.299,7.128 6.516 C 7.037 6.672,7.020 6.746,7.020 7.000 C 7.020 7.256,7.036 7.328,7.131 7.489 C 7.256 7.702,7.449 7.864,7.670 7.943 C 7.891 8.022,14.109 8.022,14.330 7.943 C 14.551 7.864,14.744 7.702,14.869 7.489 C 14.964 7.328,14.980 7.256,14.980 7.000 C 14.980 6.746,14.963 6.672,14.872 6.516 C 14.740 6.293,14.533 6.128,14.290 6.055 C 14.030 5.977,7.945 5.979,7.695 6.057 M7.695 10.057 C 7.466 10.129,7.256 10.299,7.128 10.516 C 7.037 10.672,7.020 10.746,7.020 11.000 C 7.020 11.256,7.036 11.328,7.131 11.489 C 7.256 11.702,7.449 11.864,7.670 11.943 C 7.892 12.022,16.108 12.022,16.330 11.943 C 16.551 11.864,16.744 11.702,16.869 11.489 C 16.964 11.328,16.980 11.256,16.980 11.000 C 16.980 10.746,16.963 10.672,16.872 10.516 C 16.740 10.293,16.533 10.128,16.290 10.055 C 16.029 9.976,7.946 9.979,7.695 10.057 M19.000 19.500 L 19.000 21.001 12.570 20.990 L 6.140 20.980 5.900 20.868 C 5.583 20.720,5.275 20.413,5.135 20.104 C 5.040 19.896,5.024 19.808,5.024 19.500 C 5.023 19.191,5.039 19.106,5.134 18.900 C 5.328 18.477,5.755 18.124,6.174 18.042 C 6.265 18.024,9.189 18.007,12.670 18.004 L 19.000 18.000 19.000 19.500 " stroke="none" fill-rule="evenodd" fill="#000000"></path></svg>