<svg  xmlns="http://www.w3.org/2000/svg" width="24" height="24" viewBox="0 0 24 24" fill="none" stroke="currentColor" stroke-width="2" stroke-linecap="round" stroke-linejoin="round"><path d="M3.499 5.043 C 2.379 5.233,1.461 6.048,1.114 7.160 L 1.020 7.460 1.020 12.000 L 1.020 16.540 1.114 16.840 C 1.422 17.827,2.173 18.578,3.160 18.886 L 3.460 18.980 9.000 18.980 L 14.540 18.980 14.840 18.886 C 15.818 18.581,16.570 17.835,16.882 16.860 C 16.958 16.621,16.975 16.457,16.996 15.730 L 17.020 14.880 18.916 16.144 C 20.147 16.965,20.890 17.435,21.033 17.484 C 21.465 17.633,22.011 17.545,22.392 17.266 C 22.607 17.108,22.748 16.924,22.888 16.620 L 22.980 16.420 22.980 11.959 L 22.980 7.498 22.849 7.232 C 22.684 6.897,22.369 6.600,22.050 6.478 C 21.742 6.361,21.263 6.357,20.980 6.470 C 20.870 6.513,19.934 7.044,18.900 7.649 L 17.020 8.749 16.995 8.085 C 16.974 7.562,16.950 7.360,16.881 7.140 C 16.577 6.178,15.823 5.425,14.861 5.121 L 14.540 5.020 9.120 5.014 C 6.139 5.011,3.609 5.024,3.499 5.043 M14.310 7.061 C 14.589 7.144,14.856 7.411,14.939 7.690 C 14.992 7.867,15.000 8.441,15.000 12.001 C 15.000 16.458,15.007 16.319,14.779 16.618 C 14.718 16.698,14.585 16.813,14.484 16.872 L 14.300 16.980 9.000 16.980 L 3.700 16.980 3.516 16.872 C 3.303 16.747,3.141 16.550,3.058 16.316 C 2.969 16.062,2.971 7.992,3.061 7.690 C 3.140 7.421,3.412 7.143,3.673 7.063 C 3.963 6.974,14.010 6.972,14.310 7.061 M21.000 11.945 L 21.000 15.129 20.890 15.058 C 20.829 15.018,19.929 14.419,18.889 13.726 L 16.998 12.466 17.009 11.765 L 17.020 11.065 18.980 9.916 C 20.058 9.285,20.953 8.766,20.970 8.764 C 20.987 8.762,21.000 10.193,21.000 11.945 " stroke="none" fill-rule="evenodd" fill="#000000"></path></svg>