<svg  xmlns="http://www.w3.org/2000/svg" width="24" height="24" viewBox="0 0 24 24" fill="none" stroke="currentColor" stroke-width="2" stroke-linecap="round" stroke-linejoin="round"><path d="M13.640 1.068 C 13.485 1.121,13.036 1.553,10.347 4.235 C 8.635 5.943,7.189 7.416,7.134 7.508 C 6.864 7.963,7.032 8.588,7.498 8.861 C 7.726 8.995,8.070 9.032,8.306 8.950 L 8.473 8.892 9.026 9.446 L 9.579 10.000 5.636 13.950 C 3.467 16.123,1.629 17.990,1.551 18.100 C 1.348 18.387,1.214 18.670,1.111 19.028 C 0.981 19.478,0.982 20.284,1.113 20.738 C 1.402 21.743,2.227 22.579,3.219 22.872 C 4.083 23.128,5.072 22.986,5.823 22.500 C 5.980 22.399,7.405 21.004,10.030 18.384 L 14.000 14.421 14.554 14.974 L 15.108 15.527 15.050 15.694 C 14.872 16.204,15.205 16.821,15.736 16.965 C 15.938 17.019,16.266 16.989,16.445 16.899 C 16.630 16.807,22.737 10.707,22.873 10.480 C 22.964 10.328,22.980 10.254,22.980 10.000 C 22.980 9.746,22.963 9.672,22.872 9.516 C 22.626 9.097,22.107 8.898,21.680 9.059 L 21.540 9.112 18.216 5.792 L 14.892 2.472 14.950 2.306 C 15.031 2.074,14.994 1.726,14.866 1.506 C 14.618 1.084,14.117 0.904,13.640 1.068 M18.290 12.290 L 16.500 14.080 13.210 10.790 L 9.920 7.500 11.710 5.710 L 13.500 3.920 16.790 7.210 L 20.080 10.500 18.290 12.290 M11.800 12.220 L 12.580 13.000 8.680 16.901 C 5.815 19.767,4.732 20.825,4.601 20.889 C 4.064 21.150,3.397 20.918,3.120 20.375 C 2.991 20.124,2.980 19.667,3.097 19.420 C 3.148 19.311,4.408 18.021,7.076 15.350 C 9.223 13.199,10.989 11.440,11.000 11.440 C 11.011 11.440,11.371 11.791,11.800 12.220 " stroke="none" fill-rule="evenodd" fill="#000000"></path></svg>