<svg  xmlns="http://www.w3.org/2000/svg" width="24" height="24" viewBox="0 0 24 24" fill="none" stroke="currentColor" stroke-width="2" stroke-linecap="round" stroke-linejoin="round"><path d="M8.240 2.041 C 4.838 2.397,2.076 4.779,1.242 8.076 C 1.015 8.973,0.942 10.090,1.055 10.940 C 1.301 12.791,2.089 14.409,3.347 15.648 C 3.700 15.996,3.878 16.088,4.200 16.088 C 4.874 16.088,5.348 15.442,5.152 14.789 C 5.120 14.682,4.993 14.509,4.766 14.265 C 3.874 13.302,3.367 12.349,3.116 11.160 C 2.987 10.550,2.985 9.522,3.112 8.891 C 3.257 8.167,3.571 7.356,3.912 6.824 C 4.331 6.170,5.040 5.444,5.670 5.024 C 6.344 4.576,7.013 4.301,7.889 4.114 C 8.476 3.988,9.518 3.989,10.120 4.116 C 11.334 4.372,12.300 4.873,13.135 5.679 C 13.860 6.378,14.327 7.096,14.665 8.031 C 14.833 8.496,14.884 8.593,15.026 8.725 C 15.297 8.977,15.303 8.977,16.720 9.004 C 17.883 9.025,18.054 9.037,18.340 9.115 C 19.645 9.469,20.652 10.571,20.883 11.898 C 20.960 12.344,20.912 13.110,20.781 13.520 C 20.554 14.228,20.184 14.769,19.601 15.245 C 19.176 15.592,19.044 15.781,19.012 16.092 C 18.939 16.798,19.600 17.350,20.289 17.158 C 20.601 17.072,21.436 16.342,21.843 15.801 C 22.622 14.764,23.052 13.270,22.924 12.046 C 22.720 10.097,21.652 8.503,19.963 7.625 C 19.101 7.177,18.506 7.042,17.260 7.011 L 16.420 6.989 16.201 6.528 C 15.079 4.171,12.803 2.497,10.180 2.100 C 9.679 2.024,8.688 1.994,8.240 2.041 M10.048 12.405 C 9.847 12.505,9.664 12.677,9.573 12.854 C 9.482 13.030,9.457 13.465,9.528 13.639 L 9.585 13.778 9.182 14.182 L 8.780 14.586 8.640 14.528 C 8.546 14.490,8.414 14.477,8.239 14.489 C 7.704 14.528,7.314 14.936,7.314 15.458 C 7.314 15.850,7.558 16.239,7.892 16.379 L 8.010 16.429 8.010 17.001 L 8.010 17.573 7.855 17.651 C 7.629 17.765,7.497 17.903,7.400 18.129 C 7.190 18.617,7.390 19.187,7.854 19.427 C 8.029 19.518,8.465 19.543,8.637 19.473 L 8.775 19.416 9.180 19.818 L 9.586 20.220 9.528 20.360 C 9.456 20.534,9.481 20.968,9.573 21.146 C 9.668 21.330,9.875 21.522,10.072 21.609 C 10.546 21.819,11.183 21.575,11.379 21.108 L 11.429 20.990 12.000 20.990 L 12.571 20.990 12.621 21.108 C 12.817 21.576,13.454 21.819,13.931 21.608 C 14.394 21.403,14.634 20.845,14.467 20.360 L 14.419 20.220 14.820 19.817 L 15.220 19.414 15.360 19.472 C 15.534 19.544,15.968 19.519,16.146 19.427 C 16.610 19.187,16.810 18.617,16.600 18.129 C 16.503 17.904,16.371 17.765,16.146 17.651 L 15.991 17.574 15.989 17.002 L 15.987 16.430 16.107 16.380 C 16.306 16.296,16.505 16.092,16.598 15.876 C 16.878 15.224,16.465 14.539,15.761 14.490 C 15.589 14.477,15.453 14.490,15.363 14.527 L 15.225 14.584 14.820 14.182 L 14.414 13.780 14.472 13.640 C 14.543 13.467,14.519 13.032,14.429 12.857 C 14.262 12.535,13.905 12.320,13.537 12.321 C 13.148 12.322,12.800 12.529,12.644 12.851 L 12.563 13.020 11.999 13.016 L 11.436 13.013 11.354 12.847 C 11.131 12.395,10.499 12.182,10.048 12.405 M12.408 15.045 C 13.313 15.238,14.000 16.082,14.000 17.000 C 14.000 18.079,13.080 18.999,12.000 18.999 C 10.920 18.999,10.000 18.079,10.000 17.000 C 10.000 16.098,10.651 15.277,11.540 15.056 C 11.798 14.993,12.140 14.988,12.408 15.045 " stroke="none" fill-rule="evenodd" fill="#000000"></path></svg>