<svg  xmlns="http://www.w3.org/2000/svg" width="24" height="24" viewBox="0 0 24 24" fill="none" stroke="currentColor" stroke-width="2" stroke-linecap="round" stroke-linejoin="round"><path d="M11.926 2.081 C 11.395 2.220,11.283 2.310,9.848 3.736 C 9.116 4.464,8.453 5.152,8.375 5.265 C 8.050 5.737,7.918 6.453,8.056 7.000 C 8.187 7.520,8.326 7.730,8.975 8.392 L 9.576 9.003 5.634 12.952 C 3.466 15.123,1.629 16.990,1.551 17.100 C 1.348 17.387,1.214 17.670,1.111 18.028 C 0.981 18.478,0.982 19.284,1.113 19.738 C 1.402 20.743,2.227 21.579,3.219 21.872 C 4.083 22.128,5.072 21.986,5.823 21.500 C 5.980 21.399,7.399 20.010,10.010 17.404 C 12.183 15.236,13.963 13.470,13.967 13.481 C 13.970 13.491,13.984 14.031,13.997 14.680 L 14.020 15.860 14.132 16.100 C 14.279 16.415,14.587 16.724,14.896 16.867 C 15.131 16.976,15.162 16.980,15.740 16.976 C 17.567 16.965,19.429 16.161,20.795 14.795 C 22.161 13.429,22.965 11.567,22.976 9.740 C 22.980 9.162,22.976 9.131,22.867 8.896 C 22.724 8.587,22.415 8.279,22.100 8.132 L 21.860 8.021 20.700 8.000 C 19.675 7.982,19.524 7.971,19.400 7.906 C 19.323 7.865,18.036 6.612,16.540 5.122 C 14.478 3.067,13.765 2.381,13.594 2.285 C 13.110 2.014,12.477 1.937,11.926 2.081 M15.259 6.675 C 16.921 8.333,18.031 9.410,18.180 9.509 C 18.745 9.883,19.227 9.998,20.234 9.999 L 20.968 10.000 20.939 10.250 C 20.724 12.146,19.276 13.965,17.449 14.637 C 17.033 14.790,16.574 14.907,16.250 14.943 L 16.000 14.970 15.999 14.235 C 15.998 13.227,15.883 12.745,15.509 12.180 C 15.410 12.031,14.333 10.921,12.675 9.259 C 10.941 7.522,10.000 6.551,10.000 6.500 C 10.000 6.391,12.391 4.000,12.499 4.000 C 12.551 4.000,13.511 4.930,15.259 6.675 M11.800 11.220 L 12.580 12.000 8.680 15.901 C 5.815 18.767,4.732 19.825,4.601 19.889 C 4.064 20.150,3.397 19.918,3.120 19.375 C 2.991 19.124,2.980 18.667,3.097 18.420 C 3.148 18.311,4.408 17.021,7.076 14.350 C 9.223 12.199,10.989 10.440,11.000 10.440 C 11.011 10.440,11.371 10.791,11.800 11.220 " stroke="none" fill-rule="evenodd" fill="#000000"></path></svg>