<svg  xmlns="http://www.w3.org/2000/svg" width="24" height="24" viewBox="0 0 24 24" fill="none" stroke="currentColor" stroke-width="2" stroke-linecap="round" stroke-linejoin="round"><path d="M3.499 1.042 C 2.388 1.232,1.488 2.024,1.114 3.140 L 1.020 3.420 1.009 7.446 C 0.996 11.831,0.992 11.724,1.223 12.305 C 1.283 12.456,1.404 12.688,1.491 12.820 C 1.662 13.077,10.368 21.829,10.840 22.218 C 11.182 22.500,11.616 22.730,12.060 22.864 C 12.381 22.962,12.483 22.974,13.000 22.974 C 13.515 22.974,13.620 22.961,13.932 22.866 C 14.319 22.748,14.585 22.625,14.920 22.406 C 15.168 22.245,17.147 20.309,17.321 20.057 C 17.767 19.413,17.290 18.518,16.502 18.521 C 16.085 18.522,16.004 18.582,14.860 19.720 C 13.640 20.935,13.574 20.979,13.000 20.977 C 12.361 20.975,12.783 21.350,7.707 16.284 C 5.076 13.658,3.158 11.713,3.107 11.620 L 3.020 11.460 3.009 7.683 C 2.997 3.399,2.982 3.625,3.303 3.303 C 3.625 2.982,3.399 2.997,7.683 3.009 L 11.460 3.020 11.620 3.107 C 11.709 3.156,12.664 4.081,13.780 5.200 C 14.880 6.303,15.853 7.257,15.943 7.320 C 16.379 7.625,17.033 7.497,17.330 7.048 C 17.539 6.732,17.535 6.251,17.321 5.945 C 17.159 5.712,13.098 1.677,12.880 1.531 C 12.623 1.359,12.342 1.223,12.020 1.115 L 11.740 1.020 7.720 1.014 C 5.509 1.011,3.609 1.024,3.499 1.042 M7.174 6.039 C 6.750 6.129,6.329 6.477,6.132 6.900 C 6.035 7.107,6.020 7.190,6.020 7.500 C 6.020 7.811,6.035 7.894,6.133 8.104 C 6.276 8.413,6.585 8.721,6.900 8.868 C 7.107 8.965,7.190 8.980,7.500 8.980 C 7.810 8.980,7.893 8.965,8.100 8.868 C 8.415 8.721,8.724 8.413,8.867 8.104 C 8.965 7.894,8.980 7.811,8.980 7.500 C 8.980 7.189,8.965 7.106,8.867 6.896 C 8.727 6.592,8.415 6.278,8.119 6.143 C 7.870 6.030,7.441 5.982,7.174 6.039 M18.695 9.057 C 18.466 9.129,18.256 9.299,18.128 9.516 L 18.020 9.700 18.008 10.850 L 17.995 12.000 16.944 12.000 C 15.797 12.000,15.643 12.022,15.382 12.221 C 15.302 12.282,15.187 12.415,15.128 12.516 C 15.037 12.672,15.020 12.746,15.020 13.000 C 15.020 13.256,15.036 13.328,15.131 13.489 C 15.192 13.592,15.304 13.725,15.381 13.783 C 15.642 13.983,15.738 13.996,16.908 13.998 L 17.995 14.000 18.008 15.153 L 18.020 16.307 18.141 16.503 C 18.543 17.156,19.457 17.156,19.859 16.503 L 19.980 16.307 19.992 15.153 L 20.005 14.000 21.092 13.998 C 22.262 13.996,22.358 13.983,22.619 13.783 C 22.696 13.725,22.808 13.592,22.869 13.489 C 22.964 13.328,22.980 13.256,22.980 13.000 C 22.980 12.746,22.963 12.672,22.872 12.516 C 22.813 12.415,22.698 12.282,22.618 12.221 C 22.357 12.022,22.203 12.000,21.056 12.000 L 20.005 12.000 19.992 10.850 L 19.980 9.700 19.872 9.516 C 19.628 9.101,19.150 8.915,18.695 9.057 " stroke="none" fill-rule="evenodd" fill="#000000"></path></svg>