<svg  xmlns="http://www.w3.org/2000/svg" width="24" height="24" viewBox="0 0 24 24" fill="none" stroke="currentColor" stroke-width="2" stroke-linecap="round" stroke-linejoin="round"><path d="M8.499 2.043 C 7.379 2.233,6.461 3.048,6.114 4.160 L 6.020 4.460 6.020 9.000 L 6.020 13.540 6.114 13.840 C 6.422 14.827,7.173 15.578,8.160 15.886 L 8.460 15.980 14.520 15.980 L 20.580 15.980 20.887 15.875 C 21.861 15.543,22.585 14.807,22.886 13.840 L 22.980 13.540 22.980 9.000 L 22.980 4.460 22.886 4.160 C 22.581 3.182,21.832 2.428,20.861 2.121 L 20.540 2.020 14.620 2.014 C 11.364 2.011,8.609 2.024,8.499 2.043 M20.310 4.061 C 20.598 4.146,20.858 4.412,20.944 4.707 C 20.998 4.893,21.000 4.937,20.954 4.979 C 20.883 5.046,15.095 8.809,14.917 8.904 C 14.728 9.006,14.272 9.006,14.083 8.904 C 13.905 8.809,8.117 5.046,8.046 4.979 C 7.948 4.888,8.089 4.518,8.303 4.303 C 8.622 3.984,8.176 4.006,14.483 4.003 C 19.406 4.000,20.131 4.008,20.310 4.061 M10.480 8.961 C 13.207 10.733,13.133 10.688,13.521 10.823 C 14.354 11.114,15.275 11.019,16.039 10.563 C 16.182 10.477,17.353 9.721,18.640 8.883 L 20.980 7.359 20.992 10.190 C 21.000 12.131,20.991 13.084,20.961 13.224 C 20.905 13.484,20.724 13.731,20.486 13.871 L 20.300 13.980 14.500 13.980 L 8.700 13.980 8.516 13.872 C 8.303 13.747,8.141 13.550,8.058 13.316 C 7.978 13.087,7.970 7.337,8.050 7.385 C 8.078 7.401,9.171 8.110,10.480 8.961 M2.536 8.398 C 1.991 8.670,1.487 9.237,1.240 9.853 C 0.986 10.488,0.997 10.244,1.009 15.131 L 1.020 19.580 1.114 19.860 C 1.446 20.851,2.184 21.582,3.160 21.886 L 3.460 21.980 9.500 21.980 L 15.540 21.980 15.840 21.886 C 16.828 21.578,17.584 20.821,17.885 19.840 C 17.955 19.611,17.977 19.440,17.978 19.120 C 17.980 18.733,17.971 18.686,17.871 18.514 C 17.568 17.998,16.883 17.854,16.405 18.205 C 16.169 18.379,16.047 18.609,16.002 18.966 C 15.981 19.130,15.945 19.314,15.922 19.375 C 15.851 19.561,15.677 19.758,15.484 19.872 L 15.300 19.980 9.500 19.980 L 3.700 19.980 3.516 19.872 C 3.303 19.747,3.141 19.550,3.058 19.316 C 2.971 19.067,2.971 10.933,3.058 10.684 C 3.136 10.464,3.279 10.285,3.490 10.143 C 3.721 9.987,3.903 9.743,3.962 9.508 C 4.172 8.675,3.316 8.009,2.536 8.398 " stroke="none" fill-rule="evenodd" fill="#000000"></path></svg>