<svg  xmlns="http://www.w3.org/2000/svg" width="24" height="24" viewBox="0 0 24 24" fill="none" stroke="currentColor" stroke-width="2" stroke-linecap="round" stroke-linejoin="round"><path d="M3.499 5.043 C 2.380 5.232,1.461 6.048,1.114 7.160 L 1.020 7.460 1.020 12.000 L 1.020 16.540 1.114 16.840 C 1.422 17.827,2.173 18.578,3.160 18.886 L 3.460 18.980 7.740 18.980 C 11.778 18.980,12.028 18.976,12.164 18.908 C 12.789 18.597,12.935 17.786,12.455 17.305 C 12.392 17.243,12.269 17.153,12.181 17.106 L 12.020 17.020 7.860 17.000 L 3.700 16.980 3.516 16.872 C 3.415 16.813,3.284 16.700,3.225 16.623 C 2.990 16.315,3.000 16.515,3.000 12.022 C 3.000 7.357,2.983 7.623,3.303 7.303 C 3.632 6.974,2.892 7.000,12.000 7.000 C 21.108 7.000,20.368 6.974,20.697 7.303 C 21.007 7.614,21.000 7.537,21.000 10.460 C 21.000 13.361,20.991 13.264,21.303 13.577 C 21.703 13.977,22.297 13.977,22.698 13.576 C 23.016 13.258,23.005 13.382,22.991 10.214 L 22.979 7.420 22.885 7.140 C 22.559 6.160,21.821 5.425,20.861 5.121 L 20.540 5.020 12.120 5.014 C 7.489 5.011,3.609 5.024,3.499 5.043 M11.499 9.040 C 10.363 9.246,9.460 10.049,9.114 11.160 C 8.979 11.594,8.979 12.406,9.114 12.840 C 9.421 13.826,10.174 14.579,11.160 14.886 C 11.594 15.021,12.406 15.021,12.840 14.886 C 13.826 14.579,14.579 13.826,14.886 12.840 C 15.021 12.406,15.021 11.594,14.886 11.160 C 14.581 10.179,13.810 9.407,12.861 9.129 C 12.500 9.023,11.832 8.980,11.499 9.040 M5.695 11.055 C 5.464 11.130,5.255 11.300,5.128 11.516 C 5.037 11.672,5.020 11.746,5.020 12.000 C 5.020 12.257,5.036 12.327,5.133 12.492 C 5.651 13.374,6.998 13.018,6.998 12.000 C 6.998 11.623,6.792 11.281,6.463 11.112 C 6.265 11.010,5.911 10.984,5.695 11.055 M12.310 11.061 C 12.688 11.173,13.000 11.598,13.000 12.001 C 13.000 12.331,12.784 12.696,12.484 12.872 C 12.328 12.963,12.254 12.980,12.000 12.980 C 11.746 12.980,11.672 12.963,11.516 12.872 C 10.935 12.530,10.833 11.774,11.304 11.303 C 11.583 11.024,11.916 10.944,12.310 11.061 M17.695 11.055 C 17.464 11.130,17.255 11.300,17.128 11.516 C 17.037 11.672,17.020 11.746,17.020 12.000 C 17.020 12.257,17.036 12.327,17.133 12.492 C 17.651 13.374,18.998 13.018,18.998 12.000 C 18.998 11.623,18.792 11.281,18.463 11.112 C 18.265 11.010,17.911 10.984,17.695 11.055 M21.640 16.068 C 21.488 16.121,21.196 16.394,19.731 17.853 L 18.002 19.575 17.271 18.855 C 16.655 18.247,16.509 18.123,16.343 18.067 C 15.865 17.905,15.383 18.083,15.128 18.516 C 15.036 18.672,15.020 18.745,15.021 19.000 C 15.021 19.213,15.043 19.341,15.095 19.440 C 15.197 19.633,17.297 21.740,17.520 21.873 C 17.673 21.964,17.745 21.980,18.000 21.979 C 18.212 21.979,18.341 21.957,18.440 21.905 C 18.632 21.805,22.739 17.705,22.873 17.480 C 22.964 17.328,22.980 17.254,22.980 17.000 C 22.980 16.746,22.963 16.672,22.872 16.516 C 22.617 16.083,22.121 15.903,21.640 16.068 " stroke="none" fill-rule="evenodd" fill="#000000"></path></svg>