<svg  xmlns="http://www.w3.org/2000/svg" width="24" height="24" viewBox="0 0 24 24" fill="none" stroke="currentColor" stroke-width="2" stroke-linecap="round" stroke-linejoin="round"><path d="M2.695 4.057 C 2.466 4.129,2.256 4.299,2.128 4.516 C 2.037 4.672,2.020 4.746,2.020 5.000 C 2.020 5.256,2.036 5.328,2.131 5.489 C 2.256 5.702,2.449 5.864,2.670 5.943 C 2.893 6.023,21.107 6.023,21.330 5.943 C 21.551 5.864,21.744 5.702,21.869 5.489 C 21.964 5.328,21.980 5.256,21.980 5.000 C 21.980 4.746,21.963 4.672,21.872 4.516 C 21.740 4.293,21.533 4.128,21.290 4.055 C 21.027 3.976,2.947 3.978,2.695 4.057 M6.695 11.057 C 6.466 11.129,6.256 11.299,6.128 11.516 C 6.037 11.672,6.020 11.746,6.020 12.000 C 6.020 12.256,6.036 12.328,6.131 12.489 C 6.256 12.702,6.449 12.864,6.670 12.943 C 6.892 13.022,17.108 13.022,17.330 12.943 C 17.551 12.864,17.744 12.702,17.869 12.489 C 17.964 12.328,17.980 12.256,17.980 12.000 C 17.980 11.746,17.963 11.672,17.872 11.516 C 17.740 11.293,17.533 11.128,17.290 11.055 C 17.028 10.976,6.946 10.978,6.695 11.057 M4.695 18.057 C 4.466 18.129,4.256 18.299,4.128 18.516 C 4.037 18.672,4.020 18.746,4.020 19.000 C 4.020 19.256,4.036 19.328,4.131 19.489 C 4.256 19.702,4.449 19.864,4.670 19.943 C 4.893 20.022,19.107 20.022,19.330 19.943 C 19.551 19.864,19.744 19.702,19.869 19.489 C 19.964 19.328,19.980 19.256,19.980 19.000 C 19.980 18.746,19.963 18.672,19.872 18.516 C 19.740 18.293,19.533 18.128,19.290 18.055 C 19.027 17.976,4.947 17.978,4.695 18.057 " stroke="none" fill-rule="evenodd" fill="#000000"></path></svg>