<svg  xmlns="http://www.w3.org/2000/svg" width="24" height="24" viewBox="0 0 24 24" fill="none" stroke="currentColor" stroke-width="2" stroke-linecap="round" stroke-linejoin="round"><path d="M11.695 2.057 C 11.466 2.129,11.256 2.299,11.128 2.516 L 11.020 2.700 11.008 3.848 L 10.996 4.997 8.128 5.009 L 5.260 5.021 4.980 5.115 C 4.603 5.242,4.308 5.395,4.020 5.613 C 3.609 5.924,1.429 8.150,1.291 8.400 C 1.071 8.798,1.020 9.013,1.023 9.520 C 1.026 10.045,1.108 10.328,1.369 10.721 C 1.564 11.013,3.875 13.305,4.180 13.508 C 4.312 13.596,4.543 13.717,4.694 13.777 C 5.248 13.997,5.273 13.999,8.249 13.999 L 10.998 14.000 11.009 17.653 L 11.020 21.306 11.141 21.503 C 11.543 22.156,12.457 22.156,12.859 21.503 L 12.980 21.306 12.991 17.653 L 13.002 14.000 15.751 13.999 C 18.707 13.999,18.763 13.995,19.279 13.787 C 19.793 13.579,19.949 13.451,21.233 12.180 C 21.922 11.498,22.551 10.841,22.631 10.721 C 22.892 10.328,22.974 10.044,22.977 9.520 C 22.980 9.013,22.929 8.798,22.709 8.400 C 22.571 8.150,20.391 5.924,19.980 5.613 C 19.692 5.395,19.397 5.242,19.020 5.115 L 18.740 5.021 15.872 5.009 L 13.004 4.997 12.992 3.848 L 12.980 2.700 12.872 2.516 C 12.628 2.101,12.150 1.915,11.695 2.057 M18.600 7.094 C 18.808 7.204,21.000 9.401,21.000 9.500 C 21.000 9.599,18.808 11.796,18.600 11.906 C 18.466 11.977,18.205 11.980,12.000 11.980 C 5.795 11.980,5.534 11.977,5.400 11.906 C 5.191 11.796,3.000 9.599,3.000 9.499 C 3.000 9.446,3.399 9.021,4.152 8.269 C 4.785 7.637,5.311 7.120,5.322 7.119 C 5.332 7.119,5.412 7.093,5.500 7.061 C 5.638 7.011,6.560 7.004,12.060 7.012 C 18.197 7.020,18.466 7.023,18.600 7.094 " stroke="none" fill-rule="evenodd" fill="#000000"></path></svg>