<svg  xmlns="http://www.w3.org/2000/svg" width="24" height="24" viewBox="0 0 24 24" fill="none" stroke="currentColor" stroke-width="2" stroke-linecap="round" stroke-linejoin="round"><path d="M11.500 1.046 C 11.390 1.066,11.210 1.111,11.100 1.146 C 10.809 1.239,2.135 5.186,1.910 5.328 C 1.378 5.665,1.000 6.359,1.000 7.000 C 1.000 7.715,1.454 8.445,2.103 8.771 C 2.798 9.121,10.931 12.801,11.180 12.879 C 11.714 13.045,12.399 13.029,12.965 12.838 C 13.218 12.753,21.510 8.992,21.926 8.774 C 22.271 8.593,22.476 8.415,22.662 8.135 C 23.064 7.529,23.120 6.765,22.809 6.127 C 22.678 5.858,22.347 5.491,22.089 5.327 C 21.862 5.184,13.186 1.237,12.900 1.147 C 12.443 1.003,11.931 0.966,11.500 1.046 M16.343 4.879 C 18.585 5.899,20.554 6.795,20.718 6.870 L 21.016 7.005 16.838 8.906 C 14.540 9.952,12.543 10.853,12.400 10.908 C 11.949 11.081,12.018 11.104,9.317 9.874 C 7.988 9.268,6.032 8.378,4.971 7.896 C 3.910 7.414,3.042 7.011,3.041 7.000 C 3.040 6.984,11.560 3.099,11.760 3.024 C 11.793 3.012,11.920 3.007,12.043 3.013 C 12.242 3.023,12.723 3.232,16.343 4.879 M1.670 11.061 C 1.305 11.195,1.051 11.517,1.012 11.897 C 0.946 12.536,1.336 13.306,1.910 13.673 C 2.177 13.843,10.840 17.773,11.175 17.876 C 11.573 17.998,12.056 18.028,12.305 17.945 C 13.164 17.660,13.244 16.516,12.433 16.096 C 12.368 16.063,12.182 16.021,12.018 16.002 C 11.741 15.971,11.427 15.835,7.373 13.993 L 3.025 12.017 2.980 11.815 C 2.955 11.704,2.895 11.549,2.847 11.471 C 2.613 11.093,2.084 10.909,1.670 11.061 M18.695 13.057 C 18.466 13.129,18.256 13.299,18.128 13.516 L 18.020 13.700 18.008 14.850 L 17.995 16.000 16.944 16.000 C 15.797 16.000,15.643 16.022,15.382 16.221 C 15.302 16.282,15.187 16.415,15.128 16.516 C 15.037 16.672,15.020 16.746,15.020 17.000 C 15.020 17.256,15.036 17.328,15.131 17.489 C 15.192 17.592,15.304 17.725,15.381 17.783 C 15.642 17.983,15.738 17.996,16.908 17.998 L 17.995 18.000 18.008 19.153 L 18.020 20.307 18.141 20.503 C 18.543 21.156,19.457 21.156,19.859 20.503 L 19.980 20.307 19.992 19.153 L 20.005 18.000 21.092 17.998 C 22.262 17.996,22.358 17.983,22.619 17.783 C 22.696 17.725,22.808 17.592,22.869 17.489 C 22.964 17.328,22.980 17.256,22.980 17.000 C 22.980 16.746,22.963 16.672,22.872 16.516 C 22.813 16.415,22.698 16.282,22.618 16.221 C 22.357 16.022,22.203 16.000,21.056 16.000 L 20.005 16.000 19.992 14.850 L 19.980 13.700 19.872 13.516 C 19.628 13.101,19.150 12.915,18.695 13.057 M1.695 16.057 C 1.323 16.174,1.052 16.506,1.012 16.897 C 0.946 17.536,1.336 18.306,1.910 18.673 C 2.179 18.845,10.841 22.774,11.180 22.877 C 11.703 23.038,12.388 23.029,12.914 22.855 C 13.106 22.791,14.965 21.959,15.366 21.757 C 15.983 21.446,16.135 20.704,15.685 20.192 C 15.497 19.978,15.206 19.868,14.883 19.888 C 14.649 19.903,14.500 19.960,13.520 20.407 C 12.236 20.992,12.172 21.015,11.920 20.991 C 11.777 20.977,10.632 20.474,7.377 18.995 L 3.025 17.017 2.980 16.815 C 2.894 16.433,2.649 16.163,2.290 16.055 C 2.068 15.988,1.913 15.989,1.695 16.057 " stroke="none" fill-rule="evenodd" fill="#000000"></path></svg>