<svg  xmlns="http://www.w3.org/2000/svg" width="24" height="24" viewBox="0 0 24 24" fill="none" stroke="currentColor" stroke-width="2" stroke-linecap="round" stroke-linejoin="round"><path d="M21.640 1.068 C 21.482 1.121,20.229 2.359,11.347 11.234 C 5.785 16.793,1.190 21.416,1.135 21.508 C 0.861 21.967,1.032 22.587,1.508 22.867 C 1.673 22.964,1.742 22.980,2.000 22.979 C 2.212 22.979,2.341 22.957,2.440 22.905 C 2.517 22.865,3.817 21.597,5.329 20.088 C 6.840 18.579,8.085 17.352,8.095 17.362 C 8.104 17.372,8.448 18.208,8.859 19.220 C 9.270 20.232,9.654 21.147,9.712 21.254 C 9.844 21.497,10.114 21.740,10.400 21.873 C 10.701 22.012,11.233 22.020,11.560 21.889 C 11.874 21.764,12.171 21.489,12.317 21.188 C 12.401 21.017,12.688 19.969,13.241 17.825 C 13.682 16.112,14.067 14.654,14.095 14.585 C 14.176 14.392,14.345 14.214,14.531 14.126 C 14.624 14.081,16.104 13.683,17.820 13.242 C 19.965 12.689,21.018 12.400,21.188 12.317 C 21.643 12.096,21.944 11.638,21.990 11.094 C 22.032 10.587,21.746 10.015,21.318 9.751 C 21.220 9.691,20.295 9.299,19.263 8.880 C 18.230 8.461,17.376 8.109,17.365 8.098 C 17.353 8.086,18.579 6.840,20.088 5.329 C 21.597 3.817,22.865 2.517,22.905 2.440 C 22.957 2.341,22.979 2.212,22.979 2.000 C 22.980 1.745,22.964 1.672,22.872 1.516 C 22.618 1.083,22.123 0.903,21.640 1.068 M4.032 3.077 C 3.394 3.281,2.965 3.909,3.009 4.575 C 3.026 4.838,3.134 5.124,4.398 8.240 C 5.152 10.099,5.829 11.748,5.903 11.904 C 6.049 12.213,6.206 12.363,6.484 12.462 C 7.121 12.686,7.807 12.212,7.805 11.548 C 7.805 11.433,7.779 11.268,7.747 11.180 C 7.716 11.092,7.183 9.772,6.563 8.246 C 5.942 6.720,5.443 5.463,5.453 5.453 C 5.464 5.443,6.675 5.924,8.146 6.523 C 11.434 7.860,11.290 7.806,11.546 7.806 C 12.072 7.806,12.520 7.353,12.520 6.822 C 12.520 6.469,12.302 6.096,12.008 5.945 C 11.775 5.825,5.048 3.105,4.860 3.055 C 4.589 2.982,4.306 2.990,4.032 3.077 M17.320 10.247 C 18.145 10.580,18.833 10.864,18.849 10.878 C 18.865 10.891,18.154 11.089,17.269 11.317 C 13.833 12.202,13.748 12.228,13.293 12.537 C 13.049 12.702,12.655 13.111,12.479 13.382 C 12.235 13.756,12.109 14.165,11.477 16.629 C 11.160 17.865,10.890 18.864,10.877 18.849 C 10.864 18.833,10.577 18.139,10.240 17.306 L 9.628 15.793 12.704 12.716 C 14.396 11.024,15.789 9.640,15.800 9.640 C 15.811 9.640,16.495 9.913,17.320 10.247 " stroke="none" fill-rule="evenodd" fill="#000000"></path></svg>