<svg  xmlns="http://www.w3.org/2000/svg" width="24" height="24" viewBox="0 0 24 24" fill="none" stroke="currentColor" stroke-width="2" stroke-linecap="round" stroke-linejoin="round"><path d="M5.499 1.042 C 4.378 1.234,3.461 2.048,3.114 3.160 L 3.020 3.460 3.020 12.000 L 3.020 20.540 3.114 20.840 C 3.418 21.816,4.151 22.556,5.140 22.886 L 5.420 22.979 8.340 22.991 C 11.601 23.005,11.448 23.017,11.773 22.724 C 11.981 22.536,12.088 22.292,12.088 22.003 C 12.088 21.615,11.894 21.298,11.540 21.106 C 11.381 21.021,11.356 21.020,8.540 21.000 L 5.700 20.980 5.516 20.872 C 5.415 20.813,5.284 20.700,5.225 20.623 C 4.985 20.308,5.000 20.888,5.000 12.022 C 5.000 2.889,4.974 3.632,5.303 3.303 C 5.621 2.986,5.423 3.000,9.447 3.000 L 13.000 3.000 13.000 5.132 C 13.000 7.443,13.004 7.494,13.225 7.930 C 13.361 8.199,13.801 8.639,14.070 8.775 C 14.506 8.996,14.557 9.000,16.866 9.000 L 18.996 9.000 19.008 10.270 C 19.019 11.483,19.024 11.547,19.106 11.700 C 19.494 12.418,20.506 12.418,20.894 11.700 C 20.979 11.542,20.980 11.515,20.980 9.480 L 20.979 7.420 20.867 7.060 C 20.733 6.627,20.505 6.193,20.241 5.863 C 19.921 5.464,16.162 1.748,15.920 1.592 C 15.585 1.376,15.319 1.252,14.932 1.131 L 14.580 1.020 10.140 1.014 C 7.698 1.011,5.609 1.024,5.499 1.042 M16.800 5.220 L 18.580 7.000 16.790 7.000 L 15.000 7.000 15.000 5.220 C 15.000 4.241,15.005 3.440,15.010 3.440 C 15.016 3.440,15.821 4.241,16.800 5.220 M15.358 13.061 C 14.230 13.237,13.143 13.974,12.569 14.953 C 11.320 17.083,12.233 19.785,14.512 20.704 C 15.473 21.091,16.529 21.090,17.494 20.701 C 17.684 20.625,17.881 20.535,17.931 20.502 C 18.020 20.444,18.051 20.471,19.181 21.604 C 19.819 22.243,20.416 22.810,20.508 22.865 C 20.967 23.139,21.587 22.968,21.867 22.492 C 21.964 22.327,21.980 22.257,21.980 22.000 C 21.980 21.746,21.964 21.672,21.873 21.520 C 21.814 21.421,21.243 20.819,20.604 20.181 C 19.471 19.051,19.444 19.020,19.502 18.931 C 19.627 18.740,19.844 18.132,19.921 17.757 C 20.070 17.024,19.994 16.230,19.705 15.516 C 19.172 14.197,18.001 13.269,16.605 13.058 C 16.144 12.989,15.816 12.990,15.358 13.061 M16.523 15.073 C 17.262 15.266,17.850 15.924,17.967 16.690 C 18.067 17.343,17.873 17.933,17.403 18.404 C 17.002 18.807,16.547 19.000,16.000 19.000 C 15.485 19.000,15.038 18.822,14.653 18.465 C 13.323 17.229,14.189 15.005,16.000 15.005 C 16.143 15.005,16.378 15.036,16.523 15.073 " stroke="none" fill-rule="evenodd" fill="#000000"></path></svg>