<svg  xmlns="http://www.w3.org/2000/svg" width="24" height="24" viewBox="0 0 24 24" fill="none" stroke="currentColor" stroke-width="2" stroke-linecap="round" stroke-linejoin="round"><path d="M1.670 1.061 C 1.448 1.142,1.250 1.309,1.128 1.516 C 1.036 1.672,1.020 1.745,1.021 2.000 C 1.021 2.213,1.043 2.341,1.095 2.440 C 1.136 2.517,1.581 2.994,2.084 3.501 L 2.999 4.421 3.010 13.364 L 3.020 22.306 3.141 22.503 C 3.543 23.156,4.457 23.156,4.859 22.503 L 4.980 22.306 4.991 19.154 L 5.002 16.002 5.231 15.846 C 5.729 15.508,6.432 15.220,7.069 15.093 C 7.320 15.043,7.602 15.023,8.060 15.025 C 9.087 15.029,9.738 15.191,11.500 15.881 C 13.364 16.610,14.115 16.828,15.220 16.960 L 15.580 17.003 18.500 19.918 C 20.106 21.520,21.483 22.865,21.560 22.905 C 21.659 22.957,21.788 22.979,22.000 22.979 C 22.258 22.980,22.327 22.964,22.492 22.867 C 22.968 22.587,23.139 21.967,22.865 21.508 C 22.810 21.416,18.215 16.793,12.653 11.235 C 3.300 1.889,2.525 1.125,2.343 1.065 C 2.107 0.987,1.874 0.986,1.670 1.061 M7.400 1.034 C 7.200 1.101,7.051 1.198,6.912 1.352 C 6.548 1.755,6.586 2.360,6.999 2.731 C 7.237 2.945,7.411 3.000,7.856 3.000 C 8.591 3.000,9.419 3.140,10.160 3.390 C 10.391 3.467,11.075 3.738,11.680 3.990 C 12.937 4.514,13.764 4.799,14.340 4.906 C 14.827 4.996,16.037 5.007,16.560 4.926 C 17.488 4.781,18.321 4.477,18.890 4.073 L 19.000 3.995 19.000 9.243 C 19.000 13.277,19.011 14.529,19.049 14.655 C 19.079 14.756,19.177 14.900,19.299 15.027 C 19.724 15.463,20.326 15.452,20.733 15.000 C 20.827 14.894,20.926 14.737,20.952 14.649 C 20.988 14.530,21.000 13.157,21.000 9.134 C 21.000 3.288,21.011 3.578,20.772 3.080 C 20.709 2.949,20.559 2.754,20.403 2.600 C 19.682 1.890,18.666 1.812,17.798 2.401 C 17.327 2.721,16.821 2.886,16.070 2.965 C 14.945 3.082,14.357 2.949,12.440 2.140 C 10.916 1.497,10.120 1.242,9.200 1.103 C 8.716 1.029,7.548 0.985,7.400 1.034 M8.920 10.342 C 12.635 14.059,12.810 14.240,12.600 14.159 C 10.708 13.423,10.150 13.250,9.164 13.094 C 8.536 12.995,7.403 13.004,6.793 13.114 C 6.312 13.200,5.612 13.408,5.222 13.581 L 5.000 13.679 5.000 10.059 C 5.000 8.069,5.005 6.440,5.010 6.440 C 5.016 6.440,6.775 8.196,8.920 10.342 " stroke="none" fill-rule="evenodd" fill="#000000"></path></svg>