<svg  xmlns="http://www.w3.org/2000/svg" width="24" height="24" viewBox="0 0 24 24" fill="none" stroke="currentColor" stroke-width="2" stroke-linecap="round" stroke-linejoin="round"><path d="M19.680 2.027 C 19.371 2.076,18.996 2.260,18.580 2.567 C 16.846 3.845,15.188 4.538,13.020 4.890 C 12.524 4.971,12.316 4.976,8.480 4.998 L 4.460 5.022 4.139 5.122 C 3.172 5.425,2.419 6.181,2.114 7.160 L 2.020 7.460 2.020 10.000 L 2.020 12.540 2.114 12.840 C 2.486 14.032,3.522 14.885,4.718 14.985 L 5.032 15.011 5.058 15.275 C 5.254 17.243,5.952 19.270,7.007 20.936 C 7.663 21.972,8.058 22.388,8.660 22.680 C 9.164 22.924,9.417 22.978,10.040 22.976 C 10.514 22.975,10.619 22.962,10.901 22.869 C 11.689 22.608,12.370 22.015,12.702 21.300 C 12.889 20.899,12.961 20.599,12.986 20.120 C 13.025 19.368,12.882 18.924,12.337 18.111 C 11.708 17.173,11.354 16.387,11.164 15.507 C 11.038 14.929,10.976 14.984,11.730 15.012 C 13.151 15.067,14.403 15.322,15.680 15.819 C 16.555 16.160,17.519 16.672,18.196 17.158 C 18.341 17.262,18.599 17.447,18.768 17.569 C 19.443 18.056,20.186 18.126,20.920 17.772 C 21.206 17.634,21.634 17.206,21.772 16.920 C 22.012 16.420,22.000 16.797,22.000 10.000 C 22.000 3.204,22.012 3.581,21.772 3.080 C 21.636 2.796,21.209 2.374,20.913 2.230 C 20.507 2.034,20.080 1.963,19.680 2.027 M20.000 9.998 L 20.000 15.996 19.522 15.648 C 17.844 14.426,15.755 13.548,13.700 13.202 C 12.799 13.050,12.539 13.033,10.770 13.012 L 9.000 12.991 9.000 9.996 L 9.000 7.000 10.514 7.000 C 12.560 7.000,13.469 6.907,14.824 6.560 C 16.523 6.124,18.355 5.251,19.640 4.266 C 19.827 4.122,19.985 4.004,19.990 4.002 C 19.995 4.001,20.000 6.699,20.000 9.998 M7.000 10.002 L 7.000 13.005 5.850 12.992 L 4.700 12.980 4.516 12.872 C 4.415 12.813,4.284 12.700,4.225 12.623 C 4.000 12.327,4.000 12.332,4.000 10.022 C 4.000 7.586,3.997 7.609,4.304 7.303 C 4.582 7.024,4.680 7.006,5.930 7.003 L 7.000 7.000 7.000 10.002 M9.080 15.134 C 9.080 15.323,9.225 16.025,9.363 16.506 C 9.621 17.401,10.007 18.219,10.583 19.085 C 10.976 19.676,11.042 19.871,10.964 20.216 C 10.807 20.918,9.995 21.226,9.412 20.804 C 9.059 20.549,8.146 19.009,7.772 18.040 C 7.464 17.242,7.170 16.087,7.101 15.400 C 7.086 15.257,7.065 15.108,7.054 15.070 C 7.036 15.005,7.102 15.000,8.057 15.000 L 9.080 15.000 9.080 15.134 " stroke="none" fill-rule="evenodd" fill="#000000"></path></svg>