<svg  xmlns="http://www.w3.org/2000/svg" width="24" height="24" viewBox="0 0 24 24" fill="none" stroke="currentColor" stroke-width="2" stroke-linecap="round" stroke-linejoin="round"><path d="M5.695 2.057 C 5.466 2.129,5.256 2.299,5.128 2.516 L 5.020 2.700 5.009 6.350 L 4.998 10.000 4.003 10.000 L 3.007 10.000 2.993 9.350 C 2.981 8.726,2.976 8.693,2.871 8.514 C 2.479 7.848,1.521 7.848,1.129 8.514 L 1.020 8.700 1.020 14.120 L 1.020 19.540 1.114 19.840 C 1.422 20.827,2.173 21.578,3.160 21.886 L 3.460 21.980 12.000 21.980 L 20.540 21.980 20.840 21.886 C 21.827 21.578,22.578 20.827,22.886 19.840 L 22.980 19.540 22.980 14.120 L 22.980 8.700 22.871 8.514 C 22.479 7.848,21.521 7.848,21.129 8.514 C 21.024 8.693,21.019 8.726,21.007 9.350 L 20.993 10.000 19.997 10.000 L 19.002 10.000 18.991 6.350 L 18.980 2.700 18.871 2.514 C 18.479 1.848,17.521 1.848,17.129 2.514 C 17.024 2.693,17.019 2.726,17.007 3.350 L 16.993 4.000 16.000 4.000 L 15.007 4.000 14.993 3.350 C 14.981 2.726,14.976 2.693,14.871 2.514 C 14.479 1.848,13.521 1.848,13.129 2.514 C 13.024 2.693,13.019 2.726,13.007 3.350 L 12.993 4.000 12.000 4.000 L 11.007 4.000 10.993 3.350 C 10.981 2.726,10.976 2.693,10.871 2.514 C 10.479 1.848,9.521 1.848,9.129 2.514 C 9.024 2.693,9.019 2.726,9.007 3.350 L 8.993 4.000 8.000 4.000 L 7.007 4.000 6.993 3.350 C 6.981 2.728,6.975 2.692,6.872 2.516 C 6.628 2.101,6.150 1.915,5.695 2.057 M17.000 8.000 L 17.000 10.000 12.000 10.000 L 7.000 10.000 7.000 8.000 L 7.000 6.000 12.000 6.000 L 17.000 6.000 17.000 8.000 M21.000 15.554 C 21.000 19.410,21.005 19.322,20.779 19.618 C 20.718 19.698,20.585 19.813,20.484 19.872 L 20.300 19.980 18.150 19.991 L 16.000 20.003 16.000 18.818 C 16.000 17.478,15.957 17.139,15.705 16.516 C 15.172 15.197,14.001 14.269,12.605 14.058 C 12.121 13.986,11.879 13.986,11.395 14.058 C 9.735 14.309,8.421 15.566,8.083 17.227 C 8.010 17.583,8.000 17.778,8.000 18.818 L 8.000 20.003 5.850 19.991 L 3.700 19.980 3.516 19.872 C 3.415 19.813,3.284 19.700,3.225 19.623 C 2.992 19.317,3.000 19.464,3.000 15.575 L 3.000 12.000 12.000 12.000 L 21.000 12.000 21.000 15.554 M12.523 16.073 C 13.022 16.203,13.516 16.599,13.772 17.071 C 13.964 17.426,13.999 17.705,13.999 18.910 L 14.000 20.000 12.000 20.000 L 10.000 20.000 10.000 18.898 C 10.000 17.643,10.034 17.398,10.265 17.014 C 10.646 16.378,11.288 16.005,12.000 16.005 C 12.143 16.005,12.378 16.036,12.523 16.073 " stroke="none" fill-rule="evenodd" fill="#000000"></path></svg>