<svg  xmlns="http://www.w3.org/2000/svg" width="24" height="24" viewBox="0 0 24 24" fill="none" stroke="currentColor" stroke-width="2" stroke-linecap="round" stroke-linejoin="round"><path d="M3.499 1.042 C 2.383 1.236,1.463 2.047,1.120 3.140 C 0.953 3.672,0.971 5.029,1.164 6.494 C 1.758 11.001,3.985 15.194,7.380 18.197 C 9.934 20.456,12.932 21.956,16.220 22.619 C 18.056 22.989,20.138 23.106,20.860 22.880 C 21.828 22.576,22.581 21.818,22.886 20.840 C 22.979 20.542,22.980 20.527,22.980 18.500 C 22.980 16.473,22.979 16.458,22.886 16.160 C 22.577 15.169,21.792 14.390,20.822 14.112 C 20.505 14.022,20.467 14.020,18.520 14.020 C 16.309 14.020,16.275 14.024,15.700 14.308 C 15.228 14.542,14.942 14.783,14.546 15.277 C 14.396 15.466,14.256 15.626,14.236 15.633 C 14.180 15.654,13.355 15.186,12.800 14.817 C 11.298 13.821,9.959 12.450,9.012 10.939 C 8.794 10.591,8.360 9.806,8.360 9.759 C 8.360 9.743,8.494 9.629,8.658 9.505 C 9.325 9.003,9.680 8.502,9.908 7.740 C 9.973 7.523,9.980 7.307,9.980 5.480 C 9.980 3.474,9.979 3.458,9.886 3.160 C 9.581 2.181,8.827 1.424,7.861 1.123 L 7.540 1.023 5.620 1.015 C 4.564 1.011,3.609 1.023,3.499 1.042 M12.695 1.057 C 12.466 1.129,12.256 1.299,12.128 1.516 C 12.036 1.672,12.020 1.746,12.020 2.003 C 12.020 2.271,12.034 2.329,12.141 2.503 C 12.289 2.743,12.580 2.948,12.811 2.975 C 12.904 2.986,13.241 3.013,13.560 3.035 C 14.644 3.111,15.559 3.354,16.500 3.816 C 18.133 4.618,19.382 5.867,20.184 7.500 C 20.646 8.441,20.889 9.356,20.965 10.440 C 20.987 10.759,21.014 11.096,21.025 11.189 C 21.052 11.420,21.257 11.711,21.497 11.859 C 21.671 11.966,21.729 11.980,21.997 11.980 C 22.257 11.980,22.327 11.964,22.492 11.867 C 22.714 11.737,22.901 11.498,22.965 11.264 C 23.061 10.915,22.944 9.607,22.740 8.740 C 22.304 6.885,21.413 5.289,20.062 3.939 C 18.858 2.736,17.486 1.913,15.866 1.423 C 14.788 1.096,13.167 0.909,12.695 1.057 M7.310 3.061 C 7.452 3.103,7.571 3.178,7.697 3.304 C 8.000 3.607,8.005 3.644,7.992 5.587 L 7.980 7.262 7.878 7.461 C 7.800 7.612,7.686 7.728,7.398 7.949 C 7.190 8.109,6.941 8.325,6.844 8.430 C 6.485 8.817,6.281 9.467,6.359 9.977 C 6.416 10.345,6.484 10.522,6.787 11.088 C 8.196 13.713,10.278 15.793,12.927 17.222 C 13.564 17.566,13.817 17.650,14.220 17.651 C 14.986 17.653,15.456 17.378,16.081 16.562 C 16.274 16.311,16.391 16.199,16.539 16.122 L 16.738 16.020 18.413 16.008 C 20.356 15.995,20.393 16.000,20.696 16.303 C 20.994 16.600,21.000 16.643,21.000 18.501 C 21.000 20.246,20.990 20.341,20.779 20.618 C 20.718 20.698,20.585 20.812,20.484 20.872 C 20.321 20.967,20.250 20.981,19.867 20.994 C 19.096 21.021,17.769 20.887,16.700 20.677 C 13.609 20.067,10.684 18.570,8.437 16.450 C 6.772 14.879,5.654 13.360,4.677 11.340 C 3.652 9.221,3.124 7.069,3.017 4.578 C 2.983 3.775,3.027 3.580,3.303 3.303 C 3.597 3.010,3.622 3.006,5.483 3.003 C 6.825 3.000,7.141 3.011,7.310 3.061 M12.695 5.057 C 12.051 5.258,11.799 6.040,12.198 6.591 C 12.396 6.864,12.610 6.961,13.110 7.004 C 13.909 7.073,14.255 7.164,14.840 7.464 C 15.554 7.829,16.171 8.446,16.536 9.160 C 16.836 9.746,16.927 10.090,16.996 10.894 C 17.028 11.264,17.051 11.356,17.148 11.514 C 17.543 12.157,18.461 12.150,18.859 11.503 C 18.978 11.308,18.980 11.298,18.975 10.783 C 18.953 8.386,17.282 6.127,14.940 5.329 C 14.501 5.179,14.072 5.089,13.564 5.039 C 13.064 4.991,12.896 4.994,12.695 5.057 " stroke="none" fill-rule="evenodd" fill="#000000"></path></svg>