<svg  xmlns="http://www.w3.org/2000/svg" width="24" height="24" viewBox="0 0 24 24" fill="none" stroke="currentColor" stroke-width="2" stroke-linecap="round" stroke-linejoin="round"><path d="M2.695 4.057 C 2.466 4.129,2.256 4.299,2.128 4.516 C 2.037 4.672,2.020 4.746,2.020 5.000 C 2.020 5.256,2.036 5.328,2.131 5.489 C 2.256 5.702,2.449 5.864,2.670 5.943 C 2.893 6.022,17.107 6.022,17.330 5.943 C 17.551 5.864,17.744 5.702,17.869 5.489 C 17.964 5.328,17.980 5.256,17.980 5.000 C 17.980 4.746,17.963 4.672,17.872 4.516 C 17.740 4.293,17.533 4.128,17.290 4.055 C 17.027 3.976,2.947 3.978,2.695 4.057 M2.695 11.057 C 2.466 11.129,2.256 11.299,2.128 11.516 L 2.020 11.700 2.020 15.503 L 2.020 19.306 2.141 19.503 C 2.209 19.613,2.346 19.756,2.452 19.828 C 2.923 20.144,3.554 19.999,3.859 19.503 L 3.980 19.306 3.980 15.503 L 3.980 11.700 3.872 11.516 C 3.628 11.101,3.150 10.915,2.695 11.057 M7.695 11.057 C 7.466 11.129,7.256 11.299,7.128 11.516 C 7.037 11.672,7.020 11.746,7.020 12.000 C 7.020 12.256,7.036 12.328,7.131 12.489 C 7.256 12.702,7.449 12.864,7.670 12.943 C 7.793 12.987,9.021 12.996,14.500 12.996 C 19.979 12.996,21.207 12.987,21.330 12.943 C 21.551 12.864,21.744 12.702,21.869 12.489 C 21.964 12.328,21.980 12.256,21.980 12.000 C 21.980 11.746,21.963 11.672,21.872 11.516 C 21.740 11.293,21.533 11.128,21.290 11.055 C 21.028 10.976,7.947 10.978,7.695 11.057 M7.695 18.057 C 7.466 18.129,7.256 18.299,7.128 18.516 C 7.037 18.672,7.020 18.746,7.020 19.000 C 7.020 19.256,7.036 19.328,7.131 19.489 C 7.256 19.702,7.449 19.864,7.670 19.943 C 7.793 19.987,9.021 19.996,14.500 19.996 C 19.979 19.996,21.207 19.987,21.330 19.943 C 21.551 19.864,21.744 19.702,21.869 19.489 C 21.964 19.328,21.980 19.256,21.980 19.000 C 21.980 18.746,21.963 18.672,21.872 18.516 C 21.740 18.293,21.533 18.128,21.290 18.055 C 21.028 17.976,7.947 17.978,7.695 18.057 " stroke="none" fill-rule="evenodd" fill="#000000"></path></svg>