<svg  xmlns="http://www.w3.org/2000/svg" width="24" height="24" viewBox="0 0 24 24" fill="none" stroke="currentColor" stroke-width="2" stroke-linecap="round" stroke-linejoin="round"><path d="M11.358 1.061 C 9.150 1.405,7.636 3.582,8.082 5.772 C 8.158 6.141,8.394 6.806,8.483 6.898 C 8.503 6.919,8.520 6.950,8.520 6.968 C 8.520 6.986,8.021 7.000,7.410 7.000 C 6.800 7.000,6.184 7.019,6.043 7.042 C 5.080 7.199,4.236 7.828,3.820 8.699 C 3.728 8.892,3.291 10.412,2.417 13.580 C 1.719 16.110,1.124 18.288,1.095 18.420 C 0.934 19.155,1.135 20.100,1.585 20.718 C 2.029 21.329,2.570 21.703,3.300 21.903 C 3.572 21.978,3.817 21.980,12.020 21.980 C 20.223 21.980,20.468 21.978,20.740 21.903 C 22.211 21.499,23.163 20.110,22.970 18.650 C 22.940 18.426,22.448 16.613,21.603 13.620 C 20.091 8.262,20.167 8.479,19.603 7.920 C 19.244 7.565,18.969 7.379,18.560 7.214 C 18.115 7.034,17.803 7.000,16.596 7.000 C 15.982 7.000,15.480 6.986,15.480 6.968 C 15.480 6.950,15.497 6.919,15.517 6.898 C 15.602 6.811,15.847 6.120,15.921 5.757 C 16.070 5.024,15.994 4.230,15.705 3.516 C 15.172 2.197,14.001 1.269,12.605 1.058 C 12.144 0.989,11.816 0.990,11.358 1.061 M12.523 3.073 C 13.262 3.266,13.850 3.924,13.967 4.690 C 14.029 5.098,13.967 5.522,13.793 5.880 C 13.638 6.198,13.227 6.625,12.930 6.775 C 12.492 6.997,11.962 7.059,11.508 6.940 C 10.823 6.762,10.249 6.194,10.073 5.523 C 9.683 4.028,11.028 2.683,12.523 3.073 M17.880 9.094 C 18.056 9.188,18.270 9.388,18.342 9.525 C 18.372 9.583,18.976 11.680,19.685 14.185 C 21.103 19.200,21.074 19.076,20.881 19.454 C 20.766 19.679,20.612 19.821,20.367 19.926 C 20.200 19.997,19.901 20.000,12.047 20.000 C 6.558 20.000,3.851 19.986,3.751 19.958 C 3.379 19.855,3.040 19.419,3.040 19.043 C 3.040 18.830,5.510 9.814,5.646 9.530 C 5.690 9.436,5.792 9.306,5.872 9.240 C 6.174 8.991,5.800 9.005,12.040 9.013 C 17.515 9.020,17.746 9.023,17.880 9.094 M9.420 13.060 C 8.617 13.191,7.848 13.627,7.331 14.245 C 7.076 14.550,6.981 14.806,7.012 15.107 C 7.069 15.657,7.553 16.044,8.112 15.987 C 8.388 15.959,8.609 15.824,8.870 15.525 C 9.021 15.353,9.157 15.247,9.349 15.152 C 9.597 15.030,9.648 15.020,10.003 15.020 C 10.364 15.020,10.405 15.029,10.662 15.160 C 10.884 15.273,10.998 15.370,11.258 15.670 C 11.639 16.107,12.011 16.411,12.410 16.611 C 13.439 17.126,14.550 17.129,15.572 16.617 C 16.101 16.353,16.708 15.813,16.888 15.446 C 17.026 15.166,17.018 14.765,16.869 14.511 C 16.661 14.157,16.309 13.977,15.903 14.017 C 15.601 14.047,15.399 14.166,15.130 14.475 C 14.979 14.647,14.843 14.753,14.651 14.848 C 14.403 14.970,14.352 14.980,13.997 14.980 C 13.636 14.980,13.595 14.971,13.338 14.840 C 13.120 14.729,13.004 14.632,12.777 14.368 C 12.397 13.926,12.054 13.642,11.641 13.427 C 10.904 13.043,10.219 12.930,9.420 13.060 " stroke="none" fill-rule="evenodd" fill="#000000"></path></svg>