<svg  xmlns="http://www.w3.org/2000/svg" width="24" height="24" viewBox="0 0 24 24" fill="none" stroke="currentColor" stroke-width="2" stroke-linecap="round" stroke-linejoin="round"><path d="M1.670 1.061 C 1.448 1.142,1.250 1.309,1.128 1.516 C 1.036 1.672,1.020 1.745,1.021 2.000 C 1.021 2.214,1.043 2.340,1.096 2.440 C 1.136 2.517,1.449 2.863,1.791 3.208 L 2.413 3.836 2.309 4.068 C 1.800 5.206,1.933 6.517,2.660 7.540 C 2.954 7.954,3.623 8.526,3.923 8.621 C 3.996 8.644,3.999 8.814,4.009 14.612 L 4.020 20.580 4.114 20.860 C 4.446 21.851,5.184 22.582,6.160 22.886 L 6.460 22.980 11.000 22.980 L 15.540 22.980 15.840 22.886 C 16.818 22.581,17.576 21.829,17.880 20.860 C 17.947 20.648,17.973 20.440,17.990 20.006 L 18.011 19.433 19.716 21.132 C 20.653 22.067,21.483 22.865,21.560 22.905 C 21.659 22.957,21.788 22.979,22.000 22.979 C 22.258 22.980,22.327 22.964,22.492 22.867 C 22.968 22.587,23.139 21.967,22.865 21.508 C 22.810 21.416,18.215 16.793,12.653 11.235 C 3.300 1.889,2.525 1.125,2.343 1.065 C 2.107 0.987,1.874 0.986,1.670 1.061 M10.512 1.045 C 10.041 1.105,9.486 1.340,9.020 1.676 C 8.754 1.868,7.996 2.516,7.920 2.616 C 7.832 2.732,7.724 3.042,7.722 3.180 C 7.718 3.513,7.934 3.895,8.223 4.064 C 8.346 4.136,8.482 4.176,8.655 4.190 C 8.997 4.217,9.183 4.129,9.704 3.692 C 10.233 3.248,10.405 3.133,10.654 3.060 C 11.200 2.898,11.473 3.012,12.380 3.780 C 13.006 4.311,13.415 4.487,14.020 4.487 C 14.478 4.487,14.725 4.443,15.656 4.194 C 16.327 4.014,16.439 3.995,16.661 4.019 C 17.172 4.073,17.646 4.420,17.866 4.900 C 17.961 5.106,17.977 5.192,17.977 5.500 C 17.977 5.808,17.961 5.894,17.866 6.100 C 17.722 6.415,17.414 6.724,17.104 6.867 C 16.730 7.039,16.384 7.025,15.642 6.807 C 14.907 6.592,14.493 6.520,13.979 6.520 C 13.565 6.520,13.006 6.603,12.778 6.698 C 12.578 6.782,12.354 7.005,12.254 7.220 C 12.089 7.573,12.149 7.965,12.413 8.265 C 12.686 8.575,13.009 8.669,13.478 8.572 C 13.933 8.479,14.351 8.515,15.060 8.712 C 15.390 8.803,15.737 8.897,15.830 8.920 L 16.000 8.963 16.000 10.294 C 16.000 11.788,16.012 11.871,16.269 12.135 C 16.495 12.369,16.696 12.457,17.000 12.457 C 17.302 12.457,17.513 12.365,17.724 12.142 C 17.839 12.020,17.883 12.000,18.040 12.000 C 18.641 12.000,19.307 12.371,19.659 12.901 C 19.893 13.253,19.971 13.519,19.975 13.980 C 19.978 14.322,19.962 14.429,19.864 14.715 C 19.679 15.259,19.736 15.615,20.061 15.929 C 20.469 16.323,21.201 16.274,21.521 15.832 C 21.654 15.649,21.810 15.256,21.906 14.860 C 22.014 14.418,22.004 13.519,21.887 13.071 C 21.651 12.172,21.200 11.455,20.533 10.919 C 19.913 10.421,19.205 10.125,18.426 10.037 L 18.000 9.989 18.001 9.325 L 18.002 8.660 18.291 8.500 C 18.706 8.270,19.281 7.686,19.531 7.240 C 20.798 4.978,19.321 2.211,16.742 2.015 C 16.332 1.984,15.984 2.037,15.160 2.260 C 14.796 2.358,14.387 2.454,14.249 2.473 C 13.959 2.512,13.993 2.530,13.449 2.071 C 12.943 1.645,12.789 1.537,12.440 1.362 C 11.805 1.043,11.242 0.951,10.512 1.045 M4.800 6.225 L 5.580 7.009 5.352 6.988 C 4.682 6.925,4.096 6.346,4.016 5.670 C 4.001 5.543,3.996 5.440,4.005 5.440 C 4.014 5.440,4.372 5.793,4.800 6.225 M9.609 11.030 L 11.998 13.420 12.009 15.863 L 12.020 18.306 12.141 18.503 C 12.543 19.156,13.457 19.156,13.859 18.503 L 13.980 18.306 13.992 16.865 L 14.004 15.424 15.002 16.422 L 16.000 17.419 16.000 18.763 C 16.000 20.225,15.985 20.347,15.779 20.618 C 15.718 20.698,15.585 20.813,15.484 20.872 L 15.300 20.980 11.000 20.980 L 6.700 20.980 6.516 20.872 C 6.415 20.813,6.284 20.700,6.225 20.623 C 5.987 20.311,6.000 20.652,6.000 14.557 L 6.000 8.963 6.170 8.921 C 6.264 8.898,6.520 8.827,6.740 8.763 C 6.960 8.700,7.158 8.646,7.180 8.644 C 7.202 8.642,8.295 9.716,9.609 11.030 M8.695 13.657 C 8.466 13.729,8.256 13.899,8.128 14.116 L 8.020 14.300 8.020 16.303 L 8.020 18.306 8.141 18.503 C 8.543 19.156,9.457 19.156,9.859 18.503 L 9.980 18.306 9.980 16.303 L 9.980 14.300 9.872 14.116 C 9.628 13.701,9.150 13.515,8.695 13.657 " stroke="none" fill-rule="evenodd" fill="#000000"></path></svg>