<svg  xmlns="http://www.w3.org/2000/svg" width="24" height="24" viewBox="0 0 24 24" fill="none" stroke="currentColor" stroke-width="2" stroke-linecap="round" stroke-linejoin="round"><path d="M2.695 4.057 C 2.466 4.129,2.256 4.299,2.128 4.516 C 2.037 4.672,2.020 4.746,2.020 5.000 C 2.020 5.256,2.036 5.328,2.131 5.489 C 2.256 5.702,2.449 5.864,2.670 5.943 C 2.893 6.022,16.107 6.022,16.330 5.943 C 16.551 5.864,16.744 5.702,16.869 5.489 C 16.964 5.328,16.980 5.256,16.980 5.000 C 16.980 4.746,16.963 4.672,16.872 4.516 C 16.740 4.293,16.533 4.128,16.290 4.055 C 16.028 3.976,2.947 3.978,2.695 4.057 M20.695 4.055 C 20.464 4.130,20.255 4.300,20.128 4.516 C 20.037 4.672,20.020 4.746,20.020 5.000 C 20.020 5.257,20.036 5.327,20.133 5.492 C 20.651 6.374,21.998 6.018,21.998 5.000 C 21.998 4.623,21.792 4.281,21.463 4.112 C 21.265 4.010,20.911 3.984,20.695 4.055 M2.695 11.057 C 2.466 11.129,2.256 11.299,2.128 11.516 C 2.037 11.672,2.020 11.746,2.020 12.000 C 2.020 12.256,2.036 12.328,2.131 12.489 C 2.256 12.702,2.449 12.864,2.670 12.943 C 2.793 12.987,4.021 12.996,9.500 12.996 C 14.979 12.996,16.207 12.987,16.330 12.943 C 16.551 12.864,16.744 12.702,16.869 12.489 C 16.964 12.328,16.980 12.256,16.980 12.000 C 16.980 11.746,16.963 11.672,16.872 11.516 C 16.740 11.293,16.533 11.128,16.290 11.055 C 16.028 10.976,2.947 10.978,2.695 11.057 M20.695 11.055 C 20.464 11.130,20.255 11.300,20.128 11.516 C 20.037 11.672,20.020 11.746,20.020 12.000 C 20.020 12.257,20.036 12.327,20.133 12.492 C 20.651 13.374,21.998 13.018,21.998 12.000 C 21.998 11.623,21.792 11.281,21.463 11.112 C 21.265 11.010,20.911 10.984,20.695 11.055 M2.695 18.057 C 2.466 18.129,2.256 18.299,2.128 18.516 C 2.037 18.672,2.020 18.746,2.020 19.000 C 2.020 19.256,2.036 19.328,2.131 19.489 C 2.256 19.702,2.449 19.864,2.670 19.943 C 2.793 19.987,4.021 19.996,9.500 19.996 C 14.979 19.996,16.207 19.987,16.330 19.943 C 16.551 19.864,16.744 19.702,16.869 19.489 C 16.964 19.328,16.980 19.256,16.980 19.000 C 16.980 18.746,16.963 18.672,16.872 18.516 C 16.740 18.293,16.533 18.128,16.290 18.055 C 16.028 17.976,2.947 17.978,2.695 18.057 M20.695 18.055 C 20.464 18.130,20.255 18.300,20.128 18.516 C 20.037 18.672,20.020 18.746,20.020 19.000 C 20.020 19.257,20.036 19.327,20.133 19.492 C 20.651 20.374,21.998 20.018,21.998 19.000 C 21.998 18.623,21.792 18.281,21.463 18.112 C 21.265 18.010,20.911 17.984,20.695 18.055 " stroke="none" fill-rule="evenodd" fill="#000000"></path></svg>