<svg  xmlns="http://www.w3.org/2000/svg" width="24" height="24" viewBox="0 0 24 24" fill="none" stroke="currentColor" stroke-width="2" stroke-linecap="round" stroke-linejoin="round"><path d="M3.695 3.057 C 3.466 3.129,3.256 3.299,3.128 3.516 C 3.036 3.672,3.020 3.746,3.020 4.003 C 3.020 4.271,3.034 4.329,3.141 4.503 C 3.288 4.742,3.578 4.946,3.821 4.982 L 4.000 5.009 4.000 6.498 L 4.000 7.987 3.786 8.035 C 3.515 8.096,3.270 8.275,3.129 8.514 C 3.036 8.672,3.020 8.745,3.020 9.000 C 3.020 9.256,3.036 9.328,3.131 9.489 C 3.256 9.702,3.449 9.864,3.670 9.943 C 3.885 10.020,6.115 10.020,6.330 9.943 C 6.551 9.864,6.744 9.702,6.869 9.489 C 6.964 9.328,6.980 9.256,6.980 9.000 C 6.980 8.745,6.964 8.672,6.871 8.514 C 6.730 8.275,6.485 8.096,6.216 8.036 L 6.003 7.988 5.991 5.844 L 5.980 3.700 5.872 3.516 C 5.740 3.293,5.533 3.128,5.290 3.055 C 5.050 2.983,3.928 2.984,3.695 3.057 M10.695 4.057 C 10.466 4.129,10.256 4.299,10.128 4.516 C 10.037 4.672,10.020 4.746,10.020 5.000 C 10.020 5.256,10.036 5.328,10.131 5.489 C 10.256 5.702,10.449 5.864,10.670 5.943 C 10.892 6.022,21.108 6.022,21.330 5.943 C 21.551 5.864,21.744 5.702,21.869 5.489 C 21.964 5.328,21.980 5.256,21.980 5.000 C 21.980 4.746,21.963 4.672,21.872 4.516 C 21.740 4.293,21.533 4.128,21.290 4.055 C 21.028 3.976,10.946 3.978,10.695 4.057 M10.695 11.057 C 10.466 11.129,10.256 11.299,10.128 11.516 C 10.037 11.672,10.020 11.746,10.020 12.000 C 10.020 12.256,10.036 12.328,10.131 12.489 C 10.256 12.702,10.449 12.864,10.670 12.943 C 10.892 13.022,21.108 13.022,21.330 12.943 C 21.551 12.864,21.744 12.702,21.869 12.489 C 21.964 12.328,21.980 12.256,21.980 12.000 C 21.980 11.746,21.963 11.672,21.872 11.516 C 21.740 11.293,21.533 11.128,21.290 11.055 C 21.028 10.976,10.946 10.978,10.695 11.057 M4.120 14.026 C 3.459 14.157,2.780 14.566,2.538 14.979 C 2.178 15.594,2.584 16.395,3.293 16.468 C 3.585 16.498,3.854 16.404,4.117 16.179 C 4.365 15.967,4.543 15.943,4.764 16.091 C 5.256 16.423,5.020 16.876,3.815 17.904 C 2.887 18.695,2.543 19.154,2.433 19.746 C 2.345 20.221,2.511 20.622,2.897 20.859 L 3.094 20.980 4.877 20.992 C 6.871 21.005,6.860 21.006,7.173 20.724 C 7.574 20.362,7.600 19.715,7.228 19.326 C 6.978 19.065,6.844 19.023,6.208 19.007 L 5.636 18.992 5.970 18.646 C 6.853 17.730,7.161 16.842,6.921 15.902 C 6.706 15.065,6.056 14.373,5.240 14.116 C 4.984 14.035,4.335 13.983,4.120 14.026 M10.695 18.057 C 10.466 18.129,10.256 18.299,10.128 18.516 C 10.037 18.672,10.020 18.746,10.020 19.000 C 10.020 19.256,10.036 19.328,10.131 19.489 C 10.256 19.702,10.449 19.864,10.670 19.943 C 10.892 20.022,21.108 20.022,21.330 19.943 C 21.551 19.864,21.744 19.702,21.869 19.489 C 21.964 19.328,21.980 19.256,21.980 19.000 C 21.980 18.746,21.963 18.672,21.872 18.516 C 21.740 18.293,21.533 18.128,21.290 18.055 C 21.028 17.976,10.946 17.978,10.695 18.057 " stroke="none" fill-rule="evenodd" fill="#000000"></path></svg>