<svg  xmlns="http://www.w3.org/2000/svg" width="24" height="24" viewBox="0 0 24 24" fill="none" stroke="currentColor" stroke-width="2" stroke-linecap="round" stroke-linejoin="round"><path d="M2.240 2.035 C 1.784 2.186,1.512 2.547,1.512 3.000 C 1.512 3.276,1.600 3.495,1.788 3.688 C 1.976 3.881,2.231 3.984,2.599 4.016 C 3.160 4.065,3.636 4.395,3.867 4.896 L 3.980 5.140 4.000 12.223 L 4.020 19.306 4.141 19.503 C 4.543 20.156,5.457 20.156,5.859 19.503 L 5.980 19.306 6.000 12.223 L 6.020 5.140 6.132 4.900 C 6.280 4.583,6.587 4.275,6.896 4.135 C 7.105 4.040,7.192 4.024,7.500 4.024 C 7.808 4.024,7.895 4.040,8.104 4.135 C 8.413 4.275,8.720 4.583,8.868 4.900 L 8.980 5.140 9.000 12.223 L 9.020 19.306 9.141 19.503 C 9.543 20.156,10.457 20.156,10.859 19.503 L 10.980 19.306 11.000 12.223 L 11.020 5.140 11.133 4.896 C 11.276 4.586,11.586 4.278,11.900 4.134 C 12.106 4.039,12.192 4.023,12.500 4.023 C 12.808 4.023,12.894 4.039,13.100 4.134 C 13.414 4.278,13.724 4.586,13.867 4.896 L 13.980 5.140 14.000 11.360 L 14.020 17.580 14.114 17.860 C 14.443 18.841,15.167 19.564,16.140 19.884 C 16.409 19.973,16.480 19.977,17.996 19.991 L 19.571 20.006 18.870 20.713 C 18.485 21.102,18.139 21.481,18.101 21.555 C 17.872 22.008,18.056 22.601,18.508 22.867 C 18.673 22.964,18.742 22.980,19.000 22.979 C 19.212 22.979,19.341 22.957,19.440 22.905 C 19.517 22.865,20.306 22.109,21.194 21.226 C 22.957 19.472,22.999 19.420,22.999 19.000 C 22.999 18.578,22.960 18.530,21.175 16.756 C 19.716 15.307,19.519 15.124,19.343 15.066 C 18.863 14.906,18.382 15.084,18.128 15.516 C 18.036 15.672,18.020 15.745,18.021 16.000 C 18.021 16.213,18.043 16.340,18.096 16.440 C 18.136 16.517,18.487 16.900,18.875 17.292 L 19.580 18.004 18.140 17.992 L 16.700 17.980 16.516 17.872 C 16.415 17.813,16.284 17.700,16.225 17.623 C 15.987 17.311,16.000 17.686,16.000 11.185 C 16.000 7.323,15.985 5.131,15.959 4.969 C 15.736 3.597,14.727 2.481,13.378 2.114 C 12.960 2.001,12.117 1.990,11.707 2.092 C 11.141 2.233,10.513 2.564,10.153 2.910 L 10.005 3.051 9.818 2.886 C 9.406 2.524,8.911 2.260,8.364 2.111 C 7.961 2.001,7.110 1.992,6.707 2.092 C 6.141 2.233,5.513 2.564,5.153 2.910 L 5.005 3.051 4.818 2.886 C 4.401 2.519,3.898 2.253,3.364 2.115 C 3.026 2.029,2.395 1.983,2.240 2.035 " stroke="none" fill-rule="evenodd" fill="#000000"></path></svg>