<svg  xmlns="http://www.w3.org/2000/svg" width="24" height="24" viewBox="0 0 24 24" fill="none" stroke="currentColor" stroke-width="2" stroke-linecap="round" stroke-linejoin="round"><path d="M3.499 3.043 C 2.380 3.232,1.461 4.048,1.114 5.160 L 1.020 5.460 1.020 12.000 L 1.020 18.540 1.114 18.840 C 1.422 19.827,2.173 20.578,3.160 20.886 L 3.460 20.980 12.000 20.980 L 20.540 20.980 20.840 20.886 C 21.827 20.578,22.578 19.827,22.886 18.840 L 22.980 18.540 22.980 12.000 L 22.980 5.460 22.886 5.160 C 22.581 4.182,21.832 3.428,20.861 3.121 L 20.540 3.020 12.120 3.014 C 7.489 3.011,3.609 3.024,3.499 3.043 M20.310 5.061 C 20.589 5.144,20.856 5.411,20.939 5.690 C 20.992 5.869,21.000 6.651,21.000 12.001 C 21.000 17.059,20.991 18.139,20.945 18.290 C 20.872 18.533,20.707 18.740,20.484 18.872 L 20.300 18.980 19.151 18.992 L 18.002 19.004 17.991 14.712 L 17.980 10.420 17.886 10.140 C 17.556 9.158,16.821 8.425,15.861 8.121 L 15.540 8.020 9.270 8.009 L 3.000 7.998 3.000 6.946 C 3.000 5.703,3.022 5.585,3.304 5.303 C 3.421 5.185,3.552 5.100,3.673 5.063 C 3.833 5.014,5.030 5.005,11.983 5.003 C 19.144 5.000,20.130 5.007,20.310 5.061 M11.000 14.501 L 11.000 19.002 7.350 18.991 L 3.700 18.980 3.516 18.872 C 3.415 18.813,3.284 18.700,3.225 18.623 C 2.990 18.315,3.000 18.511,3.000 14.075 L 3.000 10.000 7.000 10.000 L 11.000 10.000 11.000 14.501 M15.310 10.061 C 15.589 10.144,15.856 10.411,15.939 10.690 C 15.992 10.867,16.000 11.436,16.000 14.947 L 16.000 19.000 14.500 19.000 L 13.000 19.000 13.000 14.500 L 13.000 10.000 14.053 10.000 C 14.879 10.000,15.150 10.013,15.310 10.061 " stroke="none" fill-rule="evenodd" fill="#000000"></path></svg>