<svg  xmlns="http://www.w3.org/2000/svg" width="24" height="24" viewBox="0 0 24 24" fill="none" stroke="currentColor" stroke-width="2" stroke-linecap="round" stroke-linejoin="round"><path d="M7.940 1.041 C 7.038 1.113,5.786 1.340,5.311 1.519 C 4.843 1.695,4.428 2.084,4.204 2.558 C 4.039 2.907,3.986 3.194,4.011 3.600 C 4.051 4.235,4.293 4.763,4.763 5.235 C 5.091 5.566,5.400 5.748,5.995 5.962 C 6.962 6.310,7.605 6.579,8.380 6.959 C 9.087 7.306,10.088 7.872,10.353 8.074 L 10.446 8.145 10.324 8.342 C 10.154 8.617,10.039 8.970,10.013 9.300 L 9.991 9.580 5.842 13.740 C 3.560 16.028,1.629 17.990,1.551 18.100 C 1.348 18.387,1.214 18.670,1.111 19.028 C 0.981 19.478,0.982 20.284,1.113 20.738 C 1.402 21.743,2.227 22.579,3.219 22.872 C 4.083 23.128,5.072 22.986,5.823 22.500 C 5.980 22.399,7.474 20.937,10.240 18.178 L 14.420 14.009 14.700 13.987 C 15.030 13.961,15.371 13.849,15.652 13.677 L 15.854 13.552 15.925 13.646 C 16.092 13.867,16.579 14.709,16.894 15.320 C 17.304 16.115,17.626 16.866,17.955 17.788 C 18.090 18.167,18.240 18.545,18.288 18.628 C 18.779 19.480,19.635 20.002,20.538 19.999 C 21.146 19.997,21.581 19.820,22.004 19.401 C 22.438 18.971,22.625 18.462,22.838 17.135 C 23.080 15.618,23.045 13.871,22.740 12.320 C 22.490 11.046,22.066 9.811,21.493 8.686 L 21.241 8.192 21.436 7.973 C 22.102 7.226,22.182 6.108,21.631 5.279 C 21.404 4.939,18.869 2.440,18.594 2.286 C 17.772 1.824,16.715 1.945,16.006 2.582 L 15.807 2.761 15.252 2.483 C 13.776 1.745,12.335 1.312,10.640 1.099 C 10.040 1.024,8.552 0.992,7.940 1.041 M9.940 3.042 C 11.436 3.169,12.667 3.494,14.097 4.139 L 14.334 4.245 13.113 5.467 L 11.891 6.689 11.535 6.451 C 10.186 5.547,8.494 4.719,6.775 4.121 C 6.329 3.965,6.183 3.879,6.080 3.710 C 5.996 3.572,5.976 3.420,6.037 3.382 C 6.161 3.305,7.596 3.068,8.180 3.028 C 8.636 2.997,9.491 3.003,9.940 3.042 M18.790 5.210 C 19.571 5.991,20.000 6.448,20.000 6.500 C 20.000 6.610,14.611 12.000,14.500 12.000 C 14.391 12.000,12.000 9.610,12.000 9.500 C 12.000 9.390,17.389 4.000,17.500 4.000 C 17.551 4.000,18.011 4.431,18.790 5.210 M20.011 10.240 C 20.929 12.332,21.215 14.726,20.820 17.016 C 20.672 17.873,20.639 17.978,20.520 17.991 C 20.389 18.005,20.179 17.873,20.084 17.717 C 20.042 17.648,19.950 17.428,19.879 17.226 C 19.237 15.409,18.437 13.780,17.515 12.413 L 17.311 12.110 18.524 10.896 C 19.192 10.228,19.750 9.695,19.765 9.711 C 19.780 9.727,19.890 9.965,20.011 10.240 M11.800 12.220 L 12.580 13.000 8.680 16.901 C 5.815 19.767,4.732 20.825,4.601 20.889 C 4.064 21.150,3.397 20.918,3.120 20.375 C 2.991 20.124,2.980 19.667,3.097 19.420 C 3.148 19.311,4.408 18.021,7.076 15.350 C 9.223 13.199,10.989 11.440,11.000 11.440 C 11.011 11.440,11.371 11.791,11.800 12.220 " stroke="none" fill-rule="evenodd" fill="#000000"></path></svg>