<svg  xmlns="http://www.w3.org/2000/svg" width="24" height="24" viewBox="0 0 24 24" fill="none" stroke="currentColor" stroke-width="2" stroke-linecap="round" stroke-linejoin="round"><path d="M2.695 1.057 C 2.466 1.129,2.256 1.299,2.128 1.516 L 2.020 1.700 2.020 3.120 C 2.020 4.497,2.023 4.549,2.114 4.840 C 2.422 5.827,3.173 6.578,4.160 6.886 L 4.460 6.980 12.000 6.980 L 19.540 6.980 19.840 6.886 C 20.827 6.578,21.578 5.827,21.886 4.840 C 21.977 4.549,21.980 4.497,21.980 3.120 L 21.980 1.700 21.871 1.514 C 21.648 1.134,21.208 0.941,20.786 1.035 C 20.515 1.096,20.270 1.275,20.129 1.514 L 20.020 1.700 19.999 2.980 C 19.984 3.854,19.962 4.296,19.929 4.373 C 19.844 4.569,19.673 4.761,19.484 4.872 L 19.300 4.980 17.652 4.992 L 16.003 5.003 15.992 3.352 L 15.980 1.700 15.871 1.514 C 15.479 0.848,14.521 0.848,14.129 1.514 L 14.020 1.700 14.008 3.350 L 13.997 5.000 12.000 5.000 L 10.003 5.000 9.992 3.350 L 9.980 1.700 9.871 1.514 C 9.479 0.848,8.521 0.848,8.129 1.514 L 8.020 1.700 8.008 3.352 L 7.997 5.003 6.348 4.992 L 4.700 4.980 4.516 4.872 C 4.327 4.761,4.157 4.570,4.071 4.373 C 4.037 4.295,4.015 3.865,4.001 2.980 L 3.980 1.700 3.872 1.516 C 3.628 1.101,3.150 0.915,2.695 1.057 M1.695 9.057 C 1.466 9.129,1.256 9.299,1.128 9.516 C 1.037 9.672,1.020 9.746,1.020 10.000 C 1.020 10.256,1.036 10.328,1.131 10.489 C 1.256 10.702,1.449 10.864,1.670 10.943 C 1.885 11.020,4.115 11.020,4.330 10.943 C 4.551 10.864,4.744 10.702,4.869 10.489 C 4.964 10.328,4.980 10.256,4.980 10.000 C 4.980 9.746,4.963 9.672,4.872 9.516 C 4.740 9.293,4.533 9.128,4.290 9.055 C 4.039 8.979,1.937 8.981,1.695 9.057 M7.695 9.057 C 7.466 9.129,7.256 9.299,7.128 9.516 C 7.037 9.672,7.020 9.746,7.020 10.000 C 7.020 10.256,7.036 10.328,7.131 10.489 C 7.256 10.702,7.449 10.864,7.670 10.943 C 7.885 11.020,10.115 11.020,10.330 10.943 C 10.551 10.864,10.744 10.702,10.869 10.489 C 10.964 10.328,10.980 10.256,10.980 10.000 C 10.980 9.746,10.963 9.672,10.872 9.516 C 10.740 9.293,10.533 9.128,10.290 9.055 C 10.039 8.979,7.937 8.981,7.695 9.057 M13.695 9.057 C 13.466 9.129,13.256 9.299,13.128 9.516 C 13.037 9.672,13.020 9.746,13.020 10.000 C 13.020 10.256,13.036 10.328,13.131 10.489 C 13.256 10.702,13.449 10.864,13.670 10.943 C 13.885 11.020,16.115 11.020,16.330 10.943 C 16.551 10.864,16.744 10.702,16.869 10.489 C 16.964 10.328,16.980 10.256,16.980 10.000 C 16.980 9.746,16.963 9.672,16.872 9.516 C 16.740 9.293,16.533 9.128,16.290 9.055 C 16.039 8.979,13.937 8.981,13.695 9.057 M19.695 9.057 C 19.466 9.129,19.256 9.299,19.128 9.516 C 19.037 9.672,19.020 9.746,19.020 10.000 C 19.020 10.256,19.036 10.328,19.131 10.489 C 19.256 10.702,19.449 10.864,19.670 10.943 C 19.885 11.020,22.115 11.020,22.330 10.943 C 22.551 10.864,22.744 10.702,22.869 10.489 C 22.964 10.328,22.980 10.256,22.980 10.000 C 22.980 9.746,22.963 9.672,22.872 9.516 C 22.740 9.293,22.533 9.128,22.290 9.055 C 22.039 8.979,19.937 8.981,19.695 9.057 M4.499 13.043 C 3.380 13.232,2.461 14.048,2.114 15.160 L 2.020 15.460 2.020 18.883 L 2.020 22.306 2.141 22.503 C 2.543 23.156,3.457 23.156,3.859 22.503 L 3.980 22.307 3.992 21.153 L 4.005 20.000 6.000 20.000 L 7.995 20.000 8.008 21.153 L 8.020 22.307 8.141 22.503 C 8.209 22.613,8.346 22.756,8.452 22.828 C 8.923 23.144,9.554 22.999,9.859 22.503 L 9.980 22.307 9.992 21.153 L 10.005 20.000 12.000 20.000 L 13.995 20.000 14.008 21.153 L 14.020 22.307 14.141 22.503 C 14.543 23.156,15.457 23.156,15.859 22.503 L 15.980 22.307 15.992 21.153 L 16.005 20.000 18.000 20.000 L 19.995 20.000 20.008 21.153 L 20.020 22.307 20.141 22.503 C 20.543 23.156,21.457 23.156,21.859 22.503 L 21.980 22.306 21.980 18.883 L 21.980 15.460 21.886 15.160 C 21.581 14.182,20.832 13.428,19.861 13.121 L 19.540 13.020 12.120 13.014 C 8.039 13.011,4.609 13.024,4.499 13.043 M8.000 16.500 L 8.000 18.000 6.000 18.000 L 4.000 18.000 4.000 16.947 C 4.000 15.705,4.022 15.584,4.301 15.306 C 4.598 15.008,4.608 15.007,6.410 15.003 L 8.000 15.000 8.000 16.500 M14.000 16.500 L 14.000 18.000 12.000 18.000 L 10.000 18.000 10.000 16.500 L 10.000 15.000 12.000 15.000 L 14.000 15.000 14.000 16.500 M19.310 15.061 C 19.452 15.103,19.571 15.178,19.697 15.303 C 19.978 15.584,20.000 15.703,20.000 16.947 L 20.000 18.000 18.000 18.000 L 16.000 18.000 16.000 16.500 L 16.000 15.000 17.553 15.000 C 18.826 15.000,19.142 15.011,19.310 15.061 " stroke="none" fill-rule="evenodd" fill="#000000"></path></svg>