<svg  xmlns="http://www.w3.org/2000/svg" width="24" height="24" viewBox="0 0 24 24" fill="none" stroke="currentColor" stroke-width="2" stroke-linecap="round" stroke-linejoin="round"><path d="M11.380 2.043 C 8.447 2.332,6.152 4.769,6.012 7.740 C 5.973 8.562,6.109 9.405,6.408 10.200 C 6.589 10.681,6.739 10.966,7.126 11.563 C 7.277 11.796,7.400 11.995,7.400 12.004 C 7.400 12.014,7.270 12.015,7.110 12.008 C 6.756 11.991,6.101 12.085,5.756 12.204 C 4.847 12.515,4.029 13.170,3.569 13.953 C 2.320 16.083,3.233 18.785,5.512 19.704 C 7.560 20.529,9.874 19.540,10.705 17.484 C 10.938 16.906,11.012 16.443,10.986 15.720 C 10.954 14.823,10.818 14.116,10.542 13.399 C 10.284 12.730,9.954 12.158,9.214 11.090 C 8.313 9.789,8.079 9.229,8.017 8.214 C 7.957 7.252,8.270 6.285,8.899 5.490 C 9.337 4.937,10.048 4.444,10.755 4.203 C 11.050 4.103,11.680 4.000,12.000 4.000 C 12.121 4.000,12.393 4.027,12.605 4.058 C 14.076 4.280,15.310 5.324,15.798 6.759 C 16.097 7.637,16.039 8.767,15.633 10.000 C 15.471 10.493,15.181 11.179,14.679 12.265 C 13.424 14.973,13.080 16.104,13.015 17.740 C 12.994 18.261,13.003 18.395,13.078 18.759 C 13.362 20.125,14.244 21.193,15.512 21.704 C 17.558 22.528,19.877 21.538,20.704 19.488 C 21.014 18.719,21.084 17.878,20.868 17.510 C 20.568 16.998,19.881 16.855,19.405 17.205 C 19.146 17.396,19.042 17.610,18.997 18.047 C 18.947 18.537,18.875 18.773,18.688 19.062 C 18.305 19.654,17.683 20.000,17.000 20.000 C 16.296 20.000,15.638 19.619,15.271 18.998 C 15.031 18.592,14.977 18.264,15.034 17.560 C 15.135 16.297,15.389 15.509,16.399 13.320 C 17.422 11.103,17.699 10.337,17.907 9.140 C 18.014 8.525,18.003 7.391,17.885 6.840 C 17.626 5.632,17.109 4.660,16.269 3.805 C 14.978 2.490,13.230 1.860,11.380 2.043 M7.523 14.073 C 8.262 14.266,8.850 14.924,8.967 15.690 C 9.067 16.343,8.873 16.933,8.403 17.404 C 8.002 17.807,7.547 18.000,7.000 18.000 C 6.485 18.000,6.038 17.822,5.653 17.465 C 4.323 16.229,5.189 14.005,7.000 14.005 C 7.143 14.005,7.378 14.036,7.523 14.073 " stroke="none" fill-rule="evenodd" fill="#000000"></path></svg>