<svg  xmlns="http://www.w3.org/2000/svg" width="24" height="24" viewBox="0 0 24 24" fill="none" stroke="currentColor" stroke-width="2" stroke-linecap="round" stroke-linejoin="round"><path d="M3.499 2.043 C 2.391 2.230,1.488 3.024,1.114 4.140 L 1.020 4.420 1.009 12.958 C 1.000 20.694,1.005 21.516,1.063 21.718 C 1.326 22.631,2.237 23.176,3.110 22.943 C 3.571 22.820,3.647 22.759,4.980 21.438 C 5.684 20.740,6.323 20.136,6.400 20.095 C 6.535 20.023,6.810 20.019,13.560 20.000 L 20.580 19.980 20.860 19.886 C 21.851 19.554,22.582 18.816,22.886 17.840 L 22.980 17.540 22.980 11.000 L 22.980 4.460 22.886 4.160 C 22.581 3.182,21.832 2.428,20.861 2.121 L 20.540 2.020 12.120 2.014 C 7.489 2.011,3.609 2.024,3.499 2.043 M20.310 4.061 C 20.589 4.144,20.856 4.411,20.939 4.690 C 20.992 4.869,21.000 5.651,21.000 11.001 C 21.000 16.059,20.991 17.139,20.945 17.290 C 20.872 17.533,20.707 17.740,20.484 17.872 L 20.300 17.980 13.280 18.000 L 6.260 18.020 5.980 18.115 C 5.291 18.347,5.119 18.475,3.970 19.615 L 3.000 20.576 3.000 12.735 C 3.000 5.832,3.007 4.870,3.061 4.690 C 3.140 4.421,3.412 4.143,3.673 4.063 C 3.833 4.014,5.030 4.005,11.983 4.003 C 19.144 4.000,20.130 4.007,20.310 4.061 M11.695 7.057 C 11.466 7.129,11.256 7.299,11.128 7.516 L 11.020 7.700 11.008 8.850 L 10.995 10.000 9.944 10.000 C 8.797 10.000,8.643 10.022,8.382 10.221 C 8.302 10.282,8.187 10.415,8.128 10.516 C 8.037 10.672,8.020 10.746,8.020 11.000 C 8.020 11.256,8.036 11.328,8.131 11.489 C 8.192 11.592,8.304 11.725,8.381 11.783 C 8.642 11.983,8.738 11.996,9.908 11.998 L 10.995 12.000 11.008 13.153 L 11.020 14.307 11.141 14.503 C 11.543 15.156,12.457 15.156,12.859 14.503 L 12.980 14.307 12.992 13.153 L 13.005 12.000 14.092 11.998 C 15.262 11.996,15.358 11.983,15.619 11.783 C 15.696 11.725,15.808 11.592,15.869 11.489 C 15.964 11.328,15.980 11.256,15.980 11.000 C 15.980 10.746,15.963 10.672,15.872 10.516 C 15.813 10.415,15.698 10.282,15.618 10.221 C 15.357 10.022,15.203 10.000,14.056 10.000 L 13.005 10.000 12.992 8.850 L 12.980 7.700 12.872 7.516 C 12.628 7.101,12.150 6.915,11.695 7.057 " stroke="none" fill-rule="evenodd" fill="#000000"></path></svg>