<svg  xmlns="http://www.w3.org/2000/svg" width="24" height="24" viewBox="0 0 24 24" fill="none" stroke="currentColor" stroke-width="2" stroke-linecap="round" stroke-linejoin="round"><path d="M5.499 1.043 C 4.379 1.234,3.461 2.048,3.114 3.160 L 3.020 3.460 3.020 12.000 L 3.020 20.540 3.114 20.840 C 3.422 21.827,4.173 22.578,5.160 22.886 L 5.460 22.980 12.000 22.980 L 18.540 22.980 18.840 22.886 C 19.827 22.578,20.578 21.827,20.886 20.840 L 20.980 20.540 20.980 13.980 L 20.980 7.420 20.868 7.060 C 20.728 6.613,20.498 6.179,20.219 5.840 C 19.855 5.397,16.159 1.747,15.910 1.585 C 15.591 1.378,15.236 1.218,14.860 1.111 L 14.540 1.021 10.120 1.015 C 7.689 1.011,5.609 1.024,5.499 1.043 M13.000 5.132 C 13.000 7.443,13.004 7.494,13.225 7.930 C 13.361 8.199,13.801 8.639,14.070 8.775 C 14.506 8.996,14.557 9.000,16.868 9.000 L 19.000 9.000 19.000 14.554 C 19.000 19.144,18.990 20.139,18.945 20.290 C 18.872 20.533,18.707 20.740,18.484 20.872 L 18.300 20.980 12.000 20.980 L 5.700 20.980 5.516 20.872 C 5.415 20.813,5.284 20.700,5.225 20.623 C 4.985 20.308,5.000 20.888,5.000 12.022 C 5.000 2.888,4.974 3.632,5.304 3.303 C 5.615 2.991,5.409 3.006,9.430 3.003 L 13.000 3.000 13.000 5.132 M16.800 5.220 L 18.580 7.000 16.790 7.000 L 15.000 7.000 15.000 5.220 C 15.000 4.241,15.005 3.440,15.010 3.440 C 15.016 3.440,15.821 4.241,16.800 5.220 M7.695 12.057 C 7.466 12.129,7.256 12.299,7.128 12.516 C 7.037 12.672,7.020 12.746,7.020 13.000 C 7.020 13.256,7.036 13.328,7.131 13.489 C 7.256 13.702,7.449 13.864,7.670 13.943 C 7.885 14.020,10.115 14.020,10.330 13.943 C 10.551 13.864,10.744 13.702,10.869 13.489 C 10.964 13.328,10.980 13.256,10.980 13.000 C 10.980 12.746,10.963 12.672,10.872 12.516 C 10.740 12.293,10.533 12.128,10.290 12.055 C 10.039 11.979,7.937 11.981,7.695 12.057 M13.695 12.057 C 13.466 12.129,13.256 12.299,13.128 12.516 C 13.037 12.672,13.020 12.746,13.020 13.000 C 13.020 13.256,13.036 13.328,13.131 13.489 C 13.256 13.702,13.449 13.864,13.670 13.943 C 13.885 14.020,16.115 14.020,16.330 13.943 C 16.551 13.864,16.744 13.702,16.869 13.489 C 16.964 13.328,16.980 13.256,16.980 13.000 C 16.980 12.746,16.963 12.672,16.872 12.516 C 16.740 12.293,16.533 12.128,16.290 12.055 C 16.039 11.979,13.937 11.981,13.695 12.057 M7.695 16.057 C 7.466 16.129,7.256 16.299,7.128 16.516 C 7.037 16.672,7.020 16.746,7.020 17.000 C 7.020 17.256,7.036 17.328,7.131 17.489 C 7.256 17.702,7.449 17.864,7.670 17.943 C 7.885 18.020,10.115 18.020,10.330 17.943 C 10.551 17.864,10.744 17.702,10.869 17.489 C 10.964 17.328,10.980 17.256,10.980 17.000 C 10.980 16.746,10.963 16.672,10.872 16.516 C 10.740 16.293,10.533 16.128,10.290 16.055 C 10.039 15.979,7.937 15.981,7.695 16.057 M13.695 16.057 C 13.466 16.129,13.256 16.299,13.128 16.516 C 13.037 16.672,13.020 16.746,13.020 17.000 C 13.020 17.256,13.036 17.328,13.131 17.489 C 13.256 17.702,13.449 17.864,13.670 17.943 C 13.885 18.020,16.115 18.020,16.330 17.943 C 16.551 17.864,16.744 17.702,16.869 17.489 C 16.964 17.328,16.980 17.256,16.980 17.000 C 16.980 16.746,16.963 16.672,16.872 16.516 C 16.740 16.293,16.533 16.128,16.290 16.055 C 16.039 15.979,13.937 15.981,13.695 16.057 " stroke="none" fill-rule="evenodd" fill="#000000"></path></svg>