<svg  xmlns="http://www.w3.org/2000/svg" width="24" height="24" viewBox="0 0 24 24" fill="none" stroke="currentColor" stroke-width="2" stroke-linecap="round" stroke-linejoin="round"><path d="M4.290 2.062 C 3.990 2.143,3.777 2.261,3.551 2.472 C 3.315 2.693,3.178 2.917,3.075 3.245 C 2.945 3.665,3.003 4.167,3.227 4.560 C 3.290 4.671,4.805 6.218,7.165 8.580 L 11.000 12.421 11.000 16.710 L 11.000 21.000 8.946 21.000 C 6.717 21.000,6.666 21.004,6.382 21.221 C 6.302 21.282,6.187 21.415,6.128 21.516 C 6.037 21.672,6.020 21.746,6.020 22.000 C 6.020 22.256,6.036 22.328,6.131 22.489 C 6.256 22.702,6.449 22.864,6.670 22.943 C 6.892 23.022,17.108 23.022,17.330 22.943 C 17.551 22.864,17.744 22.702,17.869 22.489 C 17.964 22.328,17.980 22.256,17.980 22.000 C 17.980 21.746,17.963 21.672,17.872 21.516 C 17.813 21.415,17.698 21.282,17.618 21.221 C 17.334 21.004,17.283 21.000,15.054 21.000 L 13.000 21.000 13.000 16.711 L 13.000 12.421 16.855 8.561 C 20.975 4.434,20.841 4.580,20.958 4.076 C 21.088 3.508,20.891 2.886,20.449 2.472 C 20.217 2.256,20.010 2.142,19.693 2.060 C 19.357 1.972,4.615 1.974,4.290 2.062 M15.290 7.290 L 12.000 10.580 8.710 7.290 L 5.420 4.000 12.000 4.000 L 18.580 4.000 15.290 7.290 " stroke="none" fill-rule="evenodd" fill="#000000"></path></svg>