<svg  xmlns="http://www.w3.org/2000/svg" width="24" height="24" viewBox="0 0 24 24" fill="none" stroke="currentColor" stroke-width="2" stroke-linecap="round" stroke-linejoin="round"><path d="M11.540 1.023 C 10.715 1.102,10.250 1.200,9.620 1.427 C 7.452 2.207,5.779 4.052,5.223 6.275 C 5.058 6.932,5.022 7.261,5.023 8.080 C 5.024 8.946,5.100 9.512,5.324 10.308 C 5.869 12.249,7.106 14.216,8.575 15.474 C 9.274 16.074,10.152 16.601,10.748 16.780 L 10.989 16.852 11.013 17.216 C 11.093 18.443,11.935 19.498,13.140 19.881 C 13.381 19.958,13.548 19.974,14.340 19.997 C 15.364 20.027,15.442 20.045,15.699 20.301 C 15.950 20.553,15.973 20.648,15.998 21.523 L 16.020 22.306 16.141 22.503 C 16.543 23.156,17.457 23.156,17.859 22.503 L 17.980 22.306 17.980 21.383 C 17.980 20.527,17.973 20.438,17.886 20.160 C 17.580 19.179,16.817 18.413,15.861 18.126 C 15.578 18.041,15.431 18.027,14.620 18.005 C 13.714 17.980,13.697 17.978,13.516 17.872 C 13.210 17.692,13.000 17.339,13.000 17.003 C 13.000 16.857,13.002 16.854,13.246 16.781 C 13.848 16.601,14.723 16.076,15.425 15.474 C 16.944 14.172,18.220 12.101,18.718 10.131 C 18.928 9.302,18.975 8.929,18.977 8.080 C 18.979 7.055,18.886 6.488,18.573 5.620 C 17.715 3.237,15.581 1.473,13.102 1.098 C 12.726 1.041,11.813 0.997,11.540 1.023 M12.552 3.043 C 14.413 3.246,16.001 4.479,16.680 6.248 C 17.394 8.105,16.859 10.558,15.268 12.720 C 14.899 13.223,14.032 14.078,13.599 14.367 C 12.930 14.814,12.499 14.979,12.000 14.979 C 11.262 14.979,10.460 14.537,9.537 13.620 C 8.766 12.855,8.252 12.134,7.793 11.174 C 7.051 9.624,6.828 8.066,7.162 6.760 C 7.776 4.355,10.073 2.771,12.552 3.043 M11.695 5.054 C 11.048 5.267,10.799 6.040,11.198 6.591 C 11.369 6.827,11.608 6.953,11.972 6.999 C 12.355 7.048,12.509 7.112,12.699 7.301 C 12.889 7.491,12.952 7.645,13.001 8.031 C 13.049 8.410,13.184 8.647,13.452 8.828 C 13.923 9.144,14.554 8.998,14.859 8.503 C 14.974 8.315,14.980 8.285,14.978 7.883 C 14.977 7.559,14.955 7.390,14.885 7.160 C 14.586 6.184,13.809 5.404,12.863 5.130 C 12.463 5.015,11.922 4.979,11.695 5.054 " stroke="none" fill-rule="evenodd" fill="#000000"></path></svg>