<svg  xmlns="http://www.w3.org/2000/svg" width="24" height="24" viewBox="0 0 24 24" fill="none" stroke="currentColor" stroke-width="2" stroke-linecap="round" stroke-linejoin="round"><path d="M14.140 2.254 C 12.772 2.653,11.644 3.359,10.758 4.370 C 9.813 5.449,9.247 6.693,9.062 8.101 C 8.979 8.734,9.044 8.976,9.376 9.268 C 9.768 9.613,10.286 9.607,10.680 9.253 C 10.908 9.048,10.980 8.885,11.039 8.436 C 11.159 7.539,11.402 6.888,11.884 6.173 C 12.269 5.603,12.928 4.991,13.500 4.672 C 13.791 4.509,14.240 4.307,14.262 4.328 C 14.270 4.337,14.242 4.460,14.200 4.601 C 13.919 5.529,13.942 6.621,14.265 7.600 C 14.489 8.280,14.865 8.896,15.395 9.450 C 16.684 10.800,18.562 11.309,20.379 10.803 C 20.533 10.761,20.666 10.733,20.675 10.742 C 20.685 10.751,20.590 10.963,20.466 11.214 C 19.971 12.207,19.213 12.971,18.228 13.466 C 17.753 13.704,17.618 13.816,17.494 14.068 C 17.229 14.611,17.468 15.230,18.025 15.439 C 18.391 15.575,18.556 15.546,19.171 15.237 C 20.694 14.471,21.909 13.120,22.537 11.493 C 22.875 10.617,22.923 10.050,22.699 9.580 C 22.483 9.126,21.982 8.748,21.451 8.638 C 21.104 8.566,20.594 8.608,20.240 8.738 C 19.655 8.952,19.524 8.977,19.000 8.977 C 18.137 8.976,17.540 8.737,16.927 8.144 C 16.378 7.615,16.078 6.974,16.017 6.198 C 15.983 5.767,16.045 5.382,16.228 4.880 C 16.549 4.004,16.415 3.169,15.866 2.621 C 15.753 2.508,15.553 2.363,15.422 2.299 C 15.090 2.137,14.601 2.120,14.140 2.254 M6.520 11.026 C 4.632 11.206,3.042 12.142,2.012 13.680 C 0.909 15.326,0.698 17.394,1.441 19.254 C 1.725 19.965,2.199 20.686,2.498 20.861 C 3.115 21.223,3.914 20.818,3.988 20.108 C 4.017 19.824,3.960 19.658,3.683 19.220 C 3.185 18.433,3.026 17.894,3.026 17.000 C 3.026 16.536,3.043 16.348,3.114 16.060 C 3.287 15.362,3.784 14.513,4.283 14.065 C 5.661 12.827,7.664 12.661,9.180 13.659 C 10.036 14.223,10.605 15.010,10.865 15.989 C 10.988 16.450,11.029 16.538,11.207 16.708 C 11.474 16.964,11.617 16.998,12.423 16.999 C 12.820 17.000,13.252 17.019,13.383 17.043 C 14.133 17.180,14.798 17.834,14.956 18.592 C 15.020 18.899,15.010 19.186,14.925 19.510 C 14.831 19.869,14.698 20.096,14.379 20.444 C 14.077 20.773,13.978 21.016,14.012 21.347 C 14.068 21.892,14.556 22.285,15.106 22.228 C 15.392 22.198,15.608 22.067,15.919 21.735 C 16.391 21.230,16.691 20.679,16.887 19.959 C 17.016 19.484,17.017 18.494,16.890 18.033 C 16.680 17.276,16.345 16.692,15.825 16.180 C 15.034 15.400,14.058 15.000,12.945 15.000 L 12.656 15.000 12.603 14.850 C 12.152 13.570,10.991 12.290,9.696 11.645 C 8.729 11.164,7.530 10.930,6.520 11.026 M6.695 18.057 C 6.466 18.129,6.256 18.299,6.128 18.516 L 6.020 18.700 6.020 20.003 L 6.020 21.306 6.141 21.503 C 6.543 22.156,7.457 22.156,7.859 21.503 L 7.980 21.306 7.980 20.003 L 7.980 18.700 7.872 18.516 C 7.628 18.101,7.150 17.915,6.695 18.057 M10.695 19.057 C 10.466 19.129,10.256 19.299,10.128 19.516 L 10.020 19.700 10.020 21.003 L 10.020 22.306 10.141 22.503 C 10.543 23.156,11.457 23.156,11.859 22.503 L 11.980 22.306 11.980 21.003 L 11.980 19.700 11.872 19.516 C 11.628 19.101,11.150 18.915,10.695 19.057 " stroke="none" fill-rule="evenodd" fill="#000000"></path></svg>