<svg  xmlns="http://www.w3.org/2000/svg" width="24" height="24" viewBox="0 0 24 24" fill="none" stroke="currentColor" stroke-width="2" stroke-linecap="round" stroke-linejoin="round"><path d="M4.499 2.043 C 3.380 2.232,2.461 3.048,2.114 4.160 L 2.020 4.460 2.020 12.000 L 2.020 19.540 2.114 19.840 C 2.422 20.827,3.173 21.578,4.160 21.886 L 4.460 21.980 12.000 21.980 L 19.540 21.980 19.840 21.886 C 20.817 21.581,21.566 20.838,21.883 19.860 C 21.965 19.607,21.975 19.482,21.991 18.566 C 22.011 17.403,21.994 17.295,21.746 17.014 C 21.533 16.772,21.331 16.682,21.000 16.682 C 20.670 16.682,20.467 16.772,20.255 17.012 C 20.024 17.275,20.000 17.395,20.000 18.308 C 20.000 19.185,19.969 19.369,19.779 19.618 C 19.718 19.698,19.585 19.813,19.484 19.872 L 19.300 19.980 12.000 19.980 L 4.700 19.980 4.516 19.872 C 4.415 19.813,4.284 19.700,4.225 19.623 C 3.986 19.309,4.000 19.795,4.000 12.022 C 4.000 4.006,3.975 4.631,4.303 4.303 C 4.631 3.976,4.009 4.000,12.000 4.000 C 19.991 4.000,19.369 3.976,19.697 4.303 C 19.966 4.572,20.000 4.728,20.000 5.693 C 20.000 6.194,20.018 6.550,20.048 6.649 C 20.115 6.874,20.402 7.179,20.627 7.265 C 21.030 7.419,21.446 7.319,21.733 6.999 C 21.995 6.708,22.011 6.611,21.991 5.434 C 21.975 4.518,21.965 4.393,21.883 4.140 C 21.569 3.170,20.822 2.425,19.861 2.121 L 19.540 2.020 12.120 2.014 C 8.039 2.011,4.609 2.024,4.499 2.043 M16.670 7.061 C 16.448 7.142,16.250 7.309,16.128 7.516 C 16.036 7.672,16.020 7.745,16.021 8.000 C 16.021 8.213,16.043 8.341,16.095 8.440 C 16.136 8.517,16.711 9.125,17.374 9.790 L 18.578 11.000 14.235 11.000 C 9.521 11.000,9.682 10.993,9.382 11.221 C 9.302 11.282,9.187 11.415,9.128 11.516 C 9.037 11.672,9.020 11.746,9.020 12.000 C 9.020 12.256,9.036 12.328,9.131 12.489 C 9.256 12.702,9.449 12.864,9.670 12.943 C 9.792 12.986,10.645 12.997,14.199 12.998 L 18.578 13.000 17.374 14.210 C 16.711 14.876,16.138 15.481,16.101 15.555 C 15.872 16.009,16.056 16.601,16.508 16.867 C 16.673 16.964,16.742 16.980,17.000 16.979 C 17.212 16.979,17.341 16.957,17.440 16.905 C 17.517 16.865,18.531 15.884,19.694 14.726 C 21.996 12.433,21.999 12.429,21.999 12.000 C 21.999 11.569,21.999 11.569,19.674 9.255 C 17.750 7.340,17.521 7.124,17.343 7.065 C 17.107 6.987,16.874 6.986,16.670 7.061 " stroke="none" fill-rule="evenodd" fill="#000000"></path></svg>