<svg  xmlns="http://www.w3.org/2000/svg" width="24" height="24" viewBox="0 0 24 24" fill="none" stroke="currentColor" stroke-width="2" stroke-linecap="round" stroke-linejoin="round"><path d="M3.499 1.043 C 2.380 1.232,1.461 2.048,1.114 3.160 L 1.020 3.460 1.020 6.000 L 1.020 8.540 1.114 8.840 C 1.419 9.818,2.170 10.574,3.140 10.880 C 3.358 10.949,3.555 10.973,4.030 10.990 C 4.730 11.014,4.893 10.976,5.173 10.724 C 5.574 10.362,5.600 9.715,5.228 9.326 C 4.990 9.078,4.839 9.028,4.237 9.001 C 3.747 8.978,3.677 8.966,3.513 8.870 C 3.414 8.812,3.284 8.700,3.225 8.623 C 3.000 8.327,3.000 8.332,3.000 6.022 C 3.000 3.586,2.997 3.609,3.303 3.303 C 3.632 2.974,2.892 3.000,12.000 3.000 C 21.108 3.000,20.368 2.974,20.697 3.303 C 21.002 3.609,21.000 3.589,21.000 6.001 C 21.000 8.287,20.996 8.333,20.779 8.618 C 20.718 8.698,20.586 8.812,20.487 8.870 C 20.323 8.966,20.253 8.978,19.763 9.001 C 19.323 9.021,19.190 9.042,19.060 9.109 C 18.709 9.293,18.512 9.614,18.512 10.003 C 18.512 10.422,18.768 10.785,19.174 10.940 C 19.445 11.043,20.457 11.008,20.860 10.880 C 21.830 10.574,22.581 9.818,22.886 8.840 L 22.980 8.540 22.980 6.000 L 22.980 3.460 22.886 3.160 C 22.581 2.182,21.832 1.428,20.861 1.121 L 20.540 1.020 12.120 1.014 C 7.489 1.011,3.609 1.024,3.499 1.043 M5.695 5.055 C 5.464 5.130,5.255 5.300,5.128 5.516 C 5.037 5.672,5.020 5.746,5.020 6.000 C 5.020 6.257,5.036 6.327,5.133 6.492 C 5.651 7.374,6.998 7.018,6.998 6.000 C 6.998 5.623,6.792 5.281,6.463 5.112 C 6.265 5.010,5.911 4.984,5.695 5.055 M10.048 7.405 C 9.847 7.505,9.664 7.677,9.573 7.854 C 9.482 8.030,9.457 8.465,9.528 8.639 L 9.585 8.778 9.182 9.182 L 8.780 9.586 8.640 9.528 C 8.546 9.490,8.414 9.477,8.239 9.489 C 7.704 9.528,7.314 9.936,7.314 10.458 C 7.314 10.850,7.558 11.239,7.892 11.379 L 8.010 11.429 8.010 12.001 L 8.010 12.573 7.855 12.651 C 7.629 12.765,7.497 12.903,7.400 13.129 C 7.190 13.617,7.390 14.187,7.854 14.427 C 8.029 14.518,8.465 14.543,8.637 14.473 L 8.775 14.416 9.180 14.818 L 9.586 15.220 9.528 15.360 C 9.456 15.534,9.481 15.968,9.573 16.146 C 9.668 16.330,9.875 16.522,10.072 16.609 C 10.546 16.819,11.183 16.575,11.379 16.108 L 11.429 15.990 12.000 15.990 L 12.571 15.990 12.621 16.108 C 12.817 16.576,13.454 16.819,13.931 16.608 C 14.394 16.403,14.634 15.845,14.467 15.360 L 14.419 15.220 14.820 14.817 L 15.220 14.414 15.360 14.472 C 15.534 14.544,15.968 14.519,16.146 14.427 C 16.610 14.187,16.810 13.617,16.600 13.129 C 16.503 12.904,16.371 12.765,16.146 12.651 L 15.991 12.574 15.989 12.002 L 15.987 11.430 16.107 11.380 C 16.306 11.296,16.505 11.092,16.598 10.876 C 16.878 10.224,16.465 9.539,15.761 9.490 C 15.589 9.477,15.453 9.490,15.363 9.527 L 15.225 9.584 14.820 9.182 L 14.414 8.780 14.472 8.640 C 14.543 8.467,14.519 8.032,14.429 7.857 C 14.262 7.535,13.905 7.320,13.537 7.321 C 13.148 7.322,12.800 7.529,12.644 7.851 L 12.563 8.020 11.999 8.016 L 11.436 8.013 11.354 7.847 C 11.131 7.395,10.499 7.182,10.048 7.405 M12.408 10.045 C 13.313 10.238,14.000 11.082,14.000 12.000 C 14.000 13.079,13.080 13.999,12.000 13.999 C 10.920 13.999,10.000 13.079,10.000 12.000 C 10.000 11.098,10.651 10.277,11.540 10.056 C 11.798 9.993,12.140 9.988,12.408 10.045 M3.499 13.041 C 2.370 13.241,1.461 14.048,1.114 15.160 L 1.020 15.460 1.020 18.000 L 1.020 20.540 1.114 20.840 C 1.422 21.827,2.173 22.578,3.160 22.886 L 3.460 22.980 12.000 22.980 L 20.540 22.980 20.840 22.886 C 21.827 22.578,22.578 21.827,22.886 20.840 L 22.980 20.540 22.980 18.000 L 22.980 15.460 22.886 15.160 C 22.577 14.168,21.788 13.386,20.822 13.114 C 20.550 13.037,20.401 13.023,19.860 13.021 C 19.278 13.020,19.205 13.028,19.060 13.106 C 18.707 13.297,18.512 13.615,18.512 14.000 C 18.512 14.405,18.719 14.724,19.100 14.905 C 19.271 14.985,19.362 14.999,19.723 15.000 C 20.252 15.000,20.459 15.065,20.700 15.306 C 21.002 15.608,21.000 15.592,21.000 18.001 C 21.000 20.287,20.996 20.333,20.779 20.618 C 20.718 20.698,20.585 20.813,20.484 20.872 L 20.300 20.980 12.000 20.980 L 3.700 20.980 3.516 20.872 C 3.415 20.813,3.284 20.700,3.225 20.623 C 3.000 20.327,3.000 20.332,3.000 18.022 C 3.000 15.586,2.997 15.609,3.303 15.303 C 3.537 15.069,3.763 15.000,4.297 15.000 C 4.637 14.999,4.731 14.984,4.900 14.905 C 5.281 14.724,5.488 14.405,5.488 14.000 C 5.488 13.615,5.292 13.296,4.940 13.108 C 4.802 13.034,4.705 13.021,4.240 13.014 C 3.943 13.009,3.609 13.022,3.499 13.041 M5.695 17.055 C 5.464 17.130,5.255 17.300,5.128 17.516 C 5.037 17.672,5.020 17.746,5.020 18.000 C 5.020 18.257,5.036 18.327,5.133 18.492 C 5.651 19.374,6.998 19.018,6.998 18.000 C 6.998 17.623,6.792 17.281,6.463 17.112 C 6.265 17.010,5.911 16.984,5.695 17.055 " stroke="none" fill-rule="evenodd" fill="#000000"></path></svg>