<svg  xmlns="http://www.w3.org/2000/svg" width="24" height="24" viewBox="0 0 24 24" fill="none" stroke="currentColor" stroke-width="2" stroke-linecap="round" stroke-linejoin="round"><path d="M12.260 1.058 C 11.482 1.178,10.602 1.550,9.974 2.024 L 9.648 2.270 9.294 2.174 C 7.634 1.728,5.835 2.188,4.564 3.384 C 2.983 4.871,2.559 7.245,3.525 9.212 C 4.050 10.282,5.054 11.225,6.094 11.621 C 6.262 11.686,6.396 11.752,6.390 11.767 C 6.348 11.886,4.932 13.333,3.478 14.742 C 2.520 15.671,1.642 16.535,1.526 16.661 C 1.049 17.183,0.905 17.799,1.058 18.667 C 1.332 20.226,2.466 21.725,3.932 22.465 C 4.822 22.914,5.802 23.097,6.471 22.940 C 7.046 22.804,7.071 22.782,9.242 20.540 C 10.490 19.251,12.130 17.643,12.231 17.611 C 12.247 17.605,12.302 17.713,12.354 17.851 C 12.784 18.987,13.837 20.080,14.975 20.571 C 16.924 21.411,19.128 20.983,20.570 19.485 C 21.487 18.533,21.932 17.489,21.989 16.156 C 22.012 15.619,21.944 15.053,21.800 14.589 L 21.728 14.357 22.000 13.994 C 22.434 13.417,22.780 12.632,22.925 11.900 C 23.007 11.481,22.998 10.463,22.907 10.040 C 22.760 9.353,22.523 8.781,22.153 8.220 C 21.949 7.910,21.337 7.255,21.029 7.017 L 20.879 6.900 20.943 6.600 C 21.020 6.240,21.002 5.585,20.904 5.220 C 20.704 4.476,20.139 3.761,19.441 3.368 C 18.889 3.058,18.099 2.935,17.440 3.056 L 17.100 3.119 16.983 2.969 C 16.745 2.665,16.131 2.088,15.831 1.886 C 14.982 1.316,14.172 1.053,13.160 1.020 C 12.812 1.009,12.492 1.023,12.260 1.058 M13.740 3.098 C 13.872 3.132,14.142 3.240,14.340 3.337 C 14.939 3.631,15.351 4.044,15.678 4.679 C 15.895 5.101,16.051 5.275,16.320 5.397 C 16.671 5.555,16.977 5.493,17.482 5.159 C 18.162 4.709,19.084 5.302,18.987 6.125 C 18.964 6.320,18.937 6.378,18.699 6.756 C 18.536 7.014,18.493 7.255,18.557 7.542 C 18.628 7.858,18.839 8.075,19.314 8.319 C 19.955 8.648,20.368 9.058,20.663 9.660 C 20.906 10.154,20.973 10.444,20.976 11.000 C 20.979 11.525,20.916 11.814,20.701 12.270 C 20.512 12.669,20.379 12.852,20.021 13.200 C 19.621 13.590,19.542 13.738,19.543 14.100 C 19.543 14.331,19.566 14.429,19.672 14.656 C 19.952 15.258,20.044 15.801,19.963 16.380 C 19.871 17.044,19.627 17.555,19.166 18.046 C 17.893 19.404,15.728 19.287,14.612 17.799 C 14.283 17.361,14.069 16.826,14.064 16.426 L 14.060 16.183 14.488 15.921 C 14.724 15.778,15.050 15.589,15.212 15.502 L 15.508 15.344 15.811 15.492 C 16.489 15.823,16.907 15.807,17.277 15.437 C 17.458 15.256,17.528 15.097,17.550 14.818 C 17.591 14.313,17.414 14.053,16.833 13.761 C 16.129 13.407,15.742 13.063,15.413 12.500 C 15.163 12.072,15.069 11.745,15.003 11.067 C 14.958 10.609,14.859 10.400,14.595 10.205 C 14.120 9.856,13.432 9.998,13.133 10.508 C 13.003 10.731,12.970 11.108,13.037 11.611 C 13.133 12.335,13.336 12.923,13.707 13.554 C 13.842 13.782,13.914 13.942,13.886 13.951 C 13.798 13.981,12.816 14.608,12.480 14.850 C 11.271 15.721,10.722 16.223,8.195 18.769 L 5.969 21.010 5.736 20.981 C 4.582 20.837,3.386 19.737,3.079 18.537 C 3.036 18.367,3.000 18.178,3.000 18.118 C 3.000 18.026,3.237 17.776,4.430 16.612 C 5.216 15.844,5.962 15.121,6.087 15.005 C 6.212 14.889,6.633 14.455,7.022 14.041 L 7.731 13.288 7.948 13.427 C 8.233 13.609,8.626 13.774,9.020 13.877 C 9.418 13.982,10.041 14.026,10.264 13.965 C 10.498 13.901,10.737 13.714,10.867 13.492 C 10.964 13.327,10.980 13.257,10.980 12.997 C 10.980 12.729,10.966 12.671,10.860 12.502 C 10.637 12.145,10.489 12.078,9.683 11.961 C 8.676 11.815,7.919 10.842,8.019 9.823 C 8.066 9.348,8.224 9.003,8.587 8.582 C 8.967 8.141,8.971 7.571,8.596 7.196 C 8.398 6.998,8.238 6.918,7.985 6.892 C 7.557 6.848,7.270 7.011,6.859 7.530 C 6.541 7.932,6.273 8.461,6.149 8.934 L 6.055 9.288 5.798 9.010 C 5.285 8.454,5.032 7.796,5.026 7.000 C 5.021 6.164,5.288 5.513,5.880 4.920 C 6.373 4.427,6.853 4.169,7.497 4.052 C 8.086 3.945,8.680 4.030,9.296 4.309 C 9.568 4.432,9.665 4.456,9.900 4.456 C 10.262 4.458,10.409 4.380,10.800 3.979 C 10.965 3.809,11.172 3.621,11.260 3.561 C 11.607 3.322,12.112 3.111,12.511 3.039 C 12.776 2.990,13.454 3.023,13.740 3.098 " stroke="none" fill-rule="evenodd" fill="#000000"></path></svg>