<svg  xmlns="http://www.w3.org/2000/svg" width="24" height="24" viewBox="0 0 24 24" fill="none" stroke="currentColor" stroke-width="2" stroke-linecap="round" stroke-linejoin="round"><path d="M14.640 1.069 C 14.488 1.121,14.205 1.384,12.825 2.755 C 11.040 4.530,11.001 4.578,11.001 5.000 C 11.001 5.420,11.043 5.472,12.806 7.226 C 13.694 8.109,14.481 8.862,14.555 8.899 C 15.010 9.128,15.601 8.944,15.867 8.492 C 15.964 8.327,15.980 8.258,15.979 8.000 C 15.979 7.787,15.957 7.660,15.904 7.560 C 15.864 7.483,15.514 7.100,15.127 6.710 L 14.423 6.000 16.264 6.000 C 18.355 6.000,18.391 6.004,18.679 6.283 C 18.975 6.571,18.977 6.581,19.000 8.023 L 19.020 9.307 19.141 9.503 C 19.543 10.156,20.457 10.156,20.859 9.503 L 20.980 9.306 20.980 7.883 C 20.980 6.503,20.977 6.451,20.886 6.160 C 20.581 5.181,19.828 4.424,18.861 4.123 L 18.540 4.023 16.484 4.009 L 14.428 3.995 15.129 3.288 C 15.515 2.898,15.864 2.517,15.904 2.440 C 15.957 2.340,15.979 2.213,15.979 2.000 C 15.980 1.745,15.964 1.672,15.872 1.516 C 15.617 1.083,15.121 0.902,14.640 1.069 M5.499 4.043 C 4.383 4.230,3.461 5.048,3.114 6.160 L 3.020 6.460 3.020 12.500 L 3.020 18.540 3.114 18.840 C 3.422 19.827,4.173 20.578,5.160 20.886 L 5.460 20.980 12.000 20.980 L 18.540 20.980 18.840 20.886 C 19.827 20.578,20.578 19.827,20.886 18.840 L 20.980 18.540 20.980 15.620 L 20.980 12.700 20.871 12.514 C 20.479 11.848,19.521 11.848,19.129 12.514 L 19.020 12.700 19.000 15.480 C 18.985 17.582,18.968 18.287,18.930 18.373 C 18.842 18.572,18.672 18.761,18.484 18.872 L 18.300 18.980 12.000 18.980 L 5.700 18.980 5.516 18.872 C 5.415 18.813,5.284 18.700,5.225 18.623 C 4.987 18.311,5.000 18.655,5.000 12.522 C 5.000 6.182,4.978 6.628,5.303 6.303 C 5.587 6.019,5.694 6.000,7.037 5.998 C 8.266 5.996,8.356 5.984,8.619 5.783 C 8.696 5.725,8.808 5.592,8.869 5.489 C 8.964 5.328,8.980 5.256,8.980 5.000 C 8.980 4.746,8.963 4.672,8.872 4.516 C 8.813 4.415,8.698 4.282,8.618 4.221 C 8.350 4.016,8.216 4.000,6.904 4.005 C 6.242 4.007,5.609 4.025,5.499 4.043 " stroke="none" fill-rule="evenodd" fill="#000000"></path></svg>