<svg  xmlns="http://www.w3.org/2000/svg" width="24" height="24" viewBox="0 0 24 24" fill="none" stroke="currentColor" stroke-width="2" stroke-linecap="round" stroke-linejoin="round"><path d="M6.634 3.061 C 4.176 3.396,2.109 5.111,1.327 7.463 C 0.651 9.497,1.033 11.636,2.415 13.560 C 2.770 14.054,3.431 14.820,4.045 15.449 C 5.070 16.500,10.102 21.331,10.340 21.493 C 11.298 22.146,12.626 22.157,13.606 21.522 C 13.818 21.384,14.676 20.581,16.700 18.625 C 18.240 17.137,19.731 15.681,20.014 15.390 C 22.037 13.305,22.913 11.636,22.988 9.720 C 23.057 7.985,22.423 6.314,21.215 5.043 C 20.021 3.788,18.499 3.094,16.760 3.012 C 15.107 2.935,13.366 3.558,12.170 4.654 L 12.000 4.810 11.830 4.654 C 10.482 3.418,8.490 2.808,6.634 3.061 M8.400 5.098 C 9.220 5.272,9.908 5.621,10.555 6.191 L 10.731 6.346 10.510 6.723 C 10.125 7.381,10.020 7.655,10.020 8.000 C 10.020 8.254,10.036 8.328,10.127 8.480 C 10.186 8.579,10.649 9.073,11.156 9.579 L 12.078 10.497 11.020 11.563 C 9.758 12.832,9.740 12.860,9.740 13.500 C 9.740 14.103,9.797 14.201,10.649 15.066 C 11.479 15.909,11.584 15.980,12.000 15.980 C 12.256 15.980,12.328 15.964,12.489 15.869 C 12.966 15.588,13.138 14.967,12.865 14.508 C 12.811 14.416,12.576 14.152,12.344 13.921 L 11.922 13.503 12.980 12.438 C 14.242 11.168,14.260 11.140,14.260 10.500 C 14.260 9.872,14.226 9.818,13.126 8.705 L 12.212 7.780 12.296 7.637 C 12.439 7.394,12.764 6.957,13.051 6.622 C 13.744 5.813,14.531 5.335,15.530 5.116 C 18.133 4.546,20.638 6.324,20.964 8.973 C 21.144 10.431,20.585 11.772,19.100 13.443 C 18.880 13.690,17.312 15.238,15.615 16.882 C 12.772 19.636,12.514 19.876,12.321 19.940 C 12.057 20.027,11.783 20.005,11.544 19.876 C 11.309 19.750,5.445 14.062,4.846 13.380 C 4.293 12.750,3.982 12.340,3.715 11.888 C 3.156 10.943,2.930 10.007,3.030 9.053 C 3.244 7.025,4.713 5.446,6.744 5.061 C 7.133 4.988,7.965 5.006,8.400 5.098 " stroke="none" fill-rule="evenodd" fill="#000000"></path></svg>