<svg  xmlns="http://www.w3.org/2000/svg" width="24" height="24" viewBox="0 0 24 24" fill="none" stroke="currentColor" stroke-width="2" stroke-linecap="round" stroke-linejoin="round"><path d="M16.780 1.107 C 16.648 1.138,15.667 1.423,14.600 1.739 C 13.533 2.056,12.507 2.359,12.320 2.414 C 12.133 2.469,10.828 2.855,9.420 3.273 C 8.012 3.691,6.644 4.096,6.380 4.173 C 3.847 4.913,2.876 5.219,2.581 5.372 C 1.869 5.742,1.328 6.454,1.099 7.320 C 1.015 7.637,1.004 8.285,1.077 8.620 C 1.106 8.752,1.320 9.364,1.555 9.980 L 1.980 11.100 2.000 15.340 L 2.020 19.580 2.114 19.860 C 2.446 20.850,3.184 21.582,4.160 21.886 L 4.460 21.980 12.000 21.980 L 19.540 21.980 19.840 21.886 C 20.827 21.578,21.578 20.827,21.886 19.840 L 21.980 19.540 21.980 15.120 L 21.980 10.700 21.872 10.516 C 21.740 10.293,21.533 10.128,21.290 10.055 C 21.139 10.010,20.143 10.000,15.584 9.998 L 10.060 9.995 11.560 9.556 C 12.385 9.314,13.708 8.929,14.500 8.700 C 17.635 7.792,20.233 7.033,20.476 6.953 C 20.911 6.811,21.200 6.428,21.200 5.996 C 21.200 5.853,20.420 3.257,20.240 2.801 C 19.923 1.998,19.151 1.359,18.204 1.116 C 17.845 1.024,17.142 1.019,16.780 1.107 M17.961 3.150 C 18.302 3.328,18.364 3.440,18.665 4.411 C 18.830 4.942,18.920 5.295,18.897 5.316 C 18.867 5.344,15.976 6.200,15.754 6.246 C 15.708 6.256,15.435 5.927,14.840 5.147 C 14.374 4.535,14.001 4.025,14.013 4.014 C 14.025 4.002,14.751 3.779,15.627 3.519 C 17.452 2.975,17.587 2.954,17.961 3.150 M12.265 5.070 C 12.443 5.306,12.824 5.808,13.112 6.184 L 13.635 6.868 11.667 7.438 C 10.585 7.752,9.687 8.012,9.671 8.015 C 9.619 8.024,7.888 5.820,7.935 5.803 C 8.103 5.741,11.832 4.644,11.881 4.642 C 11.914 4.641,12.087 4.833,12.265 5.070 M6.701 7.539 C 7.251 8.232,7.540 8.627,7.509 8.643 C 7.384 8.705,3.637 9.770,3.615 9.749 C 3.602 9.735,3.468 9.395,3.317 8.992 C 3.026 8.215,2.988 8.002,3.086 7.674 C 3.142 7.487,3.361 7.222,3.534 7.132 C 3.686 7.053,5.718 6.441,5.792 6.452 C 5.820 6.456,6.229 6.946,6.701 7.539 M20.000 15.554 C 20.000 19.410,20.005 19.322,19.779 19.618 C 19.718 19.698,19.585 19.813,19.484 19.872 L 19.300 19.980 12.000 19.980 L 4.700 19.980 4.516 19.872 C 4.415 19.813,4.284 19.700,4.225 19.623 C 3.992 19.317,4.000 19.464,4.000 15.575 L 4.000 12.000 12.000 12.000 L 20.000 12.000 20.000 15.554 " stroke="none" fill-rule="evenodd" fill="#000000"></path></svg>