<svg  xmlns="http://www.w3.org/2000/svg" width="24" height="24" viewBox="0 0 24 24" fill="none" stroke="currentColor" stroke-width="2" stroke-linecap="round" stroke-linejoin="round"><path d="M3.503 3.040 C 3.201 3.094,2.931 3.192,2.580 3.372 C 2.133 3.601,1.562 4.173,1.353 4.600 C 1.172 4.971,1.094 5.203,1.042 5.528 C 0.985 5.875,0.985 18.125,1.042 18.472 C 1.146 19.114,1.390 19.585,1.880 20.084 C 2.223 20.433,2.301 20.491,2.680 20.674 C 3.537 21.087,4.383 21.104,5.250 20.726 C 5.691 20.533,5.969 20.279,8.470 17.785 L 11.000 15.263 11.000 16.741 C 11.001 18.554,11.023 18.722,11.354 19.398 C 11.466 19.626,11.590 19.788,11.880 20.084 C 12.223 20.433,12.301 20.491,12.680 20.674 C 13.218 20.933,13.627 21.020,14.159 20.988 C 14.731 20.953,15.222 20.789,15.690 20.476 C 15.947 20.304,21.606 14.700,22.186 14.043 C 22.531 13.653,22.729 13.319,22.873 12.887 C 22.963 12.614,22.975 12.515,22.975 12.000 C 22.975 11.485,22.963 11.386,22.873 11.113 C 22.729 10.681,22.531 10.347,22.187 9.957 C 21.709 9.416,15.959 3.705,15.749 3.564 C 15.182 3.181,14.688 3.027,14.020 3.023 C 13.434 3.019,13.225 3.067,12.680 3.329 C 12.303 3.510,12.221 3.570,11.880 3.916 C 11.587 4.213,11.467 4.369,11.353 4.600 C 11.023 5.275,11.001 5.447,11.000 7.258 L 11.000 8.737 8.470 6.215 C 7.078 4.828,5.854 3.635,5.749 3.564 C 5.472 3.376,5.104 3.202,4.804 3.115 C 4.500 3.027,3.796 2.987,3.503 3.040 M4.452 5.116 C 4.569 5.173,5.576 6.155,7.747 8.329 C 10.781 11.367,10.875 11.466,10.937 11.677 C 11.016 11.949,11.016 12.051,10.937 12.323 C 10.875 12.534,10.781 12.633,7.747 15.671 C 5.491 17.930,4.571 18.826,4.444 18.888 C 4.052 19.077,3.602 19.005,3.300 18.702 C 2.976 18.379,3.000 18.905,3.000 12.000 C 3.000 5.089,2.976 5.622,3.303 5.295 C 3.597 5.001,4.065 4.928,4.452 5.116 M14.452 5.116 C 14.569 5.173,15.576 6.155,17.747 8.329 C 20.781 11.367,20.875 11.466,20.937 11.677 C 20.971 11.797,21.000 11.942,21.000 12.000 C 21.000 12.058,20.971 12.203,20.937 12.323 C 20.875 12.534,20.781 12.633,17.747 15.671 C 15.491 17.930,14.571 18.826,14.444 18.888 C 14.052 19.077,13.602 19.005,13.300 18.702 C 12.976 18.379,13.000 18.905,13.000 12.000 C 13.000 5.089,12.976 5.622,13.303 5.295 C 13.597 5.001,14.065 4.928,14.452 5.116 " stroke="none" fill-rule="evenodd" fill="#000000"></path></svg>