<svg  xmlns="http://www.w3.org/2000/svg" width="24" height="24" viewBox="0 0 24 24" fill="none" stroke="currentColor" stroke-width="2" stroke-linecap="round" stroke-linejoin="round"><path d="M14.541 3.042 C 14.232 3.090,13.962 3.180,13.640 3.341 C 13.362 3.480,3.555 9.356,3.270 9.554 C 2.454 10.122,1.963 11.131,2.011 12.140 C 2.057 13.077,2.551 13.960,3.320 14.478 C 3.516 14.610,13.151 20.394,13.600 20.649 C 14.114 20.940,14.965 21.071,15.546 20.947 C 16.705 20.700,17.529 19.944,17.886 18.800 L 17.980 18.500 17.980 12.000 L 17.980 5.500 17.886 5.200 C 17.695 4.588,17.374 4.092,16.912 3.696 C 16.663 3.483,16.080 3.186,15.740 3.099 C 15.435 3.021,14.851 2.993,14.541 3.042 M20.695 3.057 C 20.466 3.129,20.256 3.299,20.128 3.516 L 20.020 3.700 20.020 12.003 L 20.020 20.306 20.141 20.503 C 20.543 21.156,21.457 21.156,21.859 20.503 L 21.980 20.306 21.980 12.003 L 21.980 3.700 21.872 3.516 C 21.628 3.101,21.150 2.915,20.695 3.057 M15.460 5.124 C 15.688 5.232,15.865 5.442,15.941 5.697 C 16.031 6.000,16.030 18.006,15.939 18.310 C 15.788 18.819,15.190 19.120,14.684 18.941 C 14.410 18.845,4.448 12.848,4.276 12.676 C 3.890 12.290,3.936 11.558,4.368 11.233 C 4.570 11.081,14.563 5.097,14.700 5.046 C 14.868 4.984,15.243 5.022,15.460 5.124 " stroke="none" fill-rule="evenodd" fill="#000000"></path></svg>