<svg  xmlns="http://www.w3.org/2000/svg" width="24" height="24" viewBox="0 0 24 24" fill="none" stroke="currentColor" stroke-width="2" stroke-linecap="round" stroke-linejoin="round"><path d="M6.477 1.073 C 5.806 1.249,5.238 1.823,5.060 2.508 C 5.010 2.700,5.000 3.164,5.000 5.364 L 5.000 7.991 4.230 8.010 C 3.567 8.027,3.416 8.043,3.139 8.126 C 2.181 8.415,1.420 9.179,1.114 10.160 L 1.020 10.460 1.020 13.500 L 1.020 16.540 1.114 16.840 C 1.419 17.818,2.166 18.570,3.140 18.882 C 3.379 18.958,3.536 18.974,4.210 18.990 L 5.000 19.009 5.000 20.136 C 5.000 21.006,5.014 21.315,5.060 21.492 C 5.245 22.206,5.875 22.814,6.578 22.960 C 6.714 22.988,7.793 22.998,9.801 22.991 C 12.808 22.980,12.821 22.980,12.980 22.894 C 13.316 22.712,13.518 22.377,13.518 22.000 C 13.518 21.623,13.316 21.288,12.980 21.106 C 12.821 21.020,12.805 21.020,9.910 21.009 L 7.000 20.998 7.000 17.999 L 7.000 15.000 10.290 15.000 L 13.580 14.999 13.780 14.905 C 14.166 14.722,14.360 14.419,14.360 14.000 C 14.360 13.601,14.179 13.300,13.820 13.106 C 13.660 13.020,13.659 13.020,10.240 13.009 C 6.410 12.996,6.475 12.992,6.002 13.271 C 5.707 13.446,5.359 13.806,5.219 14.083 C 5.022 14.471,5.000 14.650,5.000 15.872 L 5.000 17.007 4.350 16.993 C 3.728 16.981,3.692 16.975,3.516 16.872 C 3.415 16.813,3.284 16.700,3.225 16.623 C 2.996 16.323,3.000 16.378,3.000 13.522 C 3.000 10.530,2.992 10.614,3.303 10.303 C 3.632 9.974,2.892 10.000,12.000 10.000 C 21.108 10.000,20.368 9.974,20.697 10.303 C 20.971 10.578,21.000 10.718,21.000 11.797 C 21.001 12.663,21.005 12.708,21.095 12.900 C 21.276 13.282,21.595 13.488,22.003 13.488 C 22.292 13.488,22.536 13.381,22.724 13.173 C 22.997 12.870,23.010 12.789,22.991 11.534 C 22.975 10.511,22.967 10.397,22.883 10.140 C 22.567 9.167,21.809 8.412,20.861 8.126 C 20.584 8.043,20.433 8.027,19.770 8.010 L 19.000 7.991 18.999 5.385 C 18.999 2.569,18.994 2.503,18.781 2.083 C 18.646 1.816,18.297 1.449,18.017 1.281 C 17.533 0.989,17.867 1.005,12.000 1.005 C 7.157 1.005,6.719 1.010,6.477 1.073 M17.000 5.500 L 17.000 8.000 12.000 8.000 L 7.000 8.000 7.000 5.500 L 7.000 3.000 12.000 3.000 L 17.000 3.000 17.000 5.500 M16.044 15.625 C 15.540 15.876,15.346 16.567,15.651 17.020 C 15.695 17.086,16.147 17.558,16.655 18.070 L 17.579 19.000 16.655 19.930 C 16.147 20.442,15.695 20.914,15.651 20.980 C 15.373 21.392,15.510 22.024,15.940 22.320 C 16.238 22.525,16.740 22.540,17.017 22.352 C 17.085 22.306,17.558 21.853,18.070 21.345 L 19.000 20.421 19.930 21.345 C 20.442 21.853,20.915 22.306,20.981 22.351 C 21.384 22.624,22.047 22.475,22.330 22.048 C 22.525 21.753,22.536 21.254,22.352 20.983 C 22.306 20.915,21.853 20.442,21.345 19.930 L 20.421 19.000 21.345 18.070 C 21.853 17.558,22.306 17.085,22.351 17.019 C 22.468 16.846,22.514 16.545,22.462 16.291 C 22.369 15.831,21.980 15.519,21.502 15.521 C 21.089 15.522,20.997 15.588,19.950 16.631 L 19.000 17.578 18.050 16.631 C 17.371 15.954,17.049 15.661,16.920 15.603 C 16.654 15.483,16.313 15.492,16.044 15.625 " stroke="none" fill-rule="evenodd" fill="#000000"></path></svg>