<svg  xmlns="http://www.w3.org/2000/svg" width="24" height="24" viewBox="0 0 24 24" fill="none" stroke="currentColor" stroke-width="2" stroke-linecap="round" stroke-linejoin="round"><path d="M17.820 1.066 C 17.369 1.163,16.962 1.401,16.515 1.831 C 15.860 2.460,15.546 2.892,15.296 3.512 C 15.006 4.231,14.930 5.023,15.079 5.757 C 15.156 6.131,15.373 6.740,15.498 6.931 C 15.556 7.020,15.486 7.094,12.280 10.300 L 9.003 13.577 8.411 12.996 C 7.749 12.345,7.532 12.200,7.034 12.074 C 6.445 11.925,5.793 12.031,5.300 12.357 C 5.152 12.454,4.347 13.231,3.195 14.387 C 1.502 16.088,1.319 16.284,1.209 16.520 C 1.143 16.663,1.069 16.875,1.044 16.992 C 1.015 17.131,1.000 17.906,1.000 19.234 C 1.000 21.434,1.005 21.496,1.225 21.930 C 1.361 22.199,1.801 22.639,2.070 22.775 C 2.504 22.995,2.566 23.000,4.766 23.000 C 6.094 23.000,6.869 22.985,7.008 22.956 C 7.125 22.931,7.337 22.857,7.480 22.791 C 7.716 22.681,7.912 22.498,9.612 20.805 C 10.642 19.779,11.550 18.841,11.631 18.721 C 11.895 18.324,11.976 18.044,11.978 17.520 C 11.981 16.714,11.835 16.428,10.986 15.569 L 10.422 14.998 13.700 11.720 C 16.867 8.552,16.980 8.444,17.066 8.500 C 17.266 8.631,17.850 8.841,18.242 8.922 C 19.119 9.103,20.173 8.935,20.960 8.486 C 21.457 8.203,22.269 7.461,22.579 7.004 C 23.149 6.167,23.133 5.008,22.540 4.180 C 22.445 4.048,21.804 3.380,21.114 2.696 C 19.912 1.504,19.846 1.445,19.520 1.285 C 18.958 1.010,18.413 0.940,17.820 1.066 M18.592 3.057 C 18.722 3.126,20.893 5.303,20.956 5.427 C 21.016 5.546,21.011 5.702,20.944 5.832 C 20.852 6.010,20.146 6.666,19.926 6.777 C 19.159 7.166,18.277 7.045,17.653 6.465 C 17.107 5.958,16.891 5.248,17.062 4.523 C 17.150 4.148,17.299 3.903,17.680 3.504 C 18.164 2.997,18.328 2.917,18.592 3.057 M8.290 15.710 C 9.403 16.823,10.000 17.448,10.000 17.500 C 10.000 17.552,9.403 18.176,8.290 19.290 L 6.580 21.000 4.790 21.000 L 3.000 21.000 3.000 19.210 L 3.000 17.420 4.710 15.710 C 5.823 14.597,6.448 14.000,6.500 14.000 C 6.552 14.000,7.176 14.597,8.290 15.710 " stroke="none" fill-rule="evenodd" fill="#000000"></path></svg>