<svg  xmlns="http://www.w3.org/2000/svg" width="24" height="24" viewBox="0 0 24 24" fill="none" stroke="currentColor" stroke-width="2" stroke-linecap="round" stroke-linejoin="round"><path d="M3.499 2.043 C 2.383 2.230,1.461 3.048,1.114 4.160 L 1.020 4.460 1.020 11.500 L 1.020 18.540 1.114 18.840 C 1.422 19.827,2.173 20.578,3.160 20.886 L 3.460 20.980 12.000 20.980 L 20.540 20.980 20.840 20.886 C 21.827 20.578,22.578 19.827,22.886 18.840 L 22.980 18.540 22.980 13.000 L 22.980 7.460 22.886 7.160 C 22.581 6.182,21.831 5.427,20.861 5.122 L 20.540 5.021 16.180 5.000 C 11.591 4.979,11.740 4.985,11.481 4.801 C 11.421 4.758,11.122 4.358,10.817 3.912 C 10.511 3.465,10.171 3.009,10.061 2.898 C 9.802 2.637,9.429 2.386,9.083 2.239 C 8.560 2.016,8.336 2.000,5.905 2.005 C 4.692 2.007,3.609 2.025,3.499 2.043 M8.177 4.038 C 8.479 4.108,8.634 4.266,9.146 5.022 C 9.413 5.417,9.755 5.874,9.906 6.037 C 10.176 6.330,10.558 6.611,10.850 6.733 L 11.000 6.796 11.002 10.488 C 11.003 13.468,11.014 14.209,11.057 14.330 C 11.241 14.846,11.796 15.113,12.325 14.939 C 12.523 14.874,12.639 14.771,13.771 13.646 L 15.001 12.423 16.211 13.627 C 16.876 14.289,17.483 14.864,17.560 14.905 C 17.659 14.957,17.787 14.979,18.000 14.979 C 18.255 14.980,18.328 14.964,18.484 14.872 C 18.585 14.813,18.716 14.700,18.775 14.623 C 19.008 14.317,19.000 14.464,19.000 10.575 L 19.000 7.000 19.553 7.000 C 20.249 7.000,20.446 7.052,20.697 7.303 C 21.020 7.627,21.000 7.243,21.000 13.001 C 21.000 17.212,20.990 18.139,20.945 18.290 C 20.872 18.533,20.707 18.740,20.484 18.872 L 20.300 18.980 12.000 18.980 L 3.700 18.980 3.516 18.872 C 3.415 18.813,3.284 18.700,3.225 18.623 C 2.986 18.310,3.000 18.748,3.000 11.522 C 3.000 4.064,2.976 4.630,3.304 4.303 C 3.604 4.002,3.573 4.006,5.940 4.004 C 7.084 4.003,8.091 4.018,8.177 4.038 M17.000 9.287 L 17.000 11.574 16.270 10.854 C 15.496 10.090,15.362 10.000,15.000 10.000 C 14.638 10.000,14.504 10.090,13.730 10.854 L 13.000 11.574 13.000 9.287 L 13.000 7.000 15.000 7.000 L 17.000 7.000 17.000 9.287 " stroke="none" fill-rule="evenodd" fill="#000000"></path></svg>