<svg  xmlns="http://www.w3.org/2000/svg" width="24" height="24" viewBox="0 0 24 24" fill="none" stroke="currentColor" stroke-width="2" stroke-linecap="round" stroke-linejoin="round"><path d="M11.367 1.042 C 9.339 1.297,7.271 2.802,5.681 5.180 C 3.996 7.699,3.000 10.960,3.000 13.956 C 3.000 17.027,4.510 19.831,7.080 21.531 C 9.691 23.259,13.107 23.472,15.940 22.084 C 18.718 20.723,20.580 18.088,20.941 15.008 C 21.217 12.643,20.554 9.382,19.281 6.841 C 17.720 3.728,15.432 1.620,13.068 1.118 C 12.637 1.027,11.787 0.989,11.367 1.042 M12.840 3.118 C 13.279 3.230,13.960 3.568,14.436 3.910 C 16.143 5.134,17.655 7.501,18.435 10.169 C 19.025 12.184,19.151 14.319,18.766 15.780 C 18.059 18.472,15.824 20.473,13.020 20.926 C 12.607 20.992,11.393 20.992,10.980 20.926 C 8.175 20.473,5.942 18.473,5.234 15.780 C 4.774 14.031,5.037 11.477,5.925 9.080 C 6.176 8.402,6.744 7.241,7.117 6.645 C 7.794 5.561,8.765 4.474,9.560 3.910 C 10.202 3.454,10.947 3.128,11.580 3.026 C 11.837 2.985,12.508 3.034,12.840 3.118 " stroke="none" fill-rule="evenodd" fill="#000000"></path></svg>