<svg  xmlns="http://www.w3.org/2000/svg" width="24" height="24" viewBox="0 0 24 24" fill="none" stroke="currentColor" stroke-width="2" stroke-linecap="round" stroke-linejoin="round"><path d="M11.695 2.057 C 11.466 2.129,11.256 2.299,11.128 2.516 L 11.020 2.700 11.008 3.850 L 10.995 5.000 7.368 5.002 C 3.323 5.005,3.455 4.996,2.983 5.281 C 2.703 5.449,2.354 5.816,2.219 6.083 C 2.000 6.515,2.000 6.512,2.000 9.500 C 2.000 12.501,1.999 12.484,2.225 12.930 C 2.361 13.199,2.801 13.639,3.070 13.775 C 3.525 14.006,3.419 14.000,7.368 14.000 L 10.998 14.000 11.009 17.653 L 11.020 21.306 11.141 21.503 C 11.543 22.156,12.457 22.156,12.859 21.503 L 12.980 21.306 12.991 17.653 L 13.002 14.000 15.751 13.999 C 18.707 13.999,18.763 13.995,19.279 13.787 C 19.793 13.579,19.949 13.451,21.233 12.180 C 21.922 11.498,22.551 10.841,22.631 10.721 C 22.892 10.328,22.974 10.044,22.977 9.520 C 22.980 9.013,22.929 8.798,22.709 8.400 C 22.571 8.150,20.391 5.924,19.980 5.613 C 19.692 5.395,19.397 5.242,19.020 5.115 L 18.740 5.021 15.872 5.009 L 13.004 4.997 12.992 3.848 L 12.980 2.700 12.872 2.516 C 12.628 2.101,12.150 1.915,11.695 2.057 M18.600 7.094 C 18.808 7.204,21.000 9.401,21.000 9.500 C 21.000 9.599,18.808 11.796,18.600 11.906 C 18.466 11.977,18.173 11.980,11.230 11.990 L 4.000 12.001 4.000 9.500 L 4.000 6.999 11.230 7.010 C 18.173 7.020,18.466 7.023,18.600 7.094 " stroke="none" fill-rule="evenodd" fill="#000000"></path></svg>