<svg  xmlns="http://www.w3.org/2000/svg" width="24" height="24" viewBox="0 0 24 24" fill="none" stroke="currentColor" stroke-width="2" stroke-linecap="round" stroke-linejoin="round"><path d="M7.499 2.043 C 6.392 2.229,5.480 3.031,5.116 4.140 C 5.027 4.409,5.023 4.480,5.009 5.994 L 4.994 7.568 4.265 6.848 C 3.603 6.194,3.515 6.122,3.320 6.064 C 3.057 5.986,2.946 5.984,2.710 6.055 C 2.467 6.128,2.260 6.293,2.128 6.516 C 2.036 6.672,2.020 6.745,2.021 7.000 C 2.021 7.212,2.043 7.341,2.095 7.440 C 2.135 7.517,2.891 8.306,3.774 9.194 C 5.528 10.957,5.580 10.999,6.000 10.999 C 6.420 10.999,6.472 10.957,8.226 9.194 C 9.109 8.306,9.865 7.517,9.905 7.440 C 9.957 7.341,9.979 7.212,9.979 7.000 C 9.980 6.745,9.964 6.672,9.872 6.516 C 9.740 6.293,9.533 6.128,9.290 6.055 C 9.054 5.984,8.943 5.986,8.680 6.064 C 8.485 6.122,8.397 6.195,7.733 6.851 L 7.000 7.574 7.000 6.234 C 7.000 4.673,7.012 4.594,7.303 4.303 C 7.587 4.019,7.694 4.000,9.037 3.998 C 10.266 3.996,10.356 3.984,10.619 3.783 C 10.696 3.725,10.808 3.592,10.869 3.489 C 10.964 3.328,10.980 3.256,10.980 3.000 C 10.980 2.746,10.963 2.672,10.872 2.516 C 10.813 2.415,10.698 2.282,10.618 2.221 C 10.350 2.016,10.216 2.000,8.904 2.005 C 8.242 2.007,7.609 2.025,7.499 2.043 M14.477 2.073 C 13.602 2.302,12.948 3.183,13.010 4.050 C 13.054 4.662,13.568 5.074,14.175 4.983 C 14.552 4.926,14.926 4.554,14.982 4.179 C 15.007 4.013,15.013 4.007,15.183 3.982 C 15.423 3.946,15.713 3.740,15.859 3.503 C 15.966 3.329,15.980 3.271,15.980 3.003 C 15.980 2.746,15.964 2.672,15.872 2.516 C 15.605 2.062,15.115 1.907,14.477 2.073 M19.695 2.057 C 19.466 2.129,19.256 2.299,19.128 2.516 C 19.036 2.672,19.020 2.746,19.020 3.003 C 19.020 3.271,19.034 3.329,19.141 3.503 C 19.287 3.740,19.577 3.946,19.817 3.982 C 19.987 4.007,19.993 4.013,20.018 4.179 C 20.053 4.417,20.245 4.699,20.465 4.839 C 21.102 5.243,21.930 4.826,21.988 4.072 C 22.027 3.569,21.837 3.054,21.465 2.653 C 20.985 2.137,20.241 1.886,19.695 2.057 M13.695 8.057 C 13.006 8.272,12.800 9.092,13.225 9.929 C 13.362 10.199,13.801 10.638,14.071 10.775 C 14.577 11.032,15.150 11.067,15.499 10.863 C 16.277 10.407,16.097 9.233,15.219 9.036 C 15.014 8.990,15.008 8.985,14.982 8.825 C 14.926 8.473,14.646 8.162,14.290 8.055 C 14.068 7.988,13.913 7.989,13.695 8.057 M20.695 8.057 C 20.352 8.164,20.073 8.481,20.018 8.825 C 19.992 8.985,19.986 8.990,19.781 9.036 C 18.903 9.233,18.723 10.407,19.501 10.863 C 19.850 11.067,20.423 11.032,20.929 10.775 C 21.196 10.640,21.638 10.200,21.771 9.937 C 22.027 9.433,22.066 8.848,21.868 8.509 C 21.628 8.101,21.147 7.916,20.695 8.057 M3.477 13.073 C 2.806 13.249,2.238 13.823,2.060 14.508 C 2.010 14.700,2.000 15.180,2.000 17.500 C 2.000 20.501,1.999 20.484,2.225 20.930 C 2.361 21.199,2.801 21.639,3.070 21.775 C 3.516 22.001,3.499 22.000,6.500 22.000 C 9.501 22.000,9.484 22.001,9.930 21.775 C 10.196 21.640,10.638 21.200,10.771 20.937 C 11.000 20.485,11.000 20.489,10.999 17.514 C 10.999 14.558,10.995 14.505,10.781 14.083 C 10.646 13.816,10.297 13.449,10.017 13.281 C 9.555 13.003,9.580 13.005,6.500 13.005 C 4.020 13.005,3.713 13.012,3.477 13.073 M13.695 13.057 C 13.466 13.129,13.256 13.299,13.128 13.516 C 13.036 13.672,13.020 13.746,13.020 14.003 C 13.020 14.271,13.034 14.329,13.141 14.503 C 13.288 14.742,13.578 14.946,13.821 14.982 L 14.000 15.009 14.000 17.498 L 14.000 19.987 13.786 20.035 C 12.903 20.233,12.721 21.405,13.501 21.863 C 13.850 22.067,14.423 22.032,14.929 21.775 C 15.196 21.640,15.638 21.200,15.771 20.937 C 16.000 20.485,16.000 20.489,15.999 17.514 C 15.999 14.558,15.995 14.505,15.781 14.083 C 15.646 13.816,15.297 13.449,15.017 13.281 C 14.610 13.036,14.060 12.943,13.695 13.057 M18.695 13.057 C 18.466 13.129,18.256 13.299,18.128 13.516 C 18.036 13.672,18.020 13.746,18.020 14.003 C 18.020 14.271,18.034 14.329,18.141 14.503 C 18.288 14.742,18.578 14.946,18.821 14.982 L 19.000 15.009 19.000 17.498 L 19.000 19.987 18.786 20.035 C 17.903 20.233,17.721 21.405,18.501 21.863 C 18.850 22.067,19.423 22.032,19.929 21.775 C 20.196 21.640,20.638 21.200,20.771 20.937 C 21.000 20.485,21.000 20.489,20.999 17.514 C 20.999 14.558,20.995 14.505,20.781 14.083 C 20.646 13.816,20.297 13.449,20.017 13.281 C 19.610 13.036,19.060 12.943,18.695 13.057 M9.000 17.500 L 9.000 20.000 6.500 20.000 L 4.000 20.000 4.000 17.500 L 4.000 15.000 6.500 15.000 L 9.000 15.000 9.000 17.500 " stroke="none" fill-rule="evenodd" fill="#000000"></path></svg>