<svg  xmlns="http://www.w3.org/2000/svg" width="24" height="24" viewBox="0 0 24 24" fill="none" stroke="currentColor" stroke-width="2" stroke-linecap="round" stroke-linejoin="round"><path d="M11.460 1.059 C 11.306 1.088,11.063 1.156,10.920 1.212 C 10.523 1.366,2.772 5.184,2.601 5.310 C 2.392 5.464,2.257 5.635,2.129 5.906 C 2.035 6.108,2.020 6.190,2.021 6.500 C 2.022 6.809,2.039 6.895,2.136 7.109 C 2.275 7.414,2.587 7.721,2.910 7.872 L 3.140 7.980 12.000 7.980 L 20.860 7.980 21.090 7.872 C 21.413 7.721,21.725 7.414,21.864 7.109 C 21.961 6.895,21.978 6.809,21.979 6.500 C 21.980 6.190,21.965 6.108,21.871 5.906 C 21.743 5.635,21.608 5.464,21.398 5.309 C 21.226 5.183,13.477 1.366,13.080 1.212 C 12.565 1.013,11.999 0.959,11.460 1.059 M12.305 3.056 C 12.390 3.086,13.783 3.761,15.399 4.556 L 18.338 6.000 12.000 6.000 L 5.662 6.000 8.601 4.556 C 10.217 3.761,11.603 3.088,11.680 3.058 C 11.866 2.988,12.114 2.987,12.305 3.056 M5.695 10.057 C 5.466 10.129,5.256 10.299,5.128 10.516 L 5.020 10.700 5.020 14.503 L 5.020 18.306 5.141 18.503 C 5.209 18.613,5.346 18.756,5.452 18.828 C 5.923 19.144,6.554 18.999,6.859 18.503 L 6.980 18.306 6.980 14.503 L 6.980 10.700 6.872 10.516 C 6.628 10.101,6.150 9.915,5.695 10.057 M9.695 10.057 C 9.466 10.129,9.256 10.299,9.128 10.516 L 9.020 10.700 9.020 14.503 L 9.020 18.306 9.141 18.503 C 9.209 18.613,9.346 18.756,9.452 18.828 C 9.923 19.144,10.554 18.999,10.859 18.503 L 10.980 18.306 10.980 14.503 L 10.980 10.700 10.872 10.516 C 10.628 10.101,10.150 9.915,9.695 10.057 M13.695 10.057 C 13.466 10.129,13.256 10.299,13.128 10.516 L 13.020 10.700 13.020 14.503 L 13.020 18.306 13.141 18.503 C 13.209 18.613,13.346 18.756,13.452 18.828 C 13.923 19.144,14.554 18.999,14.859 18.503 L 14.980 18.306 14.980 14.503 L 14.980 10.700 14.872 10.516 C 14.628 10.101,14.150 9.915,13.695 10.057 M17.695 10.057 C 17.466 10.129,17.256 10.299,17.128 10.516 L 17.020 10.700 17.020 14.503 L 17.020 18.306 17.141 18.503 C 17.209 18.613,17.346 18.756,17.452 18.828 C 17.923 19.144,18.554 18.999,18.859 18.503 L 18.980 18.306 18.980 14.503 L 18.980 10.700 18.872 10.516 C 18.628 10.101,18.150 9.915,17.695 10.057 M2.695 21.057 C 2.466 21.129,2.256 21.299,2.128 21.516 C 2.037 21.672,2.020 21.746,2.020 22.000 C 2.020 22.256,2.036 22.328,2.131 22.489 C 2.256 22.702,2.449 22.864,2.670 22.943 C 2.893 23.023,21.107 23.023,21.330 22.943 C 21.551 22.864,21.744 22.702,21.869 22.489 C 21.964 22.328,21.980 22.256,21.980 22.000 C 21.980 21.746,21.963 21.672,21.872 21.516 C 21.740 21.293,21.533 21.128,21.290 21.055 C 21.027 20.976,2.947 20.978,2.695 21.057 " stroke="none" fill-rule="evenodd" fill="#000000"></path></svg>