<svg  xmlns="http://www.w3.org/2000/svg" width="24" height="24" viewBox="0 0 24 24" fill="none" stroke="currentColor" stroke-width="2" stroke-linecap="round" stroke-linejoin="round"><path d="M16.059 1.395 C 15.872 1.480,15.665 1.675,15.573 1.854 C 15.482 2.030,15.457 2.465,15.528 2.639 L 15.585 2.778 15.182 3.182 L 14.780 3.586 14.640 3.528 C 14.546 3.490,14.414 3.477,14.239 3.489 C 13.704 3.528,13.314 3.936,13.314 4.458 C 13.314 4.850,13.558 5.239,13.892 5.379 L 14.010 5.429 14.010 6.001 L 14.010 6.573 13.855 6.651 C 13.513 6.823,13.314 7.151,13.314 7.542 C 13.314 8.213,13.996 8.689,14.640 8.467 L 14.780 8.419 15.183 8.820 L 15.586 9.220 15.528 9.360 C 15.456 9.534,15.481 9.968,15.573 10.146 C 15.668 10.330,15.875 10.522,16.072 10.609 C 16.546 10.819,17.183 10.575,17.379 10.108 L 17.429 9.990 18.000 9.990 L 18.571 9.990 18.621 10.108 C 18.817 10.576,19.454 10.819,19.931 10.608 C 20.394 10.403,20.634 9.845,20.467 9.360 L 20.419 9.220 20.820 8.817 L 21.220 8.414 21.360 8.472 C 21.534 8.544,21.968 8.519,22.146 8.427 C 22.610 8.187,22.810 7.617,22.600 7.129 C 22.503 6.903,22.371 6.765,22.145 6.651 L 21.990 6.573 21.990 6.001 L 21.990 5.429 22.108 5.379 C 22.442 5.239,22.686 4.850,22.686 4.458 C 22.686 4.100,22.509 3.803,22.170 3.594 C 21.991 3.483,21.557 3.448,21.361 3.528 L 21.222 3.585 20.818 3.182 L 20.414 2.780 20.472 2.640 C 20.544 2.466,20.519 2.032,20.427 1.854 C 20.392 1.785,20.304 1.670,20.232 1.598 C 19.753 1.120,18.876 1.284,18.618 1.900 L 18.567 2.020 17.999 2.018 L 17.432 2.016 17.382 1.898 C 17.182 1.425,16.535 1.179,16.059 1.395 M3.499 2.043 C 2.383 2.230,1.461 3.048,1.114 4.160 L 1.020 4.460 1.020 10.000 L 1.020 15.540 1.114 15.840 C 1.418 16.816,2.149 17.554,3.140 17.886 L 3.420 17.980 7.210 17.991 L 11.000 18.003 11.000 19.001 L 11.000 20.000 9.446 20.000 C 7.758 20.000,7.658 20.011,7.382 20.221 C 7.302 20.282,7.187 20.415,7.128 20.516 C 7.037 20.672,7.020 20.746,7.020 21.000 C 7.020 21.256,7.036 21.328,7.131 21.489 C 7.256 21.702,7.449 21.864,7.670 21.943 C 7.892 22.022,16.108 22.022,16.330 21.943 C 16.551 21.864,16.744 21.702,16.869 21.489 C 16.964 21.328,16.980 21.256,16.980 21.000 C 16.980 20.746,16.963 20.672,16.872 20.516 C 16.813 20.415,16.698 20.282,16.618 20.221 C 16.342 20.011,16.242 20.000,14.554 20.000 L 13.000 20.000 13.000 19.001 L 13.000 18.003 16.790 17.991 L 20.580 17.980 20.860 17.886 C 21.851 17.554,22.582 16.816,22.886 15.840 C 22.977 15.549,22.980 15.497,22.980 14.120 L 22.980 12.700 22.871 12.514 C 22.479 11.848,21.521 11.848,21.129 12.514 L 21.020 12.700 20.999 13.980 C 20.984 14.854,20.962 15.296,20.929 15.373 C 20.844 15.569,20.673 15.761,20.484 15.872 L 20.300 15.980 12.000 15.980 L 3.700 15.980 3.516 15.872 C 3.415 15.813,3.284 15.700,3.225 15.623 C 2.988 15.312,3.000 15.608,3.000 10.022 C 3.000 4.240,2.980 4.627,3.303 4.303 C 3.621 3.985,3.414 4.000,7.537 3.998 C 10.476 3.997,11.209 3.986,11.330 3.943 C 11.551 3.864,11.744 3.702,11.869 3.489 C 11.964 3.328,11.980 3.256,11.980 3.000 C 11.980 2.746,11.963 2.672,11.872 2.516 C 11.813 2.415,11.698 2.282,11.618 2.221 C 11.320 1.994,11.426 2.000,7.404 2.005 C 5.367 2.007,3.609 2.025,3.499 2.043 M18.408 4.044 C 18.979 4.163,19.546 4.606,19.793 5.125 C 20.054 5.672,20.054 6.326,19.794 6.875 C 19.606 7.270,19.193 7.664,18.778 7.842 C 18.478 7.971,18.434 7.978,18.000 7.978 C 17.566 7.978,17.522 7.971,17.222 7.842 C 16.642 7.593,16.172 7.022,16.044 6.408 C 15.905 5.743,16.105 5.087,16.596 4.597 C 17.090 4.105,17.743 3.906,18.408 4.044 " stroke="none" fill-rule="evenodd" fill="#000000"></path></svg>