<svg  xmlns="http://www.w3.org/2000/svg" width="24" height="24" viewBox="0 0 24 24" fill="none" stroke="currentColor" stroke-width="2" stroke-linecap="round" stroke-linejoin="round"><path d="M4.477 2.071 C 3.801 2.253,3.238 2.824,3.060 3.508 C 2.971 3.847,2.971 8.153,3.060 8.492 C 3.247 9.213,3.874 9.813,4.594 9.963 C 4.737 9.993,5.121 10.002,5.697 9.990 C 6.472 9.974,6.614 9.961,6.860 9.882 C 8.034 9.505,8.877 8.480,8.984 7.302 L 9.011 7.000 10.558 7.000 C 12.349 7.000,12.401 7.007,12.697 7.303 C 13.002 7.608,13.000 7.595,13.000 9.947 L 13.000 12.000 11.927 12.000 C 11.332 12.000,10.749 12.019,10.617 12.043 C 10.135 12.131,9.591 12.496,9.328 12.909 C 9.192 13.122,7.150 18.199,7.058 18.552 C 6.947 18.982,7.006 19.457,7.228 19.920 C 7.366 20.206,7.794 20.634,8.080 20.772 C 8.577 21.011,8.300 21.000,14.000 21.000 C 19.700 21.000,19.423 21.011,19.920 20.772 C 20.047 20.711,20.251 20.554,20.403 20.403 C 20.904 19.902,21.109 19.197,20.942 18.552 C 20.851 18.204,18.808 13.123,18.675 12.913 C 18.457 12.571,18.065 12.265,17.644 12.108 C 17.439 12.032,17.316 12.023,16.212 12.009 L 15.004 11.994 14.991 9.707 C 14.978 7.438,14.977 7.418,14.885 7.140 C 14.560 6.161,13.816 5.420,12.861 5.123 C 12.543 5.024,12.523 5.023,10.775 5.009 L 9.011 4.995 8.983 4.696 C 8.877 3.518,8.016 2.476,6.861 2.125 C 6.570 2.037,6.456 2.027,5.640 2.014 C 4.875 2.002,4.701 2.011,4.477 2.071 M6.310 4.061 C 6.589 4.144,6.856 4.411,6.939 4.690 C 7.023 4.972,7.028 7.015,6.945 7.290 C 6.872 7.533,6.707 7.740,6.484 7.872 C 6.308 7.975,6.272 7.981,5.650 7.993 L 5.000 8.007 5.000 6.003 L 5.000 4.000 5.553 4.000 C 5.931 4.000,6.170 4.019,6.310 4.061 M18.000 16.500 L 18.992 18.980 16.496 18.990 C 15.123 18.996,12.877 18.996,11.504 18.990 L 9.008 18.980 9.976 16.560 C 10.508 15.229,10.956 14.108,10.971 14.070 C 10.996 14.003,11.168 14.000,14.003 14.010 L 17.008 14.020 18.000 16.500 " stroke="none" fill-rule="evenodd" fill="#000000"></path></svg>