<svg  xmlns="http://www.w3.org/2000/svg" width="24" height="24" viewBox="0 0 24 24" fill="none" stroke="currentColor" stroke-width="2" stroke-linecap="round" stroke-linejoin="round"><path d="M3.499 4.043 C 2.380 4.232,1.461 5.048,1.114 6.160 L 1.020 6.460 1.020 12.000 L 1.020 17.540 1.114 17.840 C 1.422 18.827,2.173 19.578,3.160 19.886 L 3.460 19.980 12.000 19.980 L 20.540 19.980 20.840 19.886 C 21.827 19.578,22.578 18.827,22.886 17.840 L 22.980 17.540 22.980 12.000 L 22.980 6.460 22.886 6.160 C 22.581 5.182,21.832 4.428,20.861 4.121 L 20.540 4.020 12.120 4.014 C 7.489 4.011,3.609 4.024,3.499 4.043 M20.310 6.061 C 20.589 6.144,20.856 6.411,20.939 6.690 C 20.992 6.868,21.000 7.546,21.000 12.001 C 21.000 16.212,20.990 17.139,20.945 17.290 C 20.872 17.533,20.707 17.740,20.484 17.872 L 20.300 17.980 12.000 17.980 L 3.700 17.980 3.516 17.872 C 3.303 17.747,3.141 17.550,3.058 17.316 C 2.969 17.061,2.971 6.993,3.061 6.690 C 3.140 6.421,3.412 6.143,3.673 6.063 C 3.833 6.014,5.030 6.005,11.983 6.003 C 19.144 6.000,20.130 6.007,20.310 6.061 M5.695 8.057 C 5.466 8.129,5.256 8.299,5.128 8.516 L 5.020 8.700 5.020 12.003 L 5.020 15.306 5.141 15.503 C 5.543 16.156,6.457 16.156,6.859 15.503 L 6.980 15.307 6.992 14.153 L 7.005 13.000 8.000 13.000 L 8.995 13.000 9.008 14.153 L 9.020 15.307 9.141 15.503 C 9.543 16.156,10.457 16.156,10.859 15.503 L 10.980 15.306 10.980 12.003 L 10.980 8.700 10.871 8.514 C 10.479 7.848,9.521 7.848,9.129 8.514 L 9.020 8.700 9.008 9.850 L 8.995 11.000 8.000 11.000 L 7.005 11.000 6.992 9.850 L 6.980 8.700 6.872 8.516 C 6.628 8.101,6.150 7.915,5.695 8.057 M14.174 8.039 C 13.751 8.129,13.330 8.477,13.132 8.900 L 13.020 9.140 13.020 12.000 L 13.020 14.860 13.132 15.100 C 13.279 15.415,13.587 15.724,13.896 15.867 C 14.134 15.977,14.161 15.980,14.930 15.993 C 15.788 16.007,16.106 15.974,16.588 15.821 C 17.604 15.498,18.497 14.606,18.820 13.591 C 18.874 13.422,18.936 13.170,18.959 13.031 C 19.011 12.706,19.011 11.294,18.959 10.969 C 18.736 9.596,17.725 8.479,16.378 8.115 C 16.109 8.042,15.929 8.027,15.200 8.017 C 14.727 8.010,14.265 8.020,14.174 8.039 M16.105 10.137 C 16.414 10.278,16.724 10.587,16.867 10.896 C 16.980 11.140,16.980 11.141,16.980 12.000 C 16.980 12.859,16.980 12.860,16.867 13.104 C 16.724 13.414,16.414 13.722,16.100 13.867 C 15.896 13.961,15.795 13.980,15.430 13.993 L 15.000 14.009 15.000 11.999 L 15.000 9.989 15.435 10.009 C 15.794 10.026,15.912 10.049,16.105 10.137 " stroke="none" fill-rule="evenodd" fill="#000000"></path></svg>