<svg  xmlns="http://www.w3.org/2000/svg" width="24" height="24" viewBox="0 0 24 24" fill="none" stroke="currentColor" stroke-width="2" stroke-linecap="round" stroke-linejoin="round"><path d="M11.460 2.057 C 10.903 2.167,10.390 2.421,10.002 2.780 C 9.405 3.330,4.653 7.934,4.105 8.493 C 2.382 10.249,1.571 11.500,1.200 12.977 C 0.656 15.135,1.260 17.368,2.827 19.001 C 3.687 19.897,4.693 20.480,5.928 20.799 C 7.104 21.101,8.307 21.059,9.516 20.673 C 9.929 20.541,10.515 20.281,10.789 20.107 C 10.882 20.048,10.967 20.000,10.977 20.000 C 10.987 20.000,11.001 20.519,11.008 21.153 L 11.020 22.307 11.141 22.503 C 11.543 23.156,12.457 23.156,12.859 22.503 L 12.980 22.307 12.992 21.153 C 12.999 20.519,13.014 20.000,13.026 20.000 C 13.038 20.000,13.100 20.037,13.164 20.083 C 13.361 20.223,14.079 20.544,14.484 20.674 C 15.111 20.873,15.607 20.961,16.268 20.987 C 16.970 21.016,17.401 20.971,18.072 20.798 C 19.305 20.481,20.312 19.898,21.173 19.001 C 22.847 17.257,23.421 14.789,22.676 12.540 C 22.314 11.448,21.636 10.384,20.488 9.110 C 20.155 8.740,15.258 3.965,14.112 2.891 C 13.497 2.316,12.904 2.056,12.120 2.019 C 11.885 2.009,11.633 2.023,11.460 2.057 M12.315 4.062 C 12.512 4.121,12.699 4.294,15.612 7.115 C 18.919 10.317,19.475 10.897,20.056 11.754 C 20.472 12.366,20.787 13.083,20.927 13.740 C 21.011 14.132,20.990 15.073,20.888 15.488 C 20.532 16.934,19.602 18.056,18.285 18.625 C 16.849 19.246,15.168 19.071,13.900 18.168 C 13.746 18.058,13.472 17.825,13.292 17.649 C 12.940 17.306,12.709 17.156,12.388 17.060 C 11.809 16.888,11.293 17.074,10.668 17.679 C 10.096 18.231,9.614 18.531,8.928 18.758 C 7.865 19.111,6.730 19.064,5.715 18.625 C 4.148 17.947,3.110 16.453,3.016 14.740 C 2.963 13.759,3.244 12.811,3.870 11.860 C 4.462 10.960,4.942 10.450,7.825 7.659 C 9.164 6.363,10.531 5.038,10.863 4.715 C 11.374 4.217,11.497 4.117,11.663 4.066 C 11.920 3.987,12.060 3.986,12.315 4.062 " stroke="none" fill-rule="evenodd" fill="#000000"></path></svg>