<svg  xmlns="http://www.w3.org/2000/svg" width="24" height="24" viewBox="0 0 24 24" fill="none" stroke="currentColor" stroke-width="2" stroke-linecap="round" stroke-linejoin="round"><path d="M9.380 2.043 C 6.784 2.299,4.681 4.215,4.114 6.840 C 3.984 7.446,3.984 8.554,4.114 9.160 C 4.406 10.511,5.075 11.656,6.097 12.551 C 6.228 12.665,6.327 12.765,6.317 12.773 C 6.308 12.780,6.102 12.891,5.860 13.018 C 4.085 13.954,2.804 15.265,1.924 17.050 C 1.327 18.260,1.028 19.478,1.023 20.723 C 1.020 21.304,1.020 21.306,1.141 21.503 C 1.540 22.152,2.457 22.156,2.854 21.511 C 2.960 21.338,2.973 21.276,3.004 20.791 C 3.083 19.570,3.290 18.767,3.765 17.836 C 4.476 16.445,5.529 15.410,6.940 14.718 C 8.463 13.971,10.120 13.808,11.800 14.239 C 12.456 14.408,13.405 14.837,13.886 15.181 C 14.311 15.485,14.581 15.557,14.924 15.456 C 15.306 15.344,15.555 15.079,15.641 14.695 C 15.697 14.444,15.631 14.135,15.476 13.921 C 15.337 13.728,14.784 13.354,14.140 13.017 C 13.898 12.890,13.692 12.781,13.683 12.773 C 13.674 12.766,13.781 12.656,13.922 12.530 C 14.976 11.581,15.593 10.523,15.885 9.160 C 16.015 8.554,16.015 7.446,15.885 6.840 C 15.626 5.631,15.109 4.660,14.269 3.805 C 12.978 2.490,11.230 1.860,9.380 2.043 M10.605 4.058 C 12.074 4.280,13.310 5.324,13.797 6.755 C 13.897 7.050,14.000 7.680,14.000 8.000 C 14.000 8.322,13.897 8.951,13.796 9.245 C 13.321 10.632,12.195 11.628,10.773 11.917 C 8.563 12.368,6.396 10.845,6.058 8.605 C 5.986 8.121,5.986 7.879,6.058 7.395 C 6.314 5.698,7.675 4.324,9.358 4.061 C 9.816 3.990,10.144 3.989,10.605 4.058 M18.640 15.069 C 18.488 15.121,18.205 15.384,16.825 16.755 C 15.040 18.530,15.001 18.578,15.001 19.000 C 15.001 19.420,15.043 19.472,16.806 21.226 C 17.694 22.109,18.481 22.862,18.555 22.899 C 19.010 23.128,19.601 22.944,19.867 22.492 C 19.964 22.327,19.980 22.258,19.979 22.000 C 19.979 21.787,19.957 21.660,19.904 21.560 C 19.864 21.483,19.514 21.101,19.127 20.710 L 18.423 20.000 20.301 19.998 C 21.766 19.997,22.213 19.985,22.330 19.943 C 22.551 19.864,22.744 19.702,22.869 19.489 C 22.964 19.328,22.980 19.256,22.980 19.000 C 22.980 18.746,22.963 18.672,22.872 18.516 C 22.813 18.415,22.698 18.282,22.618 18.221 C 22.337 18.007,22.265 18.000,20.265 18.000 L 18.423 18.000 19.127 17.290 C 19.514 16.899,19.864 16.517,19.904 16.440 C 19.957 16.340,19.979 16.213,19.979 16.000 C 19.980 15.745,19.964 15.672,19.872 15.516 C 19.617 15.083,19.121 14.902,18.640 15.069 " stroke="none" fill-rule="evenodd" fill="#000000"></path></svg>