<svg  xmlns="http://www.w3.org/2000/svg" width="24" height="24" viewBox="0 0 24 24" fill="none" stroke="currentColor" stroke-width="2" stroke-linecap="round" stroke-linejoin="round"><path d="M4.499 2.043 C 3.379 2.233,2.461 3.048,2.114 4.160 L 2.020 4.460 2.020 12.000 L 2.020 19.540 2.114 19.840 C 2.418 20.816,3.150 21.554,4.140 21.886 L 4.420 21.980 8.040 21.991 C 12.081 22.004,11.845 22.020,12.173 21.724 C 12.381 21.536,12.488 21.292,12.488 21.003 C 12.488 20.615,12.294 20.298,11.940 20.106 C 11.780 20.020,11.774 20.020,8.240 20.000 L 4.700 19.980 4.516 19.872 C 4.415 19.813,4.284 19.700,4.225 19.623 C 3.986 19.309,4.000 19.795,4.000 12.022 C 4.000 4.006,3.975 4.631,4.303 4.303 C 4.625 3.981,4.307 4.000,9.447 4.000 L 14.000 4.000 14.000 6.132 C 14.000 8.443,14.004 8.494,14.225 8.930 C 14.361 9.199,14.801 9.639,15.070 9.775 C 15.506 9.996,15.557 10.000,17.867 10.000 L 19.997 10.000 20.008 11.653 L 20.020 13.306 20.141 13.503 C 20.543 14.156,21.457 14.156,21.859 13.503 L 21.980 13.306 21.980 10.863 L 21.980 8.420 21.868 8.060 C 21.733 7.627,21.505 7.192,21.241 6.863 C 20.921 6.464,17.162 2.748,16.920 2.592 C 16.585 2.376,16.319 2.252,15.932 2.130 L 15.580 2.020 10.140 2.014 C 7.148 2.011,4.609 2.024,4.499 2.043 M17.800 6.220 L 19.580 8.000 17.790 8.000 L 16.000 8.000 16.000 6.220 C 16.000 5.241,16.005 4.440,16.010 4.440 C 16.016 4.440,16.821 5.241,17.800 6.220 M20.640 16.068 C 20.488 16.121,20.196 16.394,18.731 17.853 L 17.002 19.575 16.271 18.855 C 15.655 18.247,15.509 18.123,15.343 18.067 C 14.865 17.905,14.383 18.083,14.128 18.516 C 14.036 18.672,14.020 18.745,14.021 19.000 C 14.021 19.213,14.043 19.341,14.095 19.440 C 14.197 19.633,16.297 21.740,16.520 21.873 C 16.673 21.964,16.745 21.980,17.000 21.979 C 17.212 21.979,17.341 21.957,17.440 21.905 C 17.632 21.805,21.739 17.705,21.873 17.480 C 21.964 17.328,21.980 17.254,21.980 17.000 C 21.980 16.746,21.963 16.672,21.872 16.516 C 21.617 16.083,21.121 15.903,20.640 16.068 " stroke="none" fill-rule="evenodd" fill="#000000"></path></svg>