<svg  xmlns="http://www.w3.org/2000/svg" width="24" height="24" viewBox="0 0 24 24" fill="none" stroke="currentColor" stroke-width="2" stroke-linecap="round" stroke-linejoin="round"><path d="M4.580 5.096 C 4.470 5.123,4.317 5.178,4.240 5.218 C 3.883 5.402,3.773 5.544,2.430 7.554 C 1.701 8.646,1.082 9.603,1.054 9.680 C 0.948 9.974,1.016 10.356,1.222 10.626 C 1.443 10.916,1.920 11.069,2.264 10.961 C 2.629 10.846,2.667 10.799,3.845 9.029 C 4.464 8.100,4.982 7.326,4.997 7.310 C 5.012 7.293,5.514 7.979,6.112 8.835 C 6.711 9.690,7.283 10.466,7.383 10.559 C 8.003 11.130,9.087 11.108,9.668 10.512 C 9.760 10.417,10.314 9.656,10.899 8.820 C 11.484 7.984,11.979 7.300,12.000 7.300 C 12.021 7.300,12.516 7.984,13.101 8.820 C 13.686 9.656,14.240 10.417,14.332 10.512 C 14.913 11.108,15.997 11.130,16.617 10.559 C 16.717 10.466,17.289 9.690,17.888 8.835 C 18.486 7.979,18.988 7.293,19.003 7.310 C 19.018 7.326,19.536 8.100,20.155 9.029 C 21.333 10.799,21.371 10.846,21.736 10.961 C 21.955 11.030,22.287 10.987,22.501 10.862 C 22.907 10.623,23.096 10.123,22.943 9.689 C 22.912 9.600,22.292 8.637,21.565 7.548 C 20.212 5.521,20.115 5.397,19.740 5.210 C 19.270 4.975,18.587 4.996,18.137 5.259 C 17.847 5.430,17.661 5.661,16.636 7.132 C 16.081 7.928,15.597 8.618,15.562 8.665 C 15.498 8.747,15.466 8.706,14.418 7.205 C 13.825 6.355,13.258 5.579,13.157 5.480 C 13.057 5.381,12.868 5.246,12.737 5.180 C 12.511 5.066,12.476 5.060,12.000 5.060 C 11.524 5.060,11.489 5.066,11.263 5.180 C 11.132 5.246,10.942 5.381,10.842 5.480 C 10.741 5.579,10.201 6.317,9.642 7.120 C 9.083 7.923,8.596 8.618,8.561 8.665 C 8.498 8.747,8.464 8.704,7.423 7.216 C 6.833 6.373,6.276 5.609,6.185 5.518 C 5.774 5.107,5.173 4.950,4.580 5.096 M4.580 13.096 C 4.470 13.123,4.317 13.178,4.240 13.218 C 3.883 13.402,3.773 13.544,2.435 15.548 C 1.708 16.637,1.088 17.600,1.057 17.689 C 0.902 18.128,1.092 18.623,1.511 18.869 C 1.673 18.964,1.744 18.980,2.003 18.980 C 2.270 18.980,2.330 18.965,2.503 18.860 C 2.682 18.751,2.804 18.584,3.850 17.020 C 4.483 16.074,5.014 15.307,5.030 15.316 C 5.047 15.324,5.534 16.008,6.112 16.836 C 6.691 17.663,7.240 18.417,7.332 18.512 C 7.935 19.131,9.065 19.131,9.668 18.512 C 9.760 18.417,10.314 17.656,10.899 16.820 C 11.484 15.984,11.979 15.300,12.000 15.300 C 12.021 15.300,12.516 15.984,13.101 16.820 C 13.686 17.656,14.240 18.417,14.332 18.512 C 14.935 19.131,16.065 19.131,16.668 18.512 C 16.760 18.417,17.314 17.656,17.899 16.820 C 18.484 15.984,18.975 15.307,18.991 15.315 C 19.007 15.324,19.533 16.098,20.160 17.035 C 21.196 18.585,21.318 18.751,21.497 18.860 C 21.670 18.965,21.730 18.980,21.997 18.980 C 22.256 18.980,22.327 18.964,22.489 18.869 C 22.908 18.623,23.098 18.128,22.943 17.689 C 22.866 17.469,20.278 13.599,20.120 13.466 C 19.557 12.992,18.745 12.907,18.146 13.259 C 17.851 13.432,17.626 13.713,16.559 15.240 C 15.983 16.065,15.508 16.743,15.505 16.747 C 15.502 16.751,15.014 16.059,14.420 15.210 C 13.826 14.362,13.259 13.586,13.160 13.487 C 13.061 13.388,12.863 13.251,12.720 13.183 C 12.476 13.068,12.431 13.060,12.000 13.060 C 11.569 13.060,11.524 13.068,11.280 13.183 C 11.137 13.251,10.939 13.388,10.840 13.487 C 10.741 13.586,10.174 14.362,9.580 15.210 C 8.986 16.059,8.498 16.751,8.495 16.747 C 8.492 16.743,8.017 16.065,7.441 15.240 C 6.374 13.713,6.149 13.432,5.854 13.259 C 5.509 13.056,5.003 12.992,4.580 13.096 " stroke="none" fill-rule="evenodd" fill="#000000"></path></svg>