<svg  xmlns="http://www.w3.org/2000/svg" width="24" height="24" viewBox="0 0 24 24" fill="none" stroke="currentColor" stroke-width="2" stroke-linecap="round" stroke-linejoin="round"><path d="M10.499 1.042 C 9.375 1.237,8.461 2.048,8.114 3.160 L 8.020 3.460 8.020 9.500 L 8.020 15.540 8.114 15.840 C 8.422 16.827,9.173 17.578,10.160 17.886 L 10.460 17.980 15.000 17.980 L 19.540 17.980 19.840 17.886 C 20.827 17.578,21.578 16.827,21.886 15.840 L 21.980 15.540 21.980 11.480 L 21.980 7.420 21.870 7.068 C 21.748 6.681,21.624 6.415,21.408 6.080 C 21.252 5.838,17.536 2.079,17.137 1.759 C 16.806 1.494,16.372 1.267,15.940 1.134 L 15.580 1.023 13.140 1.015 C 11.798 1.011,10.609 1.023,10.499 1.042 M14.000 5.132 C 14.000 7.443,14.004 7.494,14.225 7.930 C 14.361 8.199,14.801 8.639,15.070 8.775 C 15.506 8.996,15.557 9.000,17.868 9.000 L 20.000 9.000 20.000 12.054 C 20.000 15.367,20.003 15.325,19.779 15.618 C 19.718 15.698,19.585 15.813,19.484 15.872 L 19.300 15.980 15.000 15.980 L 10.700 15.980 10.516 15.872 C 10.415 15.813,10.284 15.700,10.225 15.623 C 9.987 15.311,10.000 15.655,10.000 9.522 C 10.000 3.181,9.978 3.628,10.304 3.303 C 10.596 3.011,10.629 3.006,12.430 3.003 L 14.000 3.000 14.000 5.132 M17.800 5.220 L 19.580 7.000 17.790 7.000 L 16.000 7.000 16.000 5.220 C 16.000 4.241,16.005 3.440,16.010 3.440 C 16.016 3.440,16.821 4.241,17.800 5.220 M4.499 6.043 C 3.383 6.230,2.461 7.048,2.114 8.160 L 2.020 8.460 2.020 14.500 L 2.020 20.540 2.114 20.840 C 2.422 21.827,3.173 22.578,4.160 22.886 L 4.460 22.980 8.980 22.980 C 13.245 22.980,13.514 22.976,13.740 22.907 C 14.422 22.699,14.881 22.405,15.312 21.902 C 15.811 21.318,15.857 20.735,15.436 20.313 C 15.076 19.951,14.551 19.905,14.150 20.199 C 14.067 20.259,13.944 20.388,13.876 20.484 C 13.705 20.726,13.533 20.867,13.318 20.940 C 13.157 20.994,12.635 21.000,8.918 20.991 L 4.700 20.980 4.516 20.872 C 4.415 20.813,4.284 20.700,4.225 20.623 C 3.987 20.311,4.000 20.655,4.000 14.522 C 4.000 8.228,3.982 8.632,4.283 8.321 C 4.484 8.114,4.636 8.049,5.028 7.999 C 5.392 7.953,5.631 7.827,5.802 7.591 C 6.207 7.032,5.947 6.253,5.290 6.055 C 5.090 5.995,4.811 5.991,4.499 6.043 " stroke="none" fill-rule="evenodd" fill="#000000"></path></svg>