<svg  xmlns="http://www.w3.org/2000/svg" width="24" height="24" viewBox="0 0 24 24" fill="none" stroke="currentColor" stroke-width="2" stroke-linecap="round" stroke-linejoin="round"><path d="M11.580 1.047 C 11.119 1.135,10.589 1.500,10.324 1.914 C 10.165 2.161,10.067 2.449,9.959 2.987 C 9.790 3.830,9.397 4.863,8.958 5.624 C 8.540 6.347,8.162 6.844,7.564 7.453 C 6.283 8.760,4.781 9.575,2.917 9.976 C 2.180 10.135,1.869 10.285,1.535 10.648 C 0.817 11.427,0.824 12.590,1.551 13.368 C 1.893 13.733,2.221 13.887,2.987 14.041 C 4.066 14.258,5.246 14.757,6.207 15.403 C 7.084 15.993,8.008 16.916,8.597 17.793 C 9.235 18.743,9.716 19.871,9.946 20.956 C 10.089 21.634,10.147 21.807,10.315 22.067 C 11.005 23.128,12.426 23.314,13.354 22.464 C 13.727 22.122,13.879 21.801,14.041 21.014 C 14.317 19.672,14.910 18.396,15.774 17.280 C 16.070 16.899,16.809 16.153,17.200 15.843 C 18.322 14.952,19.608 14.339,20.956 14.054 C 21.634 13.911,21.807 13.853,22.067 13.685 C 23.179 12.962,23.320 11.439,22.356 10.543 C 22.054 10.263,21.771 10.138,21.081 9.977 C 20.093 9.748,19.597 9.579,18.863 9.220 C 17.521 8.564,16.234 7.443,15.403 6.207 C 14.762 5.253,14.285 4.134,14.054 3.044 C 13.911 2.366,13.853 2.193,13.685 1.932 C 13.232 1.232,12.414 0.888,11.580 1.047 M12.077 3.369 C 12.272 4.404,12.776 5.722,13.359 6.720 C 13.582 7.102,14.022 7.734,14.335 8.120 C 14.647 8.506,15.494 9.353,15.880 9.665 C 17.241 10.767,18.926 11.578,20.522 11.899 C 20.708 11.937,20.874 11.981,20.891 11.997 C 20.909 12.013,20.792 12.050,20.631 12.078 C 20.256 12.144,19.489 12.363,18.980 12.550 C 18.045 12.894,16.817 13.594,15.968 14.268 C 15.518 14.624,14.686 15.446,14.335 15.880 C 13.230 17.245,12.414 18.944,12.097 20.538 C 12.060 20.726,12.016 20.880,12.000 20.880 C 11.984 20.880,11.949 20.768,11.923 20.630 C 11.728 19.596,11.224 18.278,10.641 17.280 C 10.418 16.898,9.978 16.266,9.665 15.880 C 9.315 15.447,8.482 14.624,8.036 14.271 C 6.696 13.208,5.014 12.410,3.450 12.097 C 3.247 12.056,3.094 12.011,3.110 11.995 C 3.127 11.980,3.292 11.937,3.478 11.899 C 5.074 11.578,6.759 10.767,8.120 9.665 C 8.506 9.353,9.353 8.506,9.665 8.120 C 10.423 7.184,11.057 6.080,11.456 5.000 C 11.635 4.516,11.856 3.744,11.922 3.371 C 11.949 3.213,11.985 3.091,12.001 3.100 C 12.016 3.110,12.051 3.231,12.077 3.369 " stroke="none" fill-rule="evenodd" fill="#000000"></path></svg>