<svg  xmlns="http://www.w3.org/2000/svg" width="24" height="24" viewBox="0 0 24 24" fill="none" stroke="currentColor" stroke-width="2" stroke-linecap="round" stroke-linejoin="round"><path d="M2.695 2.057 C 2.466 2.129,2.256 2.299,2.128 2.516 L 2.020 2.700 2.009 5.440 C 1.998 7.911,2.004 8.197,2.064 8.354 C 2.155 8.595,2.343 8.796,2.580 8.906 L 2.780 8.999 5.480 8.998 C 7.632 8.997,8.210 8.986,8.330 8.943 C 8.551 8.864,8.744 8.702,8.869 8.489 C 8.964 8.328,8.980 8.256,8.980 8.000 C 8.980 7.746,8.963 7.672,8.872 7.516 C 8.813 7.415,8.698 7.282,8.618 7.221 C 8.347 7.015,8.225 7.000,6.764 6.999 L 5.420 6.998 5.900 6.528 C 6.705 5.740,7.587 5.144,8.573 4.721 C 10.864 3.739,13.376 3.773,15.500 4.816 C 17.133 5.618,18.382 6.867,19.184 8.500 C 20.263 10.697,20.263 13.291,19.183 15.499 C 18.749 16.387,18.223 17.105,17.496 17.801 C 16.876 18.394,16.262 18.819,15.471 19.200 C 13.267 20.265,10.733 20.265,8.529 19.200 C 6.942 18.434,5.672 17.189,4.870 15.614 C 4.338 14.570,4.088 13.595,4.006 12.253 C 3.975 11.748,3.960 11.666,3.866 11.507 C 3.480 10.847,2.519 10.851,2.129 11.514 C 2.023 11.695,2.020 11.716,2.022 12.300 C 2.029 13.940,2.548 15.706,3.470 17.220 C 4.015 18.116,5.008 19.235,5.800 19.847 C 7.242 20.961,8.787 21.624,10.600 21.907 C 11.247 22.008,12.753 22.008,13.400 21.907 C 15.638 21.557,17.504 20.620,19.062 19.062 C 20.620 17.504,21.557 15.638,21.907 13.400 C 22.008 12.753,22.008 11.247,21.907 10.600 C 21.624 8.786,20.959 7.238,19.847 5.800 C 19.510 5.365,18.639 4.494,18.200 4.154 C 15.960 2.421,13.268 1.713,10.470 2.122 C 8.786 2.367,7.121 3.045,5.720 4.054 C 5.345 4.324,4.582 4.985,4.240 5.337 L 4.020 5.563 4.000 4.131 L 3.980 2.700 3.872 2.516 C 3.628 2.101,3.150 1.915,2.695 2.057 M11.695 6.057 C 11.466 6.129,11.256 6.299,11.128 6.516 L 11.020 6.700 11.000 9.426 L 10.980 12.153 10.660 12.317 C 9.919 12.698,9.363 13.360,9.114 14.160 C 8.979 14.594,8.979 15.406,9.114 15.840 C 9.421 16.826,10.174 17.579,11.160 17.886 C 11.594 18.021,12.406 18.021,12.840 17.886 C 13.826 17.579,14.579 16.826,14.886 15.840 C 15.021 15.406,15.021 14.594,14.886 14.160 C 14.635 13.355,14.078 12.693,13.330 12.313 L 13.000 12.145 13.000 11.073 L 13.000 10.000 13.590 9.998 C 13.977 9.997,14.232 9.978,14.330 9.943 C 14.551 9.864,14.744 9.702,14.869 9.489 C 14.964 9.328,14.980 9.256,14.980 9.000 C 14.980 8.746,14.963 8.672,14.872 8.516 C 14.634 8.111,14.352 8.000,13.557 8.000 L 13.007 8.000 12.993 7.350 C 12.981 6.728,12.975 6.692,12.872 6.516 C 12.628 6.101,12.150 5.915,11.695 6.057 M12.310 14.061 C 12.688 14.173,13.000 14.598,13.000 15.001 C 13.000 15.331,12.784 15.696,12.484 15.872 C 12.328 15.963,12.254 15.980,12.000 15.980 C 11.746 15.980,11.672 15.963,11.516 15.872 C 10.935 15.530,10.833 14.774,11.304 14.303 C 11.583 14.024,11.916 13.944,12.310 14.061 " stroke="none" fill-rule="evenodd" fill="#000000"></path></svg>