<svg  xmlns="http://www.w3.org/2000/svg" width="24" height="24" viewBox="0 0 24 24" fill="none" stroke="currentColor" stroke-width="2" stroke-linecap="round" stroke-linejoin="round"><path d="M2.695 4.057 C 2.466 4.129,2.256 4.299,2.128 4.516 C 2.037 4.672,2.020 4.746,2.020 5.000 C 2.020 5.256,2.036 5.328,2.131 5.489 C 2.256 5.702,2.449 5.864,2.670 5.943 C 2.892 6.022,11.108 6.022,11.330 5.943 C 11.551 5.864,11.744 5.702,11.869 5.489 C 11.964 5.328,11.980 5.256,11.980 5.000 C 11.980 4.746,11.963 4.672,11.872 4.516 C 11.740 4.293,11.533 4.128,11.290 4.055 C 11.029 3.976,2.946 3.979,2.695 4.057 M14.670 4.061 C 14.448 4.142,14.250 4.309,14.128 4.516 C 14.036 4.672,14.020 4.745,14.021 5.000 C 14.021 5.212,14.043 5.341,14.095 5.440 C 14.196 5.632,17.296 8.739,17.520 8.873 C 17.672 8.964,17.746 8.980,18.000 8.980 C 18.254 8.980,18.328 8.964,18.480 8.873 C 18.704 8.739,21.804 5.632,21.905 5.440 C 21.957 5.341,21.979 5.212,21.979 5.000 C 21.980 4.745,21.964 4.672,21.872 4.516 C 21.618 4.084,21.137 3.905,20.657 4.066 C 20.484 4.124,20.312 4.279,19.230 5.354 L 18.000 6.576 16.770 5.354 C 15.688 4.279,15.516 4.124,15.343 4.066 C 15.108 3.987,14.875 3.985,14.670 4.061 M2.695 11.057 C 2.466 11.129,2.256 11.299,2.128 11.516 C 2.037 11.672,2.020 11.746,2.020 12.000 C 2.020 12.256,2.036 12.328,2.131 12.489 C 2.256 12.702,2.449 12.864,2.670 12.943 C 2.892 13.022,11.108 13.022,11.330 12.943 C 11.551 12.864,11.744 12.702,11.869 12.489 C 11.964 12.328,11.980 12.256,11.980 12.000 C 11.980 11.746,11.963 11.672,11.872 11.516 C 11.740 11.293,11.533 11.128,11.290 11.055 C 11.029 10.976,2.946 10.979,2.695 11.057 M17.640 15.069 C 17.488 15.121,17.208 15.381,15.847 16.735 C 14.960 17.618,14.186 18.421,14.127 18.520 C 14.037 18.672,14.020 18.746,14.020 19.000 C 14.020 19.257,14.036 19.327,14.133 19.492 C 14.263 19.714,14.502 19.901,14.736 19.965 C 14.939 20.019,15.267 19.989,15.445 19.899 C 15.519 19.862,16.125 19.289,16.790 18.626 L 18.000 17.422 19.210 18.626 C 19.875 19.289,20.483 19.864,20.560 19.905 C 20.659 19.957,20.787 19.979,21.000 19.979 C 21.258 19.980,21.327 19.964,21.492 19.867 C 21.968 19.587,22.138 18.968,21.866 18.508 C 21.811 18.416,21.040 17.618,20.153 16.736 C 18.714 15.305,18.519 15.124,18.343 15.066 C 18.102 14.985,17.878 14.986,17.640 15.069 M2.695 18.057 C 2.466 18.129,2.256 18.299,2.128 18.516 C 2.037 18.672,2.020 18.746,2.020 19.000 C 2.020 19.256,2.036 19.328,2.131 19.489 C 2.256 19.702,2.449 19.864,2.670 19.943 C 2.892 20.022,11.108 20.022,11.330 19.943 C 11.551 19.864,11.744 19.702,11.869 19.489 C 11.964 19.328,11.980 19.256,11.980 19.000 C 11.980 18.746,11.963 18.672,11.872 18.516 C 11.740 18.293,11.533 18.128,11.290 18.055 C 11.029 17.976,2.946 17.979,2.695 18.057 " stroke="none" fill-rule="evenodd" fill="#000000"></path></svg>