<svg  xmlns="http://www.w3.org/2000/svg" width="24" height="24" viewBox="0 0 24 24" fill="none" stroke="currentColor" stroke-width="2" stroke-linecap="round" stroke-linejoin="round"><path d="M11.400 1.044 C 9.761 1.229,8.261 2.290,7.526 3.785 C 7.158 4.533,7.020 5.136,7.020 6.000 C 7.020 6.670,7.078 7.044,7.268 7.600 C 7.396 7.974,7.634 8.460,7.838 8.766 L 7.994 9.000 7.443 9.000 C 6.648 9.000,6.366 9.111,6.128 9.516 C 6.037 9.672,6.020 9.746,6.020 10.000 C 6.020 10.256,6.036 10.328,6.131 10.489 C 6.192 10.592,6.304 10.725,6.381 10.783 C 6.627 10.971,6.763 10.996,7.554 10.998 L 8.289 11.000 8.262 11.150 C 8.126 11.899,7.192 16.875,7.177 16.924 C 7.163 16.974,7.080 16.994,6.807 17.013 C 5.548 17.102,4.509 17.924,4.118 19.140 C 4.039 19.386,4.026 19.528,4.010 20.303 C 3.990 21.282,4.014 21.479,4.202 21.877 C 4.348 22.186,4.771 22.623,5.070 22.775 C 5.538 23.012,5.172 23.000,12.000 23.000 C 18.828 23.000,18.462 23.012,18.930 22.775 C 19.196 22.640,19.638 22.200,19.771 21.937 C 19.980 21.526,20.010 21.305,19.990 20.320 C 19.975 19.526,19.962 19.387,19.882 19.140 C 19.699 18.570,19.383 18.100,18.911 17.695 C 18.448 17.298,17.847 17.060,17.193 17.013 C 16.920 16.994,16.837 16.974,16.823 16.924 C 16.808 16.875,15.874 11.899,15.738 11.150 L 15.711 11.000 16.446 10.998 C 17.237 10.996,17.373 10.971,17.619 10.783 C 17.696 10.725,17.808 10.592,17.869 10.489 C 17.964 10.328,17.980 10.256,17.980 10.000 C 17.980 9.746,17.963 9.672,17.872 9.516 C 17.633 9.110,17.352 9.000,16.553 9.000 L 15.999 9.000 16.155 8.770 C 16.361 8.466,16.605 7.971,16.732 7.600 C 16.922 7.043,16.980 6.670,16.980 6.000 C 16.980 5.101,16.838 4.506,16.433 3.713 C 15.794 2.461,14.604 1.510,13.240 1.162 C 12.669 1.016,12.019 0.974,11.400 1.044 M12.861 3.129 C 13.804 3.405,14.584 4.183,14.875 5.139 C 14.958 5.412,14.973 5.542,14.973 6.000 C 14.973 6.458,14.958 6.588,14.875 6.861 C 14.582 7.822,13.819 8.581,12.840 8.886 C 12.406 9.021,11.594 9.021,11.160 8.886 C 10.181 8.581,9.418 7.822,9.125 6.861 C 9.042 6.588,9.027 6.458,9.027 6.000 C 9.027 5.542,9.042 5.412,9.125 5.139 C 9.456 4.054,10.371 3.245,11.499 3.040 C 11.832 2.980,12.500 3.023,12.861 3.129 M13.698 11.150 C 13.845 11.959,14.769 16.877,14.785 16.930 C 14.804 16.996,14.653 17.000,12.000 17.000 C 9.347 17.000,9.196 16.996,9.215 16.930 C 9.231 16.877,10.155 11.959,10.302 11.150 L 10.329 11.000 12.000 11.000 L 13.671 11.000 13.698 11.150 M17.310 19.061 C 17.452 19.103,17.571 19.178,17.697 19.303 C 17.948 19.554,18.000 19.751,18.000 20.447 L 18.000 21.000 12.000 21.000 L 6.000 21.000 6.000 20.447 C 6.000 19.750,6.052 19.554,6.304 19.303 C 6.621 18.985,6.234 19.006,11.983 19.003 C 16.458 19.000,17.131 19.008,17.310 19.061 " stroke="none" fill-rule="evenodd" fill="#000000"></path></svg>