<svg  xmlns="http://www.w3.org/2000/svg" width="24" height="24" viewBox="0 0 24 24" fill="none" stroke="currentColor" stroke-width="2" stroke-linecap="round" stroke-linejoin="round"><path d="M12.553 1.598 C 11.712 1.752,10.971 2.216,10.531 2.863 L 10.441 2.994 8.951 3.009 C 7.499 3.024,7.452 3.027,7.139 3.123 C 6.185 3.418,5.444 4.156,5.114 5.140 L 5.020 5.420 5.009 12.210 L 4.998 19.000 3.446 19.000 C 1.758 19.000,1.658 19.011,1.382 19.221 C 1.302 19.282,1.187 19.415,1.128 19.516 C 1.037 19.672,1.020 19.746,1.020 20.000 C 1.020 20.256,1.036 20.328,1.131 20.489 C 1.256 20.702,1.449 20.864,1.670 20.943 C 1.791 20.986,2.600 20.997,5.921 20.998 L 10.021 21.000 10.071 21.210 C 10.239 21.920,10.867 22.525,11.592 22.676 C 12.030 22.767,12.119 22.749,15.679 21.860 L 19.121 21.000 20.651 20.998 C 22.296 20.996,22.347 20.991,22.619 20.783 C 22.696 20.725,22.808 20.592,22.869 20.489 C 22.964 20.328,22.980 20.256,22.980 20.000 C 22.980 19.746,22.963 19.672,22.872 19.516 C 22.813 19.415,22.698 19.282,22.618 19.221 C 22.356 19.022,22.203 19.000,21.054 19.000 L 20.000 19.000 20.000 12.138 C 20.000 4.654,20.010 4.998,19.776 4.423 C 19.487 3.711,18.805 3.044,18.094 2.776 C 17.949 2.722,16.860 2.435,15.674 2.139 C 13.847 1.683,13.457 1.597,13.128 1.582 C 12.915 1.572,12.656 1.579,12.553 1.598 M15.257 4.095 C 17.211 4.584,17.413 4.642,17.587 4.767 C 17.706 4.852,17.815 4.977,17.878 5.101 L 17.980 5.298 17.990 12.259 L 18.001 19.220 15.050 19.956 C 13.428 20.361,12.077 20.701,12.050 20.711 C 12.009 20.725,12.001 19.105,12.010 12.513 L 12.020 4.298 12.120 4.103 C 12.286 3.781,12.624 3.566,12.969 3.562 C 13.051 3.561,14.081 3.801,15.257 4.095 M10.000 12.000 L 10.000 19.000 8.500 19.000 L 7.000 19.000 7.000 12.427 C 7.000 5.036,6.974 5.632,7.307 5.299 C 7.582 5.025,7.683 5.006,8.930 5.003 L 10.000 5.000 10.000 12.000 M13.695 11.055 C 13.464 11.130,13.255 11.300,13.128 11.516 C 13.037 11.672,13.020 11.746,13.020 12.000 C 13.020 12.257,13.036 12.327,13.133 12.492 C 13.651 13.374,14.998 13.018,14.998 12.000 C 14.998 11.623,14.792 11.281,14.463 11.112 C 14.265 11.010,13.911 10.984,13.695 11.055 " stroke="none" fill-rule="evenodd" fill="#000000"></path></svg>