<svg  xmlns="http://www.w3.org/2000/svg" width="24" height="24" viewBox="0 0 24 24" fill="none" stroke="currentColor" stroke-width="2" stroke-linecap="round" stroke-linejoin="round"><path d="M4.477 1.073 C 3.789 1.253,3.184 1.886,3.040 2.578 C 3.012 2.716,3.002 4.812,3.009 9.180 L 3.020 15.580 3.114 15.860 C 3.447 16.851,4.185 17.583,5.160 17.886 C 5.594 18.021,6.406 18.021,6.840 17.886 C 7.827 17.579,8.584 16.821,8.885 15.840 C 8.955 15.611,8.977 15.440,8.978 15.120 C 8.980 14.733,8.971 14.686,8.871 14.514 C 8.568 13.998,7.883 13.854,7.405 14.205 C 7.169 14.379,7.047 14.609,7.002 14.966 C 6.981 15.130,6.945 15.314,6.922 15.375 C 6.851 15.561,6.677 15.758,6.484 15.872 C 6.328 15.963,6.254 15.980,6.000 15.980 C 5.746 15.980,5.672 15.963,5.516 15.872 C 5.415 15.813,5.284 15.700,5.225 15.623 C 5.006 15.336,5.000 15.283,5.000 13.580 L 5.000 12.009 5.179 11.982 C 5.422 11.946,5.712 11.742,5.859 11.503 C 5.966 11.329,5.980 11.271,5.980 11.003 C 5.980 10.745,5.964 10.672,5.871 10.514 C 5.730 10.275,5.485 10.096,5.214 10.035 L 5.000 9.987 5.000 6.487 L 5.000 2.987 5.790 3.013 C 7.169 3.057,8.311 3.237,9.440 3.587 C 13.937 4.981,17.234 8.678,18.495 13.740 C 18.620 14.239,18.773 15.040,18.749 15.064 C 18.739 15.074,18.598 15.062,18.435 15.036 C 16.984 14.809,15.563 15.718,15.114 17.160 C 14.979 17.594,14.979 18.406,15.114 18.840 C 15.421 19.826,16.174 20.579,17.160 20.886 C 17.626 21.031,18.521 21.015,18.939 20.855 C 18.983 20.838,18.996 20.971,19.007 21.570 L 19.020 22.307 19.141 22.503 C 19.543 23.156,20.457 23.156,20.859 22.503 L 20.980 22.306 20.980 19.463 C 20.979 17.010,20.969 16.532,20.908 15.980 C 20.419 11.565,18.768 7.979,15.954 5.218 C 13.112 2.430,9.482 0.991,5.320 1.003 C 4.905 1.004,4.665 1.024,4.477 1.073 M18.310 17.061 C 18.688 17.173,19.000 17.598,19.000 18.001 C 19.000 18.331,18.784 18.696,18.484 18.872 C 18.328 18.963,18.254 18.980,18.000 18.980 C 17.746 18.980,17.672 18.963,17.516 18.872 C 16.935 18.530,16.833 17.774,17.304 17.303 C 17.583 17.024,17.916 16.944,18.310 17.061 " stroke="none" fill-rule="evenodd" fill="#000000"></path></svg>