<svg  xmlns="http://www.w3.org/2000/svg" width="24" height="24" viewBox="0 0 24 24" fill="none" stroke="currentColor" stroke-width="2" stroke-linecap="round" stroke-linejoin="round"><path d="M5.499 1.043 C 4.379 1.233,3.461 2.048,3.114 3.160 L 3.020 3.460 3.020 12.000 L 3.020 20.540 3.114 20.840 C 3.422 21.827,4.173 22.578,5.160 22.886 L 5.460 22.980 12.000 22.980 L 18.540 22.980 18.840 22.886 C 19.816 22.582,20.554 21.851,20.886 20.860 L 20.980 20.580 20.991 14.051 C 21.003 6.939,21.013 7.287,20.777 6.695 C 20.717 6.544,20.596 6.312,20.508 6.180 C 20.323 5.900,16.348 1.892,15.980 1.613 C 15.693 1.395,15.398 1.242,15.020 1.115 L 14.740 1.020 10.220 1.014 C 7.734 1.011,5.609 1.024,5.499 1.043 M14.620 3.107 C 14.819 3.216,18.804 7.207,18.906 7.400 C 18.977 7.534,18.981 7.804,18.992 13.780 C 19.001 18.198,18.992 20.080,18.961 20.224 C 18.905 20.484,18.724 20.731,18.486 20.871 L 18.300 20.980 12.000 20.980 L 5.700 20.980 5.516 20.872 C 5.415 20.813,5.284 20.700,5.225 20.623 C 4.985 20.308,5.000 20.888,5.000 12.022 C 5.000 2.888,4.974 3.632,5.304 3.303 C 5.620 2.986,5.322 3.004,10.160 3.012 L 14.460 3.020 14.620 3.107 M8.477 9.073 C 7.806 9.249,7.238 9.823,7.060 10.508 C 7.009 10.702,7.000 11.237,7.000 14.000 C 7.000 17.547,6.996 17.478,7.225 17.930 C 7.361 18.199,7.801 18.639,8.070 18.775 C 8.522 19.004,8.454 19.000,11.993 19.000 C 15.539 19.000,15.479 19.003,15.937 18.771 C 16.197 18.639,16.639 18.197,16.771 17.937 C 17.003 17.479,17.000 17.537,16.999 14.014 C 16.999 10.515,16.999 10.511,16.781 10.083 C 16.646 9.816,16.297 9.449,16.017 9.281 C 15.548 8.999,15.636 9.005,12.000 9.005 C 9.047 9.005,8.715 9.011,8.477 9.073 M15.000 12.000 L 15.000 13.000 12.000 13.000 L 9.000 13.000 9.000 12.000 L 9.000 11.000 12.000 11.000 L 15.000 11.000 15.000 12.000 M11.000 16.000 L 11.000 17.000 10.000 17.000 L 9.000 17.000 9.000 16.000 L 9.000 15.000 10.000 15.000 L 11.000 15.000 11.000 16.000 M15.000 16.000 L 15.000 17.000 14.000 17.000 L 13.000 17.000 13.000 16.000 L 13.000 15.000 14.000 15.000 L 15.000 15.000 15.000 16.000 " stroke="none" fill-rule="evenodd" fill="#000000"></path></svg>