<svg  xmlns="http://www.w3.org/2000/svg" width="24" height="24" viewBox="0 0 24 24" fill="none" stroke="currentColor" stroke-width="2" stroke-linecap="round" stroke-linejoin="round"><path d="M17.499 1.040 C 16.374 1.244,15.488 2.024,15.114 3.140 L 15.020 3.420 15.009 8.720 L 14.998 14.020 14.861 14.114 C 14.655 14.255,14.079 14.867,13.889 15.146 C 12.930 16.559,12.741 18.323,13.379 19.905 C 13.651 20.581,13.988 21.069,14.554 21.607 C 15.272 22.291,16.072 22.712,17.060 22.927 C 17.379 22.996,18.621 22.996,18.940 22.927 C 19.949 22.708,20.738 22.286,21.488 21.566 C 23.231 19.893,23.492 17.181,22.106 15.140 C 21.920 14.866,21.343 14.253,21.139 14.114 L 21.002 14.020 20.991 8.720 L 20.980 3.420 20.886 3.140 C 20.555 2.154,19.800 1.403,18.861 1.129 C 18.500 1.023,17.832 0.980,17.499 1.040 M6.667 2.065 C 6.406 2.145,6.153 2.401,6.061 2.678 C 5.938 3.048,5.976 3.183,6.496 4.230 C 6.887 5.016,6.949 5.167,6.878 5.148 C 6.831 5.136,6.605 5.094,6.376 5.055 C 6.024 4.995,5.929 4.991,5.770 5.033 C 5.011 5.232,4.751 6.153,5.299 6.701 C 5.517 6.919,5.641 6.957,6.880 7.178 C 7.441 7.278,7.941 7.370,7.990 7.381 C 8.061 7.397,8.166 7.572,8.480 8.201 L 8.880 9.000 8.380 10.000 L 7.880 11.000 6.941 11.000 L 6.001 11.000 5.342 10.122 C 4.617 9.158,4.512 9.063,4.119 9.017 C 3.567 8.952,3.077 9.332,3.013 9.875 C 2.979 10.159,3.058 10.399,3.287 10.713 L 3.481 10.980 2.611 11.002 C 2.064 11.015,1.698 11.041,1.627 11.072 C 1.025 11.331,0.817 12.065,1.198 12.591 C 1.263 12.681,1.403 12.805,1.508 12.867 C 1.700 12.980,1.702 12.980,2.591 13.000 L 3.481 13.020 3.287 13.287 C 3.058 13.601,2.979 13.841,3.013 14.125 C 3.077 14.663,3.562 15.043,4.112 14.987 C 4.501 14.947,4.615 14.845,5.342 13.878 L 6.001 13.000 6.941 13.000 L 7.880 13.000 8.380 14.000 L 8.880 15.000 8.480 15.799 C 8.167 16.424,8.061 16.603,7.990 16.620 C 7.941 16.632,7.407 16.731,6.804 16.840 C 5.623 17.054,5.435 17.116,5.241 17.351 C 4.844 17.832,4.966 18.549,5.497 18.861 C 5.781 19.027,6.116 19.026,6.869 18.859 C 6.947 18.841,6.899 18.960,6.494 19.774 C 6.141 20.485,6.025 20.758,6.010 20.910 C 5.941 21.625,6.643 22.171,7.329 21.938 C 7.676 21.819,7.768 21.697,8.279 20.681 L 8.751 19.743 8.960 20.161 C 9.083 20.407,9.232 20.640,9.321 20.725 C 9.488 20.884,9.773 21.000,10.000 21.000 C 10.406 21.000,10.811 20.707,10.939 20.322 C 11.065 19.943,11.031 19.829,10.421 18.604 L 9.872 17.500 10.245 16.750 C 10.464 16.310,10.642 16.000,10.675 16.000 C 10.962 16.000,11.388 15.678,11.505 15.373 C 11.588 15.155,11.595 14.881,11.522 14.665 C 11.422 14.365,11.086 14.082,10.756 14.020 C 10.618 13.994,10.608 13.978,10.119 12.997 L 9.621 12.000 10.120 11.000 L 10.619 10.000 11.399 9.998 C 12.240 9.996,12.370 9.973,12.619 9.783 C 12.696 9.725,12.808 9.592,12.869 9.489 C 12.964 9.328,12.980 9.256,12.980 9.000 C 12.980 8.746,12.963 8.672,12.872 8.516 C 12.813 8.415,12.698 8.282,12.618 8.221 C 12.372 8.034,12.181 8.000,11.363 8.000 L 10.618 8.000 10.245 7.250 L 9.872 6.500 10.421 5.396 C 11.026 4.181,11.065 4.055,10.944 3.693 C 10.717 3.008,9.838 2.781,9.322 3.274 C 9.232 3.360,9.084 3.591,8.960 3.839 L 8.751 4.257 8.279 3.319 C 7.768 2.303,7.676 2.181,7.329 2.062 C 7.105 1.986,6.921 1.987,6.667 2.065 M18.310 3.061 C 18.589 3.144,18.856 3.411,18.939 3.690 C 18.992 3.869,19.000 4.580,19.000 9.317 L 19.001 14.740 19.095 14.940 C 19.201 15.163,19.299 15.262,19.683 15.530 C 19.986 15.742,20.275 16.023,20.448 16.273 C 20.611 16.508,20.859 17.052,20.925 17.320 C 21.004 17.637,20.993 18.434,20.905 18.760 C 20.631 19.770,19.852 20.573,18.840 20.887 C 18.406 21.022,17.594 21.022,17.160 20.887 C 16.148 20.573,15.370 19.772,15.095 18.760 C 15.010 18.448,14.997 17.596,15.073 17.320 C 15.282 16.562,15.698 15.963,16.317 15.530 C 16.675 15.280,16.792 15.168,16.894 14.980 L 16.980 14.820 17.000 9.280 C 17.022 3.071,16.994 3.601,17.322 3.283 C 17.589 3.024,17.928 2.947,18.310 3.061 " stroke="none" fill-rule="evenodd" fill="#000000"></path></svg>