<svg  xmlns="http://www.w3.org/2000/svg" width="24" height="24" viewBox="0 0 24 24" fill="none" stroke="currentColor" stroke-width="2" stroke-linecap="round" stroke-linejoin="round"><path d="M5.499 1.043 C 4.389 1.232,3.483 2.028,3.115 3.140 C 3.024 3.416,3.022 3.448,3.009 5.533 C 2.994 7.917,2.992 7.903,3.283 8.193 C 3.510 8.420,3.692 8.498,4.000 8.498 C 4.308 8.498,4.490 8.420,4.716 8.194 C 4.999 7.912,5.000 7.900,5.000 5.780 C 5.000 3.613,5.001 3.605,5.303 3.303 C 5.621 2.986,5.423 3.000,9.447 3.000 L 13.000 3.000 13.000 5.132 C 13.000 7.443,13.004 7.494,13.225 7.930 C 13.361 8.199,13.801 8.639,14.070 8.775 C 14.506 8.996,14.557 9.000,16.868 9.000 L 19.000 9.000 19.000 14.554 C 19.000 19.144,18.990 20.139,18.945 20.290 C 18.872 20.533,18.707 20.740,18.484 20.872 L 18.300 20.980 16.980 21.000 C 15.723 21.019,15.652 21.024,15.500 21.106 C 15.146 21.298,14.952 21.615,14.952 22.003 C 14.952 22.292,15.059 22.536,15.267 22.724 C 15.576 23.003,15.617 23.008,17.184 22.991 C 18.508 22.976,18.594 22.971,18.860 22.884 C 19.842 22.562,20.581 21.817,20.886 20.840 L 20.980 20.540 20.980 13.980 L 20.980 7.420 20.868 7.060 C 20.728 6.613,20.498 6.179,20.219 5.840 C 19.855 5.397,16.159 1.747,15.910 1.585 C 15.591 1.378,15.236 1.218,14.860 1.111 L 14.540 1.021 10.120 1.015 C 7.689 1.011,5.609 1.024,5.499 1.043 M16.800 5.220 L 18.580 7.000 16.790 7.000 L 15.000 7.000 15.000 5.220 C 15.000 4.241,15.005 3.440,15.010 3.440 C 15.016 3.440,15.821 4.241,16.800 5.220 M8.400 9.137 C 7.746 9.319,7.232 9.845,7.060 10.508 C 6.971 10.847,6.971 15.153,7.060 15.492 C 7.153 15.852,7.310 16.118,7.596 16.404 C 7.882 16.690,8.148 16.847,8.508 16.940 C 8.852 17.030,13.154 17.029,13.499 16.939 C 14.325 16.723,14.920 15.983,14.920 15.169 C 14.920 14.833,14.802 14.274,14.613 13.720 C 13.926 11.700,12.277 10.056,10.261 9.381 C 9.434 9.105,8.811 9.023,8.400 9.137 M3.673 10.576 C 3.323 10.701,2.621 11.431,2.150 12.160 C 1.068 13.832,0.736 15.812,1.219 17.715 C 2.168 21.460,5.973 23.730,9.713 22.782 C 10.992 22.458,12.231 21.731,13.092 20.802 C 13.373 20.498,13.440 20.372,13.469 20.097 C 13.530 19.504,13.075 19.000,12.480 19.001 C 12.156 19.002,11.956 19.113,11.522 19.533 C 10.939 20.098,10.526 20.371,9.860 20.633 C 9.171 20.904,8.798 20.975,8.040 20.978 C 7.332 20.980,6.987 20.929,6.400 20.735 C 4.785 20.201,3.519 18.801,3.137 17.125 C 2.885 16.020,3.006 14.881,3.481 13.887 C 3.757 13.309,3.988 12.978,4.464 12.480 C 4.690 12.243,4.903 11.982,4.938 11.900 C 5.023 11.696,5.016 11.300,4.925 11.098 C 4.832 10.895,4.533 10.629,4.328 10.567 C 4.125 10.506,3.858 10.510,3.673 10.576 M9.600 11.266 C 10.813 11.669,11.916 12.630,12.473 13.771 C 12.642 14.117,12.815 14.597,12.861 14.850 L 12.889 15.000 10.944 15.000 L 9.000 15.000 9.000 13.056 L 9.000 11.111 9.150 11.139 C 9.232 11.154,9.435 11.211,9.600 11.266 " stroke="none" fill-rule="evenodd" fill="#000000"></path></svg>