<svg  xmlns="http://www.w3.org/2000/svg" width="24" height="24" viewBox="0 0 24 24" fill="none" stroke="currentColor" stroke-width="2" stroke-linecap="round" stroke-linejoin="round"><path d="M4.670 2.055 C 4.162 2.244,3.885 2.804,4.054 3.299 C 4.089 3.403,4.242 3.661,4.395 3.874 C 5.559 5.493,6.406 7.503,6.776 9.520 C 6.832 9.823,6.960 10.820,6.960 10.950 C 6.960 10.989,6.631 11.000,5.426 11.000 C 3.760 11.000,3.657 11.011,3.382 11.221 C 3.302 11.282,3.187 11.415,3.128 11.516 C 3.037 11.672,3.020 11.746,3.020 12.000 C 3.020 12.256,3.036 12.328,3.131 12.489 C 3.192 12.592,3.304 12.725,3.381 12.783 C 3.653 12.991,3.701 12.996,5.390 12.998 C 6.622 13.000,6.960 13.011,6.960 13.050 C 6.960 13.180,6.832 14.177,6.776 14.480 C 6.406 16.497,5.559 18.507,4.395 20.126 C 4.063 20.588,3.981 20.801,4.013 21.110 C 4.088 21.843,4.936 22.240,5.547 21.828 C 5.881 21.602,6.738 20.296,7.319 19.126 C 8.189 17.376,8.747 15.431,8.925 13.529 L 8.975 13.000 12.000 13.000 L 15.025 13.000 15.075 13.529 C 15.252 15.425,15.812 17.377,16.679 19.127 C 17.248 20.274,18.121 21.603,18.453 21.828 C 19.204 22.335,20.204 21.612,19.960 20.738 C 19.930 20.632,19.774 20.366,19.590 20.107 C 18.415 18.454,17.595 16.503,17.224 14.480 C 17.168 14.177,17.040 13.180,17.040 13.050 C 17.040 13.011,17.378 13.000,18.610 12.998 C 20.299 12.996,20.347 12.991,20.619 12.783 C 20.696 12.725,20.808 12.592,20.869 12.489 C 20.964 12.328,20.980 12.256,20.980 12.000 C 20.980 11.746,20.963 11.672,20.872 11.516 C 20.813 11.415,20.698 11.282,20.618 11.221 C 20.343 11.011,20.240 11.000,18.574 11.000 C 17.369 11.000,17.040 10.989,17.040 10.950 C 17.040 10.820,17.168 9.823,17.224 9.520 C 17.595 7.497,18.415 5.546,19.590 3.893 C 19.774 3.634,19.930 3.368,19.960 3.262 C 20.073 2.857,19.906 2.413,19.550 2.174 C 19.332 2.027,19.120 1.981,18.838 2.020 C 18.510 2.065,18.311 2.233,17.913 2.800 C 16.322 5.069,15.329 7.755,15.074 10.481 L 15.025 11.000 12.000 11.000 L 8.975 11.000 8.925 10.471 C 8.687 7.924,7.755 5.289,6.347 3.180 C 5.691 2.197,5.533 2.054,5.075 2.018 C 4.909 2.005,4.768 2.018,4.670 2.055 " stroke="none" fill-rule="evenodd" fill="#000000"></path></svg>