<svg  xmlns="http://www.w3.org/2000/svg" width="24" height="24" viewBox="0 0 24 24" fill="none" stroke="currentColor" stroke-width="2" stroke-linecap="round" stroke-linejoin="round"><path d="M4.499 2.043 C 3.383 2.230,2.461 3.048,2.114 4.160 L 2.020 4.460 2.020 12.000 L 2.020 19.540 2.114 19.840 C 2.419 20.816,3.153 21.557,4.140 21.885 C 4.418 21.978,4.435 21.978,6.768 21.991 C 8.321 22.000,9.169 21.990,9.272 21.962 C 9.498 21.901,9.738 21.711,9.867 21.492 C 9.964 21.327,9.980 21.257,9.980 21.000 C 9.980 20.746,9.963 20.672,9.872 20.516 C 9.633 20.110,9.352 20.000,8.554 20.000 L 8.000 20.000 8.000 17.001 L 8.000 14.002 10.810 13.991 C 13.602 13.980,13.621 13.979,13.780 13.894 C 14.498 13.506,14.498 12.494,13.780 12.106 C 13.621 12.020,13.604 12.020,10.720 12.009 C 7.466 11.996,7.469 11.996,7.002 12.271 C 6.707 12.446,6.359 12.806,6.219 13.083 C 5.998 13.519,6.000 13.479,6.000 16.872 L 6.000 20.007 5.350 19.993 C 4.728 19.981,4.692 19.975,4.516 19.872 C 4.415 19.813,4.284 19.700,4.225 19.623 C 3.986 19.309,4.000 19.795,4.000 12.022 C 4.000 4.006,3.975 4.631,4.303 4.303 C 4.554 4.052,4.751 4.000,5.447 4.000 L 6.000 4.000 6.000 5.632 C 6.000 7.399,6.010 7.507,6.225 7.930 C 6.361 8.199,6.801 8.639,7.070 8.775 C 7.526 9.006,7.410 9.000,11.458 8.998 C 14.463 8.997,15.209 8.986,15.330 8.943 C 15.551 8.864,15.744 8.702,15.869 8.489 C 15.964 8.328,15.980 8.256,15.980 8.000 C 15.980 7.746,15.963 7.672,15.872 7.516 C 15.813 7.415,15.698 7.282,15.618 7.221 C 15.322 6.995,15.410 7.000,11.554 7.000 L 8.000 7.000 8.000 5.499 L 8.000 3.998 11.730 4.009 L 15.460 4.020 15.620 4.107 C 15.822 4.218,19.808 8.211,19.900 8.396 C 19.943 8.482,19.979 8.689,19.997 8.956 C 20.029 9.427,20.098 9.609,20.326 9.828 C 20.507 10.001,20.732 10.088,21.000 10.088 C 21.405 10.088,21.724 9.881,21.905 9.500 C 22.080 9.129,22.019 8.271,21.774 7.680 C 21.558 7.158,21.359 6.935,19.132 4.720 C 16.905 2.505,16.823 2.433,16.274 2.211 C 15.750 2.000,15.834 2.003,10.060 2.006 C 7.112 2.008,4.609 2.025,4.499 2.043 M19.420 12.029 C 19.005 12.086,18.548 12.260,18.170 12.504 C 17.919 12.667,13.772 16.768,13.439 17.184 C 13.105 17.599,12.991 17.886,12.495 19.560 C 12.051 21.055,12.026 21.159,12.024 21.500 C 12.023 21.813,12.038 21.893,12.136 22.109 C 12.276 22.414,12.588 22.722,12.910 22.871 C 13.102 22.960,13.196 22.978,13.480 22.977 C 13.796 22.977,13.930 22.945,15.360 22.524 C 16.898 22.071,17.304 21.923,17.667 21.678 C 17.918 21.509,22.107 17.340,22.367 17.000 C 22.602 16.694,22.806 16.283,22.905 15.920 C 22.995 15.589,23.006 14.721,22.924 14.400 C 22.675 13.424,21.985 12.626,21.046 12.227 C 20.622 12.047,19.914 11.960,19.420 12.029 M20.353 14.116 C 20.594 14.239,20.733 14.374,20.861 14.607 C 21.018 14.893,21.027 15.321,20.884 15.606 C 20.767 15.836,16.566 20.050,16.380 20.122 C 16.219 20.185,14.265 20.759,14.253 20.747 C 14.241 20.734,14.815 18.777,14.877 18.620 C 14.931 18.484,19.058 14.325,19.286 14.179 C 19.366 14.127,19.492 14.066,19.566 14.043 C 19.757 13.985,20.170 14.023,20.353 14.116 " stroke="none" fill-rule="evenodd" fill="#000000"></path></svg>