<svg  xmlns="http://www.w3.org/2000/svg" width="24" height="24" viewBox="0 0 24 24" fill="none" stroke="currentColor" stroke-width="2" stroke-linecap="round" stroke-linejoin="round"><path d="M9.477 3.073 C 8.806 3.249,8.238 3.823,8.060 4.508 C 8.009 4.701,8.000 5.222,8.000 7.868 L 8.000 11.000 6.268 11.000 C 4.387 11.000,4.271 11.011,3.873 11.228 C 3.645 11.352,3.322 11.680,3.208 11.904 C 2.901 12.505,2.949 13.191,3.333 13.709 C 3.411 13.814,5.128 15.550,7.148 17.568 C 10.686 21.101,10.831 21.240,11.112 21.374 C 11.689 21.649,12.272 21.655,12.859 21.392 C 13.131 21.270,13.253 21.153,16.833 17.583 C 18.863 15.557,20.586 13.818,20.660 13.718 C 21.170 13.030,21.085 12.075,20.460 11.484 C 20.347 11.377,20.179 11.251,20.088 11.204 C 19.711 11.012,19.576 11.000,17.732 11.000 L 16.000 11.000 15.999 7.890 C 15.999 4.526,15.998 4.510,15.781 4.083 C 15.646 3.816,15.297 3.449,15.017 3.281 C 14.564 3.008,14.524 3.005,12.000 3.005 C 9.992 3.005,9.711 3.012,9.477 3.073 M14.000 8.132 C 14.000 11.535,13.997 11.479,14.225 11.930 C 14.361 12.199,14.801 12.639,15.070 12.775 C 15.486 12.986,15.619 13.000,17.158 13.000 L 18.580 13.000 15.290 16.290 L 12.000 19.580 8.710 16.290 L 5.420 13.000 6.842 13.000 C 8.381 13.000,8.514 12.986,8.930 12.775 C 9.196 12.640,9.638 12.200,9.771 11.937 C 10.003 11.480,10.000 11.526,10.000 8.124 L 10.000 5.000 12.000 5.000 L 14.000 5.000 14.000 8.132 " stroke="none" fill-rule="evenodd" fill="#000000"></path></svg>