<svg  xmlns="http://www.w3.org/2000/svg" width="24" height="24" viewBox="0 0 24 24" fill="none" stroke="currentColor" stroke-width="2" stroke-linecap="round" stroke-linejoin="round"><path d="M3.499 3.043 C 2.380 3.232,1.461 4.048,1.114 5.160 L 1.020 5.460 1.020 10.500 L 1.020 15.540 1.114 15.840 C 1.419 16.817,2.161 17.565,3.140 17.883 C 3.396 17.966,3.512 17.975,4.500 17.990 L 5.580 18.006 7.020 19.437 C 8.298 20.707,8.482 20.876,8.657 20.934 C 8.833 20.993,9.187 21.000,12.000 21.000 C 14.813 21.000,15.167 20.993,15.343 20.934 C 15.518 20.876,15.702 20.707,16.980 19.437 L 18.420 18.006 19.500 17.990 C 20.488 17.975,20.604 17.966,20.860 17.883 C 21.839 17.565,22.581 16.817,22.886 15.840 L 22.980 15.540 22.980 10.500 L 22.980 5.460 22.886 5.160 C 22.581 4.182,21.832 3.428,20.861 3.121 L 20.540 3.020 12.120 3.014 C 7.489 3.011,3.609 3.024,3.499 3.043 M20.310 5.061 C 20.589 5.144,20.856 5.411,20.939 5.690 C 20.992 5.868,21.000 6.494,21.000 10.501 C 21.000 15.501,21.008 15.318,20.779 15.618 C 20.718 15.698,20.585 15.813,20.484 15.872 L 20.300 15.980 19.020 16.000 C 17.866 16.018,17.724 16.028,17.580 16.097 C 17.478 16.145,16.900 16.690,15.999 17.587 L 14.578 19.000 12.000 19.000 L 9.422 19.000 8.001 17.587 C 7.100 16.690,6.522 16.145,6.420 16.097 C 6.276 16.028,6.134 16.018,4.980 16.000 L 3.700 15.980 3.516 15.872 C 3.303 15.747,3.141 15.550,3.058 15.316 C 2.969 15.061,2.971 5.992,3.061 5.690 C 3.140 5.421,3.412 5.143,3.673 5.063 C 3.833 5.014,5.030 5.005,11.983 5.003 C 19.144 5.000,20.130 5.007,20.310 5.061 M5.695 7.057 C 5.466 7.129,5.256 7.299,5.128 7.516 C 5.020 7.699,5.020 7.703,5.020 8.503 L 5.020 9.306 5.141 9.503 C 5.543 10.156,6.457 10.156,6.859 9.503 L 6.980 9.306 6.980 8.503 C 6.980 7.703,6.980 7.699,6.872 7.516 C 6.628 7.101,6.150 6.915,5.695 7.057 M9.695 7.057 C 9.466 7.129,9.256 7.299,9.128 7.516 C 9.020 7.699,9.020 7.703,9.020 8.503 L 9.020 9.306 9.141 9.503 C 9.543 10.156,10.457 10.156,10.859 9.503 L 10.980 9.306 10.980 8.503 C 10.980 7.703,10.980 7.699,10.872 7.516 C 10.628 7.101,10.150 6.915,9.695 7.057 M13.695 7.057 C 13.466 7.129,13.256 7.299,13.128 7.516 C 13.020 7.699,13.020 7.703,13.020 8.503 L 13.020 9.306 13.141 9.503 C 13.543 10.156,14.457 10.156,14.859 9.503 L 14.980 9.306 14.980 8.503 C 14.980 7.703,14.980 7.699,14.872 7.516 C 14.628 7.101,14.150 6.915,13.695 7.057 M17.695 7.057 C 17.466 7.129,17.256 7.299,17.128 7.516 C 17.020 7.699,17.020 7.703,17.020 8.503 L 17.020 9.306 17.141 9.503 C 17.543 10.156,18.457 10.156,18.859 9.503 L 18.980 9.306 18.980 8.503 C 18.980 7.703,18.980 7.699,18.872 7.516 C 18.628 7.101,18.150 6.915,17.695 7.057 " stroke="none" fill-rule="evenodd" fill="#000000"></path></svg>