<svg  xmlns="http://www.w3.org/2000/svg" width="24" height="24" viewBox="0 0 24 24" fill="none" stroke="currentColor" stroke-width="2" stroke-linecap="round" stroke-linejoin="round"><path d="M11.541 1.042 C 11.238 1.089,10.963 1.179,10.660 1.331 C 10.366 1.478,3.476 5.413,3.280 5.546 C 3.086 5.677,2.693 6.067,2.561 6.260 C 2.391 6.507,2.217 6.873,2.114 7.201 L 2.020 7.500 2.020 11.980 C 2.020 16.148,2.025 16.478,2.091 16.720 C 2.171 17.011,2.381 17.477,2.537 17.707 C 2.700 17.949,3.114 18.347,3.378 18.517 C 3.797 18.786,10.364 22.525,10.700 22.685 C 11.176 22.913,11.464 22.978,12.000 22.978 C 12.751 22.978,13.010 22.881,14.440 22.065 C 15.367 21.537,15.521 21.405,15.622 21.058 C 15.832 20.335,15.229 19.668,14.490 19.806 C 14.371 19.828,14.066 19.975,13.670 20.201 C 13.324 20.398,13.031 20.560,13.020 20.560 C 13.009 20.560,13.000 18.765,13.000 16.570 L 13.001 12.580 13.130 12.506 C 13.661 12.201,17.850 9.797,18.800 9.252 L 19.980 8.574 20.000 10.940 L 20.020 13.306 20.141 13.503 C 20.543 14.156,21.457 14.156,21.859 13.503 L 21.980 13.306 21.980 10.423 C 21.980 7.169,21.994 7.332,21.663 6.660 C 21.472 6.273,21.266 6.007,20.933 5.717 C 20.726 5.537,13.790 1.540,13.239 1.284 C 13.096 1.217,12.873 1.136,12.743 1.102 C 12.439 1.023,11.848 0.994,11.541 1.042 M12.289 3.053 C 12.437 3.100,18.957 6.802,18.958 6.840 C 18.959 6.870,16.547 8.240,16.493 8.240 C 16.461 8.240,10.215 4.689,9.547 4.291 C 9.503 4.265,11.494 3.124,11.700 3.057 C 11.898 2.993,12.094 2.992,12.289 3.053 M10.895 7.365 C 12.746 8.423,14.310 9.320,14.371 9.357 L 14.482 9.426 13.241 10.136 L 11.999 10.847 8.520 8.854 C 6.607 7.757,5.042 6.851,5.042 6.840 C 5.043 6.815,7.448 5.443,7.495 5.441 C 7.514 5.441,9.044 6.306,10.895 7.365 M9.630 11.794 L 11.000 12.580 11.000 16.573 C 11.000 18.776,10.985 20.561,10.966 20.553 C 10.947 20.546,9.467 19.703,7.677 18.680 C 5.445 17.405,4.374 16.771,4.271 16.665 C 3.990 16.376,4.000 16.543,4.000 12.335 L 4.000 8.564 6.130 9.786 C 7.302 10.458,8.876 11.362,9.630 11.794 M15.695 16.057 C 15.466 16.129,15.256 16.299,15.128 16.516 C 15.037 16.672,15.020 16.746,15.020 17.000 C 15.020 17.256,15.036 17.328,15.131 17.489 C 15.256 17.702,15.449 17.864,15.670 17.943 C 15.891 18.022,22.109 18.022,22.330 17.943 C 22.551 17.864,22.744 17.702,22.869 17.489 C 22.964 17.328,22.980 17.256,22.980 17.000 C 22.980 16.746,22.963 16.672,22.872 16.516 C 22.740 16.293,22.533 16.128,22.290 16.055 C 22.030 15.977,15.945 15.979,15.695 16.057 " stroke="none" fill-rule="evenodd" fill="#000000"></path></svg>