<svg  xmlns="http://www.w3.org/2000/svg" width="24" height="24" viewBox="0 0 24 24" fill="none" stroke="currentColor" stroke-width="2" stroke-linecap="round" stroke-linejoin="round"><path d="M16.525 1.060 C 15.797 1.265,15.247 1.814,15.058 2.525 C 15.014 2.690,15.001 3.043,15.000 4.050 L 15.000 5.359 14.850 5.301 C 14.282 5.081,13.270 4.965,12.520 5.033 C 11.667 5.111,11.124 5.260,10.380 5.621 C 9.772 5.916,9.419 6.159,8.860 6.670 C 8.060 7.400,6.441 9.074,6.163 9.457 C 5.102 10.924,4.752 12.715,5.186 14.457 C 5.241 14.676,5.302 14.886,5.323 14.925 C 5.358 14.990,5.277 14.995,3.970 15.009 C 2.667 15.023,2.566 15.029,2.350 15.110 C 1.871 15.289,1.423 15.679,1.223 16.092 C 0.840 16.884,0.960 17.700,1.560 18.380 C 1.692 18.529,1.848 18.752,1.908 18.876 C 2.012 19.091,2.017 19.128,2.020 19.760 C 2.023 20.333,2.035 20.451,2.110 20.654 C 2.359 21.326,2.930 21.821,3.620 21.961 C 3.775 21.992,4.000 22.000,4.260 21.984 C 4.887 21.943,5.139 22.032,5.660 22.478 C 6.502 23.199,7.647 23.169,8.400 22.404 C 8.684 22.115,8.883 21.760,8.956 21.408 C 8.983 21.279,9.000 20.694,9.000 19.918 L 9.000 18.641 9.150 18.699 C 10.192 19.103,11.725 19.087,12.969 18.659 C 13.764 18.385,14.436 17.973,15.152 17.320 C 15.933 16.607,17.561 14.923,17.837 14.542 C 18.897 13.080,19.248 11.285,18.814 9.543 C 18.759 9.324,18.697 9.112,18.676 9.073 C 18.639 9.003,18.694 9.000,19.917 9.000 C 20.693 9.000,21.279 8.983,21.408 8.956 C 21.941 8.845,22.550 8.383,22.772 7.920 C 23.160 7.111,23.044 6.304,22.440 5.620 C 22.308 5.471,22.151 5.247,22.090 5.124 C 21.984 4.908,21.980 4.877,21.978 4.240 C 21.977 3.665,21.965 3.550,21.890 3.346 C 21.551 2.431,20.757 1.952,19.698 2.023 C 19.156 2.059,18.886 1.975,18.494 1.647 C 18.094 1.313,17.995 1.250,17.693 1.136 C 17.347 1.006,16.837 0.973,16.525 1.060 M17.480 3.407 C 18.041 3.815,18.946 4.075,19.655 4.030 L 19.980 4.010 19.982 4.535 C 19.983 5.138,20.059 5.472,20.319 6.027 C 20.487 6.387,20.610 6.570,20.856 6.830 L 21.017 7.000 19.238 6.999 L 17.460 6.998 17.230 6.765 L 17.000 6.532 17.000 4.758 L 17.000 2.983 17.170 3.144 C 17.264 3.233,17.403 3.351,17.480 3.407 M13.000 11.735 L 13.000 16.471 12.770 16.580 C 12.271 16.819,11.573 17.000,11.155 17.000 L 11.000 17.000 11.000 12.266 L 11.000 7.533 11.310 7.389 C 11.480 7.310,11.710 7.216,11.820 7.180 C 12.038 7.108,12.611 7.010,12.850 7.004 L 13.000 7.000 13.000 11.735 M15.295 7.735 C 15.685 8.015,15.900 8.222,16.161 8.568 C 16.588 9.134,16.841 9.726,16.942 10.395 C 17.014 10.879,17.014 11.121,16.942 11.605 C 16.796 12.572,16.396 13.273,15.463 14.199 L 15.000 14.659 15.000 11.109 C 15.000 9.157,15.011 7.560,15.025 7.560 C 15.039 7.560,15.160 7.639,15.295 7.735 M8.982 16.431 C 8.948 16.465,8.423 16.067,8.178 15.822 C 7.574 15.218,7.186 14.449,7.058 13.605 C 6.986 13.121,6.986 12.879,7.058 12.395 C 7.153 11.771,7.383 11.201,7.749 10.684 C 7.851 10.539,8.170 10.180,8.458 9.887 L 8.980 9.354 8.990 12.883 C 8.996 14.825,8.992 16.421,8.982 16.431 M6.765 17.230 L 6.998 17.460 6.999 19.233 L 7.000 21.005 6.783 20.814 C 6.146 20.252,5.191 19.920,4.360 19.972 L 4.020 19.993 4.018 19.467 C 4.017 19.044,3.999 18.877,3.927 18.624 C 3.762 18.044,3.480 17.519,3.146 17.170 L 2.983 17.000 4.758 17.000 L 6.532 17.000 6.765 17.230 " stroke="none" fill-rule="evenodd" fill="#000000"></path></svg>