<svg  xmlns="http://www.w3.org/2000/svg" width="24" height="24" viewBox="0 0 24 24" fill="none" stroke="currentColor" stroke-width="2" stroke-linecap="round" stroke-linejoin="round"><path d="M4.420 2.058 C 3.738 2.184,3.107 2.574,2.638 3.159 C 2.387 3.471,2.228 3.783,2.111 4.188 C 1.980 4.642,1.981 5.416,2.113 5.840 C 2.353 6.613,2.933 7.323,3.599 7.659 C 3.800 7.761,4.172 7.885,4.920 8.101 C 5.514 8.272,5.741 8.415,5.885 8.707 L 5.980 8.900 5.991 12.250 C 5.997 14.093,5.991 15.600,5.979 15.600 C 5.966 15.600,5.521 15.726,4.988 15.881 C 3.690 16.257,3.385 16.405,2.899 16.895 C 2.360 17.439,2.070 18.057,2.015 18.775 C 1.971 19.348,2.137 20.053,2.431 20.540 C 2.729 21.035,3.314 21.545,3.831 21.761 C 4.438 22.016,3.996 22.003,12.140 21.991 C 20.438 21.978,19.681 22.007,20.340 21.681 C 21.093 21.308,21.673 20.596,21.905 19.760 C 22.018 19.355,22.009 18.552,21.887 18.160 C 21.637 17.353,21.055 16.660,20.347 16.324 C 20.085 16.199,19.887 16.133,19.063 15.895 C 18.467 15.722,18.278 15.603,18.122 15.301 L 18.020 15.102 18.009 11.758 L 17.999 8.413 18.869 8.161 C 19.348 8.022,19.866 7.865,20.020 7.811 C 21.311 7.356,22.171 5.936,21.963 4.603 C 21.773 3.381,20.966 2.459,19.764 2.091 C 19.556 2.027,19.011 2.021,12.120 2.014 C 6.193 2.008,4.644 2.017,4.420 2.058 M19.435 4.113 C 19.790 4.303,19.971 4.601,19.973 5.000 C 19.975 5.304,19.883 5.515,19.654 5.738 C 19.486 5.901,19.457 5.911,17.700 6.417 C 17.040 6.606,14.592 7.316,12.260 7.993 L 8.020 9.224 7.992 8.937 C 7.918 8.166,7.634 7.563,7.088 7.020 C 6.651 6.585,6.247 6.394,5.008 6.038 C 4.488 5.889,4.295 5.769,4.133 5.492 C 4.036 5.327,4.020 5.257,4.020 5.000 C 4.020 4.744,4.036 4.672,4.131 4.511 C 4.256 4.298,4.448 4.136,4.670 4.057 C 4.794 4.012,6.078 4.005,12.040 4.012 L 19.260 4.020 19.435 4.113 M15.990 10.848 L 15.980 12.696 12.020 13.846 C 9.842 14.479,8.046 14.997,8.030 14.998 C 8.013 14.999,8.004 14.169,8.010 13.153 L 8.020 11.305 11.980 10.155 C 14.158 9.522,15.954 9.004,15.970 9.002 C 15.987 9.001,15.996 9.831,15.990 10.848 M16.100 15.599 C 16.325 16.470,17.001 17.258,17.798 17.582 C 17.927 17.635,18.344 17.769,18.726 17.882 C 19.108 17.994,19.480 18.123,19.554 18.169 C 19.838 18.344,20.029 18.753,19.990 19.101 C 19.947 19.486,19.640 19.861,19.289 19.958 C 19.189 19.986,16.794 20.000,11.997 20.000 C 4.071 20.000,4.636 20.020,4.343 19.735 C 3.999 19.401,3.920 18.930,4.140 18.526 C 4.331 18.177,4.440 18.125,5.847 17.718 C 6.536 17.519,7.316 17.292,7.580 17.215 C 7.844 17.137,9.842 16.556,12.020 15.925 L 15.980 14.776 16.008 15.064 C 16.023 15.221,16.064 15.462,16.100 15.599 " stroke="none" fill-rule="evenodd" fill="#000000"></path></svg>