<svg  xmlns="http://www.w3.org/2000/svg" width="24" height="24" viewBox="0 0 24 24" fill="none" stroke="currentColor" stroke-width="2" stroke-linecap="round" stroke-linejoin="round"><path d="M15.873 1.060 C 14.275 1.363,13.102 2.693,13.014 4.300 C 12.991 4.713,12.995 4.739,13.242 5.854 L 13.330 6.248 12.269 7.314 C 11.600 7.987,11.174 8.446,11.115 8.560 C 10.975 8.829,10.981 9.303,11.128 9.584 C 11.247 9.810,11.465 10.021,11.669 10.106 C 11.743 10.137,12.163 10.250,12.603 10.356 C 13.043 10.462,13.413 10.560,13.427 10.573 C 13.440 10.587,13.538 10.957,13.644 11.397 C 13.750 11.837,13.863 12.257,13.894 12.331 C 14.113 12.856,14.780 13.127,15.340 12.919 C 15.561 12.836,15.664 12.746,16.664 11.753 L 17.747 10.676 18.124 10.756 C 18.331 10.800,18.671 10.873,18.880 10.917 C 19.688 11.091,20.469 10.963,21.240 10.531 C 21.709 10.268,22.268 9.709,22.531 9.240 C 23.311 7.847,23.099 6.184,22.000 5.078 C 21.476 4.550,20.925 4.236,20.277 4.095 L 19.974 4.029 19.924 3.789 C 19.660 2.509,18.650 1.449,17.378 1.118 C 16.959 1.009,16.280 0.983,15.873 1.060 M7.667 3.065 C 7.262 3.189,6.968 3.649,7.010 4.090 C 7.038 4.380,8.071 6.467,8.303 6.702 C 8.687 7.093,9.310 7.092,9.702 6.700 C 9.910 6.492,10.018 6.197,9.990 5.910 C 9.962 5.620,8.929 3.533,8.697 3.298 C 8.427 3.023,8.067 2.942,7.667 3.065 M17.119 3.143 C 17.240 3.198,17.433 3.336,17.547 3.448 C 17.827 3.723,17.945 3.998,17.995 4.491 C 18.045 4.976,18.167 5.262,18.448 5.547 C 18.725 5.829,19.017 5.955,19.511 6.005 C 20.002 6.055,20.278 6.174,20.552 6.453 C 20.665 6.568,20.805 6.767,20.866 6.900 C 20.961 7.106,20.977 7.192,20.977 7.500 C 20.977 7.808,20.961 7.894,20.866 8.100 C 20.722 8.415,20.414 8.725,20.110 8.861 C 19.748 9.024,19.508 9.028,18.921 8.883 C 17.903 8.632,17.410 8.638,16.843 8.908 C 16.593 9.027,16.456 9.138,15.978 9.606 L 15.410 10.162 15.322 9.811 C 15.214 9.378,15.143 9.226,14.971 9.054 C 14.791 8.874,14.594 8.779,14.183 8.676 L 13.838 8.590 14.394 8.022 C 14.862 7.544,14.973 7.406,15.095 7.154 C 15.375 6.571,15.379 6.183,15.119 5.074 C 15.020 4.654,14.999 4.494,15.020 4.320 C 15.092 3.715,15.589 3.163,16.174 3.039 C 16.441 2.982,16.870 3.030,17.119 3.143 M3.643 7.066 C 3.288 7.197,3.000 7.615,3.000 8.000 C 3.000 8.242,3.119 8.521,3.298 8.697 C 3.533 8.929,5.620 9.962,5.910 9.990 C 6.347 10.032,6.795 9.748,6.934 9.340 C 7.017 9.095,7.018 8.906,6.935 8.664 C 6.817 8.317,6.679 8.220,5.440 7.602 C 4.425 7.095,4.274 7.032,4.060 7.017 C 3.902 7.007,3.759 7.024,3.643 7.066 M8.733 11.055 C 8.641 11.085,8.506 11.147,8.433 11.193 C 8.360 11.239,7.841 11.736,7.280 12.298 C 6.719 12.860,6.235 13.320,6.204 13.320 C 6.173 13.320,5.876 13.254,5.544 13.172 C 5.017 13.043,4.879 13.024,4.460 13.025 C 4.145 13.025,3.886 13.048,3.707 13.093 C 2.454 13.403,1.514 14.299,1.133 15.548 C 1.038 15.863,1.026 15.963,1.026 16.500 C 1.026 17.037,1.038 17.137,1.133 17.452 C 1.513 18.697,2.436 19.587,3.664 19.891 L 4.020 19.980 4.109 20.336 C 4.480 21.832,5.765 22.900,7.300 22.987 C 8.322 23.046,9.223 22.698,9.960 21.960 C 10.516 21.404,10.836 20.786,10.959 20.031 C 11.042 19.519,11.022 19.339,10.758 18.146 L 10.671 17.753 11.750 16.666 C 12.746 15.664,12.836 15.561,12.919 15.340 C 13.120 14.799,12.893 14.190,12.397 13.938 C 12.291 13.885,11.848 13.758,11.412 13.656 C 10.976 13.555,10.600 13.451,10.575 13.426 C 10.550 13.401,10.464 13.092,10.383 12.740 C 10.171 11.807,10.102 11.601,9.946 11.418 C 9.656 11.079,9.136 10.923,8.733 11.055 M8.904 14.811 C 9.084 15.068,9.339 15.218,9.777 15.323 L 10.157 15.415 9.604 15.980 C 9.138 16.456,9.027 16.594,8.905 16.846 C 8.626 17.428,8.621 17.874,8.884 18.936 C 8.980 19.324,8.999 19.469,8.979 19.666 C 8.929 20.169,8.582 20.643,8.100 20.868 C 7.893 20.965,7.810 20.980,7.500 20.980 C 7.190 20.980,7.107 20.965,6.900 20.868 C 6.380 20.626,6.060 20.156,6.016 19.575 C 5.945 18.620,5.445 18.098,4.511 18.004 C 4.017 17.955,3.726 17.830,3.448 17.547 C 3.335 17.432,3.195 17.233,3.134 17.100 C 3.039 16.894,3.023 16.808,3.023 16.500 C 3.023 16.192,3.039 16.106,3.134 15.900 C 3.350 15.430,3.823 15.078,4.315 15.021 C 4.497 14.999,4.650 15.019,5.064 15.116 C 5.897 15.312,6.156 15.343,6.527 15.289 C 7.084 15.207,7.361 15.042,8.017 14.398 L 8.580 13.847 8.683 14.245 C 8.747 14.491,8.831 14.706,8.904 14.811 M17.643 14.066 C 17.288 14.197,17.000 14.615,17.000 15.000 C 17.000 15.242,17.119 15.521,17.298 15.697 C 17.533 15.929,19.620 16.962,19.910 16.990 C 20.347 17.032,20.795 16.748,20.934 16.340 C 21.017 16.095,21.018 15.906,20.935 15.664 C 20.817 15.317,20.679 15.220,19.440 14.602 C 18.425 14.095,18.274 14.032,18.060 14.017 C 17.902 14.007,17.759 14.024,17.643 14.066 M14.667 17.065 C 14.262 17.189,13.968 17.649,14.010 18.090 C 14.038 18.380,15.071 20.467,15.303 20.702 C 15.687 21.093,16.310 21.092,16.702 20.700 C 16.910 20.492,17.018 20.197,16.990 19.910 C 16.962 19.620,15.929 17.533,15.697 17.298 C 15.427 17.023,15.067 16.942,14.667 17.065 " stroke="none" fill-rule="evenodd" fill="#000000"></path></svg>