<svg  xmlns="http://www.w3.org/2000/svg" width="24" height="24" viewBox="0 0 24 24" fill="none" stroke="currentColor" stroke-width="2" stroke-linecap="round" stroke-linejoin="round"><path d="M1.670 1.061 C 1.448 1.142,1.250 1.309,1.128 1.516 C 1.037 1.672,1.020 1.746,1.020 2.000 C 1.020 2.254,1.036 2.327,1.127 2.480 C 1.189 2.582,2.696 4.120,4.617 6.040 L 8.000 9.420 8.000 10.163 C 8.000 11.383,8.004 11.377,6.579 12.092 C 5.410 12.678,5.181 12.823,4.828 13.197 C 4.507 13.538,4.284 13.914,4.138 14.360 C 4.037 14.670,4.025 14.766,4.009 15.443 C 3.990 16.274,4.019 16.490,4.202 16.877 C 4.348 17.186,4.771 17.623,5.070 17.775 C 5.515 18.000,5.511 18.000,8.367 18.000 L 10.997 18.000 11.009 20.153 L 11.020 22.306 11.141 22.503 C 11.543 23.156,12.457 23.156,12.859 22.503 L 12.980 22.306 12.991 20.153 L 13.003 18.000 14.791 18.000 L 16.580 18.000 18.960 20.383 C 20.282 21.706,21.420 22.813,21.520 22.873 C 21.673 22.964,21.746 22.980,22.000 22.980 C 22.257 22.980,22.327 22.964,22.492 22.867 C 22.968 22.587,23.139 21.967,22.865 21.508 C 22.810 21.416,18.215 16.793,12.653 11.235 C 3.300 1.889,2.525 1.125,2.343 1.065 C 2.107 0.987,1.874 0.986,1.670 1.061 M7.589 1.057 C 7.362 1.139,7.179 1.278,7.062 1.458 C 6.784 1.887,6.845 2.363,7.225 2.731 C 7.516 3.014,7.269 3.000,11.920 3.000 C 16.650 3.000,16.376 2.983,16.697 3.303 C 16.970 3.577,17.057 3.919,16.945 4.290 C 16.812 4.731,16.510 4.948,15.952 5.001 C 15.747 5.021,15.489 5.065,15.377 5.098 C 14.946 5.227,14.428 5.669,14.216 6.088 C 14.016 6.483,14.000 6.632,14.000 8.138 C 14.001 9.529,14.002 9.542,14.095 9.740 C 14.276 10.121,14.595 10.328,15.000 10.328 C 15.405 10.328,15.724 10.121,15.905 9.740 C 15.998 9.543,15.999 9.522,16.000 8.276 L 16.000 7.011 16.302 6.984 C 17.489 6.876,18.518 6.023,18.886 4.840 C 19.021 4.406,19.021 3.594,18.886 3.160 C 18.582 2.183,17.832 1.428,16.861 1.121 L 16.540 1.020 12.140 1.011 C 8.506 1.004,7.714 1.012,7.589 1.057 M12.260 13.680 L 14.580 16.000 10.290 16.000 L 6.000 16.000 6.000 15.547 C 6.000 14.666,6.069 14.586,7.410 13.916 C 7.943 13.649,8.499 13.352,8.645 13.256 C 9.194 12.893,9.663 12.274,9.846 11.670 C 9.898 11.500,9.940 11.361,9.940 11.360 C 9.940 11.360,10.984 12.404,12.260 13.680 " stroke="none" fill-rule="evenodd" fill="#000000"></path></svg>