<svg  xmlns="http://www.w3.org/2000/svg" width="24" height="24" viewBox="0 0 24 24" fill="none" stroke="currentColor" stroke-width="2" stroke-linecap="round" stroke-linejoin="round"><path d="M16.800 1.042 C 16.564 1.086,4.928 6.898,4.669 7.102 C 4.280 7.408,4.000 7.993,4.000 8.500 C 4.000 9.006,4.290 9.610,4.674 9.905 C 4.776 9.984,7.591 11.414,10.929 13.084 L 16.998 16.119 17.009 19.213 L 17.020 22.306 17.141 22.503 C 17.543 23.156,18.457 23.156,18.859 22.503 L 18.980 22.306 18.991 12.463 C 18.998 5.863,18.988 2.556,18.961 2.427 C 18.854 1.927,18.504 1.466,18.051 1.230 C 17.638 1.015,17.256 0.958,16.800 1.042 M17.000 8.500 L 17.000 13.880 11.640 11.200 C 8.692 9.726,6.280 8.511,6.280 8.500 C 6.280 8.485,16.937 3.134,16.990 3.122 C 16.995 3.121,17.000 5.541,17.000 8.500 " stroke="none" fill-rule="evenodd" fill="#000000"></path></svg>