<svg  xmlns="http://www.w3.org/2000/svg" width="24" height="24" viewBox="0 0 24 24" fill="none" stroke="currentColor" stroke-width="2" stroke-linecap="round" stroke-linejoin="round"><path d="M5.499 1.043 C 4.379 1.234,3.461 2.048,3.114 3.160 L 3.020 3.460 3.020 12.000 L 3.020 20.540 3.114 20.840 C 3.422 21.827,4.173 22.578,5.160 22.886 L 5.460 22.980 12.000 22.980 L 18.540 22.980 18.840 22.886 C 19.827 22.578,20.578 21.827,20.886 20.840 L 20.980 20.540 20.980 13.980 L 20.980 7.420 20.868 7.060 C 20.728 6.613,20.498 6.179,20.219 5.840 C 19.855 5.397,16.159 1.747,15.910 1.585 C 15.591 1.378,15.236 1.218,14.860 1.111 L 14.540 1.021 10.120 1.015 C 7.689 1.011,5.609 1.024,5.499 1.043 M13.000 5.132 C 13.000 7.443,13.004 7.494,13.225 7.930 C 13.361 8.199,13.801 8.639,14.070 8.775 C 14.506 8.996,14.557 9.000,16.868 9.000 L 19.000 9.000 19.000 14.554 C 19.000 19.144,18.990 20.139,18.945 20.290 C 18.872 20.533,18.707 20.740,18.484 20.872 L 18.300 20.980 12.000 20.980 L 5.700 20.980 5.516 20.872 C 5.415 20.813,5.284 20.700,5.225 20.623 C 4.985 20.308,5.000 20.888,5.000 12.022 C 5.000 2.888,4.974 3.632,5.304 3.303 C 5.615 2.991,5.409 3.006,9.430 3.003 L 13.000 3.000 13.000 5.132 M16.800 5.220 L 18.580 7.000 16.790 7.000 L 15.000 7.000 15.000 5.220 C 15.000 4.241,15.005 3.440,15.010 3.440 C 15.016 3.440,15.821 4.241,16.800 5.220 M7.695 11.057 C 7.466 11.129,7.256 11.299,7.128 11.516 C 7.036 11.672,7.020 11.745,7.021 12.000 C 7.021 12.213,7.043 12.340,7.096 12.440 C 7.136 12.517,7.486 12.900,7.873 13.290 L 8.577 14.000 7.873 14.710 C 7.486 15.101,7.139 15.481,7.101 15.555 C 6.872 16.008,7.056 16.601,7.508 16.867 C 7.673 16.964,7.742 16.980,8.000 16.979 C 8.213 16.979,8.341 16.957,8.440 16.905 C 8.633 16.803,10.740 14.703,10.873 14.480 C 10.964 14.328,10.980 14.254,10.980 14.000 C 10.980 13.747,10.963 13.672,10.873 13.520 C 10.815 13.421,10.266 12.842,9.653 12.234 C 8.610 11.198,8.526 11.125,8.323 11.064 C 8.066 10.988,7.920 10.987,7.695 11.057 M11.695 17.057 C 11.466 17.129,11.256 17.299,11.128 17.516 C 11.037 17.672,11.020 17.746,11.020 18.000 C 11.020 18.256,11.036 18.328,11.131 18.489 C 11.256 18.702,11.449 18.864,11.670 18.943 C 11.889 19.021,16.111 19.021,16.330 18.943 C 16.551 18.864,16.744 18.702,16.869 18.489 C 16.964 18.328,16.980 18.256,16.980 18.000 C 16.980 17.746,16.963 17.672,16.872 17.516 C 16.740 17.293,16.533 17.128,16.290 17.055 C 16.033 16.978,11.943 16.979,11.695 17.057 " stroke="none" fill-rule="evenodd" fill="#000000"></path></svg>