<svg  xmlns="http://www.w3.org/2000/svg" width="24" height="24" viewBox="0 0 24 24" fill="none" stroke="currentColor" stroke-width="2" stroke-linecap="round" stroke-linejoin="round"><path d="M7.695 1.057 C 7.466 1.129,7.256 1.299,7.128 1.516 C 7.025 1.692,7.019 1.728,7.007 2.347 L 6.993 2.993 5.727 3.009 C 4.518 3.025,4.445 3.030,4.139 3.124 C 3.176 3.420,2.420 4.180,2.114 5.160 L 2.020 5.460 2.020 13.000 L 2.020 20.540 2.114 20.840 C 2.418 21.816,3.149 22.554,4.140 22.886 L 4.420 22.980 8.440 22.992 C 11.457 23.001,12.503 22.992,12.632 22.956 C 12.868 22.891,13.175 22.607,13.265 22.373 C 13.451 21.885,13.250 21.357,12.783 21.107 L 12.620 21.020 8.660 21.000 L 4.700 20.980 4.516 20.872 C 4.415 20.813,4.284 20.700,4.225 20.623 C 3.989 20.314,4.000 20.557,4.000 15.575 L 4.000 11.000 12.000 11.000 L 20.000 11.000 20.000 11.253 C 20.000 11.601,20.093 11.846,20.304 12.058 C 20.710 12.464,21.316 12.452,21.726 12.029 C 22.013 11.733,22.005 11.848,21.991 8.455 L 21.979 5.420 21.886 5.140 C 21.558 4.158,20.813 3.417,19.861 3.124 C 19.555 3.030,19.482 3.025,18.273 3.009 L 17.007 2.993 16.993 2.347 C 16.981 1.726,16.976 1.693,16.871 1.514 C 16.479 0.848,15.521 0.848,15.129 1.514 C 15.024 1.693,15.019 1.726,15.007 2.350 L 14.993 3.000 12.000 3.000 L 9.007 3.000 8.993 2.350 C 8.981 1.728,8.975 1.692,8.872 1.516 C 8.628 1.101,8.150 0.915,7.695 1.057 M7.007 5.653 C 7.020 6.300,7.021 6.308,7.141 6.503 C 7.543 7.156,8.457 7.156,8.859 6.503 C 8.979 6.308,8.980 6.300,8.993 5.653 L 9.007 5.000 12.000 5.000 L 14.993 5.000 15.007 5.653 C 15.020 6.300,15.021 6.308,15.141 6.503 C 15.543 7.156,16.457 7.156,16.859 6.503 C 16.979 6.308,16.980 6.300,16.993 5.653 L 17.007 5.000 18.056 5.000 C 19.297 5.000,19.416 5.022,19.697 5.303 C 19.993 5.599,20.000 5.650,20.000 7.447 L 20.000 9.000 12.000 9.000 L 4.000 9.000 4.000 7.447 C 4.000 5.649,4.007 5.599,4.304 5.303 C 4.582 5.024,4.681 5.006,5.927 5.003 L 6.993 5.000 7.007 5.653 M17.695 13.057 C 17.466 13.129,17.256 13.299,17.128 13.516 L 17.020 13.700 17.009 16.637 L 16.998 19.574 15.769 18.353 C 14.688 17.279,14.516 17.124,14.343 17.066 C 13.863 16.905,13.382 17.084,13.128 17.516 C 13.036 17.672,13.020 17.745,13.021 18.000 C 13.021 18.212,13.043 18.341,13.095 18.440 C 13.135 18.517,14.116 19.531,15.274 20.694 C 17.567 22.996,17.571 22.999,18.000 22.999 C 18.429 22.999,18.433 22.996,20.726 20.694 C 21.884 19.531,22.865 18.517,22.905 18.440 C 22.957 18.341,22.979 18.212,22.979 18.000 C 22.980 17.745,22.964 17.672,22.872 17.516 C 22.618 17.084,22.137 16.905,21.657 17.066 C 21.484 17.124,21.312 17.279,20.231 18.353 L 19.002 19.574 18.991 16.637 L 18.980 13.700 18.872 13.516 C 18.628 13.101,18.150 12.915,17.695 13.057 " stroke="none" fill-rule="evenodd" fill="#000000"></path></svg>