<svg  xmlns="http://www.w3.org/2000/svg" width="24" height="24" viewBox="0 0 24 24" fill="none" stroke="currentColor" stroke-width="2" stroke-linecap="round" stroke-linejoin="round"><path d="M10.720 1.025 C 6.326 1.241,3.049 2.408,2.246 4.040 C 2.155 4.227,2.062 4.477,2.040 4.595 C 1.985 4.890,1.985 19.110,2.040 19.405 C 2.184 20.188,2.926 20.980,4.036 21.538 C 5.755 22.401,8.345 22.915,11.341 22.987 C 12.261 23.009,12.407 23.004,12.589 22.944 C 12.812 22.870,13.073 22.647,13.181 22.438 C 13.357 22.098,13.274 21.594,12.997 21.317 C 12.709 21.029,12.698 21.027,11.513 20.995 C 9.899 20.951,8.671 20.820,7.420 20.557 C 5.806 20.218,4.590 19.709,4.123 19.178 L 4.000 19.037 4.000 16.778 L 4.000 14.519 4.230 14.634 C 5.305 15.170,7.324 15.671,9.160 15.858 C 10.010 15.944,11.278 16.012,11.653 15.992 C 12.033 15.971,12.239 15.883,12.439 15.655 C 12.619 15.450,12.680 15.285,12.680 15.000 C 12.680 14.714,12.604 14.510,12.428 14.326 C 12.172 14.060,12.061 14.029,11.220 13.995 C 9.045 13.907,7.490 13.667,6.043 13.194 C 5.136 12.898,4.575 12.612,4.213 12.262 L 4.000 12.055 4.000 9.787 L 4.000 7.519 4.207 7.624 C 5.101 8.076,6.759 8.532,8.340 8.758 C 9.603 8.940,10.221 8.976,12.000 8.976 C 13.779 8.976,14.397 8.940,15.660 8.758 C 17.241 8.532,18.899 8.076,19.793 7.624 L 20.000 7.519 20.000 9.709 L 20.001 11.900 20.095 12.102 C 20.373 12.700,21.142 12.877,21.634 12.456 C 21.727 12.376,21.843 12.237,21.891 12.146 L 21.980 11.980 21.991 8.404 C 21.998 6.122,21.987 4.746,21.961 4.604 C 21.939 4.481,21.846 4.227,21.754 4.040 C 21.020 2.550,18.252 1.449,14.360 1.099 C 13.694 1.040,11.380 0.992,10.720 1.025 M13.380 3.041 C 15.749 3.169,17.637 3.567,18.985 4.221 C 19.391 4.418,19.565 4.529,19.755 4.709 C 19.890 4.837,20.000 4.964,20.000 4.991 C 20.000 5.063,19.730 5.350,19.535 5.483 C 18.579 6.141,16.663 6.664,14.320 6.907 C 13.381 7.004,10.619 7.004,9.680 6.907 C 7.374 6.668,5.533 6.174,4.540 5.529 C 4.292 5.369,4.000 5.077,4.000 4.991 C 4.000 4.964,4.110 4.837,4.245 4.709 C 4.822 4.160,6.409 3.585,8.120 3.305 C 9.742 3.039,11.616 2.945,13.380 3.041 M17.358 14.061 C 16.230 14.237,15.143 14.974,14.569 15.953 C 13.320 18.083,14.233 20.785,16.512 21.704 C 17.473 22.091,18.529 22.090,19.494 21.701 C 19.684 21.625,19.881 21.535,19.932 21.502 C 20.020 21.444,20.041 21.460,20.681 22.104 C 21.044 22.468,21.416 22.810,21.508 22.865 C 21.967 23.139,22.587 22.968,22.867 22.492 C 22.964 22.327,22.980 22.257,22.980 22.000 C 22.980 21.589,22.910 21.484,22.104 20.681 C 21.460 20.041,21.444 20.020,21.502 19.932 C 21.627 19.740,21.844 19.132,21.921 18.757 C 22.070 18.024,21.994 17.230,21.705 16.516 C 21.172 15.197,20.001 14.269,18.605 14.058 C 18.144 13.989,17.816 13.990,17.358 14.061 M18.523 16.073 C 19.262 16.266,19.850 16.924,19.967 17.690 C 20.067 18.343,19.873 18.933,19.403 19.404 C 19.002 19.807,18.547 20.000,18.000 20.000 C 17.485 20.000,17.038 19.822,16.653 19.465 C 15.323 18.229,16.189 16.005,18.000 16.005 C 18.143 16.005,18.378 16.036,18.523 16.073 " stroke="none" fill-rule="evenodd" fill="#000000"></path></svg>