<svg  xmlns="http://www.w3.org/2000/svg" width="24" height="24" viewBox="0 0 24 24" fill="none" stroke="currentColor" stroke-width="2" stroke-linecap="round" stroke-linejoin="round"><path d="M11.380 2.043 C 8.791 2.298,6.646 4.250,6.123 6.826 C 6.077 7.050,6.040 7.277,6.040 7.331 C 6.040 7.408,5.955 7.499,5.665 7.735 C 4.113 8.996,3.148 10.853,2.957 12.945 C 2.819 14.459,3.282 16.270,4.147 17.596 C 4.899 18.749,5.968 19.684,7.220 20.283 C 8.229 20.766,9.029 20.955,10.207 20.988 L 10.993 21.011 11.007 21.659 C 11.020 22.300,11.021 22.309,11.141 22.503 C 11.543 23.156,12.457 23.156,12.859 22.503 C 12.979 22.309,12.980 22.300,12.993 21.658 L 13.007 21.009 13.933 20.990 C 14.970 20.969,15.388 20.906,16.180 20.653 C 18.270 19.987,19.989 18.266,20.660 16.167 C 20.931 15.321,20.979 14.999,20.978 14.020 C 20.978 12.959,20.900 12.483,20.583 11.598 C 20.151 10.396,19.241 9.168,18.236 8.427 L 18.011 8.262 17.989 7.761 C 17.920 6.242,17.331 4.886,16.269 3.805 C 14.978 2.490,13.230 1.860,11.380 2.043 M12.605 4.058 C 13.855 4.247,14.964 5.042,15.536 6.160 C 15.884 6.840,15.999 7.389,16.000 8.365 C 16.000 9.232,16.066 9.369,16.680 9.780 C 17.388 10.255,17.776 10.637,18.182 11.260 C 18.493 11.739,18.694 12.183,18.842 12.720 C 19.049 13.471,19.052 14.464,18.850 15.242 C 18.710 15.780,18.418 16.425,18.114 16.866 C 17.554 17.679,16.562 18.425,15.624 18.740 C 15.051 18.932,14.820 18.965,13.890 18.988 L 13.000 19.010 13.000 18.216 L 13.000 17.422 14.158 16.261 C 15.037 15.379,15.336 15.055,15.398 14.914 C 15.695 14.241,15.230 13.518,14.502 13.521 C 14.103 13.522,13.982 13.604,13.170 14.411 C 12.768 14.810,12.440 15.113,12.440 15.084 C 12.440 15.055,11.924 14.511,11.293 13.875 C 10.015 12.589,9.924 12.520,9.500 12.520 C 8.703 12.520,8.228 13.411,8.680 14.057 C 8.743 14.147,9.247 14.670,9.800 15.220 C 10.353 15.770,10.845 16.292,10.893 16.380 C 10.976 16.533,10.981 16.593,10.992 17.775 L 11.004 19.011 10.292 18.988 C 9.895 18.974,9.465 18.938,9.320 18.905 C 8.323 18.677,7.556 18.286,6.775 17.607 C 5.866 16.817,5.243 15.681,5.017 14.401 C 4.937 13.950,4.939 13.065,5.021 12.595 C 5.274 11.133,6.080 9.874,7.340 8.970 C 7.560 8.813,7.772 8.638,7.812 8.582 C 7.922 8.426,8.000 8.170,8.000 7.965 C 8.001 7.675,8.108 7.036,8.203 6.755 C 8.444 6.048,8.937 5.337,9.490 4.899 C 10.402 4.178,11.475 3.888,12.605 4.058 " stroke="none" fill-rule="evenodd" fill="#000000"></path></svg>