<svg  xmlns="http://www.w3.org/2000/svg" width="24" height="24" viewBox="0 0 24 24" fill="none" stroke="currentColor" stroke-width="2" stroke-linecap="round" stroke-linejoin="round"><path d="M4.499 2.040 C 3.363 2.246,2.460 3.049,2.114 4.160 C 1.979 4.594,1.979 5.406,2.114 5.840 C 2.418 6.815,3.154 7.559,4.140 7.885 C 4.402 7.971,4.489 7.978,5.495 7.984 L 6.570 7.991 7.201 8.621 L 7.832 9.251 7.532 9.595 C 5.992 11.369,4.583 13.787,3.321 16.820 C 2.830 18.001,2.136 19.854,2.037 20.252 C 1.835 21.064,2.490 21.928,3.354 21.990 C 3.654 22.012,3.661 22.010,4.500 21.712 C 6.999 20.825,9.327 19.791,11.059 18.798 C 12.237 18.124,13.559 17.203,14.405 16.468 L 14.749 16.168 15.379 16.799 L 16.009 17.430 16.016 18.505 C 16.022 19.511,16.029 19.598,16.115 19.860 C 16.441 20.846,17.185 21.582,18.160 21.886 C 18.594 22.021,19.406 22.021,19.840 21.886 C 20.826 21.579,21.579 20.826,21.886 19.840 C 22.021 19.406,22.021 18.594,21.886 18.160 C 21.582 17.182,20.828 16.424,19.861 16.123 C 19.555 16.027,19.489 16.022,18.486 16.017 L 17.432 16.011 16.800 15.380 L 16.168 14.749 16.468 14.405 C 17.493 13.225,18.622 11.494,19.498 9.760 C 20.266 8.241,21.204 5.992,21.800 4.244 C 21.998 3.664,22.009 3.611,21.987 3.346 C 21.915 2.487,21.101 1.860,20.285 2.035 C 19.859 2.127,17.729 2.933,16.340 3.529 C 13.743 4.643,11.768 5.785,10.034 7.176 C 9.696 7.448,9.385 7.708,9.342 7.756 L 9.264 7.844 8.597 7.177 L 7.929 6.510 7.969 6.367 C 7.992 6.282,8.001 5.853,7.990 5.322 C 7.975 4.526,7.962 4.387,7.882 4.140 C 7.569 3.168,6.801 2.404,5.861 2.129 C 5.500 2.023,4.832 1.980,4.499 2.040 M5.310 4.061 C 5.452 4.103,5.571 4.178,5.697 4.303 C 5.948 4.555,6.000 4.750,6.000 5.451 L 6.000 6.007 5.350 5.993 C 4.728 5.981,4.692 5.975,4.516 5.872 C 3.935 5.530,3.833 4.774,4.304 4.303 C 4.583 4.024,4.916 3.944,5.310 4.061 M19.600 4.433 C 19.600 4.451,19.486 4.762,19.346 5.123 C 18.226 8.016,17.170 10.092,15.936 11.826 C 15.573 12.337,14.913 13.171,14.795 13.268 C 14.746 13.308,14.395 12.975,12.707 11.287 L 10.678 9.258 10.829 9.115 C 11.058 8.897,11.629 8.448,12.136 8.086 C 13.788 6.908,15.843 5.848,18.480 4.814 C 18.953 4.628,19.376 4.461,19.420 4.441 C 19.524 4.395,19.600 4.391,19.600 4.433 M13.212 14.848 C 13.058 15.010,12.346 15.570,11.800 15.960 C 10.294 17.036,8.376 18.039,5.946 19.020 C 4.939 19.427,4.438 19.611,4.412 19.585 C 4.387 19.560,4.762 18.571,5.149 17.640 C 6.086 15.387,7.034 13.612,8.086 12.136 C 8.448 11.629,8.897 11.058,9.115 10.829 L 9.258 10.678 11.288 12.708 L 13.318 14.738 13.212 14.848 M19.310 18.061 C 19.688 18.173,20.000 18.598,20.000 19.001 C 20.000 19.331,19.784 19.696,19.484 19.872 C 19.328 19.963,19.254 19.980,19.000 19.980 C 18.746 19.980,18.672 19.963,18.516 19.872 C 18.415 19.813,18.284 19.700,18.225 19.623 C 18.038 19.377,18.000 19.202,18.000 18.575 L 18.000 18.000 18.553 18.000 C 18.931 18.000,19.170 18.019,19.310 18.061 " stroke="none" fill-rule="evenodd" fill="#000000"></path></svg>