<svg  xmlns="http://www.w3.org/2000/svg" width="24" height="24" viewBox="0 0 24 24" fill="none" stroke="currentColor" stroke-width="2" stroke-linecap="round" stroke-linejoin="round"><path d="M15.460 1.078 C 14.288 1.386,12.751 1.990,11.530 2.622 C 6.452 5.251,2.736 9.768,1.138 15.254 C 0.935 15.949,0.957 16.365,1.222 16.908 C 1.368 17.205,1.746 17.600,2.029 17.750 C 2.368 17.931,20.457 22.956,20.880 22.988 C 21.447 23.030,21.981 22.825,22.403 22.403 C 22.825 21.981,23.030 21.447,22.988 20.880 C 22.971 20.655,22.584 19.209,21.441 15.100 C 20.602 12.086,19.882 9.494,19.841 9.340 C 19.745 8.982,17.937 2.503,17.885 2.331 C 17.708 1.744,17.067 1.185,16.408 1.045 C 16.108 0.981,15.785 0.993,15.460 1.078 M16.034 3.130 C 16.216 3.712,16.520 4.895,16.493 4.919 C 16.475 4.936,16.217 5.025,15.920 5.119 C 15.161 5.358,14.568 5.595,13.776 5.978 C 11.987 6.844,10.618 7.817,9.219 9.218 C 7.864 10.574,6.920 11.874,6.097 13.520 C 5.692 14.328,5.473 14.859,5.178 15.739 C 5.038 16.157,4.910 16.503,4.892 16.509 C 4.855 16.521,3.049 16.022,3.018 15.991 C 2.980 15.953,3.543 14.319,3.799 13.720 C 5.731 9.211,9.211 5.731,13.720 3.799 C 14.184 3.600,15.854 3.008,15.967 3.001 C 15.982 3.001,16.012 3.059,16.034 3.130 M17.096 6.950 C 17.192 7.266,17.560 8.626,17.560 8.666 C 17.560 8.694,17.475 8.766,17.370 8.825 C 15.829 9.707,14.870 11.356,14.871 13.120 C 14.871 13.395,14.900 13.783,14.934 13.982 C 15.347 16.350,17.390 18.104,19.772 18.135 L 20.203 18.140 20.261 18.340 C 20.483 19.119,20.993 20.980,20.986 20.987 C 20.975 20.998,14.346 19.158,14.326 19.138 C 14.318 19.131,14.386 19.036,14.478 18.927 C 14.637 18.738,14.760 18.448,14.760 18.261 C 14.760 18.059,14.629 17.746,14.474 17.578 C 14.280 17.367,14.022 17.260,13.717 17.264 C 13.347 17.269,13.178 17.383,12.647 17.989 C 12.391 18.281,12.155 18.520,12.123 18.520 C 12.072 18.520,7.358 17.224,7.010 17.115 C 6.938 17.092,6.880 17.048,6.880 17.016 C 6.880 16.927,7.152 16.105,7.327 15.664 C 8.462 12.806,10.358 10.456,12.880 8.782 C 14.020 8.026,15.119 7.490,16.420 7.056 C 17.005 6.861,17.066 6.851,17.096 6.950 M18.879 13.370 C 19.283 14.828,19.621 16.043,19.631 16.070 C 19.680 16.208,19.062 16.076,18.580 15.844 C 17.501 15.327,16.883 14.354,16.874 13.160 C 16.869 12.492,17.037 11.954,17.415 11.426 C 17.591 11.179,18.043 10.720,18.110 10.720 C 18.129 10.720,18.475 11.912,18.879 13.370 M11.641 13.069 C 11.503 13.118,11.321 13.271,10.847 13.736 C 10.509 14.068,10.188 14.416,10.133 14.508 C 9.862 14.970,10.033 15.588,10.508 15.867 C 10.673 15.964,10.742 15.980,11.000 15.979 C 11.214 15.979,11.340 15.957,11.440 15.904 C 11.634 15.801,12.743 14.700,12.873 14.480 C 12.963 14.328,12.980 14.253,12.980 14.000 C 12.980 13.746,12.963 13.672,12.872 13.516 C 12.617 13.083,12.117 12.901,11.641 13.069 " stroke="none" fill-rule="evenodd" fill="#000000"></path></svg>