<svg  xmlns="http://www.w3.org/2000/svg" width="24" height="24" viewBox="0 0 24 24" fill="none" stroke="currentColor" stroke-width="2" stroke-linecap="round" stroke-linejoin="round"><path d="M8.520 1.028 C 8.071 1.075,7.502 1.258,7.098 1.484 C 6.011 2.091,5.318 3.046,5.062 4.286 C 5.045 4.372,4.966 4.432,4.655 4.599 C 3.325 5.309,2.416 6.531,2.093 8.040 C 2.039 8.292,2.021 8.546,2.022 9.020 C 2.024 9.658,2.067 9.966,2.223 10.445 L 2.283 10.629 2.005 10.999 C 1.020 12.311,0.740 14.034,1.261 15.585 C 1.521 16.363,1.885 16.934,2.520 17.565 L 2.988 18.031 3.016 18.397 C 3.103 19.561,3.684 20.781,4.533 21.588 C 6.095 23.072,8.350 23.411,10.260 22.450 C 10.957 22.099,11.701 21.448,12.119 20.824 C 12.408 20.393,12.702 19.763,12.810 19.346 L 12.899 19.000 15.500 19.000 C 17.231 19.000,18.153 19.015,18.260 19.044 C 18.586 19.131,18.868 19.409,18.952 19.726 C 18.989 19.862,18.981 19.885,18.838 20.058 C 18.515 20.449,18.419 21.046,18.601 21.533 C 18.787 22.029,19.258 22.406,19.782 22.477 C 20.783 22.613,21.613 21.783,21.477 20.782 C 21.441 20.515,21.289 20.183,21.129 20.017 C 21.032 19.918,21.004 19.846,20.980 19.637 C 20.848 18.483,20.002 17.480,18.861 17.122 L 18.540 17.022 15.770 17.009 L 13.000 16.996 13.000 15.498 L 13.000 14.000 13.942 14.000 L 14.884 14.000 15.012 14.124 C 15.182 14.289,15.513 14.440,15.782 14.477 C 16.783 14.613,17.613 13.783,17.477 12.782 C 17.413 12.309,17.100 11.885,16.648 11.656 C 16.440 11.550,16.384 11.540,16.000 11.540 C 15.619 11.540,15.559 11.550,15.358 11.653 C 15.236 11.715,15.079 11.818,15.010 11.883 L 14.884 12.000 13.942 12.000 L 13.000 12.000 13.000 10.500 L 13.000 9.000 15.942 9.000 L 18.884 9.000 19.012 9.124 C 19.182 9.289,19.513 9.440,19.782 9.477 C 20.783 9.613,21.613 8.783,21.477 7.782 C 21.413 7.309,21.100 6.885,20.648 6.656 C 20.440 6.550,20.384 6.540,20.000 6.540 C 19.619 6.540,19.559 6.550,19.358 6.653 C 19.236 6.715,19.079 6.818,19.010 6.883 L 18.884 7.000 17.942 7.000 L 17.000 7.000 17.000 5.947 C 17.000 4.837,17.029 4.609,17.195 4.412 L 17.270 4.324 17.484 4.405 C 17.780 4.518,18.223 4.515,18.533 4.399 C 19.029 4.213,19.406 3.742,19.477 3.218 C 19.566 2.563,19.245 1.958,18.648 1.656 C 18.440 1.550,18.384 1.540,18.000 1.540 C 17.616 1.540,17.560 1.550,17.351 1.656 C 17.126 1.770,16.740 2.116,16.700 2.238 C 16.690 2.272,16.595 2.348,16.490 2.407 C 15.881 2.750,15.352 3.417,15.116 4.140 C 15.031 4.403,15.024 4.498,15.009 5.710 L 14.993 7.000 13.997 7.000 L 13.000 7.000 13.000 5.845 C 13.000 4.330,12.941 3.974,12.568 3.220 C 11.995 2.064,10.918 1.263,9.660 1.059 C 9.327 1.005,8.858 0.992,8.520 1.028 M9.501 3.062 C 10.222 3.250,10.825 3.894,10.957 4.617 C 11.014 4.932,11.015 8.963,10.958 9.320 C 10.758 10.567,9.891 11.602,8.660 12.063 C 8.235 12.222,7.966 12.657,8.012 13.107 C 8.068 13.646,8.557 14.045,9.094 13.989 C 9.451 13.952,10.300 13.544,10.777 13.180 C 10.878 13.103,10.970 13.040,10.982 13.040 C 10.994 13.040,10.998 14.268,10.990 15.770 C 10.975 18.795,10.986 18.665,10.702 19.267 C 10.181 20.372,9.033 21.063,7.847 20.986 C 6.785 20.917,5.834 20.312,5.369 19.410 C 5.112 18.911,5.110 18.927,5.429 18.971 C 5.878 19.032,6.278 18.992,6.496 18.864 C 6.714 18.737,6.902 18.496,6.965 18.264 C 7.064 17.897,6.917 17.449,6.625 17.226 C 6.421 17.071,6.305 17.037,5.844 16.996 C 4.541 16.880,3.568 16.125,3.149 14.902 C 3.037 14.574,3.025 14.493,3.024 14.040 C 3.023 13.442,3.083 13.175,3.338 12.660 C 3.604 12.120,3.901 11.799,4.488 11.412 C 4.896 11.143,5.057 10.885,5.057 10.500 C 5.057 10.014,4.712 9.609,4.228 9.526 C 4.076 9.500,4.061 9.486,4.028 9.339 C 3.983 9.135,4.022 8.524,4.098 8.240 C 4.180 7.935,4.484 7.338,4.673 7.111 C 4.760 7.007,4.937 6.832,5.066 6.722 L 5.300 6.522 5.434 6.791 C 5.678 7.281,5.974 7.495,6.401 7.491 C 7.131 7.484,7.605 6.736,7.295 6.080 C 7.032 5.523,6.958 5.114,7.037 4.655 C 7.167 3.902,7.752 3.261,8.491 3.062 C 8.771 2.986,9.210 2.986,9.501 3.062 " stroke="none" fill-rule="evenodd" fill="#000000"></path></svg>