<svg  xmlns="http://www.w3.org/2000/svg" width="24" height="24" viewBox="0 0 24 24" fill="none" stroke="currentColor" stroke-width="2" stroke-linecap="round" stroke-linejoin="round"><path d="M3.499 2.043 C 2.380 2.232,1.461 3.048,1.114 4.160 L 1.020 4.460 1.020 10.000 L 1.020 15.540 1.114 15.840 C 1.418 16.816,2.149 17.554,3.140 17.886 L 3.420 17.980 7.210 17.991 L 11.000 18.003 11.000 19.001 L 11.000 20.000 9.446 20.000 C 7.758 20.000,7.658 20.011,7.382 20.221 C 7.302 20.282,7.187 20.415,7.128 20.516 C 7.037 20.672,7.020 20.746,7.020 21.000 C 7.020 21.256,7.036 21.328,7.131 21.489 C 7.256 21.702,7.449 21.864,7.670 21.943 C 7.892 22.022,16.108 22.022,16.330 21.943 C 16.551 21.864,16.744 21.702,16.869 21.489 C 16.964 21.328,16.980 21.256,16.980 21.000 C 16.980 20.746,16.963 20.672,16.872 20.516 C 16.813 20.415,16.698 20.282,16.618 20.221 C 16.342 20.011,16.242 20.000,14.554 20.000 L 13.000 20.000 13.000 19.001 L 13.000 18.003 16.790 17.991 L 20.580 17.980 20.860 17.886 C 21.851 17.554,22.582 16.816,22.886 15.840 C 22.979 15.545,22.980 15.514,22.980 13.780 C 22.980 12.053,22.978 12.017,22.894 11.860 C 22.636 11.382,22.062 11.188,21.580 11.415 C 21.340 11.529,21.193 11.678,21.083 11.920 C 21.006 12.091,21.002 12.178,21.001 13.604 C 21.000 15.237,20.988 15.343,20.779 15.618 C 20.718 15.698,20.585 15.813,20.484 15.872 L 20.300 15.980 12.000 15.980 L 3.700 15.980 3.516 15.872 C 3.415 15.813,3.284 15.700,3.225 15.623 C 2.988 15.312,3.000 15.608,3.000 10.022 C 3.000 4.284,2.983 4.631,3.283 4.321 C 3.599 3.996,3.183 4.022,8.360 4.000 L 12.980 3.980 13.146 3.891 C 13.710 3.590,13.862 2.841,13.456 2.366 C 13.376 2.273,13.237 2.157,13.146 2.109 L 12.980 2.020 8.340 2.014 C 5.788 2.011,3.609 2.024,3.499 2.043 M18.358 2.061 C 17.230 2.237,16.143 2.974,15.569 3.953 C 14.320 6.083,15.233 8.785,17.512 9.704 C 19.558 10.528,21.877 9.538,22.704 7.488 C 23.090 6.530,23.090 5.469,22.705 4.516 C 22.172 3.197,21.001 2.269,19.605 2.058 C 19.144 1.989,18.816 1.990,18.358 2.061 M19.523 4.073 C 20.262 4.266,20.850 4.924,20.967 5.690 C 21.029 6.098,20.967 6.522,20.793 6.880 C 20.638 7.198,20.227 7.625,19.930 7.775 C 19.492 7.997,18.962 8.059,18.508 7.940 C 17.823 7.762,17.249 7.194,17.073 6.523 C 16.683 5.028,18.028 3.683,19.523 4.073 " stroke="none" fill-rule="evenodd" fill="#000000"></path></svg>