<svg  xmlns="http://www.w3.org/2000/svg" width="24" height="24" viewBox="0 0 24 24" fill="none" stroke="currentColor" stroke-width="2" stroke-linecap="round" stroke-linejoin="round"><path d="M17.240 3.037 C 16.985 3.115,16.715 3.332,16.604 3.549 C 16.454 3.840,16.456 3.854,17.043 7.100 C 17.350 8.794,17.592 10.203,17.581 10.230 C 17.571 10.258,17.533 10.280,17.496 10.280 C 17.384 10.280,16.720 10.520,16.330 10.702 C 14.781 11.424,13.481 12.704,12.757 14.220 C 12.560 14.634,12.456 14.921,12.182 15.820 L 12.133 15.980 9.897 15.989 L 7.660 15.999 7.500 15.715 C 7.085 14.976,6.260 14.354,5.378 14.114 C 4.960 14.001,4.117 13.990,3.707 14.092 C 2.450 14.406,1.514 15.299,1.133 16.548 C 1.038 16.863,1.026 16.963,1.026 17.500 C 1.026 18.037,1.038 18.137,1.133 18.452 C 1.581 19.920,2.808 20.902,4.300 20.987 C 5.974 21.083,7.466 19.986,7.889 18.350 L 7.979 18.000 10.140 17.999 C 11.906 17.999,12.346 17.988,12.551 17.940 C 12.990 17.836,13.331 17.620,13.661 17.236 C 13.912 16.944,13.985 16.791,14.164 16.176 C 14.248 15.886,14.354 15.557,14.398 15.445 C 14.890 14.197,15.918 13.107,17.139 12.538 C 17.623 12.313,17.912 12.215,17.954 12.262 C 17.972 12.283,18.054 12.678,18.137 13.140 C 18.219 13.602,18.296 14.028,18.308 14.088 C 18.328 14.188,18.310 14.204,18.060 14.317 C 17.123 14.742,16.445 15.527,16.133 16.548 C 16.038 16.863,16.026 16.963,16.026 17.500 C 16.026 18.037,16.038 18.137,16.133 18.452 C 16.501 19.658,17.360 20.515,18.548 20.862 C 19.433 21.120,20.402 21.001,21.240 20.531 C 21.709 20.268,22.268 19.709,22.531 19.240 C 23.610 17.313,22.735 14.962,20.657 14.204 L 20.344 14.090 19.533 9.615 C 19.087 7.154,18.722 5.109,18.721 5.070 C 18.720 5.005,18.805 5.000,19.950 4.998 C 21.273 4.996,21.354 4.986,21.619 4.783 C 21.696 4.725,21.808 4.592,21.869 4.489 C 21.964 4.328,21.980 4.256,21.980 4.000 C 21.980 3.746,21.963 3.672,21.872 3.516 C 21.813 3.415,21.698 3.282,21.618 3.221 C 21.335 3.006,21.270 3.000,19.224 3.003 C 18.188 3.005,17.295 3.021,17.240 3.037 M5.119 16.143 C 5.417 16.279,5.727 16.592,5.865 16.896 C 5.960 17.105,5.976 17.192,5.976 17.500 C 5.976 17.808,5.960 17.895,5.865 18.104 C 5.725 18.413,5.417 18.720,5.100 18.868 C 4.893 18.965,4.810 18.980,4.500 18.980 C 4.190 18.980,4.107 18.965,3.900 18.868 C 3.583 18.720,3.275 18.413,3.135 18.104 C 3.040 17.896,3.024 17.808,3.024 17.500 C 3.023 17.191,3.039 17.106,3.134 16.900 C 3.327 16.478,3.749 16.129,4.174 16.039 C 4.441 15.982,4.870 16.030,5.119 16.143 M20.140 16.155 C 20.442 16.300,20.724 16.589,20.866 16.900 C 20.961 17.106,20.977 17.192,20.977 17.500 C 20.977 17.808,20.961 17.894,20.866 18.100 C 20.722 18.414,20.414 18.724,20.104 18.867 C 19.894 18.965,19.811 18.980,19.500 18.980 C 19.190 18.980,19.107 18.965,18.900 18.868 C 18.583 18.720,18.275 18.413,18.135 18.104 C 18.040 17.896,18.024 17.808,18.024 17.500 C 18.023 17.191,18.039 17.106,18.134 16.900 C 18.276 16.589,18.558 16.300,18.860 16.155 C 19.075 16.052,19.141 16.040,19.500 16.040 C 19.859 16.040,19.925 16.052,20.140 16.155 " stroke="none" fill-rule="evenodd" fill="#000000"></path></svg>