<svg  xmlns="http://www.w3.org/2000/svg" width="24" height="24" viewBox="0 0 24 24" fill="none" stroke="currentColor" stroke-width="2" stroke-linecap="round" stroke-linejoin="round"><path d="M8.667 1.065 C 8.266 1.188,7.968 1.649,8.009 2.082 C 8.020 2.194,8.097 2.420,8.194 2.622 C 8.285 2.812,8.360 2.973,8.360 2.980 C 8.360 2.986,7.933 3.000,7.410 3.010 C 6.547 3.026,6.431 3.036,6.139 3.125 C 5.179 3.417,4.420 4.180,4.114 5.160 L 4.020 5.460 4.020 13.000 L 4.020 20.540 4.114 20.840 C 4.422 21.827,5.173 22.578,6.160 22.886 L 6.460 22.980 12.000 22.980 L 17.540 22.980 17.840 22.886 C 18.827 22.578,19.578 21.827,19.886 20.840 L 19.980 20.540 19.980 13.000 L 19.980 5.460 19.886 5.160 C 19.580 4.180,18.821 3.417,17.861 3.125 C 17.569 3.036,17.453 3.026,16.590 3.010 C 16.067 3.000,15.640 2.986,15.640 2.980 C 15.640 2.973,15.715 2.812,15.806 2.622 C 16.001 2.214,16.037 1.973,15.944 1.693 C 15.712 0.992,14.817 0.776,14.304 1.297 C 14.071 1.533,13.038 3.620,13.010 3.910 C 12.982 4.197,13.090 4.492,13.298 4.700 C 13.593 4.995,13.631 5.000,15.480 5.000 C 17.358 5.000,17.399 5.006,17.697 5.303 C 18.024 5.631,18.000 5.009,18.000 13.001 C 18.000 18.961,17.991 20.137,17.944 20.293 C 17.893 20.464,17.668 20.801,17.607 20.799 C 17.592 20.799,17.536 20.695,17.482 20.569 C 17.034 19.523,16.177 18.545,15.129 17.884 C 14.946 17.768,14.925 17.742,14.969 17.685 C 14.997 17.649,15.084 17.539,15.163 17.440 C 15.670 16.807,16.000 15.845,16.000 15.000 C 16.000 14.327,15.776 13.525,15.421 12.932 C 14.834 11.949,13.756 11.232,12.605 11.058 C 12.121 10.986,11.879 10.986,11.395 11.058 C 9.156 11.396,7.632 13.563,8.082 15.772 C 8.209 16.394,8.482 16.997,8.837 17.440 C 8.916 17.539,9.003 17.649,9.030 17.684 C 9.073 17.740,9.031 17.781,8.710 17.990 C 8.079 18.402,7.486 18.982,7.043 19.620 C 6.853 19.895,6.440 20.673,6.440 20.757 C 6.440 20.841,6.365 20.798,6.243 20.644 C 5.983 20.315,6.000 20.856,6.000 13.022 C 6.000 5.006,5.975 5.631,6.303 5.303 C 6.591 5.015,6.683 5.000,8.138 5.000 L 9.381 5.000 9.871 5.982 C 10.141 6.522,10.351 6.981,10.339 7.002 C 10.326 7.023,10.289 7.040,10.256 7.040 C 10.154 7.040,9.906 7.187,9.772 7.326 C 9.599 7.507,9.512 7.732,9.512 8.000 C 9.512 8.405,9.719 8.724,10.100 8.905 L 10.300 8.999 12.000 8.999 L 13.700 8.999 13.900 8.905 C 14.281 8.724,14.488 8.405,14.488 8.000 C 14.488 7.615,14.292 7.296,13.940 7.107 C 13.802 7.033,13.699 7.020,13.198 7.007 L 12.616 6.993 11.238 4.228 C 9.742 1.227,9.724 1.197,9.340 1.066 C 9.106 0.986,8.924 0.986,8.667 1.065 M12.523 13.073 C 13.262 13.266,13.850 13.924,13.967 14.690 C 14.067 15.343,13.873 15.933,13.403 16.404 C 13.002 16.807,12.547 17.000,12.000 17.000 C 11.485 17.000,11.038 16.822,10.653 16.465 C 9.323 15.229,10.189 13.005,12.000 13.005 C 12.143 13.005,12.378 13.036,12.523 13.073 M12.976 19.118 C 13.681 19.301,14.279 19.645,14.821 20.178 C 15.111 20.463,15.440 20.884,15.440 20.969 C 15.440 20.986,13.892 21.000,12.000 21.000 C 10.108 21.000,8.560 20.986,8.560 20.969 C 8.560 20.885,8.889 20.464,9.176 20.179 C 9.799 19.563,10.562 19.169,11.380 19.042 C 11.762 18.982,12.611 19.022,12.976 19.118 " stroke="none" fill-rule="evenodd" fill="#000000"></path></svg>