<svg  xmlns="http://www.w3.org/2000/svg" width="24" height="24" viewBox="0 0 24 24" fill="none" stroke="currentColor" stroke-width="2" stroke-linecap="round" stroke-linejoin="round"><path d="M5.873 1.063 C 5.147 1.194,4.470 1.562,3.958 2.105 C 3.562 2.524,3.318 2.949,3.130 3.548 L 3.020 3.900 3.020 12.000 L 3.020 20.100 3.130 20.452 C 3.511 21.666,4.334 22.489,5.548 22.870 L 5.900 22.980 12.560 22.991 C 17.107 22.998,19.284 22.988,19.422 22.960 C 19.938 22.852,20.538 22.398,20.771 21.937 C 21.015 21.455,21.000 22.127,20.999 12.014 C 20.999 1.974,21.011 2.536,20.781 2.083 C 20.646 1.816,20.297 1.449,20.017 1.281 C 19.527 0.986,20.016 1.004,12.720 1.006 C 7.322 1.007,6.126 1.017,5.873 1.063 M19.000 9.500 L 19.000 16.000 12.625 16.000 C 5.699 16.000,5.896 15.994,5.296 16.220 C 5.150 16.275,5.023 16.320,5.014 16.320 C 5.006 16.320,5.003 13.580,5.009 10.230 L 5.020 4.140 5.132 3.900 C 5.330 3.475,5.756 3.124,6.174 3.042 C 6.265 3.024,9.189 3.007,12.670 3.004 L 19.000 3.000 19.000 9.500 M11.400 5.044 C 9.761 5.229,8.261 6.290,7.526 7.785 C 7.344 8.154,7.194 8.581,7.097 9.000 C 7.041 9.245,7.025 9.564,7.011 10.749 C 6.992 12.325,7.004 12.460,7.202 12.877 C 7.348 13.186,7.771 13.623,8.070 13.775 C 8.659 14.073,9.341 14.073,9.930 13.775 C 10.196 13.640,10.638 13.200,10.771 12.937 C 10.994 12.498,11.052 12.007,10.940 11.529 C 10.852 11.156,10.699 10.891,10.404 10.597 C 10.079 10.273,9.742 10.099,9.306 10.030 L 8.992 9.981 9.019 9.705 C 9.137 8.504,9.980 7.478,11.139 7.125 C 11.412 7.042,11.542 7.027,12.000 7.027 C 12.458 7.027,12.588 7.042,12.861 7.125 C 14.020 7.478,14.863 8.504,14.981 9.705 L 15.008 9.981 14.694 10.030 C 14.258 10.099,13.921 10.273,13.596 10.597 C 13.193 10.998,13.000 11.453,13.000 12.000 C 13.000 12.546,13.193 13.001,13.596 13.404 C 13.997 13.805,14.454 14.000,14.993 14.000 C 15.540 14.000,16.004 13.804,16.404 13.404 C 16.697 13.112,16.841 12.863,16.940 12.480 C 17.036 12.111,17.007 9.453,16.903 9.000 C 16.547 7.454,15.584 6.211,14.213 5.525 C 13.352 5.095,12.397 4.932,11.400 5.044 M19.000 19.500 L 19.000 21.001 12.570 20.990 L 6.140 20.980 5.900 20.868 C 5.583 20.720,5.275 20.413,5.135 20.104 C 5.040 19.896,5.024 19.808,5.024 19.500 C 5.023 19.191,5.039 19.106,5.134 18.900 C 5.328 18.477,5.755 18.124,6.174 18.042 C 6.265 18.024,9.189 18.007,12.670 18.004 L 19.000 18.000 19.000 19.500 " stroke="none" fill-rule="evenodd" fill="#000000"></path></svg>