<svg  xmlns="http://www.w3.org/2000/svg" width="24" height="24" viewBox="0 0 24 24" fill="none" stroke="currentColor" stroke-width="2" stroke-linecap="round" stroke-linejoin="round"><path d="M8.926 2.081 C 8.395 2.220,8.283 2.310,6.848 3.736 C 6.116 4.464,5.453 5.152,5.375 5.265 C 5.050 5.737,4.918 6.453,5.056 7.000 C 5.208 7.604,5.250 7.657,6.773 9.189 L 8.174 10.597 8.097 10.849 C 8.042 11.028,8.020 11.220,8.020 11.520 C 8.020 12.015,8.114 12.342,8.361 12.711 C 8.445 12.837,9.123 13.545,9.867 14.284 C 11.337 15.744,11.399 15.793,11.998 15.944 C 12.319 16.025,12.843 16.005,13.171 15.899 L 13.401 15.825 14.811 17.227 C 16.051 18.460,16.251 18.643,16.480 18.753 C 17.235 19.117,18.058 19.072,18.721 18.631 C 18.841 18.550,19.544 17.876,20.282 17.132 C 21.738 15.664,21.795 15.591,21.945 15.000 C 22.069 14.506,21.967 13.837,21.694 13.363 C 21.634 13.259,20.996 12.584,20.208 11.792 L 18.826 10.404 18.903 10.152 C 19.007 9.811,19.008 9.150,18.904 8.840 C 18.783 8.479,18.602 8.200,18.253 7.838 L 17.924 7.496 18.844 6.578 C 19.351 6.073,19.814 5.579,19.873 5.480 C 19.964 5.328,19.980 5.254,19.980 5.000 C 19.980 4.746,19.963 4.672,19.872 4.516 C 19.618 4.084,19.136 3.905,18.657 4.066 C 18.486 4.124,18.329 4.263,17.480 5.103 L 16.500 6.073 16.153 5.741 C 15.740 5.346,15.476 5.186,15.058 5.079 C 14.660 4.978,14.339 4.979,13.923 5.084 L 13.591 5.168 12.206 3.791 C 10.704 2.298,10.606 2.220,10.058 2.079 C 9.672 1.981,9.308 1.981,8.926 2.081 M10.830 5.250 L 12.080 6.500 10.790 7.790 L 9.500 9.080 8.250 7.830 C 7.443 7.024,7.000 6.552,7.000 6.500 C 7.000 6.391,9.390 4.000,9.500 4.000 C 9.551 4.000,10.023 4.443,10.830 5.250 M15.790 8.210 C 16.571 8.991,17.000 9.448,17.000 9.500 C 17.000 9.610,12.611 14.000,12.500 14.000 C 12.391 14.000,10.000 11.610,10.000 11.500 C 10.000 11.390,14.389 7.000,14.500 7.000 C 14.551 7.000,15.011 7.431,15.790 8.210 M20.000 14.500 C 20.000 14.609,17.610 17.000,17.500 17.000 C 17.449 17.000,16.977 16.557,16.170 15.750 L 14.920 14.500 16.210 13.210 L 17.500 11.920 18.750 13.170 C 19.557 13.976,20.000 14.448,20.000 14.500 M2.695 14.055 C 2.464 14.130,2.255 14.300,2.128 14.516 C 2.037 14.672,2.020 14.746,2.020 15.000 C 2.020 15.257,2.036 15.327,2.133 15.492 C 2.261 15.710,2.505 15.904,2.716 15.955 C 2.795 15.974,3.103 16.010,3.400 16.035 C 3.697 16.061,4.066 16.114,4.220 16.154 C 6.001 16.617,7.383 17.999,7.846 19.780 C 7.886 19.934,7.939 20.303,7.965 20.600 C 7.990 20.897,8.026 21.205,8.045 21.284 C 8.096 21.495,8.290 21.739,8.508 21.867 C 8.673 21.964,8.743 21.980,9.000 21.980 C 9.257 21.980,9.327 21.964,9.492 21.867 C 9.714 21.737,9.901 21.498,9.965 21.264 C 10.014 21.083,9.991 20.444,9.918 19.956 C 9.500 17.173,7.391 14.866,4.660 14.205 C 3.982 14.041,2.972 13.964,2.695 14.055 " stroke="none" fill-rule="evenodd" fill="#000000"></path></svg>