<svg  xmlns="http://www.w3.org/2000/svg" width="24" height="24" viewBox="0 0 24 24" fill="none" stroke="currentColor" stroke-width="2" stroke-linecap="round" stroke-linejoin="round"><path d="M15.380 1.043 C 12.784 1.299,10.648 3.247,10.119 5.840 C 10.072 6.071,10.023 6.492,10.011 6.775 L 9.988 7.289 7.128 11.195 C 5.555 13.343,4.209 15.192,4.137 15.305 C 4.064 15.417,3.964 15.624,3.915 15.765 C 3.740 16.262,3.825 17.008,4.101 17.411 L 4.205 17.562 4.105 17.811 C 3.871 18.401,3.810 19.286,3.958 19.980 C 4.399 22.059,6.117 23.318,8.052 22.980 C 8.767 22.856,9.365 22.615,10.527 21.987 C 11.547 21.435,11.897 21.264,12.280 21.135 C 12.579 21.034,12.675 21.020,13.080 21.022 C 13.983 21.027,14.779 21.289,15.816 21.922 C 16.144 22.123,16.192 22.140,16.455 22.153 C 16.706 22.165,16.766 22.153,16.956 22.053 C 17.491 21.773,17.660 21.048,17.301 20.577 C 17.093 20.305,16.009 19.691,15.249 19.414 C 14.390 19.102,13.340 18.950,12.610 19.033 C 11.730 19.133,11.236 19.326,9.619 20.204 C 8.392 20.871,7.820 21.075,7.311 21.029 C 6.993 21.000,6.610 20.810,6.409 20.580 C 6.098 20.227,5.880 19.678,5.880 19.246 L 5.880 19.044 6.018 19.102 C 6.093 19.133,6.307 19.171,6.492 19.185 C 6.995 19.224,7.360 19.119,7.800 18.811 C 7.973 18.689,13.753 14.287,15.122 13.235 L 15.423 13.003 16.082 12.987 C 17.740 12.946,19.137 12.349,20.269 11.195 C 21.109 10.340,21.626 9.369,21.885 8.160 C 22.015 7.554,22.015 6.446,21.885 5.840 C 21.626 4.631,21.109 3.660,20.269 2.805 C 18.978 1.490,17.230 0.860,15.380 1.043 M16.605 3.058 C 18.074 3.280,19.310 4.324,19.797 5.755 C 19.897 6.050,20.000 6.680,20.000 7.000 C 20.000 7.322,19.897 7.951,19.796 8.245 C 19.321 9.632,18.195 10.628,16.773 10.917 C 14.563 11.368,12.396 9.845,12.058 7.605 C 11.986 7.121,11.986 6.879,12.058 6.395 C 12.314 4.698,13.675 3.324,15.358 3.061 C 15.816 2.990,16.144 2.989,16.605 3.058 M10.801 9.990 C 11.233 10.765,12.070 11.626,12.874 12.120 C 13.079 12.246,13.084 12.254,13.013 12.320 C 12.973 12.359,11.519 13.473,9.783 14.797 L 6.625 17.205 6.223 16.803 C 5.831 16.411,5.823 16.398,5.881 16.304 C 5.942 16.205,10.655 9.760,10.666 9.760 C 10.669 9.760,10.730 9.864,10.801 9.990 " stroke="none" fill-rule="evenodd" fill="#000000"></path></svg>