<svg  xmlns="http://www.w3.org/2000/svg" width="24" height="24" viewBox="0 0 24 24" fill="none" stroke="currentColor" stroke-width="2" stroke-linecap="round" stroke-linejoin="round"><path d="M11.280 1.023 C 11.203 1.032,10.951 1.059,10.720 1.083 C 8.832 1.283,6.991 2.023,5.360 3.235 C 4.751 3.688,3.684 4.755,3.226 5.367 C 0.728 8.714,0.301 13.032,2.097 16.780 C 2.643 17.918,3.276 18.801,4.238 19.762 C 5.199 20.724,6.082 21.357,7.220 21.903 C 10.967 23.699,15.288 23.270,18.637 20.770 C 19.246 20.316,20.316 19.246,20.770 18.637 C 23.744 14.652,23.744 9.348,20.770 5.363 C 20.316 4.755,19.247 3.686,18.640 3.235 C 17.045 2.049,15.365 1.360,13.423 1.096 C 13.000 1.038,11.574 0.990,11.280 1.023 M13.320 3.101 C 15.883 3.488,18.124 4.931,19.560 7.120 C 19.863 7.583,20.303 8.479,20.492 9.020 C 20.838 10.013,20.977 10.865,20.977 12.000 C 20.977 13.493,20.720 14.621,20.080 15.940 C 19.375 17.394,18.311 18.607,16.927 19.532 C 16.138 20.060,14.876 20.588,13.908 20.797 C 11.266 21.366,8.479 20.708,6.370 19.019 C 4.857 17.807,3.722 16.029,3.267 14.160 C 3.081 13.397,3.023 12.888,3.023 12.000 C 3.023 10.507,3.280 9.379,3.920 8.060 C 4.971 5.891,6.877 4.221,9.160 3.466 C 9.865 3.233,10.432 3.118,11.340 3.024 C 11.662 2.991,12.911 3.039,13.320 3.101 M11.873 6.060 C 11.136 6.200,10.468 6.565,9.958 7.105 C 9.559 7.527,9.313 7.957,9.134 8.548 C 9.032 8.883,9.026 8.952,9.009 9.950 L 8.992 11.000 8.442 11.000 C 7.648 11.000,7.366 11.111,7.128 11.516 C 7.037 11.672,7.020 11.746,7.020 12.000 C 7.020 12.256,7.036 12.328,7.131 12.489 C 7.256 12.702,7.449 12.864,7.670 12.943 C 7.768 12.978,8.023 12.997,8.410 12.998 L 9.000 13.000 9.000 14.000 L 9.000 15.000 8.446 15.000 C 7.648 15.000,7.367 15.110,7.128 15.516 C 7.037 15.672,7.020 15.746,7.020 16.000 C 7.020 16.256,7.036 16.328,7.131 16.489 C 7.256 16.702,7.449 16.864,7.670 16.943 C 7.891 17.022,15.109 17.022,15.330 16.943 C 15.551 16.864,15.744 16.702,15.869 16.489 C 15.964 16.328,15.980 16.256,15.980 16.000 C 15.980 15.746,15.963 15.672,15.872 15.516 C 15.813 15.415,15.698 15.282,15.618 15.221 C 15.334 15.004,15.283 15.000,13.054 15.000 L 11.000 15.000 11.000 14.000 L 11.000 13.000 11.590 12.998 C 11.977 12.997,12.232 12.978,12.330 12.943 C 12.551 12.864,12.744 12.702,12.869 12.489 C 12.964 12.328,12.980 12.256,12.980 12.000 C 12.980 11.746,12.963 11.672,12.872 11.516 C 12.633 11.110,12.352 11.000,11.550 11.000 L 10.993 11.000 11.007 10.070 C 11.021 9.150,11.022 9.137,11.133 8.896 C 11.276 8.586,11.585 8.278,11.900 8.134 C 12.106 8.039,12.192 8.023,12.500 8.023 C 12.808 8.023,12.894 8.039,13.100 8.134 C 13.607 8.367,13.935 8.837,13.984 9.403 C 14.029 9.915,14.249 10.268,14.618 10.422 C 14.821 10.507,15.179 10.507,15.382 10.422 C 15.747 10.270,15.999 9.877,15.999 9.460 C 16.000 7.931,14.886 6.511,13.378 6.118 C 12.959 6.009,12.280 5.983,11.873 6.060 " stroke="none" fill-rule="evenodd" fill="#000000"></path></svg>