<svg  xmlns="http://www.w3.org/2000/svg" width="24" height="24" viewBox="0 0 24 24" fill="none" stroke="currentColor" stroke-width="2" stroke-linecap="round" stroke-linejoin="round"><path d="M11.080 1.041 C 8.511 1.285,6.222 2.321,4.406 4.061 C 3.265 5.155,2.443 6.351,1.850 7.780 C 0.771 10.381,0.723 13.252,1.715 15.880 C 3.214 19.850,6.818 22.571,11.097 22.964 C 11.668 23.016,12.894 22.992,13.320 22.920 C 13.883 22.824,14.215 22.453,14.215 21.920 C 14.214 21.621,14.126 21.415,13.914 21.214 C 13.609 20.928,13.579 20.924,12.320 20.979 C 11.486 21.016,10.925 20.974,10.178 20.819 C 8.781 20.529,7.278 19.793,6.156 18.848 C 4.562 17.506,3.412 15.432,3.101 13.341 C 2.836 11.555,3.139 9.605,3.929 8.020 C 5.081 5.710,7.133 4.011,9.585 3.339 C 10.513 3.085,10.990 3.023,12.020 3.023 C 12.800 3.023,13.018 3.037,13.452 3.114 C 16.450 3.647,18.876 5.491,20.160 8.213 C 20.687 9.330,20.939 10.420,20.984 11.780 C 20.997 12.176,21.025 12.569,21.047 12.654 C 21.096 12.851,21.370 13.150,21.591 13.248 C 22.098 13.474,22.724 13.214,22.918 12.697 C 23.093 12.228,22.983 10.627,22.694 9.460 C 22.166 7.326,21.172 5.584,19.640 4.106 C 17.899 2.428,15.798 1.418,13.380 1.097 C 12.828 1.024,11.581 0.994,11.080 1.041 M11.695 5.057 C 11.466 5.129,11.256 5.299,11.128 5.516 L 11.020 5.700 11.009 8.917 C 10.999 11.798,11.005 12.154,11.063 12.329 C 11.178 12.675,11.330 12.788,12.366 13.301 C 13.239 13.733,13.328 13.768,13.545 13.770 C 13.974 13.774,14.343 13.518,14.500 13.106 C 14.635 12.753,14.516 12.306,14.219 12.044 C 14.138 11.974,13.832 11.796,13.537 11.649 L 13.002 11.382 12.991 8.541 L 12.980 5.700 12.872 5.516 C 12.628 5.101,12.150 4.915,11.695 5.057 M17.580 13.096 C 17.422 13.172,16.940 13.634,15.274 15.306 C 14.116 16.469,13.138 17.481,13.101 17.555 C 12.872 18.010,13.056 18.601,13.508 18.867 C 13.673 18.964,13.742 18.980,14.000 18.979 C 14.213 18.979,14.341 18.957,14.440 18.905 C 14.517 18.864,15.124 18.290,15.789 17.628 L 16.998 16.424 17.009 19.365 L 17.020 22.306 17.141 22.503 C 17.543 23.156,18.457 23.156,18.859 22.503 L 18.980 22.306 18.991 19.365 L 19.002 16.424 20.211 17.628 C 20.876 18.290,21.483 18.864,21.560 18.905 C 21.659 18.957,21.787 18.979,22.000 18.979 C 22.258 18.980,22.327 18.964,22.492 18.867 C 22.714 18.737,22.901 18.498,22.965 18.264 C 23.019 18.061,22.989 17.733,22.899 17.555 C 22.862 17.481,21.884 16.469,20.726 15.306 C 18.433 13.004,18.429 13.001,18.000 13.001 C 17.851 13.001,17.716 13.031,17.580 13.096 " stroke="none" fill-rule="evenodd" fill="#000000"></path></svg>