<svg  xmlns="http://www.w3.org/2000/svg" width="24" height="24" viewBox="0 0 24 24" fill="none" stroke="currentColor" stroke-width="2" stroke-linecap="round" stroke-linejoin="round"><path d="M3.695 1.057 C 3.466 1.129,3.256 1.299,3.128 1.516 C 3.037 1.672,3.020 1.746,3.020 2.000 C 3.020 2.256,3.036 2.328,3.131 2.489 C 3.256 2.702,3.449 2.864,3.670 2.943 C 3.892 3.022,14.108 3.022,14.330 2.943 C 14.551 2.864,14.744 2.702,14.869 2.489 C 14.964 2.328,14.980 2.256,14.980 2.000 C 14.980 1.746,14.963 1.672,14.872 1.516 C 14.740 1.293,14.533 1.128,14.290 1.055 C 14.028 0.976,3.946 0.978,3.695 1.057 M4.477 5.073 C 3.806 5.249,3.238 5.823,3.060 6.508 C 3.013 6.687,3.000 7.009,3.000 8.000 C 3.000 9.368,3.018 9.521,3.225 9.930 C 3.361 10.199,3.801 10.639,4.070 10.775 C 4.540 11.013,4.078 11.000,12.000 11.000 C 19.922 11.000,19.460 11.013,19.930 10.775 C 20.196 10.640,20.638 10.200,20.771 9.937 C 20.979 9.527,21.000 9.352,20.999 8.014 C 20.999 6.682,20.974 6.463,20.781 6.083 C 20.646 5.816,20.297 5.449,20.017 5.281 C 19.525 4.985,20.100 5.005,12.000 5.005 C 5.266 5.005,4.721 5.010,4.477 5.073 M19.000 8.000 L 19.000 9.000 12.000 9.000 L 5.000 9.000 5.000 8.000 L 5.000 7.000 12.000 7.000 L 19.000 7.000 19.000 8.000 M3.695 13.057 C 3.466 13.129,3.256 13.299,3.128 13.516 C 3.037 13.672,3.020 13.746,3.020 14.000 C 3.020 14.256,3.036 14.328,3.131 14.489 C 3.256 14.702,3.449 14.864,3.670 14.943 C 3.891 15.022,10.109 15.022,10.330 14.943 C 10.551 14.864,10.744 14.702,10.869 14.489 C 10.964 14.328,10.980 14.256,10.980 14.000 C 10.980 13.746,10.963 13.672,10.872 13.516 C 10.740 13.293,10.533 13.128,10.290 13.055 C 10.030 12.977,3.945 12.979,3.695 13.057 M4.477 17.073 C 3.806 17.249,3.238 17.823,3.060 18.508 C 3.013 18.687,3.000 19.009,3.000 20.000 C 3.000 21.368,3.018 21.521,3.225 21.930 C 3.361 22.199,3.801 22.639,4.070 22.775 C 4.540 23.013,4.078 23.000,12.000 23.000 C 19.922 23.000,19.460 23.013,19.930 22.775 C 20.196 22.640,20.638 22.200,20.771 21.937 C 20.979 21.527,21.000 21.352,20.999 20.014 C 20.999 18.682,20.974 18.463,20.781 18.083 C 20.646 17.816,20.297 17.449,20.017 17.281 C 19.525 16.985,20.100 17.005,12.000 17.005 C 5.266 17.005,4.721 17.010,4.477 17.073 M19.000 20.000 L 19.000 21.000 12.000 21.000 L 5.000 21.000 5.000 20.000 L 5.000 19.000 12.000 19.000 L 19.000 19.000 19.000 20.000 " stroke="none" fill-rule="evenodd" fill="#000000"></path></svg>