<svg  xmlns="http://www.w3.org/2000/svg" width="24" height="24" viewBox="0 0 24 24" fill="none" stroke="currentColor" stroke-width="2" stroke-linecap="round" stroke-linejoin="round"><path d="M4.499 2.043 C 3.379 2.233,2.461 3.048,2.114 4.160 L 2.020 4.460 2.020 12.000 L 2.020 19.540 2.114 19.840 C 2.418 20.816,3.149 21.554,4.140 21.886 L 4.420 21.980 8.271 21.991 C 10.824 21.999,12.173 21.989,12.275 21.961 C 12.498 21.901,12.739 21.711,12.867 21.492 C 12.964 21.327,12.980 21.257,12.980 21.000 C 12.980 20.746,12.963 20.672,12.872 20.516 C 12.761 20.328,12.572 20.158,12.373 20.070 C 12.286 20.032,11.383 20.015,8.480 20.000 L 4.700 19.980 4.516 19.872 C 4.415 19.813,4.284 19.700,4.225 19.623 C 3.986 19.309,4.000 19.795,4.000 12.022 C 4.000 4.006,3.975 4.631,4.303 4.303 C 4.625 3.981,4.307 4.000,9.447 4.000 L 14.000 4.000 14.000 6.132 C 14.000 8.443,14.004 8.494,14.225 8.930 C 14.361 9.199,14.801 9.639,15.070 9.775 C 15.506 9.996,15.557 10.000,17.866 10.000 L 19.995 10.000 20.008 11.153 L 20.020 12.307 20.141 12.503 C 20.543 13.156,21.457 13.156,21.859 12.503 L 21.980 12.306 21.980 10.363 L 21.979 8.420 21.867 8.060 C 21.733 7.627,21.505 7.193,21.241 6.863 C 20.921 6.464,17.162 2.748,16.920 2.592 C 16.585 2.376,16.319 2.252,15.932 2.130 L 15.580 2.020 10.140 2.014 C 7.148 2.011,4.609 2.024,4.499 2.043 M17.800 6.220 L 19.580 8.000 17.790 8.000 L 16.000 8.000 16.000 6.220 C 16.000 5.241,16.005 4.440,16.010 4.440 C 16.016 4.440,16.821 5.241,17.800 6.220 M15.670 15.061 C 15.448 15.142,15.250 15.309,15.128 15.516 C 15.037 15.672,15.020 15.746,15.020 16.000 C 15.020 16.254,15.036 16.328,15.127 16.480 C 15.186 16.579,15.650 17.074,16.157 17.579 L 17.079 18.499 16.124 19.459 C 15.599 19.988,15.138 20.481,15.101 20.555 C 14.872 21.009,15.056 21.601,15.508 21.867 C 15.673 21.964,15.743 21.980,16.000 21.980 C 16.254 21.980,16.328 21.964,16.480 21.873 C 16.579 21.814,17.074 21.350,17.579 20.843 L 18.499 19.921 19.459 20.876 C 19.988 21.401,20.483 21.864,20.560 21.905 C 20.659 21.957,20.787 21.979,21.000 21.979 C 21.258 21.980,21.327 21.964,21.492 21.867 C 21.714 21.737,21.901 21.498,21.965 21.264 C 22.019 21.061,21.989 20.733,21.899 20.555 C 21.862 20.481,21.401 19.988,20.876 19.459 L 19.921 18.499 20.843 17.579 C 21.350 17.074,21.814 16.579,21.873 16.480 C 21.964 16.328,21.980 16.254,21.980 16.000 C 21.980 15.746,21.963 15.672,21.872 15.516 C 21.618 15.084,21.136 14.905,20.657 15.066 C 20.486 15.124,20.330 15.262,19.480 16.104 L 18.500 17.076 17.520 16.104 C 16.671 15.262,16.514 15.124,16.343 15.066 C 16.108 14.987,15.875 14.985,15.670 15.061 " stroke="none" fill-rule="evenodd" fill="#000000"></path></svg>