<svg  xmlns="http://www.w3.org/2000/svg" width="24" height="24" viewBox="0 0 24 24" fill="none" stroke="currentColor" stroke-width="2" stroke-linecap="round" stroke-linejoin="round"><path d="M1.670 1.061 C 1.448 1.142,1.250 1.309,1.128 1.516 C 1.036 1.672,1.020 1.745,1.021 2.000 C 1.021 2.212,1.043 2.341,1.095 2.440 C 1.135 2.517,1.908 3.322,2.812 4.228 L 4.455 5.877 3.917 6.428 C 2.612 7.764,1.744 9.246,1.180 11.100 C 0.942 11.883,0.950 12.330,1.210 12.880 C 1.364 13.206,1.771 13.623,2.080 13.772 C 2.571 14.008,2.407 14.000,6.887 14.000 L 10.997 14.000 11.009 17.290 L 11.021 20.580 11.114 20.860 C 11.445 21.850,12.185 22.583,13.160 22.886 C 13.594 23.021,14.406 23.021,14.840 22.886 C 15.827 22.579,16.584 21.821,16.885 20.840 C 16.955 20.611,16.977 20.440,16.978 20.120 C 16.980 19.733,16.971 19.686,16.871 19.514 C 16.568 18.998,15.883 18.854,15.405 19.205 C 15.169 19.379,15.047 19.609,15.002 19.966 C 14.981 20.130,14.945 20.314,14.922 20.375 C 14.851 20.561,14.677 20.758,14.484 20.872 C 14.328 20.963,14.254 20.980,14.000 20.980 C 13.746 20.980,13.672 20.963,13.516 20.872 C 13.415 20.813,13.284 20.700,13.225 20.623 C 12.995 20.321,13.000 20.399,13.000 17.285 L 13.000 14.421 17.210 18.626 C 19.526 20.939,21.483 22.865,21.560 22.905 C 21.659 22.957,21.788 22.979,22.000 22.979 C 22.258 22.980,22.327 22.964,22.492 22.867 C 22.968 22.587,23.139 21.967,22.865 21.508 C 22.810 21.416,18.215 16.793,12.653 11.235 C 3.300 1.889,2.525 1.125,2.343 1.065 C 2.107 0.987,1.874 0.986,1.670 1.061 M11.695 1.057 C 11.466 1.129,11.256 1.299,11.128 1.516 C 11.024 1.693,11.019 1.726,11.007 2.368 L 10.993 3.036 10.807 3.061 C 10.158 3.147,9.597 3.257,9.450 3.326 C 9.226 3.433,9.015 3.685,8.933 3.944 C 8.805 4.352,8.988 4.818,9.370 5.054 C 9.644 5.223,9.816 5.242,10.307 5.157 C 11.899 4.881,13.436 4.984,14.900 5.467 C 17.328 6.268,19.317 8.030,20.407 10.348 C 20.565 10.684,21.000 11.879,21.000 11.977 C 21.000 11.988,20.410 12.001,19.690 12.008 C 18.433 12.020,18.373 12.024,18.217 12.107 C 17.583 12.447,17.474 13.259,17.999 13.731 C 18.105 13.827,18.263 13.926,18.351 13.952 C 18.561 14.016,21.108 14.018,21.408 13.956 C 22.175 13.796,22.811 13.147,22.962 12.369 C 23.031 12.014,22.991 11.653,22.821 11.100 C 22.290 9.370,21.491 7.943,20.369 6.720 C 19.252 5.503,18.003 4.604,16.517 3.949 C 15.490 3.496,14.470 3.223,13.193 3.060 L 13.007 3.036 12.993 2.368 C 12.981 1.726,12.976 1.693,12.872 1.516 C 12.628 1.101,12.150 0.915,11.695 1.057 M8.240 9.660 L 10.580 12.000 6.787 12.000 L 2.995 12.000 3.022 11.910 C 3.457 10.492,4.013 9.411,4.824 8.404 C 5.074 8.094,5.827 7.320,5.878 7.320 C 5.890 7.320,6.953 8.373,8.240 9.660 " stroke="none" fill-rule="evenodd" fill="#000000"></path></svg>