<svg  xmlns="http://www.w3.org/2000/svg" width="24" height="24" viewBox="0 0 24 24" fill="none" stroke="currentColor" stroke-width="2" stroke-linecap="round" stroke-linejoin="round"><path d="M5.499 1.043 C 4.379 1.234,3.461 2.048,3.114 3.160 L 3.020 3.460 3.020 12.000 L 3.020 20.540 3.114 20.840 C 3.422 21.827,4.173 22.578,5.160 22.886 L 5.460 22.980 12.000 22.980 L 18.540 22.980 18.840 22.886 C 19.827 22.578,20.578 21.827,20.886 20.840 L 20.980 20.540 20.980 13.980 L 20.980 7.420 20.868 7.060 C 20.728 6.613,20.498 6.179,20.219 5.840 C 19.855 5.397,16.159 1.747,15.910 1.585 C 15.591 1.378,15.236 1.218,14.860 1.111 L 14.540 1.021 10.120 1.015 C 7.689 1.011,5.609 1.024,5.499 1.043 M13.000 5.132 C 13.000 7.443,13.004 7.494,13.225 7.930 C 13.361 8.199,13.801 8.639,14.070 8.775 C 14.506 8.996,14.557 9.000,16.868 9.000 L 19.000 9.000 19.000 14.554 C 19.000 19.144,18.990 20.139,18.945 20.290 C 18.872 20.533,18.707 20.740,18.484 20.872 L 18.300 20.980 12.000 20.980 L 5.700 20.980 5.516 20.872 C 5.415 20.813,5.284 20.700,5.225 20.623 C 4.985 20.308,5.000 20.888,5.000 12.022 C 5.000 2.888,4.974 3.632,5.304 3.303 C 5.615 2.991,5.409 3.006,9.430 3.003 L 13.000 3.000 13.000 5.132 M16.800 5.220 L 18.580 7.000 16.790 7.000 L 15.000 7.000 15.000 5.220 C 15.000 4.241,15.005 3.440,15.010 3.440 C 15.016 3.440,15.821 4.241,16.800 5.220 M9.044 11.625 C 8.787 11.753,8.583 12.016,8.529 12.289 C 8.482 12.527,8.535 12.851,8.649 13.019 C 8.694 13.085,9.147 13.558,9.655 14.070 L 10.579 15.000 9.655 15.930 C 9.147 16.442,8.695 16.914,8.651 16.980 C 8.376 17.389,8.513 18.026,8.940 18.320 C 9.238 18.525,9.740 18.540,10.017 18.352 C 10.085 18.306,10.558 17.853,11.070 17.345 L 12.000 16.421 12.930 17.345 C 13.442 17.853,13.915 18.306,13.981 18.351 C 14.262 18.541,14.762 18.525,15.065 18.317 C 15.478 18.033,15.618 17.376,15.351 16.981 C 15.306 16.915,14.853 16.442,14.345 15.930 L 13.421 15.001 14.369 14.050 C 15.074 13.343,15.337 13.052,15.398 12.914 C 15.695 12.241,15.230 11.518,14.502 11.521 C 14.089 11.522,13.997 11.588,12.950 12.631 L 12.000 13.578 11.050 12.631 C 10.371 11.954,10.049 11.661,9.920 11.603 C 9.654 11.483,9.313 11.492,9.044 11.625 " stroke="none" fill-rule="evenodd" fill="#000000"></path></svg>