<svg  xmlns="http://www.w3.org/2000/svg" width="24" height="24" viewBox="0 0 24 24" fill="none" stroke="currentColor" stroke-width="2" stroke-linecap="round" stroke-linejoin="round"><path d="M2.695 4.057 C 2.466 4.129,2.256 4.299,2.128 4.516 C 2.037 4.672,2.020 4.746,2.020 5.000 C 2.020 5.256,2.036 5.328,2.131 5.489 C 2.256 5.702,2.449 5.864,2.670 5.943 C 2.893 6.023,21.107 6.023,21.330 5.943 C 21.551 5.864,21.744 5.702,21.869 5.489 C 21.964 5.328,21.980 5.256,21.980 5.000 C 21.980 4.746,21.963 4.672,21.872 4.516 C 21.740 4.293,21.533 4.128,21.290 4.055 C 21.027 3.976,2.947 3.978,2.695 4.057 M2.695 11.057 C 2.466 11.129,2.256 11.299,2.128 11.516 C 2.037 11.672,2.020 11.746,2.020 12.000 C 2.020 12.256,2.036 12.328,2.131 12.489 C 2.256 12.702,2.449 12.864,2.670 12.943 C 2.793 12.987,4.154 12.997,10.280 12.999 C 16.670 13.001,17.780 13.010,18.020 13.060 C 18.741 13.211,19.395 13.713,19.715 14.362 C 20.087 15.118,20.090 15.878,19.723 16.620 C 19.439 17.195,18.934 17.645,18.320 17.868 L 18.020 17.978 16.720 17.991 L 15.420 18.005 16.125 17.292 C 16.513 16.901,16.864 16.517,16.904 16.440 C 16.957 16.340,16.979 16.213,16.979 16.000 C 16.980 15.745,16.964 15.672,16.872 15.516 C 16.618 15.084,16.137 14.906,15.657 15.066 C 15.481 15.124,15.284 15.307,13.825 16.756 C 12.040 18.530,12.001 18.578,12.001 19.000 C 12.001 19.420,12.043 19.472,13.806 21.226 C 14.694 22.109,15.483 22.865,15.560 22.905 C 15.659 22.957,15.788 22.979,16.000 22.979 C 16.258 22.980,16.327 22.964,16.492 22.867 C 16.714 22.737,16.901 22.498,16.965 22.264 C 17.019 22.061,16.989 21.733,16.899 21.555 C 16.861 21.481,16.515 21.102,16.130 20.713 L 15.429 20.006 16.805 19.991 C 18.132 19.975,18.193 19.971,18.563 19.871 C 20.551 19.336,21.890 17.711,21.988 15.717 C 22.103 13.380,20.379 11.329,18.060 11.044 C 17.499 10.976,2.916 10.988,2.695 11.057 M2.695 18.057 C 2.466 18.129,2.256 18.299,2.128 18.516 C 2.037 18.672,2.020 18.746,2.020 19.000 C 2.020 19.256,2.036 19.328,2.131 19.489 C 2.256 19.702,2.449 19.864,2.670 19.943 C 2.891 20.022,9.109 20.022,9.330 19.943 C 9.551 19.864,9.744 19.702,9.869 19.489 C 9.964 19.328,9.980 19.256,9.980 19.000 C 9.980 18.746,9.963 18.672,9.872 18.516 C 9.740 18.293,9.533 18.128,9.290 18.055 C 9.030 17.977,2.945 17.979,2.695 18.057 " stroke="none" fill-rule="evenodd" fill="#000000"></path></svg>