<svg  xmlns="http://www.w3.org/2000/svg" width="24" height="24" viewBox="0 0 24 24" fill="none" stroke="currentColor" stroke-width="2" stroke-linecap="round" stroke-linejoin="round"><path d="M1.670 1.061 C 1.448 1.142,1.250 1.309,1.128 1.516 C 1.036 1.672,1.020 1.745,1.021 2.000 C 1.021 2.212,1.043 2.341,1.095 2.440 C 1.135 2.517,2.758 4.173,4.701 6.120 L 8.234 9.660 7.127 11.681 C 6.518 12.792,5.882 13.953,5.713 14.261 C 4.137 17.135,3.316 18.664,3.224 18.894 C 2.612 20.423,3.347 22.157,4.863 22.764 C 5.490 23.015,5.106 23.003,12.151 22.991 L 18.580 22.980 18.860 22.885 C 19.415 22.698,19.784 22.463,20.197 22.032 L 20.398 21.822 20.909 22.326 C 21.190 22.603,21.483 22.863,21.560 22.904 C 21.660 22.957,21.786 22.979,22.000 22.979 C 22.258 22.980,22.327 22.964,22.492 22.867 C 22.968 22.587,23.139 21.967,22.865 21.508 C 22.810 21.416,18.215 16.793,12.653 11.235 C 3.300 1.889,2.525 1.125,2.343 1.065 C 2.107 0.987,1.874 0.986,1.670 1.061 M8.240 1.037 C 7.793 1.175,7.512 1.546,7.512 2.000 C 7.512 2.405,7.719 2.724,8.100 2.905 C 8.263 2.982,8.365 2.999,8.650 3.000 L 9.000 3.000 9.000 3.745 C 9.000 4.206,9.018 4.551,9.048 4.649 C 9.115 4.874,9.402 5.179,9.627 5.265 C 9.862 5.355,10.138 5.355,10.373 5.265 C 10.598 5.179,10.885 4.874,10.952 4.649 C 10.982 4.551,11.000 4.206,11.000 3.745 L 11.000 3.000 12.000 3.000 L 13.000 3.000 13.000 5.745 C 13.000 7.751,13.013 8.534,13.048 8.649 C 13.074 8.737,13.173 8.895,13.269 9.001 C 13.755 9.542,14.594 9.409,14.906 8.740 L 14.999 8.540 15.000 5.770 L 15.000 3.000 15.350 3.000 C 15.635 2.999,15.737 2.982,15.900 2.905 C 16.281 2.724,16.488 2.405,16.488 2.000 C 16.488 1.615,16.293 1.297,15.940 1.106 L 15.780 1.020 12.060 1.013 C 10.014 1.009,8.295 1.020,8.240 1.037 M11.160 12.580 L 12.580 14.000 10.366 14.000 C 9.036 14.000,8.159 13.985,8.167 13.963 C 8.204 13.860,9.698 11.160,9.717 11.160 C 9.730 11.160,10.379 11.799,11.160 12.580 M16.750 18.170 C 17.943 19.363,18.920 20.359,18.920 20.382 C 18.920 20.476,18.661 20.768,18.486 20.871 L 18.300 20.980 12.000 20.980 L 5.700 20.980 5.516 20.872 C 5.112 20.635,4.906 20.126,5.047 19.716 C 5.072 19.641,5.533 18.774,6.071 17.790 L 7.048 16.000 10.814 16.000 L 14.580 16.000 16.750 18.170 " stroke="none" fill-rule="evenodd" fill="#000000"></path></svg>