<svg  xmlns="http://www.w3.org/2000/svg" width="24" height="24" viewBox="0 0 24 24" fill="none" stroke="currentColor" stroke-width="2" stroke-linecap="round" stroke-linejoin="round"><path d="M2.695 4.057 C 2.466 4.129,2.256 4.299,2.128 4.516 C 2.037 4.672,2.020 4.746,2.020 5.000 C 2.020 5.256,2.036 5.328,2.131 5.489 C 2.256 5.702,2.449 5.864,2.670 5.943 C 2.878 6.017,4.122 6.017,4.330 5.943 C 4.551 5.864,4.744 5.702,4.869 5.489 C 4.964 5.328,4.980 5.256,4.980 5.000 C 4.980 4.746,4.963 4.672,4.872 4.516 C 4.740 4.293,4.533 4.128,4.290 4.055 C 4.050 3.983,2.928 3.984,2.695 4.057 M7.695 4.057 C 7.466 4.129,7.256 4.299,7.128 4.516 C 7.037 4.672,7.020 4.746,7.020 5.000 C 7.020 5.256,7.036 5.328,7.131 5.489 C 7.256 5.702,7.449 5.864,7.670 5.943 C 7.878 6.017,9.122 6.017,9.330 5.943 C 9.551 5.864,9.744 5.702,9.869 5.489 C 9.964 5.328,9.980 5.256,9.980 5.000 C 9.980 4.746,9.963 4.672,9.872 4.516 C 9.740 4.293,9.533 4.128,9.290 4.055 C 9.050 3.983,7.928 3.984,7.695 4.057 M12.695 4.057 C 12.466 4.129,12.256 4.299,12.128 4.516 C 12.037 4.672,12.020 4.746,12.020 5.000 C 12.020 5.256,12.036 5.328,12.131 5.489 C 12.256 5.702,12.449 5.864,12.670 5.943 C 12.892 6.022,21.108 6.022,21.330 5.943 C 21.551 5.864,21.744 5.702,21.869 5.489 C 21.964 5.328,21.980 5.256,21.980 5.000 C 21.980 4.746,21.963 4.672,21.872 4.516 C 21.740 4.293,21.533 4.128,21.290 4.055 C 21.029 3.976,12.946 3.979,12.695 4.057 M2.695 11.057 C 2.466 11.129,2.256 11.299,2.128 11.516 C 2.037 11.672,2.020 11.746,2.020 12.000 C 2.020 12.256,2.036 12.328,2.131 12.489 C 2.256 12.702,2.449 12.864,2.670 12.943 C 2.878 13.017,4.122 13.017,4.330 12.943 C 4.551 12.864,4.744 12.702,4.869 12.489 C 4.964 12.328,4.980 12.256,4.980 12.000 C 4.980 11.746,4.963 11.672,4.872 11.516 C 4.740 11.293,4.533 11.128,4.290 11.055 C 4.050 10.983,2.928 10.984,2.695 11.057 M7.695 11.057 C 7.466 11.129,7.256 11.299,7.128 11.516 C 7.037 11.672,7.020 11.746,7.020 12.000 C 7.020 12.256,7.036 12.328,7.131 12.489 C 7.256 12.702,7.449 12.864,7.670 12.943 C 7.878 13.017,9.122 13.017,9.330 12.943 C 9.551 12.864,9.744 12.702,9.869 12.489 C 9.964 12.328,9.980 12.256,9.980 12.000 C 9.980 11.746,9.963 11.672,9.872 11.516 C 9.740 11.293,9.533 11.128,9.290 11.055 C 9.050 10.983,7.928 10.984,7.695 11.057 M12.695 11.057 C 12.466 11.129,12.256 11.299,12.128 11.516 C 12.037 11.672,12.020 11.746,12.020 12.000 C 12.020 12.256,12.036 12.328,12.131 12.489 C 12.256 12.702,12.449 12.864,12.670 12.943 C 12.892 13.022,21.108 13.022,21.330 12.943 C 21.551 12.864,21.744 12.702,21.869 12.489 C 21.964 12.328,21.980 12.256,21.980 12.000 C 21.980 11.746,21.963 11.672,21.872 11.516 C 21.740 11.293,21.533 11.128,21.290 11.055 C 21.029 10.976,12.946 10.979,12.695 11.057 M2.695 18.057 C 2.466 18.129,2.256 18.299,2.128 18.516 C 2.037 18.672,2.020 18.746,2.020 19.000 C 2.020 19.256,2.036 19.328,2.131 19.489 C 2.256 19.702,2.449 19.864,2.670 19.943 C 2.878 20.017,4.122 20.017,4.330 19.943 C 4.551 19.864,4.744 19.702,4.869 19.489 C 4.964 19.328,4.980 19.256,4.980 19.000 C 4.980 18.746,4.963 18.672,4.872 18.516 C 4.740 18.293,4.533 18.128,4.290 18.055 C 4.050 17.983,2.928 17.984,2.695 18.057 M7.695 18.057 C 7.466 18.129,7.256 18.299,7.128 18.516 C 7.037 18.672,7.020 18.746,7.020 19.000 C 7.020 19.256,7.036 19.328,7.131 19.489 C 7.256 19.702,7.449 19.864,7.670 19.943 C 7.878 20.017,9.122 20.017,9.330 19.943 C 9.551 19.864,9.744 19.702,9.869 19.489 C 9.964 19.328,9.980 19.256,9.980 19.000 C 9.980 18.746,9.963 18.672,9.872 18.516 C 9.740 18.293,9.533 18.128,9.290 18.055 C 9.050 17.983,7.928 17.984,7.695 18.057 M12.695 18.057 C 12.466 18.129,12.256 18.299,12.128 18.516 C 12.037 18.672,12.020 18.746,12.020 19.000 C 12.020 19.256,12.036 19.328,12.131 19.489 C 12.256 19.702,12.449 19.864,12.670 19.943 C 12.892 20.022,21.108 20.022,21.330 19.943 C 21.551 19.864,21.744 19.702,21.869 19.489 C 21.964 19.328,21.980 19.256,21.980 19.000 C 21.980 18.746,21.963 18.672,21.872 18.516 C 21.740 18.293,21.533 18.128,21.290 18.055 C 21.029 17.976,12.946 17.979,12.695 18.057 " stroke="none" fill-rule="evenodd" fill="#000000"></path></svg>