<svg  xmlns="http://www.w3.org/2000/svg" width="24" height="24" viewBox="0 0 24 24" fill="none" stroke="currentColor" stroke-width="2" stroke-linecap="round" stroke-linejoin="round"><path d="M5.499 1.042 C 4.378 1.234,3.461 2.048,3.114 3.160 L 3.020 3.460 3.020 12.000 L 3.020 20.540 3.114 20.840 C 3.418 21.816,4.152 22.556,5.140 22.885 L 5.420 22.979 8.039 22.991 C 10.966 23.005,10.850 23.015,11.173 22.724 C 11.381 22.536,11.488 22.292,11.488 22.003 C 11.488 21.615,11.294 21.298,10.940 21.106 C 10.782 21.021,10.749 21.020,8.240 21.000 L 5.700 20.980 5.516 20.872 C 5.415 20.813,5.284 20.700,5.225 20.623 C 4.985 20.308,5.000 20.888,5.000 12.022 C 5.000 2.889,4.974 3.632,5.303 3.303 C 5.621 2.986,5.423 3.000,9.447 3.000 L 13.000 3.000 13.000 5.132 C 13.000 7.443,13.004 7.494,13.225 7.930 C 13.361 8.199,13.801 8.639,14.070 8.775 C 14.506 8.996,14.557 9.000,16.867 9.000 L 18.998 9.000 19.009 11.653 L 19.020 14.306 19.141 14.503 C 19.543 15.156,20.457 15.156,20.859 14.503 L 20.980 14.306 20.980 10.863 L 20.980 7.420 20.868 7.060 C 20.732 6.627,20.505 6.192,20.241 5.863 C 19.921 5.464,16.162 1.748,15.920 1.592 C 15.585 1.376,15.319 1.252,14.932 1.131 L 14.580 1.020 10.140 1.014 C 7.698 1.011,5.609 1.024,5.499 1.042 M16.800 5.220 L 18.580 7.000 16.790 7.000 L 15.000 7.000 15.000 5.220 C 15.000 4.241,15.005 3.440,15.010 3.440 C 15.016 3.440,15.821 4.241,16.800 5.220 M19.640 17.068 C 19.488 17.121,19.196 17.394,17.731 18.853 L 16.002 20.575 15.271 19.855 C 14.655 19.247,14.509 19.123,14.343 19.067 C 13.865 18.905,13.383 19.083,13.128 19.516 C 13.036 19.672,13.020 19.745,13.021 20.000 C 13.021 20.213,13.043 20.341,13.095 20.440 C 13.197 20.633,15.297 22.740,15.520 22.873 C 15.673 22.964,15.745 22.980,16.000 22.979 C 16.212 22.979,16.341 22.957,16.440 22.905 C 16.632 22.805,20.739 18.705,20.873 18.480 C 20.964 18.328,20.980 18.254,20.980 18.000 C 20.980 17.746,20.963 17.672,20.872 17.516 C 20.617 17.083,20.121 16.903,19.640 17.068 " stroke="none" fill-rule="evenodd" fill="#000000"></path></svg>