<svg  xmlns="http://www.w3.org/2000/svg" width="24" height="24" viewBox="0 0 24 24" fill="none" stroke="currentColor" stroke-width="2" stroke-linecap="round" stroke-linejoin="round"><path d="M4.499 2.043 C 3.380 2.232,2.461 3.048,2.114 4.160 L 2.020 4.460 2.020 12.000 L 2.020 19.540 2.114 19.840 C 2.418 20.816,3.150 21.555,4.140 21.886 L 4.420 21.979 7.655 21.991 C 11.261 22.005,11.124 22.014,11.415 21.732 C 11.649 21.505,11.737 21.304,11.737 21.000 C 11.737 20.607,11.548 20.303,11.181 20.106 C 11.031 20.026,10.954 20.019,10.010 20.008 L 9.000 19.995 9.000 17.998 L 9.000 16.000 9.590 15.998 C 9.977 15.997,10.232 15.978,10.330 15.943 C 10.551 15.864,10.744 15.702,10.869 15.489 C 10.964 15.328,10.980 15.256,10.980 15.000 C 10.980 14.746,10.963 14.672,10.872 14.516 C 10.813 14.415,10.698 14.282,10.618 14.221 C 10.325 13.997,10.367 14.000,7.054 14.000 L 4.000 14.000 4.000 12.000 L 4.000 10.000 7.500 10.000 L 11.000 10.000 11.000 10.230 C 11.001 10.632,11.258 11.032,11.609 11.178 C 11.800 11.258,12.200 11.258,12.391 11.178 C 12.742 11.032,12.999 10.632,13.000 10.230 L 13.000 10.000 14.170 10.000 C 15.313 9.999,15.345 9.997,15.542 9.905 C 15.653 9.853,15.816 9.729,15.907 9.626 C 16.006 9.513,16.104 9.440,16.156 9.440 C 16.418 9.440,16.753 9.180,16.905 8.860 L 16.999 8.660 17.000 6.330 L 17.000 4.000 18.053 4.000 C 19.297 4.000,19.416 4.022,19.697 4.303 C 20.003 4.610,20.000 4.580,20.000 7.080 C 20.000 9.557,19.995 9.508,20.303 9.817 C 20.703 10.217,21.297 10.217,21.698 9.816 C 22.013 9.500,22.006 9.576,21.991 6.834 C 21.978 4.431,21.978 4.419,21.885 4.140 C 21.560 3.161,20.821 2.425,19.861 2.121 L 19.540 2.020 12.120 2.014 C 8.039 2.011,4.609 2.024,4.499 2.043 M7.000 6.000 L 7.000 8.000 5.500 8.000 L 4.000 8.000 4.000 6.447 C 4.000 4.649,4.007 4.599,4.304 4.303 C 4.582 4.024,4.680 4.006,5.930 4.003 L 7.000 4.000 7.000 6.000 M15.000 6.000 L 15.000 8.000 12.000 8.000 L 9.000 8.000 9.000 6.000 L 9.000 4.000 12.000 4.000 L 15.000 4.000 15.000 6.000 M17.639 11.054 C 17.386 11.109,17.145 11.240,16.835 11.493 C 16.146 12.054,15.351 12.405,14.557 12.497 C 13.987 12.564,13.726 12.670,13.445 12.951 C 13.223 13.173,13.132 13.330,13.054 13.620 C 12.971 13.933,12.978 17.777,13.062 18.355 C 13.287 19.881,14.164 21.146,15.620 22.041 C 16.380 22.508,17.604 23.000,18.007 23.000 C 18.360 23.000,19.026 22.757,19.870 22.320 C 21.580 21.434,22.541 20.254,22.909 18.586 C 22.993 18.204,23.035 14.030,22.959 13.680 C 22.892 13.374,22.785 13.181,22.556 12.952 C 22.274 12.670,22.013 12.564,21.443 12.497 C 20.677 12.408,20.000 12.116,19.241 11.547 C 18.734 11.168,18.609 11.100,18.301 11.044 C 18.017 10.991,17.926 10.992,17.639 11.054 M18.327 13.359 C 18.957 13.812,20.039 14.291,20.718 14.416 L 20.980 14.465 20.980 16.262 C 20.980 18.019,20.978 18.067,20.888 18.380 C 20.635 19.258,20.141 19.856,19.200 20.422 C 18.936 20.581,18.100 20.959,18.012 20.960 C 17.926 20.960,17.108 20.596,16.820 20.429 C 15.885 19.887,15.367 19.266,15.112 18.380 C 15.022 18.067,15.020 18.019,15.020 16.262 L 15.020 14.465 15.282 14.416 C 15.964 14.290,17.060 13.805,17.660 13.363 C 17.836 13.233,17.983 13.126,17.987 13.124 C 17.992 13.122,18.145 13.228,18.327 13.359 M7.000 18.002 L 7.000 20.005 5.850 19.992 L 4.700 19.980 4.516 19.872 C 4.415 19.813,4.284 19.700,4.225 19.623 C 4.006 19.336,4.000 19.283,4.000 17.575 L 4.000 16.000 5.500 16.000 L 7.000 16.000 7.000 18.002 " stroke="none" fill-rule="evenodd" fill="#000000"></path></svg>