<svg  xmlns="http://www.w3.org/2000/svg" width="24" height="24" viewBox="0 0 24 24" fill="none" stroke="currentColor" stroke-width="2" stroke-linecap="round" stroke-linejoin="round"><path d="M5.499 1.042 C 4.388 1.232,3.488 2.024,3.114 3.140 L 3.020 3.420 3.009 9.540 C 2.996 16.371,2.975 15.839,3.276 16.173 C 3.464 16.381,3.708 16.488,3.997 16.488 C 4.405 16.488,4.724 16.282,4.905 15.900 L 4.999 15.700 5.000 9.797 C 5.000 3.150,4.978 3.629,5.303 3.303 C 5.621 2.986,5.423 3.000,9.447 3.000 L 13.000 3.000 13.000 5.132 C 13.000 7.443,13.004 7.494,13.225 7.930 C 13.361 8.199,13.801 8.639,14.070 8.775 C 14.506 8.996,14.557 9.000,16.868 9.000 L 19.000 9.000 19.000 14.554 C 19.000 19.144,18.990 20.139,18.945 20.290 C 18.872 20.533,18.707 20.740,18.484 20.872 L 18.300 20.980 15.840 21.000 C 13.413 21.020,13.378 21.021,13.220 21.106 C 12.866 21.298,12.672 21.615,12.672 22.003 C 12.672 22.292,12.779 22.536,12.987 22.724 C 13.310 23.015,13.204 23.005,16.041 22.991 C 18.576 22.978,18.580 22.978,18.860 22.885 C 19.848 22.557,20.581 21.816,20.886 20.840 L 20.980 20.540 20.980 13.980 L 20.980 7.420 20.868 7.060 C 20.732 6.627,20.505 6.192,20.241 5.863 C 19.921 5.464,16.162 1.748,15.920 1.592 C 15.585 1.376,15.319 1.252,14.932 1.131 L 14.580 1.020 10.140 1.014 C 7.698 1.011,5.609 1.024,5.499 1.042 M16.800 5.220 L 18.580 7.000 16.790 7.000 L 15.000 7.000 15.000 5.220 C 15.000 4.241,15.005 3.440,15.010 3.440 C 15.016 3.440,15.821 4.241,16.800 5.220 M7.695 5.057 C 7.466 5.129,7.256 5.299,7.128 5.516 C 7.020 5.699,7.020 5.703,7.020 6.503 L 7.020 7.306 7.141 7.503 C 7.543 8.156,8.457 8.156,8.859 7.503 L 8.980 7.306 8.980 6.503 C 8.980 5.703,8.980 5.699,8.872 5.516 C 8.628 5.101,8.150 4.915,7.695 5.057 M7.695 10.057 C 7.466 10.129,7.256 10.299,7.128 10.516 C 7.020 10.699,7.020 10.703,7.020 11.503 L 7.020 12.306 7.141 12.503 C 7.543 13.156,8.457 13.156,8.859 12.503 L 8.980 12.306 8.980 11.503 C 8.980 10.703,8.980 10.699,8.872 10.516 C 8.628 10.101,8.150 9.915,7.695 10.057 M7.695 15.057 C 7.466 15.129,7.256 15.299,7.128 15.516 C 7.023 15.695,7.020 15.721,7.007 16.424 L 6.994 17.148 6.667 17.315 C 5.922 17.693,5.364 18.356,5.114 19.160 C 4.979 19.594,4.979 20.406,5.114 20.840 C 5.421 21.826,6.174 22.579,7.160 22.886 C 7.412 22.964,7.547 22.979,8.000 22.979 C 8.453 22.979,8.588 22.964,8.840 22.886 C 9.826 22.579,10.579 21.826,10.886 20.840 C 11.021 20.406,11.021 19.594,10.886 19.160 C 10.636 18.356,10.078 17.693,9.333 17.315 L 9.006 17.148 8.993 16.424 C 8.980 15.721,8.977 15.695,8.872 15.516 C 8.628 15.101,8.150 14.915,7.695 15.057 M8.310 19.061 C 8.688 19.173,9.000 19.598,9.000 20.001 C 9.000 20.331,8.784 20.696,8.484 20.872 C 8.328 20.963,8.254 20.980,8.000 20.980 C 7.746 20.980,7.672 20.963,7.516 20.872 C 6.935 20.530,6.833 19.774,7.304 19.303 C 7.583 19.024,7.916 18.944,8.310 19.061 " stroke="none" fill-rule="evenodd" fill="#000000"></path></svg>