<svg  xmlns="http://www.w3.org/2000/svg" width="24" height="24" viewBox="0 0 24 24" fill="none" stroke="currentColor" stroke-width="2" stroke-linecap="round" stroke-linejoin="round"><path d="M1.670 1.061 C 1.448 1.142,1.250 1.309,1.128 1.516 C 1.037 1.672,1.020 1.746,1.020 2.000 C 1.020 2.254,1.036 2.327,1.127 2.480 C 1.186 2.579,1.857 3.281,2.617 4.040 L 4.000 5.420 4.000 12.821 C 4.000 20.912,3.986 20.417,4.228 20.920 C 4.366 21.206,4.794 21.634,5.080 21.772 C 5.590 22.018,6.153 22.060,6.642 21.888 C 6.763 21.845,7.870 21.234,9.102 20.531 C 10.333 19.827,11.434 19.204,11.549 19.146 C 11.837 19.000,12.163 19.000,12.451 19.146 C 12.566 19.204,13.667 19.827,14.898 20.531 C 16.130 21.234,17.237 21.845,17.358 21.888 C 17.681 22.002,18.123 22.024,18.440 21.944 C 18.853 21.839,19.115 21.691,19.416 21.391 L 19.693 21.115 20.556 21.973 C 21.031 22.445,21.483 22.864,21.560 22.905 C 21.659 22.957,21.787 22.979,22.000 22.979 C 22.258 22.980,22.327 22.964,22.492 22.867 C 22.968 22.587,23.139 21.967,22.865 21.508 C 22.810 21.416,18.215 16.793,12.653 11.235 C 3.300 1.889,2.525 1.125,2.343 1.065 C 2.107 0.987,1.874 0.986,1.670 1.061 M8.400 2.037 C 8.094 2.132,7.808 2.395,7.718 2.665 C 7.645 2.881,7.652 3.155,7.735 3.373 C 7.821 3.598,8.126 3.885,8.351 3.952 C 8.469 3.988,9.603 4.000,12.807 4.000 C 17.663 4.000,17.376 3.982,17.697 4.303 C 18.018 4.624,18.000 4.337,18.000 9.193 C 18.000 12.397,18.012 13.531,18.048 13.649 C 18.115 13.874,18.402 14.179,18.627 14.265 C 18.862 14.355,19.138 14.355,19.373 14.265 C 19.607 14.175,19.891 13.868,19.956 13.632 C 19.992 13.503,20.001 12.340,19.992 8.940 L 19.980 4.420 19.886 4.140 C 19.556 3.158,18.821 2.425,17.861 2.121 L 17.540 2.020 13.020 2.013 C 10.534 2.009,8.455 2.020,8.400 2.037 M17.992 19.706 L 17.980 19.989 15.820 18.751 C 14.632 18.070,13.516 17.443,13.340 17.357 C 12.502 16.948,11.554 16.932,10.740 17.315 C 10.546 17.405,6.611 19.636,6.130 19.928 L 6.000 20.007 6.000 13.713 L 6.000 7.420 12.002 13.422 L 18.004 19.424 17.992 19.706 " stroke="none" fill-rule="evenodd" fill="#000000"></path></svg>