<svg  xmlns="http://www.w3.org/2000/svg" width="24" height="24" viewBox="0 0 24 24" fill="none" stroke="currentColor" stroke-width="2" stroke-linecap="round" stroke-linejoin="round"><path d="M11.280 1.023 C 11.203 1.032,10.951 1.059,10.720 1.083 C 8.832 1.283,6.991 2.023,5.360 3.235 C 4.751 3.688,3.684 4.755,3.226 5.367 C 0.728 8.714,0.301 13.032,2.097 16.780 C 3.161 18.999,5.029 20.862,7.250 21.919 C 10.861 23.636,15.062 23.285,18.340 20.991 C 19.145 20.428,20.168 19.435,20.770 18.634 C 23.743 14.676,23.743 9.347,20.770 5.363 C 20.316 4.755,19.247 3.686,18.640 3.235 C 17.045 2.049,15.365 1.360,13.423 1.096 C 13.000 1.038,11.574 0.990,11.280 1.023 M13.320 3.101 C 15.883 3.488,18.124 4.931,19.560 7.120 C 19.863 7.583,20.303 8.479,20.492 9.020 C 20.838 10.013,20.977 10.865,20.977 12.000 C 20.977 12.888,20.919 13.397,20.733 14.160 C 20.390 15.571,19.640 16.974,18.651 18.055 L 18.454 18.271 18.269 17.899 C 17.683 16.720,16.809 15.761,15.680 15.060 C 15.471 14.930,15.293 14.819,15.284 14.813 C 15.276 14.807,15.420 14.643,15.604 14.449 C 16.273 13.745,16.699 12.931,16.907 11.960 C 17.008 11.489,17.008 10.511,16.907 10.040 C 16.539 8.320,15.370 6.941,13.753 6.320 C 12.699 5.915,11.302 5.915,10.248 6.320 C 9.067 6.774,8.072 7.675,7.526 8.785 C 7.158 9.533,7.020 10.136,7.020 11.000 C 7.020 11.448,7.040 11.714,7.093 11.960 C 7.302 12.937,7.723 13.743,8.391 14.445 C 8.578 14.641,8.724 14.807,8.716 14.814 C 8.707 14.820,8.529 14.930,8.320 15.058 C 7.212 15.738,6.319 16.717,5.738 17.886 L 5.546 18.271 5.349 18.055 C 4.360 16.974,3.610 15.571,3.267 14.160 C 3.081 13.397,3.023 12.888,3.023 12.000 C 3.023 10.507,3.280 9.379,3.920 8.060 C 4.971 5.891,6.877 4.221,9.160 3.466 C 9.865 3.233,10.432 3.118,11.340 3.024 C 11.662 2.991,12.911 3.039,13.320 3.101 M12.861 8.129 C 13.804 8.405,14.584 9.183,14.875 10.139 C 14.958 10.412,14.973 10.542,14.973 11.000 C 14.973 11.458,14.958 11.588,14.875 11.861 C 14.582 12.822,13.819 13.581,12.840 13.886 C 12.406 14.021,11.594 14.021,11.160 13.886 C 10.181 13.581,9.418 12.822,9.125 11.861 C 9.042 11.588,9.027 11.458,9.027 11.000 C 9.027 10.542,9.042 10.412,9.125 10.139 C 9.456 9.054,10.371 8.245,11.499 8.040 C 11.832 7.980,12.500 8.023,12.861 8.129 M12.620 16.044 C 14.467 16.271,16.083 17.557,16.701 19.291 C 16.809 19.595,16.810 19.604,16.736 19.661 C 16.694 19.693,16.372 19.863,16.020 20.039 C 13.455 21.323,10.504 21.320,7.960 20.032 C 7.104 19.598,7.165 19.667,7.299 19.291 C 7.520 18.672,7.888 18.078,8.358 17.584 C 9.487 16.397,11.010 15.847,12.620 16.044 " stroke="none" fill-rule="evenodd" fill="#000000"></path></svg>