<svg  xmlns="http://www.w3.org/2000/svg" width="24" height="24" viewBox="0 0 24 24" fill="none" stroke="currentColor" stroke-width="2" stroke-linecap="round" stroke-linejoin="round"><path d="M3.499 3.043 C 2.380 3.232,1.461 4.048,1.114 5.160 L 1.020 5.460 1.020 12.000 L 1.020 18.540 1.114 18.840 C 1.422 19.827,2.173 20.578,3.160 20.886 L 3.460 20.980 12.000 20.980 L 20.540 20.980 20.840 20.886 C 21.827 20.578,22.578 19.827,22.886 18.840 L 22.980 18.540 22.980 12.000 L 22.980 5.460 22.886 5.160 C 22.581 4.182,21.832 3.428,20.861 3.121 L 20.540 3.020 12.120 3.014 C 7.489 3.011,3.609 3.024,3.499 3.043 M20.310 5.061 C 20.589 5.144,20.856 5.411,20.939 5.690 C 20.992 5.869,21.000 6.651,21.000 12.001 C 21.000 17.059,20.991 18.139,20.945 18.290 C 20.872 18.533,20.707 18.740,20.484 18.872 L 20.300 18.980 12.000 18.980 L 3.700 18.980 3.516 18.872 C 3.303 18.747,3.141 18.550,3.058 18.316 C 2.968 18.060,2.971 5.993,3.061 5.690 C 3.140 5.421,3.412 5.143,3.673 5.063 C 3.833 5.014,5.030 5.005,11.983 5.003 C 19.144 5.000,20.130 5.007,20.310 5.061 M9.400 7.044 C 7.761 7.229,6.261 8.290,5.526 9.785 C 5.158 10.533,5.020 11.136,5.020 12.000 C 5.020 12.670,5.078 13.044,5.268 13.600 C 5.846 15.291,7.253 16.525,9.040 16.907 C 9.511 17.008,10.489 17.008,10.960 16.907 C 12.488 16.580,13.748 15.630,14.433 14.288 C 14.838 13.494,14.980 12.899,14.980 12.000 C 14.980 11.101,14.838 10.506,14.433 9.713 C 13.794 8.461,12.604 7.510,11.240 7.162 C 10.669 7.016,10.019 6.974,9.400 7.044 M17.695 7.057 C 17.466 7.129,17.256 7.299,17.128 7.516 L 17.020 7.700 16.997 10.260 C 16.977 12.417,16.963 12.873,16.907 13.160 C 16.743 13.995,16.561 14.525,16.177 15.280 C 15.962 15.703,15.943 15.761,15.945 16.000 C 15.950 16.916,17.074 17.344,17.676 16.659 C 17.865 16.443,18.331 15.459,18.537 14.840 C 18.746 14.210,18.899 13.488,18.961 12.840 C 18.988 12.549,19.000 11.518,18.992 10.040 L 18.980 7.700 18.872 7.516 C 18.628 7.101,18.150 6.915,17.695 7.057 M10.861 9.129 C 11.804 9.405,12.584 10.183,12.875 11.139 C 12.958 11.412,12.973 11.542,12.973 12.000 C 12.973 12.458,12.958 12.588,12.875 12.861 C 12.582 13.822,11.819 14.581,10.840 14.886 C 10.406 15.021,9.594 15.021,9.160 14.886 C 8.181 14.581,7.418 13.822,7.125 12.861 C 7.042 12.588,7.027 12.458,7.027 12.000 C 7.027 11.542,7.042 11.412,7.125 11.139 C 7.456 10.054,8.371 9.245,9.499 9.040 C 9.832 8.980,10.500 9.023,10.861 9.129 M9.800 11.037 C 9.310 11.137,8.961 11.608,9.012 12.100 C 9.078 12.747,9.683 13.138,10.336 12.956 C 10.546 12.898,10.898 12.546,10.956 12.336 C 11.032 12.065,11.010 11.796,10.895 11.564 C 10.794 11.363,10.573 11.155,10.380 11.081 C 10.244 11.030,9.947 11.007,9.800 11.037 " stroke="none" fill-rule="evenodd" fill="#000000"></path></svg>