<svg  xmlns="http://www.w3.org/2000/svg" width="24" height="24" viewBox="0 0 24 24" fill="none" stroke="currentColor" stroke-width="2" stroke-linecap="round" stroke-linejoin="round"><path d="M7.873 2.060 C 7.136 2.200,6.468 2.565,5.958 3.105 C 5.562 3.525,5.318 3.949,5.131 4.548 L 5.020 4.900 5.020 7.000 L 5.020 9.100 5.131 9.452 C 5.594 10.930,6.809 11.902,8.300 11.987 C 9.322 12.046,10.223 11.698,10.960 10.960 C 11.516 10.404,11.836 9.786,11.959 9.031 C 12.012 8.700,12.012 5.300,11.959 4.969 C 11.736 3.596,10.713 2.466,9.378 2.118 C 8.959 2.009,8.280 1.983,7.873 2.060 M16.873 2.060 C 16.136 2.200,15.468 2.565,14.958 3.105 C 14.562 3.525,14.318 3.949,14.131 4.548 L 14.020 4.900 14.020 7.000 L 14.020 9.100 14.131 9.452 C 14.594 10.930,15.809 11.902,17.300 11.987 C 18.322 12.046,19.223 11.698,19.960 10.960 C 20.516 10.404,20.836 9.786,20.959 9.031 C 21.012 8.700,21.012 5.300,20.959 4.969 C 20.736 3.596,19.713 2.466,18.378 2.118 C 17.959 2.009,17.280 1.983,16.873 2.060 M9.119 4.143 C 9.415 4.278,9.727 4.592,9.867 4.896 L 9.980 5.140 9.980 7.000 L 9.980 8.860 9.867 9.104 C 9.724 9.413,9.415 9.721,9.100 9.868 C 8.893 9.965,8.810 9.980,8.500 9.980 C 8.190 9.980,8.107 9.965,7.900 9.868 C 7.585 9.721,7.276 9.413,7.133 9.104 L 7.020 8.860 7.020 7.000 L 7.020 5.140 7.132 4.900 C 7.329 4.477,7.750 4.129,8.174 4.039 C 8.441 3.982,8.870 4.030,9.119 4.143 M18.119 4.143 C 18.415 4.278,18.727 4.592,18.867 4.896 L 18.980 5.140 18.980 7.000 L 18.980 8.860 18.867 9.104 C 18.724 9.413,18.415 9.721,18.100 9.868 C 17.893 9.965,17.810 9.980,17.500 9.980 C 17.190 9.980,17.107 9.965,16.900 9.868 C 16.585 9.721,16.276 9.413,16.133 9.104 L 16.020 8.860 16.020 7.000 L 16.020 5.140 16.132 4.900 C 16.329 4.477,16.750 4.129,17.174 4.039 C 17.441 3.982,17.870 4.030,18.119 4.143 M2.695 10.055 C 2.464 10.130,2.255 10.300,2.128 10.516 C 2.037 10.672,2.020 10.746,2.020 11.000 C 2.020 11.257,2.036 11.327,2.133 11.492 C 2.651 12.374,3.998 12.018,3.998 11.000 C 3.998 10.623,3.792 10.281,3.463 10.112 C 3.265 10.010,2.911 9.984,2.695 10.055 M16.670 14.061 C 16.448 14.142,16.250 14.309,16.128 14.516 C 16.036 14.672,16.020 14.745,16.021 15.000 C 16.021 15.213,16.043 15.340,16.096 15.440 C 16.136 15.517,16.486 15.900,16.873 16.290 L 17.577 17.000 13.735 17.000 C 9.565 17.000,9.680 16.994,9.382 17.221 C 9.302 17.282,9.187 17.415,9.128 17.516 C 9.037 17.672,9.020 17.746,9.020 18.000 C 9.020 18.256,9.036 18.328,9.131 18.489 C 9.256 18.702,9.449 18.864,9.670 18.943 C 9.791 18.986,10.563 18.997,13.699 18.998 L 17.577 19.000 16.873 19.710 C 16.486 20.101,16.139 20.481,16.101 20.555 C 15.872 21.008,16.056 21.601,16.508 21.867 C 16.673 21.964,16.742 21.980,17.000 21.979 C 17.212 21.979,17.341 21.957,17.440 21.905 C 17.517 21.865,18.306 21.109,19.194 20.226 C 20.957 18.472,20.999 18.420,20.999 18.000 C 20.999 17.578,20.960 17.530,19.175 15.756 C 17.716 14.307,17.519 14.124,17.343 14.066 C 17.108 13.987,16.875 13.986,16.670 14.061 " stroke="none" fill-rule="evenodd" fill="#000000"></path></svg>