<svg  xmlns="http://www.w3.org/2000/svg" width="24" height="24" viewBox="0 0 24 24" fill="none" stroke="currentColor" stroke-width="2" stroke-linecap="round" stroke-linejoin="round"><path d="M1.670 1.061 C 1.448 1.142,1.250 1.309,1.128 1.516 C 1.037 1.672,1.020 1.746,1.020 2.000 C 1.020 2.254,1.036 2.327,1.127 2.480 C 1.187 2.579,2.197 3.621,3.377 4.800 C 4.556 5.977,5.520 6.953,5.520 6.970 C 5.520 6.986,4.895 7.001,4.130 7.002 C 2.570 7.005,2.406 7.026,1.983 7.281 C 1.703 7.449,1.354 7.816,1.219 8.083 C 0.997 8.520,1.000 8.467,1.000 12.000 C 1.000 15.547,0.996 15.478,1.225 15.930 C 1.361 16.199,1.801 16.639,2.070 16.775 C 2.484 16.985,2.623 17.000,4.111 17.000 C 5.041 17.000,5.514 17.014,5.573 17.044 C 5.621 17.069,6.470 17.895,7.460 18.879 C 8.522 19.936,9.334 20.711,9.440 20.771 C 10.436 21.335,11.702 20.784,11.958 19.675 C 11.983 19.566,11.998 18.363,11.999 16.460 L 12.000 13.420 16.710 18.126 C 19.300 20.714,21.483 22.865,21.560 22.905 C 21.659 22.957,21.788 22.979,22.000 22.979 C 22.258 22.980,22.327 22.964,22.492 22.867 C 22.968 22.587,23.139 21.967,22.865 21.508 C 22.810 21.416,18.215 16.793,12.653 11.235 C 3.300 1.889,2.525 1.125,2.343 1.065 C 2.107 0.987,1.874 0.986,1.670 1.061 M10.009 3.004 C 9.369 3.112,8.840 3.626,8.840 4.138 C 8.841 4.471,8.909 4.640,9.134 4.866 C 9.354 5.085,9.530 5.159,9.830 5.160 L 10.000 5.160 10.000 5.325 C 10.000 5.588,10.082 5.793,10.269 6.001 C 10.755 6.542,11.594 6.409,11.906 5.740 C 11.989 5.561,11.999 5.483,11.999 5.000 C 11.998 4.703,11.980 4.380,11.957 4.282 C 11.833 3.744,11.388 3.252,10.859 3.067 C 10.638 2.990,10.260 2.962,10.009 3.004 M19.065 4.681 C 18.786 4.765,18.524 5.027,18.418 5.327 C 18.277 5.726,18.374 6.028,18.792 6.484 C 19.972 7.774,20.611 9.073,20.906 10.782 C 20.991 11.278,21.003 12.662,20.926 13.140 C 20.839 13.680,20.681 14.275,20.478 14.828 C 20.231 15.501,20.217 15.581,20.298 15.858 C 20.415 16.262,20.836 16.599,21.223 16.600 C 21.598 16.601,21.971 16.374,22.136 16.046 C 22.406 15.510,22.733 14.433,22.886 13.573 C 22.964 13.131,22.977 12.922,22.978 12.060 C 22.978 11.298,22.962 10.956,22.909 10.625 C 22.643 8.970,22.101 7.573,21.246 6.340 C 20.760 5.638,20.071 4.883,19.791 4.743 C 19.575 4.635,19.297 4.612,19.065 4.681 M15.670 8.055 C 15.306 8.191,15.051 8.516,15.012 8.894 C 14.984 9.164,15.056 9.390,15.271 9.707 C 15.601 10.193,15.787 10.640,15.926 11.280 C 16.025 11.738,16.066 11.822,16.282 12.017 C 16.501 12.215,16.667 12.280,16.951 12.280 C 17.552 12.280,18.022 11.746,17.943 11.152 C 17.895 10.789,17.688 10.047,17.536 9.692 C 17.223 8.962,16.788 8.307,16.505 8.141 C 16.286 8.012,15.892 7.972,15.670 8.055 M8.510 9.930 L 10.000 11.420 10.000 14.999 L 10.000 18.579 8.470 17.053 C 6.860 15.448,6.655 15.275,6.163 15.111 C 5.915 15.029,5.815 15.023,4.450 15.009 L 3.000 14.995 3.000 11.997 L 3.000 9.000 4.354 9.000 C 5.571 9.000,5.738 8.992,6.016 8.921 C 6.341 8.838,6.749 8.643,6.864 8.516 C 6.902 8.474,6.952 8.440,6.976 8.440 C 7.001 8.440,7.691 9.111,8.510 9.930 " stroke="none" fill-rule="evenodd" fill="#000000"></path></svg>