<svg  xmlns="http://www.w3.org/2000/svg" width="24" height="24" viewBox="0 0 24 24" fill="none" stroke="currentColor" stroke-width="2" stroke-linecap="round" stroke-linejoin="round"><path d="M4.499 2.043 C 3.380 2.232,2.461 3.048,2.114 4.160 L 2.020 4.460 2.020 12.000 L 2.020 19.540 2.114 19.840 C 2.419 20.818,3.180 21.584,4.137 21.877 C 4.481 21.982,5.040 22.026,5.264 21.965 C 5.498 21.901,5.737 21.714,5.867 21.492 C 5.964 21.327,5.980 21.257,5.980 21.000 C 5.980 20.746,5.963 20.672,5.872 20.516 C 5.758 20.323,5.561 20.149,5.375 20.078 C 5.314 20.055,5.130 20.019,4.966 19.998 C 4.622 19.955,4.387 19.835,4.225 19.623 C 3.986 19.309,4.000 19.795,4.000 12.022 C 4.000 4.006,3.975 4.631,4.303 4.303 C 4.631 3.976,4.009 4.000,12.000 4.000 C 19.991 4.000,19.369 3.976,19.697 4.303 C 20.024 4.631,20.000 4.009,20.000 12.001 C 20.000 19.720,20.012 19.312,19.779 19.618 C 19.613 19.835,19.380 19.954,19.034 19.998 C 18.870 20.019,18.686 20.055,18.625 20.078 C 18.439 20.149,18.242 20.323,18.128 20.516 C 18.037 20.672,18.020 20.746,18.020 21.000 C 18.020 21.257,18.036 21.327,18.133 21.492 C 18.263 21.714,18.502 21.901,18.736 21.965 C 18.960 22.026,19.519 21.982,19.863 21.877 C 20.820 21.584,21.581 20.818,21.886 19.840 L 21.980 19.540 21.980 12.000 L 21.980 4.460 21.886 4.160 C 21.581 3.182,20.832 2.428,19.861 2.121 L 19.540 2.020 12.120 2.014 C 8.039 2.011,4.609 2.024,4.499 2.043 M7.960 6.062 C 7.605 6.138,7.107 6.393,6.832 6.639 C 6.532 6.907,6.239 7.352,6.118 7.722 C 6.034 7.976,6.020 8.094,6.022 8.520 C 6.024 8.959,6.038 9.056,6.133 9.320 C 6.391 10.036,6.960 10.605,7.680 10.867 C 7.949 10.965,8.033 10.976,8.500 10.976 C 8.898 10.976,9.066 10.959,9.216 10.904 L 9.412 10.833 9.996 11.416 L 10.580 12.000 9.996 12.583 L 9.413 13.167 9.196 13.101 C 9.077 13.065,8.827 13.026,8.640 13.014 C 7.762 12.957,6.910 13.385,6.409 14.134 C 6.112 14.578,6.019 14.909,6.022 15.520 C 6.024 15.960,6.038 16.056,6.133 16.320 C 6.394 17.039,6.963 17.608,7.680 17.868 C 7.948 17.965,8.035 17.976,8.500 17.976 C 8.965 17.976,9.052 17.965,9.320 17.868 C 10.037 17.608,10.605 17.040,10.867 16.320 C 10.965 16.051,10.976 15.967,10.976 15.500 C 10.976 15.102,10.959 14.934,10.904 14.784 L 10.833 14.588 14.332 11.084 C 16.257 9.157,17.865 7.517,17.905 7.440 C 17.957 7.341,17.979 7.212,17.979 7.000 C 17.980 6.745,17.964 6.672,17.872 6.516 C 17.740 6.293,17.533 6.128,17.290 6.055 C 17.055 5.984,16.943 5.986,16.677 6.064 C 16.468 6.125,16.378 6.209,14.230 8.353 L 11.999 10.579 11.416 9.995 L 10.833 9.412 10.904 9.216 C 10.959 9.066,10.976 8.898,10.976 8.500 C 10.976 8.034,10.965 7.949,10.868 7.680 C 10.437 6.490,9.192 5.798,7.960 6.062 M8.724 8.062 C 8.977 8.193,9.068 8.508,8.922 8.748 C 8.722 9.076,8.278 9.076,8.078 8.748 C 7.935 8.513,8.009 8.226,8.252 8.078 C 8.406 7.984,8.563 7.979,8.724 8.062 M14.364 13.945 C 13.837 14.208,13.664 14.895,14.002 15.380 C 14.169 15.620,16.399 17.821,16.555 17.899 C 17.009 18.128,17.601 17.944,17.867 17.492 C 17.964 17.327,17.980 17.257,17.980 17.000 C 17.980 16.746,17.964 16.672,17.873 16.520 C 17.814 16.421,17.238 15.814,16.593 15.172 C 15.737 14.320,15.371 13.982,15.240 13.923 C 14.974 13.803,14.632 13.812,14.364 13.945 M8.724 15.062 C 8.872 15.139,9.000 15.341,9.000 15.500 C 9.000 15.748,8.748 16.000,8.500 16.000 C 8.256 16.000,8.000 15.748,8.000 15.508 C 8.000 15.257,8.248 15.000,8.492 15.000 C 8.554 15.000,8.658 15.028,8.724 15.062 M8.695 20.057 C 8.466 20.129,8.256 20.299,8.128 20.516 C 8.037 20.672,8.020 20.746,8.020 21.000 C 8.020 21.256,8.036 21.328,8.131 21.489 C 8.256 21.702,8.449 21.864,8.670 21.943 C 8.878 22.017,10.122 22.017,10.330 21.943 C 10.551 21.864,10.744 21.702,10.869 21.489 C 10.964 21.328,10.980 21.256,10.980 21.000 C 10.980 20.746,10.963 20.672,10.872 20.516 C 10.740 20.293,10.533 20.128,10.290 20.055 C 10.050 19.983,8.928 19.984,8.695 20.057 M13.695 20.057 C 13.466 20.129,13.256 20.299,13.128 20.516 C 13.037 20.672,13.020 20.746,13.020 21.000 C 13.020 21.256,13.036 21.328,13.131 21.489 C 13.256 21.702,13.449 21.864,13.670 21.943 C 13.878 22.017,15.122 22.017,15.330 21.943 C 15.551 21.864,15.744 21.702,15.869 21.489 C 15.964 21.328,15.980 21.256,15.980 21.000 C 15.980 20.746,15.963 20.672,15.872 20.516 C 15.740 20.293,15.533 20.128,15.290 20.055 C 15.050 19.983,13.928 19.984,13.695 20.057 " stroke="none" fill-rule="evenodd" fill="#000000"></path></svg>