<svg  xmlns="http://www.w3.org/2000/svg" width="24" height="24" viewBox="0 0 24 24" fill="none" stroke="currentColor" stroke-width="2" stroke-linecap="round" stroke-linejoin="round"><path d="M3.499 2.043 C 2.380 2.232,1.461 3.048,1.114 4.160 L 1.020 4.460 1.020 13.080 L 1.020 21.700 1.110 21.920 C 1.221 22.193,1.493 22.543,1.712 22.694 C 2.252 23.068,2.988 23.100,3.557 22.775 C 3.660 22.716,4.289 22.125,5.000 21.419 C 5.693 20.731,6.323 20.135,6.400 20.094 C 6.534 20.023,6.824 20.019,13.560 20.000 L 20.580 19.980 20.860 19.886 C 21.851 19.554,22.582 18.816,22.886 17.840 L 22.980 17.540 22.980 11.000 L 22.980 4.460 22.886 4.160 C 22.581 3.182,21.832 2.428,20.861 2.121 L 20.540 2.020 12.120 2.014 C 7.489 2.011,3.609 2.024,3.499 2.043 M20.310 4.061 C 20.589 4.144,20.856 4.411,20.939 4.690 C 20.992 4.869,21.000 5.651,21.000 11.001 C 21.000 16.059,20.991 17.139,20.945 17.290 C 20.872 17.533,20.707 17.740,20.484 17.872 L 20.300 17.980 13.280 18.000 L 6.260 18.020 5.980 18.115 C 5.291 18.347,5.119 18.475,3.970 19.615 L 3.000 20.576 3.000 12.735 C 3.000 5.832,3.007 4.870,3.061 4.690 C 3.140 4.421,3.412 4.143,3.673 4.063 C 3.833 4.014,5.030 4.005,11.983 4.003 C 19.144 4.000,20.130 4.007,20.310 4.061 M14.640 8.068 C 14.488 8.121,14.196 8.394,12.731 9.853 L 11.002 11.575 10.271 10.855 C 9.655 10.247,9.509 10.123,9.343 10.067 C 8.865 9.905,8.383 10.083,8.128 10.516 C 8.036 10.672,8.020 10.745,8.021 11.000 C 8.021 11.213,8.043 11.341,8.095 11.440 C 8.197 11.633,10.297 13.740,10.520 13.873 C 10.673 13.964,10.745 13.980,11.000 13.979 C 11.212 13.979,11.341 13.957,11.440 13.905 C 11.632 13.805,15.739 9.705,15.873 9.480 C 15.964 9.328,15.980 9.254,15.980 9.000 C 15.980 8.746,15.963 8.672,15.872 8.516 C 15.617 8.083,15.121 7.903,14.640 8.068 " stroke="none" fill-rule="evenodd" fill="#000000"></path></svg>