<svg  xmlns="http://www.w3.org/2000/svg" width="24" height="24" viewBox="0 0 24 24" fill="none" stroke="currentColor" stroke-width="2" stroke-linecap="round" stroke-linejoin="round"><path d="M4.499 2.043 C 3.379 2.233,2.461 3.048,2.114 4.160 L 2.020 4.460 2.020 12.000 L 2.020 19.540 2.114 19.840 C 2.418 20.816,3.149 21.554,4.140 21.886 L 4.420 21.980 8.456 21.991 C 13.011 22.004,12.732 22.022,13.056 21.698 C 13.245 21.509,13.360 21.244,13.360 21.000 C 13.360 20.642,13.118 20.267,12.778 20.098 C 12.625 20.023,12.493 20.019,8.660 20.000 L 4.700 19.980 4.516 19.872 C 4.415 19.813,4.284 19.700,4.225 19.623 C 3.986 19.309,4.000 19.795,4.000 12.022 C 4.000 4.006,3.975 4.631,4.303 4.303 C 4.625 3.981,4.307 4.000,9.447 4.000 L 14.000 4.000 14.000 6.132 C 14.000 8.443,14.004 8.494,14.225 8.930 C 14.361 9.199,14.801 9.639,15.070 9.775 C 15.506 9.996,15.557 10.000,17.868 10.000 L 20.000 10.000 20.000 11.253 C 20.000 12.692,20.013 12.766,20.303 13.057 C 20.703 13.457,21.297 13.457,21.698 13.056 C 22.009 12.745,22.006 12.772,21.991 10.454 L 21.978 8.420 21.867 8.060 C 21.733 7.628,21.506 7.193,21.241 6.863 C 20.921 6.464,17.162 2.748,16.920 2.592 C 16.585 2.376,16.319 2.252,15.932 2.130 L 15.580 2.020 10.140 2.014 C 7.148 2.011,4.609 2.024,4.499 2.043 M17.800 6.220 L 19.580 8.000 17.790 8.000 L 16.000 8.000 16.000 6.220 C 16.000 5.241,16.005 4.440,16.010 4.440 C 16.016 4.440,16.821 5.241,17.800 6.220 M17.695 14.057 C 17.466 14.129,17.256 14.299,17.128 14.516 L 17.020 14.700 17.008 15.850 L 16.995 17.000 15.944 17.000 C 14.797 17.000,14.643 17.022,14.382 17.221 C 14.302 17.282,14.187 17.415,14.128 17.516 C 14.037 17.672,14.020 17.746,14.020 18.000 C 14.020 18.256,14.036 18.328,14.131 18.489 C 14.192 18.592,14.304 18.725,14.381 18.783 C 14.642 18.983,14.738 18.996,15.908 18.998 L 16.995 19.000 17.008 20.153 L 17.020 21.307 17.141 21.503 C 17.543 22.156,18.457 22.156,18.859 21.503 L 18.980 21.307 18.992 20.153 L 19.005 19.000 20.092 18.998 C 21.262 18.996,21.358 18.983,21.619 18.783 C 21.696 18.725,21.808 18.592,21.869 18.489 C 21.964 18.328,21.980 18.256,21.980 18.000 C 21.980 17.746,21.963 17.672,21.872 17.516 C 21.813 17.415,21.698 17.282,21.618 17.221 C 21.357 17.022,21.203 17.000,20.056 17.000 L 19.005 17.000 18.992 15.850 L 18.980 14.700 18.872 14.516 C 18.628 14.101,18.150 13.915,17.695 14.057 " stroke="none" fill-rule="evenodd" fill="#000000"></path></svg>