<svg  xmlns="http://www.w3.org/2000/svg" width="24" height="24" viewBox="0 0 24 24" fill="none" stroke="currentColor" stroke-width="2" stroke-linecap="round" stroke-linejoin="round"><path d="M4.477 1.071 C 3.800 1.254,3.238 1.825,3.060 2.508 C 3.008 2.708,3.000 3.918,3.000 12.000 C 3.000 22.112,2.985 21.457,3.225 21.930 C 3.362 22.200,3.801 22.639,4.071 22.775 C 4.409 22.947,4.732 23.013,5.120 22.990 C 5.676 22.957,5.876 22.871,6.896 22.225 C 7.092 22.101,7.292 22.000,7.340 22.000 C 7.388 22.000,7.669 22.156,7.964 22.346 C 8.764 22.863,9.118 23.000,9.646 23.000 C 10.208 23.000,10.568 22.863,11.379 22.340 C 11.669 22.153,11.948 22.000,12.000 22.000 C 12.052 22.000,12.331 22.153,12.621 22.340 C 13.432 22.863,13.792 23.000,14.354 23.000 C 14.882 23.000,15.236 22.863,16.036 22.346 C 16.331 22.156,16.612 22.000,16.660 22.000 C 16.708 22.000,16.908 22.101,17.104 22.225 C 18.124 22.871,18.324 22.957,18.880 22.990 C 19.490 23.026,19.965 22.844,20.404 22.404 C 20.694 22.114,20.841 21.863,20.937 21.491 C 20.993 21.274,21.000 20.286,20.999 12.014 C 20.999 1.944,21.012 2.538,20.775 2.069 C 20.716 1.955,20.550 1.742,20.404 1.597 C 19.928 1.123,19.392 0.944,18.709 1.031 C 18.272 1.086,17.990 1.212,17.272 1.673 C 16.993 1.853,16.721 2.000,16.669 2.000 C 16.616 2.000,16.359 1.863,16.097 1.695 C 15.390 1.243,15.245 1.168,14.901 1.080 C 14.383 0.948,13.882 0.988,13.419 1.198 C 13.285 1.258,12.933 1.464,12.635 1.654 C 12.338 1.844,12.052 2.000,12.000 2.000 C 11.948 2.000,11.662 1.844,11.365 1.654 C 11.067 1.464,10.715 1.258,10.581 1.198 C 10.118 0.988,9.617 0.948,9.099 1.080 C 8.755 1.168,8.610 1.243,7.903 1.695 C 7.641 1.863,7.384 2.000,7.331 2.000 C 7.279 2.000,7.042 1.876,6.806 1.724 C 5.885 1.132,5.685 1.048,5.108 1.018 C 4.831 1.004,4.675 1.017,4.477 1.071 M5.621 3.340 C 6.432 3.863,6.792 4.000,7.354 4.000 C 7.882 4.000,8.236 3.863,9.036 3.346 C 9.331 3.156,9.612 3.000,9.660 3.000 C 9.708 3.000,9.908 3.101,10.104 3.225 C 11.221 3.932,11.338 3.978,12.000 3.978 C 12.662 3.978,12.779 3.932,13.896 3.225 C 14.092 3.101,14.292 3.000,14.340 3.000 C 14.388 3.000,14.669 3.156,14.964 3.346 C 15.764 3.863,16.118 4.000,16.646 4.000 C 17.208 4.000,17.568 3.863,18.379 3.340 C 18.669 3.153,18.927 3.000,18.953 3.000 C 18.989 3.000,19.000 5.141,19.000 12.000 C 19.000 18.899,18.989 21.000,18.953 21.000 C 18.927 21.000,18.662 20.844,18.365 20.654 C 18.067 20.464,17.715 20.258,17.581 20.198 C 17.118 19.988,16.617 19.948,16.099 20.080 C 15.755 20.168,15.610 20.243,14.903 20.695 C 14.641 20.863,14.384 21.000,14.331 21.000 C 14.279 21.000,14.009 20.854,13.732 20.677 C 12.886 20.132,12.549 20.001,12.000 20.001 C 11.451 20.001,11.114 20.132,10.268 20.677 C 9.991 20.854,9.721 21.000,9.669 21.000 C 9.616 21.000,9.359 20.863,9.097 20.695 C 8.390 20.243,8.245 20.168,7.901 20.080 C 7.383 19.948,6.882 19.988,6.419 20.198 C 6.285 20.258,5.933 20.464,5.635 20.654 C 5.338 20.844,5.073 21.000,5.047 21.000 C 5.011 21.000,5.000 18.899,5.000 12.000 C 5.000 5.141,5.011 3.000,5.047 3.000 C 5.073 3.000,5.331 3.153,5.621 3.340 M12.400 7.044 C 10.806 7.223,9.322 8.248,8.580 9.684 C 8.390 10.053,8.189 10.583,8.139 10.850 C 8.115 10.980,8.096 11.000,8.002 11.000 C 7.674 11.000,7.305 11.215,7.135 11.504 C 6.777 12.116,7.186 12.915,7.895 12.988 C 8.108 13.010,8.114 13.014,8.140 13.155 C 8.221 13.588,8.543 14.320,8.868 14.812 C 9.113 15.182,9.818 15.887,10.188 16.132 C 10.743 16.499,11.375 16.764,12.041 16.907 C 12.511 17.008,13.489 17.008,13.959 16.907 C 14.923 16.699,15.765 16.263,16.406 15.640 C 16.675 15.379,16.723 15.310,16.782 15.105 C 16.962 14.471,16.496 13.839,15.847 13.840 C 15.535 13.841,15.390 13.907,15.017 14.219 C 14.609 14.560,14.271 14.752,13.840 14.886 C 13.588 14.964,13.453 14.979,13.000 14.979 C 12.547 14.979,12.412 14.964,12.160 14.886 C 11.360 14.637,10.698 14.081,10.317 13.340 L 10.153 13.020 11.726 13.000 L 13.300 12.980 13.492 12.867 C 14.211 12.444,14.143 11.411,13.373 11.070 C 13.292 11.034,12.821 11.015,11.706 11.000 L 10.153 10.980 10.326 10.640 C 10.549 10.202,11.116 9.611,11.539 9.377 C 12.019 9.112,12.373 9.027,13.000 9.027 C 13.458 9.027,13.588 9.042,13.861 9.125 C 14.274 9.251,14.630 9.453,14.980 9.759 C 15.379 10.109,15.444 10.138,15.823 10.139 C 16.113 10.140,16.165 10.128,16.338 10.020 C 16.588 9.864,16.748 9.635,16.804 9.355 C 16.900 8.876,16.662 8.488,15.968 7.989 C 14.894 7.215,13.699 6.898,12.400 7.044 " stroke="none" fill-rule="evenodd" fill="#000000"></path></svg>