<svg  xmlns="http://www.w3.org/2000/svg" width="24" height="24" viewBox="0 0 24 24" fill="none" stroke="currentColor" stroke-width="2" stroke-linecap="round" stroke-linejoin="round"><path d="M3.499 3.043 C 2.380 3.232,1.461 4.048,1.114 5.160 L 1.020 5.460 1.020 12.000 L 1.020 18.540 1.114 18.840 C 1.422 19.827,2.173 20.578,3.160 20.886 L 3.460 20.980 12.000 20.980 L 20.540 20.980 20.840 20.886 C 21.827 20.578,22.578 19.827,22.886 18.840 L 22.980 18.540 22.980 12.000 L 22.980 5.460 22.886 5.160 C 22.581 4.182,21.832 3.428,20.861 3.121 L 20.540 3.020 12.120 3.014 C 7.489 3.011,3.609 3.024,3.499 3.043 M20.310 5.061 C 20.452 5.103,20.571 5.178,20.697 5.303 C 20.948 5.554,21.000 5.751,21.000 6.447 L 21.000 7.000 12.000 7.000 L 3.000 7.000 3.000 6.447 C 3.000 5.750,3.052 5.554,3.304 5.303 C 3.421 5.185,3.552 5.100,3.673 5.063 C 3.833 5.014,5.030 5.005,11.983 5.003 C 19.144 5.000,20.130 5.007,20.310 5.061 M21.000 13.554 C 21.000 18.497,21.008 18.318,20.779 18.618 C 20.718 18.698,20.585 18.813,20.484 18.872 L 20.300 18.980 12.000 18.980 L 3.700 18.980 3.516 18.872 C 3.415 18.813,3.284 18.700,3.225 18.623 C 2.989 18.314,3.000 18.557,3.000 13.575 L 3.000 9.000 12.000 9.000 L 21.000 9.000 21.000 13.554 M5.695 15.057 C 5.466 15.129,5.256 15.299,5.128 15.516 C 5.037 15.672,5.020 15.746,5.020 16.000 C 5.020 16.256,5.036 16.328,5.131 16.489 C 5.256 16.702,5.449 16.864,5.670 16.943 C 5.793 16.987,6.938 16.996,12.000 16.996 C 17.062 16.996,18.207 16.987,18.330 16.943 C 18.551 16.864,18.744 16.702,18.869 16.489 C 18.964 16.328,18.980 16.256,18.980 16.000 C 18.980 15.746,18.963 15.672,18.872 15.516 C 18.740 15.293,18.533 15.128,18.290 15.055 C 18.028 14.976,5.947 14.978,5.695 15.057 " stroke="none" fill-rule="evenodd" fill="#000000"></path></svg>