<svg  xmlns="http://www.w3.org/2000/svg" width="24" height="24" viewBox="0 0 24 24" fill="none" stroke="currentColor" stroke-width="2" stroke-linecap="round" stroke-linejoin="round"><path d="M4.477 2.073 C 3.806 2.249,3.238 2.823,3.060 3.508 C 2.969 3.854,2.969 20.146,3.060 20.492 C 3.153 20.852,3.310 21.118,3.596 21.404 C 3.882 21.690,4.148 21.847,4.508 21.940 C 4.826 22.023,8.099 22.025,8.330 21.943 C 8.551 21.864,8.744 21.702,8.869 21.489 C 8.964 21.328,8.980 21.256,8.980 21.000 C 8.980 20.746,8.963 20.672,8.872 20.516 C 8.813 20.415,8.698 20.282,8.618 20.221 C 8.342 20.011,8.242 20.000,6.554 20.000 L 5.000 20.000 5.000 12.000 L 5.000 4.000 6.590 3.998 C 8.300 3.996,8.346 3.991,8.619 3.783 C 8.696 3.725,8.808 3.592,8.869 3.489 C 8.964 3.328,8.980 3.256,8.980 3.000 C 8.980 2.746,8.963 2.672,8.872 2.516 C 8.813 2.415,8.698 2.282,8.618 2.221 C 8.339 2.008,8.253 2.000,6.424 2.002 C 4.966 2.004,4.705 2.014,4.477 2.073 M15.695 2.057 C 15.466 2.129,15.256 2.299,15.128 2.516 C 15.037 2.672,15.020 2.746,15.020 3.000 C 15.020 3.256,15.036 3.328,15.131 3.489 C 15.192 3.592,15.304 3.725,15.381 3.783 C 15.654 3.991,15.700 3.996,17.410 3.998 L 19.000 4.000 19.000 12.000 L 19.000 20.000 17.446 20.000 C 15.758 20.000,15.658 20.011,15.382 20.221 C 15.302 20.282,15.187 20.415,15.128 20.516 C 15.037 20.672,15.020 20.746,15.020 21.000 C 15.020 21.256,15.036 21.328,15.131 21.489 C 15.192 21.592,15.304 21.725,15.381 21.783 C 15.656 21.993,15.689 21.996,17.542 21.998 C 19.408 22.000,19.503 21.991,19.930 21.775 C 20.196 21.640,20.638 21.200,20.771 20.937 C 21.015 20.457,21.000 21.028,20.999 12.014 C 20.999 3.065,21.010 3.534,20.781 3.083 C 20.646 2.816,20.297 2.449,20.017 2.281 C 19.580 2.018,19.463 2.005,17.560 2.005 C 16.283 2.005,15.819 2.018,15.695 2.057 " stroke="none" fill-rule="evenodd" fill="#000000"></path></svg>