<svg  xmlns="http://www.w3.org/2000/svg" width="24" height="24" viewBox="0 0 24 24" fill="none" stroke="currentColor" stroke-width="2" stroke-linecap="round" stroke-linejoin="round"><path d="M3.695 2.057 C 3.051 2.258,2.799 3.040,3.198 3.591 C 3.386 3.850,3.613 3.960,4.048 4.001 C 4.526 4.047,4.769 4.122,5.063 4.313 C 5.457 4.569,5.763 4.956,5.914 5.390 C 5.974 5.563,5.982 6.203,6.000 12.443 L 6.020 19.306 6.141 19.503 C 6.543 20.156,7.457 20.156,7.859 19.503 L 7.980 19.306 8.000 12.663 C 8.019 6.346,8.024 6.009,8.094 5.800 C 8.523 4.519,9.744 3.793,11.020 4.060 C 11.963 4.257,12.743 5.037,12.940 5.980 C 13.027 6.395,13.028 18.041,12.941 18.451 C 12.863 18.821,12.710 19.091,12.400 19.404 C 12.026 19.783,11.546 20.000,11.078 20.000 C 10.511 20.000,10.066 20.371,10.013 20.888 C 9.971 21.293,10.156 21.661,10.505 21.865 C 10.989 22.148,12.200 21.940,13.064 21.424 C 13.530 21.145,14.146 20.545,14.383 20.137 C 14.424 20.067,14.436 20.070,14.583 20.184 C 14.844 20.386,15.154 20.559,15.512 20.704 C 17.558 21.528,19.877 20.538,20.704 18.488 C 21.090 17.530,21.090 16.469,20.705 15.516 C 20.172 14.197,19.001 13.269,17.605 13.058 C 17.121 12.986,16.879 12.986,16.395 13.058 C 15.972 13.122,15.621 13.231,15.271 13.406 C 15.145 13.469,15.033 13.520,15.021 13.520 C 15.010 13.520,15.000 11.857,15.000 9.825 C 15.000 5.775,15.001 5.793,14.759 5.071 C 14.094 3.086,12.113 1.810,10.045 2.034 C 9.003 2.147,8.042 2.601,7.337 3.313 L 7.133 3.518 6.948 3.303 C 6.579 2.876,5.868 2.417,5.245 2.204 C 4.961 2.107,4.317 1.999,4.040 2.003 C 3.941 2.004,3.786 2.029,3.695 2.057 M17.523 15.073 C 18.262 15.266,18.850 15.924,18.967 16.690 C 19.067 17.343,18.873 17.933,18.403 18.404 C 18.002 18.807,17.547 19.000,17.000 19.000 C 16.485 19.000,16.038 18.822,15.653 18.465 C 14.323 17.229,15.189 15.005,17.000 15.005 C 17.143 15.005,17.378 15.036,17.523 15.073 " stroke="none" fill-rule="evenodd" fill="#000000"></path></svg>