<svg  xmlns="http://www.w3.org/2000/svg" width="24" height="24" viewBox="0 0 24 24" fill="none" stroke="currentColor" stroke-width="2" stroke-linecap="round" stroke-linejoin="round"><path d="M11.040 1.045 C 9.308 1.197,7.590 1.775,6.142 2.691 C 5.128 3.333,3.911 4.450,3.226 5.367 C 0.945 8.424,0.381 12.309,1.702 15.867 C 2.618 18.333,4.503 20.475,6.851 21.719 C 7.979 22.316,9.258 22.727,10.537 22.901 C 11.203 22.992,11.429 22.934,11.746 22.590 C 12.166 22.135,12.027 21.359,11.475 21.078 C 11.387 21.032,11.094 20.965,10.790 20.919 C 9.126 20.670,7.677 20.050,6.397 19.040 C 4.607 17.629,3.393 15.479,3.074 13.160 C 2.997 12.600,3.008 11.284,3.094 10.720 C 3.245 9.728,3.492 8.934,3.919 8.060 C 5.262 5.316,7.830 3.478,10.880 3.076 C 11.453 3.000,12.726 3.010,13.280 3.094 C 14.269 3.245,15.049 3.487,15.940 3.921 C 17.771 4.812,19.169 6.210,20.080 8.060 C 20.646 9.208,20.908 10.266,20.995 11.750 C 21.027 12.281,21.037 12.334,21.146 12.510 C 21.541 13.153,22.459 13.152,22.856 12.508 C 23.004 12.266,23.031 11.921,22.962 11.109 C 22.587 6.661,19.601 2.900,15.356 1.528 C 14.019 1.096,12.451 0.920,11.040 1.045 M11.695 5.057 C 11.466 5.129,11.256 5.299,11.128 5.516 L 11.020 5.700 11.009 8.917 C 10.997 12.549,10.985 12.389,11.297 12.696 C 11.542 12.937,15.612 14.961,15.908 14.990 C 16.347 15.032,16.795 14.749,16.934 14.340 C 17.017 14.095,17.018 13.906,16.935 13.664 C 16.810 13.298,16.726 13.243,14.791 12.275 L 13.002 11.381 12.991 8.540 L 12.980 5.700 12.872 5.516 C 12.628 5.101,12.150 4.915,11.695 5.057 M21.640 15.068 C 21.485 15.121,21.109 15.480,18.980 17.603 L 16.500 20.077 15.520 19.105 C 14.670 18.262,14.514 18.124,14.343 18.066 C 13.864 17.905,13.382 18.084,13.128 18.516 C 13.036 18.672,13.020 18.745,13.021 19.000 C 13.021 19.213,13.043 19.341,13.095 19.440 C 13.180 19.602,15.700 22.150,15.943 22.320 C 16.256 22.539,16.744 22.539,17.055 22.321 C 17.305 22.147,22.821 16.601,22.905 16.440 C 22.957 16.341,22.979 16.212,22.979 16.000 C 22.980 15.745,22.964 15.672,22.872 15.516 C 22.617 15.083,22.121 14.903,21.640 15.068 " stroke="none" fill-rule="evenodd" fill="#000000"></path></svg>