<svg  xmlns="http://www.w3.org/2000/svg" width="24" height="24" viewBox="0 0 24 24" fill="none" stroke="currentColor" stroke-width="2" stroke-linecap="round" stroke-linejoin="round"><path d="M4.499 2.043 C 3.380 2.232,2.461 3.048,2.114 4.160 L 2.020 4.460 2.020 12.000 L 2.020 19.540 2.114 19.840 C 2.422 20.827,3.173 21.578,4.160 21.886 L 4.460 21.980 12.000 21.980 L 19.540 21.980 19.840 21.886 C 20.827 21.578,21.578 20.827,21.886 19.840 L 21.980 19.540 21.980 12.000 L 21.980 4.460 21.886 4.160 C 21.581 3.182,20.832 2.428,19.861 2.121 L 19.540 2.020 12.120 2.014 C 8.039 2.011,4.609 2.024,4.499 2.043 M19.310 4.061 C 19.589 4.144,19.856 4.411,19.939 4.690 C 19.993 4.870,20.000 5.755,20.000 12.001 C 20.000 17.907,19.991 19.138,19.945 19.290 C 19.872 19.533,19.707 19.740,19.484 19.872 L 19.300 19.980 12.000 19.980 L 4.700 19.980 4.516 19.872 C 4.415 19.813,4.284 19.700,4.225 19.623 C 3.986 19.309,4.000 19.795,4.000 12.022 C 4.000 5.758,4.007 4.870,4.061 4.690 C 4.140 4.421,4.412 4.143,4.673 4.063 C 4.964 3.974,19.009 3.971,19.310 4.061 M9.536 7.058 C 8.970 7.218,8.446 7.627,8.228 8.080 C 7.996 8.563,8.000 8.492,8.000 12.000 C 8.000 15.508,7.996 15.437,8.228 15.920 C 8.366 16.206,8.794 16.634,9.080 16.772 C 9.593 17.019,10.153 17.060,10.650 16.885 C 10.948 16.781,16.123 13.675,16.353 13.463 C 17.181 12.701,17.213 11.414,16.424 10.618 C 16.215 10.406,15.819 10.155,13.640 8.852 C 10.641 7.059,10.869 7.191,10.620 7.105 C 10.343 7.009,9.793 6.985,9.536 7.058 M14.960 12.004 C 14.960 12.017,13.885 12.673,12.570 13.461 C 11.255 14.249,10.139 14.920,10.090 14.951 L 10.000 15.009 10.000 12.007 L 10.000 9.004 12.480 10.492 C 13.844 11.310,14.960 11.991,14.960 12.004 " stroke="none" fill-rule="evenodd" fill="#000000"></path></svg>