<svg  xmlns="http://www.w3.org/2000/svg" width="24" height="24" viewBox="0 0 24 24" fill="none" stroke="currentColor" stroke-width="2" stroke-linecap="round" stroke-linejoin="round"><path d="M6.477 1.073 C 5.806 1.249,5.238 1.823,5.060 2.508 C 5.010 2.700,5.000 3.164,5.000 5.364 L 5.000 7.991 4.230 8.010 C 3.567 8.027,3.416 8.043,3.139 8.126 C 2.181 8.415,1.420 9.179,1.114 10.160 L 1.020 10.460 1.020 13.500 L 1.020 16.540 1.114 16.840 C 1.419 17.818,2.166 18.570,3.140 18.882 C 3.379 18.958,3.536 18.974,4.210 18.990 L 5.000 19.009 5.000 20.136 C 5.000 21.357,5.021 21.528,5.225 21.930 C 5.361 22.199,5.801 22.639,6.070 22.775 C 6.524 23.005,6.433 23.000,10.218 23.000 L 13.700 22.999 13.900 22.905 C 14.281 22.724,14.488 22.405,14.488 22.000 C 14.488 21.615,14.293 21.297,13.940 21.106 C 13.780 21.020,13.779 21.020,10.390 21.009 L 7.000 20.998 7.000 17.999 L 7.000 15.000 12.000 15.000 L 17.000 15.000 17.000 15.350 C 17.001 15.635,17.018 15.737,17.095 15.900 C 17.276 16.281,17.595 16.488,18.000 16.488 C 18.405 16.488,18.724 16.281,18.905 15.900 C 18.987 15.726,18.999 15.641,18.999 15.240 C 18.999 14.485,18.863 14.082,18.465 13.653 C 18.198 13.366,17.870 13.164,17.523 13.073 C 17.281 13.010,16.843 13.005,12.000 13.005 C 6.133 13.005,6.467 12.989,5.983 13.281 C 5.703 13.449,5.354 13.816,5.219 14.083 C 5.022 14.471,5.000 14.650,5.000 15.872 L 5.000 17.007 4.350 16.993 C 3.728 16.981,3.692 16.975,3.516 16.872 C 3.415 16.813,3.284 16.700,3.225 16.623 C 2.996 16.323,3.000 16.378,3.000 13.522 C 3.000 10.530,2.992 10.614,3.303 10.303 C 3.632 9.974,2.892 10.000,12.000 10.000 C 21.050 10.000,20.364 9.978,20.679 10.283 C 20.975 10.571,20.977 10.581,21.000 12.023 L 21.020 13.307 21.141 13.503 C 21.543 14.156,22.457 14.156,22.859 13.503 L 22.980 13.306 22.980 11.883 C 22.980 10.503,22.977 10.451,22.886 10.160 C 22.580 9.179,21.819 8.415,20.861 8.126 C 20.584 8.043,20.433 8.027,19.770 8.010 L 19.000 7.991 18.999 5.385 C 18.999 2.569,18.994 2.503,18.781 2.083 C 18.646 1.816,18.297 1.449,18.017 1.281 C 17.533 0.989,17.867 1.005,12.000 1.005 C 7.157 1.005,6.719 1.010,6.477 1.073 M17.000 5.500 L 17.000 8.000 12.000 8.000 L 7.000 8.000 7.000 5.500 L 7.000 3.000 12.000 3.000 L 17.000 3.000 17.000 5.500 M21.640 16.068 C 21.488 16.121,21.196 16.394,19.731 17.853 L 18.002 19.575 17.271 18.855 C 16.655 18.247,16.509 18.123,16.343 18.067 C 15.865 17.905,15.383 18.083,15.128 18.516 C 15.036 18.672,15.020 18.745,15.021 19.000 C 15.021 19.213,15.043 19.341,15.095 19.440 C 15.197 19.633,17.297 21.740,17.520 21.873 C 17.673 21.964,17.745 21.980,18.000 21.979 C 18.212 21.979,18.341 21.957,18.440 21.905 C 18.632 21.805,22.739 17.705,22.873 17.480 C 22.964 17.328,22.980 17.254,22.980 17.000 C 22.980 16.746,22.963 16.672,22.872 16.516 C 22.617 16.083,22.121 15.903,21.640 16.068 " stroke="none" fill-rule="evenodd" fill="#000000"></path></svg>