<svg  xmlns="http://www.w3.org/2000/svg" width="24" height="24" viewBox="0 0 24 24" fill="none" stroke="currentColor" stroke-width="2" stroke-linecap="round" stroke-linejoin="round"><path d="M11.180 1.057 C 10.674 1.121,10.383 1.181,9.980 1.305 C 8.184 1.856,6.692 3.083,5.825 4.722 C 5.242 5.824,5.030 6.758,4.983 8.440 C 4.933 10.225,4.692 11.421,4.163 12.500 C 3.866 13.105,3.550 13.542,2.860 14.300 C 2.286 14.932,2.131 15.177,2.044 15.592 C 1.906 16.254,2.109 16.918,2.597 17.400 C 2.885 17.684,3.240 17.883,3.592 17.956 C 3.892 18.018,20.108 18.018,20.408 17.956 C 20.777 17.879,21.117 17.690,21.403 17.404 C 21.892 16.913,22.094 16.253,21.956 15.592 C 21.871 15.184,21.704 14.911,21.208 14.369 C 20.621 13.727,20.465 13.538,20.204 13.148 C 19.976 12.808,19.669 12.189,19.499 11.726 C 19.318 11.237,19.005 11.003,18.530 11.001 C 18.069 10.999,17.702 11.273,17.574 11.714 C 17.496 11.984,17.517 12.125,17.718 12.659 C 18.131 13.759,18.762 14.714,19.735 15.710 L 20.018 16.000 12.029 16.000 C 7.635 16.000,4.040 15.987,4.040 15.971 C 4.040 15.955,4.164 15.815,4.315 15.661 C 6.113 13.821,6.898 11.750,6.983 8.622 C 7.016 7.393,7.080 6.932,7.301 6.312 C 7.548 5.620,7.909 5.055,8.460 4.496 C 9.289 3.656,10.320 3.160,11.499 3.035 C 12.094 2.972,12.339 2.845,12.547 2.492 C 12.757 2.135,12.699 1.640,12.412 1.345 C 12.115 1.040,11.836 0.974,11.180 1.057 M17.358 1.061 C 16.230 1.237,15.143 1.974,14.569 2.953 C 13.320 5.083,14.233 7.785,16.512 8.704 C 18.558 9.528,20.877 8.538,21.704 6.488 C 22.090 5.530,22.090 4.469,21.705 3.516 C 21.172 2.197,20.001 1.269,18.605 1.058 C 18.144 0.989,17.816 0.990,17.358 1.061 M18.523 3.073 C 19.262 3.266,19.850 3.924,19.967 4.690 C 20.029 5.098,19.967 5.522,19.793 5.880 C 19.638 6.198,19.227 6.625,18.930 6.775 C 18.492 6.997,17.962 7.059,17.508 6.940 C 16.823 6.762,16.249 6.194,16.073 5.523 C 15.683 4.028,17.028 2.683,18.523 3.073 M9.946 20.065 C 9.698 20.141,9.398 20.433,9.329 20.665 C 9.245 20.947,9.267 21.201,9.398 21.464 C 9.657 21.982,10.195 22.474,10.780 22.729 C 11.253 22.935,11.467 22.979,12.000 22.979 C 12.533 22.979,12.747 22.935,13.220 22.729 C 13.640 22.546,13.983 22.286,14.312 21.902 C 14.811 21.318,14.857 20.735,14.436 20.313 C 14.075 19.951,13.551 19.905,13.148 20.200 C 13.065 20.261,12.935 20.398,12.860 20.503 C 12.693 20.738,12.538 20.863,12.318 20.941 C 11.883 21.094,11.423 20.925,11.143 20.510 C 10.932 20.196,10.583 19.996,10.260 20.003 C 10.194 20.004,10.053 20.032,9.946 20.065 " stroke="none" fill-rule="evenodd" fill="#000000"></path></svg>