<svg  xmlns="http://www.w3.org/2000/svg" width="24" height="24" viewBox="0 0 24 24" fill="none" stroke="currentColor" stroke-width="2" stroke-linecap="round" stroke-linejoin="round"><path d="M1.670 1.061 C 1.448 1.142,1.250 1.309,1.128 1.516 C 1.037 1.672,1.020 1.746,1.020 2.000 C 1.020 2.254,1.036 2.328,1.127 2.480 C 1.186 2.579,1.667 3.091,2.195 3.617 L 3.154 4.574 3.036 4.745 C 2.913 4.924,1.473 7.789,1.303 8.193 C 0.590 9.888,1.224 11.959,2.762 12.959 C 2.904 13.051,4.059 13.647,5.330 14.284 C 6.601 14.920,7.640 15.450,7.640 15.461 C 7.640 15.534,6.571 17.603,6.486 17.694 C 6.428 17.756,6.308 17.846,6.220 17.894 C 6.065 17.977,6.010 17.980,4.533 17.992 L 3.007 18.004 2.993 17.352 C 2.981 16.725,2.976 16.693,2.871 16.514 C 2.479 15.848,1.521 15.848,1.129 16.514 L 1.020 16.700 1.020 19.003 L 1.020 21.306 1.141 21.503 C 1.543 22.156,2.457 22.156,2.859 21.503 C 2.979 21.309,2.980 21.300,2.993 20.656 L 3.007 20.005 4.653 19.990 C 6.492 19.974,6.502 19.973,7.100 19.679 C 7.502 19.482,7.875 19.178,8.137 18.833 C 8.259 18.673,8.559 18.127,8.889 17.463 C 9.192 16.857,9.447 16.360,9.458 16.360 C 9.468 16.360,10.247 16.743,11.188 17.212 C 12.172 17.702,12.991 18.084,13.113 18.112 C 13.563 18.214,14.163 18.122,14.560 17.890 C 14.841 17.726,15.138 17.421,15.281 17.149 C 15.353 17.012,15.419 16.892,15.427 16.882 C 15.436 16.872,16.788 18.207,18.431 19.848 C 20.075 21.489,21.483 22.865,21.560 22.905 C 21.659 22.957,21.788 22.979,22.000 22.979 C 22.258 22.980,22.327 22.964,22.492 22.867 C 22.968 22.587,23.139 21.967,22.865 21.508 C 22.810 21.416,18.215 16.793,12.653 11.235 C 3.300 1.889,2.525 1.125,2.343 1.065 C 2.107 0.987,1.874 0.986,1.670 1.061 M12.111 5.679 C 12.029 5.694,11.877 5.760,11.772 5.825 C 11.240 6.154,11.163 6.934,11.620 7.356 C 11.751 7.476,12.414 7.827,14.208 8.723 C 15.535 9.386,16.625 9.933,16.631 9.939 C 16.637 9.944,16.511 10.216,16.351 10.544 C 16.079 11.101,16.060 11.157,16.061 11.400 C 16.064 11.756,16.146 11.892,16.667 12.408 C 17.299 13.034,17.165 12.998,18.910 12.999 C 19.707 13.000,20.360 13.008,20.360 13.017 C 20.360 13.026,20.180 13.399,19.960 13.844 C 19.520 14.734,19.490 14.860,19.623 15.251 C 19.695 15.462,19.952 15.722,20.187 15.821 C 20.532 15.966,21.038 15.850,21.284 15.569 C 21.352 15.492,21.604 15.031,21.845 14.544 C 22.357 13.511,22.434 13.248,22.364 12.774 C 22.259 12.060,21.875 11.518,21.251 11.205 C 20.907 11.031,20.648 11.001,19.490 11.001 C 18.890 11.000,18.400 10.990,18.400 10.979 C 18.400 10.967,18.445 10.852,18.499 10.722 C 18.661 10.337,18.701 9.988,18.627 9.621 C 18.533 9.164,18.365 8.838,18.070 8.542 C 17.824 8.297,17.757 8.260,15.199 6.987 C 13.432 6.107,12.528 5.678,12.420 5.667 C 12.332 5.658,12.193 5.663,12.111 5.679 M6.446 8.179 C 6.344 8.250,6.206 8.394,6.140 8.500 C 6.034 8.671,6.020 8.730,6.020 8.997 C 6.020 9.257,6.036 9.327,6.133 9.492 C 6.338 9.841,6.705 10.029,7.105 9.988 C 7.443 9.953,7.741 9.756,7.886 9.471 L 7.942 9.361 10.940 12.360 L 13.938 15.358 13.742 15.756 L 13.546 16.154 8.676 13.718 C 4.167 11.463,3.790 11.266,3.588 11.069 C 3.199 10.689,2.972 10.097,3.015 9.573 C 3.047 9.177,3.131 8.977,3.918 7.404 L 4.607 6.027 5.619 7.039 L 6.632 8.051 6.446 8.179 " stroke="none" fill-rule="evenodd" fill="#000000"></path></svg>