<svg  xmlns="http://www.w3.org/2000/svg" width="24" height="24" viewBox="0 0 24 24" fill="none" stroke="currentColor" stroke-width="2" stroke-linecap="round" stroke-linejoin="round"><path d="M11.525 1.042 C 11.406 1.064,11.208 1.110,11.085 1.146 C 10.746 1.245,2.551 5.355,2.240 5.582 C 1.614 6.040,1.172 6.754,1.041 7.522 C 1.010 7.705,1.000 9.504,1.008 13.680 L 1.020 19.580 1.114 19.860 C 1.446 20.851,2.184 21.582,3.160 21.886 L 3.460 21.980 12.000 21.980 L 20.540 21.980 20.840 21.886 C 21.816 21.582,22.554 20.851,22.886 19.860 L 22.980 19.580 22.993 13.700 C 23.006 7.486,23.008 7.537,22.821 7.000 C 22.637 6.470,22.230 5.926,21.760 5.582 C 21.598 5.464,19.912 4.599,17.280 3.284 C 13.926 1.608,12.998 1.161,12.760 1.104 C 12.400 1.018,11.821 0.990,11.525 1.042 M16.415 5.084 C 19.743 6.744,20.568 7.171,20.702 7.303 C 21.022 7.617,21.000 7.160,21.000 13.481 C 21.000 18.133,20.990 19.139,20.945 19.290 C 20.872 19.533,20.707 19.740,20.484 19.872 C 20.308 19.975,20.272 19.981,19.650 19.993 L 19.000 20.007 18.999 14.893 C 18.999 9.348,19.005 9.525,18.781 9.083 C 18.646 8.816,18.297 8.449,18.017 8.281 C 17.533 7.989,17.867 8.005,12.000 8.005 C 6.133 8.005,6.467 7.989,5.983 8.281 C 5.703 8.449,5.354 8.816,5.219 9.083 C 4.991 9.532,5.000 9.297,5.000 14.872 L 5.000 20.007 4.350 19.993 C 3.728 19.981,3.692 19.975,3.516 19.872 C 3.415 19.813,3.284 19.700,3.225 19.623 C 2.987 19.311,3.000 19.657,3.000 13.502 C 3.000 7.209,2.981 7.628,3.275 7.321 C 3.392 7.199,4.216 6.771,7.480 5.138 C 9.713 4.022,11.612 3.084,11.700 3.054 C 12.102 2.921,11.930 2.846,16.415 5.084 M17.000 11.000 L 17.000 12.000 12.000 12.000 L 7.000 12.000 7.000 11.000 L 7.000 10.000 12.000 10.000 L 17.000 10.000 17.000 11.000 M17.000 15.000 L 17.000 16.000 12.000 16.000 L 7.000 16.000 7.000 15.000 L 7.000 14.000 12.000 14.000 L 17.000 14.000 17.000 15.000 M17.000 19.000 L 17.000 20.000 12.000 20.000 L 7.000 20.000 7.000 19.000 L 7.000 18.000 12.000 18.000 L 17.000 18.000 17.000 19.000 " stroke="none" fill-rule="evenodd" fill="#000000"></path></svg>