<svg  xmlns="http://www.w3.org/2000/svg" width="24" height="24" viewBox="0 0 24 24" fill="none" stroke="currentColor" stroke-width="2" stroke-linecap="round" stroke-linejoin="round"><path d="M6.499 2.043 C 5.390 2.231,4.488 3.024,4.114 4.140 L 4.020 4.420 4.009 12.316 C 3.998 20.962,3.984 20.413,4.228 20.920 C 4.366 21.206,4.794 21.634,5.080 21.772 C 5.590 22.018,6.153 22.060,6.642 21.888 C 6.763 21.845,7.870 21.234,9.102 20.531 C 10.333 19.827,11.434 19.204,11.549 19.146 C 11.837 19.000,12.163 19.000,12.451 19.146 C 12.566 19.204,13.667 19.827,14.898 20.531 C 16.130 21.234,17.237 21.845,17.358 21.888 C 17.847 22.060,18.410 22.018,18.920 21.772 C 19.206 21.634,19.634 21.206,19.772 20.920 C 20.016 20.413,20.002 20.962,19.991 12.316 L 19.980 4.420 19.886 4.140 C 19.556 3.158,18.821 2.425,17.861 2.121 L 17.540 2.020 12.120 2.014 C 9.139 2.011,6.609 2.024,6.499 2.043 M17.310 4.061 C 17.592 4.144,17.858 4.412,17.940 4.693 C 17.993 4.876,17.999 5.816,17.990 12.445 L 17.980 19.989 15.820 18.751 C 14.632 18.070,13.516 17.443,13.340 17.357 C 12.466 16.930,11.534 16.930,10.660 17.357 C 10.484 17.443,9.368 18.070,8.180 18.751 L 6.020 19.989 6.010 12.445 C 5.999 3.959,5.974 4.632,6.303 4.303 C 6.621 3.985,6.233 4.006,11.983 4.003 C 16.458 4.000,17.131 4.008,17.310 4.061 M9.044 6.625 C 8.787 6.753,8.583 7.016,8.529 7.289 C 8.482 7.527,8.535 7.851,8.649 8.019 C 8.694 8.085,9.147 8.559,9.655 9.070 L 10.579 10.000 9.655 10.930 C 9.147 11.442,8.695 11.914,8.651 11.980 C 8.376 12.389,8.513 13.026,8.940 13.320 C 9.238 13.525,9.740 13.540,10.017 13.352 C 10.085 13.306,10.558 12.853,11.070 12.345 L 12.000 11.421 12.930 12.345 C 13.442 12.853,13.915 13.306,13.981 13.351 C 14.262 13.541,14.762 13.525,15.065 13.317 C 15.478 13.033,15.618 12.376,15.351 11.981 C 15.306 11.915,14.853 11.442,14.345 10.930 L 13.421 10.001 14.369 9.050 C 15.074 8.343,15.337 8.052,15.398 7.914 C 15.695 7.241,15.230 6.518,14.502 6.521 C 14.089 6.522,13.997 6.588,12.950 7.631 L 12.000 8.578 11.050 7.631 C 10.371 6.954,10.049 6.661,9.920 6.603 C 9.654 6.483,9.313 6.492,9.044 6.625 " stroke="none" fill-rule="evenodd" fill="#000000"></path></svg>