<svg  xmlns="http://www.w3.org/2000/svg" width="24" height="24" viewBox="0 0 24 24" fill="none" stroke="currentColor" stroke-width="2" stroke-linecap="round" stroke-linejoin="round"><path d="M1.670 1.061 C 1.448 1.142,1.250 1.309,1.128 1.516 C 1.037 1.672,1.020 1.746,1.020 2.000 C 1.020 2.254,1.036 2.327,1.127 2.480 C 1.187 2.579,2.082 3.506,3.117 4.540 L 5.000 6.420 5.000 6.885 C 5.000 7.666,5.152 8.301,5.483 8.900 C 5.568 9.054,5.845 9.459,6.099 9.800 C 6.576 10.442,6.784 10.809,6.905 11.220 C 6.970 11.441,6.978 11.816,6.998 16.020 L 7.021 20.580 7.114 20.860 C 7.445 21.849,8.184 22.582,9.160 22.886 L 9.460 22.980 12.000 22.980 L 14.540 22.980 14.840 22.886 C 15.817 22.581,16.565 21.839,16.883 20.860 C 16.966 20.604,16.975 20.487,16.991 19.504 L 17.008 18.429 19.214 20.630 C 20.427 21.841,21.483 22.865,21.560 22.905 C 21.659 22.957,21.788 22.979,22.000 22.979 C 22.258 22.980,22.327 22.964,22.492 22.867 C 22.968 22.587,23.139 21.967,22.865 21.508 C 22.810 21.416,18.215 16.793,12.653 11.235 C 3.300 1.889,2.525 1.125,2.343 1.065 C 2.107 0.987,1.874 0.986,1.670 1.061 M7.362 1.047 C 6.923 1.173,6.595 1.669,6.656 2.113 C 6.689 2.354,6.778 2.526,6.969 2.715 C 7.275 3.018,6.938 3.000,12.247 3.000 L 17.000 3.000 17.000 3.999 L 17.000 4.998 14.190 5.009 C 11.402 5.020,11.379 5.021,11.219 5.106 C 10.853 5.302,10.666 5.604,10.666 6.000 C 10.666 6.296,10.753 6.506,10.962 6.710 C 11.253 6.995,11.070 6.979,14.190 6.991 C 16.382 6.999,17.000 7.012,17.000 7.051 C 16.998 7.249,16.897 7.652,16.797 7.852 C 16.732 7.984,16.477 8.362,16.232 8.692 C 15.773 9.310,15.422 9.926,15.296 10.332 C 15.006 11.269,16.165 12.000,16.907 11.348 C 16.992 11.274,17.130 11.060,17.258 10.803 C 17.386 10.550,17.654 10.131,17.929 9.760 C 18.475 9.020,18.637 8.739,18.795 8.255 C 18.986 7.670,19.000 7.453,18.999 5.027 C 18.999 2.600,18.991 2.497,18.781 2.083 C 18.646 1.816,18.297 1.449,18.017 1.281 C 17.535 0.990,17.823 1.004,12.380 1.006 C 9.280 1.007,7.450 1.022,7.362 1.047 M11.056 12.674 C 10.983 12.878,10.984 14.125,11.057 14.330 C 11.136 14.551,11.298 14.744,11.511 14.869 C 11.673 14.964,11.744 14.980,12.003 14.980 C 12.271 14.980,12.329 14.966,12.503 14.859 C 12.611 14.792,12.756 14.654,12.824 14.553 L 12.949 14.368 13.974 15.394 L 15.000 16.421 15.000 18.264 C 15.000 20.265,14.993 20.337,14.779 20.618 C 14.718 20.698,14.585 20.813,14.484 20.872 L 14.300 20.980 12.000 20.980 L 9.700 20.980 9.516 20.872 C 9.328 20.761,9.158 20.572,9.070 20.373 C 9.031 20.286,9.015 19.236,8.998 15.760 C 8.976 11.357,8.974 11.253,8.891 10.920 C 8.845 10.733,8.761 10.455,8.706 10.302 L 8.604 10.025 9.856 11.276 L 11.108 12.528 11.056 12.674 " stroke="none" fill-rule="evenodd" fill="#000000"></path></svg>