<svg  xmlns="http://www.w3.org/2000/svg" width="24" height="24" viewBox="0 0 24 24" fill="none" stroke="currentColor" stroke-width="2" stroke-linecap="round" stroke-linejoin="round"><path d="M3.499 5.043 C 2.380 5.232,1.461 6.048,1.114 7.160 L 1.020 7.460 1.020 12.000 L 1.020 16.540 1.114 16.840 C 1.422 17.827,2.173 18.578,3.160 18.886 L 3.460 18.980 12.000 18.980 L 20.540 18.980 20.840 18.886 C 21.827 18.578,22.578 17.827,22.886 16.840 L 22.980 16.540 22.980 12.000 L 22.980 7.460 22.886 7.160 C 22.581 6.182,21.832 5.428,20.861 5.121 L 20.540 5.020 12.120 5.014 C 7.489 5.011,3.609 5.024,3.499 5.043 M5.000 12.003 L 5.000 17.007 4.350 16.993 C 3.728 16.981,3.692 16.975,3.516 16.872 C 3.415 16.813,3.284 16.700,3.225 16.623 C 2.990 16.315,3.000 16.515,3.000 12.022 C 3.000 7.356,2.983 7.624,3.304 7.303 C 3.554 7.052,3.727 7.006,4.430 7.003 L 5.000 7.000 5.000 12.003 M17.000 12.000 L 17.000 17.000 12.000 17.000 L 7.000 17.000 7.000 12.000 L 7.000 7.000 12.000 7.000 L 17.000 7.000 17.000 12.000 M20.310 7.061 C 20.589 7.144,20.856 7.411,20.939 7.690 C 20.992 7.867,21.000 8.441,21.000 12.001 C 21.000 16.458,21.007 16.319,20.779 16.618 C 20.718 16.698,20.585 16.813,20.484 16.872 C 20.308 16.975,20.272 16.981,19.650 16.993 L 19.000 17.007 19.000 12.003 L 19.000 7.000 19.553 7.000 C 19.931 7.000,20.170 7.019,20.310 7.061 M9.800 9.037 C 9.310 9.137,8.961 9.608,9.012 10.100 C 9.078 10.747,9.683 11.138,10.336 10.956 C 10.546 10.898,10.898 10.546,10.956 10.336 C 11.032 10.065,11.010 9.796,10.895 9.564 C 10.794 9.363,10.573 9.155,10.380 9.081 C 10.244 9.030,9.947 9.007,9.800 9.037 M13.800 9.037 C 13.310 9.137,12.961 9.608,13.012 10.100 C 13.078 10.747,13.683 11.138,14.336 10.956 C 14.546 10.898,14.898 10.546,14.956 10.336 C 15.032 10.065,15.010 9.796,14.895 9.564 C 14.794 9.363,14.573 9.155,14.380 9.081 C 14.244 9.030,13.947 9.007,13.800 9.037 M9.800 13.037 C 9.310 13.137,8.961 13.608,9.012 14.100 C 9.078 14.747,9.683 15.138,10.336 14.956 C 10.546 14.898,10.898 14.546,10.956 14.336 C 11.032 14.065,11.010 13.796,10.895 13.564 C 10.794 13.363,10.573 13.155,10.380 13.081 C 10.244 13.030,9.947 13.007,9.800 13.037 M13.800 13.037 C 13.310 13.137,12.961 13.608,13.012 14.100 C 13.078 14.747,13.683 15.138,14.336 14.956 C 14.546 14.898,14.898 14.546,14.956 14.336 C 15.032 14.065,15.010 13.796,14.895 13.564 C 14.794 13.363,14.573 13.155,14.380 13.081 C 14.244 13.030,13.947 13.007,13.800 13.037 " stroke="none" fill-rule="evenodd" fill="#000000"></path></svg>