<svg  xmlns="http://www.w3.org/2000/svg" width="24" height="24" viewBox="0 0 24 24" fill="none" stroke="currentColor" stroke-width="2" stroke-linecap="round" stroke-linejoin="round"><path d="M6.160 2.818 C 5.870 2.899,5.643 3.023,5.260 3.309 C 4.814 3.642,3.703 4.744,3.353 5.200 C 2.114 6.813,1.360 8.600,1.098 10.548 C 1.017 11.148,1.057 11.463,1.269 11.886 C 1.523 12.394,1.985 12.780,2.514 12.927 C 2.758 12.994,2.981 13.000,5.479 12.998 C 8.390 12.996,8.335 13.000,8.619 12.783 C 8.863 12.598,8.960 12.377,9.005 11.912 C 9.055 11.385,9.128 11.092,9.299 10.730 C 9.545 10.209,9.877 9.819,10.340 9.510 C 10.810 9.195,10.954 8.993,10.990 8.598 C 11.006 8.411,10.992 8.330,10.912 8.155 C 10.802 7.916,8.454 3.836,8.275 3.574 C 7.847 2.948,6.901 2.610,6.160 2.818 M16.854 2.817 C 16.408 2.925,15.966 3.222,15.725 3.574 C 15.545 3.837,13.200 7.911,13.089 8.152 C 13.008 8.330,12.993 8.411,13.010 8.598 C 13.046 8.993,13.190 9.195,13.660 9.510 C 14.123 9.819,14.455 10.209,14.701 10.730 C 14.872 11.092,14.945 11.385,14.995 11.912 C 15.040 12.377,15.137 12.598,15.381 12.783 C 15.665 13.000,15.610 12.996,18.520 12.998 C 21.447 12.999,21.411 13.002,21.872 12.776 C 22.182 12.624,22.555 12.239,22.730 11.890 C 22.926 11.497,22.981 11.148,22.920 10.671 C 22.647 8.524,21.771 6.521,20.394 4.894 C 19.775 4.163,18.652 3.170,18.200 2.955 C 17.794 2.761,17.294 2.710,16.854 2.817 M7.676 6.515 L 8.679 8.250 8.364 8.583 C 8.009 8.958,7.754 9.322,7.521 9.788 C 7.358 10.114,7.120 10.788,7.120 10.924 C 7.120 10.998,7.062 11.000,5.100 11.000 L 3.080 11.000 3.080 10.875 C 3.080 10.693,3.266 9.795,3.386 9.400 C 3.808 8.006,4.589 6.698,5.620 5.660 C 5.950 5.328,6.635 4.742,6.662 4.769 C 6.668 4.775,7.125 5.561,7.676 6.515 M17.720 5.057 C 19.113 6.182,20.228 7.912,20.681 9.653 C 20.801 10.113,20.920 10.738,20.920 10.905 L 20.920 11.000 18.900 11.000 C 16.938 11.000,16.880 10.998,16.880 10.924 C 16.880 10.788,16.642 10.114,16.479 9.788 C 16.246 9.322,15.991 8.958,15.636 8.583 L 15.321 8.250 16.328 6.507 C 16.926 5.471,17.352 4.774,17.377 4.789 C 17.401 4.803,17.555 4.923,17.720 5.057 M11.695 11.055 C 11.464 11.130,11.255 11.300,11.128 11.516 C 11.037 11.672,11.020 11.746,11.020 12.000 C 11.020 12.257,11.036 12.327,11.133 12.492 C 11.651 13.374,12.998 13.018,12.998 12.000 C 12.998 11.623,12.792 11.281,12.463 11.112 C 12.265 11.010,11.911 10.984,11.695 11.055 M9.646 14.531 C 9.336 14.630,9.219 14.802,7.872 17.140 C 7.133 18.421,6.542 19.491,6.491 19.640 C 6.261 20.310,6.463 21.141,6.981 21.659 C 7.452 22.130,8.893 22.647,10.400 22.886 C 11.229 23.017,12.750 23.017,13.594 22.886 C 15.070 22.657,16.549 22.130,17.010 21.668 C 17.535 21.142,17.740 20.312,17.509 19.640 C 17.458 19.492,16.864 18.416,16.128 17.140 C 14.761 14.767,14.665 14.628,14.330 14.528 C 14.030 14.438,13.798 14.466,13.420 14.640 C 12.806 14.922,12.565 14.980,12.000 14.980 C 11.435 14.980,11.194 14.922,10.580 14.640 C 10.208 14.469,9.938 14.438,9.646 14.531 M10.751 16.839 C 11.590 17.055,12.413 17.054,13.256 16.838 C 13.430 16.793,13.585 16.771,13.601 16.788 C 13.617 16.806,14.039 17.531,14.539 18.400 C 15.039 19.269,15.484 20.038,15.527 20.109 L 15.606 20.239 15.377 20.340 C 14.488 20.733,13.121 21.000,12.000 21.000 C 10.878 21.000,9.512 20.733,8.622 20.339 C 8.401 20.241,8.394 20.234,8.449 20.149 C 8.480 20.100,8.934 19.317,9.457 18.410 C 9.980 17.503,10.416 16.760,10.425 16.760 C 10.434 16.760,10.581 16.796,10.751 16.839 " stroke="none" fill-rule="evenodd" fill="#000000"></path></svg>