<svg  xmlns="http://www.w3.org/2000/svg" width="24" height="24" viewBox="0 0 24 24" fill="none" stroke="currentColor" stroke-width="2" stroke-linecap="round" stroke-linejoin="round"><path d="M8.494 1.039 C 6.792 1.280,5.496 2.452,5.099 4.109 L 5.030 4.398 4.649 4.602 C 3.326 5.309,2.415 6.533,2.093 8.040 C 2.039 8.292,2.021 8.546,2.022 9.020 C 2.024 9.661,2.067 9.966,2.225 10.450 L 2.287 10.641 2.130 10.830 C 1.594 11.480,1.207 12.349,1.059 13.236 C 0.956 13.848,0.992 14.587,1.154 15.204 C 1.415 16.199,1.788 16.844,2.517 17.563 L 2.987 18.026 3.015 18.395 C 3.103 19.561,3.683 20.781,4.533 21.588 C 5.917 22.903,7.873 23.334,9.633 22.713 C 10.412 22.438,10.966 22.084,11.570 21.475 L 12.000 21.041 12.430 21.475 C 12.667 21.714,12.995 21.999,13.160 22.109 C 15.180 23.455,17.723 23.245,19.467 21.588 C 20.312 20.785,20.897 19.556,20.985 18.397 L 21.013 18.026 21.480 17.563 C 22.216 16.835,22.586 16.196,22.846 15.204 C 23.235 13.721,22.857 12.026,21.870 10.830 L 21.713 10.641 21.775 10.450 C 21.933 9.966,21.976 9.661,21.978 9.020 C 21.979 8.546,21.961 8.292,21.907 8.040 C 21.582 6.519,20.667 5.302,19.308 4.579 C 19.032 4.432,18.955 4.371,18.936 4.287 C 18.774 3.551,18.530 3.017,18.130 2.518 C 16.644 0.669,13.952 0.493,12.211 2.133 L 12.002 2.329 11.736 2.085 C 11.589 1.950,11.371 1.776,11.252 1.697 C 10.921 1.477,10.338 1.217,9.960 1.122 C 9.575 1.024,8.878 0.985,8.494 1.039 M9.407 3.058 C 9.823 3.146,10.108 3.300,10.400 3.597 C 10.706 3.906,10.896 4.263,10.957 4.640 C 11.016 5.001,11.014 9.112,10.955 9.492 C 10.846 10.202,10.493 10.845,9.930 11.363 C 9.627 11.642,9.294 11.836,8.834 12.000 C 8.551 12.101,8.428 12.170,8.299 12.298 C 7.908 12.690,7.907 13.310,8.299 13.701 C 8.479 13.882,8.759 14.000,9.003 14.000 C 9.173 14.000,9.866 13.769,10.198 13.601 C 10.321 13.539,10.545 13.405,10.696 13.304 C 10.847 13.203,10.978 13.120,10.987 13.120 C 10.997 13.120,10.998 14.331,10.990 15.810 C 10.975 18.790,10.985 18.666,10.702 19.267 C 10.181 20.372,9.033 21.063,7.847 20.986 C 6.785 20.917,5.834 20.312,5.369 19.410 C 5.112 18.911,5.110 18.927,5.429 18.971 C 5.878 19.032,6.278 18.992,6.496 18.864 C 7.248 18.424,7.120 17.305,6.290 17.055 C 6.189 17.025,6.019 17.000,5.912 17.000 C 5.805 17.000,5.578 16.971,5.409 16.936 C 4.278 16.703,3.426 15.900,3.099 14.760 C 3.005 14.436,2.993 13.646,3.076 13.323 C 3.270 12.565,3.712 11.928,4.334 11.513 C 4.809 11.196,4.954 10.994,4.989 10.601 C 5.028 10.179,4.709 9.706,4.314 9.598 C 4.218 9.572,4.119 9.545,4.093 9.538 C 4.029 9.520,3.984 9.046,4.017 8.726 C 4.059 8.313,4.113 8.132,4.321 7.700 C 4.535 7.258,4.715 7.021,5.063 6.725 L 5.294 6.527 5.427 6.792 C 5.501 6.938,5.619 7.118,5.690 7.194 C 6.084 7.608,6.759 7.586,7.145 7.147 C 7.451 6.800,7.475 6.485,7.238 5.930 C 7.042 5.471,6.983 5.186,7.015 4.839 C 7.061 4.336,7.248 3.945,7.619 3.580 C 8.112 3.094,8.728 2.914,9.407 3.058 M15.462 3.062 C 16.256 3.269,16.846 3.916,16.971 4.718 C 17.030 5.101,16.972 5.442,16.765 5.925 C 16.525 6.485,16.548 6.799,16.855 7.147 C 17.244 7.590,17.905 7.609,18.311 7.189 C 18.382 7.116,18.499 6.938,18.573 6.792 L 18.706 6.527 18.937 6.725 C 19.285 7.021,19.465 7.258,19.679 7.700 C 19.886 8.129,19.938 8.306,19.982 8.730 C 20.015 9.053,19.972 9.520,19.907 9.538 C 19.881 9.545,19.782 9.572,19.686 9.598 C 19.291 9.706,18.972 10.179,19.011 10.601 C 19.048 11.017,19.137 11.129,19.828 11.640 C 20.953 12.473,21.315 14.052,20.677 15.351 C 20.377 15.963,19.747 16.538,19.096 16.794 C 18.829 16.899,18.335 17.000,18.088 17.000 C 17.510 17.000,17.066 17.367,17.013 17.888 C 16.971 18.293,17.156 18.661,17.504 18.864 C 17.722 18.992,18.122 19.032,18.571 18.971 C 18.890 18.927,18.888 18.911,18.631 19.410 C 18.368 19.921,17.861 20.415,17.336 20.675 C 15.823 21.423,14.018 20.793,13.298 19.267 C 13.015 18.666,13.025 18.790,13.010 15.810 C 13.002 14.331,13.003 13.120,13.013 13.120 C 13.022 13.120,13.153 13.203,13.304 13.304 C 13.455 13.405,13.679 13.539,13.802 13.601 C 14.134 13.769,14.827 14.000,14.997 14.000 C 15.241 14.000,15.521 13.882,15.701 13.701 C 16.091 13.311,16.092 12.690,15.703 12.301 C 15.578 12.176,15.451 12.105,15.171 12.004 C 14.650 11.816,14.347 11.627,13.978 11.260 C 13.455 10.740,13.175 10.224,13.057 9.560 C 12.988 9.175,12.976 4.985,13.043 4.617 C 13.144 4.066,13.607 3.452,14.095 3.223 C 14.547 3.011,15.042 2.953,15.462 3.062 " stroke="none" fill-rule="evenodd" fill="#000000"></path></svg>