<svg  xmlns="http://www.w3.org/2000/svg" width="24" height="24" viewBox="0 0 24 24" fill="none" stroke="currentColor" stroke-width="2" stroke-linecap="round" stroke-linejoin="round"><path d="M6.640 1.026 C 5.930 1.137,5.357 1.420,4.864 1.902 C 4.607 2.154,2.451 5.060,2.303 5.354 C 1.996 5.964,2.020 5.286,2.020 13.340 L 2.020 20.540 2.114 20.840 C 2.422 21.827,3.173 22.578,4.160 22.886 L 4.460 22.980 12.000 22.980 L 19.540 22.980 19.840 22.886 C 20.827 22.578,21.578 21.827,21.886 20.840 L 21.980 20.540 21.980 13.360 C 21.980 7.421,21.971 6.142,21.925 5.960 C 21.798 5.449,21.607 5.144,20.434 3.580 C 19.092 1.791,18.952 1.641,18.320 1.322 C 17.678 0.998,18.161 1.022,12.120 1.016 C 9.161 1.013,6.695 1.017,6.640 1.026 M17.461 3.121 C 17.635 3.210,17.744 3.333,18.328 4.101 C 18.695 4.585,18.996 4.994,18.998 5.010 C 18.999 5.026,15.850 5.040,12.000 5.040 C 8.150 5.040,5.000 5.031,5.000 5.019 C 5.000 4.958,6.327 3.245,6.424 3.181 C 6.699 3.001,6.580 3.004,12.061 3.012 L 17.262 3.020 17.461 3.121 M20.000 13.574 C 20.000 18.994,19.991 20.138,19.945 20.290 C 19.872 20.533,19.707 20.740,19.484 20.872 L 19.300 20.980 12.000 20.980 L 4.700 20.980 4.516 20.872 C 4.415 20.813,4.284 20.700,4.225 20.623 C 3.986 20.310,4.000 20.741,4.000 13.595 L 4.000 7.040 12.000 7.040 L 20.000 7.040 20.000 13.574 M7.695 9.057 C 7.466 9.129,7.256 9.299,7.128 9.516 C 7.027 9.688,7.020 9.731,7.021 10.160 C 7.025 11.905,8.099 13.610,9.713 14.433 C 10.506 14.838,11.101 14.980,12.000 14.980 C 12.898 14.980,13.494 14.838,14.286 14.433 C 15.896 13.612,16.975 11.900,16.979 10.160 C 16.980 9.730,16.973 9.688,16.871 9.514 C 16.482 8.853,15.520 8.847,15.136 9.504 C 15.052 9.647,15.026 9.762,14.995 10.121 C 14.912 11.081,14.590 11.723,13.892 12.321 C 13.609 12.563,13.239 12.762,12.840 12.886 C 12.406 13.021,11.594 13.021,11.160 12.886 C 10.761 12.762,10.391 12.563,10.108 12.321 C 9.410 11.723,9.088 11.081,9.005 10.121 C 8.975 9.764,8.948 9.646,8.866 9.506 C 8.628 9.101,8.145 8.916,7.695 9.057 " stroke="none" fill-rule="evenodd" fill="#000000"></path></svg>