<svg  xmlns="http://www.w3.org/2000/svg" width="24" height="24" viewBox="0 0 24 24" fill="none" stroke="currentColor" stroke-width="2" stroke-linecap="round" stroke-linejoin="round"><path d="M11.660 1.035 C 11.406 1.102,11.155 1.242,10.954 1.427 C 10.758 1.609,10.674 1.766,9.499 4.140 C 8.813 5.526,8.202 6.719,8.141 6.792 C 8.018 6.938,7.823 7.050,7.580 7.114 C 7.492 7.137,6.243 7.328,4.804 7.538 C 3.365 7.749,2.123 7.940,2.043 7.964 C 1.963 7.988,1.800 8.073,1.680 8.154 C 0.902 8.676,0.780 9.774,1.424 10.468 C 1.510 10.560,2.392 11.424,3.384 12.388 C 4.377 13.351,5.237 14.197,5.295 14.266 C 5.435 14.434,5.520 14.684,5.520 14.932 C 5.520 15.043,5.319 16.296,5.074 17.717 C 4.788 19.375,4.628 20.400,4.629 20.580 C 4.631 21.003,4.751 21.278,5.076 21.604 C 5.419 21.946,5.674 22.053,6.161 22.057 C 6.487 22.060,6.517 22.052,6.881 21.875 C 7.591 21.530,11.529 19.443,11.662 19.342 C 11.734 19.286,11.842 19.142,11.901 19.021 C 11.994 18.832,12.007 18.762,11.994 18.526 C 11.974 18.173,11.826 17.916,11.542 17.741 C 11.366 17.632,11.313 17.620,11.023 17.620 L 10.700 17.620 8.768 18.635 C 7.705 19.193,6.825 19.639,6.812 19.626 C 6.799 19.612,6.953 18.641,7.154 17.468 C 7.551 15.149,7.581 14.832,7.456 14.268 C 7.376 13.908,7.103 13.324,6.893 13.060 C 6.805 12.950,6.023 12.167,5.156 11.320 C 4.289 10.473,3.575 9.771,3.570 9.760 C 3.564 9.749,4.523 9.599,5.699 9.428 C 7.869 9.112,8.083 9.073,8.489 8.921 C 8.987 8.734,9.601 8.230,9.921 7.743 C 9.999 7.625,10.493 6.654,11.019 5.584 C 11.545 4.515,11.987 3.640,12.000 3.640 C 12.014 3.640,12.456 4.515,12.982 5.585 C 13.508 6.655,14.002 7.627,14.080 7.744 C 14.399 8.230,15.013 8.735,15.511 8.921 C 15.915 9.072,16.124 9.110,18.279 9.425 C 19.446 9.596,20.397 9.746,20.391 9.758 C 20.385 9.770,20.108 10.036,19.775 10.349 C 19.415 10.687,19.141 10.978,19.098 11.068 C 18.786 11.721,19.273 12.488,20.000 12.488 C 20.144 12.488,20.296 12.458,20.405 12.409 C 20.570 12.335,22.399 10.680,22.655 10.374 C 22.949 10.023,23.068 9.458,22.942 9.018 C 22.809 8.557,22.534 8.236,22.102 8.037 C 21.888 7.938,21.559 7.881,19.220 7.541 C 17.768 7.329,16.508 7.137,16.420 7.114 C 16.177 7.050,15.982 6.938,15.859 6.792 C 15.798 6.719,15.195 5.541,14.519 4.173 C 13.152 1.409,13.140 1.389,12.649 1.155 C 12.448 1.059,12.325 1.029,12.086 1.017 C 11.918 1.010,11.726 1.017,11.660 1.035 M17.695 14.057 C 17.466 14.129,17.256 14.299,17.128 14.516 L 17.020 14.700 17.008 15.850 L 16.995 17.000 15.944 17.000 C 14.797 17.000,14.643 17.022,14.382 17.221 C 14.302 17.282,14.187 17.415,14.128 17.516 C 14.037 17.672,14.020 17.746,14.020 18.000 C 14.020 18.256,14.036 18.328,14.131 18.489 C 14.192 18.592,14.304 18.725,14.381 18.783 C 14.642 18.983,14.738 18.996,15.908 18.998 L 16.995 19.000 17.008 20.153 L 17.020 21.307 17.141 21.503 C 17.543 22.156,18.457 22.156,18.859 21.503 L 18.980 21.307 18.992 20.153 L 19.005 19.000 20.092 18.998 C 21.262 18.996,21.358 18.983,21.619 18.783 C 21.696 18.725,21.808 18.592,21.869 18.489 C 21.964 18.328,21.980 18.256,21.980 18.000 C 21.980 17.746,21.963 17.672,21.872 17.516 C 21.813 17.415,21.698 17.282,21.618 17.221 C 21.357 17.022,21.203 17.000,20.056 17.000 L 19.005 17.000 18.992 15.850 L 18.980 14.700 18.872 14.516 C 18.628 14.101,18.150 13.915,17.695 14.057 " stroke="none" fill-rule="evenodd" fill="#000000"></path></svg>