<svg  xmlns="http://www.w3.org/2000/svg" width="24" height="24" viewBox="0 0 24 24" fill="none" stroke="currentColor" stroke-width="2" stroke-linecap="round" stroke-linejoin="round"><path d="M17.456 2.041 C 16.832 2.107,16.336 2.256,15.743 2.557 C 15.187 2.839,14.741 3.176,14.318 3.635 L 13.989 3.992 12.124 4.011 C 9.901 4.034,9.620 4.067,8.620 4.427 C 6.453 5.206,4.776 7.056,4.223 9.275 C 4.170 9.487,4.115 9.739,4.099 9.835 L 4.071 10.010 3.872 9.986 C 3.530 9.946,3.212 9.702,3.072 9.373 C 3.043 9.305,3.015 8.947,3.002 8.480 C 2.981 7.721,2.977 7.695,2.871 7.514 C 2.479 6.848,1.521 6.848,1.129 7.514 L 1.020 7.700 1.020 8.620 C 1.020 9.473,1.027 9.562,1.114 9.840 C 1.483 11.021,2.511 11.876,3.693 11.983 L 3.989 12.010 4.015 12.415 C 4.105 13.784,4.712 15.150,5.682 16.162 L 6.000 16.494 6.000 17.879 C 6.000 19.378,6.015 19.516,6.225 19.930 C 6.361 20.199,6.801 20.639,7.070 20.775 C 7.479 20.982,7.632 21.000,9.000 21.000 C 10.368 21.000,10.521 20.982,10.930 20.775 C 11.196 20.640,11.638 20.200,11.771 19.937 C 11.952 19.581,12.000 19.305,12.000 18.624 L 12.000 18.000 12.500 18.000 L 13.000 18.000 13.000 18.632 C 13.000 19.321,13.044 19.572,13.225 19.930 C 13.361 20.199,13.801 20.639,14.070 20.775 C 14.479 20.982,14.632 21.000,16.000 21.000 C 17.368 21.000,17.521 20.982,17.930 20.775 C 18.196 20.640,18.638 20.200,18.771 19.937 C 18.981 19.524,19.000 19.357,19.000 17.954 L 19.000 16.659 19.310 16.454 C 19.706 16.192,20.192 15.706,20.454 15.310 L 20.659 15.000 20.961 15.000 C 21.548 15.000,21.992 14.817,22.404 14.404 C 22.694 14.114,22.841 13.863,22.937 13.491 C 23.026 13.149,23.028 10.903,22.940 10.529 C 22.858 10.182,22.720 9.927,22.465 9.653 C 22.102 9.262,21.568 9.009,21.093 9.002 L 20.926 9.000 20.861 8.710 C 20.620 7.647,20.058 6.602,19.317 5.839 L 19.004 5.517 18.992 4.109 L 18.980 2.700 18.872 2.516 C 18.611 2.072,18.263 1.956,17.456 2.041 M17.112 6.447 C 17.175 6.574,17.317 6.730,17.560 6.937 C 18.388 7.646,18.866 8.569,18.966 9.653 C 18.990 9.921,19.026 10.205,19.045 10.284 C 19.096 10.495,19.290 10.739,19.508 10.867 C 19.694 10.976,19.721 10.980,20.350 10.993 L 21.000 11.007 21.000 12.003 L 21.000 13.000 20.427 13.000 C 19.999 13.000,19.805 13.017,19.660 13.066 C 19.388 13.159,19.158 13.401,19.032 13.727 C 18.813 14.295,18.441 14.702,17.920 14.944 C 17.755 15.020,17.557 15.116,17.480 15.156 C 17.307 15.247,17.097 15.513,17.042 15.711 C 17.017 15.802,17.000 16.472,17.000 17.430 L 17.000 19.000 16.002 19.000 L 15.005 19.000 14.992 17.850 L 14.980 16.700 14.872 16.516 C 14.740 16.293,14.533 16.128,14.290 16.055 C 14.026 15.975,10.974 15.975,10.710 16.055 C 10.467 16.128,10.260 16.293,10.128 16.516 L 10.020 16.700 10.008 17.850 L 9.995 19.000 8.999 19.000 L 8.003 19.000 7.991 17.370 C 7.978 15.424,8.007 15.547,7.445 15.068 C 7.007 14.696,6.644 14.221,6.399 13.700 C 6.082 13.029,6.000 12.572,6.000 11.489 C 6.000 10.223,6.131 9.572,6.556 8.728 C 7.184 7.481,8.397 6.510,9.760 6.162 C 10.289 6.027,10.783 6.000,12.768 6.000 L 14.700 5.999 14.900 5.905 C 15.115 5.803,15.240 5.682,15.537 5.289 C 15.875 4.841,16.226 4.544,16.700 4.307 L 16.980 4.166 17.000 5.213 C 17.019 6.203,17.025 6.270,17.112 6.447 M15.695 9.055 C 15.464 9.130,15.255 9.300,15.128 9.516 C 15.037 9.672,15.020 9.746,15.020 10.000 C 15.020 10.257,15.036 10.327,15.133 10.492 C 15.651 11.374,16.998 11.018,16.998 10.000 C 16.998 9.623,16.792 9.281,16.463 9.112 C 16.265 9.010,15.911 8.984,15.695 9.055 " stroke="none" fill-rule="evenodd" fill="#000000"></path></svg>