<svg  xmlns="http://www.w3.org/2000/svg" width="24" height="24" viewBox="0 0 24 24" fill="none" stroke="currentColor" stroke-width="2" stroke-linecap="round" stroke-linejoin="round"><path d="M4.499 2.043 C 3.379 2.233,2.461 3.048,2.114 4.160 L 2.020 4.460 2.020 12.000 L 2.020 19.540 2.114 19.840 C 2.422 20.827,3.173 21.578,4.160 21.886 L 4.460 21.980 12.000 21.980 L 19.540 21.980 19.840 21.886 C 20.827 21.578,21.578 20.827,21.886 19.840 L 21.980 19.540 21.980 13.980 L 21.980 8.420 21.868 8.060 C 21.732 7.627,21.505 7.192,21.241 6.863 C 20.921 6.464,17.162 2.748,16.920 2.592 C 16.585 2.376,16.319 2.252,15.932 2.130 L 15.580 2.020 10.140 2.014 C 7.148 2.011,4.609 2.024,4.499 2.043 M14.000 6.132 C 14.000 8.443,14.004 8.494,14.225 8.930 C 14.361 9.199,14.801 9.639,15.070 9.775 C 15.506 9.996,15.557 10.000,17.868 10.000 L 20.000 10.000 20.000 14.554 C 20.000 19.497,20.008 19.318,19.779 19.618 C 19.718 19.698,19.585 19.813,19.484 19.872 L 19.300 19.980 12.000 19.980 L 4.700 19.980 4.516 19.872 C 4.415 19.813,4.284 19.700,4.225 19.623 C 3.986 19.309,4.000 19.795,4.000 12.022 C 4.000 4.005,3.975 4.631,4.304 4.303 C 4.619 3.987,4.296 4.006,9.430 4.003 L 14.000 4.000 14.000 6.132 M17.800 6.220 L 19.580 8.000 17.790 8.000 L 16.000 8.000 16.000 6.220 C 16.000 5.241,16.005 4.440,16.010 4.440 C 16.016 4.440,16.821 5.241,17.800 6.220 M7.695 12.055 C 7.464 12.130,7.255 12.300,7.128 12.516 C 7.037 12.672,7.020 12.746,7.020 13.000 C 7.020 13.257,7.036 13.327,7.133 13.492 C 7.651 14.374,8.998 14.018,8.998 13.000 C 8.998 12.623,8.792 12.281,8.463 12.112 C 8.265 12.010,7.911 11.984,7.695 12.055 M15.695 12.055 C 15.464 12.130,15.255 12.300,15.128 12.516 C 15.037 12.672,15.020 12.746,15.020 13.000 C 15.020 13.257,15.036 13.327,15.133 13.492 C 15.651 14.374,16.998 14.018,16.998 13.000 C 16.998 12.623,16.792 12.281,16.463 12.112 C 16.265 12.010,15.911 11.984,15.695 12.055 M9.670 15.057 C 9.449 15.136,9.256 15.298,9.131 15.511 C 9.036 15.672,9.020 15.744,9.020 16.000 C 9.020 16.373,9.109 16.542,9.506 16.923 C 9.844 17.247,10.191 17.484,10.615 17.681 C 11.121 17.915,11.419 17.978,12.020 17.978 C 12.651 17.978,12.936 17.913,13.500 17.639 C 14.177 17.311,14.802 16.734,14.944 16.307 C 15.116 15.791,14.840 15.243,14.316 15.058 C 13.923 14.920,13.566 15.025,13.220 15.381 C 12.896 15.714,12.746 15.818,12.440 15.920 C 11.895 16.104,11.407 15.952,10.843 15.425 C 10.592 15.191,10.473 15.109,10.313 15.062 C 10.062 14.987,9.870 14.986,9.670 15.057 " stroke="none" fill-rule="evenodd" fill="#000000"></path></svg>