<svg  xmlns="http://www.w3.org/2000/svg" width="24" height="24" viewBox="0 0 24 24" fill="none" stroke="currentColor" stroke-width="2" stroke-linecap="round" stroke-linejoin="round"><path d="M4.499 2.043 C 3.380 2.232,2.461 3.048,2.114 4.160 L 2.020 4.460 2.020 12.000 L 2.020 19.540 2.114 19.840 C 2.418 20.816,3.150 21.555,4.140 21.886 L 4.420 21.979 7.816 21.991 C 10.118 21.999,11.279 21.989,11.419 21.960 C 11.938 21.852,12.537 21.399,12.771 20.937 C 13.005 20.476,13.000 20.574,13.000 16.624 L 13.000 13.000 16.632 13.000 C 20.581 13.000,20.475 13.006,20.930 12.775 C 21.196 12.640,21.638 12.200,21.771 11.937 C 22.009 11.469,22.004 11.554,21.991 7.829 L 21.979 4.420 21.886 4.140 C 21.558 3.159,20.821 2.425,19.861 2.121 L 19.540 2.020 12.120 2.014 C 8.039 2.011,4.609 2.024,4.499 2.043 M11.000 7.500 L 11.000 11.000 7.500 11.000 L 4.000 11.000 4.000 7.947 C 4.000 4.480,3.989 4.618,4.304 4.303 C 4.613 3.994,4.464 4.006,7.930 4.003 L 11.000 4.000 11.000 7.500 M19.310 4.061 C 19.589 4.144,19.856 4.411,19.939 4.690 C 19.991 4.865,20.000 5.331,20.000 7.947 L 20.000 11.000 16.500 11.000 L 13.000 11.000 13.000 7.500 L 13.000 4.000 16.053 4.000 C 18.669 4.000,19.135 4.009,19.310 4.061 M11.000 16.501 L 11.000 20.002 7.850 19.991 L 4.700 19.980 4.516 19.872 C 4.415 19.813,4.284 19.700,4.225 19.623 C 3.994 19.320,4.000 19.418,4.000 16.075 L 4.000 13.000 7.500 13.000 L 11.000 13.000 11.000 16.501 M21.640 16.068 C 21.488 16.121,21.196 16.394,19.731 17.853 L 18.002 19.575 17.271 18.855 C 16.655 18.247,16.509 18.123,16.343 18.067 C 15.865 17.905,15.383 18.083,15.128 18.516 C 15.036 18.672,15.020 18.745,15.021 19.000 C 15.021 19.213,15.043 19.341,15.095 19.440 C 15.197 19.633,17.297 21.740,17.520 21.873 C 17.673 21.964,17.745 21.980,18.000 21.979 C 18.212 21.979,18.341 21.957,18.440 21.905 C 18.632 21.805,22.739 17.705,22.873 17.480 C 22.964 17.328,22.980 17.254,22.980 17.000 C 22.980 16.746,22.963 16.672,22.872 16.516 C 22.617 16.083,22.121 15.903,21.640 16.068 " stroke="none" fill-rule="evenodd" fill="#000000"></path></svg>