<svg  xmlns="http://www.w3.org/2000/svg" width="24" height="24" viewBox="0 0 24 24" fill="none" stroke="currentColor" stroke-width="2" stroke-linecap="round" stroke-linejoin="round"><path d="M6.174 5.039 C 5.797 5.119,5.380 5.437,5.191 5.789 C 5.135 5.894,4.175 8.175,3.058 10.859 C 1.670 14.192,1.021 15.797,1.009 15.924 C 0.956 16.477,1.438 17.000,2.000 17.000 C 2.241 17.000,2.521 16.881,2.697 16.704 C 2.837 16.563,2.933 16.365,3.384 15.280 L 3.908 14.020 6.500 14.020 L 9.092 14.020 9.616 15.280 C 10.067 16.365,10.163 16.563,10.303 16.704 C 10.479 16.881,10.759 17.000,11.000 17.000 C 11.562 17.000,12.044 16.477,11.991 15.924 C 11.979 15.797,11.330 14.192,9.942 10.859 C 8.825 8.175,7.865 5.894,7.809 5.789 C 7.676 5.541,7.372 5.259,7.108 5.138 C 6.870 5.030,6.436 4.984,6.174 5.039 M15.174 5.040 C 14.753 5.127,14.330 5.476,14.132 5.900 L 14.020 6.140 14.020 11.000 L 14.020 15.860 14.132 16.100 C 14.279 16.415,14.587 16.724,14.896 16.867 L 15.140 16.980 17.440 16.991 C 19.864 17.003,20.044 16.994,20.588 16.821 C 21.604 16.498,22.497 15.606,22.820 14.591 C 23.278 13.152,22.805 11.625,21.625 10.732 C 21.490 10.629,21.376 10.543,21.370 10.540 C 21.365 10.536,21.442 10.391,21.541 10.217 C 22.673 8.236,21.613 5.734,19.378 5.112 C 19.073 5.028,18.982 5.024,17.200 5.015 C 16.177 5.010,15.265 5.022,15.174 5.040 M19.104 7.133 C 19.414 7.276,19.722 7.586,19.866 7.900 C 19.961 8.106,19.977 8.192,19.977 8.500 C 19.977 8.808,19.961 8.894,19.866 9.100 C 19.722 9.414,19.414 9.724,19.104 9.867 L 18.860 9.980 17.430 9.992 L 16.000 10.004 16.000 8.499 L 16.000 6.995 17.430 7.007 L 18.860 7.020 19.104 7.133 M7.385 9.929 C 7.837 11.013,8.217 11.922,8.228 11.950 C 8.244 11.990,7.883 12.000,6.500 12.000 C 5.117 12.000,4.756 11.990,4.772 11.950 C 4.783 11.922,5.165 11.009,5.620 9.920 C 6.075 8.831,6.457 7.916,6.470 7.886 C 6.502 7.807,6.475 7.748,7.385 9.929 M20.104 12.133 C 20.414 12.276,20.722 12.586,20.866 12.900 C 20.961 13.106,20.977 13.192,20.977 13.500 C 20.977 13.808,20.961 13.894,20.866 14.100 C 20.722 14.414,20.414 14.724,20.104 14.867 L 19.860 14.980 17.930 14.991 L 16.000 15.003 16.000 13.499 L 16.000 11.996 17.930 12.008 L 19.860 12.020 20.104 12.133 " stroke="none" fill-rule="evenodd" fill="#000000"></path></svg>