<svg  xmlns="http://www.w3.org/2000/svg" width="24" height="24" viewBox="0 0 24 24" fill="none" stroke="currentColor" stroke-width="2" stroke-linecap="round" stroke-linejoin="round"><path d="M1.670 1.061 C 1.448 1.142,1.250 1.309,1.128 1.516 C 1.037 1.672,1.020 1.746,1.020 2.000 C 1.020 2.254,1.036 2.327,1.127 2.480 C 1.187 2.579,2.115 3.539,3.191 4.613 L 5.147 6.567 5.094 6.853 C 5.065 7.011,5.023 7.599,5.002 8.160 C 4.920 10.290,4.715 11.367,4.182 12.460 C 3.867 13.106,3.559 13.534,2.865 14.293 C 2.179 15.043,2.002 15.390,2.000 15.982 C 1.999 16.916,2.685 17.767,3.592 17.956 C 3.742 17.987,5.683 18.000,10.192 18.000 L 16.580 18.000 18.960 20.383 C 20.282 21.706,21.420 22.813,21.520 22.873 C 21.673 22.964,21.746 22.980,22.000 22.980 C 22.257 22.980,22.327 22.964,22.492 22.867 C 22.968 22.587,23.139 21.967,22.865 21.508 C 22.810 21.416,18.215 16.793,12.653 11.235 C 3.300 1.889,2.525 1.125,2.343 1.065 C 2.107 0.987,1.874 0.986,1.670 1.061 M11.260 1.044 C 10.105 1.166,8.809 1.651,8.025 2.255 C 7.737 2.478,7.610 2.926,7.721 3.327 C 7.782 3.547,8.083 3.860,8.308 3.936 C 8.621 4.043,8.875 4.021,9.167 3.861 C 10.200 3.293,10.722 3.111,11.550 3.032 C 13.045 2.889,14.551 3.449,15.590 4.536 C 16.539 5.529,17.000 6.718,17.000 8.179 C 17.000 9.036,17.158 10.330,17.359 11.120 C 17.660 12.307,18.054 13.262,18.632 14.212 C 19.029 14.864,19.260 15.039,19.727 15.040 C 20.187 15.040,20.583 14.708,20.684 14.239 C 20.746 13.949,20.678 13.718,20.395 13.259 C 19.746 12.205,19.353 11.126,19.144 9.820 C 19.067 9.336,19.045 9.056,19.001 8.015 C 18.943 6.637,18.739 5.806,18.201 4.770 C 17.857 4.106,17.494 3.615,16.940 3.060 C 16.343 2.464,15.872 2.126,15.100 1.742 C 13.871 1.131,12.612 0.902,11.260 1.044 M10.800 12.220 L 14.580 16.000 9.281 16.000 L 3.982 16.000 4.286 15.690 C 6.056 13.882,6.809 11.991,6.983 8.910 C 6.998 8.652,7.012 8.440,7.015 8.440 C 7.018 8.440,8.721 10.141,10.800 12.220 M9.946 20.065 C 9.698 20.141,9.398 20.433,9.329 20.665 C 9.245 20.947,9.267 21.201,9.398 21.464 C 9.657 21.982,10.195 22.474,10.780 22.729 C 11.253 22.935,11.467 22.979,12.000 22.979 C 12.533 22.979,12.747 22.935,13.220 22.729 C 13.640 22.546,13.983 22.286,14.312 21.902 C 14.811 21.318,14.857 20.735,14.436 20.313 C 14.075 19.951,13.551 19.905,13.148 20.200 C 13.065 20.261,12.935 20.398,12.860 20.503 C 12.693 20.738,12.538 20.863,12.318 20.941 C 11.883 21.094,11.423 20.925,11.143 20.510 C 10.932 20.196,10.583 19.996,10.260 20.003 C 10.194 20.004,10.053 20.032,9.946 20.065 " stroke="none" fill-rule="evenodd" fill="#000000"></path></svg>