<svg  xmlns="http://www.w3.org/2000/svg" width="24" height="24" viewBox="0 0 24 24" fill="none" stroke="currentColor" stroke-width="2" stroke-linecap="round" stroke-linejoin="round"><path d="M11.100 2.024 C 10.026 2.132,9.455 2.225,8.760 2.406 C 6.329 3.037,4.455 4.217,3.228 5.890 C 2.820 6.445,2.583 6.892,2.355 7.529 C 2.094 8.260,2.024 8.674,2.025 9.480 C 2.026 10.105,2.037 10.221,2.129 10.563 C 2.583 12.251,3.749 13.417,5.437 13.871 C 5.778 13.963,5.895 13.974,6.500 13.974 C 7.105 13.974,7.222 13.963,7.563 13.871 C 9.550 13.337,10.890 11.711,10.988 9.717 C 11.076 7.928,10.074 6.239,8.463 5.460 C 8.134 5.300,7.490 5.084,7.326 5.077 C 7.241 5.074,7.754 4.836,8.230 4.657 C 10.196 3.921,12.617 3.804,14.760 4.341 C 15.834 4.610,16.654 4.974,17.610 5.604 C 18.155 5.963,18.293 6.018,18.581 5.988 C 18.954 5.950,19.285 5.706,19.431 5.363 C 19.515 5.165,19.505 4.809,19.411 4.595 C 19.315 4.379,19.132 4.212,18.619 3.871 C 17.212 2.936,15.623 2.371,13.640 2.099 C 13.202 2.039,11.461 1.988,11.100 2.024 M7.020 7.060 C 7.741 7.211,8.395 7.713,8.715 8.362 C 9.087 9.118,9.090 9.878,8.723 10.620 C 8.439 11.195,7.932 11.646,7.320 11.868 C 7.052 11.965,6.965 11.976,6.500 11.976 C 6.035 11.976,5.948 11.965,5.680 11.868 C 4.629 11.487,3.941 10.451,4.015 9.360 C 4.059 8.706,4.291 8.189,4.742 7.736 C 5.336 7.139,6.189 6.886,7.020 7.060 M16.900 10.045 C 16.211 10.131,15.422 10.450,14.857 10.871 C 13.610 11.799,12.937 13.202,13.012 14.717 C 13.109 16.690,14.456 18.341,16.386 18.854 L 16.734 18.946 16.281 19.138 C 14.488 19.895,12.571 20.161,10.660 19.919 C 8.966 19.704,7.646 19.238,6.423 18.424 C 6.138 18.234,5.832 18.059,5.743 18.035 C 5.287 17.912,4.763 18.181,4.569 18.637 C 4.485 18.835,4.495 19.191,4.589 19.405 C 4.689 19.629,4.902 19.819,5.456 20.178 C 6.484 20.844,7.499 21.282,8.747 21.597 C 11.761 22.357,14.964 22.040,17.610 20.720 C 19.466 19.794,20.938 18.295,21.557 16.700 C 22.070 15.379,22.136 14.195,21.759 13.071 C 21.077 11.034,19.056 9.776,16.900 10.045 M18.020 12.060 C 19.213 12.310,20.067 13.431,19.985 14.640 C 19.957 15.049,19.879 15.331,19.694 15.684 C 19.418 16.213,18.903 16.657,18.320 16.868 C 18.052 16.965,17.965 16.976,17.500 16.976 C 17.035 16.976,16.948 16.965,16.680 16.868 C 16.068 16.646,15.561 16.195,15.277 15.620 C 14.347 13.740,15.972 11.631,18.020 12.060 " stroke="none" fill-rule="evenodd" fill="#000000"></path></svg>