<svg  xmlns="http://www.w3.org/2000/svg" width="24" height="24" viewBox="0 0 24 24" fill="none" stroke="currentColor" stroke-width="2" stroke-linecap="round" stroke-linejoin="round"><path d="M11.604 1.045 C 11.191 1.114,10.816 1.325,10.220 1.823 C 9.149 2.719,7.340 3.615,6.066 3.881 C 5.851 3.926,5.428 3.979,5.127 3.999 C 4.493 4.040,4.264 4.100,3.937 4.312 C 3.486 4.604,3.141 5.091,3.040 5.582 C 3.010 5.725,3.001 7.075,3.011 9.925 C 3.026 14.371,3.020 14.237,3.241 15.257 C 3.875 18.178,5.973 20.521,9.353 22.079 C 10.043 22.397,10.735 22.675,11.320 22.868 C 11.698 22.993,11.774 23.005,12.080 22.990 C 12.308 22.978,12.525 22.937,12.740 22.863 C 14.234 22.353,15.900 21.520,16.980 20.745 C 18.095 19.945,19.034 18.966,19.667 17.946 C 20.148 17.171,20.568 16.135,20.759 15.257 C 20.980 14.237,20.974 14.371,20.989 9.934 C 21.005 5.448,21.008 5.530,20.784 5.088 C 20.572 4.670,20.056 4.230,19.623 4.097 C 19.511 4.063,19.174 4.018,18.873 3.999 C 17.911 3.935,17.061 3.701,16.034 3.217 C 15.145 2.798,14.399 2.331,13.680 1.743 C 13.220 1.367,13.114 1.295,12.853 1.185 C 12.453 1.017,12.048 0.972,11.604 1.045 M12.282 3.186 C 14.106 4.743,16.618 5.858,18.588 5.985 L 19.005 6.012 18.989 9.936 C 18.972 14.198,18.977 14.108,18.739 15.051 C 18.337 16.647,17.319 18.055,15.776 19.149 C 14.898 19.773,13.709 20.374,12.358 20.877 L 12.016 21.005 11.538 20.826 C 9.667 20.129,8.243 19.300,7.212 18.307 C 5.874 17.018,5.191 15.570,5.041 13.704 C 5.017 13.400,5.000 11.716,5.000 9.600 L 5.000 6.012 5.427 5.984 C 7.373 5.858,9.908 4.730,11.718 3.186 C 11.837 3.084,11.964 3.000,12.000 3.000 C 12.036 3.000,12.163 3.084,12.282 3.186 M10.280 7.035 C 9.718 7.219,9.423 7.802,9.616 8.348 L 9.671 8.506 9.466 8.676 C 9.353 8.769,9.179 8.943,9.080 9.062 C 8.944 9.225,8.880 9.273,8.820 9.257 C 8.408 9.152,8.340 9.148,8.100 9.218 C 7.543 9.379,7.238 10.013,7.460 10.546 C 7.541 10.740,7.764 10.972,7.954 11.057 L 8.100 11.123 8.100 11.700 C 8.100 12.243,8.095 12.278,8.020 12.297 C 7.847 12.340,7.603 12.567,7.499 12.779 C 7.117 13.558,7.828 14.424,8.652 14.184 L 8.867 14.121 9.264 14.513 L 9.660 14.905 9.612 15.042 C 9.481 15.421,9.608 15.909,9.903 16.152 C 10.075 16.294,10.350 16.400,10.546 16.400 C 10.893 16.400,11.340 16.101,11.472 15.780 L 11.521 15.660 12.079 15.660 L 12.637 15.660 12.704 15.809 C 12.843 16.117,13.269 16.400,13.592 16.400 C 13.918 16.399,14.298 16.180,14.464 15.897 C 14.594 15.676,14.633 15.296,14.551 15.066 L 14.496 14.912 14.890 14.518 L 15.284 14.123 15.532 14.188 C 15.761 14.247,15.797 14.247,16.003 14.187 C 16.323 14.093,16.531 13.928,16.661 13.662 C 16.757 13.466,16.768 13.403,16.751 13.168 C 16.741 13.020,16.704 12.844,16.669 12.777 C 16.584 12.613,16.375 12.414,16.202 12.331 L 16.060 12.263 16.060 11.692 L 16.060 11.121 16.178 11.073 C 16.369 10.993,16.566 10.795,16.666 10.580 C 16.920 10.034,16.634 9.389,16.063 9.219 C 15.814 9.145,15.688 9.145,15.467 9.220 L 15.291 9.279 14.894 8.883 L 14.498 8.486 14.546 8.353 C 14.572 8.280,14.595 8.121,14.596 8.000 C 14.600 7.586,14.354 7.223,13.971 7.080 C 13.658 6.963,13.454 6.976,13.153 7.131 C 12.941 7.240,12.878 7.299,12.764 7.491 L 12.629 7.720 12.075 7.720 L 11.522 7.720 11.445 7.569 C 11.346 7.376,11.182 7.213,10.983 7.112 C 10.811 7.024,10.438 6.983,10.280 7.035 M12.933 9.894 C 14.147 10.484,14.453 12.079,13.537 13.040 C 13.101 13.496,12.683 13.680,12.080 13.680 C 11.494 13.680,11.060 13.501,10.658 13.093 C 9.625 12.043,10.036 10.318,11.443 9.799 C 11.624 9.732,11.739 9.721,12.140 9.730 C 12.604 9.741,12.631 9.747,12.933 9.894 " stroke="none" fill-rule="evenodd" fill="#000000"></path></svg>