<svg  xmlns="http://www.w3.org/2000/svg" width="24" height="24" viewBox="0 0 24 24" fill="none" stroke="currentColor" stroke-width="2" stroke-linecap="round" stroke-linejoin="round"><path d="M3.499 1.042 C 2.383 1.236,1.463 2.047,1.120 3.140 C 0.874 3.923,1.038 6.309,1.465 8.180 C 1.700 9.212,2.055 10.322,2.468 11.317 C 2.963 12.508,3.807 14.052,4.115 14.331 C 4.522 14.699,5.115 14.659,5.493 14.240 C 5.681 14.030,5.760 13.826,5.759 13.555 C 5.758 13.343,5.688 13.183,5.337 12.593 C 4.023 10.383,3.219 7.757,3.041 5.087 C 2.958 3.848,2.993 3.613,3.306 3.300 C 3.600 3.007,3.648 3.000,5.500 3.000 C 7.356 3.000,7.400 3.006,7.697 3.304 C 8.000 3.607,8.005 3.644,7.992 5.587 L 7.980 7.262 7.878 7.461 C 7.800 7.612,7.686 7.728,7.398 7.949 C 6.918 8.318,6.697 8.557,6.553 8.864 C 6.221 9.569,6.282 10.221,6.754 11.030 C 7.013 11.473,7.272 11.646,7.682 11.647 C 7.969 11.648,8.234 11.525,8.436 11.296 C 8.730 10.961,8.754 10.550,8.506 10.075 C 8.425 9.921,8.360 9.781,8.360 9.763 C 8.360 9.745,8.494 9.629,8.658 9.505 C 9.325 9.003,9.680 8.502,9.908 7.740 C 9.973 7.523,9.980 7.307,9.980 5.480 C 9.980 3.474,9.979 3.458,9.886 3.160 C 9.581 2.181,8.827 1.424,7.861 1.123 L 7.540 1.023 5.620 1.015 C 4.564 1.011,3.609 1.023,3.499 1.042 M21.640 1.068 C 21.482 1.121,20.229 2.359,11.347 11.234 C 5.785 16.793,1.190 21.416,1.135 21.508 C 0.861 21.967,1.032 22.587,1.508 22.867 C 1.673 22.964,1.743 22.980,2.000 22.980 C 2.254 22.980,2.327 22.964,2.480 22.873 C 2.580 22.813,3.692 21.731,4.977 20.445 L 7.294 18.126 7.477 18.287 C 10.834 21.236,15.302 22.962,19.620 22.977 C 20.478 22.980,20.560 22.974,20.840 22.886 C 21.827 22.578,22.578 21.827,22.886 20.840 C 22.979 20.542,22.980 20.527,22.980 18.500 C 22.980 16.473,22.979 16.458,22.886 16.160 C 22.577 15.169,21.792 14.390,20.822 14.112 C 20.505 14.022,20.467 14.020,18.520 14.020 C 16.309 14.020,16.275 14.024,15.700 14.308 C 15.228 14.542,14.942 14.783,14.546 15.277 C 14.396 15.466,14.256 15.626,14.236 15.633 C 14.185 15.652,13.386 15.203,12.860 14.861 C 12.500 14.626,11.747 14.069,11.581 13.914 C 11.557 13.892,13.667 11.752,17.187 8.229 C 20.292 5.122,22.865 2.517,22.905 2.440 C 22.957 2.341,22.979 2.212,22.979 2.000 C 22.980 1.745,22.964 1.672,22.872 1.516 C 22.618 1.083,22.123 0.903,21.640 1.068 M10.411 15.531 C 11.150 16.157,11.953 16.697,12.927 17.222 C 13.564 17.566,13.817 17.650,14.220 17.651 C 14.986 17.653,15.456 17.378,16.081 16.562 C 16.274 16.311,16.391 16.199,16.539 16.122 L 16.738 16.020 18.413 16.008 C 20.356 15.995,20.393 16.000,20.696 16.303 C 20.994 16.600,21.000 16.643,21.000 18.501 C 21.000 20.246,20.990 20.341,20.779 20.618 C 20.718 20.698,20.585 20.813,20.484 20.872 C 20.301 20.980,20.297 20.980,19.540 20.976 C 15.883 20.954,11.900 19.441,9.025 16.979 L 8.711 16.710 9.405 16.015 C 9.787 15.633,10.113 15.320,10.131 15.320 C 10.148 15.320,10.274 15.415,10.411 15.531 " stroke="none" fill-rule="evenodd" fill="#000000"></path></svg>