<svg  xmlns="http://www.w3.org/2000/svg" width="24" height="24" viewBox="0 0 24 24" fill="none" stroke="currentColor" stroke-width="2" stroke-linecap="round" stroke-linejoin="round"><path d="M11.360 2.024 C 11.283 2.033,11.049 2.059,10.840 2.081 C 9.231 2.256,7.506 3.023,6.137 4.173 C 4.437 5.600,3.306 7.759,3.038 10.089 C 2.935 10.982,3.039 12.262,3.296 13.266 C 3.600 14.455,4.202 15.664,4.959 16.600 C 5.132 16.814,5.195 16.923,5.180 16.980 C 5.168 17.024,5.130 17.159,5.096 17.280 C 4.964 17.750,4.984 18.431,5.144 18.909 C 5.179 19.014,5.274 19.234,5.354 19.398 C 5.612 19.924,6.439 20.668,6.892 20.782 C 6.993 20.807,7.000 20.823,7.000 21.036 C 7.000 21.545,7.203 22.011,7.596 22.404 C 7.882 22.690,8.148 22.847,8.508 22.940 C 8.850 23.029,15.150 23.029,15.492 22.940 C 15.852 22.847,16.118 22.690,16.404 22.404 C 16.794 22.014,17.000 21.539,17.000 21.029 C 17.000 20.823,17.007 20.807,17.108 20.782 C 17.561 20.668,18.388 19.924,18.646 19.398 C 18.726 19.234,18.821 19.014,18.856 18.909 C 19.016 18.431,19.036 17.750,18.904 17.280 C 18.870 17.159,18.832 17.024,18.820 16.980 C 18.805 16.923,18.868 16.814,19.041 16.600 C 19.443 16.102,19.752 15.612,20.061 14.980 C 20.666 13.743,20.943 12.621,20.988 11.229 C 21.024 10.136,20.887 9.217,20.532 8.160 C 19.743 5.809,18.139 3.989,15.900 2.901 C 14.997 2.463,14.132 2.200,13.200 2.080 C 12.841 2.034,11.597 1.996,11.360 2.024 M12.752 4.043 C 15.041 4.294,17.115 5.690,18.155 7.680 C 18.962 9.222,19.181 10.759,18.837 12.456 C 18.578 13.732,17.829 15.108,16.920 15.980 C 16.707 16.184,16.599 16.395,16.572 16.659 C 16.546 16.911,16.604 17.107,16.787 17.382 C 17.058 17.791,17.058 18.219,16.786 18.596 C 16.623 18.824,16.370 18.956,16.012 19.001 C 15.861 19.020,15.686 19.055,15.625 19.078 C 15.439 19.149,15.242 19.323,15.128 19.516 C 15.025 19.692,15.019 19.728,15.007 20.350 L 14.993 21.000 12.000 21.000 L 9.007 21.000 8.993 20.347 C 8.980 19.700,8.979 19.691,8.860 19.502 C 8.697 19.241,8.475 19.090,8.180 19.037 C 7.543 18.925,7.359 18.838,7.182 18.570 C 6.943 18.206,6.955 17.772,7.213 17.382 C 7.396 17.107,7.454 16.911,7.428 16.659 C 7.401 16.395,7.293 16.184,7.080 15.980 C 6.587 15.507,6.048 14.750,5.715 14.060 C 4.914 12.400,4.783 10.552,5.346 8.840 C 5.531 8.279,5.980 7.382,6.292 6.949 C 7.791 4.872,10.246 3.767,12.752 4.043 M8.477 10.073 C 7.806 10.249,7.238 10.823,7.060 11.508 C 6.941 11.962,7.003 12.492,7.225 12.930 C 7.361 13.199,7.801 13.639,8.070 13.775 C 8.659 14.073,9.341 14.073,9.930 13.775 C 10.196 13.640,10.638 13.200,10.771 12.937 C 10.994 12.498,11.052 12.007,10.940 11.529 C 10.858 11.182,10.720 10.927,10.465 10.653 C 10.074 10.232,9.560 10.005,9.000 10.005 C 8.857 10.005,8.622 10.036,8.477 10.073 M14.477 10.073 C 13.806 10.249,13.238 10.823,13.060 11.508 C 12.941 11.962,13.003 12.492,13.225 12.930 C 13.361 13.199,13.801 13.639,14.070 13.775 C 14.657 14.073,15.345 14.071,15.937 13.771 C 16.197 13.639,16.639 13.197,16.771 12.937 C 16.994 12.498,17.052 12.007,16.940 11.529 C 16.858 11.182,16.720 10.927,16.465 10.653 C 16.074 10.232,15.560 10.005,15.000 10.005 C 14.857 10.005,14.622 10.036,14.477 10.073 M11.667 15.065 C 11.353 15.161,11.185 15.370,10.823 16.111 C 10.539 16.695,10.507 16.783,10.508 16.990 C 10.509 17.402,10.718 17.723,11.100 17.905 C 11.287 17.993,11.347 17.999,12.000 17.999 C 12.653 17.999,12.713 17.993,12.900 17.905 C 13.282 17.724,13.487 17.407,13.491 16.991 C 13.493 16.781,13.463 16.699,13.176 16.110 C 12.820 15.379,12.655 15.174,12.340 15.066 C 12.106 14.986,11.924 14.986,11.667 15.065 " stroke="none" fill-rule="evenodd" fill="#000000"></path></svg>