<svg  xmlns="http://www.w3.org/2000/svg" width="24" height="24" viewBox="0 0 24 24" fill="none" stroke="currentColor" stroke-width="2" stroke-linecap="round" stroke-linejoin="round"><path d="M6.634 3.061 C 4.797 3.312,3.124 4.358,2.099 5.898 C 0.887 7.718,0.669 9.890,1.496 11.922 C 1.942 13.019,2.732 14.108,4.084 15.487 C 4.539 15.951,9.394 20.666,9.999 21.231 C 10.781 21.961,11.995 22.193,13.040 21.812 C 13.334 21.705,13.750 21.447,13.858 21.306 C 14.164 20.905,14.142 20.357,13.805 20.010 C 13.591 19.789,13.389 19.703,13.080 19.702 C 12.861 19.700,12.776 19.722,12.540 19.840 C 12.300 19.960,12.220 19.980,11.980 19.980 C 11.752 19.980,11.669 19.961,11.534 19.880 C 11.294 19.735,5.376 13.983,4.846 13.380 C 4.293 12.750,3.982 12.340,3.715 11.888 C 3.156 10.943,2.930 10.007,3.030 9.053 C 3.314 6.361,5.832 4.538,8.470 5.116 C 9.351 5.309,10.017 5.680,10.728 6.373 C 11.248 6.880,11.681 7.046,12.250 6.956 C 12.634 6.896,12.879 6.755,13.288 6.357 C 13.720 5.936,14.117 5.652,14.571 5.440 C 15.810 4.859,17.190 4.859,18.429 5.440 C 19.650 6.012,20.570 7.146,20.862 8.440 C 21.035 9.208,21.044 9.234,21.206 9.417 C 21.596 9.860,22.234 9.887,22.646 9.477 C 22.917 9.207,22.991 8.953,22.925 8.511 C 22.716 7.104,22.042 5.824,20.968 4.795 C 20.055 3.920,18.934 3.350,17.620 3.092 C 17.065 2.983,15.840 2.995,15.280 3.114 C 14.097 3.366,13.010 3.900,12.206 4.622 L 11.998 4.809 11.829 4.654 C 10.483 3.419,8.488 2.808,6.634 3.061 M15.044 11.625 C 14.540 11.876,14.346 12.567,14.651 13.020 C 14.695 13.086,15.147 13.558,15.655 14.070 L 16.579 15.000 15.655 15.930 C 15.147 16.442,14.695 16.914,14.651 16.980 C 14.373 17.392,14.510 18.024,14.940 18.320 C 15.238 18.525,15.740 18.540,16.017 18.352 C 16.085 18.306,16.558 17.853,17.070 17.345 L 18.000 16.421 18.930 17.345 C 19.442 17.853,19.915 18.306,19.981 18.351 C 20.384 18.624,21.047 18.475,21.330 18.048 C 21.525 17.753,21.536 17.254,21.352 16.983 C 21.306 16.915,20.853 16.442,20.345 15.930 L 19.421 15.000 20.345 14.070 C 20.853 13.558,21.306 13.085,21.351 13.019 C 21.468 12.846,21.514 12.545,21.462 12.291 C 21.369 11.831,20.980 11.519,20.502 11.521 C 20.089 11.522,19.997 11.588,18.950 12.631 L 18.000 13.578 17.050 12.631 C 16.371 11.954,16.049 11.661,15.920 11.603 C 15.654 11.483,15.313 11.492,15.044 11.625 " stroke="none" fill-rule="evenodd" fill="#000000"></path></svg>