<svg  xmlns="http://www.w3.org/2000/svg" width="24" height="24" viewBox="0 0 24 24" fill="none" stroke="currentColor" stroke-width="2" stroke-linecap="round" stroke-linejoin="round"><path d="M5.499 1.043 C 4.379 1.234,3.461 2.048,3.114 3.160 L 3.020 3.460 3.020 12.000 L 3.020 20.540 3.114 20.840 C 3.422 21.827,4.173 22.578,5.160 22.886 L 5.460 22.980 12.000 22.980 L 18.540 22.980 18.840 22.886 C 19.827 22.578,20.578 21.827,20.886 20.840 L 20.980 20.540 20.980 13.980 L 20.980 7.420 20.868 7.060 C 20.728 6.613,20.498 6.179,20.219 5.840 C 19.855 5.397,16.159 1.747,15.910 1.585 C 15.591 1.378,15.236 1.218,14.860 1.111 L 14.540 1.021 10.120 1.015 C 7.689 1.011,5.609 1.024,5.499 1.043 M13.000 5.132 C 13.000 7.443,13.004 7.494,13.225 7.930 C 13.361 8.199,13.801 8.639,14.070 8.775 C 14.506 8.996,14.557 9.000,16.868 9.000 L 19.000 9.000 19.000 14.554 C 19.000 19.144,18.990 20.139,18.945 20.290 C 18.872 20.533,18.707 20.740,18.484 20.872 L 18.300 20.980 12.000 20.980 L 5.700 20.980 5.516 20.872 C 5.415 20.813,5.284 20.700,5.225 20.623 C 4.985 20.308,5.000 20.888,5.000 12.022 C 5.000 2.888,4.974 3.632,5.304 3.303 C 5.615 2.991,5.409 3.006,9.430 3.003 L 13.000 3.000 13.000 5.132 M16.800 5.220 L 18.580 7.000 16.790 7.000 L 15.000 7.000 15.000 5.220 C 15.000 4.241,15.005 3.440,15.010 3.440 C 15.016 3.440,15.821 4.241,16.800 5.220 M10.873 11.060 C 10.136 11.200,9.468 11.565,8.958 12.105 C 8.559 12.527,8.314 12.957,8.133 13.548 C 8.038 13.863,8.026 13.963,8.026 14.500 C 8.026 15.037,8.038 15.137,8.133 15.452 C 8.501 16.656,9.345 17.501,10.548 17.866 C 10.857 17.960,10.971 17.973,11.480 17.976 C 12.108 17.979,12.431 17.916,12.932 17.691 L 13.164 17.587 13.792 18.209 C 14.137 18.551,14.483 18.864,14.560 18.904 C 14.660 18.957,14.786 18.979,15.000 18.979 C 15.258 18.980,15.327 18.964,15.492 18.867 C 15.714 18.737,15.901 18.498,15.965 18.264 C 16.019 18.061,15.989 17.733,15.898 17.555 C 15.861 17.481,15.551 17.137,15.209 16.792 L 14.587 16.164 14.691 15.932 C 15.354 14.449,14.903 12.699,13.602 11.712 C 13.268 11.459,12.784 11.224,12.378 11.118 C 11.959 11.009,11.280 10.983,10.873 11.060 M12.119 13.143 C 12.417 13.279,12.727 13.592,12.865 13.896 C 12.960 14.105,12.976 14.192,12.976 14.500 C 12.976 14.808,12.960 14.895,12.865 15.104 C 12.725 15.413,12.417 15.720,12.100 15.868 C 11.893 15.965,11.810 15.980,11.500 15.980 C 11.190 15.980,11.107 15.965,10.900 15.868 C 10.583 15.720,10.275 15.413,10.135 15.104 C 10.040 14.896,10.024 14.808,10.024 14.500 C 10.023 14.191,10.039 14.106,10.134 13.900 C 10.327 13.478,10.749 13.129,11.174 13.039 C 11.441 12.982,11.870 13.030,12.119 13.143 " stroke="none" fill-rule="evenodd" fill="#000000"></path></svg>