<svg  xmlns="http://www.w3.org/2000/svg" width="24" height="24" viewBox="0 0 24 24" fill="none" stroke="currentColor" stroke-width="2" stroke-linecap="round" stroke-linejoin="round"><path d="M2.695 4.057 C 2.466 4.129,2.256 4.299,2.128 4.516 C 2.037 4.672,2.020 4.746,2.020 5.000 C 2.020 5.256,2.036 5.328,2.131 5.489 C 2.256 5.702,2.449 5.864,2.670 5.943 C 2.893 6.023,21.107 6.023,21.330 5.943 C 21.551 5.864,21.744 5.702,21.869 5.489 C 21.964 5.328,21.980 5.256,21.980 5.000 C 21.980 4.746,21.963 4.672,21.872 4.516 C 21.740 4.293,21.533 4.128,21.290 4.055 C 21.027 3.976,2.947 3.978,2.695 4.057 M2.695 11.057 C 2.466 11.129,2.256 11.299,2.128 11.516 C 2.037 11.672,2.020 11.746,2.020 12.000 C 2.020 12.256,2.036 12.328,2.131 12.489 C 2.256 12.702,2.449 12.864,2.670 12.943 C 2.793 12.987,3.938 12.996,9.000 12.996 C 14.062 12.996,15.207 12.987,15.330 12.943 C 15.551 12.864,15.744 12.702,15.869 12.489 C 15.964 12.328,15.980 12.256,15.980 12.000 C 15.980 11.746,15.963 11.672,15.872 11.516 C 15.740 11.293,15.533 11.128,15.290 11.055 C 15.028 10.976,2.947 10.978,2.695 11.057 M2.695 18.057 C 2.466 18.129,2.256 18.299,2.128 18.516 C 2.037 18.672,2.020 18.746,2.020 19.000 C 2.020 19.256,2.036 19.328,2.131 19.489 C 2.256 19.702,2.449 19.864,2.670 19.943 C 2.893 20.022,17.107 20.022,17.330 19.943 C 17.551 19.864,17.744 19.702,17.869 19.489 C 17.964 19.328,17.980 19.256,17.980 19.000 C 17.980 18.746,17.963 18.672,17.872 18.516 C 17.740 18.293,17.533 18.128,17.290 18.055 C 17.027 17.976,2.947 17.978,2.695 18.057 " stroke="none" fill-rule="evenodd" fill="#000000"></path></svg>