<svg  xmlns="http://www.w3.org/2000/svg" width="24" height="24" viewBox="0 0 24 24" fill="none" stroke="currentColor" stroke-width="2" stroke-linecap="round" stroke-linejoin="round"><path d="M1.670 1.061 C 1.448 1.142,1.250 1.309,1.128 1.516 C 1.036 1.672,1.020 1.745,1.021 2.000 C 1.022 2.367,1.077 2.481,1.427 2.844 L 1.681 3.108 1.605 3.204 C 1.343 3.538,1.120 4.058,1.041 4.522 C 1.010 4.705,1.000 7.223,1.009 13.240 L 1.020 21.700 1.110 21.920 C 1.221 22.193,1.493 22.543,1.712 22.694 C 2.252 23.068,2.988 23.100,3.557 22.775 C 3.660 22.716,4.289 22.125,5.000 21.419 C 5.693 20.731,6.323 20.135,6.400 20.094 C 6.534 20.023,6.788 20.020,12.559 20.009 L 18.578 19.999 19.999 21.415 C 20.780 22.194,21.483 22.864,21.560 22.905 C 21.659 22.957,21.788 22.979,22.000 22.979 C 22.258 22.980,22.327 22.964,22.492 22.867 C 22.968 22.587,23.139 21.967,22.865 21.508 C 22.810 21.416,18.215 16.793,12.653 11.235 C 3.300 1.889,2.525 1.125,2.343 1.065 C 2.107 0.987,1.874 0.986,1.670 1.061 M8.400 2.037 C 8.094 2.131,7.808 2.395,7.718 2.665 C 7.645 2.881,7.652 3.155,7.735 3.373 C 7.821 3.598,8.126 3.885,8.351 3.952 C 8.470 3.988,9.944 4.000,14.307 4.000 C 20.838 4.000,20.372 3.978,20.697 4.303 C 21.022 4.628,21.000 4.162,21.000 10.693 C 21.000 15.056,21.012 16.530,21.048 16.649 C 21.115 16.874,21.402 17.179,21.627 17.265 C 21.862 17.355,22.138 17.355,22.373 17.265 C 22.607 17.175,22.891 16.867,22.956 16.632 C 22.992 16.502,23.000 14.988,22.992 10.440 L 22.980 4.420 22.886 4.140 C 22.556 3.158,21.821 2.425,20.861 2.121 L 20.540 2.020 14.520 2.013 C 11.209 2.009,8.455 2.020,8.400 2.037 M9.859 11.279 L 16.578 17.998 11.419 18.009 L 6.260 18.020 5.980 18.115 C 5.291 18.347,5.119 18.475,3.970 19.615 L 3.000 20.576 3.000 12.723 C 3.000 5.046,3.007 4.560,3.116 4.560 C 3.129 4.560,6.164 7.584,9.859 11.279 " stroke="none" fill-rule="evenodd" fill="#000000"></path></svg>