<svg  xmlns="http://www.w3.org/2000/svg" width="24" height="24" viewBox="0 0 24 24" fill="none" stroke="currentColor" stroke-width="2" stroke-linecap="round" stroke-linejoin="round"><path d="M8.695 2.055 C 8.164 2.227,7.883 2.788,8.061 3.323 C 8.125 3.515,8.227 3.634,9.018 4.439 C 10.143 5.584,10.459 6.044,10.754 6.966 C 10.889 7.389,10.942 7.675,10.984 8.214 L 11.012 8.567 6.332 13.254 C 3.192 16.399,1.602 18.019,1.499 18.179 C 1.156 18.708,1.020 19.193,1.021 19.880 C 1.022 20.794,1.277 21.400,1.938 22.062 C 2.599 22.722,3.201 22.975,4.120 22.978 C 4.806 22.981,5.291 22.845,5.821 22.501 C 5.981 22.398,7.594 20.815,10.721 17.693 C 13.284 15.134,15.404 13.040,15.433 13.040 C 15.571 13.040,15.796 13.223,16.424 13.848 L 17.108 14.527 17.050 14.694 C 16.968 14.930,17.005 15.274,17.139 15.502 C 17.412 15.968,18.037 16.136,18.492 15.865 C 18.708 15.737,22.808 11.626,22.905 11.440 C 22.957 11.341,22.979 11.212,22.979 11.000 C 22.980 10.745,22.964 10.672,22.872 10.516 C 22.626 10.097,22.126 9.903,21.691 10.056 L 21.532 10.112 20.850 9.426 C 20.475 9.049,20.136 8.677,20.097 8.600 C 20.044 8.495,20.018 8.310,19.996 7.860 C 19.958 7.088,19.840 6.684,19.506 6.180 C 19.336 5.923,18.025 4.573,17.296 3.903 C 16.244 2.937,15.008 2.327,13.620 2.090 C 13.113 2.004,8.945 1.974,8.695 2.055 M13.395 4.078 C 13.755 4.142,14.371 4.345,14.700 4.509 C 15.339 4.828,15.622 5.057,16.734 6.157 C 17.345 6.763,17.843 7.289,17.890 7.380 C 17.959 7.511,17.980 7.650,18.005 8.140 C 18.064 9.300,18.241 9.642,19.366 10.781 L 20.078 11.503 19.289 12.291 L 18.499 13.080 17.860 12.438 C 16.971 11.545,16.665 11.326,16.020 11.120 C 15.793 11.047,15.616 11.027,15.080 11.011 L 14.420 10.992 13.715 10.292 L 13.010 9.591 12.987 8.626 C 12.964 7.680,12.923 7.307,12.781 6.760 C 12.559 5.902,12.116 4.970,11.622 4.320 C 11.529 4.199,11.439 4.075,11.421 4.045 C 11.394 3.998,11.525 3.993,12.264 4.011 C 12.746 4.023,13.255 4.053,13.395 4.078 M8.934 16.646 C 5.986 19.594,4.738 20.817,4.612 20.880 C 4.515 20.928,4.333 20.977,4.208 20.988 C 3.766 21.027,3.297 20.744,3.108 20.326 C 2.991 20.065,2.995 19.646,3.117 19.400 C 3.182 19.270,4.363 18.063,7.353 15.070 L 11.500 10.920 12.290 11.710 L 13.080 12.500 8.934 16.646 " stroke="none" fill-rule="evenodd" fill="#000000"></path></svg>