<svg  xmlns="http://www.w3.org/2000/svg" width="24" height="24" viewBox="0 0 24 24" fill="none" stroke="currentColor" stroke-width="2" stroke-linecap="round" stroke-linejoin="round"><path d="M2.695 4.057 C 2.466 4.129,2.256 4.299,2.128 4.516 C 2.037 4.672,2.020 4.746,2.020 5.000 C 2.020 5.256,2.036 5.328,2.131 5.489 C 2.256 5.702,2.449 5.864,2.670 5.943 C 2.893 6.022,16.107 6.022,16.330 5.943 C 16.551 5.864,16.744 5.702,16.869 5.489 C 16.964 5.328,16.980 5.256,16.980 5.000 C 16.980 4.746,16.963 4.672,16.872 4.516 C 16.740 4.293,16.533 4.128,16.290 4.055 C 16.028 3.976,2.947 3.978,2.695 4.057 M20.695 4.057 C 20.466 4.129,20.256 4.299,20.128 4.516 L 20.020 4.700 20.000 10.980 C 19.984 15.885,19.969 17.285,19.930 17.373 C 19.842 17.572,19.672 17.761,19.484 17.872 L 19.300 17.980 17.360 17.991 L 15.420 18.003 16.125 17.291 C 16.513 16.900,16.864 16.517,16.904 16.440 C 16.957 16.340,16.979 16.213,16.979 16.000 C 16.980 15.745,16.964 15.672,16.872 15.516 C 16.618 15.084,16.137 14.906,15.657 15.066 C 15.481 15.124,15.284 15.307,13.825 16.756 C 12.040 18.530,12.001 18.578,12.001 19.000 C 12.001 19.420,12.043 19.472,13.806 21.226 C 14.694 22.109,15.481 22.862,15.555 22.899 C 16.010 23.128,16.601 22.944,16.867 22.492 C 16.964 22.327,16.980 22.258,16.979 22.000 C 16.979 21.787,16.957 21.660,16.904 21.560 C 16.864 21.483,16.515 21.102,16.129 20.712 L 15.428 20.005 17.504 19.991 C 19.550 19.978,19.584 19.976,19.860 19.885 C 20.846 19.558,21.581 18.816,21.886 17.840 L 21.980 17.540 21.980 11.120 L 21.980 4.700 21.872 4.516 C 21.628 4.101,21.150 3.915,20.695 4.057 M2.695 11.057 C 2.466 11.129,2.256 11.299,2.128 11.516 C 2.037 11.672,2.020 11.746,2.020 12.000 C 2.020 12.256,2.036 12.328,2.131 12.489 C 2.256 12.702,2.449 12.864,2.670 12.943 C 2.793 12.987,4.021 12.996,9.500 12.996 C 14.979 12.996,16.207 12.987,16.330 12.943 C 16.551 12.864,16.744 12.702,16.869 12.489 C 16.964 12.328,16.980 12.256,16.980 12.000 C 16.980 11.746,16.963 11.672,16.872 11.516 C 16.740 11.293,16.533 11.128,16.290 11.055 C 16.028 10.976,2.947 10.978,2.695 11.057 M2.695 18.057 C 2.466 18.129,2.256 18.299,2.128 18.516 C 2.037 18.672,2.020 18.746,2.020 19.000 C 2.020 19.256,2.036 19.328,2.131 19.489 C 2.256 19.702,2.449 19.864,2.670 19.943 C 2.891 20.022,9.109 20.022,9.330 19.943 C 9.551 19.864,9.744 19.702,9.869 19.489 C 9.964 19.328,9.980 19.256,9.980 19.000 C 9.980 18.746,9.963 18.672,9.872 18.516 C 9.740 18.293,9.533 18.128,9.290 18.055 C 9.030 17.977,2.945 17.979,2.695 18.057 " stroke="none" fill-rule="evenodd" fill="#000000"></path></svg>