<svg  xmlns="http://www.w3.org/2000/svg" width="24" height="24" viewBox="0 0 24 24" fill="none" stroke="currentColor" stroke-width="2" stroke-linecap="round" stroke-linejoin="round"><path d="M11.604 1.045 C 11.191 1.114,10.816 1.325,10.220 1.823 C 9.149 2.719,7.340 3.615,6.066 3.881 C 5.851 3.926,5.428 3.979,5.127 3.999 C 4.493 4.040,4.264 4.100,3.937 4.312 C 3.499 4.596,3.186 5.022,3.060 5.508 C 2.973 5.841,2.973 13.297,3.059 14.140 C 3.412 17.570,5.158 20.088,8.460 21.930 C 9.283 22.388,10.610 22.960,10.926 22.991 C 11.475 23.045,12.000 22.562,12.000 22.000 C 12.000 21.759,11.881 21.479,11.704 21.303 C 11.576 21.176,11.420 21.091,11.000 20.921 C 7.197 19.382,5.304 17.101,5.040 13.744 C 5.017 13.449,5.000 11.685,5.000 9.620 L 5.000 6.012 5.427 5.984 C 7.373 5.858,9.908 4.730,11.718 3.186 C 11.837 3.084,11.964 3.000,12.000 3.000 C 12.036 3.000,12.163 3.084,12.282 3.186 C 14.105 4.741,16.618 5.858,18.584 5.985 L 18.997 6.012 19.009 8.159 L 19.020 10.306 19.141 10.503 C 19.543 11.156,20.457 11.156,20.859 10.503 L 20.980 10.306 20.991 8.055 C 21.003 5.615,20.996 5.506,20.784 5.088 C 20.572 4.670,20.056 4.230,19.623 4.097 C 19.511 4.063,19.174 4.018,18.873 3.999 C 17.911 3.935,17.061 3.701,16.034 3.217 C 15.145 2.798,14.399 2.331,13.680 1.743 C 13.220 1.367,13.114 1.295,12.853 1.185 C 12.453 1.017,12.048 0.972,11.604 1.045 M15.858 13.053 C 15.308 13.265,15.036 13.799,15.218 14.313 L 15.275 14.477 14.878 14.875 L 14.480 15.272 14.290 15.213 C 14.041 15.136,13.769 15.168,13.518 15.305 C 12.835 15.677,12.834 16.649,13.517 17.030 L 13.707 17.136 13.707 17.706 L 13.707 18.275 13.586 18.326 C 13.269 18.457,13.045 18.783,13.010 19.162 C 12.975 19.551,13.219 19.963,13.580 20.123 C 13.841 20.239,14.012 20.254,14.256 20.183 L 14.478 20.118 14.878 20.516 L 15.279 20.914 15.219 21.082 C 15.096 21.432,15.199 21.835,15.481 22.110 C 15.670 22.293,16.008 22.414,16.254 22.385 C 16.526 22.354,16.831 22.171,16.985 21.947 C 17.055 21.845,17.119 21.744,17.126 21.723 C 17.134 21.700,17.376 21.681,17.697 21.678 L 18.254 21.671 18.346 21.852 C 18.504 22.163,18.884 22.400,19.226 22.400 C 19.639 22.400,20.062 22.070,20.184 21.653 C 20.248 21.433,20.248 21.405,20.183 21.151 L 20.114 20.883 20.267 20.751 C 20.460 20.585,20.585 20.460,20.751 20.267 L 20.883 20.114 21.151 20.183 C 21.406 20.248,21.432 20.248,21.660 20.182 C 21.984 20.087,22.241 19.834,22.343 19.508 C 22.406 19.308,22.409 19.246,22.368 19.048 C 22.306 18.751,22.148 18.531,21.884 18.372 L 21.672 18.245 21.678 17.692 C 21.681 17.375,21.700 17.134,21.723 17.126 C 21.878 17.072,22.148 16.829,22.247 16.653 C 22.406 16.371,22.430 16.120,22.324 15.838 C 22.131 15.327,21.607 15.059,21.105 15.215 L 20.911 15.275 20.514 14.878 L 20.117 14.481 20.184 14.254 C 20.419 13.444,19.529 12.728,18.769 13.115 C 18.591 13.206,18.397 13.411,18.316 13.595 L 18.260 13.720 17.700 13.719 L 17.140 13.719 17.032 13.523 C 16.803 13.107,16.270 12.894,15.858 13.053 M18.329 15.803 C 19.154 16.081,19.681 16.829,19.679 17.717 C 19.677 18.512,19.213 19.214,18.480 19.530 C 18.195 19.654,18.155 19.660,17.680 19.660 C 17.189 19.660,17.175 19.658,16.880 19.516 C 16.133 19.159,15.716 18.508,15.716 17.700 C 15.716 17.131,15.864 16.748,16.239 16.345 C 16.647 15.906,17.075 15.722,17.691 15.721 C 17.983 15.720,18.145 15.741,18.329 15.803 " stroke="none" fill-rule="evenodd" fill="#000000"></path></svg>