<svg  xmlns="http://www.w3.org/2000/svg" width="24" height="24" viewBox="0 0 24 24" fill="none" stroke="currentColor" stroke-width="2" stroke-linecap="round" stroke-linejoin="round"><path d="M1.670 1.061 C 1.448 1.142,1.250 1.309,1.128 1.516 C 1.036 1.672,1.020 1.745,1.021 2.000 C 1.021 2.214,1.043 2.340,1.096 2.440 C 1.137 2.517,1.419 2.833,1.724 3.141 L 2.279 3.702 2.202 3.905 C 1.989 4.465,1.997 4.137,2.009 12.160 L 2.020 19.580 2.114 19.860 C 2.443 20.840,3.160 21.557,4.140 21.886 L 4.420 21.980 11.840 21.991 C 19.863 22.003,19.535 22.011,20.095 21.798 L 20.298 21.721 20.859 22.276 C 21.167 22.581,21.483 22.863,21.560 22.904 C 21.660 22.957,21.786 22.979,22.000 22.979 C 22.258 22.980,22.327 22.964,22.492 22.867 C 22.968 22.587,23.139 21.967,22.865 21.508 C 22.810 21.416,18.215 16.793,12.653 11.235 C 3.300 1.889,2.525 1.125,2.343 1.065 C 2.107 0.987,1.874 0.986,1.670 1.061 M8.695 2.057 C 8.051 2.258,7.799 3.040,8.198 3.591 C 8.263 3.681,8.403 3.805,8.508 3.867 L 8.700 3.980 12.080 4.000 L 15.460 4.020 15.620 4.107 C 15.819 4.216,19.804 8.207,19.906 8.400 C 19.976 8.532,19.981 8.733,20.000 11.923 L 20.020 15.306 20.141 15.503 C 20.543 16.156,21.457 16.156,21.859 15.503 L 21.980 15.306 21.991 11.923 C 22.004 8.226,22.003 8.215,21.771 7.670 C 21.551 7.152,21.347 6.923,19.132 4.720 C 16.905 2.505,16.823 2.433,16.274 2.211 C 15.770 2.008,15.669 2.003,12.140 2.004 C 9.572 2.005,8.824 2.017,8.695 2.057 M9.070 12.002 C 7.408 12.026,7.371 12.032,6.937 12.312 C 6.656 12.494,6.351 12.822,6.216 13.088 C 5.998 13.518,6.000 13.484,6.000 16.872 L 6.000 20.007 5.350 19.993 C 4.728 19.981,4.692 19.975,4.516 19.872 C 4.415 19.813,4.284 19.700,4.225 19.623 C 3.986 19.310,4.000 19.770,4.000 12.285 L 4.000 5.420 7.280 8.700 L 10.560 11.980 9.070 12.002 M13.695 7.057 C 13.466 7.129,13.256 7.299,13.128 7.516 C 13.037 7.672,13.020 7.746,13.020 8.000 C 13.020 8.256,13.036 8.328,13.131 8.489 C 13.256 8.702,13.449 8.864,13.670 8.943 C 13.878 9.017,15.122 9.017,15.330 8.943 C 15.551 8.864,15.744 8.702,15.869 8.489 C 15.964 8.328,15.980 8.256,15.980 8.000 C 15.980 7.746,15.963 7.672,15.872 7.516 C 15.740 7.293,15.533 7.128,15.290 7.055 C 15.050 6.983,13.928 6.984,13.695 7.057 M14.290 15.710 L 16.000 17.420 16.000 18.710 L 16.000 20.000 12.000 20.000 L 8.000 20.000 8.000 17.000 L 8.000 14.000 10.290 14.000 L 12.580 14.000 14.290 15.710 M18.300 19.720 L 18.578 20.000 18.289 20.000 L 18.000 20.000 18.000 19.720 C 18.000 19.566,18.005 19.440,18.011 19.440 C 18.017 19.440,18.147 19.566,18.300 19.720 " stroke="none" fill-rule="evenodd" fill="#000000"></path></svg>