<svg  xmlns="http://www.w3.org/2000/svg" width="24" height="24" viewBox="0 0 24 24" fill="none" stroke="currentColor" stroke-width="2" stroke-linecap="round" stroke-linejoin="round"><path d="M11.340 1.024 C 10.026 1.160,9.091 1.415,8.060 1.918 C 6.244 2.804,4.840 4.202,3.939 6.020 C 3.326 7.257,2.999 8.633,3.000 9.980 C 3.003 13.237,5.032 16.964,8.917 20.841 C 10.818 22.739,11.271 23.044,12.114 22.991 C 12.455 22.969,12.805 22.859,13.062 22.691 C 13.156 22.630,13.453 22.383,13.722 22.142 C 14.290 21.633,14.400 21.458,14.399 21.060 C 14.398 20.751,14.302 20.542,14.068 20.335 C 13.861 20.153,13.661 20.080,13.375 20.081 C 13.092 20.082,12.909 20.184,12.454 20.594 C 12.231 20.795,12.026 20.960,11.999 20.960 C 11.933 20.960,11.411 20.487,10.585 19.680 C 7.470 16.635,5.558 13.646,5.096 11.098 C 5.009 10.615,4.998 9.512,5.076 9.000 C 5.550 5.901,7.943 3.515,11.020 3.076 C 11.783 2.967,12.907 3.022,13.660 3.205 C 15.916 3.753,17.786 5.433,18.573 7.620 C 18.863 8.425,18.974 9.075,18.976 9.980 C 18.978 10.815,18.882 11.380,18.578 12.329 C 18.418 12.829,18.403 13.083,18.522 13.334 C 18.764 13.849,19.318 14.061,19.838 13.837 C 20.219 13.673,20.349 13.440,20.655 12.376 C 21.538 9.306,20.665 5.963,18.379 3.663 C 17.011 2.285,15.247 1.392,13.320 1.101 C 12.911 1.039,11.662 0.991,11.340 1.024 M11.358 6.061 C 10.230 6.237,9.143 6.974,8.569 7.953 C 7.320 10.083,8.233 12.785,10.512 13.704 C 12.558 14.528,14.877 13.538,15.704 11.488 C 16.090 10.530,16.090 9.469,15.705 8.516 C 15.172 7.197,14.001 6.269,12.605 6.058 C 12.144 5.989,11.816 5.990,11.358 6.061 M12.523 8.073 C 13.262 8.266,13.850 8.924,13.967 9.690 C 14.067 10.343,13.873 10.933,13.403 11.404 C 13.002 11.807,12.547 12.000,12.000 12.000 C 11.485 12.000,11.038 11.822,10.653 11.465 C 9.323 10.229,10.189 8.005,12.000 8.005 C 12.143 8.005,12.378 8.036,12.523 8.073 M21.640 15.068 C 21.488 15.121,21.196 15.394,19.731 16.853 L 18.002 18.575 17.271 17.855 C 16.655 17.247,16.509 17.123,16.343 17.067 C 15.865 16.905,15.383 17.083,15.128 17.516 C 15.036 17.672,15.020 17.745,15.021 18.000 C 15.021 18.213,15.043 18.341,15.095 18.440 C 15.197 18.633,17.297 20.740,17.520 20.873 C 17.673 20.964,17.745 20.980,18.000 20.979 C 18.212 20.979,18.341 20.957,18.440 20.905 C 18.632 20.805,22.739 16.705,22.873 16.480 C 22.964 16.328,22.980 16.254,22.980 16.000 C 22.980 15.746,22.963 15.672,22.872 15.516 C 22.617 15.083,22.121 14.903,21.640 15.068 " stroke="none" fill-rule="evenodd" fill="#000000"></path></svg>