<svg  xmlns="http://www.w3.org/2000/svg" width="24" height="24" viewBox="0 0 24 24" fill="none" stroke="currentColor" stroke-width="2" stroke-linecap="round" stroke-linejoin="round"><path d="M8.382 2.304 C 7.980 2.393,7.859 2.450,5.234 3.764 C 3.000 4.882,2.834 4.973,2.614 5.190 C 2.485 5.317,2.322 5.530,2.251 5.664 C 1.984 6.168,2.000 5.695,2.000 13.000 C 2.000 20.192,1.989 19.824,2.216 20.273 C 2.461 20.755,2.890 21.123,3.394 21.284 C 3.700 21.382,4.245 21.402,4.500 21.325 C 4.588 21.298,5.575 20.823,6.693 20.268 L 8.726 19.260 9.000 19.260 L 9.274 19.260 11.627 20.428 C 12.921 21.071,14.088 21.629,14.220 21.668 C 14.402 21.722,14.595 21.738,15.020 21.736 C 15.520 21.734,15.614 21.723,15.891 21.627 C 16.063 21.568,17.319 20.961,18.682 20.278 C 20.993 19.121,21.177 19.021,21.394 18.808 C 21.653 18.553,21.887 18.131,21.958 17.791 C 21.988 17.642,21.998 15.600,21.991 10.880 L 21.980 4.180 21.886 3.946 C 21.651 3.364,21.157 2.889,20.612 2.720 C 20.258 2.611,19.724 2.611,19.400 2.720 C 19.270 2.764,18.279 3.241,17.199 3.780 C 15.309 4.723,15.225 4.760,15.001 4.760 C 14.777 4.760,14.688 4.720,12.414 3.587 C 10.825 2.796,9.968 2.391,9.780 2.342 C 9.398 2.243,8.736 2.225,8.382 2.304 M8.000 11.012 L 8.000 17.385 6.018 18.372 C 4.928 18.916,4.028 19.360,4.018 19.360 C 4.008 19.360,4.000 16.493,4.000 12.990 L 4.000 6.620 5.970 5.632 C 7.054 5.089,7.954 4.643,7.970 4.642 C 7.987 4.641,8.000 7.508,8.000 11.012 M12.018 5.628 L 14.000 6.617 14.000 12.988 C 14.000 16.493,13.992 19.360,13.982 19.360 C 13.972 19.360,13.072 18.916,11.982 18.372 L 10.000 17.385 10.000 11.012 C 10.000 7.508,10.008 4.640,10.018 4.640 C 10.029 4.640,10.929 5.085,12.018 5.628 M20.000 11.010 L 20.000 17.380 18.020 18.370 C 16.931 18.915,16.031 19.360,16.020 19.360 C 16.009 19.360,16.000 16.493,16.000 12.988 L 16.000 6.617 17.970 5.631 C 19.053 5.089,19.953 4.644,19.970 4.643 C 19.987 4.641,20.000 7.507,20.000 11.010 " stroke="none" fill-rule="evenodd" fill="#000000"></path></svg>