<svg  xmlns="http://www.w3.org/2000/svg" width="24" height="24" viewBox="0 0 24 24" fill="none" stroke="currentColor" stroke-width="2" stroke-linecap="round" stroke-linejoin="round"><path d="M3.499 2.043 C 2.391 2.230,1.488 3.024,1.114 4.140 L 1.020 4.420 1.009 12.958 C 1.000 20.694,1.005 21.516,1.063 21.718 C 1.326 22.631,2.237 23.176,3.110 22.943 C 3.571 22.820,3.647 22.759,4.980 21.438 C 5.684 20.740,6.323 20.136,6.400 20.095 C 6.535 20.023,6.810 20.019,13.560 20.000 L 20.580 19.980 20.860 19.886 C 21.851 19.554,22.582 18.816,22.886 17.840 L 22.980 17.540 22.980 11.000 L 22.980 4.460 22.886 4.160 C 22.581 3.182,21.832 2.428,20.861 2.121 L 20.540 2.020 12.120 2.014 C 7.489 2.011,3.609 2.024,3.499 2.043 M20.310 4.061 C 20.589 4.144,20.856 4.411,20.939 4.690 C 20.992 4.869,21.000 5.651,21.000 11.001 C 21.000 16.059,20.991 17.139,20.945 17.290 C 20.872 17.533,20.707 17.740,20.484 17.872 L 20.300 17.980 13.280 18.000 L 6.260 18.020 5.980 18.115 C 5.291 18.347,5.119 18.475,3.970 19.615 L 3.000 20.576 3.000 12.735 C 3.000 5.832,3.007 4.870,3.061 4.690 C 3.140 4.421,3.412 4.143,3.673 4.063 C 3.833 4.014,5.030 4.005,11.983 4.003 C 19.144 4.000,20.130 4.007,20.310 4.061 M9.640 7.069 C 9.488 7.121,9.208 7.381,7.847 8.735 C 6.960 9.618,6.186 10.421,6.127 10.520 C 6.037 10.672,6.020 10.746,6.020 11.000 C 6.020 11.254,6.036 11.328,6.127 11.480 C 6.261 11.704,9.371 14.807,9.555 14.899 C 10.009 15.128,10.601 14.944,10.867 14.492 C 10.964 14.327,10.980 14.258,10.979 14.000 C 10.979 13.787,10.957 13.659,10.905 13.560 C 10.864 13.483,10.289 12.876,9.626 12.210 L 8.422 11.000 9.626 9.790 C 10.289 9.125,10.864 8.517,10.905 8.440 C 10.957 8.341,10.979 8.213,10.979 8.000 C 10.980 7.745,10.964 7.672,10.872 7.516 C 10.617 7.083,10.121 6.902,9.640 7.069 M13.670 7.061 C 13.448 7.142,13.250 7.309,13.128 7.516 C 13.036 7.672,13.020 7.745,13.021 8.000 C 13.021 8.213,13.043 8.341,13.095 8.440 C 13.136 8.517,13.711 9.125,14.374 9.790 L 15.578 11.000 14.374 12.210 C 13.711 12.876,13.138 13.481,13.101 13.555 C 12.872 14.009,13.056 14.601,13.508 14.867 C 13.673 14.964,13.742 14.980,14.000 14.979 C 14.212 14.979,14.341 14.957,14.440 14.905 C 14.632 14.804,17.739 11.704,17.873 11.480 C 17.964 11.328,17.980 11.254,17.980 11.000 C 17.980 10.746,17.963 10.672,17.873 10.520 C 17.814 10.421,17.040 9.618,16.153 8.736 C 14.714 7.305,14.519 7.124,14.343 7.066 C 14.108 6.987,13.875 6.986,13.670 7.061 " stroke="none" fill-rule="evenodd" fill="#000000"></path></svg>