<svg  xmlns="http://www.w3.org/2000/svg" width="24" height="24" viewBox="0 0 24 24" fill="none" stroke="currentColor" stroke-width="2" stroke-linecap="round" stroke-linejoin="round"><path d="M1.670 1.061 C 1.448 1.142,1.250 1.309,1.128 1.516 C 1.037 1.672,1.020 1.746,1.020 2.000 C 1.020 2.254,1.036 2.328,1.127 2.480 C 1.186 2.579,1.749 3.173,2.377 3.800 C 3.006 4.427,3.520 4.954,3.520 4.972 C 3.520 4.990,3.424 5.125,3.307 5.272 C 1.453 7.604,0.642 10.846,1.164 13.840 C 1.323 14.753,1.565 15.552,1.975 16.520 C 2.072 16.750,2.119 16.922,2.119 17.053 C 2.120 17.193,1.971 17.707,1.575 18.930 C 1.200 20.087,1.023 20.694,1.009 20.866 C 0.964 21.429,1.176 21.984,1.596 22.403 C 1.884 22.690,2.152 22.840,2.560 22.944 C 3.020 23.061,3.235 23.020,5.140 22.456 C 7.135 21.866,7.112 21.870,7.660 22.099 C 9.814 23.002,12.066 23.227,14.260 22.759 C 15.888 22.412,17.527 21.655,18.728 20.694 C 18.875 20.576,19.010 20.480,19.028 20.480 C 19.046 20.480,19.573 20.994,20.200 21.623 C 20.827 22.251,21.421 22.814,21.520 22.873 C 21.672 22.964,21.746 22.980,22.000 22.980 C 22.257 22.980,22.327 22.964,22.492 22.867 C 22.968 22.587,23.139 21.967,22.865 21.508 C 22.810 21.416,18.215 16.793,12.653 11.235 C 3.300 1.889,2.525 1.125,2.343 1.065 C 2.107 0.987,1.874 0.986,1.670 1.061 M11.160 1.025 C 9.927 1.140,8.380 1.526,7.832 1.854 C 7.270 2.192,7.193 2.974,7.679 3.411 C 8.025 3.722,8.344 3.755,8.941 3.539 C 9.430 3.362,10.141 3.180,10.684 3.093 C 11.281 2.998,12.628 2.998,13.234 3.093 C 14.443 3.282,15.643 3.699,16.551 4.246 C 18.845 5.627,20.374 7.829,20.839 10.420 C 21.120 11.990,20.987 13.535,20.436 15.100 C 20.287 15.523,20.274 15.784,20.388 16.042 C 20.542 16.391,20.825 16.595,21.201 16.629 C 21.583 16.664,21.933 16.501,22.134 16.195 C 22.236 16.038,22.508 15.244,22.660 14.658 C 23.440 11.638,22.809 8.248,20.988 5.680 C 20.218 4.595,19.176 3.584,18.042 2.822 C 17.474 2.441,16.299 1.857,15.660 1.639 C 15.028 1.423,14.188 1.218,13.520 1.117 C 12.996 1.038,11.602 0.984,11.160 1.025 M17.550 19.072 C 17.525 19.102,17.350 19.237,17.162 19.371 C 15.972 20.218,14.593 20.739,13.000 20.942 C 12.356 21.024,11.207 21.004,10.601 20.901 C 9.867 20.776,8.990 20.513,8.357 20.228 C 7.824 19.987,7.269 19.894,6.750 19.959 C 6.549 19.984,5.763 20.192,4.740 20.492 C 3.816 20.763,3.054 20.970,3.047 20.953 C 3.040 20.935,3.271 20.188,3.561 19.291 C 4.080 17.687,4.089 17.653,4.109 17.220 C 4.133 16.700,4.092 16.449,3.906 15.973 C 3.470 14.860,3.390 14.636,3.303 14.286 C 2.918 12.749,2.912 11.316,3.283 9.806 C 3.554 8.707,4.096 7.551,4.745 6.688 L 4.970 6.390 11.283 12.703 C 16.389 17.808,17.587 19.027,17.550 19.072 " stroke="none" fill-rule="evenodd" fill="#000000"></path></svg>