<svg  xmlns="http://www.w3.org/2000/svg" width="24" height="24" viewBox="0 0 24 24" fill="none" stroke="currentColor" stroke-width="2" stroke-linecap="round" stroke-linejoin="round"><path d="M11.604 1.045 C 11.191 1.114,10.816 1.325,10.220 1.823 C 9.149 2.719,7.340 3.615,6.066 3.881 C 5.851 3.926,5.428 3.979,5.127 3.999 C 4.493 4.040,4.264 4.100,3.937 4.312 C 3.486 4.604,3.141 5.091,3.040 5.582 C 3.010 5.725,3.001 7.075,3.011 9.925 C 3.026 14.371,3.020 14.237,3.241 15.257 C 3.875 18.178,5.973 20.521,9.353 22.079 C 10.043 22.397,10.735 22.675,11.320 22.868 C 11.698 22.993,11.774 23.005,12.080 22.990 C 12.308 22.978,12.525 22.937,12.740 22.863 C 14.234 22.353,15.900 21.520,16.980 20.745 C 18.095 19.945,19.034 18.966,19.667 17.946 C 20.148 17.171,20.568 16.135,20.759 15.257 C 20.980 14.237,20.974 14.371,20.989 9.934 C 21.005 5.448,21.008 5.530,20.784 5.088 C 20.572 4.670,20.056 4.230,19.623 4.097 C 19.511 4.063,19.174 4.018,18.873 3.999 C 17.911 3.935,17.061 3.701,16.034 3.217 C 15.145 2.798,14.399 2.331,13.680 1.743 C 13.220 1.367,13.114 1.295,12.853 1.185 C 12.453 1.017,12.048 0.972,11.604 1.045 M12.282 3.186 C 14.106 4.743,16.618 5.858,18.588 5.985 L 19.005 6.012 18.989 9.936 C 18.976 13.347,18.965 13.910,18.908 14.243 C 18.775 15.017,18.639 15.497,18.396 16.048 C 18.239 16.406,17.901 17.023,17.842 17.059 C 17.824 17.070,17.714 16.948,17.597 16.789 C 17.146 16.178,16.348 15.464,15.620 15.020 C 15.444 14.913,15.293 14.820,15.284 14.814 C 15.276 14.807,15.420 14.643,15.604 14.449 C 16.273 13.745,16.699 12.931,16.907 11.960 C 17.008 11.489,17.008 10.511,16.907 10.040 C 16.539 8.320,15.370 6.941,13.753 6.320 C 12.699 5.915,11.302 5.915,10.248 6.320 C 9.565 6.582,8.886 7.035,8.384 7.563 C 7.723 8.257,7.301 9.067,7.093 10.040 C 6.992 10.511,6.992 11.489,7.093 11.960 C 7.302 12.937,7.723 13.743,8.391 14.445 C 8.578 14.641,8.724 14.807,8.716 14.814 C 8.707 14.820,8.556 14.913,8.380 15.020 C 7.642 15.470,6.807 16.219,6.386 16.810 C 6.280 16.959,6.178 17.071,6.159 17.059 C 6.103 17.025,5.738 16.360,5.599 16.041 C 5.294 15.338,5.111 14.572,5.041 13.704 C 5.017 13.400,5.000 11.716,5.000 9.600 L 5.000 6.012 5.427 5.984 C 7.373 5.858,9.908 4.730,11.718 3.186 C 11.837 3.084,11.964 3.000,12.000 3.000 C 12.036 3.000,12.163 3.084,12.282 3.186 M12.861 8.129 C 13.804 8.405,14.584 9.183,14.875 10.139 C 14.958 10.412,14.973 10.542,14.973 11.000 C 14.973 11.458,14.958 11.588,14.875 11.861 C 14.582 12.822,13.819 13.581,12.840 13.886 C 12.406 14.021,11.594 14.021,11.160 13.886 C 10.181 13.581,9.418 12.822,9.125 11.861 C 9.042 11.588,9.027 11.458,9.027 11.000 C 9.027 10.542,9.042 10.412,9.125 10.139 C 9.456 9.054,10.371 8.245,11.499 8.040 C 11.832 7.980,12.500 8.023,12.861 8.129 M12.983 16.097 C 14.314 16.363,15.637 17.296,16.282 18.423 L 16.414 18.654 16.277 18.770 C 15.431 19.489,13.959 20.281,12.358 20.877 L 12.016 21.005 11.538 20.826 C 10.583 20.470,9.848 20.130,9.096 19.697 C 8.660 19.446,7.988 18.994,7.743 18.786 L 7.585 18.652 7.698 18.456 C 8.155 17.664,8.929 16.954,9.822 16.507 C 10.326 16.255,10.746 16.134,11.500 16.024 C 11.721 15.991,12.697 16.039,12.983 16.097 " stroke="none" fill-rule="evenodd" fill="#000000"></path></svg>