<svg  xmlns="http://www.w3.org/2000/svg" width="24" height="24" viewBox="0 0 24 24" fill="none" stroke="currentColor" stroke-width="2" stroke-linecap="round" stroke-linejoin="round"><path d="M11.353 1.060 C 10.159 1.287,9.020 2.153,8.121 3.520 C 7.666 4.212,7.159 5.307,6.861 6.243 L 6.713 6.705 6.307 6.838 C 3.440 7.771,1.644 9.245,1.113 11.100 C 0.985 11.550,0.985 12.429,1.113 12.900 C 1.304 13.597,1.677 14.221,2.285 14.858 C 3.227 15.844,4.514 16.586,6.248 17.141 L 6.715 17.290 6.802 17.575 C 7.323 19.294,8.146 20.756,9.127 21.703 C 9.593 22.152,9.927 22.392,10.406 22.618 C 10.911 22.857,11.297 22.959,11.800 22.987 C 12.479 23.024,13.264 22.849,13.615 22.582 C 14.219 22.121,14.057 21.110,13.340 20.866 C 13.078 20.777,12.921 20.784,12.522 20.901 C 12.114 21.020,11.852 21.026,11.514 20.921 C 10.911 20.735,10.251 20.124,9.719 19.260 C 9.521 18.939,8.985 17.842,9.012 17.814 C 9.022 17.804,9.244 17.823,9.505 17.856 C 11.749 18.140,14.585 17.986,16.630 17.469 C 16.834 17.418,17.000 17.378,17.000 17.381 C 17.000 17.384,16.811 17.780,16.580 18.261 C 16.188 19.077,16.160 19.152,16.160 19.380 C 16.160 19.947,16.588 20.371,17.160 20.372 C 17.437 20.372,17.716 20.245,17.891 20.038 C 17.962 19.955,18.461 18.981,18.999 17.874 C 19.929 15.964,19.979 15.848,19.993 15.601 C 20.005 15.376,19.991 15.311,19.893 15.124 C 19.831 15.006,19.717 14.859,19.640 14.799 C 19.563 14.739,18.600 14.252,17.500 13.717 C 15.681 12.833,15.478 12.743,15.257 12.728 C 14.804 12.697,14.357 13.001,14.240 13.421 C 14.129 13.817,14.286 14.298,14.592 14.499 C 14.673 14.552,15.123 14.785,15.590 15.016 C 16.058 15.246,16.427 15.443,16.410 15.453 C 16.254 15.545,14.807 15.809,13.960 15.901 C 13.136 15.990,11.521 16.022,10.720 15.964 C 9.887 15.904,8.445 15.699,8.377 15.630 C 8.367 15.621,8.325 15.417,8.282 15.177 C 7.921 13.153,7.919 10.935,8.277 8.839 C 8.319 8.591,8.373 8.376,8.398 8.361 C 8.466 8.319,9.449 8.165,10.067 8.099 C 11.306 7.968,13.002 7.985,14.296 8.143 C 17.008 8.473,19.373 9.455,20.427 10.687 C 20.540 10.820,20.719 11.090,20.824 11.287 C 21.033 11.681,21.196 11.844,21.475 11.939 C 22.152 12.170,22.858 11.622,22.791 10.919 C 22.751 10.500,22.308 9.760,21.747 9.173 C 20.821 8.205,19.421 7.398,17.693 6.837 L 17.286 6.705 17.159 6.302 C 16.749 5.003,16.079 3.691,15.399 2.859 C 15.082 2.471,14.512 1.937,14.168 1.707 C 13.788 1.454,13.277 1.217,12.891 1.116 C 12.479 1.008,11.763 0.982,11.353 1.060 M12.586 3.126 C 13.173 3.345,13.828 3.981,14.328 4.820 C 14.507 5.121,14.817 5.738,14.923 6.007 L 15.003 6.212 14.792 6.186 C 13.739 6.057,13.216 6.027,11.960 6.026 C 10.680 6.025,10.313 6.046,9.208 6.185 L 8.997 6.212 9.081 5.997 C 9.218 5.651,9.621 4.884,9.840 4.554 C 10.393 3.723,11.104 3.145,11.702 3.041 C 11.963 2.996,12.331 3.031,12.586 3.126 M6.143 9.586 C 5.951 11.284,5.957 13.153,6.158 14.540 C 6.180 14.694,6.199 14.860,6.199 14.909 L 6.200 14.999 5.990 14.917 C 5.619 14.771,4.916 14.405,4.583 14.183 C 3.445 13.425,2.871 12.506,3.038 11.709 C 3.211 10.883,4.035 10.047,5.318 9.399 C 5.752 9.180,6.171 8.998,6.193 9.020 C 6.200 9.026,6.177 9.281,6.143 9.586 " stroke="none" fill-rule="evenodd" fill="#000000"></path></svg>