<svg  xmlns="http://www.w3.org/2000/svg" width="24" height="24" viewBox="0 0 24 24" fill="none" stroke="currentColor" stroke-width="2" stroke-linecap="round" stroke-linejoin="round"><path d="M10.903 4.040 C 7.597 4.299,4.664 5.430,2.100 7.436 C 1.438 7.953,1.105 8.298,1.041 8.531 C 0.867 9.168,1.339 9.810,1.982 9.811 C 2.297 9.812,2.462 9.734,2.858 9.400 C 4.581 7.942,6.489 6.952,8.591 6.425 C 9.769 6.130,10.670 6.024,12.000 6.024 C 13.295 6.024,14.191 6.126,15.323 6.402 C 17.460 6.924,19.382 7.914,21.145 9.403 C 21.538 9.734,21.703 9.812,22.018 9.811 C 22.658 9.810,23.113 9.202,22.959 8.554 C 22.916 8.370,22.868 8.300,22.624 8.059 C 22.246 7.686,21.507 7.113,20.820 6.661 C 18.642 5.228,16.334 4.395,13.720 4.099 C 13.069 4.025,11.507 3.993,10.903 4.040 M11.560 9.203 C 11.338 9.304,11.179 9.451,11.066 9.660 C 10.981 9.819,10.980 9.840,10.980 12.100 C 10.980 14.214,10.985 14.391,11.052 14.524 C 11.146 14.714,11.337 14.906,11.538 15.013 C 11.699 15.099,11.718 15.100,13.940 15.100 C 16.130 15.100,16.184 15.098,16.360 15.016 C 16.558 14.924,16.774 14.724,16.867 14.545 C 16.956 14.376,16.979 14.032,16.918 13.811 C 16.849 13.566,16.524 13.227,16.296 13.164 C 16.205 13.139,15.764 13.120,15.244 13.120 L 14.348 13.120 14.424 13.035 C 14.652 12.781,15.313 12.432,15.900 12.254 C 16.229 12.155,16.318 12.146,16.940 12.144 C 17.645 12.142,17.828 12.170,18.351 12.362 C 19.281 12.704,20.114 13.457,20.560 14.360 C 20.890 15.029,21.645 15.200,22.173 14.724 C 22.380 14.537,22.488 14.292,22.491 13.999 C 22.497 13.318,21.391 11.853,20.340 11.152 C 18.188 9.715,15.444 9.775,13.374 11.303 C 13.217 11.420,13.076 11.534,13.062 11.557 C 12.980 11.689,12.960 11.536,12.960 10.775 C 12.960 9.789,12.940 9.697,12.658 9.414 C 12.356 9.110,11.941 9.031,11.560 9.203 M7.560 9.936 C 6.587 10.343,5.378 11.138,4.564 11.905 C 4.000 12.436,3.876 12.796,4.095 13.260 C 4.276 13.641,4.595 13.848,5.000 13.848 C 5.307 13.848,5.482 13.764,5.830 13.450 C 6.574 12.777,7.179 12.358,8.029 11.927 C 8.659 11.607,8.765 11.523,8.901 11.230 C 9.292 10.392,8.438 9.568,7.560 9.936 M8.100 15.514 C 7.265 15.912,7.340 17.121,8.216 17.381 C 8.467 17.456,8.535 17.455,8.803 17.376 C 9.278 17.235,9.587 16.722,9.486 16.240 C 9.429 15.965,9.266 15.735,9.019 15.580 C 8.770 15.425,8.350 15.394,8.100 15.514 M17.560 17.203 C 17.170 17.380,16.982 17.671,16.982 18.100 C 16.982 18.419,17.064 18.615,17.286 18.828 C 17.545 19.076,17.644 19.097,18.650 19.112 C 19.200 19.121,19.552 19.141,19.538 19.164 C 19.504 19.219,18.969 19.574,18.761 19.679 C 18.198 19.967,17.348 20.145,16.760 20.100 C 15.779 20.026,14.939 19.665,14.254 19.025 C 13.890 18.685,13.666 18.392,13.409 17.920 C 13.132 17.412,12.866 17.227,12.419 17.229 C 11.987 17.231,11.611 17.502,11.478 17.907 C 11.452 17.985,11.439 18.155,11.448 18.286 C 11.494 18.913,12.414 20.177,13.340 20.884 C 14.832 22.023,16.828 22.390,18.656 21.860 C 19.358 21.656,20.011 21.324,20.623 20.857 L 20.955 20.604 20.967 21.492 C 20.981 22.480,20.999 22.552,21.286 22.828 C 21.668 23.193,22.298 23.179,22.673 22.796 C 22.955 22.509,22.939 22.660,22.951 20.160 C 22.964 17.639,22.971 17.713,22.690 17.423 C 22.387 17.110,22.496 17.122,19.980 17.122 C 17.812 17.122,17.734 17.124,17.560 17.203 " stroke="none" fill-rule="evenodd" fill="#000000"></path></svg>