<svg  xmlns="http://www.w3.org/2000/svg" width="24" height="24" viewBox="0 0 24 24" fill="none" stroke="currentColor" stroke-width="2" stroke-linecap="round" stroke-linejoin="round"><path d="M7.670 1.061 C 7.448 1.142,7.250 1.309,7.128 1.516 C 7.037 1.672,7.020 1.746,7.020 2.000 C 7.020 2.411,7.090 2.516,7.896 3.319 C 8.532 3.951,8.556 3.981,8.500 4.066 C 8.370 4.265,8.160 4.849,8.082 5.228 C 8.032 5.475,8.000 5.786,8.000 6.028 L 8.000 6.422 7.710 6.567 C 7.289 6.776,6.776 7.157,6.416 7.526 L 6.102 7.849 5.895 7.784 C 5.405 7.629,4.732 7.046,4.406 6.493 C 4.196 6.135,4.081 5.783,4.033 5.340 C 4.011 5.142,3.985 4.906,3.975 4.815 C 3.951 4.603,3.776 4.329,3.577 4.192 C 3.093 3.859,2.457 3.995,2.143 4.498 C 2.044 4.656,2.023 4.736,2.009 5.012 C 1.989 5.419,2.079 5.990,2.245 6.509 C 2.656 7.795,3.537 8.829,4.750 9.448 L 5.165 9.660 5.141 9.800 C 5.127 9.877,5.090 10.093,5.058 10.280 C 5.023 10.486,5.000 10.891,5.000 11.310 L 5.000 12.000 3.446 12.000 C 1.758 12.000,1.658 12.011,1.382 12.221 C 1.302 12.282,1.187 12.415,1.128 12.516 C 1.037 12.672,1.020 12.746,1.020 13.000 C 1.020 13.256,1.036 13.328,1.131 13.489 C 1.192 13.592,1.304 13.725,1.381 13.783 C 1.654 13.991,1.700 13.996,3.410 13.998 L 5.000 14.000 5.000 14.218 C 5.000 14.682,5.147 15.532,5.341 16.184 C 5.363 16.257,5.335 16.281,5.133 16.363 C 4.028 16.810,3.059 17.703,2.544 18.746 C 2.187 19.470,2.023 20.128,2.021 20.843 C 2.020 21.289,2.024 21.313,2.141 21.503 C 2.539 22.150,3.457 22.156,3.852 21.514 C 3.949 21.356,3.972 21.264,4.004 20.894 C 4.051 20.348,4.123 20.057,4.303 19.690 C 4.656 18.968,5.325 18.384,6.079 18.139 L 6.297 18.068 6.419 18.222 C 6.945 18.891,7.505 19.417,8.126 19.827 C 8.520 20.086,9.266 20.463,9.611 20.577 C 10.276 20.796,10.909 20.419,10.988 19.758 C 11.040 19.320,10.769 18.892,10.331 18.718 C 9.891 18.544,9.379 18.272,9.068 18.049 C 8.263 17.469,7.558 16.496,7.242 15.526 C 7.029 14.871,7.020 14.747,7.020 12.540 C 7.020 10.530,7.021 10.495,7.112 10.178 C 7.391 9.204,8.204 8.391,9.178 8.112 C 9.499 8.020,9.510 8.020,12.000 8.020 C 14.493 8.020,14.501 8.020,14.820 8.112 C 15.389 8.277,15.883 8.602,16.299 9.086 C 16.718 9.575,16.924 10.101,16.995 10.865 C 17.020 11.128,17.061 11.323,17.113 11.425 C 17.478 12.136,18.523 12.134,18.889 11.421 C 19.033 11.141,19.023 10.476,18.865 9.858 L 18.816 9.665 19.138 9.509 C 20.643 8.782,21.671 7.396,21.944 5.729 C 21.981 5.502,22.000 5.204,21.991 5.012 C 21.977 4.736,21.956 4.656,21.857 4.498 C 21.543 3.995,20.907 3.859,20.423 4.192 C 20.224 4.329,20.049 4.603,20.025 4.815 C 20.015 4.906,19.989 5.142,19.967 5.340 C 19.919 5.783,19.804 6.135,19.594 6.493 C 19.268 7.046,18.595 7.629,18.105 7.784 L 17.898 7.849 17.584 7.526 C 17.228 7.161,16.745 6.802,16.302 6.575 L 16.000 6.420 16.000 6.026 C 16.000 5.792,15.968 5.475,15.921 5.243 C 15.844 4.868,15.627 4.260,15.502 4.068 C 15.444 3.980,15.460 3.959,16.104 3.319 C 16.910 2.516,16.980 2.411,16.980 2.000 C 16.980 1.746,16.963 1.672,16.872 1.516 C 16.617 1.083,16.135 0.905,15.657 1.067 C 15.491 1.123,15.345 1.247,14.740 1.843 L 14.020 2.552 13.780 2.430 C 13.270 2.171,12.563 2.000,12.000 2.000 C 11.437 2.000,10.730 2.171,10.220 2.430 L 9.980 2.552 9.260 1.843 C 8.655 1.247,8.509 1.123,8.343 1.067 C 8.108 0.987,7.876 0.985,7.670 1.061 M12.478 4.062 C 12.956 4.171,13.389 4.485,13.686 4.937 C 13.855 5.196,13.938 5.430,13.981 5.776 L 14.009 6.000 12.005 6.000 L 10.000 6.000 10.000 5.898 C 10.000 5.676,10.132 5.235,10.265 5.014 C 10.739 4.222,11.584 3.859,12.478 4.062 M14.536 13.058 C 13.970 13.218,13.446 13.627,13.228 14.080 C 12.996 14.563,13.000 14.492,13.000 18.000 C 13.000 21.508,12.996 21.437,13.228 21.920 C 13.366 22.206,13.794 22.634,14.080 22.772 C 14.593 23.019,15.153 23.060,15.650 22.885 C 15.948 22.781,21.123 19.675,21.353 19.463 C 22.181 18.701,22.213 17.414,21.424 16.618 C 21.215 16.406,20.819 16.155,18.640 14.852 C 15.641 13.059,15.869 13.191,15.620 13.105 C 15.343 13.009,14.793 12.985,14.536 13.058 M19.960 18.004 C 19.960 18.017,18.884 18.673,17.570 19.461 C 16.256 20.249,15.139 20.920,15.090 20.951 L 15.000 21.009 15.000 18.007 L 15.000 15.004 17.480 16.492 C 18.844 17.310,19.960 17.991,19.960 18.004 " stroke="none" fill-rule="evenodd" fill="#000000"></path></svg>