<svg  xmlns="http://www.w3.org/2000/svg" width="24" height="24" viewBox="0 0 24 24" fill="none" stroke="currentColor" stroke-width="2" stroke-linecap="round" stroke-linejoin="round"><path d="M11.423 2.041 C 10.549 2.179,9.775 2.576,9.148 3.207 C 8.770 3.588,8.486 4.020,8.300 4.500 C 8.057 5.125,3.434 19.483,3.390 19.748 C 3.233 20.696,3.914 21.682,4.905 21.940 C 5.253 22.030,18.744 22.031,19.092 21.940 C 19.568 21.816,19.972 21.545,20.242 21.167 C 20.537 20.755,20.682 20.172,20.600 19.721 C 20.541 19.396,19.418 15.906,19.306 15.702 C 19.129 15.377,18.682 15.161,18.304 15.217 C 18.021 15.260,17.727 15.465,17.584 15.720 C 17.368 16.106,17.378 16.163,18.036 18.191 C 18.352 19.166,18.602 19.971,18.592 19.982 C 18.582 19.992,15.604 19.996,11.975 19.990 L 5.377 19.980 7.745 12.660 C 9.047 8.634,10.163 5.232,10.224 5.100 C 10.376 4.774,10.777 4.381,11.130 4.210 C 11.900 3.837,12.785 3.989,13.403 4.600 C 13.701 4.893,13.804 5.086,14.016 5.743 C 14.181 6.251,14.329 6.459,14.628 6.599 C 15.275 6.904,16.040 6.428,16.040 5.720 C 16.040 5.523,15.848 4.849,15.666 4.404 C 15.497 3.993,15.207 3.564,14.861 3.216 C 14.103 2.452,13.199 2.055,12.140 2.020 C 11.876 2.011,11.554 2.021,11.423 2.041 M19.499 6.040 C 18.363 6.246,17.461 7.048,17.114 8.160 C 17.034 8.417,17.020 8.541,17.022 9.020 C 17.024 9.541,17.033 9.605,17.149 9.940 L 17.274 10.300 14.221 13.360 C 12.542 15.043,11.135 16.483,11.095 16.560 C 11.043 16.659,11.021 16.788,11.021 17.000 C 11.020 17.258,11.036 17.327,11.133 17.492 C 11.263 17.714,11.502 17.901,11.736 17.965 C 11.938 18.019,12.266 17.989,12.445 17.899 C 12.519 17.862,13.957 16.458,15.640 14.779 L 18.700 11.726 19.060 11.851 C 19.395 11.967,19.459 11.976,19.980 11.978 C 20.459 11.980,20.583 11.966,20.840 11.886 C 21.827 11.578,22.579 10.826,22.886 9.840 C 23.021 9.406,23.021 8.594,22.886 8.160 C 22.581 7.179,21.810 6.407,20.861 6.129 C 20.500 6.023,19.832 5.980,19.499 6.040 M20.310 8.061 C 20.688 8.173,21.000 8.598,21.000 9.001 C 21.000 9.331,20.784 9.696,20.484 9.872 C 20.328 9.964,20.255 9.980,20.000 9.979 C 19.654 9.978,19.519 9.921,19.281 9.676 C 18.905 9.289,18.915 8.691,19.304 8.303 C 19.583 8.024,19.916 7.944,20.310 8.061 M11.580 8.195 C 11.377 8.287,11.151 8.537,11.064 8.765 C 11.004 8.921,10.997 9.104,11.008 10.324 L 11.020 11.706 11.141 11.903 C 11.543 12.556,12.457 12.556,12.859 11.903 L 12.980 11.706 12.992 10.324 C 13.005 8.774,13.000 8.733,12.724 8.428 C 12.528 8.209,12.320 8.122,12.000 8.122 C 11.834 8.122,11.682 8.148,11.580 8.195 " stroke="none" fill-rule="evenodd" fill="#000000"></path></svg>