<svg  xmlns="http://www.w3.org/2000/svg" width="24" height="24" viewBox="0 0 24 24" fill="none" stroke="currentColor" stroke-width="2" stroke-linecap="round" stroke-linejoin="round"><path d="M11.100 1.042 C 9.066 1.229,7.260 1.891,5.620 3.052 C 4.052 4.162,2.673 5.852,1.939 7.560 C 0.909 9.959,0.729 12.465,1.408 14.938 C 2.305 18.204,4.767 20.960,7.888 22.193 C 9.234 22.725,10.604 22.997,11.948 22.999 C 12.608 23.000,12.833 22.931,13.078 22.653 C 13.259 22.447,13.319 22.277,13.320 21.969 C 13.320 21.582,13.116 21.273,12.740 21.095 C 12.561 21.011,12.484 21.001,12.000 21.000 C 10.591 20.998,9.344 20.708,8.060 20.082 C 6.302 19.225,4.906 17.864,4.024 16.147 C 2.943 14.040,2.718 11.793,3.361 9.505 C 3.802 7.932,4.664 6.536,5.893 5.405 C 7.279 4.127,8.834 3.387,10.740 3.095 C 11.332 3.005,12.677 2.993,13.220 3.074 C 15.835 3.464,18.110 4.905,19.519 7.063 C 20.220 8.137,20.718 9.436,20.907 10.680 C 20.973 11.116,20.996 12.149,20.960 13.020 C 20.942 13.458,20.948 13.514,21.026 13.660 C 21.193 13.967,21.474 14.170,21.803 14.220 C 22.033 14.254,22.252 14.196,22.493 14.036 C 22.898 13.768,22.977 13.432,22.977 11.980 C 22.978 10.937,22.932 10.515,22.717 9.560 C 21.978 6.280,19.740 3.498,16.680 2.053 C 15.686 1.584,14.605 1.266,13.440 1.099 C 12.918 1.024,11.633 0.993,11.100 1.042 M11.695 5.057 C 11.466 5.129,11.256 5.299,11.128 5.516 L 11.020 5.700 11.009 8.917 C 10.997 12.549,10.985 12.389,11.297 12.696 C 11.533 12.929,13.620 13.962,13.910 13.990 C 14.347 14.032,14.795 13.748,14.934 13.340 C 15.017 13.095,15.018 12.906,14.935 12.664 C 14.825 12.341,14.656 12.210,13.791 11.776 L 13.002 11.380 12.991 8.540 L 12.980 5.700 12.872 5.516 C 12.628 5.101,12.150 4.915,11.695 5.057 M17.695 13.057 C 17.466 13.129,17.256 13.299,17.128 13.516 L 17.020 13.700 17.009 16.637 L 16.998 19.574 15.769 18.353 C 14.688 17.279,14.516 17.124,14.343 17.066 C 13.863 16.905,13.382 17.084,13.128 17.516 C 13.036 17.672,13.020 17.745,13.021 18.000 C 13.021 18.212,13.043 18.341,13.095 18.440 C 13.135 18.517,14.116 19.531,15.274 20.694 C 17.567 22.996,17.571 22.999,18.000 22.999 C 18.429 22.999,18.433 22.996,20.726 20.694 C 21.884 19.531,22.865 18.517,22.905 18.440 C 22.957 18.341,22.979 18.212,22.979 18.000 C 22.980 17.745,22.964 17.672,22.872 17.516 C 22.618 17.084,22.137 16.905,21.657 17.066 C 21.484 17.124,21.312 17.279,20.231 18.353 L 19.002 19.574 18.991 16.637 L 18.980 13.700 18.872 13.516 C 18.628 13.101,18.150 12.915,17.695 13.057 " stroke="none" fill-rule="evenodd" fill="#000000"></path></svg>