<svg  xmlns="http://www.w3.org/2000/svg" width="24" height="24" viewBox="0 0 24 24" fill="none" stroke="currentColor" stroke-width="2" stroke-linecap="round" stroke-linejoin="round"><path d="M3.499 2.043 C 2.391 2.230,1.488 3.024,1.114 4.140 L 1.020 4.420 1.009 12.958 C 1.000 20.694,1.005 21.516,1.063 21.718 C 1.326 22.631,2.237 23.176,3.110 22.943 C 3.571 22.820,3.647 22.759,4.980 21.438 C 5.684 20.740,6.323 20.136,6.400 20.095 C 6.535 20.023,6.810 20.019,13.560 20.000 L 20.580 19.980 20.860 19.886 C 21.851 19.554,22.582 18.816,22.886 17.840 L 22.980 17.540 22.980 11.000 L 22.980 4.460 22.886 4.160 C 22.581 3.182,21.832 2.428,20.861 2.121 L 20.540 2.020 12.120 2.014 C 7.489 2.011,3.609 2.024,3.499 2.043 M20.310 4.061 C 20.589 4.144,20.856 4.411,20.939 4.690 C 20.992 4.869,21.000 5.651,21.000 11.001 C 21.000 16.059,20.991 17.139,20.945 17.290 C 20.872 17.533,20.707 17.740,20.484 17.872 L 20.300 17.980 13.280 18.000 L 6.260 18.020 5.980 18.115 C 5.291 18.347,5.119 18.475,3.970 19.615 L 3.000 20.576 3.000 12.735 C 3.000 5.832,3.007 4.870,3.061 4.690 C 3.140 4.421,3.412 4.143,3.673 4.063 C 3.833 4.014,5.030 4.005,11.983 4.003 C 19.144 4.000,20.130 4.007,20.310 4.061 M7.695 7.057 C 7.466 7.129,7.256 7.299,7.128 7.516 C 7.037 7.672,7.020 7.746,7.020 8.000 C 7.020 8.256,7.036 8.328,7.131 8.489 C 7.256 8.702,7.449 8.864,7.670 8.943 C 7.768 8.978,8.023 8.997,8.410 8.998 L 9.000 9.000 9.000 10.554 C 9.000 12.242,8.989 12.342,8.779 12.618 C 8.613 12.835,8.380 12.954,8.034 12.998 C 7.870 13.019,7.686 13.055,7.625 13.078 C 7.439 13.149,7.242 13.323,7.128 13.516 C 7.037 13.672,7.020 13.746,7.020 14.000 C 7.020 14.257,7.036 14.327,7.133 14.492 C 7.263 14.714,7.502 14.901,7.736 14.965 C 7.960 15.026,8.519 14.982,8.863 14.877 C 9.820 14.584,10.581 13.818,10.886 12.840 L 10.980 12.540 10.980 10.120 L 10.980 7.700 10.872 7.516 C 10.740 7.293,10.533 7.128,10.290 7.055 C 10.039 6.979,7.937 6.981,7.695 7.057 M13.695 7.057 C 13.466 7.129,13.256 7.299,13.128 7.516 C 13.037 7.672,13.020 7.746,13.020 8.000 C 13.020 8.256,13.036 8.328,13.131 8.489 C 13.256 8.702,13.449 8.864,13.670 8.943 C 13.768 8.978,14.023 8.997,14.410 8.998 L 15.000 9.000 15.000 10.554 C 15.000 12.242,14.989 12.342,14.779 12.618 C 14.613 12.835,14.380 12.954,14.034 12.998 C 13.870 13.019,13.686 13.055,13.625 13.078 C 13.439 13.149,13.242 13.323,13.128 13.516 C 13.037 13.672,13.020 13.746,13.020 14.000 C 13.020 14.257,13.036 14.327,13.133 14.492 C 13.263 14.714,13.502 14.901,13.736 14.965 C 13.960 15.026,14.519 14.982,14.863 14.877 C 15.820 14.584,16.581 13.818,16.886 12.840 L 16.980 12.540 16.980 10.120 L 16.980 7.700 16.872 7.516 C 16.740 7.293,16.533 7.128,16.290 7.055 C 16.039 6.979,13.937 6.981,13.695 7.057 " stroke="none" fill-rule="evenodd" fill="#000000"></path></svg>