<svg  xmlns="http://www.w3.org/2000/svg" width="24" height="24" viewBox="0 0 24 24" fill="none" stroke="currentColor" stroke-width="2" stroke-linecap="round" stroke-linejoin="round"><path d="M3.499 2.043 C 2.391 2.230,1.488 3.024,1.114 4.140 L 1.020 4.420 1.009 12.958 C 1.000 20.694,1.005 21.516,1.063 21.718 C 1.326 22.631,2.237 23.176,3.110 22.943 C 3.571 22.820,3.647 22.759,4.980 21.438 C 5.684 20.740,6.323 20.136,6.400 20.095 C 6.535 20.023,6.810 20.019,13.560 20.000 L 20.580 19.980 20.860 19.886 C 21.840 19.557,22.560 18.838,22.885 17.860 L 22.979 17.580 22.991 14.861 C 23.005 11.823,23.016 11.951,22.724 11.628 C 22.530 11.412,22.319 11.322,22.009 11.321 C 21.581 11.319,21.280 11.510,21.095 11.900 L 21.001 12.100 21.000 14.604 C 21.000 17.320,20.999 17.329,20.779 17.618 C 20.718 17.698,20.585 17.813,20.484 17.872 L 20.300 17.980 13.280 18.000 L 6.260 18.020 5.980 18.115 C 5.291 18.347,5.119 18.475,3.970 19.615 L 3.000 20.576 3.000 12.735 C 3.000 3.923,2.975 4.632,3.303 4.303 C 3.625 3.981,3.313 4.000,8.397 4.000 L 12.900 3.999 13.100 3.905 C 13.481 3.724,13.688 3.405,13.688 3.000 C 13.688 2.615,13.493 2.297,13.140 2.106 L 12.980 2.020 8.340 2.014 C 5.788 2.011,3.609 2.024,3.499 2.043 M18.358 2.061 C 17.230 2.237,16.143 2.974,15.569 3.953 C 14.320 6.083,15.233 8.785,17.512 9.704 C 19.558 10.528,21.877 9.538,22.704 7.488 C 23.090 6.530,23.090 5.469,22.705 4.516 C 22.172 3.197,21.001 2.269,19.605 2.058 C 19.144 1.989,18.816 1.990,18.358 2.061 M19.523 4.073 C 20.262 4.266,20.850 4.924,20.967 5.690 C 21.029 6.098,20.967 6.522,20.793 6.880 C 20.638 7.198,20.227 7.625,19.930 7.775 C 19.492 7.997,18.962 8.059,18.508 7.940 C 17.823 7.762,17.249 7.194,17.073 6.523 C 16.683 5.028,18.028 3.683,19.523 4.073 " stroke="none" fill-rule="evenodd" fill="#000000"></path></svg>