<svg  xmlns="http://www.w3.org/2000/svg" width="24" height="24" viewBox="0 0 24 24" fill="none" stroke="currentColor" stroke-width="2" stroke-linecap="round" stroke-linejoin="round"><path d="M4.499 2.043 C 3.383 2.230,2.461 3.048,2.114 4.160 L 2.020 4.460 2.020 12.000 L 2.020 19.540 2.114 19.840 C 2.418 20.816,3.149 21.554,4.140 21.886 L 4.420 21.980 8.540 21.991 C 13.139 22.004,12.843 22.021,13.173 21.724 C 13.381 21.536,13.488 21.292,13.488 21.003 C 13.488 20.615,13.294 20.298,12.940 20.106 C 12.782 20.021,12.753 20.020,10.390 20.009 L 8.000 19.998 8.000 16.999 L 8.000 14.000 12.090 13.998 C 15.402 13.997,16.209 13.986,16.330 13.943 C 16.551 13.864,16.744 13.702,16.869 13.489 C 16.964 13.328,16.980 13.256,16.980 13.000 C 16.980 12.746,16.963 12.672,16.872 12.516 C 16.813 12.415,16.698 12.282,16.618 12.221 C 16.319 11.993,16.466 12.000,11.924 12.002 C 7.259 12.005,7.460 11.994,6.983 12.281 C 6.703 12.449,6.354 12.816,6.219 13.083 C 5.998 13.519,6.000 13.479,6.000 16.872 L 6.000 20.007 5.350 19.993 C 4.728 19.981,4.692 19.975,4.516 19.872 C 4.415 19.813,4.284 19.700,4.225 19.623 C 3.986 19.309,4.000 19.795,4.000 12.022 C 4.000 4.006,3.975 4.631,4.303 4.303 C 4.554 4.052,4.751 4.000,5.447 4.000 L 6.000 4.000 6.000 5.632 C 6.000 7.399,6.010 7.507,6.225 7.930 C 6.361 8.199,6.801 8.639,7.070 8.775 C 7.526 9.006,7.410 9.000,11.458 8.998 C 14.463 8.997,15.209 8.986,15.330 8.943 C 15.551 8.864,15.744 8.702,15.869 8.489 C 15.964 8.328,15.980 8.256,15.980 8.000 C 15.980 7.746,15.963 7.672,15.872 7.516 C 15.813 7.415,15.698 7.282,15.618 7.221 C 15.322 6.995,15.410 7.000,11.554 7.000 L 8.000 7.000 8.000 5.499 L 8.000 3.998 11.730 4.009 L 15.460 4.020 15.620 4.107 C 15.819 4.216,19.804 8.207,19.906 8.400 C 19.974 8.529,19.982 8.692,20.000 10.423 L 20.020 12.306 20.141 12.503 C 20.543 13.156,21.457 13.156,21.859 12.503 L 21.980 12.306 21.992 10.423 C 22.004 8.365,21.990 8.184,21.771 7.670 C 21.551 7.152,21.347 6.923,19.132 4.720 C 16.905 2.505,16.823 2.433,16.274 2.211 C 15.750 2.000,15.834 2.003,10.060 2.006 C 7.112 2.008,4.609 2.025,4.499 2.043 M18.695 15.057 C 18.466 15.129,18.256 15.299,18.128 15.516 L 18.020 15.700 18.008 16.850 L 17.995 18.000 16.944 18.000 C 15.797 18.000,15.643 18.022,15.382 18.221 C 15.302 18.282,15.187 18.415,15.128 18.516 C 15.037 18.672,15.020 18.746,15.020 19.000 C 15.020 19.256,15.036 19.328,15.131 19.489 C 15.192 19.592,15.304 19.725,15.381 19.783 C 15.642 19.983,15.738 19.996,16.908 19.998 L 17.995 20.000 18.008 21.153 L 18.020 22.307 18.141 22.503 C 18.543 23.156,19.457 23.156,19.859 22.503 L 19.980 22.307 19.992 21.153 L 20.005 20.000 21.092 19.998 C 22.262 19.996,22.358 19.983,22.619 19.783 C 22.696 19.725,22.808 19.592,22.869 19.489 C 22.964 19.328,22.980 19.256,22.980 19.000 C 22.980 18.746,22.963 18.672,22.872 18.516 C 22.813 18.415,22.698 18.282,22.618 18.221 C 22.357 18.022,22.203 18.000,21.056 18.000 L 20.005 18.000 19.992 16.850 L 19.980 15.700 19.872 15.516 C 19.628 15.101,19.150 14.915,18.695 15.057 " stroke="none" fill-rule="evenodd" fill="#000000"></path></svg>