<svg  xmlns="http://www.w3.org/2000/svg" width="24" height="24" viewBox="0 0 24 24" fill="none" stroke="currentColor" stroke-width="2" stroke-linecap="round" stroke-linejoin="round"><path d="M4.499 1.043 C 3.379 1.234,2.461 2.048,2.114 3.160 L 2.020 3.460 2.020 8.600 L 2.020 13.740 2.113 14.160 C 2.447 15.679,3.236 16.919,4.440 17.817 C 4.649 17.973,4.973 18.180,5.160 18.276 C 5.347 18.373,5.506 18.456,5.513 18.462 C 5.520 18.467,5.206 18.982,4.815 19.606 C 4.424 20.230,4.062 20.846,4.009 20.975 C 3.693 21.749,4.142 22.675,4.953 22.921 C 5.216 23.000,5.300 23.001,10.840 22.991 L 16.460 22.980 16.689 22.873 C 17.008 22.723,17.294 22.442,17.450 22.125 C 17.568 21.887,17.580 21.827,17.580 21.501 C 17.580 21.050,17.554 20.991,16.844 19.860 C 16.344 19.062,16.322 19.019,16.409 18.994 C 16.459 18.980,16.560 18.966,16.634 18.964 C 16.707 18.962,16.950 18.923,17.174 18.877 C 19.875 18.329,21.856 16.026,21.987 13.282 C 22.022 12.539,21.882 12.102,21.465 11.653 C 21.198 11.366,20.870 11.164,20.523 11.073 C 20.291 11.013,20.010 11.004,18.131 11.002 L 16.003 11.000 15.991 7.210 L 15.980 3.420 15.886 3.140 C 15.557 2.158,14.821 1.424,13.861 1.121 L 13.540 1.020 9.120 1.014 C 6.689 1.011,4.609 1.024,4.499 1.043 M13.310 3.061 C 13.589 3.144,13.856 3.411,13.939 3.690 C 13.992 3.866,14.000 4.383,14.000 7.447 L 14.000 11.000 10.446 11.000 C 6.590 11.000,6.678 10.995,6.382 11.221 C 6.302 11.282,6.187 11.415,6.128 11.516 C 6.037 11.672,6.020 11.746,6.020 12.000 C 6.020 12.256,6.036 12.328,6.131 12.489 C 6.256 12.702,6.449 12.864,6.670 12.943 C 6.793 12.987,8.009 12.997,13.410 12.998 L 20.000 13.000 20.000 13.110 C 19.999 13.336,19.880 13.998,19.796 14.245 C 19.485 15.153,18.830 15.972,18.047 16.431 C 17.363 16.833,16.698 17.000,15.788 17.000 C 15.115 17.000,14.825 17.068,14.510 17.301 C 14.010 17.670,13.784 18.371,13.978 18.954 C 14.015 19.067,14.304 19.573,14.620 20.079 L 15.195 21.000 10.756 21.000 L 6.318 21.000 6.377 20.890 C 6.410 20.829,6.686 20.384,6.990 19.900 L 7.543 19.020 7.925 18.997 C 8.246 18.979,8.338 18.957,8.495 18.865 C 9.248 18.424,9.120 17.305,8.290 17.055 C 8.189 17.025,8.000 17.000,7.870 17.000 C 7.540 17.000,6.880 16.859,6.521 16.711 C 5.195 16.167,4.269 14.998,4.058 13.605 C 3.970 13.016,3.972 3.989,4.061 3.690 C 4.140 3.421,4.412 3.143,4.673 3.063 C 4.962 2.974,13.011 2.972,13.310 3.061 " stroke="none" fill-rule="evenodd" fill="#000000"></path></svg>