<svg  xmlns="http://www.w3.org/2000/svg" width="24" height="24" viewBox="0 0 24 24" fill="none" stroke="currentColor" stroke-width="2" stroke-linecap="round" stroke-linejoin="round"><path d="M5.499 1.043 C 4.379 1.234,3.461 2.048,3.114 3.160 L 3.020 3.460 3.020 12.000 L 3.020 20.540 3.114 20.840 C 3.422 21.827,4.173 22.578,5.160 22.886 L 5.460 22.980 12.000 22.980 L 18.540 22.980 18.840 22.886 C 19.827 22.578,20.578 21.827,20.886 20.840 L 20.980 20.540 20.980 13.980 L 20.980 7.420 20.868 7.060 C 20.728 6.613,20.498 6.179,20.219 5.840 C 19.855 5.397,16.159 1.747,15.910 1.585 C 15.591 1.378,15.236 1.218,14.860 1.111 L 14.540 1.021 10.120 1.015 C 7.689 1.011,5.609 1.024,5.499 1.043 M13.000 5.132 C 13.000 7.443,13.004 7.494,13.225 7.930 C 13.361 8.199,13.801 8.639,14.070 8.775 C 14.506 8.996,14.557 9.000,16.868 9.000 L 19.000 9.000 19.000 11.816 L 19.000 14.632 18.690 14.455 C 17.563 13.811,16.212 13.862,15.080 14.592 C 14.946 14.678,13.626 15.964,11.717 17.869 L 8.574 21.004 7.137 20.992 L 5.700 20.980 5.516 20.872 C 5.415 20.813,5.284 20.700,5.225 20.623 C 4.985 20.308,5.000 20.888,5.000 12.022 C 5.000 2.888,4.974 3.632,5.304 3.303 C 5.615 2.991,5.409 3.006,9.430 3.003 L 13.000 3.000 13.000 5.132 M16.800 5.220 L 18.580 7.000 16.790 7.000 L 15.000 7.000 15.000 5.220 C 15.000 4.241,15.005 3.440,15.010 3.440 C 15.016 3.440,15.821 4.241,16.800 5.220 M9.499 9.040 C 8.363 9.246,7.460 10.049,7.114 11.160 C 6.979 11.594,6.979 12.406,7.114 12.840 C 7.421 13.826,8.174 14.579,9.160 14.886 C 9.594 15.021,10.406 15.021,10.840 14.886 C 11.826 14.579,12.579 13.826,12.886 12.840 C 13.021 12.406,13.021 11.594,12.886 11.160 C 12.581 10.179,11.810 9.407,10.861 9.129 C 10.500 9.023,9.832 8.980,9.499 9.040 M10.310 11.061 C 10.688 11.173,11.000 11.598,11.000 12.001 C 11.000 12.331,10.784 12.696,10.484 12.872 C 10.328 12.963,10.254 12.980,10.000 12.980 C 9.746 12.980,9.672 12.963,9.516 12.872 C 8.935 12.530,8.833 11.774,9.304 11.303 C 9.583 11.024,9.916 10.944,10.310 11.061 M17.590 16.140 C 17.766 16.220,17.952 16.377,18.409 16.830 L 19.000 17.417 19.000 18.762 C 19.000 20.225,18.985 20.347,18.779 20.618 C 18.718 20.698,18.585 20.813,18.484 20.872 L 18.300 20.980 14.860 20.991 L 11.420 21.001 13.760 18.658 C 15.047 17.369,16.180 16.267,16.277 16.209 C 16.673 15.974,17.170 15.947,17.590 16.140 " stroke="none" fill-rule="evenodd" fill="#000000"></path></svg>