<svg  xmlns="http://www.w3.org/2000/svg" width="24" height="24" viewBox="0 0 24 24" fill="none" stroke="currentColor" stroke-width="2" stroke-linecap="round" stroke-linejoin="round"><path d="M10.558 3.054 C 10.095 3.155,9.580 3.513,9.328 3.909 C 9.192 4.122,7.150 9.199,7.058 9.552 C 6.947 9.982,7.006 10.457,7.228 10.920 C 7.366 11.206,7.794 11.634,8.080 11.772 C 8.546 11.996,8.596 12.000,10.888 12.000 L 13.000 12.000 13.000 14.054 C 13.000 16.283,12.996 16.334,12.779 16.618 C 12.718 16.698,12.585 16.813,12.484 16.872 L 12.300 16.980 10.656 16.992 L 9.011 17.003 8.984 16.700 C 8.877 15.518,8.017 14.476,6.861 14.125 C 6.577 14.040,6.442 14.026,5.692 14.010 C 5.002 13.995,4.789 14.003,4.549 14.057 C 3.842 14.214,3.245 14.796,3.060 15.508 C 2.971 15.847,2.971 20.153,3.060 20.492 C 3.247 21.213,3.874 21.813,4.594 21.963 C 4.737 21.993,5.121 22.002,5.697 21.990 C 6.472 21.974,6.614 21.961,6.860 21.882 C 8.032 21.505,8.877 20.480,8.983 19.304 L 9.011 19.005 10.795 18.991 C 12.533 18.977,12.587 18.974,12.860 18.884 C 13.834 18.563,14.561 17.837,14.885 16.860 C 14.977 16.582,14.978 16.562,14.991 14.290 L 15.004 12.000 17.114 12.000 C 19.404 12.000,19.454 11.996,19.920 11.772 C 20.206 11.634,20.634 11.206,20.772 10.920 C 20.994 10.457,21.053 9.982,20.942 9.552 C 20.851 9.204,18.808 4.123,18.675 3.913 C 18.458 3.572,18.070 3.269,17.644 3.106 C 17.422 3.021,17.387 3.020,14.100 3.013 C 11.624 3.007,10.724 3.018,10.558 3.054 M18.000 7.500 L 18.992 9.980 16.496 9.990 C 15.123 9.996,12.877 9.996,11.504 9.990 L 9.008 9.980 9.976 7.560 C 10.508 6.229,10.956 5.108,10.971 5.070 C 10.996 5.003,11.168 5.000,14.003 5.010 L 17.008 5.020 18.000 7.500 M6.310 16.061 C 6.589 16.144,6.856 16.411,6.939 16.690 C 7.023 16.972,7.028 19.015,6.945 19.290 C 6.872 19.533,6.707 19.740,6.484 19.872 C 6.308 19.975,6.272 19.981,5.650 19.993 L 5.000 20.007 5.000 18.003 L 5.000 16.000 5.553 16.000 C 5.931 16.000,6.170 16.019,6.310 16.061 " stroke="none" fill-rule="evenodd" fill="#000000"></path></svg>