<svg  xmlns="http://www.w3.org/2000/svg" width="24" height="24" viewBox="0 0 24 24" fill="none" stroke="currentColor" stroke-width="2" stroke-linecap="round" stroke-linejoin="round"><path d="M11.264 2.040 C 9.530 2.259,7.912 3.270,6.969 4.724 L 6.799 4.988 6.409 5.035 C 4.502 5.267,2.896 6.557,2.273 8.358 C 2.022 9.085,1.933 10.085,2.057 10.798 C 2.234 11.814,2.744 12.814,3.442 13.512 C 3.816 13.887,4.116 14.111,4.610 14.386 L 4.980 14.593 5.000 17.526 L 5.020 20.460 5.111 20.684 C 5.365 21.312,5.883 21.778,6.508 21.940 C 6.705 21.992,7.464 22.000,12.000 22.000 C 17.733 22.000,17.466 22.010,17.930 21.775 C 18.196 21.640,18.638 21.200,18.771 20.937 C 19.001 20.484,19.000 20.497,19.000 17.426 L 19.000 14.604 19.270 14.457 C 20.401 13.841,21.161 13.021,21.609 11.933 C 21.870 11.299,21.965 10.866,21.989 10.193 C 22.023 9.279,21.872 8.584,21.458 7.740 C 21.212 7.240,21.004 6.948,20.595 6.527 C 19.781 5.691,18.743 5.175,17.591 5.035 L 17.201 4.988 17.031 4.724 C 16.175 3.404,14.751 2.438,13.188 2.117 C 12.727 2.022,11.722 1.982,11.264 2.040 M12.976 4.118 C 14.119 4.415,15.052 5.171,15.578 6.226 C 15.675 6.420,15.823 6.647,15.907 6.728 C 16.150 6.963,16.294 7.004,16.935 7.017 C 17.577 7.030,17.869 7.091,18.300 7.303 C 18.925 7.610,19.395 8.073,19.680 8.660 C 19.917 9.149,19.977 9.420,19.978 10.000 C 19.978 10.568,19.919 10.848,19.702 11.299 C 19.405 11.916,18.983 12.341,18.313 12.699 C 17.855 12.944,17.396 13.380,17.229 13.727 C 17.033 14.137,17.000 14.348,17.000 15.208 L 17.000 16.000 12.000 16.000 L 7.000 16.000 7.000 15.208 C 7.000 14.348,6.967 14.137,6.771 13.727 C 6.607 13.384,6.144 12.944,5.700 12.706 C 5.025 12.345,4.601 11.919,4.302 11.300 C 3.749 10.159,3.987 8.751,4.880 7.877 C 5.498 7.273,6.265 6.989,7.233 7.006 C 7.858 7.018,8.110 6.852,8.422 6.226 C 9.003 5.060,10.116 4.239,11.380 4.042 C 11.762 3.982,12.611 4.022,12.976 4.118 M17.000 19.000 L 17.000 20.000 12.000 20.000 L 7.000 20.000 7.000 19.000 L 7.000 18.000 12.000 18.000 L 17.000 18.000 17.000 19.000 " stroke="none" fill-rule="evenodd" fill="#000000"></path></svg>