<svg  xmlns="http://www.w3.org/2000/svg" width="24" height="24" viewBox="0 0 24 24" fill="none" stroke="currentColor" stroke-width="2" stroke-linecap="round" stroke-linejoin="round"><path d="M11.499 1.040 C 10.783 1.170,10.173 1.524,9.706 2.079 C 9.556 2.257,9.513 2.283,9.260 2.344 C 9.106 2.381,8.753 2.489,8.476 2.584 C 4.683 3.877,1.899 7.095,1.182 11.017 C 0.972 12.165,0.948 13.305,1.121 13.860 C 1.295 14.421,1.617 14.901,2.086 15.301 C 2.292 15.477,2.296 15.485,2.508 16.129 C 3.364 18.724,5.250 20.860,7.722 22.034 C 8.595 22.449,9.608 22.757,10.600 22.908 C 11.243 23.006,12.757 23.006,13.400 22.908 C 17.203 22.327,20.289 19.746,21.490 16.140 L 21.703 15.500 22.085 15.120 C 22.882 14.328,23.092 13.604,22.962 12.100 C 22.782 10.012,22.033 8.042,20.790 6.392 C 20.391 5.861,19.556 4.977,19.081 4.581 C 17.865 3.569,16.516 2.858,14.960 2.407 C 14.468 2.265,14.446 2.254,14.285 2.066 C 13.708 1.396,12.995 1.052,12.120 1.019 C 11.889 1.011,11.609 1.020,11.499 1.040 M12.310 3.061 C 12.688 3.173,13.000 3.598,13.000 4.001 C 13.000 4.331,12.784 4.696,12.484 4.872 C 12.328 4.963,12.254 4.980,12.000 4.980 C 11.746 4.980,11.672 4.963,11.516 4.872 C 10.935 4.530,10.833 3.774,11.304 3.303 C 11.583 3.024,11.916 2.944,12.310 3.061 M9.101 4.789 C 9.365 5.765,10.161 6.575,11.160 6.886 C 11.594 7.021,12.406 7.021,12.840 6.886 C 13.839 6.575,14.635 5.765,14.899 4.789 C 14.939 4.641,14.988 4.520,15.008 4.520 C 15.081 4.520,15.831 4.853,16.200 5.049 C 19.079 6.579,20.923 9.546,20.972 12.730 C 20.979 13.187,20.969 13.282,20.902 13.418 C 20.594 14.039,19.805 14.186,19.318 13.713 C 19.045 13.448,19.028 13.375,18.997 12.340 C 18.974 11.548,18.958 11.381,18.881 11.140 C 18.574 10.174,17.813 9.415,16.861 9.125 C 16.588 9.042,16.458 9.027,16.000 9.027 C 15.542 9.027,15.412 9.042,15.139 9.125 C 14.189 9.415,13.439 10.161,13.115 11.140 C 13.024 11.417,13.023 11.448,13.001 13.840 C 12.985 15.641,12.967 16.289,12.930 16.373 C 12.842 16.571,12.673 16.761,12.484 16.872 C 12.328 16.963,12.254 16.980,12.000 16.980 C 11.746 16.980,11.672 16.963,11.516 16.872 C 11.328 16.761,11.158 16.572,11.070 16.373 C 11.033 16.288,11.015 15.651,10.999 13.840 C 10.978 11.446,10.976 11.417,10.885 11.140 C 10.561 10.161,9.811 9.415,8.861 9.125 C 8.588 9.042,8.458 9.027,8.000 9.027 C 7.542 9.027,7.412 9.042,7.139 9.125 C 6.187 9.415,5.426 10.174,5.119 11.140 C 5.042 11.381,5.026 11.550,5.002 12.340 C 4.985 12.888,4.955 13.306,4.927 13.373 C 4.846 13.567,4.675 13.760,4.484 13.872 C 4.328 13.963,4.254 13.980,4.000 13.980 C 3.746 13.980,3.672 13.963,3.516 13.872 C 3.293 13.740,3.129 13.534,3.052 13.286 C 2.961 12.990,3.038 11.902,3.206 11.120 C 3.750 8.589,5.340 6.431,7.600 5.157 C 7.972 4.948,8.897 4.522,8.984 4.521 C 9.008 4.520,9.061 4.641,9.101 4.789 M8.308 11.060 C 8.438 11.099,8.571 11.179,8.679 11.283 C 8.993 11.589,8.977 11.448,9.001 14.160 C 9.023 16.553,9.024 16.583,9.115 16.860 C 9.441 17.846,10.184 18.582,11.160 18.886 C 11.594 19.021,12.406 19.021,12.840 18.886 C 13.816 18.582,14.559 17.846,14.885 16.860 C 14.976 16.583,14.977 16.553,14.999 14.160 C 15.023 11.448,15.007 11.589,15.321 11.283 C 15.490 11.120,15.777 11.000,16.000 11.000 C 16.223 11.000,16.510 11.120,16.679 11.283 C 16.956 11.552,16.972 11.623,17.002 12.660 C 17.026 13.491,17.039 13.610,17.129 13.887 C 17.290 14.378,17.493 14.700,17.896 15.104 C 18.307 15.515,18.650 15.728,19.120 15.866 C 19.318 15.924,19.416 15.972,19.408 16.007 C 19.401 16.036,19.289 16.277,19.159 16.543 C 17.831 19.253,15.024 21.000,12.000 21.000 C 8.892 21.000,6.057 19.181,4.738 16.338 L 4.565 15.966 4.853 15.879 C 5.807 15.591,6.573 14.828,6.881 13.860 C 6.958 13.619,6.974 13.452,6.997 12.660 C 7.028 11.622,7.044 11.552,7.322 11.283 C 7.588 11.024,7.928 10.947,8.308 11.060 " stroke="none" fill-rule="evenodd" fill="#000000"></path></svg>