<svg  xmlns="http://www.w3.org/2000/svg" width="24" height="24" viewBox="0 0 24 24" fill="none" stroke="currentColor" stroke-width="2" stroke-linecap="round" stroke-linejoin="round"><path d="M11.280 1.026 C 9.617 1.179,8.507 1.476,7.180 2.120 C 6.045 2.671,5.193 3.285,4.238 4.239 C 3.277 5.198,2.643 6.080,2.097 7.220 C 0.301 10.968,0.728 15.286,3.226 18.633 C 3.686 19.248,4.752 20.314,5.367 20.774 C 8.697 23.259,13.015 23.696,16.740 21.923 C 17.881 21.380,18.805 20.719,19.762 19.762 C 21.156 18.368,22.042 16.871,22.583 14.990 C 22.850 14.062,23.034 12.723,22.992 12.006 C 22.971 11.640,22.859 11.405,22.618 11.221 C 22.313 10.989,22.670 11.000,15.574 11.000 C 10.292 11.000,9.040 10.990,9.040 10.949 C 9.040 10.842,9.162 9.921,9.221 9.578 C 9.382 8.648,9.743 7.478,10.163 6.529 C 10.736 5.233,11.452 4.132,12.495 2.940 C 12.935 2.438,13.024 2.248,12.988 1.893 C 12.947 1.498,12.674 1.171,12.290 1.055 C 12.124 1.005,11.652 0.991,11.280 1.026 M20.640 3.068 C 20.488 3.121,20.196 3.394,18.731 4.853 L 17.002 6.575 16.271 5.855 C 15.655 5.247,15.509 5.123,15.343 5.067 C 14.865 4.905,14.383 5.083,14.128 5.516 C 14.036 5.672,14.020 5.745,14.021 6.000 C 14.021 6.213,14.043 6.341,14.095 6.440 C 14.197 6.633,16.297 8.740,16.520 8.873 C 16.673 8.964,16.745 8.980,17.000 8.979 C 17.212 8.979,17.341 8.957,17.440 8.905 C 17.632 8.805,21.739 4.705,21.873 4.480 C 21.964 4.328,21.980 4.254,21.980 4.000 C 21.980 3.746,21.963 3.672,21.872 3.516 C 21.617 3.083,21.121 2.903,20.640 3.068 M9.576 3.430 C 8.205 5.501,7.315 8.008,7.076 10.470 L 7.025 11.000 5.047 11.000 L 3.069 11.000 3.094 10.761 C 3.208 9.665,3.773 8.137,4.440 7.120 C 5.357 5.723,6.585 4.637,8.060 3.918 C 8.526 3.691,9.488 3.321,9.615 3.320 C 9.634 3.320,9.616 3.369,9.576 3.430 M7.076 13.530 C 7.303 15.873,8.118 18.252,9.380 20.259 C 9.519 20.479,9.627 20.666,9.620 20.673 C 9.577 20.717,8.482 20.296,7.980 20.042 C 6.775 19.433,5.805 18.652,4.990 17.635 C 3.980 16.374,3.243 14.665,3.094 13.239 L 3.069 13.000 5.047 13.000 L 7.025 13.000 7.076 13.530 M14.941 13.250 C 14.689 15.599,13.961 17.641,12.706 19.520 C 12.421 19.947,12.043 20.440,12.000 20.440 C 11.949 20.440,11.544 19.900,11.189 19.359 C 10.053 17.624,9.364 15.720,9.100 13.583 C 9.067 13.319,9.040 13.079,9.040 13.051 C 9.040 13.010,9.623 13.000,12.004 13.000 L 14.968 13.000 14.941 13.250 M20.906 13.239 C 20.792 14.335,20.227 15.863,19.560 16.880 C 18.869 17.932,17.981 18.827,16.927 19.532 C 16.311 19.944,15.075 20.508,14.464 20.656 L 14.348 20.685 14.417 20.579 C 15.800 18.469,16.681 15.985,16.925 13.510 L 16.976 13.000 18.954 13.000 L 20.931 13.000 20.906 13.239 " stroke="none" fill-rule="evenodd" fill="#000000"></path></svg>