<svg  xmlns="http://www.w3.org/2000/svg" width="24" height="24" viewBox="0 0 24 24" fill="none" stroke="currentColor" stroke-width="2" stroke-linecap="round" stroke-linejoin="round"><path d="M1.670 1.061 C 1.448 1.142,1.250 1.309,1.128 1.516 C 1.037 1.672,1.020 1.746,1.020 2.000 C 1.020 2.254,1.036 2.327,1.127 2.480 C 1.187 2.579,1.891 3.315,2.693 4.115 L 4.151 5.570 3.897 6.095 C 2.418 9.163,2.787 12.740,4.867 15.489 C 5.243 15.986,5.990 16.733,6.502 17.124 C 7.719 18.054,9.197 18.687,10.635 18.895 L 10.980 18.944 10.991 19.972 L 11.001 21.000 8.947 21.000 C 6.717 21.000,6.666 21.004,6.382 21.221 C 6.302 21.282,6.187 21.415,6.128 21.516 C 6.037 21.672,6.020 21.746,6.020 22.000 C 6.020 22.256,6.036 22.328,6.131 22.489 C 6.256 22.702,6.449 22.864,6.670 22.943 C 6.892 23.022,17.108 23.022,17.330 22.943 C 17.551 22.864,17.744 22.702,17.869 22.489 C 17.964 22.328,17.980 22.256,17.980 22.000 C 17.980 21.746,17.963 21.672,17.872 21.516 C 17.813 21.415,17.698 21.282,17.618 21.221 C 17.334 21.004,17.283 21.000,15.054 21.000 L 13.000 21.000 13.000 19.981 L 13.000 18.962 13.090 18.945 C 13.139 18.935,13.425 18.882,13.724 18.826 C 14.431 18.693,15.258 18.419,15.908 18.103 L 16.429 17.849 18.885 20.307 C 20.252 21.676,21.420 22.813,21.520 22.873 C 21.673 22.964,21.746 22.980,22.000 22.980 C 22.257 22.980,22.327 22.964,22.492 22.867 C 22.968 22.587,23.139 21.967,22.865 21.508 C 22.810 21.416,18.215 16.793,12.653 11.235 C 3.300 1.889,2.525 1.125,2.343 1.065 C 2.107 0.987,1.874 0.986,1.670 1.061 M11.180 1.041 C 9.836 1.177,8.162 1.718,7.756 2.147 C 7.378 2.548,7.399 3.163,7.805 3.548 C 8.132 3.858,8.515 3.889,9.060 3.649 C 10.356 3.078,11.475 2.902,12.800 3.059 C 14.883 3.306,16.660 4.390,17.821 6.122 C 18.436 7.038,18.808 8.061,18.941 9.197 C 19.098 10.538,18.927 11.606,18.339 12.960 C 18.112 13.483,18.148 13.874,18.452 14.195 C 18.750 14.509,19.205 14.602,19.580 14.425 C 19.853 14.295,20.010 14.117,20.182 13.740 C 21.591 10.650,21.144 7.039,19.021 4.380 C 17.613 2.616,15.506 1.412,13.285 1.102 C 12.721 1.024,11.658 0.993,11.180 1.041 M12.580 6.120 C 11.950 6.219,11.582 6.922,11.855 7.500 C 11.997 7.800,12.175 7.944,12.593 8.100 C 13.304 8.364,13.638 8.699,13.900 9.408 C 14.015 9.720,14.068 9.809,14.232 9.962 C 14.522 10.231,14.875 10.309,15.235 10.182 C 15.568 10.064,15.834 9.747,15.897 9.392 C 15.952 9.081,15.685 8.321,15.336 7.793 C 15.105 7.443,14.588 6.916,14.273 6.709 C 13.818 6.410,13.227 6.156,12.880 6.112 C 12.803 6.102,12.668 6.106,12.580 6.120 M8.010 9.875 C 7.985 10.406,8.096 11.010,8.315 11.543 C 8.699 12.475,9.494 13.280,10.413 13.668 C 10.960 13.899,11.305 13.968,11.977 13.982 L 12.574 13.994 13.755 15.175 L 14.936 16.356 14.738 16.442 C 13.450 17.000,11.861 17.147,10.480 16.835 C 9.100 16.523,7.851 15.809,6.898 14.786 C 6.422 14.276,6.085 13.791,5.764 13.153 C 5.251 12.134,5.005 11.117,5.001 10.000 C 4.999 9.124,5.217 8.051,5.558 7.262 L 5.644 7.064 6.837 8.257 L 8.030 9.449 8.010 9.875 " stroke="none" fill-rule="evenodd" fill="#000000"></path></svg>