<svg  xmlns="http://www.w3.org/2000/svg" width="24" height="24" viewBox="0 0 24 24" fill="none" stroke="currentColor" stroke-width="2" stroke-linecap="round" stroke-linejoin="round"><path d="M2.643 1.066 C 2.282 1.199,2.000 1.615,2.000 2.016 C 2.000 2.221,5.217 11.895,5.436 12.347 C 5.773 13.044,6.433 13.613,7.190 13.858 C 7.305 13.896,7.399 13.938,7.398 13.953 C 7.397 13.968,6.825 15.119,6.127 16.512 L 4.858 19.044 4.517 18.830 C 4.330 18.712,4.008 18.495,3.802 18.348 C 3.379 18.045,3.197 17.980,2.881 18.017 C 2.337 18.081,1.956 18.559,2.012 19.106 C 2.057 19.541,2.237 19.727,3.282 20.411 C 5.328 21.753,7.658 22.589,10.240 22.906 C 11.056 23.007,12.944 23.007,13.760 22.906 C 16.342 22.589,18.672 21.753,20.718 20.411 C 21.763 19.727,21.943 19.541,21.988 19.106 C 22.044 18.559,21.663 18.081,21.119 18.017 C 20.803 17.980,20.621 18.045,20.198 18.348 C 19.992 18.495,19.670 18.712,19.483 18.830 L 19.142 19.044 17.893 16.552 C 17.206 15.181,16.643 14.047,16.642 14.030 C 16.641 14.013,16.986 13.999,17.410 13.998 C 18.239 13.996,18.371 13.973,18.619 13.783 C 18.696 13.725,18.808 13.592,18.869 13.489 C 18.964 13.328,18.980 13.256,18.980 13.000 C 18.980 12.746,18.963 12.672,18.872 12.516 C 18.761 12.328,18.572 12.158,18.373 12.070 C 18.285 12.031,17.096 12.016,13.040 12.000 L 7.820 11.980 7.660 11.894 C 7.463 11.788,7.314 11.630,7.209 11.420 C 7.166 11.332,6.407 9.078,5.524 6.412 C 3.772 1.124,3.852 1.328,3.471 1.131 C 3.229 1.005,2.884 0.978,2.643 1.066 M15.850 16.940 C 16.659 18.557,17.320 19.897,17.320 19.917 C 17.320 19.989,16.185 20.381,15.420 20.575 C 14.249 20.871,13.333 20.979,12.000 20.979 C 10.667 20.979,9.751 20.871,8.580 20.575 C 7.815 20.381,6.680 19.989,6.680 19.917 C 6.680 19.897,7.341 18.557,8.150 16.940 L 9.620 14.000 12.000 14.000 L 14.380 14.000 15.850 16.940 " stroke="none" fill-rule="evenodd" fill="#000000"></path></svg>