<svg  xmlns="http://www.w3.org/2000/svg" width="24" height="24" viewBox="0 0 24 24" fill="none" stroke="currentColor" stroke-width="2" stroke-linecap="round" stroke-linejoin="round"><path d="M5.499 1.043 C 4.380 1.233,3.461 2.048,3.114 3.160 L 3.020 3.460 3.020 12.000 L 3.020 20.540 3.114 20.840 C 3.422 21.827,4.173 22.578,5.160 22.886 L 5.460 22.980 12.000 22.980 L 18.540 22.980 18.840 22.886 C 19.827 22.578,20.578 21.827,20.886 20.840 L 20.980 20.540 20.980 12.000 L 20.980 3.460 20.886 3.160 C 20.581 2.182,19.832 1.428,18.861 1.121 L 18.540 1.020 12.120 1.014 C 8.589 1.011,5.609 1.024,5.499 1.043 M18.310 3.061 C 18.589 3.144,18.856 3.411,18.939 3.690 C 18.993 3.870,19.000 4.860,19.000 12.001 C 19.000 18.754,18.991 20.138,18.945 20.290 C 18.872 20.533,18.707 20.740,18.484 20.872 L 18.300 20.980 16.650 20.992 L 15.000 21.003 15.000 19.006 L 15.000 17.009 15.175 16.983 C 15.841 16.883,16.210 16.066,15.852 15.486 C 15.541 14.984,14.153 14.293,13.060 14.097 C 12.513 13.999,11.487 13.999,10.940 14.097 C 9.847 14.293,8.459 14.984,8.148 15.486 C 7.790 16.066,8.159 16.883,8.825 16.983 L 9.000 17.009 9.000 19.006 L 9.000 21.003 7.350 20.992 L 5.700 20.980 5.516 20.872 C 5.415 20.813,5.284 20.700,5.225 20.623 C 4.985 20.308,5.000 20.888,5.000 12.022 C 5.000 2.888,4.974 3.632,5.304 3.303 C 5.623 2.983,5.120 3.006,11.983 3.003 C 17.353 3.000,18.131 3.007,18.310 3.061 M7.695 6.055 C 7.464 6.130,7.255 6.300,7.128 6.516 C 7.037 6.672,7.020 6.746,7.020 7.000 C 7.020 7.257,7.036 7.327,7.133 7.492 C 7.651 8.374,8.998 8.018,8.998 7.000 C 8.998 6.623,8.792 6.281,8.463 6.112 C 8.265 6.010,7.911 5.984,7.695 6.055 M11.695 6.055 C 11.464 6.130,11.255 6.300,11.128 6.516 C 11.037 6.672,11.020 6.746,11.020 7.000 C 11.020 7.257,11.036 7.327,11.133 7.492 C 11.651 8.374,12.998 8.018,12.998 7.000 C 12.998 6.623,12.792 6.281,12.463 6.112 C 12.265 6.010,11.911 5.984,11.695 6.055 M15.695 6.055 C 15.464 6.130,15.255 6.300,15.128 6.516 C 15.037 6.672,15.020 6.746,15.020 7.000 C 15.020 7.257,15.036 7.327,15.133 7.492 C 15.651 8.374,16.998 8.018,16.998 7.000 C 16.998 6.623,16.792 6.281,16.463 6.112 C 16.265 6.010,15.911 5.984,15.695 6.055 M7.695 10.055 C 7.464 10.130,7.255 10.300,7.128 10.516 C 7.037 10.672,7.020 10.746,7.020 11.000 C 7.020 11.257,7.036 11.327,7.133 11.492 C 7.651 12.374,8.998 12.018,8.998 11.000 C 8.998 10.623,8.792 10.281,8.463 10.112 C 8.265 10.010,7.911 9.984,7.695 10.055 M11.695 10.055 C 11.464 10.130,11.255 10.300,11.128 10.516 C 11.037 10.672,11.020 10.746,11.020 11.000 C 11.020 11.257,11.036 11.327,11.133 11.492 C 11.651 12.374,12.998 12.018,12.998 11.000 C 12.998 10.623,12.792 10.281,12.463 10.112 C 12.265 10.010,11.911 9.984,11.695 10.055 M15.695 10.055 C 15.464 10.130,15.255 10.300,15.128 10.516 C 15.037 10.672,15.020 10.746,15.020 11.000 C 15.020 11.257,15.036 11.327,15.133 11.492 C 15.651 12.374,16.998 12.018,16.998 11.000 C 16.998 10.623,16.792 10.281,16.463 10.112 C 16.265 10.010,15.911 9.984,15.695 10.055 M12.790 16.080 L 13.000 16.127 13.000 18.563 L 13.000 21.000 12.000 21.000 L 11.000 21.000 11.000 18.563 L 11.000 16.126 11.210 16.084 C 11.325 16.062,11.474 16.035,11.540 16.025 C 11.741 15.994,12.567 16.031,12.790 16.080 " stroke="none" fill-rule="evenodd" fill="#000000"></path></svg>