<svg  xmlns="http://www.w3.org/2000/svg" width="24" height="24" viewBox="0 0 24 24" fill="none" stroke="currentColor" stroke-width="2" stroke-linecap="round" stroke-linejoin="round"><path d="M11.670 2.055 C 11.497 2.119,11.498 2.118,11.020 2.524 C 8.932 4.297,8.140 6.216,8.665 8.234 C 8.793 8.729,8.891 8.972,9.350 9.936 C 9.794 10.870,9.905 11.174,9.966 11.638 C 10.054 12.303,9.863 12.836,9.412 13.180 C 8.516 13.864,7.198 13.342,7.039 12.240 C 6.939 11.549,6.843 11.352,6.502 11.141 C 6.328 11.034,6.272 11.020,6.002 11.021 C 5.743 11.022,5.670 11.038,5.509 11.133 C 5.067 11.392,4.433 12.536,4.182 13.531 C 3.670 15.551,4.253 18.039,5.674 19.900 C 5.933 20.239,6.606 20.925,6.960 21.211 C 9.376 23.164,12.683 23.547,15.474 22.199 C 16.352 21.775,17.049 21.270,17.741 20.554 C 18.389 19.886,18.803 19.294,19.200 18.471 C 20.234 16.331,20.263 13.942,19.280 11.940 C 18.743 10.847,17.996 9.932,16.700 8.779 C 15.620 7.818,15.119 7.253,14.484 6.281 C 13.899 5.386,13.410 4.285,13.055 3.063 C 12.883 2.469,12.762 2.277,12.465 2.124 C 12.232 2.005,11.887 1.974,11.670 2.055 M11.640 5.140 C 11.804 5.566,12.298 6.568,12.558 7.000 C 13.274 8.191,14.113 9.178,15.261 10.181 C 16.399 11.174,16.997 11.892,17.460 12.820 C 17.898 13.698,18.052 14.503,17.966 15.465 C 17.911 16.082,17.836 16.458,17.671 16.940 C 16.988 18.944,15.291 20.428,13.160 20.885 C 12.554 21.015,11.446 21.015,10.840 20.885 C 7.966 20.269,5.984 17.823,6.004 14.920 C 6.007 14.495,6.026 14.480,6.282 14.699 C 7.199 15.486,8.607 15.712,9.764 15.258 C 10.745 14.874,11.508 14.061,11.833 13.054 C 11.964 12.651,12.014 12.235,11.988 11.768 C 11.941 10.896,11.723 10.202,11.124 9.009 C 10.664 8.092,10.520 7.616,10.520 7.016 C 10.520 6.586,10.607 6.240,10.820 5.822 C 11.051 5.369,11.466 4.805,11.521 4.869 C 11.536 4.886,11.589 5.008,11.640 5.140 " stroke="none" fill-rule="evenodd" fill="#000000"></path></svg>