<svg  xmlns="http://www.w3.org/2000/svg" width="24" height="24" viewBox="0 0 24 24" fill="none" stroke="currentColor" stroke-width="2" stroke-linecap="round" stroke-linejoin="round"><path d="M3.499 2.042 C 2.376 2.236,1.461 3.048,1.114 4.160 L 1.020 4.460 1.020 11.500 L 1.020 18.540 1.114 18.840 C 1.418 19.816,2.149 20.554,3.140 20.886 L 3.420 20.980 8.272 20.991 C 11.491 20.998,13.175 20.988,13.276 20.961 C 13.498 20.901,13.739 20.710,13.867 20.492 C 13.964 20.327,13.980 20.257,13.980 20.000 C 13.980 19.746,13.963 19.672,13.872 19.516 C 13.761 19.328,13.572 19.158,13.373 19.070 C 13.285 19.031,12.184 19.015,8.480 19.000 L 3.700 18.980 3.516 18.872 C 3.303 18.747,3.141 18.550,3.058 18.316 C 2.968 18.060,2.971 4.993,3.061 4.690 C 3.144 4.411,3.411 4.144,3.690 4.061 C 3.979 3.975,7.928 3.970,8.211 4.055 C 8.507 4.144,8.610 4.247,9.046 4.890 C 9.684 5.829,9.891 6.093,10.166 6.316 C 10.497 6.583,10.975 6.817,11.400 6.918 C 11.730 6.997,11.861 6.999,15.923 7.000 C 20.611 7.000,20.372 6.986,20.679 7.283 C 20.961 7.558,20.975 7.617,20.999 8.703 L 21.020 9.667 21.141 9.863 C 21.543 10.516,22.457 10.516,22.859 9.863 L 22.980 9.666 22.980 8.563 C 22.980 7.518,22.975 7.444,22.886 7.160 C 22.581 6.182,21.831 5.427,20.861 5.122 L 20.540 5.021 16.160 5.000 L 11.780 4.980 11.613 4.891 C 11.409 4.781,11.285 4.629,10.759 3.840 C 10.204 3.007,9.805 2.605,9.278 2.346 C 8.596 2.011,8.723 2.024,6.060 2.015 C 4.762 2.011,3.609 2.023,3.499 2.042 M18.695 11.057 C 18.466 11.129,18.256 11.299,18.128 11.516 L 18.020 11.700 18.000 14.426 L 17.980 17.153 17.660 17.317 C 16.919 17.698,16.363 18.360,16.114 19.160 C 15.979 19.594,15.979 20.406,16.114 20.840 C 16.421 21.826,17.174 22.579,18.160 22.886 C 18.594 23.021,19.406 23.021,19.840 22.886 C 20.826 22.579,21.579 21.826,21.886 20.840 C 22.021 20.406,22.021 19.594,21.886 19.160 C 21.635 18.355,21.078 17.693,20.330 17.313 L 20.000 17.145 20.000 16.073 L 20.000 15.000 20.590 14.998 C 20.977 14.997,21.232 14.978,21.330 14.943 C 21.551 14.864,21.744 14.702,21.869 14.489 C 21.964 14.328,21.980 14.256,21.980 14.000 C 21.980 13.746,21.963 13.672,21.872 13.516 C 21.634 13.111,21.352 13.000,20.557 13.000 L 20.007 13.000 19.993 12.350 C 19.981 11.728,19.975 11.692,19.872 11.516 C 19.628 11.101,19.150 10.915,18.695 11.057 M19.310 19.061 C 19.688 19.173,20.000 19.598,20.000 20.001 C 20.000 20.331,19.784 20.696,19.484 20.872 C 19.328 20.963,19.254 20.980,19.000 20.980 C 18.746 20.980,18.672 20.963,18.516 20.872 C 17.935 20.530,17.833 19.774,18.304 19.303 C 18.583 19.024,18.916 18.944,19.310 19.061 " stroke="none" fill-rule="evenodd" fill="#000000"></path></svg>