<svg  xmlns="http://www.w3.org/2000/svg" width="24" height="24" viewBox="0 0 24 24" fill="none" stroke="currentColor" stroke-width="2" stroke-linecap="round" stroke-linejoin="round"><path d="M11.695 1.057 C 11.466 1.129,11.256 1.299,11.128 1.516 C 11.024 1.693,11.019 1.726,11.007 2.370 C 10.999 2.739,10.986 3.040,10.978 3.040 C 10.970 3.040,10.760 3.068,10.511 3.103 C 8.506 3.381,6.722 4.123,5.100 5.355 C 4.544 5.776,3.452 6.877,3.030 7.440 C 2.165 8.595,1.591 9.729,1.179 11.100 C 0.942 11.886,0.950 12.331,1.210 12.880 C 1.364 13.206,1.771 13.623,2.080 13.772 C 2.571 14.008,2.407 14.000,6.887 14.000 L 10.997 14.000 11.009 17.290 L 11.021 20.580 11.114 20.860 C 11.445 21.850,12.185 22.583,13.160 22.886 C 13.594 23.021,14.406 23.021,14.840 22.886 C 15.827 22.579,16.584 21.821,16.885 20.840 C 16.955 20.611,16.977 20.440,16.978 20.120 C 16.980 19.733,16.971 19.686,16.871 19.514 C 16.568 18.998,15.883 18.854,15.405 19.205 C 15.169 19.379,15.047 19.609,15.002 19.966 C 14.981 20.130,14.945 20.314,14.922 20.375 C 14.851 20.561,14.677 20.758,14.484 20.872 C 14.328 20.963,14.254 20.980,14.000 20.980 C 13.746 20.980,13.672 20.963,13.516 20.872 C 13.415 20.813,13.284 20.700,13.225 20.623 C 12.994 20.320,13.000 20.418,13.000 17.075 L 13.000 14.000 17.098 14.000 C 19.935 14.000,21.261 13.986,21.408 13.956 C 22.175 13.796,22.811 13.147,22.962 12.369 C 23.032 12.008,22.990 11.653,22.807 11.051 C 22.393 9.694,21.844 8.611,20.985 7.460 C 20.550 6.878,19.472 5.788,18.900 5.355 C 17.308 4.146,15.561 3.407,13.620 3.123 C 13.312 3.077,13.048 3.040,13.033 3.040 C 13.019 3.040,13.001 2.739,12.993 2.370 C 12.981 1.726,12.976 1.693,12.872 1.516 C 12.628 1.101,12.150 0.915,11.695 1.057 M13.300 5.098 C 16.414 5.541,19.090 7.527,20.406 10.371 C 20.593 10.774,21.000 11.881,21.000 11.985 C 21.000 11.993,16.950 12.000,12.000 12.000 C 7.050 12.000,3.000 11.993,3.000 11.985 C 3.000 11.875,3.415 10.753,3.605 10.350 C 4.127 9.244,4.740 8.393,5.604 7.576 C 6.427 6.797,7.087 6.346,8.111 5.866 C 9.118 5.393,10.134 5.133,11.400 5.024 C 11.731 4.995,12.896 5.041,13.300 5.098 " stroke="none" fill-rule="evenodd" fill="#000000"></path></svg>