<svg  xmlns="http://www.w3.org/2000/svg" width="24" height="24" viewBox="0 0 24 24" fill="none" stroke="currentColor" stroke-width="2" stroke-linecap="round" stroke-linejoin="round"><path d="M1.580 1.095 C 1.340 1.209,1.193 1.358,1.083 1.600 C 1.005 1.773,1.002 1.855,1.001 3.643 C 1.000 5.760,0.999 5.753,1.303 6.057 C 1.703 6.456,2.297 6.456,2.697 6.057 C 2.949 5.805,3.000 5.620,3.000 4.963 L 3.000 4.421 4.039 5.459 L 5.078 6.498 4.624 6.959 C 4.124 7.467,4.043 7.591,4.012 7.895 C 3.971 8.295,4.158 8.662,4.508 8.867 C 4.673 8.964,4.742 8.980,5.000 8.979 C 5.396 8.978,5.477 8.931,6.041 8.376 L 6.502 7.922 7.161 8.582 L 7.820 9.241 7.744 9.371 C 7.442 9.888,7.215 10.470,7.093 11.040 C 6.992 11.511,6.992 12.489,7.093 12.960 C 7.417 14.473,8.339 15.712,9.653 16.402 C 10.073 16.622,10.446 16.769,10.773 16.842 L 11.000 16.893 11.000 17.946 L 11.000 19.000 10.446 19.000 C 9.648 19.000,9.367 19.110,9.128 19.516 C 9.037 19.672,9.020 19.746,9.020 20.000 C 9.020 20.256,9.036 20.328,9.131 20.489 C 9.256 20.702,9.449 20.864,9.670 20.943 C 9.768 20.978,10.022 20.997,10.407 20.998 L 10.993 21.000 11.007 21.653 C 11.020 22.300,11.021 22.308,11.141 22.503 C 11.543 23.156,12.457 23.156,12.859 22.503 C 12.979 22.308,12.980 22.300,12.993 21.653 L 13.007 21.000 13.593 20.998 C 13.978 20.997,14.232 20.978,14.330 20.943 C 14.551 20.864,14.744 20.702,14.869 20.489 C 14.964 20.328,14.980 20.256,14.980 20.000 C 14.980 19.746,14.963 19.672,14.872 19.516 C 14.633 19.110,14.352 19.000,13.554 19.000 L 13.000 19.000 13.000 17.946 L 13.000 16.893 13.227 16.842 C 14.016 16.665,14.963 16.116,15.586 15.474 C 16.243 14.796,16.700 13.927,16.907 12.960 C 17.008 12.489,17.008 11.511,16.907 11.040 C 16.801 10.543,16.660 10.155,16.408 9.668 L 16.185 9.235 18.583 6.837 L 20.980 4.439 21.000 5.373 L 21.020 6.307 21.141 6.503 C 21.543 7.156,22.457 7.156,22.859 6.503 L 22.980 6.306 22.991 4.063 C 23.002 2.053,22.996 1.802,22.937 1.646 C 22.845 1.405,22.657 1.204,22.420 1.094 L 22.220 1.001 20.056 1.000 C 17.708 1.000,17.668 1.003,17.382 1.221 C 17.302 1.282,17.187 1.415,17.128 1.516 C 17.037 1.672,17.020 1.746,17.020 2.000 C 17.020 2.256,17.036 2.328,17.131 2.489 C 17.192 2.592,17.304 2.725,17.381 2.783 C 17.635 2.977,17.753 2.996,18.700 2.998 L 19.580 3.000 17.171 5.409 L 14.761 7.818 14.371 7.612 C 13.689 7.253,13.228 7.113,12.470 7.036 C 12.107 6.999,11.893 6.999,11.530 7.036 C 10.776 7.112,10.319 7.250,9.628 7.611 L 9.236 7.815 8.579 7.159 L 7.922 6.502 8.376 6.041 C 8.931 5.477,8.978 5.396,8.979 5.000 C 8.980 4.745,8.964 4.672,8.872 4.516 C 8.618 4.084,8.134 3.905,7.660 4.066 C 7.506 4.119,7.363 4.232,6.980 4.604 L 6.496 5.076 5.458 4.038 L 4.421 3.000 4.963 3.000 C 5.620 3.000,5.805 2.949,6.057 2.697 C 6.458 2.296,6.457 1.703,6.054 1.300 C 5.756 1.002,5.738 1.000,3.623 1.000 L 1.780 1.001 1.580 1.095 M12.861 9.129 C 13.350 9.272,13.688 9.480,14.104 9.896 C 14.516 10.309,14.724 10.643,14.875 11.139 C 14.958 11.412,14.973 11.542,14.973 12.000 C 14.973 12.458,14.958 12.588,14.875 12.861 C 14.582 13.822,13.819 14.581,12.840 14.886 C 12.406 15.021,11.594 15.021,11.160 14.886 C 10.181 14.581,9.418 13.822,9.125 12.861 C 9.042 12.588,9.027 12.458,9.027 12.000 C 9.027 11.542,9.042 11.412,9.125 11.139 C 9.276 10.643,9.484 10.309,9.896 9.896 C 10.393 9.399,10.842 9.159,11.499 9.040 C 11.832 8.980,12.500 9.023,12.861 9.129 " stroke="none" fill-rule="evenodd" fill="#000000"></path></svg>