<svg  xmlns="http://www.w3.org/2000/svg" width="24" height="24" viewBox="0 0 24 24" fill="none" stroke="currentColor" stroke-width="2" stroke-linecap="round" stroke-linejoin="round"><path d="M3.477 3.073 C 2.806 3.249,2.238 3.823,2.060 4.508 C 2.010 4.698,2.000 5.123,2.000 7.000 C 2.000 9.455,2.003 9.491,2.225 9.930 C 2.361 10.199,2.801 10.639,3.070 10.775 C 3.509 10.997,3.545 11.000,6.000 11.000 C 8.455 11.000,8.491 10.997,8.930 10.775 C 9.196 10.640,9.638 10.200,9.771 9.937 C 9.996 9.494,10.000 9.442,9.999 7.014 C 9.999 4.601,9.991 4.496,9.781 4.083 C 9.646 3.816,9.297 3.449,9.017 3.281 C 8.564 3.008,8.524 3.005,6.000 3.005 C 3.992 3.005,3.711 3.012,3.477 3.073 M12.695 4.057 C 12.466 4.129,12.256 4.299,12.128 4.516 C 12.037 4.672,12.020 4.746,12.020 5.000 C 12.020 5.256,12.036 5.328,12.131 5.489 C 12.256 5.702,12.449 5.864,12.670 5.943 C 12.892 6.022,21.108 6.022,21.330 5.943 C 21.551 5.864,21.744 5.702,21.869 5.489 C 21.964 5.328,21.980 5.256,21.980 5.000 C 21.980 4.746,21.963 4.672,21.872 4.516 C 21.740 4.293,21.533 4.128,21.290 4.055 C 21.029 3.976,12.946 3.979,12.695 4.057 M8.000 7.000 L 8.000 9.000 6.000 9.000 L 4.000 9.000 4.000 7.000 L 4.000 5.000 6.000 5.000 L 8.000 5.000 8.000 7.000 M12.695 11.057 C 12.466 11.129,12.256 11.299,12.128 11.516 C 12.037 11.672,12.020 11.746,12.020 12.000 C 12.020 12.256,12.036 12.328,12.131 12.489 C 12.256 12.702,12.449 12.864,12.670 12.943 C 12.892 13.022,21.108 13.022,21.330 12.943 C 21.551 12.864,21.744 12.702,21.869 12.489 C 21.964 12.328,21.980 12.256,21.980 12.000 C 21.980 11.746,21.963 11.672,21.872 11.516 C 21.740 11.293,21.533 11.128,21.290 11.055 C 21.029 10.976,12.946 10.979,12.695 11.057 M8.640 14.068 C 8.488 14.121,8.196 14.394,6.731 15.853 L 5.002 17.575 4.271 16.855 C 3.655 16.247,3.509 16.123,3.343 16.067 C 2.865 15.905,2.383 16.083,2.128 16.516 C 2.036 16.672,2.020 16.745,2.021 17.000 C 2.021 17.213,2.043 17.341,2.095 17.440 C 2.197 17.633,4.297 19.740,4.520 19.873 C 4.673 19.964,4.745 19.980,5.000 19.979 C 5.212 19.979,5.341 19.957,5.440 19.905 C 5.632 19.805,9.739 15.705,9.873 15.480 C 9.964 15.328,9.980 15.254,9.980 15.000 C 9.980 14.746,9.963 14.672,9.872 14.516 C 9.617 14.083,9.121 13.903,8.640 14.068 M12.695 18.057 C 12.466 18.129,12.256 18.299,12.128 18.516 C 12.037 18.672,12.020 18.746,12.020 19.000 C 12.020 19.256,12.036 19.328,12.131 19.489 C 12.256 19.702,12.449 19.864,12.670 19.943 C 12.892 20.022,21.108 20.022,21.330 19.943 C 21.551 19.864,21.744 19.702,21.869 19.489 C 21.964 19.328,21.980 19.256,21.980 19.000 C 21.980 18.746,21.963 18.672,21.872 18.516 C 21.740 18.293,21.533 18.128,21.290 18.055 C 21.029 17.976,12.946 17.979,12.695 18.057 " stroke="none" fill-rule="evenodd" fill="#000000"></path></svg>