<svg  xmlns="http://www.w3.org/2000/svg" width="24" height="24" viewBox="0 0 24 24" fill="none" stroke="currentColor" stroke-width="2" stroke-linecap="round" stroke-linejoin="round"><path d="M7.695 1.057 C 7.466 1.129,7.256 1.299,7.128 1.516 C 7.025 1.692,7.019 1.728,7.007 2.347 L 6.993 2.993 5.727 3.009 C 4.518 3.025,4.445 3.030,4.139 3.124 C 3.176 3.420,2.420 4.180,2.114 5.160 L 2.020 5.460 2.020 13.000 L 2.020 20.540 2.114 20.840 C 2.418 21.816,3.149 22.554,4.140 22.886 L 4.420 22.980 8.331 22.991 C 10.995 22.999,12.292 22.989,12.399 22.960 C 12.801 22.852,13.120 22.428,13.120 22.003 C 13.119 21.616,12.915 21.291,12.545 21.089 C 12.430 21.026,12.107 21.018,8.560 21.000 L 4.700 20.980 4.516 20.872 C 4.415 20.813,4.284 20.700,4.225 20.623 C 3.989 20.314,4.000 20.557,4.000 15.575 L 4.000 11.000 11.994 11.000 L 19.989 11.000 20.012 11.222 C 20.065 11.739,20.491 12.120,21.014 12.120 C 21.425 12.120,21.854 11.792,21.961 11.398 C 21.990 11.290,21.999 10.307,21.991 8.329 L 21.979 5.420 21.886 5.140 C 21.558 4.158,20.813 3.417,19.861 3.124 C 19.555 3.030,19.482 3.025,18.273 3.009 L 17.007 2.993 16.993 2.347 C 16.981 1.726,16.976 1.693,16.871 1.514 C 16.479 0.848,15.521 0.848,15.129 1.514 C 15.024 1.693,15.019 1.726,15.007 2.350 L 14.993 3.000 12.000 3.000 L 9.007 3.000 8.993 2.350 C 8.981 1.728,8.975 1.692,8.872 1.516 C 8.628 1.101,8.150 0.915,7.695 1.057 M7.007 5.653 C 7.020 6.300,7.021 6.308,7.141 6.503 C 7.543 7.156,8.457 7.156,8.859 6.503 C 8.979 6.308,8.980 6.300,8.993 5.653 L 9.007 5.000 12.000 5.000 L 14.993 5.000 15.007 5.653 C 15.020 6.300,15.021 6.308,15.141 6.503 C 15.543 7.156,16.457 7.156,16.859 6.503 C 16.979 6.308,16.980 6.300,16.993 5.653 L 17.007 5.000 18.056 5.000 C 19.297 5.000,19.416 5.022,19.697 5.303 C 19.993 5.599,20.000 5.650,20.000 7.447 L 20.000 9.000 12.000 9.000 L 4.000 9.000 4.000 7.447 C 4.000 5.649,4.007 5.599,4.304 5.303 C 4.582 5.024,4.681 5.006,5.927 5.003 L 6.993 5.000 7.007 5.653 M15.780 14.026 C 14.696 14.199,13.771 14.885,13.320 15.851 C 13.075 16.375,13.022 16.622,13.022 17.240 C 13.022 17.823,13.074 18.090,13.272 18.540 C 13.502 19.063,13.559 19.133,15.465 21.200 C 16.145 21.937,16.787 22.597,16.891 22.667 C 17.255 22.911,17.488 22.976,18.000 22.976 C 18.512 22.976,18.745 22.911,19.109 22.667 C 19.281 22.552,21.488 20.201,22.159 19.419 C 23.124 18.292,23.262 16.856,22.526 15.580 C 22.349 15.274,21.732 14.658,21.420 14.476 C 20.870 14.156,20.388 14.026,19.740 14.026 C 19.175 14.025,18.786 14.116,18.295 14.362 C 17.993 14.514,17.986 14.516,17.884 14.446 C 17.730 14.341,17.331 14.173,17.059 14.099 C 16.823 14.034,16.016 13.988,15.780 14.026 M16.778 16.119 C 16.883 16.170,17.083 16.325,17.222 16.463 C 17.729 16.968,18.266 16.969,18.775 16.468 C 19.108 16.140,19.369 16.022,19.760 16.024 C 20.118 16.025,20.372 16.130,20.621 16.379 C 20.870 16.628,20.975 16.882,20.976 17.240 C 20.978 17.740,20.929 17.812,19.636 19.221 C 19.011 19.902,18.387 20.576,18.250 20.719 L 18.000 20.980 17.750 20.719 C 16.781 19.709,15.197 17.935,15.116 17.771 C 14.981 17.496,14.980 16.978,15.115 16.720 C 15.283 16.397,15.575 16.148,15.920 16.035 C 16.105 15.974,16.574 16.020,16.778 16.119 " stroke="none" fill-rule="evenodd" fill="#000000"></path></svg>