<svg  xmlns="http://www.w3.org/2000/svg" width="24" height="24" viewBox="0 0 24 24" fill="none" stroke="currentColor" stroke-width="2" stroke-linecap="round" stroke-linejoin="round"><path d="M8.382 2.304 C 7.980 2.393,7.859 2.450,5.234 3.764 C 3.000 4.882,2.834 4.973,2.614 5.190 C 2.485 5.317,2.322 5.530,2.251 5.664 C 1.984 6.168,2.000 5.695,2.000 13.000 C 2.000 20.192,1.989 19.824,2.216 20.273 C 2.461 20.755,2.890 21.123,3.394 21.284 C 3.700 21.382,4.245 21.402,4.500 21.325 C 4.588 21.298,5.575 20.823,6.693 20.268 L 8.726 19.260 8.995 19.260 C 9.252 19.260,9.296 19.275,9.991 19.616 C 10.809 20.016,10.972 20.055,11.322 19.939 C 11.707 19.811,12.000 19.406,12.000 19.000 C 12.000 18.774,11.884 18.488,11.725 18.321 C 11.621 18.212,11.355 18.058,10.790 17.779 L 10.000 17.390 10.000 11.015 C 10.000 7.509,10.008 4.640,10.019 4.640 C 10.029 4.640,10.924 5.083,12.009 5.623 L 13.980 6.607 14.000 10.457 L 14.020 14.306 14.141 14.503 C 14.543 15.156,15.457 15.156,15.859 14.503 L 15.980 14.306 16.000 10.457 L 16.020 6.607 17.991 5.623 C 19.076 5.083,19.971 4.640,19.981 4.640 C 19.991 4.640,20.004 6.815,20.009 9.473 L 20.020 14.306 20.141 14.503 C 20.543 15.156,21.457 15.156,21.859 14.503 L 21.980 14.306 21.980 9.243 L 21.980 4.180 21.886 3.946 C 21.651 3.364,21.157 2.889,20.612 2.720 C 20.258 2.611,19.724 2.611,19.400 2.720 C 19.270 2.764,18.279 3.241,17.199 3.780 C 15.309 4.723,15.225 4.760,15.001 4.760 C 14.777 4.760,14.688 4.720,12.414 3.587 C 10.825 2.796,9.968 2.391,9.780 2.342 C 9.398 2.243,8.736 2.225,8.382 2.304 M8.000 11.012 L 8.000 17.385 6.018 18.372 C 4.928 18.916,4.028 19.360,4.018 19.360 C 4.008 19.360,4.000 16.493,4.000 12.990 L 4.000 6.620 5.970 5.632 C 7.054 5.089,7.954 4.643,7.970 4.642 C 7.987 4.641,8.000 7.508,8.000 11.012 M14.695 17.057 C 14.466 17.129,14.256 17.299,14.128 17.516 C 14.037 17.672,14.020 17.746,14.020 18.000 C 14.020 18.256,14.036 18.328,14.131 18.489 C 14.256 18.702,14.449 18.864,14.670 18.943 C 14.891 19.022,21.109 19.022,21.330 18.943 C 21.551 18.864,21.744 18.702,21.869 18.489 C 21.964 18.328,21.980 18.256,21.980 18.000 C 21.980 17.746,21.963 17.672,21.872 17.516 C 21.740 17.293,21.533 17.128,21.290 17.055 C 21.030 16.977,14.945 16.979,14.695 17.057 " stroke="none" fill-rule="evenodd" fill="#000000"></path></svg>