<svg  xmlns="http://www.w3.org/2000/svg" width="24" height="24" viewBox="0 0 24 24" fill="none" stroke="currentColor" stroke-width="2" stroke-linecap="round" stroke-linejoin="round"><path d="M10.695 1.057 C 10.466 1.129,10.256 1.299,10.128 1.516 C 10.036 1.672,10.020 1.746,10.020 2.003 C 10.020 2.271,10.034 2.329,10.141 2.503 C 10.288 2.741,10.577 2.946,10.819 2.982 L 10.997 3.009 11.008 4.658 L 11.020 6.306 11.141 6.503 C 11.543 7.156,12.457 7.156,12.859 6.503 L 12.980 6.306 12.980 4.003 L 12.980 1.700 12.872 1.516 C 12.740 1.293,12.533 1.128,12.290 1.055 C 12.050 0.983,10.928 0.984,10.695 1.057 M9.477 9.073 C 8.806 9.249,8.238 9.823,8.060 10.508 C 8.014 10.685,8.000 10.994,8.000 11.868 L 8.000 13.000 5.870 13.002 C 3.491 13.005,3.432 13.011,2.983 13.281 C 2.703 13.449,2.354 13.816,2.219 14.083 C 2.000 14.515,2.000 14.512,2.000 17.500 C 2.000 20.501,1.999 20.484,2.225 20.930 C 2.361 21.199,2.801 21.639,3.070 21.775 C 3.542 22.014,2.983 22.000,12.000 22.000 C 21.017 22.000,20.458 22.014,20.930 21.775 C 21.196 21.640,21.638 21.200,21.771 20.937 C 21.990 20.506,22.000 20.396,21.999 18.514 C 21.999 16.642,21.985 16.484,21.781 16.083 C 21.646 15.816,21.297 15.449,21.017 15.281 C 20.568 15.011,20.509 15.005,18.130 15.002 L 16.000 15.000 15.999 12.890 C 15.999 10.612,15.990 10.494,15.781 10.083 C 15.646 9.816,15.297 9.449,15.017 9.281 C 14.564 9.008,14.524 9.005,12.000 9.005 C 9.992 9.005,9.711 9.012,9.477 9.073 M14.000 15.500 L 14.000 20.000 12.000 20.000 L 10.000 20.000 10.000 15.500 L 10.000 11.000 12.000 11.000 L 14.000 11.000 14.000 15.500 M8.000 17.500 L 8.000 20.000 6.000 20.000 L 4.000 20.000 4.000 17.500 L 4.000 15.000 6.000 15.000 L 8.000 15.000 8.000 17.500 M20.000 18.500 L 20.000 20.000 18.000 20.000 L 16.000 20.000 16.000 18.500 L 16.000 17.000 18.000 17.000 L 20.000 17.000 20.000 18.500 " stroke="none" fill-rule="evenodd" fill="#000000"></path></svg>