<svg  xmlns="http://www.w3.org/2000/svg" width="24" height="24" viewBox="0 0 24 24" fill="none" stroke="currentColor" stroke-width="2" stroke-linecap="round" stroke-linejoin="round"><path d="M11.240 5.023 C 9.671 5.107,8.188 5.367,6.923 5.780 C 4.013 6.731,1.923 8.471,1.250 10.500 C 1.068 11.050,1.020 11.361,1.020 12.000 C 1.020 12.639,1.068 12.950,1.250 13.500 C 1.663 14.745,2.656 15.940,4.044 16.861 C 5.685 17.950,7.887 18.670,10.360 18.927 C 11.012 18.995,12.988 18.995,13.640 18.927 C 15.731 18.710,17.709 18.137,19.200 17.317 C 21.000 16.328,22.263 14.969,22.750 13.500 C 22.932 12.950,22.980 12.639,22.980 12.000 C 22.980 11.361,22.932 11.050,22.750 10.500 C 22.336 9.250,21.357 8.075,19.946 7.134 C 18.352 6.069,16.143 5.341,13.780 5.101 C 13.215 5.043,11.721 4.998,11.240 5.023 M12.940 7.041 C 16.987 7.284,20.294 9.063,20.904 11.327 C 20.996 11.666,20.996 12.334,20.904 12.673 C 20.472 14.279,18.666 15.683,16.062 16.439 C 11.167 17.860,5.135 16.437,3.428 13.460 C 2.527 11.889,3.124 10.192,5.039 8.883 C 7.005 7.540,9.919 6.861,12.940 7.041 " stroke="none" fill="#000000" fill-rule="evenodd"></path></svg>