<svg  xmlns="http://www.w3.org/2000/svg" width="24" height="24" viewBox="0 0 24 24" fill="none" stroke="currentColor" stroke-width="2" stroke-linecap="round" stroke-linejoin="round"><path d="M6.477 1.073 C 5.806 1.249,5.238 1.823,5.060 2.508 C 5.009 2.704,5.000 3.351,5.000 7.005 L 5.000 11.273 4.862 11.359 C 4.649 11.491,4.319 11.875,4.195 12.137 C 4.014 12.519,3.990 12.725,4.010 13.697 C 4.026 14.472,4.039 14.614,4.118 14.860 C 4.429 15.826,5.168 16.566,6.140 16.884 C 6.403 16.969,6.498 16.976,7.710 16.991 L 9.000 17.007 9.000 18.605 C 9.000 20.321,9.021 20.558,9.218 21.043 C 9.567 21.901,10.402 22.612,11.311 22.824 C 11.660 22.906,12.340 22.906,12.689 22.824 C 13.598 22.612,14.433 21.901,14.782 21.043 C 14.979 20.558,15.000 20.321,15.000 18.605 L 15.000 17.007 16.290 16.991 C 17.502 16.976,17.597 16.969,17.860 16.884 C 18.832 16.566,19.571 15.826,19.882 14.860 C 19.961 14.614,19.974 14.473,19.990 13.700 C 20.009 12.736,19.974 12.463,19.783 12.085 C 19.666 11.855,19.331 11.478,19.138 11.359 L 19.000 11.273 18.999 7.027 C 18.999 2.425,19.003 2.520,18.781 2.083 C 18.646 1.816,18.297 1.449,18.017 1.281 C 17.533 0.989,17.867 1.005,12.000 1.005 C 7.157 1.005,6.719 1.010,6.477 1.073 M9.007 3.653 C 9.020 4.300,9.021 4.308,9.141 4.503 C 9.543 5.156,10.457 5.156,10.859 4.503 C 10.979 4.308,10.980 4.300,10.993 3.653 L 11.007 3.000 12.002 3.000 L 12.997 3.000 13.008 4.653 L 13.020 6.306 13.141 6.503 C 13.543 7.156,14.457 7.156,14.859 6.503 L 14.980 6.306 14.992 4.653 L 15.003 3.000 16.002 3.000 L 17.000 3.000 17.000 7.000 L 17.000 11.000 12.000 11.000 L 7.000 11.000 7.000 7.000 L 7.000 3.000 7.997 3.000 L 8.993 3.000 9.007 3.653 M18.000 13.554 C 18.000 14.352,17.890 14.633,17.484 14.872 L 17.300 14.980 15.940 15.003 C 14.423 15.028,14.362 15.038,13.937 15.312 C 13.669 15.486,13.353 15.819,13.233 16.054 C 13.019 16.474,13.024 16.419,13.001 18.360 C 12.981 20.129,12.978 20.185,12.894 20.340 C 12.703 20.693,12.385 20.888,12.000 20.888 C 11.615 20.888,11.297 20.693,11.106 20.340 C 11.023 20.185,11.019 20.127,10.997 18.380 C 10.981 17.068,10.961 16.537,10.923 16.420 C 10.779 15.976,10.466 15.573,10.063 15.312 C 9.638 15.038,9.577 15.028,8.060 15.003 L 6.700 14.980 6.516 14.872 C 6.415 14.813,6.284 14.700,6.225 14.623 C 6.038 14.377,6.000 14.202,6.000 13.575 L 6.000 13.000 12.000 13.000 L 18.000 13.000 18.000 13.554 " stroke="none" fill-rule="evenodd" fill="#000000"></path></svg>