<svg  xmlns="http://www.w3.org/2000/svg" width="24" height="24" viewBox="0 0 24 24" fill="none" stroke="currentColor" stroke-width="2" stroke-linecap="round" stroke-linejoin="round"><path d="M7.499 1.043 C 6.379 1.233,5.461 2.048,5.114 3.160 L 5.020 3.460 5.020 10.000 L 5.020 16.540 5.114 16.840 C 5.422 17.827,6.173 18.578,7.160 18.886 L 7.460 18.980 14.000 18.980 L 20.540 18.980 20.840 18.886 C 21.816 18.582,22.554 17.851,22.886 16.860 L 22.980 16.580 22.991 11.552 C 23.003 6.076,23.011 6.282,22.777 5.695 C 22.717 5.544,22.596 5.312,22.508 5.180 C 22.322 4.901,19.341 1.886,18.980 1.613 C 18.693 1.395,18.398 1.242,18.020 1.115 L 17.740 1.020 12.720 1.014 C 9.959 1.011,7.609 1.024,7.499 1.043 M9.000 4.132 C 9.000 5.358,9.021 5.528,9.225 5.930 C 9.361 6.199,9.801 6.639,10.070 6.775 C 10.516 7.001,10.502 7.000,13.458 6.998 C 15.627 6.997,16.210 6.986,16.330 6.943 C 16.551 6.864,16.744 6.702,16.869 6.489 C 16.964 6.328,16.980 6.256,16.980 6.000 C 16.980 5.746,16.963 5.672,16.872 5.516 C 16.813 5.415,16.698 5.282,16.618 5.221 C 16.328 5.000,16.325 5.000,13.554 5.000 L 11.000 5.000 11.000 3.999 L 11.000 2.998 14.230 3.009 L 17.460 3.020 17.620 3.107 C 17.819 3.216,20.805 6.208,20.906 6.400 C 20.977 6.533,20.981 6.762,20.992 11.280 C 21.001 14.616,20.992 16.081,20.961 16.224 C 20.905 16.484,20.724 16.731,20.486 16.871 C 20.307 16.976,20.274 16.981,19.650 16.993 L 19.000 17.007 18.999 14.393 C 18.999 11.569,18.994 11.503,18.781 11.083 C 18.646 10.816,18.297 10.449,18.017 10.281 C 17.548 9.999,17.636 10.005,14.000 10.005 C 10.364 10.005,10.452 9.999,9.983 10.281 C 9.703 10.449,9.354 10.816,9.219 11.083 C 9.001 11.513,9.000 11.523,9.000 14.372 L 9.000 17.007 8.350 16.993 C 7.728 16.981,7.692 16.975,7.516 16.872 C 7.415 16.813,7.284 16.700,7.225 16.623 C 6.987 16.311,7.000 16.701,7.000 10.022 C 7.000 3.123,6.977 3.629,7.304 3.303 C 7.554 3.052,7.727 3.006,8.430 3.003 L 9.000 3.000 9.000 4.132 M1.695 5.057 C 1.466 5.129,1.256 5.299,1.128 5.516 L 1.020 5.700 1.020 13.120 L 1.020 20.540 1.114 20.840 C 1.418 21.816,2.149 22.554,3.140 22.886 L 3.420 22.980 10.773 22.991 C 15.657 22.998,18.177 22.988,18.277 22.961 C 18.498 22.901,18.739 22.710,18.867 22.492 C 18.964 22.327,18.980 22.257,18.980 22.000 C 18.980 21.746,18.963 21.672,18.872 21.516 C 18.761 21.328,18.572 21.158,18.373 21.070 C 18.284 21.031,16.686 21.016,10.980 21.000 L 3.700 20.980 3.516 20.872 C 3.328 20.761,3.158 20.572,3.070 20.373 C 3.031 20.284,3.016 18.686,3.000 12.980 L 2.980 5.700 2.872 5.516 C 2.628 5.101,2.150 4.915,1.695 5.057 M17.000 14.500 L 17.000 17.000 14.000 17.000 L 11.000 17.000 11.000 14.500 L 11.000 12.000 14.000 12.000 L 17.000 12.000 17.000 14.500 " stroke="none" fill-rule="evenodd" fill="#000000"></path></svg>