<svg  xmlns="http://www.w3.org/2000/svg" width="24" height="24" viewBox="0 0 24 24" fill="none" stroke="currentColor" stroke-width="2" stroke-linecap="round" stroke-linejoin="round"><path d="M13.541 1.045 C 13.243 1.088,12.969 1.177,12.660 1.330 C 12.114 1.602,2.263 7.546,2.047 7.734 C 1.585 8.138,1.314 8.565,1.113 9.203 L 1.020 9.500 1.020 13.020 L 1.020 16.540 1.157 16.935 C 1.317 17.398,1.570 17.804,1.904 18.133 C 2.067 18.295,3.111 19.015,5.300 20.476 C 7.038 21.636,8.559 22.632,8.680 22.688 C 9.624 23.130,10.619 23.092,11.520 22.580 C 11.970 22.324,21.524 16.588,21.704 16.465 C 21.939 16.305,22.310 15.928,22.486 15.671 C 22.571 15.545,22.697 15.305,22.764 15.137 C 23.008 14.528,23.004 14.602,22.991 10.866 L 22.980 7.460 22.843 7.065 C 22.678 6.588,22.424 6.188,22.076 5.857 C 21.808 5.602,15.768 1.543,15.327 1.322 C 14.773 1.043,14.180 0.951,13.541 1.045 M14.310 3.056 C 14.452 3.107,20.000 6.774,20.000 6.818 C 20.000 6.838,10.160 12.747,10.068 12.783 C 10.031 12.797,8.885 12.058,7.054 10.838 C 5.429 9.756,4.086 8.858,4.069 8.842 C 4.035 8.812,13.497 3.120,13.700 3.049 C 13.872 2.988,14.125 2.991,14.310 3.056 M20.939 14.310 C 20.898 14.452,20.825 14.575,20.724 14.676 C 20.630 14.770,18.717 15.941,15.815 17.681 C 13.200 19.249,11.046 20.539,11.030 20.548 C 11.013 20.557,11.000 19.215,11.000 17.564 L 11.000 14.564 15.990 11.570 L 20.980 8.576 20.990 11.337 C 20.999 13.730,20.992 14.126,20.939 14.310 M6.020 12.547 L 9.000 14.533 9.000 17.529 C 9.000 19.915,8.990 20.519,8.950 20.495 C 8.922 20.479,7.637 19.623,6.094 18.595 C 4.339 17.424,3.255 16.677,3.199 16.599 C 3.001 16.321,3.000 16.299,3.000 13.334 C 3.000 11.808,3.009 10.560,3.020 10.560 C 3.031 10.560,4.381 11.454,6.020 12.547 " stroke="none" fill-rule="evenodd" fill="#000000"></path></svg>