<svg  xmlns="http://www.w3.org/2000/svg" width="24" height="24" viewBox="0 0 24 24" fill="none" stroke="currentColor" stroke-width="2" stroke-linecap="round" stroke-linejoin="round"><path d="M5.499 1.042 C 4.378 1.234,3.461 2.048,3.114 3.160 L 3.020 3.460 3.020 6.883 L 3.020 10.306 3.141 10.503 C 3.543 11.156,4.457 11.156,4.859 10.503 L 4.980 10.306 5.000 7.023 C 5.022 3.344,5.001 3.594,5.321 3.283 C 5.625 2.989,5.459 3.000,9.447 3.000 L 13.000 3.000 13.000 5.132 C 13.000 7.443,13.004 7.494,13.225 7.930 C 13.361 8.199,13.801 8.639,14.070 8.775 C 14.506 8.996,14.557 9.000,16.868 9.000 L 19.000 9.000 19.000 14.554 C 19.000 19.144,18.990 20.139,18.945 20.290 C 18.872 20.533,18.707 20.740,18.484 20.872 L 18.300 20.980 16.020 21.000 C 14.319 21.015,13.711 21.033,13.627 21.070 C 13.428 21.158,13.239 21.328,13.128 21.516 C 13.037 21.672,13.020 21.746,13.020 22.000 C 13.020 22.257,13.036 22.327,13.133 22.492 C 13.262 22.711,13.502 22.901,13.728 22.962 C 13.831 22.990,14.679 23.000,16.232 22.991 C 18.565 22.978,18.582 22.978,18.860 22.885 C 19.847 22.557,20.581 21.816,20.886 20.840 L 20.980 20.540 20.980 13.980 L 20.980 7.420 20.868 7.060 C 20.732 6.627,20.505 6.192,20.241 5.863 C 19.921 5.464,16.162 1.748,15.920 1.592 C 15.585 1.376,15.319 1.252,14.932 1.131 L 14.580 1.020 10.140 1.014 C 7.698 1.011,5.609 1.024,5.499 1.042 M16.800 5.220 L 18.580 7.000 16.790 7.000 L 15.000 7.000 15.000 5.220 C 15.000 4.241,15.005 3.440,15.010 3.440 C 15.016 3.440,15.821 4.241,16.800 5.220 M4.477 13.073 C 3.806 13.249,3.238 13.823,3.060 14.508 C 3.014 14.685,3.000 14.994,3.000 15.862 L 3.000 16.987 2.786 17.035 C 2.515 17.096,2.270 17.275,2.129 17.514 C 2.036 17.672,2.020 17.745,2.020 18.003 C 2.020 18.271,2.034 18.329,2.141 18.503 C 2.288 18.742,2.578 18.946,2.821 18.982 L 3.000 19.009 3.000 20.136 C 3.000 21.357,3.021 21.528,3.225 21.930 C 3.362 22.200,3.801 22.639,4.071 22.775 C 4.577 23.032,5.150 23.067,5.499 22.863 C 6.278 22.406,6.097 21.233,5.217 21.036 L 5.005 20.988 4.992 19.784 C 4.979 18.632,4.975 18.570,4.885 18.340 C 4.768 18.040,4.768 17.959,4.885 17.660 C 4.976 17.430,4.980 17.372,4.992 16.214 L 5.004 15.008 5.181 14.982 C 5.423 14.946,5.712 14.741,5.859 14.503 C 5.966 14.329,5.980 14.271,5.980 14.003 C 5.980 13.746,5.964 13.672,5.872 13.516 C 5.605 13.062,5.115 12.907,4.477 13.073 M8.695 13.057 C 8.466 13.129,8.256 13.299,8.128 13.516 C 8.036 13.672,8.020 13.746,8.020 14.003 C 8.020 14.271,8.034 14.329,8.141 14.503 C 8.287 14.741,8.577 14.946,8.819 14.982 L 8.995 15.008 9.007 16.234 L 9.020 17.460 9.133 17.730 L 9.245 18.000 9.133 18.270 L 9.020 18.540 9.007 19.764 L 8.995 20.988 8.783 21.036 C 7.903 21.233,7.722 22.406,8.501 22.863 C 8.850 23.067,9.423 23.032,9.929 22.775 C 10.196 22.640,10.638 22.200,10.771 21.937 C 10.976 21.534,11.000 21.342,11.000 20.129 L 11.000 19.009 11.179 18.982 C 11.422 18.946,11.712 18.742,11.859 18.503 C 11.966 18.329,11.980 18.271,11.980 18.003 C 11.980 17.745,11.964 17.672,11.871 17.514 C 11.730 17.275,11.485 17.096,11.214 17.035 L 11.000 16.987 10.999 15.884 C 10.999 14.418,10.937 14.161,10.465 13.653 C 9.985 13.137,9.241 12.886,8.695 13.057 " stroke="none" fill-rule="evenodd" fill="#000000"></path></svg>