<svg  xmlns="http://www.w3.org/2000/svg" width="24" height="24" viewBox="0 0 24 24" fill="none" stroke="currentColor" stroke-width="2" stroke-linecap="round" stroke-linejoin="round"><path d="M4.499 2.043 C 3.382 2.230,2.454 3.054,2.115 4.160 C 2.045 4.390,2.023 4.559,2.022 4.883 C 2.020 5.285,2.026 5.315,2.141 5.503 C 2.537 6.147,3.457 6.156,3.849 5.520 C 3.927 5.392,3.971 5.249,3.999 5.031 C 4.048 4.645,4.111 4.491,4.301 4.301 C 4.491 4.112,4.645 4.048,5.028 3.999 C 5.392 3.953,5.631 3.827,5.802 3.591 C 6.207 3.032,5.947 2.253,5.290 2.055 C 5.090 1.995,4.811 1.991,4.499 2.043 M8.695 2.057 C 8.466 2.129,8.256 2.299,8.128 2.516 C 8.037 2.672,8.020 2.746,8.020 3.000 C 8.020 3.256,8.036 3.328,8.131 3.489 C 8.256 3.702,8.449 3.864,8.670 3.943 C 8.878 4.017,10.122 4.017,10.330 3.943 C 10.551 3.864,10.744 3.702,10.869 3.489 C 10.964 3.328,10.980 3.256,10.980 3.000 C 10.980 2.746,10.963 2.672,10.872 2.516 C 10.740 2.293,10.533 2.128,10.290 2.055 C 10.050 1.983,8.928 1.984,8.695 2.057 M13.695 2.057 C 13.466 2.129,13.256 2.299,13.128 2.516 C 13.037 2.672,13.020 2.746,13.020 3.000 C 13.020 3.256,13.036 3.328,13.131 3.489 C 13.256 3.702,13.449 3.864,13.670 3.943 C 13.878 4.017,15.122 4.017,15.330 3.943 C 15.551 3.864,15.744 3.702,15.869 3.489 C 15.964 3.328,15.980 3.256,15.980 3.000 C 15.980 2.746,15.963 2.672,15.872 2.516 C 15.740 2.293,15.533 2.128,15.290 2.055 C 15.050 1.983,13.928 1.984,13.695 2.057 M18.695 2.054 C 18.048 2.267,17.799 3.040,18.198 3.591 C 18.369 3.827,18.608 3.953,18.972 3.999 C 19.355 4.048,19.509 4.112,19.699 4.301 C 19.889 4.491,19.952 4.645,20.001 5.031 C 20.049 5.410,20.184 5.647,20.452 5.828 C 20.923 6.144,21.554 5.998,21.859 5.503 C 21.974 5.315,21.980 5.285,21.978 4.883 C 21.977 4.559,21.955 4.390,21.885 4.160 C 21.586 3.184,20.809 2.404,19.863 2.130 C 19.463 2.015,18.922 1.979,18.695 2.054 M2.695 8.057 C 2.466 8.129,2.256 8.299,2.128 8.516 C 2.020 8.699,2.020 8.703,2.020 9.503 L 2.020 10.306 2.141 10.503 C 2.543 11.156,3.457 11.156,3.859 10.503 L 3.980 10.306 3.980 9.503 C 3.980 8.703,3.980 8.699,3.872 8.516 C 3.628 8.101,3.150 7.915,2.695 8.057 M20.695 8.057 C 20.466 8.129,20.256 8.299,20.128 8.516 L 20.020 8.700 20.020 10.003 L 20.020 11.306 20.141 11.503 C 20.543 12.156,21.457 12.156,21.859 11.503 L 21.980 11.306 21.980 10.003 L 21.980 8.700 21.872 8.516 C 21.628 8.101,21.150 7.915,20.695 8.057 M12.150 11.043 C 11.456 11.207,10.963 11.871,11.010 12.580 C 11.027 12.833,11.198 13.297,12.818 17.460 C 13.802 19.990,14.654 22.147,14.712 22.254 C 14.927 22.650,15.399 22.948,15.875 22.988 C 16.472 23.038,17.073 22.706,17.326 22.185 C 17.370 22.094,17.653 21.228,17.954 20.260 L 18.501 18.501 20.260 17.954 C 21.228 17.653,22.094 17.370,22.185 17.326 C 22.655 17.098,23.000 16.537,23.000 16.000 C 23.000 15.475,22.664 14.916,22.209 14.685 C 21.937 14.547,13.064 11.108,12.840 11.054 C 12.593 10.995,12.372 10.991,12.150 11.043 M2.695 13.057 C 2.466 13.129,2.256 13.299,2.128 13.516 C 2.020 13.699,2.020 13.703,2.020 14.503 L 2.020 15.306 2.141 15.503 C 2.543 16.156,3.457 16.156,3.859 15.503 L 3.980 15.306 3.980 14.503 C 3.980 13.703,3.980 13.699,3.872 13.516 C 3.628 13.101,3.150 12.915,2.695 13.057 M16.749 14.690 C 18.513 15.375,19.952 15.942,19.945 15.948 C 19.938 15.955,19.443 16.114,18.843 16.301 C 18.244 16.488,17.667 16.686,17.561 16.740 C 17.241 16.902,16.899 17.249,16.741 17.574 C 16.664 17.731,16.457 18.326,16.281 18.896 C 16.106 19.465,15.956 19.937,15.949 19.944 C 15.940 19.954,13.658 14.118,13.415 13.463 C 13.391 13.399,13.399 13.391,13.463 13.415 C 13.505 13.430,14.984 14.004,16.749 14.690 M2.695 18.057 C 2.466 18.129,2.256 18.299,2.128 18.516 C 2.029 18.685,2.020 18.734,2.022 19.120 C 2.023 19.440,2.045 19.611,2.115 19.840 C 2.413 20.812,3.179 21.584,4.137 21.877 C 4.481 21.982,5.040 22.026,5.264 21.965 C 5.498 21.901,5.737 21.714,5.867 21.492 C 5.964 21.327,5.980 21.257,5.980 21.000 C 5.980 20.746,5.963 20.672,5.872 20.516 C 5.758 20.323,5.561 20.149,5.375 20.078 C 5.314 20.055,5.130 20.019,4.966 19.998 C 4.623 19.955,4.387 19.835,4.226 19.625 C 4.081 19.434,4.037 19.309,3.997 18.966 C 3.942 18.488,3.701 18.179,3.290 18.055 C 3.068 17.988,2.913 17.989,2.695 18.057 M8.695 20.057 C 8.466 20.129,8.256 20.299,8.128 20.516 C 8.037 20.672,8.020 20.746,8.020 21.000 C 8.020 21.256,8.036 21.328,8.131 21.489 C 8.256 21.702,8.449 21.864,8.670 21.943 C 8.885 22.020,11.115 22.020,11.330 21.943 C 11.551 21.864,11.744 21.702,11.869 21.489 C 11.964 21.328,11.980 21.256,11.980 21.000 C 11.980 20.746,11.963 20.672,11.872 20.516 C 11.740 20.293,11.533 20.128,11.290 20.055 C 11.039 19.979,8.937 19.981,8.695 20.057 " stroke="none" fill-rule="evenodd" fill="#000000"></path></svg>