<svg  xmlns="http://www.w3.org/2000/svg" width="24" height="24" viewBox="0 0 24 24" fill="none" stroke="currentColor" stroke-width="2" stroke-linecap="round" stroke-linejoin="round"><path d="M1.670 1.061 C 1.448 1.142,1.250 1.309,1.128 1.516 C 1.037 1.672,1.020 1.746,1.020 2.000 C 1.020 2.254,1.036 2.327,1.127 2.480 C 1.189 2.583,2.914 4.337,5.157 6.580 L 9.079 10.499 5.366 14.220 C 2.921 16.670,1.601 18.021,1.500 18.177 C 1.138 18.736,0.975 19.357,1.013 20.038 C 1.025 20.270,1.065 20.568,1.101 20.700 C 1.379 21.724,2.276 22.621,3.300 22.899 C 3.432 22.935,3.730 22.975,3.962 22.987 C 4.643 23.025,5.264 22.862,5.823 22.500 C 5.979 22.399,7.330 21.079,9.780 18.634 L 13.501 14.921 17.420 18.843 C 19.663 21.086,21.417 22.811,21.520 22.873 C 21.673 22.964,21.746 22.980,22.000 22.980 C 22.257 22.980,22.327 22.964,22.492 22.867 C 22.968 22.587,23.139 21.967,22.865 21.508 C 22.810 21.416,18.215 16.793,12.653 11.235 C 3.300 1.889,2.525 1.125,2.343 1.065 C 2.107 0.987,1.874 0.986,1.670 1.061 M15.360 1.025 C 13.838 1.218,12.684 1.693,11.576 2.581 C 10.938 3.093,10.233 3.931,9.901 4.574 C 9.787 4.796,9.760 4.893,9.760 5.081 C 9.760 5.372,9.862 5.613,10.066 5.806 C 10.377 6.102,10.810 6.167,11.194 5.975 C 11.418 5.864,11.479 5.792,11.891 5.163 C 12.596 4.085,13.872 3.277,15.216 3.059 C 15.587 2.999,16.444 2.978,16.494 3.027 C 16.509 3.043,15.895 3.686,15.129 4.457 C 13.828 5.767,13.727 5.879,13.609 6.141 C 13.345 6.726,13.350 7.310,13.626 7.888 C 13.753 8.155,13.854 8.269,14.792 9.204 C 15.729 10.138,15.847 10.242,16.120 10.374 C 16.704 10.658,17.295 10.658,17.887 10.374 C 18.157 10.244,18.283 10.131,19.568 8.850 C 20.668 7.755,20.963 7.481,20.984 7.536 C 21.029 7.652,20.972 8.680,20.904 8.994 C 20.604 10.368,19.866 11.439,18.679 12.221 C 18.070 12.622,17.953 12.771,17.927 13.184 C 17.907 13.502,17.970 13.690,18.175 13.913 C 18.380 14.136,18.618 14.246,18.897 14.246 C 19.135 14.246,19.298 14.187,19.655 13.973 C 20.487 13.472,21.309 12.672,21.859 11.828 C 22.912 10.210,23.260 8.175,22.798 6.340 C 22.691 5.913,22.581 5.697,22.357 5.473 C 22.000 5.116,21.515 4.957,21.020 5.034 C 20.479 5.118,20.453 5.139,18.649 6.935 L 16.999 8.578 16.210 7.789 L 15.421 7.001 17.045 5.370 C 18.004 4.408,18.712 3.666,18.772 3.560 C 19.122 2.939,19.053 2.237,18.587 1.697 C 18.229 1.282,17.385 1.047,16.160 1.021 C 15.797 1.014,15.437 1.015,15.360 1.025 M8.430 17.151 C 5.753 19.828,4.732 20.825,4.601 20.889 C 4.064 21.150,3.397 20.918,3.120 20.375 C 2.991 20.124,2.980 19.667,3.097 19.420 C 3.148 19.311,4.338 18.092,6.836 15.590 L 10.499 11.920 11.290 12.710 L 12.080 13.500 8.430 17.151 " stroke="none" fill-rule="evenodd" fill="#000000"></path></svg>