<svg  xmlns="http://www.w3.org/2000/svg" width="24" height="24" viewBox="0 0 24 24" fill="none" stroke="currentColor" stroke-width="2" stroke-linecap="round" stroke-linejoin="round"><path d="M13.383 1.046 C 12.145 1.155,10.676 1.648,9.604 2.315 C 8.781 2.826,8.596 2.998,5.008 6.577 C 3.088 8.493,1.453 10.152,1.375 10.265 C 1.050 10.737,0.918 11.453,1.056 12.000 C 1.207 12.601,1.255 12.663,2.716 14.132 C 3.455 14.876,4.152 15.547,4.265 15.625 C 4.737 15.950,5.453 16.082,6.000 15.944 C 6.640 15.783,6.476 15.927,10.020 12.399 C 12.205 10.223,13.312 9.148,13.420 9.097 C 13.532 9.044,13.670 9.021,13.880 9.021 C 14.344 9.020,14.668 9.219,14.887 9.640 C 15.009 9.876,15.017 10.339,14.903 10.580 C 14.852 10.688,13.779 11.793,11.599 13.980 C 8.062 17.529,8.219 17.351,8.056 18.000 C 7.918 18.547,8.049 19.263,8.375 19.735 C 8.453 19.848,9.124 20.545,9.868 21.284 C 11.054 22.463,11.252 22.644,11.480 22.753 C 12.235 23.117,13.059 23.072,13.721 22.630 C 13.984 22.455,20.676 15.758,21.035 15.311 C 22.467 13.528,23.174 11.201,22.957 8.977 C 22.718 6.512,21.450 4.239,19.504 2.784 C 17.717 1.447,15.612 0.850,13.383 1.046 M15.300 3.102 C 17.944 3.520,20.133 5.525,20.778 8.119 C 20.923 8.704,20.974 9.162,20.971 9.840 C 20.962 11.230,20.592 12.428,19.807 13.597 C 19.488 14.073,19.125 14.463,17.464 16.120 L 16.000 17.580 14.711 16.291 L 13.422 15.002 14.883 13.531 C 16.546 11.858,16.685 11.681,16.889 10.973 C 17.019 10.522,17.018 9.716,16.887 9.260 C 16.602 8.266,15.775 7.428,14.781 7.125 C 14.508 7.042,14.376 7.027,13.900 7.025 C 13.302 7.023,13.046 7.070,12.617 7.260 C 12.173 7.456,11.921 7.674,10.469 9.117 L 8.998 10.578 7.709 9.288 L 6.420 7.999 8.120 6.306 C 9.064 5.365,9.962 4.507,10.140 4.374 C 11.210 3.575,12.424 3.125,13.780 3.025 C 14.111 3.000,14.917 3.041,15.300 3.102 M6.300 10.720 L 7.579 12.000 6.580 13.000 C 5.940 13.641,5.552 14.000,5.501 14.000 C 5.391 14.000,3.000 11.610,3.000 11.501 C 3.000 11.449,3.357 11.063,3.990 10.430 C 4.534 9.886,4.989 9.440,5.000 9.440 C 5.011 9.440,5.596 10.016,6.300 10.720 M13.300 17.720 L 14.579 19.000 13.580 20.000 C 12.940 20.641,12.552 21.000,12.501 21.000 C 12.391 21.000,10.000 18.610,10.000 18.501 C 10.000 18.449,10.357 18.063,10.990 17.430 C 11.534 16.886,11.989 16.440,12.000 16.440 C 12.011 16.440,12.596 17.016,13.300 17.720 " stroke="none" fill-rule="evenodd" fill="#000000"></path></svg>