<svg  xmlns="http://www.w3.org/2000/svg" width="24" height="24" viewBox="0 0 24 24" fill="none" stroke="currentColor" stroke-width="2" stroke-linecap="round" stroke-linejoin="round"><path d="M3.499 2.043 C 2.391 2.230,1.488 3.024,1.114 4.140 L 1.020 4.420 1.009 12.958 C 1.000 20.694,1.005 21.516,1.063 21.718 C 1.326 22.631,2.237 23.176,3.110 22.943 C 3.571 22.820,3.647 22.759,4.980 21.438 C 5.684 20.740,6.323 20.136,6.400 20.095 C 6.529 20.026,6.685 20.018,8.420 20.000 L 10.300 19.980 10.492 19.867 C 11.274 19.408,11.101 18.231,10.224 18.038 C 10.084 18.007,9.434 17.998,8.140 18.008 C 6.299 18.023,6.254 18.025,5.980 18.116 C 5.296 18.344,5.120 18.474,3.970 19.615 L 3.000 20.576 3.000 12.735 C 3.000 3.923,2.975 4.632,3.303 4.303 C 3.632 3.974,2.892 4.000,12.000 4.000 C 21.108 4.000,20.368 3.974,20.697 4.303 C 20.999 4.606,21.000 4.611,21.000 6.797 L 21.001 8.700 21.095 8.900 C 21.276 9.282,21.595 9.488,22.003 9.488 C 22.292 9.488,22.536 9.381,22.724 9.173 C 23.012 8.854,23.006 8.907,22.991 6.538 C 22.978 4.448,22.976 4.416,22.885 4.140 C 22.561 3.162,21.822 2.425,20.861 2.121 L 20.540 2.020 12.120 2.014 C 7.489 2.011,3.609 2.024,3.499 2.043 M17.499 10.040 C 16.373 10.244,15.470 11.041,15.118 12.140 C 15.042 12.378,15.026 12.536,15.010 13.202 L 14.991 13.983 14.685 14.032 C 14.259 14.099,13.918 14.275,13.596 14.597 C 13.310 14.882,13.154 15.147,13.060 15.508 C 12.972 15.844,12.972 19.156,13.060 19.492 C 13.153 19.852,13.310 20.118,13.596 20.404 C 13.882 20.690,14.148 20.847,14.508 20.940 C 14.850 21.029,21.150 21.029,21.492 20.940 C 21.852 20.847,22.118 20.690,22.404 20.404 C 22.694 20.114,22.841 19.863,22.937 19.491 C 23.027 19.144,23.029 15.909,22.940 15.529 C 22.852 15.156,22.699 14.891,22.404 14.597 C 22.082 14.275,21.741 14.099,21.315 14.032 L 21.009 13.983 20.990 13.202 C 20.974 12.536,20.958 12.378,20.882 12.140 C 20.571 11.170,19.801 10.404,18.861 10.129 C 18.500 10.023,17.832 9.980,17.499 10.040 M18.310 12.061 C 18.452 12.103,18.571 12.178,18.697 12.303 C 18.948 12.554,19.000 12.751,19.000 13.447 L 19.000 14.000 18.000 14.000 L 17.000 14.000 17.000 13.447 C 17.000 12.750,17.052 12.554,17.304 12.303 C 17.583 12.024,17.916 11.944,18.310 12.061 M21.000 17.500 L 21.000 19.000 18.000 19.000 L 15.000 19.000 15.000 17.500 L 15.000 16.000 18.000 16.000 L 21.000 16.000 21.000 17.500 " stroke="none" fill-rule="evenodd" fill="#000000"></path></svg>