<svg  xmlns="http://www.w3.org/2000/svg" width="24" height="24" viewBox="0 0 24 24" fill="none" stroke="currentColor" stroke-width="2" stroke-linecap="round" stroke-linejoin="round"><path d="M9.499 1.043 C 8.379 1.233,7.461 2.048,7.114 3.160 L 7.020 3.460 7.020 9.000 L 7.020 14.540 7.114 14.840 C 7.422 15.827,8.173 16.578,9.160 16.886 L 9.460 16.980 15.000 16.980 L 20.540 16.980 20.840 16.886 C 21.827 16.578,22.578 15.827,22.886 14.840 L 22.980 14.540 22.980 9.000 L 22.980 3.460 22.886 3.160 C 22.581 2.182,21.832 1.428,20.861 1.121 L 20.540 1.020 15.120 1.014 C 12.139 1.011,9.609 1.024,9.499 1.043 M20.310 3.061 C 20.452 3.103,20.571 3.178,20.697 3.303 C 21.005 3.612,21.000 3.559,21.000 6.265 L 21.000 8.635 20.730 8.477 C 19.718 7.886,18.499 7.844,17.468 8.365 C 17.019 8.593,16.738 8.855,13.715 11.871 L 10.569 15.009 10.135 14.994 C 9.750 14.981,9.679 14.967,9.516 14.872 C 9.293 14.741,9.128 14.533,9.055 14.290 C 9.010 14.139,9.000 13.212,9.000 9.001 C 9.000 3.242,8.979 3.627,9.304 3.303 C 9.621 2.985,9.234 3.006,14.983 3.003 C 19.458 3.000,20.131 3.008,20.310 3.061 M12.477 5.073 C 11.806 5.249,11.238 5.823,11.060 6.508 C 10.941 6.962,11.003 7.492,11.225 7.930 C 11.361 8.199,11.801 8.639,12.070 8.775 C 12.659 9.073,13.341 9.073,13.930 8.775 C 14.196 8.640,14.638 8.200,14.771 7.937 C 14.994 7.498,15.052 7.007,14.940 6.529 C 14.858 6.182,14.720 5.927,14.465 5.653 C 14.074 5.232,13.560 5.005,13.000 5.005 C 12.857 5.005,12.622 5.036,12.477 5.073 M3.499 7.043 C 2.383 7.230,1.461 8.048,1.114 9.160 L 1.020 9.460 1.020 15.000 L 1.020 20.540 1.114 20.840 C 1.422 21.827,2.173 22.578,3.160 22.886 L 3.460 22.980 9.000 22.980 L 14.540 22.980 14.840 22.886 C 15.828 22.578,16.584 21.821,16.885 20.840 C 16.955 20.611,16.977 20.440,16.978 20.120 C 16.980 19.733,16.971 19.686,16.871 19.514 C 16.568 18.998,15.883 18.854,15.405 19.205 C 15.169 19.379,15.047 19.609,15.002 19.966 C 14.981 20.130,14.945 20.314,14.922 20.375 C 14.851 20.561,14.677 20.758,14.484 20.872 L 14.300 20.980 9.000 20.980 L 3.700 20.980 3.516 20.872 C 3.415 20.813,3.284 20.700,3.225 20.623 C 2.988 20.312,3.000 20.608,3.000 15.022 C 3.000 9.284,2.983 9.631,3.283 9.321 C 3.484 9.114,3.636 9.049,4.028 8.999 C 4.392 8.953,4.631 8.827,4.802 8.591 C 5.207 8.032,4.947 7.253,4.290 7.055 C 4.090 6.995,3.811 6.991,3.499 7.043 M19.581 10.135 C 19.768 10.221,19.942 10.367,20.409 10.830 L 21.000 11.417 21.000 12.762 C 21.000 14.225,20.985 14.347,20.779 14.618 C 20.718 14.698,20.585 14.813,20.484 14.872 L 20.300 14.980 16.860 14.991 L 13.420 15.001 15.760 12.658 C 17.047 11.369,18.177 10.269,18.271 10.213 C 18.681 9.969,19.156 9.941,19.581 10.135 " stroke="none" fill-rule="evenodd" fill="#000000"></path></svg>