<svg  xmlns="http://www.w3.org/2000/svg" width="24" height="24" viewBox="0 0 24 24" fill="none" stroke="currentColor" stroke-width="2" stroke-linecap="round" stroke-linejoin="round"><path d="M11.419 1.058 C 11.066 1.122,10.649 1.296,10.339 1.508 C 10.075 1.689,3.381 7.413,2.949 7.828 C 2.469 8.288,2.188 8.793,2.062 9.420 C 2.004 9.706,1.999 10.270,2.009 14.660 L 2.020 19.580 2.114 19.860 C 2.443 20.840,3.160 21.557,4.140 21.886 L 4.420 21.980 8.456 21.991 C 12.949 22.004,12.722 22.017,13.015 21.732 C 13.249 21.505,13.337 21.304,13.337 21.000 C 13.337 20.607,13.148 20.303,12.781 20.106 C 12.627 20.024,12.562 20.019,11.310 20.008 L 10.000 19.996 10.000 16.498 L 10.000 13.000 11.994 13.000 C 13.970 13.000,13.988 13.001,14.064 13.084 C 14.285 13.329,14.732 13.454,15.064 13.365 C 15.605 13.218,15.921 12.624,15.742 12.087 C 15.617 11.710,15.192 11.329,14.660 11.116 L 14.420 11.020 12.120 11.008 C 9.530 10.995,9.460 11.001,9.002 11.271 C 8.707 11.446,8.359 11.806,8.219 12.083 C 7.995 12.523,8.000 12.434,8.000 16.370 L 8.000 20.003 6.350 19.992 L 4.700 19.980 4.516 19.872 C 4.415 19.813,4.283 19.700,4.224 19.621 C 3.987 19.312,3.998 19.561,4.009 14.439 L 4.020 9.740 4.114 9.550 C 4.195 9.385,4.698 8.939,7.821 6.262 C 9.809 4.558,11.495 3.132,11.568 3.093 C 11.751 2.994,12.249 2.994,12.432 3.093 C 12.505 3.132,14.191 4.558,16.179 6.262 C 19.302 8.939,19.805 9.385,19.886 9.550 C 19.978 9.736,19.980 9.770,20.000 11.180 C 20.022 12.767,20.023 12.772,20.283 13.033 C 20.499 13.250,20.704 13.337,21.000 13.337 C 21.304 13.337,21.505 13.249,21.731 13.015 C 21.989 12.750,22.000 12.674,22.000 11.111 C 22.000 9.613,21.974 9.350,21.781 8.874 C 21.638 8.524,21.361 8.125,21.057 7.833 C 20.621 7.415,13.927 1.690,13.661 1.508 C 13.028 1.076,12.218 0.913,11.419 1.058 M17.695 14.057 C 17.466 14.129,17.256 14.299,17.128 14.516 L 17.020 14.700 17.008 15.850 L 16.995 17.000 15.944 17.000 C 14.797 17.000,14.643 17.022,14.382 17.221 C 14.302 17.282,14.187 17.415,14.128 17.516 C 14.037 17.672,14.020 17.746,14.020 18.000 C 14.020 18.256,14.036 18.328,14.131 18.489 C 14.192 18.592,14.304 18.725,14.381 18.783 C 14.642 18.983,14.738 18.996,15.908 18.998 L 16.995 19.000 17.008 20.153 L 17.020 21.307 17.141 21.503 C 17.543 22.156,18.457 22.156,18.859 21.503 L 18.980 21.307 18.992 20.153 L 19.005 19.000 20.092 18.998 C 21.262 18.996,21.358 18.983,21.619 18.783 C 21.696 18.725,21.808 18.592,21.869 18.489 C 21.964 18.328,21.980 18.256,21.980 18.000 C 21.980 17.746,21.963 17.672,21.872 17.516 C 21.813 17.415,21.698 17.282,21.618 17.221 C 21.357 17.022,21.203 17.000,20.056 17.000 L 19.005 17.000 18.992 15.850 L 18.980 14.700 18.872 14.516 C 18.628 14.101,18.150 13.915,17.695 14.057 " stroke="none" fill-rule="evenodd" fill="#000000"></path></svg>