<svg  xmlns="http://www.w3.org/2000/svg" width="24" height="24" viewBox="0 0 24 24" fill="none" stroke="currentColor" stroke-width="2" stroke-linecap="round" stroke-linejoin="round"><path d="M12.360 3.041 C 11.857 3.147,11.383 3.533,11.148 4.030 L 11.020 4.300 11.008 6.150 L 10.996 8.000 9.868 8.002 C 8.596 8.005,8.391 8.035,7.983 8.281 C 7.703 8.449,7.354 8.816,7.219 9.083 C 7.004 9.507,7.000 9.556,7.000 12.000 C 7.000 14.455,7.003 14.491,7.225 14.930 C 7.361 15.199,7.801 15.639,8.070 15.775 C 8.472 15.979,8.643 16.000,9.867 16.000 L 10.996 16.000 11.008 17.850 L 11.020 19.700 11.148 19.970 C 11.624 20.975,12.845 21.307,13.709 20.667 C 13.814 20.589,15.521 18.899,17.503 16.913 C 21.375 13.030,21.253 13.165,21.423 12.580 C 21.514 12.265,21.514 11.735,21.423 11.420 C 21.253 10.835,21.375 10.970,17.503 7.087 C 15.521 5.101,13.815 3.412,13.711 3.335 C 13.360 3.074,12.792 2.951,12.360 3.041 M19.480 12.000 C 19.480 12.079,18.809 12.772,16.240 15.340 L 13.000 18.580 12.999 17.180 C 12.999 15.669,12.978 15.471,12.781 15.083 C 12.646 14.816,12.297 14.449,12.017 14.281 C 11.609 14.035,11.405 14.005,10.130 14.002 L 9.000 14.000 9.000 12.000 L 9.000 10.000 10.132 10.000 C 11.358 10.000,11.528 9.979,11.930 9.775 C 12.196 9.640,12.638 9.200,12.771 8.937 C 12.984 8.518,13.000 8.367,13.000 6.834 L 13.000 5.420 16.240 8.660 C 18.809 11.228,19.480 11.921,19.480 12.000 M3.695 8.057 C 3.466 8.129,3.256 8.299,3.128 8.516 L 3.020 8.700 3.020 12.003 L 3.020 15.306 3.141 15.503 C 3.543 16.156,4.457 16.156,4.859 15.503 L 4.980 15.306 4.980 12.003 L 4.980 8.700 4.872 8.516 C 4.628 8.101,4.150 7.915,3.695 8.057 " stroke="none" fill-rule="evenodd" fill="#000000"></path></svg>