<svg  xmlns="http://www.w3.org/2000/svg" width="24" height="24" viewBox="0 0 24 24" fill="none" stroke="currentColor" stroke-width="2" stroke-linecap="round" stroke-linejoin="round"><path d="M14.477 1.073 C 13.806 1.249,13.238 1.823,13.060 2.508 C 13.009 2.702,13.000 3.237,13.000 6.000 C 13.000 9.547,12.996 9.478,13.225 9.930 C 13.361 10.199,13.801 10.639,14.070 10.775 C 14.522 11.004,14.453 11.000,18.000 11.000 C 21.547 11.000,21.478 11.004,21.930 10.775 C 22.196 10.640,22.638 10.200,22.771 9.937 C 23.003 9.479,23.000 9.537,22.999 6.014 C 22.999 2.515,22.999 2.511,22.781 2.083 C 22.646 1.816,22.297 1.449,22.017 1.281 C 21.548 0.999,21.636 1.005,18.000 1.005 C 15.047 1.005,14.715 1.011,14.477 1.073 M21.000 6.000 L 21.000 9.000 18.000 9.000 L 15.000 9.000 15.000 6.000 L 15.000 3.000 18.000 3.000 L 21.000 3.000 21.000 6.000 M3.499 5.043 C 2.383 5.230,1.461 6.048,1.114 7.160 L 1.020 7.460 1.020 14.000 L 1.020 20.540 1.114 20.840 C 1.422 21.827,2.173 22.578,3.160 22.886 L 3.460 22.980 10.000 22.980 L 16.540 22.980 16.840 22.886 C 17.816 22.582,18.556 21.849,18.885 20.860 L 18.979 20.580 18.991 17.694 C 19.004 14.556,19.002 14.519,18.782 14.083 C 18.646 13.816,18.297 13.449,18.017 13.281 C 17.550 13.000,17.620 13.005,14.130 13.002 L 11.000 13.000 10.999 9.890 C 10.999 6.526,10.998 6.510,10.781 6.083 C 10.646 5.816,10.297 5.449,10.017 5.281 C 9.554 5.002,9.583 5.004,6.480 5.007 C 4.951 5.008,3.609 5.025,3.499 5.043 M9.000 10.000 L 9.000 13.000 6.000 13.000 L 3.000 13.000 3.000 10.447 C 3.000 7.538,2.993 7.614,3.304 7.303 C 3.609 6.997,3.520 7.006,6.430 7.003 L 9.000 7.000 9.000 10.000 M9.000 18.001 L 9.000 21.002 6.350 20.991 L 3.700 20.980 3.516 20.872 C 3.415 20.813,3.284 20.700,3.225 20.623 C 2.996 20.323,3.000 20.373,3.000 17.575 L 3.000 15.000 6.000 15.000 L 9.000 15.000 9.000 18.001 M17.000 17.554 C 17.000 20.325,17.000 20.328,16.779 20.618 C 16.718 20.698,16.585 20.813,16.484 20.872 L 16.300 20.980 13.650 20.991 L 11.000 21.002 11.000 18.001 L 11.000 15.000 14.000 15.000 L 17.000 15.000 17.000 17.554 " stroke="none" fill-rule="evenodd" fill="#000000"></path></svg>