<svg  xmlns="http://www.w3.org/2000/svg" width="24" height="24" viewBox="0 0 24 24" fill="none" stroke="currentColor" stroke-width="2" stroke-linecap="round" stroke-linejoin="round"><path d="M6.760 3.041 C 4.864 3.271,3.148 4.323,2.099 5.898 C 0.887 7.718,0.669 9.890,1.496 11.922 C 1.939 13.012,2.726 14.099,4.064 15.468 C 5.145 16.573,10.094 21.327,10.335 21.491 C 11.829 22.506,13.919 21.925,14.721 20.272 C 14.857 19.991,14.958 19.652,15.018 19.278 L 15.041 19.136 15.430 19.074 C 16.889 18.842,17.909 17.765,18.100 16.255 L 18.126 16.049 18.456 15.989 C 19.030 15.883,19.507 15.655,19.940 15.280 C 20.230 15.029,20.999 14.203,21.364 13.750 C 22.442 12.412,22.926 11.221,22.986 9.760 C 23.044 8.350,22.686 7.077,21.901 5.898 C 20.750 4.169,18.864 3.111,16.760 3.012 C 15.108 2.935,13.366 3.558,12.172 4.653 L 12.004 4.807 11.714 4.557 C 10.882 3.841,9.851 3.350,8.698 3.119 C 8.235 3.026,7.217 2.985,6.760 3.041 M8.394 5.100 C 8.774 5.173,9.190 5.315,9.540 5.490 C 9.833 5.637,10.306 5.959,10.452 6.112 L 10.561 6.225 9.654 7.123 C 8.672 8.094,8.493 8.297,8.320 8.639 C 8.084 9.107,8.020 9.406,8.023 10.020 C 8.026 10.508,8.039 10.620,8.128 10.887 C 8.441 11.833,9.167 12.559,10.113 12.872 C 10.380 12.961,10.492 12.974,10.980 12.977 C 11.617 12.980,11.926 12.910,12.400 12.653 C 12.779 12.447,12.917 12.327,14.020 11.239 C 14.570 10.696,15.083 10.216,15.160 10.170 C 15.357 10.055,15.734 9.986,15.998 10.017 C 16.461 10.071,16.568 10.152,17.766 11.352 C 18.808 12.395,18.876 12.473,18.936 12.677 C 19.016 12.947,19.016 13.052,18.939 13.310 C 18.825 13.695,18.346 14.040,17.926 14.040 C 17.676 14.040,17.392 13.932,17.181 13.757 C 16.880 13.508,16.709 13.434,16.425 13.433 C 16.138 13.431,15.953 13.499,15.745 13.681 C 15.305 14.068,15.297 14.653,15.726 15.142 C 16.006 15.462,16.095 15.673,16.093 16.005 C 16.090 16.578,15.670 17.038,15.087 17.107 C 14.789 17.142,14.503 17.040,14.220 16.799 C 13.875 16.504,13.722 16.435,13.418 16.435 C 12.943 16.435,12.587 16.699,12.456 17.148 C 12.373 17.431,12.420 17.733,12.581 17.957 C 12.638 18.036,12.745 18.186,12.819 18.290 C 13.460 19.192,12.490 20.385,11.534 19.871 C 11.308 19.750,5.428 14.043,4.846 13.380 C 3.642 12.008,3.164 11.095,3.032 9.913 C 2.801 7.840,4.159 5.817,6.198 5.198 C 6.872 4.993,7.657 4.958,8.394 5.100 M17.182 5.059 C 19.199 5.386,20.716 6.956,20.964 8.973 C 21.057 9.722,20.920 10.623,20.619 11.246 L 20.549 11.393 20.389 11.186 C 20.087 10.794,18.036 8.786,17.735 8.588 C 16.589 7.834,15.228 7.811,14.007 8.527 C 13.859 8.614,13.393 9.041,12.660 9.763 C 11.687 10.721,11.514 10.875,11.343 10.933 C 11.234 10.970,11.080 11.000,11.000 11.000 C 10.590 11.000,10.175 10.695,10.061 10.310 C 9.984 10.052,9.985 9.947,10.063 9.682 C 10.135 9.440,10.087 9.491,12.280 7.342 C 13.017 6.620,13.746 5.940,13.900 5.831 C 14.841 5.165,16.063 4.877,17.182 5.059 " stroke="none" fill-rule="evenodd" fill="#000000"></path></svg>