<svg  xmlns="http://www.w3.org/2000/svg" width="24" height="24" viewBox="0 0 24 24" fill="none" stroke="currentColor" stroke-width="2" stroke-linecap="round" stroke-linejoin="round"><path d="M2.695 2.057 C 2.466 2.129,2.256 2.299,2.128 2.516 L 2.020 2.700 2.020 11.120 L 2.020 19.540 2.114 19.840 C 2.418 20.816,3.149 21.554,4.140 21.886 L 4.420 21.980 12.773 21.991 C 18.322 21.998,21.177 21.988,21.277 21.961 C 21.498 21.901,21.739 21.710,21.867 21.492 C 21.964 21.327,21.980 21.257,21.980 21.000 C 21.980 20.746,21.963 20.672,21.872 20.516 C 21.761 20.328,21.572 20.158,21.373 20.070 C 21.284 20.031,19.486 20.016,12.980 20.000 L 4.700 19.980 4.516 19.872 C 4.328 19.761,4.158 19.572,4.070 19.373 C 4.031 19.284,4.016 17.486,4.000 10.980 L 3.980 2.700 3.872 2.516 C 3.628 2.101,3.150 1.915,2.695 2.057 M7.477 4.073 C 6.806 4.249,6.238 4.823,6.060 5.508 C 6.013 5.687,6.000 6.009,6.000 7.000 C 6.000 8.368,6.018 8.521,6.225 8.930 C 6.361 9.199,6.801 9.639,7.070 9.775 C 7.534 10.010,7.267 10.000,13.000 10.000 C 18.733 10.000,18.466 10.010,18.930 9.775 C 19.196 9.640,19.638 9.200,19.771 8.937 C 19.979 8.527,20.000 8.352,19.999 7.014 C 19.999 5.682,19.974 5.463,19.781 5.083 C 19.646 4.816,19.297 4.449,19.017 4.281 C 18.533 3.989,18.867 4.005,13.000 4.005 C 8.157 4.005,7.719 4.010,7.477 4.073 M18.000 7.000 L 18.000 8.000 13.000 8.000 L 8.000 8.000 8.000 7.000 L 8.000 6.000 13.000 6.000 L 18.000 6.000 18.000 7.000 M7.477 12.073 C 6.806 12.249,6.238 12.823,6.060 13.508 C 6.013 13.687,6.000 14.009,6.000 15.000 C 6.000 16.368,6.018 16.521,6.225 16.930 C 6.361 17.199,6.801 17.639,7.070 17.775 C 7.526 18.006,7.408 18.000,11.493 18.000 C 15.587 18.000,15.474 18.006,15.937 17.771 C 16.197 17.639,16.639 17.197,16.771 16.937 C 16.979 16.527,17.000 16.352,16.999 15.014 C 16.999 13.682,16.974 13.463,16.781 13.083 C 16.646 12.816,16.297 12.449,16.017 12.281 C 15.543 11.995,15.693 12.005,11.500 12.005 C 8.075 12.005,7.717 12.011,7.477 12.073 M15.000 15.000 L 15.000 16.000 11.500 16.000 L 8.000 16.000 8.000 15.000 L 8.000 14.000 11.500 14.000 L 15.000 14.000 15.000 15.000 " stroke="none" fill-rule="evenodd" fill="#000000"></path></svg>