<svg  xmlns="http://www.w3.org/2000/svg" width="24" height="24" viewBox="0 0 24 24" fill="none" stroke="currentColor" stroke-width="2" stroke-linecap="round" stroke-linejoin="round"><path d="M9.695 1.057 C 9.466 1.129,9.256 1.299,9.128 1.516 L 9.020 1.700 9.009 4.637 L 8.998 7.574 7.769 6.353 C 6.688 5.279,6.516 5.124,6.343 5.066 C 5.863 4.905,5.382 5.084,5.128 5.516 C 5.036 5.672,5.020 5.745,5.021 6.000 C 5.021 6.212,5.043 6.341,5.095 6.440 C 5.135 6.517,6.116 7.531,7.274 8.694 C 9.567 10.996,9.571 10.999,10.000 10.999 C 10.429 10.999,10.433 10.996,12.726 8.694 C 13.884 7.531,14.865 6.517,14.905 6.440 C 14.957 6.341,14.979 6.212,14.979 6.000 C 14.980 5.745,14.964 5.672,14.872 5.516 C 14.618 5.084,14.137 4.905,13.657 5.066 C 13.484 5.124,13.312 5.279,12.231 6.353 L 11.002 7.574 10.991 4.637 L 10.980 1.700 10.872 1.516 C 10.628 1.101,10.150 0.915,9.695 1.057 M18.980 8.044 C 18.204 8.156,17.491 8.534,16.948 9.120 C 16.615 9.480,16.507 9.697,16.509 10.000 C 16.515 10.582,17.016 11.047,17.575 10.989 C 17.871 10.958,18.056 10.852,18.360 10.537 C 18.539 10.352,18.701 10.229,18.880 10.144 C 19.114 10.033,19.177 10.020,19.500 10.023 C 19.813 10.026,19.894 10.042,20.120 10.147 C 20.442 10.297,20.686 10.541,20.852 10.879 C 20.968 11.114,20.980 11.172,20.979 11.503 C 20.978 11.830,20.965 11.893,20.849 12.128 C 20.694 12.442,20.407 12.724,20.089 12.873 L 19.860 12.980 10.800 13.000 C 3.669 13.016,1.716 13.031,1.627 13.070 C 1.428 13.158,1.239 13.328,1.128 13.516 C 1.037 13.672,1.020 13.746,1.020 14.000 C 1.020 14.257,1.036 14.327,1.133 14.492 C 1.261 14.710,1.502 14.901,1.723 14.961 C 1.823 14.988,4.931 14.998,10.986 14.990 C 19.723 14.980,20.111 14.976,20.360 14.905 C 21.889 14.469,22.914 13.200,22.989 11.652 C 23.012 11.174,22.975 10.884,22.832 10.440 C 22.308 8.808,20.684 7.799,18.980 8.044 M1.695 17.057 C 1.465 17.129,1.256 17.299,1.128 17.516 C 1.037 17.672,1.020 17.746,1.020 18.000 C 1.020 18.256,1.036 18.328,1.131 18.489 C 1.256 18.702,1.449 18.864,1.670 18.943 C 1.793 18.987,2.939 18.997,7.983 18.998 C 14.904 19.000,14.379 18.977,14.701 19.299 C 15.168 19.766,15.065 20.530,14.489 20.869 C 14.328 20.964,14.256 20.980,13.999 20.980 C 13.713 20.980,13.683 20.971,13.400 20.800 C 13.116 20.628,13.088 20.620,12.800 20.621 C 12.544 20.622,12.469 20.639,12.310 20.732 C 11.822 21.018,11.658 21.645,11.949 22.115 C 12.162 22.460,12.780 22.807,13.408 22.937 C 14.919 23.247,16.431 22.338,16.861 20.860 C 17.340 19.213,16.446 17.606,14.764 17.091 C 14.557 17.027,14.063 17.022,8.200 17.013 C 3.080 17.006,1.828 17.015,1.695 17.057 " stroke="none" fill-rule="evenodd" fill="#000000"></path></svg>