<svg  xmlns="http://www.w3.org/2000/svg" width="24" height="24" viewBox="0 0 24 24" fill="none" stroke="currentColor" stroke-width="2" stroke-linecap="round" stroke-linejoin="round"><path d="M11.380 1.023 C 8.919 1.204,6.815 2.032,4.980 3.541 C 2.560 5.532,1.040 8.667,1.023 11.703 L 1.020 12.306 1.141 12.503 C 1.540 13.152,2.457 13.156,2.853 12.512 C 2.963 12.334,2.972 12.284,3.023 11.581 C 3.099 10.514,3.214 9.901,3.487 9.100 C 5.010 4.633,9.712 2.115,14.300 3.308 C 16.125 3.783,17.765 4.849,19.014 6.373 C 19.378 6.817,19.575 6.955,19.888 6.987 C 20.615 7.062,21.172 6.379,20.944 5.694 C 20.803 5.268,19.576 3.948,18.715 3.296 C 17.102 2.075,15.388 1.367,13.392 1.100 C 12.960 1.042,11.751 0.996,11.380 1.023 M11.200 5.044 C 10.412 5.134,9.607 5.376,8.864 5.747 C 8.352 6.004,8.160 6.179,8.059 6.483 C 7.878 7.029,8.183 7.604,8.738 7.759 C 9.018 7.838,9.235 7.792,9.730 7.550 C 10.286 7.277,10.703 7.144,11.249 7.063 C 12.798 6.832,14.314 7.309,15.436 8.379 C 16.181 9.090,16.677 9.982,16.904 11.020 C 16.960 11.278,16.978 11.625,16.997 12.823 L 17.020 14.307 17.141 14.503 C 17.543 15.156,18.457 15.156,18.859 14.503 L 18.980 14.306 18.979 12.723 C 18.977 11.156,18.976 11.135,18.869 10.633 C 18.664 9.673,18.245 8.708,17.690 7.920 C 17.349 7.436,16.571 6.658,16.080 6.311 C 15.603 5.974,14.823 5.570,14.296 5.387 C 13.336 5.054,12.213 4.930,11.200 5.044 M6.080 9.037 C 5.686 9.157,5.482 9.394,5.327 9.907 C 5.089 10.698,5.002 11.261,5.000 12.020 C 4.996 14.261,4.655 17.020,4.162 18.807 C 3.975 19.486,3.966 19.627,4.095 19.900 C 4.276 20.281,4.602 20.493,5.000 20.489 C 5.372 20.485,5.720 20.275,5.883 19.953 C 6.213 19.306,6.700 16.741,6.876 14.720 C 6.955 13.808,6.965 13.643,7.000 12.480 C 7.037 11.252,7.055 11.123,7.300 10.240 C 7.497 9.530,6.781 8.824,6.080 9.037 M11.499 9.043 C 10.391 9.229,9.461 10.049,9.121 11.140 C 9.048 11.373,9.027 11.574,8.998 12.340 C 8.956 13.432,8.901 14.269,8.802 15.294 C 8.712 16.232,8.735 16.368,9.035 16.694 C 9.281 16.961,9.731 17.068,10.066 16.940 C 10.306 16.848,10.553 16.624,10.647 16.414 C 10.765 16.147,10.944 14.199,10.984 12.741 C 11.011 11.743,11.049 11.562,11.283 11.322 C 11.484 11.114,11.636 11.049,12.028 10.999 C 12.392 10.953,12.631 10.827,12.802 10.591 C 13.207 10.032,12.947 9.253,12.290 9.055 C 12.090 8.995,11.811 8.991,11.499 9.043 M21.464 9.063 C 21.236 9.146,21.057 9.297,20.932 9.510 C 20.801 9.734,20.797 9.831,20.876 11.040 C 20.938 11.987,20.917 14.528,20.838 15.500 C 20.784 16.179,20.805 16.324,20.998 16.591 C 21.063 16.681,21.203 16.805,21.308 16.867 C 21.473 16.964,21.543 16.980,21.800 16.980 C 22.056 16.980,22.128 16.964,22.289 16.869 C 22.846 16.542,22.900 16.180,22.899 12.840 C 22.899 10.007,22.858 9.650,22.495 9.297 C 22.213 9.023,21.817 8.933,21.464 9.063 M13.695 12.177 C 13.466 12.249,13.256 12.419,13.128 12.636 C 13.025 12.811,13.020 12.849,13.010 13.420 C 12.939 17.733,12.747 19.588,12.199 21.258 C 12.090 21.592,12.000 21.929,12.000 22.006 C 12.000 22.528,12.475 23.000,13.002 23.000 C 13.319 23.000,13.677 22.803,13.840 22.540 C 13.972 22.326,14.256 21.442,14.415 20.752 C 14.801 19.075,14.966 17.216,14.975 14.460 L 14.980 12.820 14.872 12.636 C 14.628 12.221,14.150 12.035,13.695 12.177 M1.695 15.055 C 1.464 15.130,1.255 15.300,1.128 15.516 C 1.037 15.672,1.020 15.746,1.020 16.000 C 1.020 16.257,1.036 16.327,1.133 16.492 C 1.651 17.374,2.998 17.018,2.998 16.000 C 2.998 15.623,2.792 15.281,2.463 15.112 C 2.265 15.010,1.911 14.984,1.695 15.055 M17.470 17.057 C 17.287 17.122,17.072 17.282,16.968 17.430 C 16.855 17.592,16.810 17.764,16.739 18.317 C 16.683 18.753,16.591 19.299,16.333 20.710 C 16.269 21.061,16.269 21.092,16.336 21.303 C 16.517 21.877,17.146 22.169,17.685 21.931 C 17.880 21.844,18.091 21.652,18.181 21.478 C 18.342 21.167,18.838 18.155,18.780 17.844 C 18.668 17.248,18.023 16.860,17.470 17.057 M8.960 19.035 C 8.701 19.120,8.434 19.334,8.329 19.540 C 8.306 19.584,8.232 19.845,8.164 20.120 C 8.096 20.395,7.949 20.908,7.837 21.260 C 7.612 21.966,7.601 22.129,7.757 22.435 C 8.063 23.034,8.793 23.178,9.312 22.741 C 9.487 22.593,9.557 22.447,9.777 21.761 C 10.037 20.954,10.207 20.260,10.209 20.000 C 10.213 19.622,10.009 19.290,9.663 19.112 C 9.491 19.024,9.119 18.983,8.960 19.035 " stroke="none" fill-rule="evenodd" fill="#000000"></path></svg>