<svg  xmlns="http://www.w3.org/2000/svg" width="24" height="24" viewBox="0 0 24 24" fill="none" stroke="currentColor" stroke-width="2" stroke-linecap="round" stroke-linejoin="round"><path d="M4.499 2.043 C 3.380 2.232,2.461 3.048,2.114 4.160 C 2.021 4.457,2.020 4.478,2.020 6.383 L 2.020 8.306 2.141 8.503 C 2.543 9.156,3.457 9.156,3.859 8.503 L 3.980 8.306 4.000 6.523 C 4.022 4.523,4.014 4.582,4.321 4.283 C 4.635 3.979,4.062 4.000,12.000 4.000 C 19.991 4.000,19.369 3.976,19.697 4.303 C 20.024 4.631,20.000 4.009,20.000 12.001 C 20.000 17.907,19.991 19.138,19.945 19.290 C 19.872 19.533,19.707 19.740,19.484 19.872 L 19.300 19.980 12.000 19.980 L 4.700 19.980 4.516 19.872 C 4.328 19.761,4.158 19.572,4.070 19.373 C 4.034 19.291,4.015 18.778,4.000 17.480 L 3.980 15.700 3.871 15.514 C 3.479 14.848,2.521 14.848,2.129 15.514 L 2.020 15.700 2.020 17.620 C 2.020 19.521,2.021 19.543,2.114 19.840 C 2.422 20.827,3.173 21.578,4.160 21.886 L 4.460 21.980 12.000 21.980 L 19.540 21.980 19.840 21.886 C 20.827 21.578,21.578 20.827,21.886 19.840 L 21.980 19.540 21.980 12.000 L 21.980 4.460 21.886 4.160 C 21.581 3.182,20.832 2.428,19.861 2.121 L 19.540 2.020 12.120 2.014 C 8.039 2.011,4.609 2.024,4.499 2.043 M9.670 7.061 C 9.448 7.142,9.250 7.309,9.128 7.516 C 9.036 7.672,9.020 7.745,9.021 8.000 C 9.021 8.213,9.043 8.341,9.095 8.440 C 9.136 8.517,9.711 9.125,10.374 9.790 L 11.578 11.000 7.235 11.000 C 2.521 11.000,2.682 10.993,2.382 11.221 C 2.302 11.282,2.187 11.415,2.128 11.516 C 2.037 11.672,2.020 11.746,2.020 12.000 C 2.020 12.256,2.036 12.328,2.131 12.489 C 2.256 12.702,2.449 12.864,2.670 12.943 C 2.792 12.986,3.645 12.997,7.199 12.998 L 11.578 13.000 10.374 14.210 C 9.711 14.876,9.138 15.481,9.101 15.555 C 8.872 16.009,9.056 16.601,9.508 16.867 C 9.673 16.964,9.742 16.980,10.000 16.979 C 10.212 16.979,10.341 16.957,10.440 16.905 C 10.517 16.865,11.531 15.884,12.694 14.726 C 14.996 12.433,14.999 12.429,14.999 12.000 C 14.999 11.569,14.999 11.569,12.674 9.255 C 10.750 7.340,10.521 7.124,10.343 7.065 C 10.107 6.987,9.874 6.986,9.670 7.061 " stroke="none" fill-rule="evenodd" fill="#000000"></path></svg>