<svg  xmlns="http://www.w3.org/2000/svg" width="24" height="24" viewBox="0 0 24 24" fill="none" stroke="currentColor" stroke-width="2" stroke-linecap="round" stroke-linejoin="round"><path d="M11.660 1.035 C 11.406 1.102,11.155 1.242,10.954 1.427 C 10.758 1.609,10.675 1.765,9.510 4.120 C 8.829 5.495,8.228 6.679,8.173 6.752 C 8.022 6.951,7.801 7.069,7.454 7.138 C 7.281 7.172,6.026 7.362,4.664 7.560 C 3.303 7.758,2.123 7.940,2.043 7.964 C 1.963 7.988,1.800 8.073,1.680 8.154 C 0.880 8.691,0.779 9.789,1.463 10.506 C 1.571 10.620,2.407 11.436,3.320 12.320 C 4.233 13.204,5.068 14.020,5.175 14.133 C 5.430 14.404,5.518 14.600,5.519 14.897 C 5.520 15.028,5.322 16.297,5.080 17.717 C 4.838 19.138,4.631 20.355,4.620 20.421 C 4.591 20.595,4.671 20.985,4.785 21.227 C 4.916 21.505,5.289 21.847,5.589 21.964 C 5.761 22.031,5.907 22.055,6.160 22.057 C 6.576 22.060,6.424 22.129,9.042 20.751 C 11.889 19.252,11.590 19.392,12.027 19.356 C 12.588 19.308,12.887 19.121,13.059 18.709 C 13.138 18.521,13.137 18.159,13.058 17.969 C 12.976 17.773,12.739 17.529,12.540 17.436 C 12.308 17.328,11.685 17.332,11.238 17.445 C 10.842 17.545,10.924 17.505,8.628 18.709 C 7.643 19.227,6.826 19.639,6.813 19.626 C 6.800 19.614,6.955 18.635,7.158 17.452 C 7.459 15.688,7.525 15.229,7.523 14.906 C 7.518 14.205,7.284 13.539,6.860 13.019 C 6.788 12.930,6.021 12.165,5.155 11.319 C 4.289 10.472,3.575 9.771,3.570 9.760 C 3.564 9.749,4.410 9.616,5.450 9.466 C 6.489 9.315,7.493 9.166,7.680 9.135 C 8.548 8.990,9.161 8.659,9.693 8.048 C 9.897 7.814,10.057 7.516,10.952 5.710 C 11.517 4.572,11.988 3.640,12.000 3.640 C 12.012 3.640,12.484 4.571,13.048 5.710 C 13.959 7.550,14.099 7.810,14.312 8.052 C 14.782 8.586,15.369 8.938,16.024 9.076 C 16.220 9.118,17.289 9.283,18.400 9.443 C 19.511 9.603,20.425 9.738,20.431 9.742 C 20.437 9.746,20.172 10.015,19.841 10.341 C 19.160 11.013,19.080 11.138,19.081 11.523 C 19.082 11.850,19.173 12.054,19.412 12.265 C 19.779 12.588,20.295 12.610,20.663 12.318 C 20.747 12.251,21.245 11.774,21.770 11.257 C 22.604 10.437,22.740 10.286,22.845 10.063 C 23.131 9.450,22.984 8.710,22.488 8.275 C 22.141 7.970,22.087 7.958,19.220 7.540 C 17.768 7.329,16.499 7.135,16.400 7.111 C 16.170 7.054,15.953 6.919,15.827 6.752 C 15.772 6.679,15.171 5.495,14.490 4.120 C 13.326 1.765,13.242 1.609,13.046 1.427 C 12.761 1.164,12.458 1.035,12.080 1.017 C 11.915 1.009,11.726 1.017,11.660 1.035 M15.044 14.625 C 14.540 14.876,14.346 15.567,14.651 16.020 C 14.695 16.086,15.147 16.558,15.655 17.070 L 16.579 18.000 15.655 18.930 C 15.147 19.442,14.695 19.914,14.651 19.980 C 14.373 20.392,14.510 21.024,14.940 21.320 C 15.238 21.525,15.740 21.540,16.017 21.352 C 16.085 21.306,16.558 20.853,17.070 20.345 L 18.000 19.421 18.930 20.345 C 19.442 20.853,19.915 21.306,19.981 21.351 C 20.384 21.624,21.047 21.475,21.330 21.048 C 21.525 20.753,21.536 20.254,21.352 19.983 C 21.306 19.915,20.853 19.442,20.345 18.930 L 19.421 18.000 20.345 17.070 C 20.853 16.558,21.306 16.085,21.351 16.019 C 21.468 15.846,21.514 15.545,21.462 15.291 C 21.369 14.831,20.980 14.519,20.502 14.521 C 20.089 14.522,19.997 14.588,18.950 15.631 L 18.000 16.578 17.050 15.631 C 16.371 14.954,16.049 14.661,15.920 14.603 C 15.654 14.483,15.313 14.492,15.044 14.625 " stroke="none" fill-rule="evenodd" fill="#000000"></path></svg>