<svg  xmlns="http://www.w3.org/2000/svg" width="24" height="24" viewBox="0 0 24 24" fill="none" stroke="currentColor" stroke-width="2" stroke-linecap="round" stroke-linejoin="round"><path d="M5.873 2.062 C 4.792 2.259,3.865 2.957,3.366 3.948 C 3.138 4.399,3.035 4.837,3.011 5.450 L 2.989 6.000 2.441 6.000 C 1.649 6.000,1.366 6.111,1.128 6.516 C 1.037 6.672,1.020 6.746,1.020 7.000 C 1.020 7.256,1.036 7.328,1.131 7.489 C 1.256 7.702,1.449 7.864,1.670 7.943 C 1.768 7.978,2.023 7.997,2.410 7.998 L 3.000 8.000 3.000 12.632 C 3.000 17.674,2.991 17.469,3.225 17.930 C 3.361 18.199,3.801 18.639,4.070 18.775 C 4.493 18.990,4.601 19.000,6.368 19.000 L 8.000 19.000 8.000 19.632 C 8.000 20.321,8.044 20.572,8.225 20.930 C 8.361 21.199,8.801 21.639,9.070 21.775 C 9.532 22.009,9.314 22.000,14.500 22.000 C 19.686 22.000,19.468 22.009,19.930 21.775 C 20.196 21.640,20.638 21.200,20.771 20.937 C 21.012 20.462,21.000 20.819,21.000 14.124 L 21.000 8.000 21.590 7.998 C 21.977 7.997,22.232 7.978,22.330 7.943 C 22.551 7.864,22.744 7.702,22.869 7.489 C 22.964 7.328,22.980 7.256,22.980 7.000 C 22.980 6.746,22.963 6.672,22.872 6.516 C 22.633 6.110,22.352 6.000,21.554 6.000 L 21.000 6.000 21.000 5.610 C 21.000 5.395,20.981 5.107,20.959 4.969 C 20.736 3.597,19.743 2.498,18.378 2.111 L 18.060 2.020 12.120 2.013 C 7.182 2.007,6.128 2.016,5.873 2.062 M7.119 4.143 C 7.417 4.279,7.728 4.592,7.862 4.892 C 7.951 5.090,7.974 5.210,7.991 5.566 L 8.011 6.000 6.500 6.000 L 4.989 6.000 5.009 5.565 C 5.026 5.206,5.049 5.088,5.137 4.895 C 5.326 4.479,5.751 4.129,6.174 4.039 C 6.441 3.982,6.870 4.030,7.119 4.143 M18.100 4.132 C 18.415 4.279,18.724 4.587,18.867 4.896 L 18.980 5.140 18.991 12.570 L 19.001 20.000 14.501 20.000 L 10.000 20.000 10.000 12.610 C 9.999 7.759,9.985 5.133,9.958 4.968 C 9.923 4.746,9.788 4.279,9.700 4.069 C 9.672 4.001,9.855 3.998,13.765 4.009 L 17.860 4.020 18.100 4.132 M8.000 12.500 L 8.000 17.000 6.500 17.000 L 5.000 17.000 5.000 12.500 L 5.000 8.000 6.500 8.000 L 8.000 8.000 8.000 12.500 " stroke="none" fill-rule="evenodd" fill="#000000"></path></svg>