<svg  xmlns="http://www.w3.org/2000/svg" width="24" height="24" viewBox="0 0 24 24" fill="none" stroke="currentColor" stroke-width="2" stroke-linecap="round" stroke-linejoin="round"><path d="M2.695 3.057 C 2.466 3.129,2.256 3.299,2.128 3.516 L 2.020 3.700 2.020 12.003 L 2.020 20.306 2.141 20.503 C 2.543 21.156,3.457 21.156,3.859 20.503 L 3.980 20.306 3.980 12.003 L 3.980 3.700 3.872 3.516 C 3.628 3.101,3.150 2.915,2.695 3.057 M8.460 3.057 C 7.356 3.275,6.508 4.017,6.150 5.077 L 6.020 5.460 6.020 11.980 L 6.020 18.500 6.114 18.800 C 6.471 19.944,7.295 20.700,8.454 20.947 C 9.035 21.071,9.886 20.940,10.400 20.649 C 10.849 20.394,20.484 14.610,20.680 14.478 C 21.657 13.819,22.180 12.558,21.942 11.434 C 21.775 10.643,21.323 9.959,20.680 9.523 C 20.240 9.224,10.553 3.433,10.271 3.300 C 10.111 3.224,9.872 3.135,9.740 3.101 C 9.392 3.011,8.794 2.991,8.460 3.057 M9.284 5.046 C 9.439 5.098,19.422 11.072,19.647 11.247 C 20.064 11.573,20.103 12.297,19.724 12.676 C 19.552 12.848,9.590 18.845,9.316 18.941 C 8.960 19.067,8.582 18.975,8.303 18.697 C 7.976 18.369,8.000 18.905,8.000 12.000 C 8.000 5.249,7.985 5.662,8.240 5.353 C 8.469 5.074,8.949 4.933,9.284 5.046 " stroke="none" fill-rule="evenodd" fill="#000000"></path></svg>