<svg  xmlns="http://www.w3.org/2000/svg" width="24" height="24" viewBox="0 0 24 24" fill="none" stroke="currentColor" stroke-width="2" stroke-linecap="round" stroke-linejoin="round"><path d="M5.477 2.073 C 4.806 2.249,4.238 2.823,4.060 3.508 C 4.008 3.707,4.000 4.805,4.000 12.000 C 4.000 21.017,3.986 20.458,4.225 20.930 C 4.361 21.199,4.801 21.639,5.070 21.775 C 5.497 21.991,5.589 22.000,7.500 22.000 C 9.411 22.000,9.503 21.991,9.930 21.775 C 10.196 21.640,10.638 21.200,10.771 20.937 C 11.015 20.457,11.000 21.028,10.999 12.014 C 10.999 3.065,11.010 3.534,10.781 3.083 C 10.646 2.816,10.297 2.449,10.017 2.281 C 9.578 2.016,9.470 2.005,7.500 2.005 C 5.965 2.005,5.706 2.013,5.477 2.073 M14.477 2.073 C 13.806 2.249,13.238 2.823,13.060 3.508 C 13.008 3.707,13.000 4.805,13.000 12.000 C 13.000 21.017,12.986 20.458,13.225 20.930 C 13.361 21.199,13.801 21.639,14.070 21.775 C 14.497 21.991,14.589 22.000,16.500 22.000 C 18.411 22.000,18.503 21.991,18.930 21.775 C 19.196 21.640,19.638 21.200,19.771 20.937 C 20.015 20.457,20.000 21.028,19.999 12.014 C 19.999 3.065,20.010 3.534,19.781 3.083 C 19.646 2.816,19.297 2.449,19.017 2.281 C 18.578 2.016,18.470 2.005,16.500 2.005 C 14.965 2.005,14.706 2.013,14.477 2.073 M9.000 12.000 L 9.000 20.000 7.500 20.000 L 6.000 20.000 6.000 12.000 L 6.000 4.000 7.500 4.000 L 9.000 4.000 9.000 12.000 M18.000 12.000 L 18.000 20.000 16.500 20.000 L 15.000 20.000 15.000 12.000 L 15.000 4.000 16.500 4.000 L 18.000 4.000 18.000 12.000 " stroke="none" fill="#000000" fill-rule="evenodd"></path></svg>