<svg  xmlns="http://www.w3.org/2000/svg" width="24" height="24" viewBox="0 0 24 24" fill="none" stroke="currentColor" stroke-width="2" stroke-linecap="round" stroke-linejoin="round"><path d="M11.695 1.057 C 11.051 1.258,10.799 2.040,11.198 2.591 C 11.263 2.681,11.399 2.803,11.500 2.862 C 11.670 2.962,11.740 2.973,12.479 3.025 C 13.837 3.119,14.842 3.379,15.940 3.918 C 17.769 4.816,19.169 6.210,20.060 8.020 C 20.641 9.201,20.935 10.334,20.987 11.600 C 21.081 13.873,20.313 16.118,18.858 17.820 C 18.689 18.018,18.515 18.259,18.471 18.355 C 18.362 18.596,18.366 18.944,18.480 19.179 C 18.656 19.543,19.100 19.796,19.473 19.744 C 19.805 19.699,19.982 19.578,20.353 19.145 C 21.792 17.464,22.601 15.632,22.925 13.320 C 23.009 12.726,22.997 11.058,22.904 10.460 C 22.538 8.084,21.445 5.889,19.820 4.270 C 17.888 2.343,15.460 1.226,12.800 1.041 C 12.069 0.990,11.900 0.993,11.695 1.057 M5.087 3.486 C 4.826 3.615,3.868 4.558,3.743 4.810 C 3.330 5.638,4.223 6.534,5.064 6.136 C 5.143 6.098,5.482 5.796,5.817 5.464 C 6.307 4.978,6.435 4.828,6.473 4.695 C 6.531 4.491,6.533 4.267,6.477 4.066 C 6.423 3.872,6.149 3.570,5.940 3.475 C 5.711 3.370,5.310 3.375,5.087 3.486 M11.580 7.096 C 11.422 7.172,10.940 7.634,9.274 9.306 C 8.116 10.469,7.138 11.481,7.101 11.555 C 6.872 12.010,7.056 12.601,7.508 12.867 C 7.673 12.964,7.742 12.980,8.000 12.979 C 8.213 12.979,8.341 12.957,8.440 12.905 C 8.517 12.864,9.124 12.290,9.789 11.628 L 10.998 10.424 11.009 13.365 L 11.020 16.306 11.141 16.503 C 11.543 17.156,12.457 17.156,12.859 16.503 L 12.980 16.306 12.991 13.365 L 13.002 10.424 14.211 11.628 C 14.876 12.290,15.483 12.864,15.560 12.905 C 15.659 12.957,15.787 12.979,16.000 12.979 C 16.258 12.980,16.327 12.964,16.492 12.867 C 16.714 12.737,16.901 12.498,16.965 12.264 C 17.019 12.061,16.989 11.733,16.899 11.555 C 16.862 11.481,15.884 10.469,14.726 9.306 C 12.433 7.004,12.429 7.001,12.000 7.001 C 11.851 7.001,11.716 7.031,11.580 7.096 M2.169 7.930 C 2.012 7.980,1.699 8.246,1.623 8.395 C 1.544 8.548,1.333 9.290,1.238 9.747 C 1.097 10.432,1.032 11.002,1.026 11.600 C 1.019 12.255,1.040 12.323,1.324 12.599 C 1.713 12.977,2.307 12.967,2.699 12.574 C 2.928 12.345,2.985 12.147,3.038 11.396 C 3.097 10.570,3.153 10.266,3.441 9.200 C 3.558 8.765,3.482 8.449,3.193 8.172 C 2.923 7.913,2.519 7.818,2.169 7.930 M2.463 15.081 C 2.054 15.240,1.819 15.617,1.848 16.067 C 1.862 16.286,1.905 16.403,2.169 16.930 C 2.703 17.998,3.378 18.936,4.215 19.773 C 4.510 20.068,4.716 20.239,4.855 20.304 C 5.226 20.476,5.605 20.415,5.920 20.133 C 6.142 19.933,6.246 19.707,6.249 19.417 C 6.252 19.055,6.186 18.941,5.660 18.396 C 4.856 17.565,4.413 16.943,3.907 15.935 C 3.611 15.344,3.522 15.234,3.230 15.099 C 2.976 14.980,2.735 14.975,2.463 15.081 M15.760 20.186 C 13.556 21.120,11.474 21.246,9.297 20.576 C 8.627 20.370,8.309 20.397,7.979 20.686 C 7.752 20.886,7.662 21.093,7.662 21.420 C 7.662 21.955,7.917 22.238,8.598 22.457 C 10.937 23.212,13.442 23.173,15.720 22.346 C 16.810 21.951,17.084 21.766,17.219 21.337 C 17.380 20.827,17.115 20.289,16.615 20.110 C 16.328 20.007,16.144 20.023,15.760 20.186 " stroke="none" fill-rule="evenodd" fill="#000000"></path></svg>