<svg  xmlns="http://www.w3.org/2000/svg" width="24" height="24" viewBox="0 0 24 24" fill="none" stroke="currentColor" stroke-width="2" stroke-linecap="round" stroke-linejoin="round"><path d="M3.477 2.073 C 2.806 2.249,2.238 2.823,2.060 3.508 C 2.010 3.700,2.000 4.180,2.000 6.500 C 2.000 9.501,1.999 9.484,2.225 9.930 C 2.361 10.199,2.801 10.639,3.070 10.775 C 3.516 11.001,3.499 11.000,6.500 11.000 C 9.501 11.000,9.484 11.001,9.930 10.775 C 10.196 10.640,10.638 10.200,10.771 9.937 C 11.000 9.485,11.000 9.489,10.999 6.514 C 10.999 3.558,10.995 3.505,10.781 3.083 C 10.646 2.816,10.297 2.449,10.017 2.281 C 9.555 2.003,9.580 2.005,6.500 2.005 C 4.020 2.005,3.713 2.012,3.477 2.073 M13.695 2.057 C 13.466 2.129,13.256 2.299,13.128 2.516 C 13.036 2.672,13.020 2.746,13.020 3.003 C 13.020 3.271,13.034 3.329,13.141 3.503 C 13.288 3.742,13.578 3.946,13.821 3.982 L 14.000 4.009 14.000 6.498 L 14.000 8.987 13.786 9.035 C 12.903 9.233,12.721 10.405,13.501 10.863 C 13.850 11.067,14.423 11.032,14.929 10.775 C 15.196 10.640,15.638 10.200,15.771 9.937 C 16.000 9.485,16.000 9.489,15.999 6.514 C 15.999 3.558,15.995 3.505,15.781 3.083 C 15.646 2.816,15.297 2.449,15.017 2.281 C 14.610 2.036,14.060 1.943,13.695 2.057 M18.695 2.057 C 18.466 2.129,18.256 2.299,18.128 2.516 C 18.036 2.672,18.020 2.746,18.020 3.003 C 18.020 3.271,18.034 3.329,18.141 3.503 C 18.288 3.742,18.578 3.946,18.821 3.982 L 19.000 4.009 19.000 6.498 L 19.000 8.987 18.786 9.035 C 17.903 9.233,17.721 10.405,18.501 10.863 C 18.850 11.067,19.423 11.032,19.929 10.775 C 20.196 10.640,20.638 10.200,20.771 9.937 C 21.000 9.485,21.000 9.489,20.999 6.514 C 20.999 3.558,20.995 3.505,20.781 3.083 C 20.646 2.816,20.297 2.449,20.017 2.281 C 19.610 2.036,19.060 1.943,18.695 2.057 M9.000 6.500 L 9.000 9.000 6.500 9.000 L 4.000 9.000 4.000 6.500 L 4.000 4.000 6.500 4.000 L 9.000 4.000 9.000 6.500 M2.695 13.057 C 2.466 13.129,2.256 13.299,2.128 13.516 L 2.020 13.700 2.020 15.120 C 2.020 16.497,2.023 16.549,2.114 16.840 C 2.419 17.817,3.156 18.561,4.140 18.884 C 4.409 18.973,4.480 18.977,5.996 18.991 L 7.571 19.006 6.870 19.713 C 6.485 20.102,6.136 20.483,6.096 20.560 C 6.043 20.660,6.021 20.787,6.021 21.000 C 6.020 21.258,6.036 21.327,6.133 21.492 C 6.263 21.714,6.502 21.901,6.736 21.965 C 6.939 22.019,7.267 21.989,7.445 21.899 C 7.519 21.862,8.306 21.109,9.194 20.226 C 10.957 18.472,10.999 18.420,10.999 18.000 C 10.999 17.578,10.960 17.530,9.175 15.756 C 7.716 14.307,7.519 14.124,7.343 14.066 C 6.863 13.906,6.382 14.084,6.128 14.516 C 6.036 14.672,6.020 14.745,6.021 15.000 C 6.021 15.213,6.043 15.340,6.096 15.440 C 6.136 15.517,6.487 15.900,6.875 16.292 L 7.580 17.004 6.140 16.992 L 4.700 16.980 4.516 16.872 C 4.327 16.761,4.157 16.570,4.071 16.373 C 4.037 16.295,4.015 15.865,4.001 14.980 L 3.980 13.700 3.872 13.516 C 3.628 13.101,3.150 12.915,2.695 13.057 M14.477 13.073 C 13.806 13.249,13.238 13.823,13.060 14.508 C 13.010 14.700,13.000 15.180,13.000 17.500 C 13.000 20.501,12.999 20.484,13.225 20.930 C 13.361 21.199,13.801 21.639,14.070 21.775 C 14.516 22.001,14.499 22.000,17.500 22.000 C 20.501 22.000,20.484 22.001,20.930 21.775 C 21.196 21.640,21.638 21.200,21.771 20.937 C 22.000 20.485,22.000 20.489,21.999 17.514 C 21.999 14.558,21.995 14.505,21.781 14.083 C 21.646 13.816,21.297 13.449,21.017 13.281 C 20.555 13.003,20.580 13.005,17.500 13.005 C 15.020 13.005,14.713 13.012,14.477 13.073 M20.000 17.500 L 20.000 20.000 17.500 20.000 L 15.000 20.000 15.000 17.500 L 15.000 15.000 17.500 15.000 L 20.000 15.000 20.000 17.500 " stroke="none" fill-rule="evenodd" fill="#000000"></path></svg>