<svg  xmlns="http://www.w3.org/2000/svg" width="24" height="24" viewBox="0 0 24 24" fill="none" stroke="currentColor" stroke-width="2" stroke-linecap="round" stroke-linejoin="round"><path d="M11.660 1.035 C 11.406 1.102,11.155 1.242,10.954 1.427 C 10.758 1.609,10.675 1.765,9.510 4.120 C 8.829 5.495,8.228 6.679,8.173 6.752 C 8.022 6.951,7.801 7.069,7.454 7.138 C 7.281 7.172,6.026 7.362,4.664 7.560 C 3.303 7.758,2.123 7.940,2.043 7.964 C 1.963 7.988,1.800 8.073,1.680 8.154 C 0.880 8.691,0.779 9.789,1.463 10.506 C 1.571 10.620,2.407 11.436,3.320 12.320 C 4.233 13.204,5.068 14.020,5.175 14.133 C 5.430 14.404,5.518 14.600,5.519 14.897 C 5.520 15.028,5.322 16.297,5.080 17.717 C 4.838 19.138,4.631 20.355,4.620 20.421 C 4.591 20.595,4.671 20.985,4.785 21.227 C 4.916 21.505,5.289 21.847,5.589 21.964 C 5.761 22.031,5.907 22.055,6.160 22.057 C 6.479 22.060,6.521 22.050,6.840 21.896 C 7.565 21.546,11.625 19.390,11.714 19.307 C 12.197 18.858,12.115 18.045,11.555 17.725 C 11.314 17.587,11.075 17.543,10.847 17.594 C 10.756 17.614,9.817 18.085,8.759 18.640 C 7.701 19.195,6.826 19.639,6.813 19.626 C 6.800 19.613,6.955 18.635,7.158 17.452 C 7.459 15.688,7.525 15.229,7.523 14.906 C 7.518 14.205,7.284 13.539,6.860 13.019 C 6.788 12.930,6.021 12.165,5.155 11.319 C 4.289 10.472,3.575 9.771,3.570 9.760 C 3.564 9.749,4.410 9.616,5.450 9.466 C 6.489 9.315,7.493 9.166,7.680 9.135 C 8.548 8.990,9.161 8.659,9.693 8.048 C 9.897 7.814,10.057 7.516,10.952 5.710 C 11.517 4.572,11.988 3.640,12.000 3.640 C 12.012 3.640,12.484 4.571,13.048 5.710 C 13.959 7.550,14.099 7.810,14.312 8.052 C 14.782 8.586,15.369 8.938,16.024 9.076 C 16.220 9.118,17.289 9.283,18.400 9.443 C 19.511 9.603,20.424 9.737,20.430 9.740 C 20.435 9.743,20.084 10.095,19.650 10.522 C 17.384 12.750,17.022 13.127,16.868 13.426 C 16.679 13.791,16.648 14.003,16.741 14.297 C 16.860 14.677,17.202 14.952,17.600 14.991 C 17.991 15.029,18.339 14.836,18.588 14.444 C 18.693 14.279,19.327 13.635,20.644 12.353 C 21.692 11.334,22.597 10.443,22.655 10.374 C 22.949 10.024,23.068 9.458,22.942 9.018 C 22.810 8.557,22.535 8.236,22.102 8.037 C 21.887 7.937,21.562 7.881,19.220 7.540 C 17.768 7.329,16.499 7.135,16.400 7.111 C 16.170 7.054,15.953 6.919,15.827 6.752 C 15.772 6.679,15.171 5.495,14.490 4.120 C 13.326 1.765,13.242 1.609,13.046 1.427 C 12.761 1.164,12.458 1.035,12.080 1.017 C 11.915 1.009,11.726 1.017,11.660 1.035 M14.695 17.057 C 14.466 17.129,14.256 17.299,14.128 17.516 C 14.037 17.672,14.020 17.746,14.020 18.000 C 14.020 18.256,14.036 18.328,14.131 18.489 C 14.256 18.702,14.449 18.864,14.670 18.943 C 14.891 19.022,21.109 19.022,21.330 18.943 C 21.551 18.864,21.744 18.702,21.869 18.489 C 21.964 18.328,21.980 18.256,21.980 18.000 C 21.980 17.746,21.963 17.672,21.872 17.516 C 21.740 17.293,21.533 17.128,21.290 17.055 C 21.030 16.977,14.945 16.979,14.695 17.057 " stroke="none" fill-rule="evenodd" fill="#000000"></path></svg>