<svg  xmlns="http://www.w3.org/2000/svg" width="24" height="24" viewBox="0 0 24 24" fill="none" stroke="currentColor" stroke-width="2" stroke-linecap="round" stroke-linejoin="round"><path d="M10.695 4.057 C 10.466 4.129,10.256 4.299,10.128 4.516 C 10.037 4.672,10.020 4.746,10.020 5.000 C 10.020 5.256,10.036 5.328,10.131 5.489 C 10.256 5.702,10.449 5.864,10.670 5.943 C 10.892 6.022,21.108 6.022,21.330 5.943 C 21.551 5.864,21.744 5.702,21.869 5.489 C 21.964 5.328,21.980 5.256,21.980 5.000 C 21.980 4.746,21.963 4.672,21.872 4.516 C 21.740 4.293,21.533 4.128,21.290 4.055 C 21.028 3.976,10.946 3.978,10.695 4.057 M6.640 7.068 C 6.486 7.121,6.151 7.438,4.347 9.235 C 3.166 10.411,2.187 11.419,2.127 11.520 C 2.037 11.672,2.020 11.746,2.020 12.000 C 2.020 12.254,2.036 12.328,2.127 12.480 C 2.261 12.705,6.368 16.805,6.560 16.905 C 6.659 16.957,6.788 16.979,7.000 16.979 C 7.258 16.980,7.327 16.964,7.492 16.867 C 7.714 16.737,7.901 16.498,7.965 16.264 C 8.019 16.061,7.989 15.733,7.899 15.555 C 7.862 15.481,7.064 14.650,6.126 13.710 L 4.421 12.000 6.126 10.290 C 7.064 9.350,7.865 8.517,7.905 8.440 C 7.957 8.341,7.979 8.212,7.979 8.000 C 7.980 7.745,7.964 7.672,7.872 7.516 C 7.617 7.083,7.121 6.903,6.640 7.068 M10.695 11.057 C 10.466 11.129,10.256 11.299,10.128 11.516 C 10.037 11.672,10.020 11.746,10.020 12.000 C 10.020 12.256,10.036 12.328,10.131 12.489 C 10.256 12.702,10.449 12.864,10.670 12.943 C 10.892 13.022,21.108 13.022,21.330 12.943 C 21.551 12.864,21.744 12.702,21.869 12.489 C 21.964 12.328,21.980 12.256,21.980 12.000 C 21.980 11.746,21.963 11.672,21.872 11.516 C 21.740 11.293,21.533 11.128,21.290 11.055 C 21.028 10.976,10.946 10.978,10.695 11.057 M10.695 18.057 C 10.466 18.129,10.256 18.299,10.128 18.516 C 10.037 18.672,10.020 18.746,10.020 19.000 C 10.020 19.256,10.036 19.328,10.131 19.489 C 10.256 19.702,10.449 19.864,10.670 19.943 C 10.892 20.022,21.108 20.022,21.330 19.943 C 21.551 19.864,21.744 19.702,21.869 19.489 C 21.964 19.328,21.980 19.256,21.980 19.000 C 21.980 18.746,21.963 18.672,21.872 18.516 C 21.740 18.293,21.533 18.128,21.290 18.055 C 21.028 17.976,10.946 17.978,10.695 18.057 " stroke="none" fill-rule="evenodd" fill="#000000"></path></svg>