<svg  xmlns="http://www.w3.org/2000/svg" width="24" height="24" viewBox="0 0 24 24" fill="none" stroke="currentColor" stroke-width="2" stroke-linecap="round" stroke-linejoin="round"><path d="M7.695 1.057 C 7.466 1.129,7.256 1.299,7.128 1.516 C 7.025 1.692,7.019 1.728,7.007 2.347 L 6.993 2.993 5.727 3.009 C 4.518 3.025,4.445 3.030,4.139 3.124 C 3.176 3.420,2.420 4.180,2.114 5.160 L 2.020 5.460 2.020 13.000 L 2.020 20.540 2.114 20.840 C 2.418 21.816,3.149 22.554,4.140 22.886 L 4.420 22.980 9.272 22.991 C 12.491 22.998,14.175 22.988,14.276 22.961 C 14.498 22.901,14.739 22.710,14.867 22.492 C 14.964 22.327,14.980 22.257,14.980 22.000 C 14.980 21.746,14.963 21.672,14.872 21.516 C 14.761 21.328,14.572 21.158,14.373 21.070 C 14.285 21.031,13.184 21.015,9.480 21.000 L 4.700 20.980 4.516 20.872 C 4.415 20.813,4.284 20.700,4.225 20.623 C 3.989 20.314,4.000 20.557,4.000 15.575 L 4.000 11.000 12.000 11.000 L 20.000 11.000 20.000 11.245 C 20.000 11.588,20.067 11.777,20.269 12.001 C 20.554 12.319,20.971 12.418,21.373 12.265 C 21.607 12.175,21.891 11.868,21.956 11.632 C 21.992 11.504,22.001 10.693,21.992 8.440 L 21.979 5.420 21.886 5.140 C 21.558 4.158,20.813 3.417,19.861 3.124 C 19.555 3.030,19.482 3.025,18.273 3.009 L 17.007 2.993 16.993 2.347 C 16.981 1.726,16.976 1.693,16.871 1.514 C 16.479 0.848,15.521 0.848,15.129 1.514 C 15.024 1.693,15.019 1.726,15.007 2.350 L 14.993 3.000 12.000 3.000 L 9.007 3.000 8.993 2.350 C 8.981 1.728,8.975 1.692,8.872 1.516 C 8.628 1.101,8.150 0.915,7.695 1.057 M7.007 5.653 C 7.020 6.300,7.021 6.308,7.141 6.503 C 7.543 7.156,8.457 7.156,8.859 6.503 C 8.979 6.308,8.980 6.300,8.993 5.653 L 9.007 5.000 12.000 5.000 L 14.993 5.000 15.007 5.653 C 15.020 6.300,15.021 6.308,15.141 6.503 C 15.543 7.156,16.457 7.156,16.859 6.503 C 16.979 6.308,16.980 6.300,16.993 5.653 L 17.007 5.000 18.056 5.000 C 19.297 5.000,19.416 5.022,19.697 5.303 C 19.993 5.599,20.000 5.650,20.000 7.447 L 20.000 9.000 12.000 9.000 L 4.000 9.000 4.000 7.447 C 4.000 5.649,4.007 5.599,4.304 5.303 C 4.582 5.024,4.681 5.006,5.927 5.003 L 6.993 5.000 7.007 5.653 M17.580 13.096 C 17.422 13.172,16.940 13.634,15.274 15.306 C 14.116 16.469,13.138 17.481,13.101 17.555 C 12.872 18.010,13.056 18.601,13.508 18.867 C 13.673 18.964,13.742 18.980,14.000 18.979 C 14.213 18.979,14.341 18.957,14.440 18.905 C 14.517 18.864,15.124 18.290,15.789 17.628 L 16.998 16.424 17.009 19.365 L 17.020 22.306 17.141 22.503 C 17.543 23.156,18.457 23.156,18.859 22.503 L 18.980 22.306 18.991 19.365 L 19.002 16.424 20.211 17.628 C 20.876 18.290,21.483 18.864,21.560 18.905 C 21.659 18.957,21.787 18.979,22.000 18.979 C 22.258 18.980,22.327 18.964,22.492 18.867 C 22.714 18.737,22.901 18.498,22.965 18.264 C 23.019 18.061,22.989 17.733,22.899 17.555 C 22.862 17.481,21.884 16.469,20.726 15.306 C 18.433 13.004,18.429 13.001,18.000 13.001 C 17.851 13.001,17.716 13.031,17.580 13.096 " stroke="none" fill-rule="evenodd" fill="#000000"></path></svg>