<svg  xmlns="http://www.w3.org/2000/svg" width="24" height="24" viewBox="0 0 24 24" fill="none" stroke="currentColor" stroke-width="2" stroke-linecap="round" stroke-linejoin="round"><path d="M4.477 1.071 C 3.800 1.254,3.238 1.825,3.060 2.508 C 3.008 2.708,3.000 3.918,3.000 12.000 C 3.000 22.112,2.985 21.457,3.225 21.930 C 3.362 22.200,3.801 22.639,4.071 22.775 C 4.409 22.947,4.732 23.013,5.120 22.990 C 5.676 22.957,5.876 22.871,6.896 22.225 C 7.092 22.101,7.292 22.000,7.340 22.000 C 7.388 22.000,7.669 22.156,7.964 22.346 C 8.764 22.863,9.118 23.000,9.646 23.000 C 10.208 23.000,10.568 22.863,11.379 22.340 C 11.669 22.153,11.948 22.000,12.000 22.000 C 12.052 22.000,12.331 22.153,12.621 22.340 C 13.432 22.863,13.792 23.000,14.354 23.000 C 14.882 23.000,15.236 22.863,16.036 22.346 C 16.331 22.156,16.612 22.000,16.660 22.000 C 16.708 22.000,16.908 22.101,17.104 22.225 C 18.124 22.871,18.324 22.957,18.880 22.990 C 19.490 23.026,19.965 22.844,20.404 22.404 C 20.694 22.114,20.841 21.863,20.937 21.491 C 20.993 21.274,21.000 20.286,20.999 12.014 C 20.999 1.944,21.012 2.538,20.775 2.069 C 20.716 1.955,20.550 1.742,20.404 1.597 C 19.928 1.123,19.392 0.944,18.709 1.031 C 18.272 1.086,17.990 1.212,17.272 1.673 C 16.993 1.853,16.721 2.000,16.669 2.000 C 16.616 2.000,16.359 1.863,16.097 1.695 C 15.390 1.243,15.245 1.168,14.901 1.080 C 14.383 0.948,13.882 0.988,13.419 1.198 C 13.285 1.258,12.933 1.464,12.635 1.654 C 12.338 1.844,12.052 2.000,12.000 2.000 C 11.948 2.000,11.662 1.844,11.365 1.654 C 11.067 1.464,10.715 1.258,10.581 1.198 C 10.118 0.988,9.617 0.948,9.099 1.080 C 8.755 1.168,8.610 1.243,7.903 1.695 C 7.641 1.863,7.384 2.000,7.331 2.000 C 7.279 2.000,7.042 1.876,6.806 1.724 C 5.885 1.132,5.685 1.048,5.108 1.018 C 4.831 1.004,4.675 1.017,4.477 1.071 M5.621 3.340 C 6.432 3.863,6.792 4.000,7.354 4.000 C 7.882 4.000,8.236 3.863,9.036 3.346 C 9.331 3.156,9.612 3.000,9.660 3.000 C 9.708 3.000,9.908 3.101,10.104 3.225 C 11.221 3.932,11.338 3.978,12.000 3.978 C 12.662 3.978,12.779 3.932,13.896 3.225 C 14.092 3.101,14.292 3.000,14.340 3.000 C 14.388 3.000,14.669 3.156,14.964 3.346 C 15.764 3.863,16.118 4.000,16.646 4.000 C 17.208 4.000,17.568 3.863,18.379 3.340 C 18.669 3.153,18.927 3.000,18.953 3.000 C 18.989 3.000,19.000 5.141,19.000 12.000 C 19.000 18.899,18.989 21.000,18.953 21.000 C 18.927 21.000,18.662 20.844,18.365 20.654 C 18.067 20.464,17.715 20.258,17.581 20.198 C 17.118 19.988,16.617 19.948,16.099 20.080 C 15.755 20.168,15.610 20.243,14.903 20.695 C 14.641 20.863,14.384 21.000,14.331 21.000 C 14.279 21.000,14.009 20.854,13.732 20.677 C 12.886 20.132,12.549 20.001,12.000 20.001 C 11.451 20.001,11.114 20.132,10.268 20.677 C 9.991 20.854,9.721 21.000,9.669 21.000 C 9.616 21.000,9.359 20.863,9.097 20.695 C 8.390 20.243,8.245 20.168,7.901 20.080 C 7.383 19.948,6.882 19.988,6.419 20.198 C 6.285 20.258,5.933 20.464,5.635 20.654 C 5.338 20.844,5.073 21.000,5.047 21.000 C 5.011 21.000,5.000 18.899,5.000 12.000 C 5.000 5.141,5.011 3.000,5.047 3.000 C 5.073 3.000,5.331 3.153,5.621 3.340 M11.695 6.057 C 11.323 6.173,11.052 6.506,11.012 6.895 C 10.990 7.108,10.986 7.114,10.845 7.140 C 10.566 7.192,10.023 7.402,9.647 7.603 C 8.326 8.309,7.419 9.530,7.093 11.041 C 6.992 11.511,6.992 12.489,7.093 12.959 C 7.236 13.625,7.501 14.257,7.868 14.812 C 8.113 15.182,8.818 15.887,9.188 16.132 C 9.680 16.457,10.412 16.779,10.845 16.860 C 10.987 16.886,10.990 16.891,11.012 17.109 C 11.042 17.396,11.204 17.661,11.452 17.828 C 12.065 18.240,12.912 17.844,12.988 17.109 C 13.010 16.891,13.013 16.886,13.155 16.860 C 13.386 16.817,13.915 16.624,14.232 16.467 C 14.671 16.249,15.063 15.974,15.406 15.640 C 15.675 15.379,15.723 15.310,15.782 15.105 C 15.962 14.471,15.496 13.839,14.847 13.840 C 14.534 13.841,14.390 13.907,14.017 14.220 C 13.821 14.385,13.516 14.593,13.340 14.683 L 13.020 14.845 13.009 13.423 C 13.004 12.640,13.004 11.359,13.009 10.576 L 13.020 9.153 13.340 9.317 C 13.516 9.407,13.795 9.599,13.960 9.743 C 14.382 10.110,14.441 10.138,14.823 10.139 C 15.113 10.140,15.165 10.128,15.338 10.020 C 15.588 9.864,15.748 9.635,15.804 9.355 C 15.900 8.876,15.662 8.488,14.968 7.989 C 14.423 7.596,13.644 7.231,13.155 7.140 C 13.014 7.114,13.010 7.108,12.988 6.895 C 12.923 6.270,12.301 5.867,11.695 6.057 M10.991 13.423 L 10.980 14.845 10.660 14.684 C 9.935 14.317,9.361 13.637,9.125 12.861 C 9.042 12.588,9.027 12.458,9.027 12.000 C 9.027 11.373,9.112 11.019,9.377 10.539 C 9.611 10.116,10.202 9.549,10.640 9.326 L 10.980 9.153 10.991 10.576 C 10.996 11.359,10.996 12.640,10.991 13.423 " stroke="none" fill-rule="evenodd" fill="#000000"></path></svg>