<svg  xmlns="http://www.w3.org/2000/svg" width="24" height="24" viewBox="0 0 24 24" fill="none" stroke="currentColor" stroke-width="2" stroke-linecap="round" stroke-linejoin="round"><path d="M1.670 1.061 C 1.448 1.142,1.250 1.309,1.128 1.516 C 1.037 1.672,1.020 1.746,1.020 2.000 C 1.020 2.254,1.036 2.328,1.127 2.480 C 1.186 2.579,1.766 3.190,2.415 3.837 L 3.595 5.014 3.236 5.105 C 2.241 5.357,1.432 6.140,1.114 7.160 L 1.020 7.460 1.020 12.000 L 1.020 16.540 1.114 16.840 C 1.422 17.827,2.173 18.578,3.160 18.886 L 3.460 18.980 9.000 18.980 L 14.540 18.980 14.839 18.886 C 15.395 18.712,15.773 18.473,16.197 18.031 L 16.399 17.820 18.910 20.326 C 20.290 21.704,21.483 22.865,21.560 22.905 C 21.659 22.957,21.788 22.979,22.000 22.979 C 22.258 22.980,22.327 22.964,22.492 22.867 C 22.968 22.587,23.139 21.967,22.865 21.508 C 22.810 21.416,18.215 16.793,12.653 11.235 C 3.300 1.889,2.525 1.125,2.343 1.065 C 2.107 0.987,1.874 0.986,1.670 1.061 M10.400 5.036 C 9.950 5.178,9.672 5.546,9.672 6.000 C 9.672 6.405,9.879 6.724,10.260 6.905 L 10.460 6.999 12.283 7.000 C 14.380 7.000,14.396 7.002,14.697 7.303 C 14.989 7.595,15.000 7.666,15.001 9.297 C 15.002 10.621,15.006 10.710,15.083 10.880 C 15.293 11.344,15.767 11.587,16.227 11.467 C 16.344 11.436,17.313 10.895,18.695 10.088 C 19.947 9.358,20.977 8.760,20.985 8.760 C 20.993 8.760,21.000 10.436,21.000 12.485 C 21.000 15.316,21.012 16.250,21.049 16.375 C 21.079 16.476,21.177 16.620,21.299 16.747 C 21.725 17.184,22.326 17.172,22.735 16.718 C 22.835 16.606,22.928 16.452,22.956 16.352 C 22.991 16.223,23.000 15.092,22.992 11.839 L 22.980 7.498 22.849 7.232 C 22.684 6.897,22.369 6.600,22.050 6.478 C 21.742 6.361,21.263 6.357,20.980 6.470 C 20.870 6.513,19.934 7.044,18.900 7.649 L 17.020 8.749 16.995 8.085 C 16.974 7.562,16.950 7.360,16.881 7.140 C 16.576 6.177,15.819 5.421,14.861 5.123 L 14.540 5.023 12.520 5.014 C 11.409 5.009,10.455 5.019,10.400 5.036 M10.250 11.670 C 12.819 14.239,14.920 16.359,14.920 16.382 C 14.920 16.476,14.661 16.768,14.486 16.871 L 14.300 16.980 9.000 16.980 L 3.700 16.980 3.516 16.872 C 3.415 16.813,3.284 16.700,3.225 16.623 C 2.990 16.315,3.000 16.515,3.000 12.022 C 3.000 7.356,2.983 7.624,3.304 7.303 C 3.573 7.033,3.701 7.006,4.720 7.003 L 5.580 7.000 10.250 11.670 " stroke="none" fill-rule="evenodd" fill="#000000"></path></svg>