<svg  xmlns="http://www.w3.org/2000/svg" width="24" height="24" viewBox="0 0 24 24" fill="none" stroke="currentColor" stroke-width="2" stroke-linecap="round" stroke-linejoin="round"><path d="M11.100 1.042 C 9.066 1.229,7.260 1.891,5.620 3.052 C 4.057 4.159,2.720 5.791,1.959 7.520 C 0.773 10.217,0.691 13.156,1.724 15.895 C 2.599 18.213,4.219 20.143,6.394 21.457 C 8.000 22.428,10.048 22.996,11.948 22.999 C 12.590 23.000,12.829 22.930,13.061 22.674 C 13.254 22.460,13.324 22.283,13.325 22.003 C 13.327 21.593,13.123 21.277,12.740 21.095 C 12.561 21.011,12.484 21.001,12.000 21.000 C 10.591 20.998,9.344 20.708,8.060 20.082 C 6.302 19.225,4.906 17.864,4.024 16.147 C 2.932 14.020,2.714 11.730,3.382 9.416 C 4.055 7.084,5.777 5.048,8.020 3.929 C 9.835 3.025,12.075 2.768,14.060 3.237 C 16.221 3.747,18.233 5.128,19.426 6.920 C 20.223 8.117,20.736 9.441,20.923 10.780 C 20.976 11.160,20.993 12.216,20.960 13.020 C 20.942 13.458,20.948 13.514,21.026 13.660 C 21.193 13.967,21.474 14.170,21.803 14.220 C 22.033 14.254,22.252 14.196,22.493 14.036 C 22.898 13.768,22.977 13.432,22.977 11.980 C 22.978 10.937,22.932 10.515,22.717 9.560 C 21.978 6.280,19.740 3.498,16.680 2.053 C 15.693 1.588,14.597 1.265,13.440 1.099 C 12.918 1.024,11.633 0.993,11.100 1.042 M11.695 5.057 C 11.466 5.129,11.256 5.299,11.128 5.516 L 11.020 5.700 11.009 8.917 C 10.997 12.475,10.990 12.361,11.252 12.654 C 11.394 12.813,11.573 12.919,12.597 13.449 C 13.292 13.809,13.295 13.810,13.538 13.790 C 14.094 13.746,14.490 13.334,14.492 12.800 C 14.493 12.535,14.383 12.270,14.203 12.100 C 14.133 12.034,13.838 11.852,13.548 11.695 L 13.020 11.410 13.000 8.555 L 12.980 5.700 12.872 5.516 C 12.628 5.101,12.150 4.915,11.695 5.057 M17.640 13.068 C 17.486 13.121,17.148 13.441,15.326 15.255 C 13.001 17.569,13.001 17.569,13.001 18.000 C 13.001 18.429,13.004 18.433,15.306 20.726 C 16.469 21.884,17.483 22.865,17.560 22.905 C 17.659 22.957,17.788 22.979,18.000 22.979 C 18.258 22.980,18.327 22.964,18.492 22.867 C 18.714 22.737,18.901 22.498,18.965 22.264 C 19.019 22.061,18.989 21.733,18.899 21.555 C 18.862 21.481,18.289 20.876,17.626 20.210 L 16.422 19.000 19.301 18.998 C 21.601 18.997,22.210 18.986,22.330 18.943 C 22.551 18.864,22.744 18.702,22.869 18.489 C 22.964 18.328,22.980 18.256,22.980 18.000 C 22.980 17.746,22.963 17.672,22.872 17.516 C 22.813 17.415,22.698 17.282,22.618 17.221 C 22.326 16.998,22.349 17.000,19.265 17.000 L 16.422 17.000 17.626 15.790 C 18.289 15.125,18.864 14.517,18.905 14.440 C 18.957 14.341,18.979 14.213,18.979 14.000 C 18.980 13.745,18.964 13.672,18.872 13.516 C 18.617 13.083,18.121 12.903,17.640 13.068 " stroke="none" fill-rule="evenodd" fill="#000000"></path></svg>