<svg  xmlns="http://www.w3.org/2000/svg" width="24" height="24" viewBox="0 0 24 24" fill="none" stroke="currentColor" stroke-width="2" stroke-linecap="round" stroke-linejoin="round"><path d="M5.499 1.042 C 4.378 1.234,3.461 2.048,3.114 3.160 L 3.020 3.460 3.020 12.000 L 3.020 20.540 3.114 20.840 C 3.418 21.816,4.151 22.555,5.140 22.886 L 5.420 22.979 8.455 22.991 C 11.839 23.005,11.725 23.013,12.015 22.732 C 12.249 22.505,12.337 22.304,12.337 22.000 C 12.337 21.607,12.148 21.303,11.781 21.106 C 11.621 21.021,11.593 21.020,8.660 21.000 L 5.700 20.980 5.516 20.872 C 5.415 20.813,5.284 20.700,5.225 20.623 C 4.985 20.308,5.000 20.888,5.000 12.022 C 5.000 2.889,4.974 3.632,5.303 3.303 C 5.621 2.986,5.423 3.000,9.447 3.000 L 13.000 3.000 13.000 5.132 C 13.000 7.443,13.004 7.494,13.225 7.930 C 13.361 8.199,13.801 8.639,14.070 8.775 C 14.506 8.996,14.557 9.000,16.868 9.000 L 19.000 9.000 19.000 11.253 C 19.000 13.763,18.997 13.736,19.269 14.015 C 19.495 14.249,19.696 14.337,20.000 14.337 C 20.304 14.337,20.505 14.249,20.732 14.015 C 21.013 13.726,21.004 13.840,20.991 10.455 L 20.979 7.420 20.867 7.060 C 20.733 6.627,20.505 6.193,20.241 5.863 C 19.921 5.464,16.162 1.748,15.920 1.592 C 15.585 1.376,15.319 1.252,14.932 1.131 L 14.580 1.020 10.140 1.014 C 7.698 1.011,5.609 1.024,5.499 1.042 M16.800 5.220 L 18.580 7.000 16.790 7.000 L 15.000 7.000 15.000 5.220 C 15.000 4.241,15.005 3.440,15.010 3.440 C 15.016 3.440,15.821 4.241,16.800 5.220 M16.695 15.057 C 16.466 15.129,16.256 15.299,16.128 15.516 L 16.020 15.700 16.008 16.850 L 15.995 18.000 14.944 18.000 C 13.797 18.000,13.643 18.022,13.382 18.221 C 13.302 18.282,13.187 18.415,13.128 18.516 C 13.037 18.672,13.020 18.746,13.020 19.000 C 13.020 19.256,13.036 19.328,13.131 19.489 C 13.192 19.592,13.304 19.725,13.381 19.783 C 13.642 19.983,13.738 19.996,14.908 19.998 L 15.995 20.000 16.008 21.153 L 16.020 22.307 16.141 22.503 C 16.543 23.156,17.457 23.156,17.859 22.503 L 17.980 22.307 17.992 21.153 L 18.005 20.000 19.092 19.998 C 20.262 19.996,20.358 19.983,20.619 19.783 C 20.696 19.725,20.808 19.592,20.869 19.489 C 20.964 19.328,20.980 19.256,20.980 19.000 C 20.980 18.746,20.963 18.672,20.872 18.516 C 20.813 18.415,20.698 18.282,20.618 18.221 C 20.357 18.022,20.203 18.000,19.056 18.000 L 18.005 18.000 17.992 16.850 L 17.980 15.700 17.872 15.516 C 17.628 15.101,17.150 14.915,16.695 15.057 " stroke="none" fill-rule="evenodd" fill="#000000"></path></svg>