<svg  xmlns="http://www.w3.org/2000/svg" width="24" height="24" viewBox="0 0 24 24" fill="none" stroke="currentColor" stroke-width="2" stroke-linecap="round" stroke-linejoin="round"><path d="M6.104 2.064 C 4.461 2.361,3.054 3.488,2.389 5.040 C 2.041 5.854,1.910 6.947,2.060 7.787 C 2.252 8.864,2.696 9.731,3.440 10.483 C 3.756 10.803,3.856 10.880,4.035 10.939 C 4.696 11.157,5.362 10.681,5.359 9.991 C 5.358 9.688,5.244 9.474,4.885 9.101 C 4.560 8.762,4.356 8.454,4.210 8.080 C 4.049 7.668,4.023 7.510,4.025 6.960 C 4.026 6.485,4.039 6.381,4.133 6.100 C 4.828 4.012,7.304 3.317,8.973 4.740 C 9.341 5.054,9.490 5.124,9.795 5.125 C 10.104 5.127,10.327 5.029,10.533 4.800 C 10.925 4.363,10.892 3.820,10.446 3.383 C 9.759 2.709,8.906 2.269,7.910 2.076 C 7.436 1.984,6.578 1.979,6.104 2.064 M16.363 2.043 C 15.393 2.169,14.365 2.643,13.658 3.291 C 13.310 3.609,13.222 3.781,13.222 4.140 C 13.222 4.469,13.312 4.674,13.545 4.879 C 13.743 5.053,13.930 5.126,14.180 5.129 C 14.477 5.131,14.657 5.059,14.935 4.823 C 15.399 4.431,15.767 4.232,16.283 4.093 C 16.667 3.989,17.368 3.999,17.778 4.115 C 18.619 4.351,19.312 4.926,19.694 5.705 C 19.910 6.144,19.977 6.465,19.974 7.040 C 19.971 7.486,19.958 7.579,19.850 7.901 C 19.686 8.387,19.504 8.684,19.099 9.123 C 18.714 9.541,18.611 9.771,18.653 10.125 C 18.716 10.653,19.207 11.043,19.741 10.988 C 20.013 10.960,20.165 10.879,20.455 10.604 C 21.154 9.943,21.636 9.092,21.884 8.080 C 21.963 7.756,21.977 7.596,21.977 7.000 C 21.977 6.373,21.966 6.256,21.870 5.873 C 21.608 4.829,21.149 4.044,20.384 3.331 C 19.323 2.342,17.807 1.857,16.363 2.043 M6.695 6.057 C 6.466 6.129,6.256 6.299,6.128 6.516 C 6.037 6.672,6.020 6.746,6.020 7.000 C 6.020 7.254,6.036 7.327,6.127 7.480 C 6.186 7.579,6.857 8.281,7.617 9.040 L 9.000 10.420 9.000 12.000 L 9.000 13.580 7.617 14.960 C 6.857 15.719,6.186 16.421,6.127 16.520 C 6.036 16.673,6.020 16.746,6.020 17.000 C 6.020 17.257,6.036 17.327,6.133 17.492 C 6.263 17.714,6.502 17.901,6.736 17.965 C 6.939 18.019,7.267 17.989,7.445 17.899 C 7.519 17.861,7.969 17.445,8.444 16.973 L 9.307 16.115 9.584 16.392 C 9.881 16.690,10.144 16.846,10.508 16.940 C 10.839 17.027,13.161 17.027,13.492 16.940 C 13.856 16.846,14.119 16.690,14.416 16.392 L 14.693 16.115 15.556 16.973 C 16.031 17.445,16.483 17.864,16.560 17.905 C 16.659 17.957,16.787 17.979,17.000 17.979 C 17.258 17.980,17.327 17.964,17.492 17.867 C 17.968 17.587,18.139 16.967,17.865 16.508 C 17.810 16.416,17.143 15.719,16.383 14.960 L 15.000 13.580 15.000 12.000 L 15.000 10.420 16.383 9.040 C 17.143 8.281,17.814 7.579,17.873 7.480 C 17.964 7.327,17.980 7.254,17.980 7.000 C 17.980 6.746,17.963 6.672,17.872 6.516 C 17.740 6.293,17.533 6.128,17.290 6.055 C 17.054 5.984,16.943 5.986,16.678 6.064 C 16.479 6.124,16.394 6.196,15.573 7.009 L 14.685 7.890 14.467 7.655 C 14.198 7.366,13.870 7.164,13.523 7.073 C 13.134 6.972,10.866 6.972,10.477 7.073 C 10.130 7.164,9.802 7.366,9.533 7.655 L 9.315 7.890 8.427 7.009 C 7.606 6.196,7.521 6.124,7.322 6.064 C 7.067 5.988,6.919 5.987,6.695 6.057 M13.000 12.000 L 13.000 15.000 12.000 15.000 L 11.000 15.000 11.000 12.000 L 11.000 9.000 12.000 9.000 L 13.000 9.000 13.000 12.000 M3.967 13.080 C 3.589 13.252,2.947 13.990,2.598 14.653 C 2.204 15.401,2.023 16.138,2.024 16.980 C 2.025 18.347,2.526 19.564,3.480 20.518 C 3.818 20.856,4.371 21.263,4.759 21.459 C 5.033 21.598,5.695 21.821,6.081 21.904 C 6.806 22.060,7.916 21.971,8.689 21.695 C 9.520 21.398,10.452 20.749,10.692 20.300 C 10.811 20.077,10.812 19.644,10.692 19.420 C 10.507 19.072,10.189 18.880,9.801 18.881 C 9.478 18.882,9.307 18.958,8.963 19.256 C 8.105 19.997,6.917 20.181,5.831 19.740 C 4.997 19.401,4.312 18.580,4.100 17.667 C 4.017 17.310,4.017 16.638,4.100 16.296 C 4.218 15.808,4.482 15.332,4.868 14.913 C 5.265 14.484,5.358 14.310,5.359 14.000 C 5.360 13.286,4.608 12.789,3.967 13.080 M19.329 13.056 C 19.092 13.134,18.902 13.289,18.771 13.511 C 18.676 13.673,18.660 13.743,18.661 14.000 C 18.662 14.374,18.708 14.465,19.120 14.903 C 19.762 15.584,20.037 16.307,19.988 17.178 C 19.943 17.971,19.670 18.578,19.104 19.143 C 18.020 20.225,16.249 20.301,15.096 19.315 C 14.702 18.977,14.574 18.910,14.280 18.889 C 14.067 18.874,13.977 18.888,13.807 18.961 C 13.303 19.178,13.067 19.776,13.295 20.260 C 13.458 20.608,14.067 21.121,14.706 21.450 C 15.958 22.094,17.361 22.187,18.708 21.716 C 20.155 21.210,21.330 19.973,21.796 18.463 C 22.002 17.798,22.062 16.814,21.937 16.157 C 21.735 15.093,21.217 14.121,20.484 13.429 C 20.329 13.283,20.144 13.133,20.074 13.097 C 19.902 13.008,19.539 12.988,19.329 13.056 " stroke="none" fill-rule="evenodd" fill="#000000"></path></svg>