<svg  xmlns="http://www.w3.org/2000/svg" width="24" height="24" viewBox="0 0 24 24" fill="none" stroke="currentColor" stroke-width="2" stroke-linecap="round" stroke-linejoin="round"><path d="M4.499 2.043 C 3.379 2.232,2.454 3.055,2.115 4.160 C 2.045 4.390,2.023 4.559,2.022 4.883 C 2.020 5.285,2.026 5.315,2.141 5.503 C 2.537 6.147,3.457 6.156,3.849 5.520 C 3.927 5.392,3.971 5.249,3.999 5.031 C 4.049 4.636,4.114 4.485,4.321 4.283 C 4.635 3.979,4.062 4.000,12.000 4.000 C 19.938 4.000,19.365 3.979,19.679 4.283 C 19.886 4.485,19.951 4.636,20.001 5.031 C 20.049 5.410,20.184 5.647,20.452 5.828 C 20.923 6.144,21.554 5.998,21.859 5.503 C 21.974 5.315,21.980 5.285,21.978 4.883 C 21.977 4.559,21.955 4.390,21.885 4.160 C 21.587 3.188,20.833 2.428,19.861 2.121 L 19.540 2.020 12.120 2.014 C 8.039 2.011,4.609 2.024,4.499 2.043 M2.695 8.057 C 2.466 8.129,2.256 8.299,2.128 8.516 C 2.020 8.699,2.020 8.703,2.020 9.503 L 2.020 10.306 2.141 10.503 C 2.543 11.156,3.457 11.156,3.859 10.503 L 3.980 10.306 3.980 9.503 C 3.980 8.703,3.980 8.699,3.872 8.516 C 3.628 8.101,3.150 7.915,2.695 8.057 M20.695 8.057 C 20.466 8.129,20.256 8.299,20.128 8.516 C 20.020 8.699,20.020 8.703,20.020 9.503 L 20.020 10.306 20.141 10.503 C 20.543 11.156,21.457 11.156,21.859 10.503 L 21.980 10.306 21.980 9.503 C 21.980 8.703,21.980 8.699,21.872 8.516 C 21.628 8.101,21.150 7.915,20.695 8.057 M2.695 13.057 C 2.466 13.129,2.256 13.299,2.128 13.516 C 2.020 13.699,2.020 13.703,2.020 14.503 L 2.020 15.306 2.141 15.503 C 2.543 16.156,3.457 16.156,3.859 15.503 L 3.980 15.306 3.980 14.503 C 3.980 13.703,3.980 13.699,3.872 13.516 C 3.628 13.101,3.150 12.915,2.695 13.057 M20.695 13.057 C 20.466 13.129,20.256 13.299,20.128 13.516 C 20.020 13.699,20.020 13.703,20.020 14.503 L 20.020 15.306 20.141 15.503 C 20.543 16.156,21.457 16.156,21.859 15.503 L 21.980 15.306 21.980 14.503 C 21.980 13.703,21.980 13.699,21.872 13.516 C 21.628 13.101,21.150 12.915,20.695 13.057 M2.695 18.057 C 2.466 18.129,2.256 18.299,2.128 18.516 C 2.029 18.685,2.020 18.734,2.022 19.120 C 2.023 19.440,2.045 19.611,2.115 19.840 C 2.413 20.812,3.179 21.584,4.137 21.877 C 4.481 21.982,5.040 22.026,5.264 21.965 C 5.498 21.901,5.737 21.714,5.867 21.492 C 5.964 21.327,5.980 21.257,5.980 21.000 C 5.980 20.746,5.963 20.672,5.872 20.516 C 5.758 20.323,5.561 20.149,5.375 20.078 C 5.314 20.055,5.130 20.019,4.966 19.998 C 4.623 19.955,4.387 19.835,4.226 19.625 C 4.081 19.434,4.037 19.309,3.997 18.966 C 3.942 18.488,3.701 18.179,3.290 18.055 C 3.068 17.988,2.913 17.989,2.695 18.057 M20.695 18.057 C 20.298 18.181,20.062 18.491,20.002 18.966 C 19.957 19.320,19.916 19.438,19.774 19.625 C 19.613 19.835,19.377 19.955,19.034 19.998 C 18.870 20.019,18.686 20.055,18.625 20.078 C 18.439 20.149,18.242 20.323,18.128 20.516 C 18.037 20.672,18.020 20.746,18.020 21.000 C 18.020 21.257,18.036 21.327,18.133 21.492 C 18.263 21.714,18.502 21.901,18.736 21.965 C 18.960 22.026,19.519 21.982,19.863 21.877 C 20.821 21.584,21.587 20.812,21.885 19.840 C 21.955 19.611,21.977 19.440,21.978 19.120 C 21.980 18.734,21.971 18.685,21.872 18.516 C 21.628 18.101,21.150 17.915,20.695 18.057 M8.695 20.057 C 8.466 20.129,8.256 20.299,8.128 20.516 C 8.037 20.672,8.020 20.746,8.020 21.000 C 8.020 21.256,8.036 21.328,8.131 21.489 C 8.256 21.702,8.449 21.864,8.670 21.943 C 8.878 22.017,10.122 22.017,10.330 21.943 C 10.551 21.864,10.744 21.702,10.869 21.489 C 10.964 21.328,10.980 21.256,10.980 21.000 C 10.980 20.746,10.963 20.672,10.872 20.516 C 10.740 20.293,10.533 20.128,10.290 20.055 C 10.050 19.983,8.928 19.984,8.695 20.057 M13.695 20.057 C 13.466 20.129,13.256 20.299,13.128 20.516 C 13.037 20.672,13.020 20.746,13.020 21.000 C 13.020 21.256,13.036 21.328,13.131 21.489 C 13.256 21.702,13.449 21.864,13.670 21.943 C 13.878 22.017,15.122 22.017,15.330 21.943 C 15.551 21.864,15.744 21.702,15.869 21.489 C 15.964 21.328,15.980 21.256,15.980 21.000 C 15.980 20.746,15.963 20.672,15.872 20.516 C 15.740 20.293,15.533 20.128,15.290 20.055 C 15.050 19.983,13.928 19.984,13.695 20.057 " stroke="none" fill-rule="evenodd" fill="#000000"></path></svg>