<svg  xmlns="http://www.w3.org/2000/svg" width="24" height="24" viewBox="0 0 24 24" fill="none" stroke="currentColor" stroke-width="2" stroke-linecap="round" stroke-linejoin="round"><path d="M5.499 1.042 C 4.378 1.234,3.461 2.048,3.114 3.160 L 3.020 3.460 3.020 7.383 L 3.020 11.306 3.141 11.503 C 3.543 12.156,4.457 12.156,4.859 11.503 L 4.980 11.306 5.000 7.523 C 5.022 3.284,4.999 3.596,5.321 3.283 C 5.625 2.989,5.459 3.000,9.447 3.000 L 13.000 3.000 13.000 5.132 C 13.000 7.443,13.004 7.494,13.225 7.930 C 13.361 8.199,13.801 8.639,14.070 8.775 C 14.506 8.996,14.557 9.000,16.868 9.000 L 19.000 9.000 19.000 14.554 C 19.000 19.144,18.990 20.139,18.945 20.290 C 18.872 20.533,18.707 20.740,18.484 20.872 L 18.300 20.980 15.520 21.000 C 13.418 21.015,12.713 21.032,12.627 21.070 C 12.428 21.158,12.239 21.328,12.128 21.516 C 12.037 21.672,12.020 21.746,12.020 22.000 C 12.020 22.257,12.036 22.327,12.133 22.492 C 12.262 22.711,12.502 22.901,12.727 22.962 C 12.829 22.989,13.844 22.999,15.731 22.991 L 18.580 22.979 18.860 22.885 C 19.849 22.556,20.582 21.816,20.886 20.840 L 20.980 20.540 20.980 13.980 L 20.980 7.420 20.868 7.060 C 20.732 6.627,20.505 6.192,20.241 5.863 C 19.921 5.464,16.162 1.748,15.920 1.592 C 15.585 1.376,15.319 1.252,14.932 1.131 L 14.580 1.020 10.140 1.014 C 7.698 1.011,5.609 1.024,5.499 1.042 M16.800 5.220 L 18.580 7.000 16.790 7.000 L 15.000 7.000 15.000 5.220 C 15.000 4.241,15.005 3.440,15.010 3.440 C 15.016 3.440,15.821 4.241,16.800 5.220 M4.780 14.026 C 3.696 14.199,2.771 14.885,2.320 15.851 C 2.075 16.375,2.022 16.622,2.022 17.240 C 2.022 17.823,2.074 18.090,2.272 18.540 C 2.502 19.063,2.559 19.133,4.465 21.200 C 5.145 21.937,5.787 22.597,5.891 22.667 C 6.255 22.911,6.488 22.976,7.000 22.976 C 7.512 22.976,7.745 22.911,8.109 22.667 C 8.281 22.552,10.488 20.201,11.159 19.419 C 12.124 18.292,12.262 16.856,11.526 15.580 C 11.349 15.274,10.732 14.658,10.420 14.476 C 9.870 14.156,9.388 14.026,8.740 14.026 C 8.175 14.025,7.786 14.116,7.295 14.362 C 6.993 14.514,6.986 14.516,6.884 14.446 C 6.730 14.341,6.331 14.173,6.059 14.099 C 5.823 14.034,5.016 13.988,4.780 14.026 M5.778 16.119 C 5.883 16.170,6.083 16.325,6.222 16.463 C 6.729 16.968,7.266 16.969,7.775 16.468 C 8.108 16.140,8.369 16.022,8.760 16.024 C 9.118 16.025,9.372 16.130,9.621 16.379 C 9.870 16.628,9.975 16.882,9.976 17.240 C 9.978 17.740,9.929 17.812,8.636 19.221 C 8.011 19.902,7.388 20.576,7.250 20.719 L 7.000 20.980 6.750 20.719 C 5.781 19.709,4.197 17.935,4.116 17.771 C 3.981 17.496,3.980 16.978,4.115 16.720 C 4.283 16.397,4.575 16.148,4.920 16.035 C 5.105 15.974,5.574 16.020,5.778 16.119 " stroke="none" fill-rule="evenodd" fill="#000000"></path></svg>