<svg  xmlns="http://www.w3.org/2000/svg" width="24" height="24" viewBox="0 0 24 24" fill="none" stroke="currentColor" stroke-width="2" stroke-linecap="round" stroke-linejoin="round"><path d="M10.640 1.046 C 9.492 1.286,8.661 1.606,7.824 2.130 C 6.019 3.259,4.690 5.106,4.218 7.140 C 4.027 7.966,4.030 7.903,4.012 11.720 C 4.000 14.224,4.008 15.476,4.039 15.780 C 4.191 17.269,4.760 18.703,5.674 19.900 C 5.933 20.239,6.606 20.925,6.960 21.211 C 8.378 22.357,10.190 23.000,12.000 23.000 C 13.810 23.000,15.622 22.357,17.040 21.211 C 17.394 20.925,18.067 20.239,18.326 19.900 C 19.240 18.702,19.811 17.265,19.960 15.780 C 19.990 15.489,20.001 14.384,19.992 12.520 L 19.980 9.700 19.871 9.514 C 19.479 8.848,18.521 8.848,18.129 9.514 L 18.020 9.700 17.997 12.700 C 17.973 15.802,17.970 15.867,17.800 16.526 C 17.316 18.411,15.802 20.037,13.940 20.672 C 13.246 20.909,12.821 20.975,12.000 20.975 C 11.383 20.975,11.190 20.960,10.840 20.885 C 8.190 20.317,6.298 18.219,6.039 15.564 C 5.988 15.031,5.989 8.916,6.041 8.394 C 6.181 7.002,6.786 5.717,7.776 4.712 C 8.630 3.845,9.677 3.285,10.900 3.041 C 11.384 2.944,11.621 2.832,11.779 2.625 C 12.198 2.076,11.971 1.286,11.330 1.057 C 11.158 0.996,10.901 0.992,10.640 1.046 M16.499 1.040 C 15.363 1.246,14.460 2.049,14.114 3.160 C 13.979 3.594,13.979 4.406,14.114 4.840 C 14.421 5.826,15.173 6.578,16.160 6.886 C 16.418 6.967,16.539 6.980,17.020 6.977 C 17.508 6.974,17.620 6.961,17.887 6.872 C 18.852 6.552,19.585 5.807,19.886 4.840 C 20.021 4.406,20.021 3.594,19.886 3.160 C 19.581 2.179,18.810 1.407,17.861 1.129 C 17.500 1.023,16.832 0.980,16.499 1.040 M17.310 3.061 C 17.688 3.173,18.000 3.598,18.000 4.001 C 18.000 4.331,17.784 4.696,17.484 4.872 C 17.328 4.963,17.254 4.980,17.000 4.980 C 16.746 4.980,16.672 4.963,16.516 4.872 C 15.932 4.528,15.831 3.775,16.307 3.299 C 16.582 3.024,16.918 2.944,17.310 3.061 M11.670 6.375 C 11.446 6.458,11.255 6.620,11.131 6.831 L 11.020 7.020 11.020 8.663 L 11.020 10.306 11.141 10.503 C 11.543 11.156,12.457 11.156,12.859 10.503 L 12.980 10.306 12.992 8.754 C 12.999 7.766,12.988 7.145,12.962 7.047 C 12.902 6.825,12.712 6.582,12.500 6.458 C 12.277 6.327,11.899 6.289,11.670 6.375 " stroke="none" fill-rule="evenodd" fill="#000000"></path></svg>