<svg  xmlns="http://www.w3.org/2000/svg" width="24" height="24" viewBox="0 0 24 24" fill="none" stroke="currentColor" stroke-width="2" stroke-linecap="round" stroke-linejoin="round"><path d="M6.660 6.066 C 6.474 6.122,6.279 6.307,3.847 8.733 C 2.371 10.206,1.188 11.418,1.127 11.520 C 1.036 11.673,1.020 11.745,1.021 12.000 C 1.021 12.212,1.043 12.341,1.095 12.440 C 1.192 12.625,6.292 17.737,6.508 17.865 C 6.967 18.139,7.587 17.968,7.867 17.492 C 7.964 17.327,7.980 17.258,7.979 17.000 C 7.979 16.788,7.957 16.659,7.905 16.560 C 7.865 16.483,6.839 15.425,5.626 14.210 L 3.421 12.000 5.626 9.790 C 6.839 8.574,7.865 7.517,7.905 7.440 C 7.957 7.341,7.979 7.212,7.979 7.000 C 7.980 6.745,7.964 6.672,7.872 6.516 C 7.740 6.293,7.533 6.128,7.290 6.055 C 7.062 5.986,6.915 5.989,6.660 6.066 M16.695 6.057 C 16.466 6.129,16.256 6.299,16.128 6.516 C 16.036 6.672,16.020 6.745,16.021 7.000 C 16.021 7.212,16.043 7.341,16.095 7.440 C 16.135 7.517,17.161 8.574,18.374 9.790 L 20.579 12.000 18.374 14.210 C 17.161 15.425,16.135 16.483,16.095 16.560 C 16.043 16.659,16.021 16.788,16.021 17.000 C 16.020 17.258,16.036 17.327,16.133 17.492 C 16.413 17.968,17.033 18.139,17.492 17.865 C 17.708 17.737,22.808 12.625,22.905 12.440 C 22.957 12.341,22.979 12.212,22.979 12.000 C 22.980 11.745,22.964 11.673,22.873 11.520 C 22.812 11.418,21.630 10.207,20.153 8.734 C 17.627 6.214,17.533 6.125,17.323 6.064 C 17.066 5.988,16.919 5.987,16.695 6.057 M7.695 11.055 C 7.464 11.130,7.255 11.300,7.128 11.516 C 7.037 11.672,7.020 11.746,7.020 12.000 C 7.020 12.257,7.036 12.327,7.133 12.492 C 7.651 13.374,8.998 13.018,8.998 12.000 C 8.998 11.623,8.792 11.281,8.463 11.112 C 8.265 11.010,7.911 10.984,7.695 11.055 M11.695 11.055 C 11.464 11.130,11.255 11.300,11.128 11.516 C 11.037 11.672,11.020 11.746,11.020 12.000 C 11.020 12.257,11.036 12.327,11.133 12.492 C 11.651 13.374,12.998 13.018,12.998 12.000 C 12.998 11.623,12.792 11.281,12.463 11.112 C 12.265 11.010,11.911 10.984,11.695 11.055 M15.695 11.055 C 15.464 11.130,15.255 11.300,15.128 11.516 C 15.037 11.672,15.020 11.746,15.020 12.000 C 15.020 12.257,15.036 12.327,15.133 12.492 C 15.651 13.374,16.998 13.018,16.998 12.000 C 16.998 11.623,16.792 11.281,16.463 11.112 C 16.265 11.010,15.911 10.984,15.695 11.055 " stroke="none" fill-rule="evenodd" fill="#000000"></path></svg>