<svg  xmlns="http://www.w3.org/2000/svg" width="24" height="24" viewBox="0 0 24 24" fill="none" stroke="currentColor" stroke-width="2" stroke-linecap="round" stroke-linejoin="round"><path d="M4.499 2.043 C 3.383 2.230,2.461 3.048,2.114 4.160 L 2.020 4.460 2.020 12.000 L 2.020 19.540 2.114 19.840 C 2.422 20.827,3.173 21.578,4.160 21.886 L 4.460 21.980 12.000 21.980 L 19.540 21.980 19.840 21.886 C 20.827 21.578,21.578 20.827,21.886 19.840 L 21.980 19.540 21.980 17.120 L 21.980 14.700 21.871 14.514 C 21.479 13.848,20.521 13.848,20.129 14.514 L 20.020 14.700 20.000 16.980 C 19.985 18.681,19.967 19.289,19.930 19.373 C 19.842 19.572,19.672 19.761,19.484 19.872 L 19.300 19.980 12.000 19.980 L 4.700 19.980 4.516 19.872 C 4.415 19.813,4.284 19.700,4.225 19.623 C 3.986 19.309,4.000 19.795,4.000 12.022 C 4.000 4.006,3.975 4.631,4.303 4.303 C 4.609 3.998,4.585 4.000,7.037 3.998 C 8.722 3.997,9.212 3.985,9.330 3.943 C 9.551 3.864,9.744 3.702,9.869 3.489 C 9.964 3.328,9.980 3.256,9.980 3.000 C 9.980 2.746,9.963 2.672,9.872 2.516 C 9.813 2.415,9.698 2.282,9.618 2.221 C 9.331 2.002,9.297 2.000,6.904 2.005 C 5.692 2.007,4.609 2.025,4.499 2.043 M12.670 2.058 C 12.034 2.304,11.805 3.048,12.198 3.591 C 12.263 3.681,12.399 3.803,12.499 3.862 C 12.662 3.957,12.753 3.975,13.331 4.022 C 14.095 4.084,14.235 4.103,14.660 4.206 C 17.166 4.810,19.190 6.834,19.794 9.340 C 19.897 9.765,19.916 9.905,19.979 10.673 C 20.028 11.274,20.041 11.340,20.147 11.513 C 20.542 12.154,21.460 12.151,21.856 11.508 C 21.956 11.345,21.977 11.263,21.992 10.980 C 22.002 10.796,21.988 10.433,21.962 10.173 C 21.509 5.646,17.859 2.189,13.354 2.020 C 12.944 2.004,12.785 2.013,12.670 2.058 " stroke="none" fill-rule="evenodd" fill="#000000"></path></svg>