<svg  xmlns="http://www.w3.org/2000/svg" width="24" height="24" viewBox="0 0 24 24" fill="none" stroke="currentColor" stroke-width="2" stroke-linecap="round" stroke-linejoin="round"><path d="M9.380 2.043 C 6.784 2.299,4.681 4.215,4.114 6.840 C 3.984 7.446,3.984 8.554,4.114 9.160 C 4.411 10.536,5.153 11.781,6.175 12.618 L 6.352 12.763 5.886 13.005 C 4.097 13.931,2.750 15.321,1.876 17.140 C 1.319 18.298,1.026 19.530,1.022 20.723 C 1.020 21.303,1.021 21.307,1.141 21.503 C 1.540 22.152,2.457 22.156,2.854 21.511 C 2.961 21.337,2.973 21.278,3.005 20.771 C 3.089 19.447,3.379 18.463,3.996 17.408 C 5.196 15.352,7.566 13.998,9.960 14.001 C 11.412 14.003,12.738 14.417,14.005 15.266 C 14.518 15.610,14.536 15.618,14.800 15.633 C 15.411 15.668,15.862 15.244,15.857 14.640 C 15.854 14.342,15.765 14.134,15.554 13.933 C 15.346 13.735,14.573 13.234,14.115 13.001 C 13.887 12.884,13.692 12.782,13.683 12.774 C 13.674 12.766,13.781 12.656,13.922 12.530 C 14.976 11.581,15.593 10.523,15.885 9.160 C 16.015 8.554,16.015 7.446,15.885 6.840 C 15.626 5.631,15.109 4.660,14.269 3.805 C 12.978 2.490,11.230 1.860,9.380 2.043 M10.605 4.058 C 12.074 4.280,13.310 5.324,13.797 6.755 C 13.897 7.050,14.000 7.680,14.000 8.000 C 14.000 8.322,13.897 8.951,13.796 9.245 C 13.321 10.632,12.195 11.628,10.773 11.917 C 8.563 12.368,6.396 10.845,6.058 8.605 C 5.986 8.121,5.986 7.879,6.058 7.395 C 6.314 5.698,7.675 4.324,9.358 4.061 C 9.816 3.990,10.144 3.989,10.605 4.058 M18.695 10.057 C 18.466 10.129,18.256 10.299,18.128 10.516 L 18.020 10.700 18.000 13.426 L 17.980 16.153 17.660 16.317 C 16.919 16.698,16.363 17.360,16.114 18.160 C 15.979 18.594,15.979 19.406,16.114 19.840 C 16.421 20.826,17.174 21.579,18.160 21.886 C 18.594 22.021,19.406 22.021,19.840 21.886 C 20.826 21.579,21.579 20.826,21.886 19.840 C 22.021 19.406,22.021 18.594,21.886 18.160 C 21.635 17.355,21.078 16.693,20.330 16.313 L 20.000 16.145 20.000 15.073 L 20.000 14.000 20.590 13.998 C 20.977 13.997,21.232 13.978,21.330 13.943 C 21.551 13.864,21.744 13.702,21.869 13.489 C 21.964 13.328,21.980 13.256,21.980 13.000 C 21.980 12.746,21.963 12.672,21.872 12.516 C 21.634 12.111,21.352 12.000,20.557 12.000 L 20.007 12.000 19.993 11.350 C 19.981 10.728,19.975 10.692,19.872 10.516 C 19.628 10.101,19.150 9.915,18.695 10.057 M19.310 18.061 C 19.688 18.173,20.000 18.598,20.000 19.001 C 20.000 19.331,19.784 19.696,19.484 19.872 C 19.328 19.963,19.254 19.980,19.000 19.980 C 18.746 19.980,18.672 19.963,18.516 19.872 C 17.935 19.530,17.833 18.774,18.304 18.303 C 18.583 18.024,18.916 17.944,19.310 18.061 " stroke="none" fill-rule="evenodd" fill="#000000"></path></svg>