<svg  xmlns="http://www.w3.org/2000/svg" width="24" height="24" viewBox="0 0 24 24" fill="none" stroke="currentColor" stroke-width="2" stroke-linecap="round" stroke-linejoin="round"><path d="M3.499 5.043 C 2.380 5.232,1.461 6.048,1.114 7.160 L 1.020 7.460 1.020 12.000 L 1.020 16.540 1.114 16.840 C 1.418 17.816,2.149 18.554,3.140 18.886 L 3.420 18.980 7.771 18.991 C 10.657 18.999,12.174 18.989,12.275 18.961 C 12.498 18.901,12.739 18.710,12.867 18.492 C 12.964 18.327,12.980 18.257,12.980 18.000 C 12.980 17.746,12.963 17.672,12.872 17.516 C 12.761 17.328,12.572 17.158,12.373 17.070 C 12.286 17.031,11.284 17.015,7.980 17.000 L 3.700 16.980 3.516 16.872 C 3.415 16.813,3.284 16.700,3.225 16.623 C 2.990 16.315,3.000 16.515,3.000 12.022 C 3.000 7.357,2.983 7.623,3.303 7.303 C 3.632 6.974,2.892 7.000,12.000 7.000 C 21.050 7.000,20.364 6.978,20.679 7.283 C 20.996 7.591,20.978 7.404,21.000 10.523 L 21.020 13.306 21.141 13.503 C 21.543 14.156,22.457 14.156,22.859 13.503 L 22.980 13.306 22.980 10.383 L 22.980 7.460 22.886 7.160 C 22.581 6.182,21.832 5.428,20.861 5.121 L 20.540 5.020 12.120 5.014 C 7.489 5.011,3.609 5.024,3.499 5.043 M11.499 9.040 C 10.363 9.246,9.460 10.049,9.114 11.160 C 8.979 11.594,8.979 12.406,9.114 12.840 C 9.421 13.826,10.174 14.579,11.160 14.886 C 11.594 15.021,12.406 15.021,12.840 14.886 C 13.826 14.579,14.579 13.826,14.886 12.840 C 15.021 12.406,15.021 11.594,14.886 11.160 C 14.581 10.179,13.810 9.407,12.861 9.129 C 12.500 9.023,11.832 8.980,11.499 9.040 M5.695 11.055 C 5.464 11.130,5.255 11.300,5.128 11.516 C 5.037 11.672,5.020 11.746,5.020 12.000 C 5.020 12.257,5.036 12.327,5.133 12.492 C 5.651 13.374,6.998 13.018,6.998 12.000 C 6.998 11.623,6.792 11.281,6.463 11.112 C 6.265 11.010,5.911 10.984,5.695 11.055 M12.310 11.061 C 12.688 11.173,13.000 11.598,13.000 12.001 C 13.000 12.331,12.784 12.696,12.484 12.872 C 12.328 12.963,12.254 12.980,12.000 12.980 C 11.746 12.980,11.672 12.963,11.516 12.872 C 10.935 12.530,10.833 11.774,11.304 11.303 C 11.583 11.024,11.916 10.944,12.310 11.061 M17.695 11.055 C 17.464 11.130,17.255 11.300,17.128 11.516 C 17.037 11.672,17.020 11.746,17.020 12.000 C 17.020 12.257,17.036 12.327,17.133 12.492 C 17.651 13.374,18.998 13.018,18.998 12.000 C 18.998 11.623,18.792 11.281,18.463 11.112 C 18.265 11.010,17.911 10.984,17.695 11.055 M18.580 15.096 C 18.424 15.171,18.029 15.545,16.774 16.806 C 15.891 17.694,15.135 18.483,15.095 18.560 C 15.043 18.659,15.021 18.788,15.021 19.000 C 15.020 19.258,15.036 19.327,15.133 19.492 C 15.263 19.714,15.502 19.901,15.736 19.965 C 15.939 20.019,16.267 19.989,16.445 19.899 C 16.519 19.861,16.899 19.514,17.289 19.128 L 17.997 18.426 18.009 20.366 L 18.020 22.306 18.141 22.503 C 18.543 23.156,19.457 23.156,19.859 22.503 L 19.980 22.306 19.991 20.366 L 20.003 18.426 20.711 19.128 C 21.101 19.514,21.483 19.864,21.560 19.904 C 21.660 19.957,21.787 19.979,22.000 19.979 C 22.258 19.980,22.327 19.964,22.492 19.867 C 22.714 19.737,22.901 19.498,22.965 19.264 C 23.019 19.061,22.989 18.733,22.899 18.555 C 22.862 18.481,22.109 17.694,21.226 16.806 C 19.472 15.043,19.420 15.001,19.000 15.001 C 18.851 15.001,18.716 15.031,18.580 15.096 " stroke="none" fill-rule="evenodd" fill="#000000"></path></svg>