<svg  xmlns="http://www.w3.org/2000/svg" width="24" height="24" viewBox="0 0 24 24" fill="none" stroke="currentColor" stroke-width="2" stroke-linecap="round" stroke-linejoin="round"><path d="M11.541 1.042 C 11.238 1.089,10.963 1.179,10.660 1.331 C 10.366 1.478,3.476 5.413,3.280 5.546 C 3.086 5.677,2.693 6.067,2.561 6.260 C 2.391 6.507,2.217 6.873,2.114 7.201 L 2.020 7.500 2.020 11.980 C 2.020 16.148,2.025 16.478,2.091 16.720 C 2.171 17.011,2.381 17.477,2.537 17.707 C 2.700 17.949,3.114 18.347,3.378 18.517 C 3.797 18.786,10.364 22.525,10.700 22.685 C 11.176 22.913,11.464 22.978,12.000 22.978 C 12.704 22.978,13.039 22.864,14.070 22.274 C 14.738 21.892,14.872 21.750,14.963 21.321 C 15.084 20.761,14.595 20.187,13.998 20.187 C 13.745 20.187,13.612 20.231,13.273 20.428 C 13.149 20.501,13.036 20.560,13.023 20.560 C 13.010 20.560,13.000 18.765,13.000 16.570 L 13.001 12.580 13.130 12.506 C 13.726 12.164,17.865 9.788,18.800 9.252 L 19.980 8.574 20.000 9.677 C 20.019 10.711,20.025 10.790,20.106 10.940 C 20.302 11.302,20.601 11.481,21.009 11.479 C 21.319 11.478,21.530 11.388,21.724 11.172 C 22.004 10.862,22.006 10.847,21.990 9.079 C 21.975 7.299,21.974 7.293,21.662 6.660 C 21.472 6.273,21.266 6.007,20.933 5.717 C 20.726 5.537,13.790 1.540,13.239 1.284 C 13.096 1.217,12.873 1.136,12.743 1.102 C 12.439 1.023,11.848 0.994,11.541 1.042 M12.289 3.053 C 12.437 3.100,18.957 6.802,18.958 6.840 C 18.959 6.870,16.547 8.240,16.493 8.240 C 16.461 8.240,10.215 4.689,9.547 4.291 C 9.503 4.265,11.494 3.124,11.700 3.057 C 11.898 2.993,12.094 2.992,12.289 3.053 M10.895 7.365 C 12.746 8.423,14.310 9.320,14.371 9.357 L 14.482 9.426 13.241 10.136 L 11.999 10.847 8.520 8.854 C 6.607 7.757,5.042 6.851,5.042 6.840 C 5.043 6.815,7.448 5.443,7.495 5.441 C 7.514 5.441,9.044 6.306,10.895 7.365 M9.630 11.794 L 11.000 12.580 11.000 16.573 C 11.000 18.776,10.985 20.561,10.966 20.553 C 10.947 20.546,9.467 19.703,7.677 18.680 C 5.445 17.405,4.374 16.771,4.271 16.665 C 3.990 16.376,4.000 16.543,4.000 12.335 L 4.000 8.564 6.130 9.786 C 7.302 10.458,8.876 11.362,9.630 11.794 M17.873 13.060 C 17.136 13.200,16.468 13.565,15.958 14.105 C 15.559 14.527,15.314 14.957,15.133 15.548 C 15.038 15.863,15.026 15.963,15.026 16.500 C 15.026 17.037,15.038 17.137,15.133 17.452 C 15.501 18.656,16.345 19.501,17.548 19.866 C 17.857 19.960,17.971 19.973,18.480 19.976 C 19.108 19.979,19.431 19.916,19.932 19.691 L 20.164 19.587 20.792 20.209 C 21.137 20.551,21.483 20.864,21.560 20.904 C 21.660 20.957,21.786 20.979,22.000 20.979 C 22.258 20.980,22.327 20.964,22.492 20.867 C 22.714 20.737,22.901 20.498,22.965 20.264 C 23.019 20.061,22.989 19.733,22.898 19.555 C 22.861 19.481,22.551 19.137,22.209 18.792 L 21.587 18.164 21.691 17.932 C 22.354 16.449,21.903 14.699,20.602 13.712 C 20.268 13.459,19.784 13.224,19.378 13.118 C 18.959 13.009,18.280 12.983,17.873 13.060 M19.119 15.143 C 19.417 15.279,19.727 15.592,19.865 15.896 C 19.960 16.105,19.976 16.192,19.976 16.500 C 19.976 16.808,19.960 16.895,19.865 17.104 C 19.725 17.413,19.417 17.720,19.100 17.868 C 18.893 17.965,18.810 17.980,18.500 17.980 C 18.190 17.980,18.107 17.965,17.900 17.868 C 17.583 17.720,17.275 17.413,17.135 17.104 C 17.040 16.896,17.024 16.808,17.024 16.500 C 17.023 16.191,17.039 16.106,17.134 15.900 C 17.327 15.478,17.749 15.129,18.174 15.039 C 18.441 14.982,18.870 15.030,19.119 15.143 " stroke="none" fill-rule="evenodd" fill="#000000"></path></svg>