<svg  xmlns="http://www.w3.org/2000/svg" width="24" height="24" viewBox="0 0 24 24" fill="none" stroke="currentColor" stroke-width="2" stroke-linecap="round" stroke-linejoin="round"><path d="M11.340 1.024 C 10.026 1.160,9.091 1.415,8.060 1.918 C 6.244 2.804,4.840 4.202,3.939 6.020 C 3.326 7.257,2.999 8.633,3.000 9.980 C 3.003 13.237,5.032 16.964,8.917 20.841 C 10.818 22.739,11.271 23.044,12.114 22.991 C 12.455 22.969,12.805 22.859,13.062 22.691 C 13.316 22.525,14.182 21.738,14.275 21.588 C 14.684 20.927,14.204 20.078,13.423 20.081 C 13.087 20.082,12.929 20.166,12.454 20.594 C 12.231 20.795,12.026 20.960,11.999 20.960 C 11.933 20.960,11.411 20.487,10.585 19.680 C 7.470 16.635,5.558 13.646,5.096 11.098 C 5.009 10.615,4.998 9.512,5.076 9.000 C 5.550 5.901,7.943 3.515,11.020 3.076 C 11.783 2.967,12.907 3.022,13.660 3.205 C 16.422 3.876,18.523 6.197,18.924 9.020 C 18.991 9.494,18.992 10.581,18.926 10.960 C 18.795 11.702,18.584 12.389,18.238 13.200 C 17.953 13.866,17.933 13.965,18.020 14.267 C 18.107 14.570,18.407 14.878,18.692 14.958 C 19.069 15.063,19.475 14.939,19.730 14.640 C 20.014 14.309,20.622 12.672,20.814 11.720 C 21.207 9.780,20.958 7.844,20.084 6.060 C 18.773 3.384,16.266 1.546,13.320 1.101 C 12.911 1.039,11.662 0.991,11.340 1.024 M11.358 6.061 C 10.230 6.237,9.143 6.974,8.569 7.953 C 7.320 10.083,8.233 12.785,10.512 13.704 C 12.558 14.528,14.877 13.538,15.704 11.488 C 16.090 10.530,16.090 9.469,15.705 8.516 C 15.172 7.197,14.001 6.269,12.605 6.058 C 12.144 5.989,11.816 5.990,11.358 6.061 M12.523 8.073 C 13.262 8.266,13.850 8.924,13.967 9.690 C 14.067 10.343,13.873 10.933,13.403 11.404 C 13.002 11.807,12.547 12.000,12.000 12.000 C 11.485 12.000,11.038 11.822,10.653 11.465 C 9.323 10.229,10.189 8.005,12.000 8.005 C 12.143 8.005,12.378 8.036,12.523 8.073 M15.695 17.057 C 15.466 17.129,15.256 17.299,15.128 17.516 C 15.037 17.672,15.020 17.746,15.020 18.000 C 15.020 18.256,15.036 18.328,15.131 18.489 C 15.256 18.702,15.449 18.864,15.670 18.943 C 15.891 19.022,22.109 19.022,22.330 18.943 C 22.551 18.864,22.744 18.702,22.869 18.489 C 22.964 18.328,22.980 18.256,22.980 18.000 C 22.980 17.746,22.963 17.672,22.872 17.516 C 22.740 17.293,22.533 17.128,22.290 17.055 C 22.030 16.977,15.945 16.979,15.695 17.057 " stroke="none" fill-rule="evenodd" fill="#000000"></path></svg>