<svg  xmlns="http://www.w3.org/2000/svg" width="24" height="24" viewBox="0 0 24 24" fill="none" stroke="currentColor" stroke-width="2" stroke-linecap="round" stroke-linejoin="round"><path d="M6.198 1.055 C 5.848 1.130,5.526 1.313,5.229 1.606 C 4.612 2.216,4.462 3.139,4.856 3.911 C 4.909 4.015,5.152 4.341,5.396 4.635 C 5.640 4.929,5.840 5.177,5.840 5.184 C 5.840 5.192,5.355 6.412,4.762 7.896 C 4.169 9.379,3.653 10.707,3.615 10.847 C 3.511 11.226,3.519 11.893,3.633 12.294 C 3.824 12.967,4.199 13.535,4.707 13.920 C 4.862 14.037,5.436 14.354,6.067 14.671 C 6.668 14.973,7.159 15.238,7.158 15.260 C 7.158 15.282,6.972 15.696,6.746 16.179 L 6.335 17.058 6.037 17.160 C 5.131 17.469,4.419 18.204,4.118 19.140 C 4.039 19.386,4.026 19.528,4.010 20.303 C 3.990 21.282,4.014 21.479,4.202 21.877 C 4.348 22.186,4.771 22.623,5.070 22.775 C 5.538 23.012,5.172 23.000,12.000 23.000 C 18.828 23.000,18.462 23.012,18.930 22.775 C 19.196 22.640,19.638 22.200,19.771 21.937 C 19.980 21.526,20.010 21.305,19.990 20.320 C 19.975 19.526,19.962 19.387,19.882 19.140 C 19.630 18.356,19.072 17.693,18.363 17.334 C 18.196 17.249,18.053 17.176,18.045 17.172 C 18.037 17.167,18.147 16.897,18.290 16.572 C 19.431 13.974,19.999 11.486,20.000 9.088 C 20.000 6.840,19.150 4.803,17.574 3.278 C 16.889 2.615,16.335 2.225,15.500 1.817 C 14.620 1.388,13.711 1.132,12.740 1.041 C 12.097 0.981,6.487 0.992,6.198 1.055 M12.564 3.039 C 13.300 3.111,14.002 3.303,14.575 3.589 L 14.849 3.726 14.510 4.073 C 14.125 4.468,14.042 4.604,14.012 4.895 C 13.971 5.295,14.158 5.662,14.508 5.867 C 14.673 5.964,14.742 5.980,15.000 5.979 C 15.392 5.978,15.478 5.930,16.007 5.410 C 16.244 5.177,16.453 5.003,16.477 5.018 C 16.553 5.065,16.981 5.651,17.159 5.952 L 17.332 6.245 16.751 6.832 C 16.431 7.156,16.139 7.481,16.102 7.555 C 15.872 8.007,16.056 8.601,16.508 8.867 C 16.673 8.964,16.742 8.980,17.000 8.979 C 17.347 8.978,17.473 8.925,17.763 8.653 L 17.954 8.475 17.982 8.706 C 18.019 8.995,17.975 10.012,17.898 10.677 C 17.675 12.597,17.148 14.324,16.125 16.490 L 15.884 17.000 12.242 17.000 C 10.239 17.000,8.600 16.986,8.600 16.969 C 8.600 16.951,9.034 16.011,9.564 14.879 C 10.094 13.746,10.571 12.707,10.624 12.569 C 10.736 12.277,10.743 12.123,10.659 11.875 C 10.476 11.340,9.905 11.074,9.347 11.264 C 9.039 11.369,8.882 11.590,8.442 12.540 C 8.206 13.047,8.030 13.380,7.996 13.380 C 7.906 13.380,6.023 12.414,5.883 12.296 C 5.686 12.131,5.556 11.838,5.555 11.557 C 5.554 11.338,5.647 11.086,6.763 8.291 C 7.543 6.340,7.980 5.196,7.991 5.076 C 8.029 4.682,7.998 4.633,6.791 3.190 L 6.633 3.000 9.406 3.001 C 10.932 3.002,12.353 3.019,12.564 3.039 M17.310 19.061 C 17.452 19.103,17.571 19.178,17.697 19.303 C 17.948 19.554,18.000 19.751,18.000 20.447 L 18.000 21.000 12.000 21.000 L 6.000 21.000 6.000 20.447 C 6.000 19.750,6.052 19.554,6.304 19.303 C 6.621 18.985,6.234 19.006,11.983 19.003 C 16.458 19.000,17.131 19.008,17.310 19.061 " stroke="none" fill-rule="evenodd" fill="#000000"></path></svg>