<svg  xmlns="http://www.w3.org/2000/svg" width="24" height="24" viewBox="0 0 24 24" fill="none" stroke="currentColor" stroke-width="2" stroke-linecap="round" stroke-linejoin="round"><path d="M11.280 1.023 C 11.203 1.032,10.951 1.059,10.720 1.083 C 8.852 1.281,6.976 2.029,5.400 3.204 C 4.750 3.688,3.698 4.735,3.226 5.367 C 0.944 8.426,0.382 12.291,1.701 15.867 C 1.893 16.386,2.377 17.371,2.661 17.820 C 3.319 18.860,4.436 20.078,5.367 20.774 C 8.697 23.259,13.015 23.696,16.740 21.923 C 17.881 21.380,18.805 20.719,19.762 19.762 C 20.717 18.808,21.296 18.006,21.860 16.860 C 22.334 15.895,22.638 14.978,22.820 13.962 C 23.368 10.916,22.642 7.871,20.770 5.363 C 20.316 4.755,19.247 3.686,18.640 3.235 C 17.045 2.049,15.365 1.360,13.423 1.096 C 13.000 1.038,11.574 0.990,11.280 1.023 M13.315 3.102 C 15.863 3.475,18.122 4.929,19.560 7.120 C 19.811 7.503,20.332 8.525,20.383 8.732 L 20.410 8.845 20.135 8.668 C 17.872 7.210,15.162 6.301,12.348 6.057 L 12.035 6.030 12.061 5.805 C 12.166 4.884,12.417 3.724,12.636 3.150 C 12.686 3.018,12.723 3.016,13.315 3.102 M10.412 3.642 C 10.282 4.161,10.173 4.755,10.074 5.480 C 10.041 5.717,10.022 6.289,10.022 7.000 C 10.022 8.148,10.040 8.388,10.205 9.378 C 10.297 9.932,10.541 10.903,10.717 11.418 C 10.785 11.614,10.840 11.796,10.840 11.822 C 10.840 11.893,9.921 12.838,9.508 13.191 C 9.106 13.535,8.605 13.920,8.560 13.920 C 8.544 13.920,8.463 13.771,8.380 13.590 C 7.861 12.455,7.477 11.208,7.263 9.960 C 7.085 8.924,7.060 8.595,7.061 7.340 C 7.062 6.125,7.080 5.875,7.247 4.846 L 7.333 4.313 7.497 4.209 C 7.819 4.005,8.630 3.643,9.160 3.467 C 9.603 3.319,10.315 3.137,10.502 3.123 C 10.525 3.121,10.487 3.344,10.412 3.642 M5.037 7.290 C 5.037 8.330,5.074 8.893,5.203 9.780 C 5.442 11.429,5.932 13.083,6.605 14.517 C 6.713 14.747,6.788 14.948,6.771 14.963 C 6.720 15.011,6.006 15.304,5.574 15.453 C 5.151 15.600,4.089 15.880,3.954 15.880 C 3.757 15.880,3.263 14.388,3.094 13.280 C 2.997 12.646,2.997 11.354,3.094 10.720 C 3.329 9.184,3.911 7.784,4.812 6.590 C 4.924 6.441,5.021 6.320,5.027 6.320 C 5.033 6.320,5.038 6.756,5.037 7.290 M12.660 8.099 C 15.576 8.425,18.319 9.593,20.596 11.476 L 21.011 11.820 20.986 12.354 C 20.958 12.941,20.875 13.564,20.759 14.064 C 20.661 14.486,20.444 15.160,20.407 15.160 C 20.391 15.160,20.252 15.033,20.099 14.877 C 18.725 13.482,16.674 12.241,14.640 11.574 C 14.173 11.421,13.452 11.237,13.010 11.159 L 12.720 11.107 12.584 10.684 C 12.398 10.105,12.258 9.515,12.165 8.920 C 12.043 8.138,12.035 8.040,12.091 8.040 C 12.118 8.041,12.374 8.067,12.660 8.099 M12.826 13.160 C 13.415 13.280,14.155 13.505,14.750 13.743 C 15.041 13.860,15.308 13.972,15.342 13.991 C 15.473 14.064,14.491 15.311,13.601 16.202 C 11.991 17.814,10.206 18.959,8.116 19.720 L 7.653 19.888 7.336 19.698 C 6.641 19.278,5.870 18.638,5.331 18.035 L 5.031 17.700 5.226 17.649 C 5.735 17.516,6.803 17.142,7.304 16.921 C 8.065 16.584,8.705 16.230,9.440 15.740 C 10.435 15.076,11.315 14.321,12.032 13.516 C 12.245 13.277,12.423 13.080,12.426 13.080 C 12.429 13.080,12.609 13.116,12.826 13.160 M17.578 15.335 C 18.348 15.922,19.400 16.933,19.400 17.088 C 19.400 17.181,18.743 17.978,18.322 18.394 C 17.596 19.112,16.911 19.600,15.980 20.061 C 15.343 20.377,14.552 20.658,13.908 20.797 C 12.868 21.021,11.588 21.060,10.643 20.897 C 10.509 20.874,10.517 20.868,10.963 20.634 C 12.392 19.884,13.781 18.856,14.982 17.660 C 15.696 16.949,16.525 15.957,16.979 15.270 C 17.063 15.143,17.145 15.040,17.161 15.040 C 17.177 15.040,17.364 15.173,17.578 15.335 " stroke="none" fill-rule="evenodd" fill="#000000"></path></svg>