<svg  xmlns="http://www.w3.org/2000/svg" width="24" height="24" viewBox="0 0 24 24" fill="none" stroke="currentColor" stroke-width="2" stroke-linecap="round" stroke-linejoin="round"><path d="M5.499 1.042 C 4.388 1.232,3.488 2.024,3.114 3.140 L 3.020 3.420 3.009 7.856 C 2.996 12.793,2.982 12.520,3.268 12.815 C 3.495 13.049,3.696 13.137,4.000 13.137 C 4.304 13.137,4.505 13.049,4.731 12.815 C 5.014 12.524,5.000 12.773,5.000 8.100 C 5.000 3.348,4.983 3.624,5.303 3.303 C 5.621 2.986,5.423 3.000,9.447 3.000 L 13.000 3.000 13.000 5.132 C 13.000 7.443,13.004 7.494,13.225 7.930 C 13.361 8.199,13.801 8.639,14.070 8.775 C 14.506 8.996,14.557 9.000,16.868 9.000 L 19.000 9.000 19.000 14.554 C 19.000 19.144,18.990 20.139,18.945 20.290 C 18.872 20.533,18.707 20.740,18.484 20.872 L 18.300 20.980 16.340 21.000 C 14.431 21.019,14.376 21.022,14.219 21.106 C 13.852 21.303,13.663 21.607,13.663 22.000 C 13.663 22.304,13.751 22.505,13.985 22.732 C 14.267 23.006,14.271 23.006,16.547 22.991 C 18.547 22.978,18.585 22.976,18.860 22.885 C 19.846 22.558,20.581 21.816,20.886 20.840 L 20.980 20.540 20.980 13.980 L 20.980 7.420 20.868 7.060 C 20.732 6.627,20.505 6.192,20.241 5.863 C 19.921 5.464,16.162 1.748,15.920 1.592 C 15.585 1.376,15.319 1.252,14.932 1.131 L 14.580 1.020 10.140 1.014 C 7.698 1.011,5.609 1.024,5.499 1.042 M16.800 5.220 L 18.580 7.000 16.790 7.000 L 15.000 7.000 15.000 5.220 C 15.000 4.241,15.005 3.440,15.010 3.440 C 15.016 3.440,15.821 4.241,16.800 5.220 M4.640 15.069 C 4.488 15.121,4.208 15.381,2.847 16.735 C 1.960 17.618,1.186 18.421,1.127 18.520 C 1.037 18.672,1.020 18.746,1.020 19.000 C 1.020 19.254,1.036 19.328,1.127 19.480 C 1.261 19.704,4.371 22.807,4.555 22.899 C 5.009 23.128,5.601 22.944,5.867 22.492 C 5.964 22.327,5.980 22.258,5.979 22.000 C 5.979 21.787,5.957 21.659,5.905 21.560 C 5.864 21.483,5.289 20.876,4.626 20.210 L 3.422 19.000 4.626 17.790 C 5.289 17.125,5.864 16.517,5.905 16.440 C 5.957 16.341,5.979 16.213,5.979 16.000 C 5.980 15.745,5.964 15.672,5.872 15.516 C 5.617 15.083,5.121 14.902,4.640 15.069 M8.670 15.061 C 8.448 15.142,8.250 15.309,8.128 15.516 C 8.036 15.672,8.020 15.745,8.021 16.000 C 8.021 16.213,8.043 16.341,8.095 16.440 C 8.136 16.517,8.711 17.125,9.374 17.790 L 10.578 19.000 9.374 20.210 C 8.711 20.876,8.138 21.481,8.101 21.555 C 7.872 22.009,8.056 22.601,8.508 22.867 C 8.673 22.964,8.742 22.980,9.000 22.979 C 9.212 22.979,9.341 22.957,9.440 22.905 C 9.632 22.804,12.739 19.704,12.873 19.480 C 12.964 19.328,12.980 19.254,12.980 19.000 C 12.980 18.746,12.963 18.672,12.873 18.520 C 12.814 18.421,12.040 17.618,11.153 16.736 C 9.714 15.305,9.519 15.124,9.343 15.066 C 9.108 14.987,8.875 14.986,8.670 15.061 " stroke="none" fill-rule="evenodd" fill="#000000"></path></svg>