<svg  xmlns="http://www.w3.org/2000/svg" width="24" height="24" viewBox="0 0 24 24" fill="none" stroke="currentColor" stroke-width="2" stroke-linecap="round" stroke-linejoin="round"><path d="M5.499 1.042 C 4.378 1.234,3.461 2.048,3.114 3.160 L 3.020 3.460 3.020 7.383 L 3.020 11.306 3.141 11.503 C 3.543 12.156,4.457 12.156,4.859 11.503 L 4.980 11.306 5.000 7.523 C 5.022 3.284,4.999 3.596,5.321 3.283 C 5.625 2.989,5.459 3.000,9.447 3.000 L 13.000 3.000 13.000 5.132 C 13.000 7.443,13.004 7.494,13.225 7.930 C 13.361 8.199,13.801 8.639,14.070 8.775 C 14.506 8.996,14.557 9.000,16.868 9.000 L 19.000 9.000 19.000 14.554 C 19.000 19.144,18.990 20.139,18.945 20.290 C 18.872 20.533,18.707 20.740,18.484 20.872 L 18.300 20.980 12.000 20.980 L 5.700 20.980 5.516 20.872 C 5.415 20.813,5.284 20.700,5.225 20.623 C 5.005 20.335,5.000 20.288,5.000 18.522 C 5.000 16.645,5.006 16.600,5.300 16.306 C 5.614 15.992,5.539 16.000,8.216 16.000 L 10.577 16.000 9.873 16.710 C 9.486 17.101,9.136 17.483,9.096 17.560 C 9.043 17.660,9.021 17.787,9.021 18.000 C 9.020 18.258,9.036 18.327,9.133 18.492 C 9.263 18.714,9.502 18.901,9.736 18.965 C 9.939 19.019,10.267 18.989,10.445 18.899 C 10.519 18.862,11.306 18.109,12.194 17.226 C 13.957 15.472,13.999 15.420,13.999 15.000 C 13.999 14.578,13.960 14.530,12.175 12.754 C 10.616 11.203,10.530 11.125,10.323 11.064 C 10.057 10.986,9.946 10.984,9.710 11.055 C 9.467 11.128,9.260 11.293,9.128 11.516 C 9.036 11.672,9.020 11.745,9.021 12.000 C 9.021 12.213,9.043 12.340,9.096 12.440 C 9.136 12.517,9.485 12.899,9.871 13.288 L 10.573 13.996 8.017 14.009 L 5.460 14.022 5.139 14.122 C 4.171 14.425,3.419 15.181,3.114 16.160 C 3.021 16.458,3.020 16.473,3.020 18.500 C 3.020 20.527,3.021 20.542,3.114 20.840 C 3.422 21.827,4.173 22.578,5.160 22.886 L 5.460 22.980 12.000 22.980 L 18.540 22.980 18.840 22.886 C 19.827 22.578,20.578 21.827,20.886 20.840 L 20.980 20.540 20.980 13.980 L 20.980 7.420 20.868 7.060 C 20.732 6.627,20.505 6.192,20.241 5.863 C 19.921 5.464,16.162 1.748,15.920 1.592 C 15.585 1.376,15.319 1.252,14.932 1.131 L 14.580 1.020 10.140 1.014 C 7.698 1.011,5.609 1.024,5.499 1.042 M16.800 5.220 L 18.580 7.000 16.790 7.000 L 15.000 7.000 15.000 5.220 C 15.000 4.241,15.005 3.440,15.010 3.440 C 15.016 3.440,15.821 4.241,16.800 5.220 " stroke="none" fill-rule="evenodd" fill="#000000"></path></svg>