<svg  xmlns="http://www.w3.org/2000/svg" width="24" height="24" viewBox="0 0 24 24" fill="none" stroke="currentColor" stroke-width="2" stroke-linecap="round" stroke-linejoin="round"><path d="M5.499 1.043 C 4.379 1.234,3.461 2.048,3.114 3.160 L 3.020 3.460 3.020 12.000 L 3.020 20.540 3.114 20.840 C 3.422 21.827,4.173 22.578,5.160 22.886 L 5.460 22.980 12.000 22.980 L 18.540 22.980 18.840 22.886 C 19.827 22.578,20.578 21.827,20.886 20.840 L 20.980 20.540 20.980 13.980 L 20.980 7.420 20.868 7.060 C 20.728 6.613,20.498 6.179,20.219 5.840 C 19.855 5.397,16.159 1.747,15.910 1.585 C 15.591 1.378,15.236 1.218,14.860 1.111 L 14.540 1.021 10.120 1.015 C 7.689 1.011,5.609 1.024,5.499 1.043 M13.000 5.132 C 13.000 7.443,13.004 7.494,13.225 7.930 C 13.361 8.199,13.801 8.639,14.070 8.775 C 14.506 8.996,14.557 9.000,16.868 9.000 L 19.000 9.000 19.000 14.554 C 19.000 19.144,18.990 20.139,18.945 20.290 C 18.872 20.533,18.707 20.740,18.484 20.872 L 18.300 20.980 12.000 20.980 L 5.700 20.980 5.516 20.872 C 5.415 20.813,5.284 20.700,5.225 20.623 C 4.985 20.308,5.000 20.888,5.000 12.022 C 5.000 2.888,4.974 3.632,5.304 3.303 C 5.615 2.991,5.409 3.006,9.430 3.003 L 13.000 3.000 13.000 5.132 M16.800 5.220 L 18.580 7.000 16.790 7.000 L 15.000 7.000 15.000 5.220 C 15.000 4.241,15.005 3.440,15.010 3.440 C 15.016 3.440,15.821 4.241,16.800 5.220 M11.695 11.057 C 11.466 11.129,11.256 11.299,11.128 11.516 L 11.020 11.700 11.008 12.850 L 10.995 14.000 9.944 14.000 C 8.797 14.000,8.643 14.022,8.382 14.221 C 8.302 14.282,8.187 14.415,8.128 14.516 C 8.037 14.672,8.020 14.746,8.020 15.000 C 8.020 15.256,8.036 15.328,8.131 15.489 C 8.192 15.592,8.304 15.725,8.381 15.783 C 8.642 15.983,8.738 15.996,9.908 15.998 L 10.995 16.000 11.008 17.153 L 11.020 18.307 11.141 18.503 C 11.543 19.156,12.457 19.156,12.859 18.503 L 12.980 18.307 12.992 17.153 L 13.005 16.000 14.092 15.998 C 15.262 15.996,15.358 15.983,15.619 15.783 C 15.696 15.725,15.808 15.592,15.869 15.489 C 15.964 15.328,15.980 15.256,15.980 15.000 C 15.980 14.746,15.963 14.672,15.872 14.516 C 15.813 14.415,15.698 14.282,15.618 14.221 C 15.357 14.022,15.203 14.000,14.056 14.000 L 13.005 14.000 12.992 12.850 L 12.980 11.700 12.872 11.516 C 12.628 11.101,12.150 10.915,11.695 11.057 " stroke="none" fill-rule="evenodd" fill="#000000"></path></svg>