<svg  xmlns="http://www.w3.org/2000/svg" width="24" height="24" viewBox="0 0 24 24" fill="none" stroke="currentColor" stroke-width="2" stroke-linecap="round" stroke-linejoin="round"><path d="M3.499 2.042 C 2.376 2.236,1.461 3.048,1.114 4.160 L 1.020 4.460 1.020 11.500 L 1.020 18.540 1.114 18.840 C 1.419 19.817,2.155 20.559,3.140 20.885 C 3.413 20.975,3.464 20.977,5.266 20.991 C 6.485 21.000,7.166 20.991,7.270 20.963 C 7.498 20.901,7.738 20.712,7.867 20.492 C 7.964 20.327,7.980 20.257,7.980 20.000 C 7.980 19.746,7.963 19.672,7.872 19.516 C 7.761 19.327,7.571 19.158,7.373 19.071 C 7.291 19.035,6.768 19.015,5.480 19.001 L 3.700 18.980 3.516 18.872 C 3.303 18.747,3.141 18.550,3.058 18.316 C 2.968 18.060,2.971 4.993,3.061 4.690 C 3.144 4.411,3.411 4.144,3.690 4.061 C 3.979 3.975,7.928 3.970,8.211 4.055 C 8.507 4.144,8.610 4.247,9.046 4.890 C 9.684 5.829,9.891 6.093,10.166 6.316 C 10.497 6.583,10.975 6.817,11.400 6.918 C 11.730 6.997,11.861 6.999,15.923 7.000 C 20.611 7.000,20.372 6.986,20.679 7.283 C 20.886 7.485,20.951 7.636,21.001 8.031 C 21.049 8.410,21.184 8.647,21.452 8.828 C 21.923 9.144,22.554 8.998,22.859 8.503 C 22.974 8.315,22.980 8.285,22.978 7.883 C 22.977 7.559,22.955 7.390,22.885 7.160 C 22.587 6.188,21.831 5.427,20.861 5.122 L 20.540 5.021 16.160 5.000 L 11.780 4.980 11.613 4.891 C 11.409 4.781,11.285 4.629,10.759 3.840 C 10.204 3.007,9.805 2.605,9.278 2.346 C 8.596 2.011,8.723 2.024,6.060 2.015 C 4.762 2.011,3.609 2.023,3.499 2.042 M15.540 9.023 C 14.478 9.125,13.692 9.335,12.910 9.726 C 10.838 10.762,9.448 12.666,9.074 14.980 C 9.008 15.393,9.008 16.607,9.074 17.020 C 9.574 20.112,11.888 22.426,14.980 22.926 C 15.392 22.992,16.607 22.992,17.020 22.926 C 20.109 22.428,22.428 20.109,22.926 17.020 C 22.954 16.844,22.977 16.385,22.977 16.000 C 22.977 15.056,22.876 14.462,22.573 13.620 C 21.715 11.237,19.581 9.473,17.102 9.098 C 16.726 9.041,15.813 8.997,15.540 9.023 M16.552 11.043 C 18.413 11.246,20.001 12.479,20.680 14.248 C 21.092 15.320,21.085 16.720,20.663 17.793 C 20.120 19.174,18.991 20.256,17.600 20.732 C 17.044 20.922,16.670 20.980,16.000 20.980 C 15.330 20.980,14.956 20.922,14.400 20.732 C 12.808 20.188,11.580 18.864,11.161 17.240 C 10.920 16.307,10.983 15.125,11.320 14.248 C 12.146 12.096,14.274 10.793,16.552 11.043 M15.695 13.057 C 15.466 13.129,15.256 13.299,15.128 13.516 L 15.020 13.700 15.008 15.014 C 14.994 16.498,15.008 16.595,15.273 16.868 C 15.445 17.044,17.126 18.104,17.325 18.161 C 18.091 18.381,18.793 17.641,18.540 16.881 C 18.444 16.592,18.280 16.443,17.592 16.020 L 17.006 15.660 16.993 14.680 L 16.980 13.700 16.872 13.516 C 16.628 13.101,16.150 12.915,15.695 13.057 " stroke="none" fill-rule="evenodd" fill="#000000"></path></svg>