<svg  xmlns="http://www.w3.org/2000/svg" width="24" height="24" viewBox="0 0 24 24" fill="none" stroke="currentColor" stroke-width="2" stroke-linecap="round" stroke-linejoin="round"><path d="M1.670 1.061 C 1.448 1.142,1.250 1.309,1.128 1.516 C 1.036 1.672,1.020 1.745,1.021 2.000 C 1.021 2.214,1.043 2.340,1.096 2.440 C 1.137 2.517,1.397 2.810,1.674 3.091 L 2.178 3.602 1.968 3.803 C 1.527 4.227,1.288 4.606,1.114 5.161 L 1.020 5.460 1.020 12.000 L 1.020 18.540 1.114 18.840 C 1.418 19.816,2.149 20.554,3.140 20.886 L 3.420 20.980 11.500 20.991 L 19.579 21.001 20.500 21.916 C 21.006 22.419,21.483 22.864,21.560 22.905 C 21.659 22.957,21.787 22.979,22.000 22.979 C 22.258 22.980,22.327 22.964,22.492 22.867 C 22.968 22.587,23.139 21.967,22.865 21.508 C 22.810 21.416,18.215 16.793,12.653 11.235 C 3.300 1.889,2.525 1.125,2.343 1.065 C 2.107 0.987,1.874 0.986,1.670 1.061 M9.400 3.037 C 9.094 3.131,8.808 3.395,8.718 3.665 C 8.645 3.881,8.652 4.155,8.735 4.373 C 8.821 4.598,9.126 4.885,9.351 4.952 C 9.470 4.988,10.830 5.000,14.807 5.000 C 20.779 5.000,20.373 4.979,20.697 5.303 C 21.014 5.621,21.000 5.424,21.000 9.444 L 21.000 12.994 20.190 13.007 C 19.449 13.019,19.366 13.027,19.217 13.107 C 18.583 13.447,18.474 14.259,18.999 14.731 C 19.105 14.827,19.263 14.926,19.351 14.952 C 19.449 14.982,19.794 15.000,20.255 15.000 L 21.000 15.000 21.000 15.745 C 21.000 16.206,21.018 16.551,21.048 16.649 C 21.115 16.874,21.402 17.179,21.627 17.265 C 21.862 17.355,22.138 17.355,22.373 17.265 C 22.607 17.175,22.891 16.867,22.956 16.632 C 22.992 16.502,23.000 15.105,22.992 10.940 L 22.980 5.420 22.886 5.140 C 22.556 4.158,21.821 3.425,20.861 3.121 L 20.540 3.020 15.020 3.013 C 11.984 3.009,9.455 3.020,9.400 3.037 M7.620 9.040 L 11.580 13.000 7.290 13.000 L 3.000 13.000 3.000 9.446 C 3.000 5.646,2.999 5.669,3.198 5.412 C 3.297 5.283,3.554 5.080,3.617 5.080 C 3.641 5.080,5.442 6.862,7.620 9.040 M11.000 17.001 L 11.000 19.002 7.350 18.991 L 3.700 18.980 3.516 18.872 C 3.415 18.813,3.284 18.700,3.225 18.623 C 3.006 18.336,3.000 18.283,3.000 16.575 L 3.000 15.000 7.000 15.000 L 11.000 15.000 11.000 17.001 M15.580 17.000 L 17.580 19.000 15.290 19.000 L 13.000 19.000 13.000 17.000 L 13.000 15.000 13.290 15.000 L 13.580 15.000 15.580 17.000 " stroke="none" fill-rule="evenodd" fill="#000000"></path></svg>