<svg  xmlns="http://www.w3.org/2000/svg" width="24" height="24" viewBox="0 0 24 24" fill="none" stroke="currentColor" stroke-width="2" stroke-linecap="round" stroke-linejoin="round"><path d="M10.358 2.061 C 9.230 2.237,8.143 2.974,7.569 3.953 C 6.320 6.083,7.233 8.785,9.512 9.704 C 10.139 9.957,10.477 10.000,11.815 10.000 L 12.997 10.000 13.009 12.153 L 13.020 14.306 13.141 14.503 C 13.543 15.156,14.457 15.156,14.859 14.503 L 14.980 14.306 14.991 9.153 L 15.001 4.000 16.000 4.000 L 16.999 4.000 17.009 9.153 L 17.020 14.306 17.141 14.503 C 17.543 15.156,18.457 15.156,18.859 14.503 L 18.980 14.306 18.991 9.153 L 19.001 4.000 19.591 3.998 C 19.977 3.997,20.232 3.978,20.330 3.943 C 20.551 3.864,20.744 3.702,20.869 3.489 C 20.964 3.328,20.980 3.256,20.980 3.000 C 20.980 2.746,20.963 2.672,20.872 2.516 C 20.740 2.293,20.533 2.128,20.290 2.055 C 20.026 1.976,10.870 1.981,10.358 2.061 M13.000 6.000 L 13.000 8.000 11.868 8.000 C 10.650 8.000,10.471 7.978,10.083 7.781 C 9.975 7.727,9.782 7.585,9.653 7.465 C 8.665 6.547,8.829 4.981,9.987 4.279 C 10.390 4.035,10.597 4.005,11.870 4.002 L 13.000 4.000 13.000 6.000 M5.640 13.068 C 5.486 13.121,5.148 13.441,3.326 15.255 C 1.001 17.569,1.001 17.569,1.001 18.000 C 1.001 18.429,1.004 18.433,3.306 20.726 C 4.469 21.884,5.483 22.865,5.560 22.905 C 5.659 22.957,5.788 22.979,6.000 22.979 C 6.258 22.980,6.327 22.964,6.492 22.867 C 6.714 22.737,6.901 22.498,6.965 22.264 C 7.019 22.061,6.989 21.733,6.899 21.555 C 6.862 21.481,6.289 20.876,5.626 20.210 L 4.422 19.000 13.301 18.998 C 20.614 18.997,22.206 18.987,22.330 18.943 C 22.551 18.864,22.744 18.702,22.869 18.489 C 22.964 18.328,22.980 18.256,22.980 18.000 C 22.980 17.746,22.963 17.672,22.872 17.516 C 22.740 17.293,22.533 17.128,22.290 17.055 C 22.138 17.009,20.641 17.000,13.265 17.000 L 4.422 17.000 5.626 15.790 C 6.289 15.125,6.864 14.517,6.905 14.440 C 6.957 14.341,6.979 14.213,6.979 14.000 C 6.980 13.745,6.964 13.672,6.872 13.516 C 6.617 13.083,6.121 12.903,5.640 13.068 " stroke="none" fill-rule="evenodd" fill="#000000"></path></svg>