<svg  xmlns="http://www.w3.org/2000/svg" width="24" height="24" viewBox="0 0 24 24" fill="none" stroke="currentColor" stroke-width="2" stroke-linecap="round" stroke-linejoin="round"><path d="M6.380 1.056 C 5.726 1.215,5.178 1.776,5.039 2.427 C 5.012 2.556,5.002 5.863,5.009 12.463 L 5.020 22.306 5.141 22.503 C 5.543 23.156,6.457 23.156,6.859 22.503 L 6.980 22.306 6.991 19.213 L 7.002 16.119 13.071 13.084 C 16.409 11.414,19.224 9.984,19.326 9.905 C 19.710 9.610,20.000 9.006,20.000 8.500 C 20.000 7.993,19.720 7.408,19.331 7.102 C 19.222 7.017,16.619 5.692,13.280 4.023 C 8.841 1.804,7.363 1.082,7.183 1.047 C 6.891 0.989,6.641 0.992,6.380 1.056 M17.720 8.500 C 17.720 8.511,15.308 9.726,12.360 11.200 L 7.000 13.880 7.000 8.500 L 7.000 3.120 12.360 5.800 C 15.308 7.274,17.720 8.489,17.720 8.500 " stroke="none" fill-rule="evenodd" fill="#000000"></path></svg>