<svg  xmlns="http://www.w3.org/2000/svg" width="24" height="24" viewBox="0 0 24 24" fill="none" stroke="currentColor" stroke-width="2" stroke-linecap="round" stroke-linejoin="round"><path d="M1.670 1.061 C 1.448 1.142,1.250 1.309,1.128 1.516 C 1.036 1.672,1.020 1.745,1.021 2.000 C 1.021 2.212,1.043 2.341,1.095 2.440 C 1.135 2.517,2.077 3.490,3.187 4.603 L 5.205 6.626 4.900 7.623 C 4.421 9.188,4.321 9.472,4.095 9.920 C 3.791 10.522,3.567 10.800,2.662 11.700 C 1.782 12.576,1.528 12.907,1.316 13.458 C 1.120 13.965,1.035 14.347,1.012 14.820 C 0.986 15.356,1.039 15.726,1.219 16.266 C 1.379 16.742,3.357 20.723,3.681 21.220 C 4.205 22.022,5.091 22.642,6.060 22.885 C 6.852 23.084,8.607 22.994,10.180 22.675 C 12.691 22.165,15.303 21.081,17.410 19.674 C 17.668 19.501,17.893 19.360,17.910 19.360 C 17.927 19.360,18.705 20.126,19.640 21.063 C 20.575 21.999,21.421 22.813,21.520 22.873 C 21.673 22.964,21.746 22.980,22.000 22.980 C 22.257 22.980,22.327 22.964,22.492 22.867 C 22.968 22.587,23.139 21.967,22.865 21.508 C 22.810 21.416,18.215 16.793,12.653 11.235 C 3.300 1.889,2.525 1.125,2.343 1.065 C 2.107 0.987,1.874 0.986,1.670 1.061 M11.785 1.043 C 10.916 1.120,10.031 1.377,9.180 1.799 C 8.386 2.193,8.090 2.407,7.943 2.693 C 7.649 3.269,7.935 3.925,8.559 4.107 C 8.883 4.202,9.092 4.145,9.645 3.813 C 10.702 3.176,11.792 2.921,12.963 3.036 C 14.105 3.147,15.043 3.513,15.866 4.168 C 17.512 5.475,18.259 7.445,17.896 9.520 C 17.780 10.181,17.567 10.726,17.161 11.398 C 16.852 11.911,16.799 12.121,16.898 12.460 C 16.952 12.648,17.009 12.741,17.162 12.888 C 17.515 13.230,17.946 13.276,18.386 13.018 C 18.674 12.850,19.191 11.978,19.522 11.104 C 19.693 10.653,19.700 10.654,19.835 11.171 C 20.089 12.140,20.038 13.286,19.697 14.307 C 19.483 14.946,19.520 15.238,19.859 15.586 C 20.079 15.812,20.246 15.880,20.580 15.879 C 20.840 15.879,21.148 15.736,21.309 15.540 C 21.539 15.261,21.829 14.302,21.943 13.440 C 22.022 12.837,22.002 11.765,21.901 11.240 C 21.732 10.366,21.687 10.258,20.340 7.492 C 19.630 6.035,18.954 4.693,18.837 4.511 C 17.304 2.112,14.619 0.791,11.785 1.043 M11.860 5.064 C 11.270 5.170,10.959 5.393,10.825 5.807 C 10.744 6.059,10.744 6.131,10.824 6.403 C 10.916 6.712,11.179 6.968,11.500 7.062 C 11.728 7.128,11.756 7.128,12.090 7.060 C 12.527 6.971,12.812 6.998,13.144 7.160 C 13.287 7.230,13.467 7.363,13.577 7.481 C 13.947 7.876,14.066 8.339,13.942 8.897 C 13.836 9.375,13.921 9.687,14.235 9.971 C 14.538 10.245,14.952 10.297,15.350 10.111 C 15.676 9.958,15.839 9.673,15.943 9.077 C 16.135 7.979,15.775 6.848,14.983 6.057 C 14.411 5.485,13.827 5.185,13.040 5.056 C 12.621 4.987,12.277 4.990,11.860 5.064 M13.168 14.702 C 12.988 14.823,12.202 15.220,11.700 15.442 C 9.544 16.396,7.455 16.915,5.478 16.988 C 4.735 17.015,4.534 16.985,4.132 16.791 C 3.539 16.504,3.129 15.931,3.032 15.253 C 2.992 14.975,2.994 14.881,3.051 14.619 C 3.170 14.073,3.264 13.937,4.083 13.120 C 5.638 11.571,5.939 11.056,6.662 8.704 L 6.808 8.228 10.022 11.442 C 12.807 14.226,13.227 14.662,13.168 14.702 M16.268 18.036 C 14.926 18.941,13.084 19.795,11.347 20.318 C 9.974 20.731,8.769 20.939,7.480 20.987 C 6.938 21.006,6.774 20.999,6.560 20.944 C 6.174 20.846,5.891 20.688,5.616 20.420 C 5.411 20.220,5.323 20.085,5.085 19.610 C 4.928 19.297,4.800 19.035,4.800 19.027 C 4.800 19.019,5.120 19.001,5.510 18.987 C 7.476 18.917,9.528 18.467,11.600 17.653 C 12.319 17.371,13.716 16.699,14.320 16.346 L 14.700 16.124 15.588 17.010 L 16.476 17.895 16.268 18.036 " stroke="none" fill-rule="evenodd" fill="#000000"></path></svg>