<svg  xmlns="http://www.w3.org/2000/svg" width="24" height="24" viewBox="0 0 24 24" fill="none" stroke="currentColor" stroke-width="2" stroke-linecap="round" stroke-linejoin="round"><path d="M11.541 1.042 C 11.238 1.089,10.963 1.179,10.660 1.331 C 10.366 1.478,3.476 5.413,3.280 5.546 C 3.086 5.677,2.693 6.067,2.561 6.260 C 2.391 6.507,2.217 6.873,2.114 7.201 L 2.020 7.500 2.020 11.980 C 2.020 16.148,2.025 16.478,2.091 16.720 C 2.171 17.011,2.381 17.477,2.537 17.707 C 2.700 17.949,3.114 18.347,3.378 18.517 C 3.797 18.786,10.364 22.525,10.700 22.685 C 11.176 22.913,11.464 22.978,12.000 22.978 C 12.727 22.978,13.024 22.872,14.216 22.191 C 14.926 21.785,15.086 21.662,15.211 21.424 C 15.331 21.196,15.332 20.765,15.212 20.540 C 15.025 20.188,14.713 19.996,14.326 19.995 C 14.062 19.994,13.950 20.037,13.430 20.337 C 13.218 20.460,13.034 20.560,13.022 20.560 C 13.010 20.560,13.000 18.765,13.000 16.570 L 13.001 12.580 13.130 12.506 C 13.705 12.176,17.861 9.791,18.800 9.252 L 19.980 8.574 20.000 9.997 C 20.017 11.241,20.029 11.436,20.089 11.545 C 20.291 11.915,20.616 12.119,21.003 12.120 C 21.428 12.120,21.852 11.801,21.961 11.397 C 21.989 11.291,21.999 10.615,21.990 9.369 C 21.975 7.265,21.980 7.306,21.662 6.660 C 21.472 6.273,21.266 6.007,20.933 5.717 C 20.726 5.537,13.790 1.540,13.239 1.284 C 13.096 1.217,12.873 1.136,12.743 1.102 C 12.439 1.023,11.848 0.994,11.541 1.042 M12.289 3.053 C 12.437 3.100,18.957 6.802,18.958 6.840 C 18.959 6.870,16.547 8.240,16.493 8.240 C 16.461 8.240,10.215 4.689,9.547 4.291 C 9.503 4.265,11.494 3.124,11.700 3.057 C 11.898 2.993,12.094 2.992,12.289 3.053 M10.895 7.365 C 12.746 8.423,14.310 9.320,14.371 9.357 L 14.482 9.426 13.241 10.136 L 11.999 10.847 8.520 8.854 C 6.607 7.757,5.042 6.851,5.042 6.840 C 5.043 6.815,7.448 5.443,7.495 5.441 C 7.514 5.441,9.044 6.306,10.895 7.365 M9.630 11.794 L 11.000 12.580 11.000 16.573 C 11.000 18.776,10.985 20.561,10.966 20.553 C 10.947 20.546,9.467 19.703,7.677 18.680 C 5.445 17.405,4.374 16.771,4.271 16.665 C 3.990 16.376,4.000 16.543,4.000 12.335 L 4.000 8.564 6.130 9.786 C 7.302 10.458,8.876 11.362,9.630 11.794 M21.640 14.068 C 21.488 14.121,21.196 14.394,19.731 15.853 L 18.002 17.575 17.271 16.855 C 16.655 16.247,16.509 16.123,16.343 16.067 C 15.865 15.905,15.383 16.083,15.128 16.516 C 15.036 16.672,15.020 16.745,15.021 17.000 C 15.021 17.213,15.043 17.341,15.095 17.440 C 15.197 17.633,17.297 19.740,17.520 19.873 C 17.673 19.964,17.745 19.980,18.000 19.979 C 18.212 19.979,18.341 19.957,18.440 19.905 C 18.632 19.805,22.739 15.705,22.873 15.480 C 22.964 15.328,22.980 15.254,22.980 15.000 C 22.980 14.746,22.963 14.672,22.872 14.516 C 22.617 14.083,22.121 13.903,21.640 14.068 " stroke="none" fill-rule="evenodd" fill="#000000"></path></svg>