<svg  xmlns="http://www.w3.org/2000/svg" width="24" height="24" viewBox="0 0 24 24" fill="none" stroke="currentColor" stroke-width="2" stroke-linecap="round" stroke-linejoin="round"><path d="M9.400 2.044 C 7.761 2.229,6.261 3.290,5.526 4.785 C 5.158 5.533,5.020 6.136,5.020 7.000 C 5.020 7.670,5.078 8.044,5.268 8.600 C 5.846 10.291,7.253 11.525,9.040 11.907 C 9.511 12.008,10.489 12.008,10.960 11.907 C 12.488 11.580,13.748 10.630,14.433 9.288 C 14.838 8.494,14.980 7.899,14.980 7.000 C 14.980 6.101,14.838 5.506,14.433 4.713 C 13.794 3.461,12.604 2.510,11.240 2.162 C 10.669 2.016,10.019 1.974,9.400 2.044 M10.861 4.129 C 11.804 4.405,12.584 5.183,12.875 6.139 C 12.958 6.412,12.973 6.542,12.973 7.000 C 12.973 7.458,12.958 7.588,12.875 7.861 C 12.582 8.822,11.819 9.581,10.840 9.886 C 10.406 10.021,9.594 10.021,9.160 9.886 C 8.181 9.581,7.418 8.822,7.125 7.861 C 7.042 7.588,7.027 7.458,7.027 7.000 C 7.027 6.542,7.042 6.412,7.125 6.139 C 7.456 5.054,8.371 4.245,9.499 4.040 C 9.832 3.980,10.500 4.023,10.861 4.129 M16.660 10.964 C 16.301 11.016,15.875 11.243,15.584 11.538 C 15.370 11.755,15.284 11.898,14.881 12.697 C 14.570 13.316,14.397 13.618,14.341 13.639 C 14.297 13.655,13.828 13.734,13.300 13.815 C 12.436 13.946,12.311 13.975,12.046 14.105 C 11.483 14.380,11.072 14.932,10.955 15.571 C 10.888 15.940,10.954 16.360,11.142 16.757 C 11.270 17.027,11.352 17.121,12.047 17.797 L 12.811 18.541 12.683 19.340 C 12.613 19.780,12.539 20.212,12.519 20.300 C 12.436 20.662,12.489 21.078,12.673 21.494 C 13.025 22.289,13.901 22.767,14.769 22.638 C 15.018 22.601,15.201 22.524,16.031 22.107 L 17.001 21.620 17.971 22.109 C 19.078 22.668,19.272 22.725,19.810 22.641 C 20.915 22.470,21.720 21.341,21.481 20.300 C 21.461 20.212,21.387 19.780,21.317 19.341 L 21.189 18.542 21.899 17.848 C 22.680 17.085,22.837 16.884,22.964 16.487 C 23.260 15.556,22.827 14.539,21.951 14.107 C 21.689 13.978,21.565 13.949,20.700 13.816 C 20.172 13.735,19.700 13.654,19.651 13.636 C 19.586 13.612,19.442 13.360,19.111 12.693 C 18.716 11.896,18.630 11.753,18.420 11.538 C 18.133 11.245,17.707 11.022,17.320 10.961 C 17.028 10.916,16.997 10.916,16.660 10.964 M17.459 13.870 C 17.833 14.608,17.936 14.778,18.148 15.003 C 18.402 15.272,18.720 15.474,19.020 15.556 C 19.173 15.598,20.901 15.880,21.007 15.880 C 21.034 15.880,20.713 16.227,20.293 16.650 C 19.503 17.446,19.398 17.588,19.264 18.037 C 19.229 18.157,19.200 18.381,19.200 18.535 C 19.200 18.797,19.457 20.531,19.508 20.613 C 19.541 20.666,19.549 20.670,18.515 20.148 C 17.696 19.735,17.544 19.672,17.290 19.638 C 16.726 19.564,16.538 19.617,15.483 20.148 C 14.432 20.677,14.460 20.664,14.492 20.613 C 14.542 20.531,14.800 18.786,14.800 18.528 C 14.800 18.378,14.771 18.157,14.736 18.037 C 14.603 17.592,14.495 17.445,13.707 16.650 C 13.288 16.227,12.967 15.880,12.994 15.880 C 13.148 15.880,14.873 15.588,15.032 15.535 C 15.350 15.429,15.621 15.250,15.866 14.987 C 16.056 14.782,16.182 14.573,16.540 13.868 C 16.782 13.392,16.989 13.002,17.000 13.001 C 17.011 13.001,17.218 13.392,17.459 13.870 M6.400 14.044 C 4.761 14.229,3.261 15.290,2.526 16.785 C 2.333 17.177,2.187 17.599,2.093 18.040 C 2.030 18.334,2.020 18.579,2.020 19.843 L 2.020 21.306 2.141 21.503 C 2.543 22.156,3.457 22.156,3.859 21.503 L 3.980 21.307 4.003 19.883 C 4.025 18.522,4.031 18.446,4.124 18.139 C 4.417 17.183,5.190 16.411,6.139 16.126 C 6.422 16.041,6.569 16.027,7.380 16.005 C 8.297 15.980,8.301 15.980,8.492 15.867 C 9.248 15.423,9.123 14.306,8.290 14.055 C 8.084 13.993,6.913 13.986,6.400 14.044 " stroke="none" fill-rule="evenodd" fill="#000000"></path></svg>