<svg  xmlns="http://www.w3.org/2000/svg" width="24" height="24" viewBox="0 0 24 24" fill="none" stroke="currentColor" stroke-width="2" stroke-linecap="round" stroke-linejoin="round"><path d="M4.733 3.964 C 4.465 4.013,4.355 4.092,3.943 4.525 C 3.222 5.283,2.633 6.138,2.141 7.140 C 0.789 9.890,0.634 12.967,1.701 15.867 C 1.888 16.376,2.374 17.362,2.662 17.820 C 3.034 18.410,3.550 19.068,3.998 19.526 C 4.381 19.916,4.441 19.962,4.651 20.021 C 5.016 20.124,5.362 20.032,5.637 19.757 C 5.814 19.580,5.886 19.422,5.910 19.154 C 5.942 18.803,5.853 18.621,5.410 18.124 C 4.103 16.660,3.380 15.148,3.094 13.280 C 2.997 12.646,2.997 11.354,3.094 10.720 C 3.246 9.729,3.487 8.953,3.920 8.060 C 4.329 7.215,4.730 6.632,5.462 5.818 C 5.849 5.387,5.941 5.189,5.910 4.846 C 5.885 4.576,5.814 4.420,5.632 4.238 C 5.404 4.010,5.057 3.904,4.733 3.964 M18.893 3.963 C 18.677 4.004,18.519 4.088,18.363 4.243 C 18.190 4.416,18.117 4.572,18.091 4.823 C 18.053 5.196,18.125 5.353,18.570 5.852 C 19.295 6.668,19.720 7.294,20.122 8.140 C 20.725 9.408,20.977 10.545,20.977 12.000 C 20.977 13.455,20.725 14.592,20.122 15.860 C 19.720 16.706,19.295 17.332,18.570 18.148 C 18.125 18.647,18.053 18.804,18.091 19.177 C 18.117 19.428,18.190 19.584,18.363 19.757 C 18.638 20.032,18.984 20.124,19.349 20.021 C 19.559 19.962,19.619 19.916,20.002 19.526 C 20.736 18.777,21.351 17.895,21.859 16.860 C 23.211 14.110,23.366 11.033,22.299 8.133 C 22.112 7.624,21.626 6.638,21.338 6.180 C 20.750 5.247,19.789 4.139,19.468 4.026 C 19.235 3.943,19.088 3.927,18.893 3.963 M7.494 6.796 C 7.283 6.850,7.105 6.985,6.816 7.309 C 6.486 7.679,6.265 7.973,6.044 8.334 C 4.661 10.593,4.661 13.407,6.044 15.666 C 6.400 16.248,6.992 16.945,7.267 17.106 C 7.635 17.322,8.124 17.259,8.430 16.956 C 8.660 16.728,8.737 16.551,8.738 16.240 C 8.740 15.923,8.665 15.756,8.381 15.445 C 7.363 14.331,6.887 12.946,7.034 11.531 C 7.156 10.365,7.576 9.436,8.381 8.555 C 8.493 8.432,8.620 8.261,8.663 8.175 C 8.764 7.972,8.765 7.558,8.666 7.354 C 8.575 7.169,8.352 6.944,8.173 6.859 C 8.010 6.782,7.672 6.750,7.494 6.796 M15.962 6.804 C 15.674 6.892,15.388 7.176,15.286 7.476 C 15.169 7.822,15.271 8.170,15.595 8.527 C 16.085 9.068,16.426 9.603,16.663 10.208 C 16.930 10.886,17.043 11.729,16.966 12.469 C 16.843 13.649,16.431 14.551,15.594 15.474 C 15.328 15.767,15.221 16.028,15.249 16.314 C 15.318 17.036,16.122 17.464,16.733 17.106 C 17.008 16.945,17.600 16.248,17.956 15.666 C 19.339 13.407,19.339 10.593,17.956 8.334 C 17.603 7.756,17.008 7.055,16.738 6.897 C 16.547 6.785,16.173 6.740,15.962 6.804 M11.499 9.040 C 10.363 9.246,9.460 10.049,9.114 11.160 C 8.979 11.594,8.979 12.406,9.114 12.840 C 9.421 13.826,10.174 14.579,11.160 14.886 C 11.594 15.021,12.406 15.021,12.840 14.886 C 13.826 14.579,14.579 13.826,14.886 12.840 C 15.021 12.406,15.021 11.594,14.886 11.160 C 14.581 10.179,13.810 9.407,12.861 9.129 C 12.500 9.023,11.832 8.980,11.499 9.040 M12.310 11.061 C 12.688 11.173,13.000 11.598,13.000 12.001 C 13.000 12.331,12.784 12.696,12.484 12.872 C 12.328 12.963,12.254 12.980,12.000 12.980 C 11.746 12.980,11.672 12.963,11.516 12.872 C 10.935 12.530,10.833 11.774,11.304 11.303 C 11.583 11.024,11.916 10.944,12.310 11.061 " stroke="none" fill-rule="evenodd" fill="#000000"></path></svg>