<svg  xmlns="http://www.w3.org/2000/svg" width="24" height="24" viewBox="0 0 24 24" fill="none" stroke="currentColor" stroke-width="2" stroke-linecap="round" stroke-linejoin="round"><path d="M7.695 1.057 C 7.466 1.129,7.256 1.299,7.128 1.516 L 7.020 1.700 7.008 3.394 C 6.998 4.936,6.991 5.085,6.932 5.062 C 6.797 5.011,5.849 5.037,5.538 5.102 C 4.534 5.309,3.572 5.948,3.029 6.768 C 2.855 7.032,1.466 9.805,1.301 10.220 C 1.105 10.711,1.030 11.186,1.051 11.800 C 1.071 12.394,1.149 12.752,1.368 13.252 C 1.661 13.924,2.209 14.577,2.816 14.976 C 3.165 15.206,9.862 18.713,10.260 18.874 C 10.630 19.024,11.127 19.038,11.530 18.908 C 11.700 18.853,11.930 18.751,12.040 18.680 C 12.479 18.398,12.493 18.374,14.262 14.836 C 15.171 13.018,15.946 11.425,15.983 11.296 C 16.109 10.865,16.042 10.270,15.819 9.839 C 15.703 9.613,15.423 9.307,15.206 9.167 C 15.080 9.086,13.633 8.318,11.990 7.461 L 9.003 5.902 8.991 3.801 L 8.980 1.700 8.872 1.516 C 8.628 1.101,8.150 0.915,7.695 1.057 M6.848 7.085 L 6.995 7.122 7.008 8.214 L 7.020 9.307 7.141 9.503 C 7.543 10.156,8.457 10.156,8.859 9.503 C 8.975 9.314,8.981 9.285,9.000 8.736 L 9.020 8.166 11.500 9.462 C 12.864 10.175,13.995 10.764,14.014 10.771 C 14.039 10.779,11.008 16.915,10.943 16.989 C 10.930 17.004,4.112 13.440,3.910 13.312 C 3.518 13.064,3.196 12.587,3.079 12.084 C 3.012 11.795,3.052 11.244,3.159 10.966 C 3.205 10.849,3.573 10.093,3.978 9.286 C 4.752 7.741,4.855 7.583,5.250 7.334 C 5.709 7.044,6.310 6.950,6.848 7.085 M20.216 11.237 C 19.356 11.410,18.598 11.580,18.533 11.613 C 18.467 11.647,18.350 11.745,18.273 11.831 C 17.907 12.236,17.916 12.791,18.294 13.193 C 18.447 13.355,18.574 13.425,18.817 13.479 C 18.982 13.516,19.173 13.487,20.611 13.201 C 21.496 13.025,22.290 12.862,22.375 12.837 C 22.469 12.811,22.607 12.717,22.723 12.601 C 23.190 12.134,23.105 11.409,22.543 11.061 C 22.214 10.858,22.029 10.872,20.216 11.237 M16.664 15.063 C 15.980 15.314,15.781 16.192,16.295 16.693 C 16.404 16.798,17.095 17.207,18.320 17.890 C 19.343 18.461,20.261 18.963,20.360 19.007 C 20.710 19.162,21.124 19.095,21.421 18.834 C 21.648 18.634,21.738 18.427,21.738 18.100 C 21.738 17.768,21.643 17.554,21.411 17.360 C 21.220 17.202,17.532 15.141,17.294 15.060 C 17.077 14.986,16.870 14.987,16.664 15.063 M15.040 18.597 C 14.575 18.739,14.221 19.253,14.300 19.673 C 14.353 19.959,15.045 22.303,15.126 22.470 C 15.270 22.771,15.647 23.000,16.000 23.000 C 16.527 23.000,17.000 22.527,17.000 22.001 C 17.000 21.844,16.288 19.333,16.177 19.100 C 15.999 18.725,15.437 18.477,15.040 18.597 " stroke="none" fill-rule="evenodd" fill="#000000"></path></svg>