<svg  xmlns="http://www.w3.org/2000/svg" width="24" height="24" viewBox="0 0 24 24" fill="none" stroke="currentColor" stroke-width="2" stroke-linecap="round" stroke-linejoin="round"><path d="M11.695 1.057 C 11.466 1.129,11.256 1.299,11.128 1.516 L 11.020 1.700 11.020 3.003 L 11.020 4.306 11.141 4.503 C 11.543 5.156,12.457 5.156,12.859 4.503 L 12.980 4.306 12.980 3.003 L 12.980 1.700 12.872 1.516 C 12.628 1.101,12.150 0.915,11.695 1.057 M18.640 4.070 C 18.394 4.156,17.011 5.512,16.860 5.814 C 16.530 6.477,17.001 7.238,17.740 7.238 C 18.134 7.238,18.260 7.155,19.053 6.367 C 19.911 5.516,19.980 5.415,19.980 5.000 C 19.980 4.746,19.963 4.672,19.872 4.516 C 19.617 4.082,19.118 3.902,18.640 4.070 M11.695 7.057 C 11.051 7.258,10.799 8.040,11.198 8.591 C 11.397 8.866,11.610 8.961,12.121 9.005 C 13.071 9.087,13.723 9.410,14.304 10.088 C 14.716 10.569,14.930 11.123,14.995 11.883 C 15.028 12.264,15.050 12.354,15.148 12.514 C 15.543 13.156,16.461 13.151,16.859 12.503 C 16.976 12.313,16.980 12.289,16.979 11.843 C 16.975 10.311,16.114 8.742,14.800 7.874 C 14.046 7.375,13.396 7.135,12.552 7.043 C 12.065 6.989,11.903 6.992,11.695 7.057 M7.135 8.255 C 4.676 8.966,2.837 10.847,2.220 13.280 C 1.402 16.506,2.972 19.862,5.973 21.302 C 7.940 22.246,10.178 22.227,12.140 21.250 C 13.902 20.372,15.220 18.761,15.746 16.842 C 15.941 16.128,15.824 15.578,15.382 15.138 C 15.150 14.905,14.778 14.706,14.451 14.638 C 14.104 14.566,13.594 14.608,13.240 14.738 C 12.655 14.952,12.524 14.977,12.000 14.977 C 11.137 14.976,10.540 14.737,9.927 14.144 C 9.371 13.608,9.075 12.969,9.016 12.175 C 8.984 11.735,9.035 11.422,9.232 10.860 C 9.497 10.106,9.448 9.455,9.087 8.896 C 8.906 8.616,8.707 8.440,8.402 8.290 C 8.091 8.137,7.591 8.123,7.135 8.255 M7.263 10.386 C 7.249 10.422,7.204 10.583,7.161 10.744 C 6.920 11.666,6.956 12.660,7.265 13.600 C 7.656 14.790,8.591 15.873,9.731 16.454 C 10.843 17.022,12.147 17.146,13.379 16.803 C 13.533 16.761,13.665 16.732,13.673 16.739 C 13.680 16.747,13.620 16.903,13.540 17.086 C 13.032 18.244,11.895 19.287,10.680 19.712 C 10.039 19.936,9.763 19.980,9.020 19.979 C 8.269 19.978,7.925 19.924,7.320 19.711 C 5.932 19.221,4.769 18.056,4.285 16.671 C 4.085 16.099,4.023 15.699,4.024 14.980 C 4.024 14.304,4.062 14.028,4.228 13.502 C 4.637 12.202,5.707 10.986,6.904 10.461 C 7.266 10.302,7.298 10.295,7.263 10.386 M19.695 11.057 C 19.466 11.129,19.256 11.299,19.128 11.516 C 19.037 11.672,19.020 11.746,19.020 12.000 C 19.020 12.256,19.036 12.328,19.131 12.489 C 19.256 12.702,19.449 12.864,19.670 12.943 C 19.885 13.020,22.115 13.020,22.330 12.943 C 22.551 12.864,22.744 12.702,22.869 12.489 C 22.964 12.328,22.980 12.256,22.980 12.000 C 22.980 11.746,22.963 11.672,22.872 11.516 C 22.740 11.293,22.533 11.128,22.290 11.055 C 22.039 10.979,19.937 10.981,19.695 11.057 " stroke="none" fill-rule="evenodd" fill="#000000"></path></svg>