<svg  xmlns="http://www.w3.org/2000/svg" width="24" height="24" viewBox="0 0 24 24" fill="none" stroke="currentColor" stroke-width="2" stroke-linecap="round" stroke-linejoin="round"><path d="M4.499 2.043 C 3.383 2.230,2.461 3.048,2.114 4.160 L 2.020 4.460 2.020 12.000 L 2.020 19.540 2.114 19.840 C 2.418 20.816,3.149 21.554,4.140 21.886 L 4.420 21.980 8.540 21.991 C 13.139 22.004,12.843 22.021,13.173 21.724 C 13.381 21.536,13.488 21.292,13.488 21.003 C 13.488 20.615,13.294 20.298,12.940 20.106 C 12.782 20.021,12.753 20.020,10.390 20.009 L 8.000 19.998 8.000 16.999 L 8.000 14.000 11.997 14.000 L 15.994 14.000 16.007 14.710 C 16.022 15.488,16.053 15.608,16.306 15.848 C 16.785 16.301,17.577 16.167,17.894 15.580 C 17.972 15.434,17.981 15.350,17.993 14.619 C 18.007 13.739,17.967 13.449,17.782 13.083 C 17.646 12.816,17.297 12.449,17.017 12.281 C 16.539 11.993,16.751 12.005,12.000 12.005 C 7.249 12.005,7.461 11.993,6.983 12.281 C 6.703 12.449,6.354 12.816,6.219 13.083 C 5.998 13.519,6.000 13.479,6.000 16.872 L 6.000 20.007 5.350 19.993 C 4.728 19.981,4.692 19.975,4.516 19.872 C 4.415 19.813,4.284 19.700,4.225 19.623 C 3.986 19.309,4.000 19.795,4.000 12.022 C 4.000 4.006,3.975 4.631,4.303 4.303 C 4.554 4.052,4.751 4.000,5.447 4.000 L 6.000 4.000 6.000 5.632 C 6.000 7.399,6.010 7.507,6.225 7.930 C 6.361 8.199,6.801 8.639,7.070 8.775 C 7.526 9.006,7.410 9.000,11.458 8.998 C 14.463 8.997,15.209 8.986,15.330 8.943 C 15.551 8.864,15.744 8.702,15.869 8.489 C 15.964 8.328,15.980 8.256,15.980 8.000 C 15.980 7.746,15.963 7.672,15.872 7.516 C 15.813 7.415,15.698 7.282,15.618 7.221 C 15.322 6.995,15.410 7.000,11.554 7.000 L 8.000 7.000 8.000 5.499 L 8.000 3.998 11.730 4.009 L 15.460 4.020 15.620 4.107 C 15.819 4.216,19.804 8.207,19.906 8.400 C 19.975 8.530,19.981 8.707,20.000 10.980 C 20.022 13.675,20.011 13.560,20.283 13.833 C 20.499 14.050,20.704 14.137,21.000 14.137 C 21.304 14.137,21.505 14.049,21.731 13.815 C 22.004 13.534,22.000 13.579,21.999 10.903 C 21.999 8.296,21.992 8.207,21.774 7.680 C 21.558 7.158,21.359 6.935,19.132 4.720 C 16.905 2.505,16.823 2.433,16.274 2.211 C 15.750 2.000,15.834 2.003,10.060 2.006 C 7.112 2.008,4.609 2.025,4.499 2.043 M21.640 16.068 C 21.488 16.121,21.196 16.394,19.731 17.853 L 18.002 19.575 17.271 18.855 C 16.655 18.247,16.509 18.123,16.343 18.067 C 15.865 17.905,15.383 18.083,15.128 18.516 C 15.036 18.672,15.020 18.745,15.021 19.000 C 15.021 19.213,15.043 19.341,15.095 19.440 C 15.197 19.633,17.297 21.740,17.520 21.873 C 17.673 21.964,17.745 21.980,18.000 21.979 C 18.212 21.979,18.341 21.957,18.440 21.905 C 18.632 21.805,22.739 17.705,22.873 17.480 C 22.964 17.328,22.980 17.254,22.980 17.000 C 22.980 16.746,22.963 16.672,22.872 16.516 C 22.617 16.083,22.121 15.903,21.640 16.068 " stroke="none" fill-rule="evenodd" fill="#000000"></path></svg>