<svg  xmlns="http://www.w3.org/2000/svg" width="24" height="24" viewBox="0 0 24 24" fill="none" stroke="currentColor" stroke-width="2" stroke-linecap="round" stroke-linejoin="round"><path d="M17.400 2.043 C 15.748 2.238,14.261 3.291,13.526 4.785 C 13.344 5.155,13.193 5.581,13.097 6.000 C 13.042 6.242,13.025 6.562,13.011 7.661 L 12.994 9.023 12.863 9.113 C 12.791 9.162,12.591 9.347,12.419 9.524 C 12.188 9.761,12.098 9.831,12.075 9.790 C 12.004 9.662,11.651 9.202,11.443 8.966 C 10.638 8.050,9.347 7.336,8.060 7.095 C 7.765 7.040,7.486 7.021,7.000 7.023 C 5.941 7.027,5.246 7.189,4.340 7.641 C 3.657 7.982,3.285 8.249,3.132 8.509 C 3.023 8.694,3.020 8.716,3.025 9.240 C 3.037 10.682,3.672 12.144,4.761 13.237 C 5.246 13.723,5.723 14.061,6.380 14.383 C 6.980 14.676,7.535 14.850,8.171 14.944 C 9.072 15.076,10.287 14.942,11.137 14.616 C 11.175 14.601,11.202 14.636,11.221 14.726 C 11.237 14.799,11.383 15.282,11.546 15.799 C 11.913 16.969,11.974 17.288,11.973 18.040 C 11.972 18.711,11.878 19.151,11.621 19.690 L 11.474 20.000 8.183 20.000 C 4.612 20.000,4.677 19.996,4.382 20.221 C 4.302 20.282,4.187 20.415,4.128 20.516 C 4.037 20.672,4.020 20.746,4.020 21.000 C 4.020 21.256,4.036 21.328,4.131 21.489 C 4.256 21.702,4.449 21.864,4.670 21.943 C 4.893 22.022,19.107 22.022,19.330 21.943 C 19.551 21.864,19.744 21.702,19.869 21.489 C 19.964 21.328,19.980 21.256,19.980 21.000 C 19.980 20.746,19.963 20.672,19.872 20.516 C 19.813 20.415,19.698 20.282,19.618 20.221 C 19.327 19.999,19.339 20.000,16.389 20.000 L 13.671 20.000 13.697 19.910 C 13.940 19.085,14.020 18.481,13.988 17.717 C 13.957 16.995,13.832 16.399,13.461 15.220 C 13.095 14.055,13.028 13.712,13.027 13.000 C 13.027 12.540,13.041 12.412,13.125 12.139 C 13.353 11.391,13.880 10.747,14.580 10.360 C 14.992 10.132,15.361 10.043,16.060 10.002 C 17.003 9.946,17.562 9.803,18.286 9.433 C 19.630 8.748,20.580 7.489,20.907 5.960 C 20.969 5.673,20.980 5.428,20.980 4.380 L 20.980 3.140 20.868 2.900 C 20.721 2.585,20.413 2.276,20.104 2.133 L 19.860 2.020 18.780 2.014 C 18.186 2.010,17.565 2.023,17.400 2.043 M18.990 4.770 C 18.973 5.433,18.957 5.584,18.874 5.861 C 18.588 6.810,17.814 7.586,16.863 7.877 C 16.683 7.932,16.384 7.975,16.015 8.000 C 15.701 8.021,15.342 8.051,15.217 8.065 L 14.991 8.092 15.010 7.276 C 15.026 6.562,15.041 6.420,15.126 6.139 C 15.453 5.056,16.389 4.229,17.499 4.043 C 17.609 4.025,17.995 4.007,18.355 4.005 L 19.009 4.000 18.990 4.770 M7.600 9.058 C 8.079 9.131,8.405 9.238,8.857 9.471 C 9.658 9.884,10.213 10.470,10.624 11.337 C 10.777 11.660,10.959 12.261,10.960 12.445 C 10.960 12.517,10.467 12.745,10.080 12.852 C 8.697 13.237,7.218 12.851,6.197 11.840 C 5.837 11.485,5.613 11.163,5.376 10.663 C 5.205 10.302,5.016 9.641,5.055 9.540 C 5.083 9.466,5.553 9.253,5.894 9.159 C 6.489 8.996,6.994 8.966,7.600 9.058 " stroke="none" fill-rule="evenodd" fill="#000000"></path></svg>