<svg  xmlns="http://www.w3.org/2000/svg" width="24" height="24" viewBox="0 0 24 24" fill="none" stroke="currentColor" stroke-width="2" stroke-linecap="round" stroke-linejoin="round"><path d="M6.655 3.035 C 6.240 3.143,5.874 3.438,5.670 3.828 C 5.486 4.182,2.127 11.489,2.055 11.694 C 1.838 12.309,2.338 13.000,3.000 13.000 C 3.242 13.000,3.521 12.881,3.696 12.704 C 3.816 12.581,3.944 12.350,4.205 11.780 L 4.553 11.020 7.001 11.020 L 9.448 11.020 9.794 11.780 C 10.058 12.360,10.178 12.579,10.303 12.704 C 10.479 12.881,10.759 13.000,11.000 13.000 C 11.662 13.000,12.162 12.309,11.945 11.694 C 11.873 11.491,8.515 4.184,8.330 3.828 C 8.072 3.334,7.625 3.043,7.084 3.017 C 6.917 3.009,6.724 3.018,6.655 3.035 M14.695 4.057 C 14.466 4.129,14.256 4.299,14.128 4.516 C 14.037 4.672,14.020 4.746,14.020 5.000 C 14.020 5.256,14.036 5.328,14.131 5.489 C 14.256 5.702,14.449 5.864,14.670 5.943 C 14.891 6.022,21.109 6.022,21.330 5.943 C 21.551 5.864,21.744 5.702,21.869 5.489 C 21.964 5.328,21.980 5.256,21.980 5.000 C 21.980 4.746,21.963 4.672,21.872 4.516 C 21.740 4.293,21.533 4.128,21.290 4.055 C 21.030 3.977,14.945 3.979,14.695 4.057 M7.768 7.370 L 8.508 8.980 7.754 8.991 C 7.339 8.997,6.661 8.997,6.246 8.991 L 5.492 8.980 6.232 7.370 C 6.639 6.485,6.985 5.760,7.000 5.760 C 7.015 5.760,7.361 6.485,7.768 7.370 M14.695 11.057 C 14.466 11.129,14.256 11.299,14.128 11.516 C 14.037 11.672,14.020 11.746,14.020 12.000 C 14.020 12.256,14.036 12.328,14.131 12.489 C 14.256 12.702,14.449 12.864,14.670 12.943 C 14.891 13.022,21.109 13.022,21.330 12.943 C 21.551 12.864,21.744 12.702,21.869 12.489 C 21.964 12.328,21.980 12.256,21.980 12.000 C 21.980 11.746,21.963 11.672,21.872 11.516 C 21.740 11.293,21.533 11.128,21.290 11.055 C 21.030 10.977,14.945 10.979,14.695 11.057 M2.695 18.057 C 2.466 18.129,2.256 18.299,2.128 18.516 C 2.037 18.672,2.020 18.746,2.020 19.000 C 2.020 19.256,2.036 19.328,2.131 19.489 C 2.256 19.702,2.449 19.864,2.670 19.943 C 2.893 20.023,21.107 20.023,21.330 19.943 C 21.551 19.864,21.744 19.702,21.869 19.489 C 21.964 19.328,21.980 19.256,21.980 19.000 C 21.980 18.746,21.963 18.672,21.872 18.516 C 21.740 18.293,21.533 18.128,21.290 18.055 C 21.027 17.976,2.947 17.978,2.695 18.057 " stroke="none" fill-rule="evenodd" fill="#000000"></path></svg>