<svg  xmlns="http://www.w3.org/2000/svg" width="24" height="24" viewBox="0 0 24 24" fill="none" stroke="currentColor" stroke-width="2" stroke-linecap="round" stroke-linejoin="round"><path d="M1.670 1.061 C 1.448 1.142,1.250 1.309,1.128 1.516 C 1.036 1.672,1.020 1.745,1.021 2.000 C 1.021 2.213,1.043 2.341,1.095 2.440 C 1.136 2.517,1.700 3.113,2.349 3.765 C 3.215 4.636,3.520 4.966,3.495 5.006 C 3.476 5.037,3.332 5.232,3.176 5.441 C 2.104 6.875,1.400 8.572,1.112 10.420 C 0.985 11.235,0.986 12.770,1.114 13.594 C 1.293 14.749,1.632 15.828,2.140 16.860 C 2.708 18.015,3.278 18.802,4.238 19.762 C 5.198 20.723,5.987 21.293,7.140 21.859 C 10.223 23.375,13.739 23.382,16.820 21.880 C 17.491 21.553,17.919 21.296,18.474 20.886 C 18.702 20.718,18.924 20.555,18.967 20.523 C 19.040 20.471,19.123 20.545,20.233 21.649 C 20.886 22.299,21.483 22.864,21.560 22.905 C 21.659 22.957,21.787 22.979,22.000 22.979 C 22.258 22.980,22.327 22.964,22.492 22.867 C 22.968 22.587,23.139 21.967,22.865 21.508 C 22.810 21.416,18.215 16.793,12.653 11.235 C 3.300 1.889,2.525 1.125,2.343 1.065 C 2.107 0.987,1.874 0.986,1.670 1.061 M10.940 1.042 C 9.770 1.162,8.170 1.599,7.730 1.918 C 7.497 2.086,7.380 2.350,7.382 2.700 C 7.384 3.130,7.572 3.421,7.960 3.597 C 8.243 3.725,8.455 3.704,9.113 3.482 C 11.023 2.839,13.049 2.847,14.980 3.508 C 15.495 3.684,16.485 4.171,16.920 4.463 C 18.961 5.831,20.323 7.836,20.804 10.176 C 21.147 11.847,21.037 13.412,20.461 15.060 C 20.298 15.526,20.283 15.775,20.403 16.040 C 20.667 16.623,21.351 16.813,21.887 16.452 C 22.087 16.318,22.200 16.132,22.369 15.658 C 23.101 13.604,23.198 11.482,22.658 9.320 C 22.155 7.308,21.184 5.616,19.693 4.156 C 17.980 2.478,16.019 1.504,13.580 1.119 C 12.979 1.024,11.528 0.982,10.940 1.042 M12.400 6.037 C 12.208 6.096,12.053 6.196,11.912 6.352 C 11.548 6.755,11.586 7.360,11.999 7.731 C 12.239 7.948,12.409 7.999,12.885 8.002 C 13.344 8.005,13.708 8.095,14.017 8.281 C 14.477 8.558,14.868 9.103,14.960 9.595 C 14.982 9.714,15.000 9.985,15.000 10.197 C 15.000 10.562,15.007 10.596,15.130 10.800 C 15.291 11.068,15.511 11.226,15.805 11.284 C 16.234 11.370,16.688 11.137,16.884 10.732 C 17.066 10.355,17.027 9.466,16.797 8.756 C 16.335 7.336,15.091 6.286,13.600 6.058 C 13.199 5.997,12.568 5.986,12.400 6.037 M8.009 13.362 L 8.020 17.306 8.141 17.503 C 8.543 18.156,9.457 18.156,9.859 17.503 L 9.980 17.306 9.992 15.653 L 10.003 14.000 11.292 14.000 L 12.580 14.000 15.098 16.518 C 16.483 17.904,17.608 19.044,17.598 19.053 C 17.493 19.144,16.916 19.545,16.680 19.691 C 15.948 20.143,14.776 20.611,13.908 20.797 C 11.276 21.362,8.526 20.719,6.399 19.042 C 4.896 17.857,3.753 16.083,3.280 14.204 C 3.083 13.417,3.023 12.909,3.023 12.000 C 3.023 10.846,3.174 9.950,3.540 8.936 C 3.814 8.175,4.408 7.085,4.830 6.566 L 4.972 6.392 6.485 7.905 L 7.998 9.418 8.009 13.362 M10.300 11.720 L 10.578 12.000 10.289 12.000 L 10.000 12.000 10.000 11.720 C 10.000 11.566,10.005 11.440,10.011 11.440 C 10.017 11.440,10.147 11.566,10.300 11.720 " stroke="none" fill-rule="evenodd" fill="#000000"></path></svg>