<svg  xmlns="http://www.w3.org/2000/svg" width="24" height="24" viewBox="0 0 24 24" fill="none" stroke="currentColor" stroke-width="2" stroke-linecap="round" stroke-linejoin="round"><path d="M7.695 1.057 C 7.466 1.129,7.256 1.299,7.128 1.516 C 7.025 1.692,7.019 1.728,7.007 2.347 L 6.993 2.993 5.727 3.009 C 4.518 3.025,4.445 3.030,4.139 3.124 C 3.176 3.420,2.420 4.180,2.114 5.160 L 2.020 5.460 2.020 13.000 L 2.020 20.540 2.114 20.840 C 2.422 21.827,3.173 22.578,4.160 22.886 L 4.460 22.980 12.000 22.980 L 19.540 22.980 19.840 22.886 C 20.827 22.578,21.578 21.827,21.886 20.840 L 21.980 20.540 21.980 13.000 L 21.980 5.460 21.886 5.160 C 21.580 4.180,20.824 3.420,19.861 3.124 C 19.555 3.030,19.482 3.025,18.273 3.009 L 17.007 2.993 16.993 2.347 C 16.981 1.726,16.976 1.693,16.871 1.514 C 16.479 0.848,15.521 0.848,15.129 1.514 C 15.024 1.693,15.019 1.726,15.007 2.350 L 14.993 3.000 12.000 3.000 L 9.007 3.000 8.993 2.350 C 8.981 1.728,8.975 1.692,8.872 1.516 C 8.628 1.101,8.150 0.915,7.695 1.057 M19.310 5.061 C 19.589 5.144,19.856 5.411,19.939 5.690 C 19.993 5.870,20.000 6.755,20.000 13.001 C 20.000 18.907,19.991 20.138,19.945 20.290 C 19.872 20.533,19.707 20.740,19.484 20.872 C 19.308 20.975,19.272 20.981,18.655 20.993 L 18.009 21.007 17.990 20.213 C 17.974 19.536,17.958 19.379,17.882 19.140 C 17.569 18.161,16.783 17.387,15.822 17.112 L 15.500 17.020 12.000 17.020 L 8.500 17.020 8.178 17.112 C 7.217 17.387,6.431 18.161,6.118 19.140 C 6.042 19.379,6.026 19.536,6.010 20.213 L 5.991 21.007 5.345 20.993 C 4.728 20.981,4.692 20.975,4.516 20.872 C 4.415 20.813,4.284 20.700,4.225 20.623 C 3.986 20.309,4.000 20.795,4.000 13.022 C 4.000 6.758,4.007 5.870,4.061 5.690 C 4.140 5.421,4.412 5.143,4.673 5.063 C 4.964 4.974,19.009 4.971,19.310 5.061 M11.358 7.061 C 10.230 7.237,9.143 7.974,8.569 8.953 C 7.320 11.083,8.233 13.785,10.512 14.704 C 12.558 15.528,14.877 14.538,15.704 12.488 C 16.090 11.530,16.090 10.469,15.705 9.516 C 15.172 8.197,14.001 7.269,12.605 7.058 C 12.144 6.989,11.816 6.990,11.358 7.061 M12.523 9.073 C 13.262 9.266,13.850 9.924,13.967 10.690 C 14.067 11.343,13.873 11.933,13.403 12.404 C 13.002 12.807,12.547 13.000,12.000 13.000 C 11.485 13.000,11.038 12.822,10.653 12.465 C 9.323 11.229,10.189 9.005,12.000 9.005 C 12.143 9.005,12.378 9.036,12.523 9.073 M15.310 19.061 C 15.452 19.103,15.571 19.178,15.697 19.303 C 15.948 19.554,16.000 19.751,16.000 20.447 L 16.000 21.000 12.000 21.000 L 8.000 21.000 8.000 20.447 C 8.000 19.750,8.052 19.554,8.304 19.303 C 8.613 18.993,8.459 19.006,11.983 19.003 C 14.668 19.000,15.134 19.009,15.310 19.061 " stroke="none" fill-rule="evenodd" fill="#000000"></path></svg>