<svg  xmlns="http://www.w3.org/2000/svg" width="24" height="24" viewBox="0 0 24 24" fill="none" stroke="currentColor" stroke-width="2" stroke-linecap="round" stroke-linejoin="round"><path d="M3.499 2.043 C 2.391 2.230,1.488 3.024,1.114 4.140 L 1.020 4.420 1.009 12.958 C 1.000 20.694,1.005 21.516,1.063 21.718 C 1.326 22.631,2.237 23.176,3.110 22.943 C 3.571 22.820,3.647 22.759,4.980 21.438 C 5.684 20.740,6.323 20.136,6.400 20.095 C 6.535 20.023,6.810 20.019,13.560 20.000 L 20.580 19.980 20.860 19.886 C 21.851 19.554,22.582 18.816,22.886 17.840 L 22.980 17.540 22.980 11.000 L 22.980 4.460 22.886 4.160 C 22.581 3.182,21.832 2.428,20.861 2.121 L 20.540 2.020 12.120 2.014 C 7.489 2.011,3.609 2.024,3.499 2.043 M20.310 4.061 C 20.589 4.144,20.856 4.411,20.939 4.690 C 20.992 4.869,21.000 5.651,21.000 11.001 C 21.000 16.059,20.991 17.139,20.945 17.290 C 20.872 17.533,20.707 17.740,20.484 17.872 L 20.300 17.980 13.280 18.000 L 6.260 18.020 5.980 18.115 C 5.291 18.347,5.119 18.475,3.970 19.615 L 3.000 20.576 3.000 12.735 C 3.000 5.832,3.007 4.870,3.061 4.690 C 3.140 4.421,3.412 4.143,3.673 4.063 C 3.833 4.014,5.030 4.005,11.983 4.003 C 19.144 4.000,20.130 4.007,20.310 4.061 M9.044 7.625 C 8.787 7.753,8.583 8.016,8.529 8.289 C 8.482 8.527,8.535 8.851,8.649 9.019 C 8.694 9.085,9.147 9.559,9.655 10.070 L 10.579 11.000 9.655 11.930 C 9.147 12.442,8.695 12.914,8.651 12.980 C 8.376 13.389,8.513 14.026,8.940 14.320 C 9.238 14.525,9.740 14.540,10.017 14.352 C 10.085 14.306,10.558 13.853,11.070 13.345 L 12.000 12.421 12.930 13.345 C 13.442 13.853,13.915 14.306,13.981 14.351 C 14.262 14.541,14.762 14.525,15.065 14.317 C 15.478 14.033,15.618 13.376,15.351 12.981 C 15.306 12.915,14.853 12.442,14.345 11.930 L 13.421 11.001 14.369 10.050 C 15.074 9.343,15.337 9.052,15.398 8.914 C 15.695 8.241,15.230 7.518,14.502 7.521 C 14.089 7.522,13.997 7.588,12.950 8.631 L 12.000 9.578 11.050 8.631 C 10.371 7.954,10.049 7.661,9.920 7.603 C 9.654 7.483,9.313 7.492,9.044 7.625 " stroke="none" fill-rule="evenodd" fill="#000000"></path></svg>