<svg  xmlns="http://www.w3.org/2000/svg" width="24" height="24" viewBox="0 0 24 24" fill="none" stroke="currentColor" stroke-width="2" stroke-linecap="round" stroke-linejoin="round"><path d="M1.670 1.061 C 1.448 1.142,1.250 1.309,1.128 1.516 C 1.036 1.672,1.020 1.745,1.021 2.000 C 1.021 2.212,1.043 2.341,1.095 2.440 C 1.135 2.517,3.061 4.474,5.374 6.790 L 9.579 11.000 6.160 11.002 C 2.347 11.005,2.453 10.998,1.983 11.281 C 1.703 11.449,1.354 11.816,1.219 12.083 C 1.019 12.478,1.000 12.640,1.000 14.000 C 1.000 15.368,1.018 15.521,1.225 15.930 C 1.361 16.199,1.801 16.639,2.070 16.775 C 2.538 17.012,2.157 17.000,9.159 17.000 L 15.580 17.000 18.460 19.883 C 20.081 21.505,21.419 22.812,21.520 22.873 C 21.673 22.964,21.746 22.980,22.000 22.980 C 22.257 22.980,22.327 22.964,22.492 22.867 C 22.968 22.587,23.139 21.967,22.865 21.508 C 22.810 21.416,18.215 16.793,12.653 11.235 C 3.300 1.889,2.525 1.125,2.343 1.065 C 2.107 0.987,1.874 0.986,1.670 1.061 M15.695 2.057 C 15.468 2.128,15.256 2.299,15.132 2.510 C 14.884 2.932,15.008 4.025,15.399 4.865 C 15.573 5.238,15.747 5.505,16.266 6.188 C 16.830 6.931,16.933 7.172,16.996 7.897 C 17.028 8.263,17.051 8.356,17.148 8.514 C 17.541 9.153,18.461 9.150,18.855 8.510 C 19.196 7.956,18.908 6.488,18.277 5.555 C 18.182 5.415,17.938 5.080,17.734 4.812 C 17.171 4.070,17.067 3.827,17.004 3.107 C 16.974 2.765,16.947 2.645,16.866 2.506 C 16.628 2.101,16.145 1.916,15.695 2.057 M19.695 2.057 C 19.468 2.128,19.256 2.299,19.132 2.510 C 18.884 2.932,19.008 4.025,19.399 4.865 C 19.573 5.238,19.747 5.505,20.266 6.188 C 20.830 6.931,20.933 7.172,20.996 7.897 C 21.028 8.263,21.051 8.356,21.148 8.514 C 21.541 9.153,22.461 9.150,22.855 8.510 C 23.196 7.956,22.908 6.488,22.277 5.555 C 22.182 5.415,21.938 5.080,21.734 4.812 C 21.171 4.070,21.067 3.827,21.004 3.107 C 20.974 2.765,20.947 2.645,20.866 2.506 C 20.628 2.101,20.145 1.916,19.695 2.057 M20.695 11.057 C 20.466 11.129,20.256 11.299,20.128 11.516 C 20.036 11.672,20.020 11.746,20.020 12.003 C 20.020 12.271,20.034 12.329,20.141 12.503 C 20.288 12.742,20.578 12.946,20.821 12.982 L 21.000 13.009 21.000 14.001 L 21.000 14.993 20.845 15.116 C 20.396 15.472,20.400 16.235,20.854 16.623 C 21.166 16.890,21.556 16.933,21.960 16.747 C 22.207 16.633,22.642 16.190,22.772 15.920 C 22.981 15.485,23.000 15.326,22.999 14.002 C 22.999 12.405,22.945 12.170,22.465 11.653 C 21.985 11.137,21.241 10.886,20.695 11.057 M6.000 14.000 L 6.000 15.000 4.500 15.000 L 3.000 15.000 3.000 14.000 L 3.000 13.000 4.500 13.000 L 6.000 13.000 6.000 14.000 M12.580 14.000 L 13.579 15.000 10.790 15.000 L 8.000 15.000 8.000 14.000 L 8.000 13.000 9.790 13.000 L 11.581 13.000 12.580 14.000 " stroke="none" fill-rule="evenodd" fill="#000000"></path></svg>