<svg  xmlns="http://www.w3.org/2000/svg" width="24" height="24" viewBox="0 0 24 24" fill="none" stroke="currentColor" stroke-width="2" stroke-linecap="round" stroke-linejoin="round"><path d="M16.695 1.057 C 16.466 1.129,16.256 1.299,16.128 1.516 C 16.037 1.672,16.020 1.746,16.020 2.000 C 16.020 2.256,16.036 2.328,16.131 2.489 C 16.192 2.592,16.304 2.725,16.381 2.783 C 16.635 2.977,16.753 2.996,17.700 2.998 L 18.580 3.000 17.025 4.555 L 15.471 6.109 15.265 5.974 C 13.776 4.990,11.780 4.742,10.060 5.329 C 8.053 6.013,6.572 7.708,6.115 9.840 C 5.984 10.450,5.984 11.558,6.114 12.160 C 6.441 13.670,7.235 14.918,8.443 15.820 C 9.146 16.344,9.882 16.668,10.890 16.897 L 11.000 16.922 11.000 17.961 L 11.000 19.000 10.446 19.000 C 9.648 19.000,9.367 19.110,9.128 19.516 C 9.037 19.672,9.020 19.746,9.020 20.000 C 9.020 20.256,9.036 20.328,9.131 20.489 C 9.256 20.702,9.449 20.864,9.670 20.943 C 9.768 20.978,10.022 20.997,10.407 20.998 L 10.993 21.000 11.007 21.653 C 11.020 22.300,11.021 22.308,11.141 22.503 C 11.543 23.156,12.457 23.156,12.859 22.503 C 12.979 22.308,12.980 22.300,12.993 21.653 L 13.007 21.000 13.593 20.998 C 13.978 20.997,14.232 20.978,14.330 20.943 C 14.551 20.864,14.744 20.702,14.869 20.489 C 14.964 20.328,14.980 20.256,14.980 20.000 C 14.980 19.746,14.963 19.672,14.872 19.516 C 14.633 19.110,14.352 19.000,13.554 19.000 L 13.000 19.000 13.000 17.961 L 13.000 16.922 13.110 16.897 C 14.431 16.597,15.321 16.128,16.195 15.269 C 17.068 14.412,17.620 13.397,17.885 12.160 C 18.015 11.554,18.015 10.446,17.885 9.840 C 17.723 9.084,17.410 8.313,17.040 7.755 L 16.890 7.530 18.442 5.978 L 19.995 4.426 20.007 5.366 L 20.020 6.307 20.141 6.503 C 20.543 7.156,21.457 7.156,21.859 6.503 L 21.980 6.306 21.991 4.063 C 22.002 2.053,21.996 1.802,21.937 1.646 C 21.845 1.405,21.657 1.204,21.420 1.094 L 21.220 1.001 19.040 1.003 C 17.374 1.005,16.821 1.018,16.695 1.057 M12.605 7.058 C 14.074 7.280,15.310 8.324,15.797 9.755 C 15.897 10.050,16.000 10.680,16.000 11.000 C 16.000 11.322,15.897 11.951,15.796 12.245 C 15.321 13.632,14.195 14.628,12.773 14.917 C 10.563 15.368,8.396 13.845,8.058 11.605 C 7.986 11.121,7.986 10.879,8.058 10.395 C 8.314 8.698,9.675 7.324,11.358 7.061 C 11.816 6.990,12.144 6.989,12.605 7.058 " stroke="none" fill-rule="evenodd" fill="#000000"></path></svg>