<svg  xmlns="http://www.w3.org/2000/svg" width="24" height="24" viewBox="0 0 24 24" fill="none" stroke="currentColor" stroke-width="2" stroke-linecap="round" stroke-linejoin="round"><path d="M10.898 3.056 C 10.406 3.175,10.518 3.072,6.597 6.995 C 2.613 10.980,2.748 10.832,2.577 11.420 C 2.486 11.735,2.486 12.265,2.577 12.580 C 2.747 13.165,2.627 13.032,6.477 16.895 C 8.448 18.872,10.165 20.568,10.294 20.664 C 11.156 21.309,12.375 20.978,12.853 19.969 L 12.980 19.700 12.992 17.850 L 13.004 16.000 14.133 16.000 C 15.357 16.000,15.528 15.979,15.930 15.775 C 16.196 15.640,16.638 15.200,16.771 14.937 C 16.996 14.494,17.000 14.442,16.999 12.014 C 16.999 9.601,16.991 9.496,16.781 9.083 C 16.646 8.816,16.297 8.449,16.017 8.281 C 15.609 8.035,15.404 8.005,14.132 8.002 L 13.004 8.000 12.992 6.150 L 12.980 4.300 12.852 4.030 C 12.492 3.269,11.682 2.865,10.898 3.056 M11.111 8.684 C 11.363 9.310,11.882 9.777,12.508 9.940 C 12.685 9.986,12.994 10.000,13.868 10.000 L 15.000 10.000 15.000 12.000 L 15.000 14.000 13.870 14.002 C 12.595 14.005,12.391 14.035,11.983 14.281 C 11.703 14.449,11.354 14.816,11.219 15.083 C 11.015 15.484,11.000 15.627,11.000 17.158 L 11.000 18.580 7.760 15.340 C 5.195 12.775,4.520 12.079,4.520 12.000 C 4.520 11.921,5.193 11.227,7.750 8.670 L 10.980 5.440 11.001 6.950 C 11.020 8.399,11.025 8.469,11.111 8.684 M19.695 8.057 C 19.466 8.129,19.256 8.299,19.128 8.516 L 19.020 8.700 19.020 12.003 L 19.020 15.306 19.141 15.503 C 19.543 16.156,20.457 16.156,20.859 15.503 L 20.980 15.306 20.980 12.003 L 20.980 8.700 20.872 8.516 C 20.628 8.101,20.150 7.915,19.695 8.057 " stroke="none" fill-rule="evenodd" fill="#000000"></path></svg>