<svg  xmlns="http://www.w3.org/2000/svg" width="24" height="24" viewBox="0 0 24 24" fill="none" stroke="currentColor" stroke-width="2" stroke-linecap="round" stroke-linejoin="round"><path d="M8.247 2.043 C 6.714 2.191,5.160 2.833,3.934 3.825 C 2.472 5.008,1.442 6.776,1.121 8.653 C 0.902 9.938,0.998 11.249,1.404 12.500 C 1.579 13.038,2.049 14.018,2.245 14.255 C 2.715 14.820,3.662 14.658,3.922 13.968 C 4.055 13.614,4.021 13.420,3.730 12.854 C 3.299 12.013,3.116 11.398,3.035 10.517 C 2.912 9.163,3.262 7.819,4.046 6.640 C 4.384 6.132,5.137 5.376,5.633 5.047 C 7.224 3.992,9.133 3.738,10.946 4.340 C 12.358 4.809,13.613 5.881,14.294 7.200 C 14.492 7.585,14.581 7.792,14.779 8.334 C 14.866 8.574,15.041 8.777,15.256 8.891 C 15.411 8.974,15.490 8.980,16.720 9.004 C 17.970 9.029,18.034 9.034,18.372 9.135 C 19.370 9.434,20.104 10.042,20.558 10.944 C 20.790 11.406,20.883 11.777,20.908 12.340 C 20.944 13.148,20.764 13.803,20.323 14.471 C 20.044 14.892,19.983 15.063,20.012 15.341 C 20.083 16.035,20.794 16.440,21.420 16.145 C 21.657 16.033,21.761 15.926,22.039 15.507 C 22.701 14.514,23.030 13.213,22.919 12.030 C 22.740 10.117,21.633 8.478,19.932 7.609 C 19.062 7.165,18.530 7.044,17.300 7.011 L 16.420 6.987 16.153 6.444 C 15.729 5.578,15.246 4.920,14.536 4.239 C 13.162 2.924,11.496 2.187,9.560 2.041 C 8.959 1.996,8.735 1.996,8.247 2.043 M6.695 10.057 C 6.466 10.129,6.256 10.299,6.128 10.516 L 6.020 10.700 6.009 12.940 C 5.998 14.948,6.004 15.198,6.063 15.354 C 6.155 15.595,6.343 15.796,6.580 15.906 L 6.780 15.999 8.980 15.998 C 10.714 15.997,11.212 15.985,11.330 15.943 C 11.551 15.864,11.744 15.702,11.869 15.489 C 11.964 15.328,11.980 15.256,11.980 15.000 C 11.980 14.746,11.963 14.672,11.872 14.516 C 11.813 14.415,11.698 14.282,11.618 14.221 C 11.366 14.029,11.188 14.000,10.265 14.000 L 9.422 14.000 9.721 13.697 C 10.220 13.191,10.836 12.824,11.508 12.631 C 11.774 12.555,11.918 12.541,12.480 12.541 C 13.265 12.540,13.470 12.584,14.060 12.880 C 14.952 13.327,15.631 14.151,15.887 15.100 C 16.018 15.587,16.010 16.475,15.869 17.005 C 15.554 18.191,14.687 19.204,13.589 19.667 C 12.823 19.990,12.004 20.079,11.240 19.921 C 10.273 19.721,9.464 19.234,8.877 18.496 C 8.633 18.189,8.415 18.052,8.119 18.017 C 7.709 17.969,7.342 18.152,7.133 18.508 C 7.038 18.669,7.020 18.745,7.020 18.980 C 7.020 19.337,7.104 19.509,7.490 19.951 C 8.351 20.933,9.399 21.548,10.756 21.868 C 11.180 21.968,11.288 21.977,12.000 21.976 C 12.861 21.975,13.184 21.925,13.920 21.678 C 16.257 20.896,17.878 18.745,17.989 16.276 C 18.091 14.006,16.787 11.883,14.740 10.987 C 14.001 10.663,13.546 10.562,12.703 10.532 C 11.660 10.495,10.954 10.637,9.990 11.077 C 9.447 11.326,9.001 11.639,8.413 12.183 L 8.005 12.561 7.993 11.630 C 7.980 10.702,7.980 10.700,7.872 10.516 C 7.628 10.101,7.150 9.915,6.695 10.057 " stroke="none" fill-rule="evenodd" fill="#000000"></path></svg>