<svg  xmlns="http://www.w3.org/2000/svg" width="24" height="24" viewBox="0 0 24 24" fill="none" stroke="currentColor" stroke-width="2" stroke-linecap="round" stroke-linejoin="round"><path d="M11.340 1.024 C 10.432 1.118,9.865 1.233,9.160 1.466 C 7.260 2.094,5.614 3.359,4.468 5.073 C 4.128 5.581,3.667 6.541,3.461 7.169 C 3.157 8.096,2.970 9.256,3.008 9.980 C 3.023 10.263,3.044 10.345,3.144 10.508 C 3.540 11.151,4.458 11.154,4.853 10.513 C 4.959 10.340,4.972 10.274,5.021 9.673 C 5.102 8.681,5.172 8.329,5.427 7.620 C 6.300 5.195,8.459 3.441,11.020 3.076 C 11.783 2.967,12.907 3.022,13.660 3.205 C 16.422 3.876,18.521 6.195,18.924 9.020 C 19.033 9.783,18.978 10.907,18.795 11.660 C 18.197 14.123,16.220 16.137,13.786 16.764 C 12.973 16.974,13.031 16.971,9.620 16.988 L 6.420 17.004 7.626 15.792 C 8.289 15.125,8.864 14.517,8.905 14.440 C 8.957 14.341,8.979 14.213,8.979 14.000 C 8.980 13.745,8.964 13.672,8.872 13.516 C 8.618 13.084,8.138 12.906,7.657 13.065 C 7.479 13.124,7.250 13.340,5.326 15.255 C 3.001 17.569,3.001 17.569,3.001 18.000 C 3.001 18.429,3.004 18.433,5.306 20.726 C 6.469 21.884,7.483 22.865,7.560 22.905 C 7.659 22.957,7.788 22.979,8.000 22.979 C 8.258 22.980,8.327 22.964,8.492 22.867 C 8.714 22.737,8.901 22.498,8.965 22.264 C 9.019 22.061,8.989 21.733,8.899 21.555 C 8.862 21.481,8.289 20.875,7.626 20.210 L 6.422 19.000 9.461 19.000 C 11.894 19.000,12.602 18.988,13.008 18.941 C 15.055 18.701,16.910 17.806,18.358 16.358 C 21.079 13.637,21.771 9.506,20.084 6.060 C 18.773 3.384,16.266 1.546,13.320 1.101 C 12.911 1.039,11.662 0.991,11.340 1.024 " stroke="none" fill-rule="evenodd" fill="#000000"></path></svg>