<svg  xmlns="http://www.w3.org/2000/svg" width="24" height="24" viewBox="0 0 24 24" fill="none" stroke="currentColor" stroke-width="2" stroke-linecap="round" stroke-linejoin="round"><path d="M10.695 4.057 C 10.466 4.129,10.256 4.299,10.128 4.516 C 10.037 4.672,10.020 4.746,10.020 5.000 C 10.020 5.256,10.036 5.328,10.131 5.489 C 10.256 5.702,10.449 5.864,10.670 5.943 C 10.892 6.022,21.108 6.022,21.330 5.943 C 21.551 5.864,21.744 5.702,21.869 5.489 C 21.964 5.328,21.980 5.256,21.980 5.000 C 21.980 4.746,21.963 4.672,21.872 4.516 C 21.740 4.293,21.533 4.128,21.290 4.055 C 21.028 3.976,10.946 3.978,10.695 4.057 M2.670 7.061 C 2.448 7.142,2.250 7.309,2.128 7.516 C 2.036 7.672,2.020 7.745,2.021 8.000 C 2.021 8.212,2.043 8.341,2.095 8.440 C 2.135 8.517,2.936 9.350,3.874 10.290 L 5.579 12.000 3.874 13.710 C 2.936 14.650,2.138 15.481,2.101 15.555 C 1.872 16.010,2.056 16.601,2.508 16.867 C 2.673 16.964,2.743 16.980,3.000 16.980 C 3.254 16.980,3.328 16.964,3.480 16.873 C 3.705 16.739,7.805 12.632,7.905 12.440 C 7.957 12.341,7.979 12.212,7.979 12.000 C 7.980 11.745,7.964 11.673,7.873 11.520 C 7.813 11.419,6.834 10.412,5.653 9.235 C 3.748 7.338,3.521 7.124,3.343 7.065 C 3.107 6.987,2.874 6.986,2.670 7.061 M10.695 11.057 C 10.466 11.129,10.256 11.299,10.128 11.516 C 10.037 11.672,10.020 11.746,10.020 12.000 C 10.020 12.256,10.036 12.328,10.131 12.489 C 10.256 12.702,10.449 12.864,10.670 12.943 C 10.892 13.022,21.108 13.022,21.330 12.943 C 21.551 12.864,21.744 12.702,21.869 12.489 C 21.964 12.328,21.980 12.256,21.980 12.000 C 21.980 11.746,21.963 11.672,21.872 11.516 C 21.740 11.293,21.533 11.128,21.290 11.055 C 21.028 10.976,10.946 10.978,10.695 11.057 M10.695 18.057 C 10.466 18.129,10.256 18.299,10.128 18.516 C 10.037 18.672,10.020 18.746,10.020 19.000 C 10.020 19.256,10.036 19.328,10.131 19.489 C 10.256 19.702,10.449 19.864,10.670 19.943 C 10.892 20.022,21.108 20.022,21.330 19.943 C 21.551 19.864,21.744 19.702,21.869 19.489 C 21.964 19.328,21.980 19.256,21.980 19.000 C 21.980 18.746,21.963 18.672,21.872 18.516 C 21.740 18.293,21.533 18.128,21.290 18.055 C 21.028 17.976,10.946 17.978,10.695 18.057 " stroke="none" fill-rule="evenodd" fill="#000000"></path></svg>