<svg  xmlns="http://www.w3.org/2000/svg" width="24" height="24" viewBox="0 0 24 24" fill="none" stroke="currentColor" stroke-width="2" stroke-linecap="round" stroke-linejoin="round"><path d="M6.358 2.061 C 5.230 2.237,4.143 2.974,3.569 3.953 C 2.320 6.083,3.233 8.785,5.512 9.704 C 6.139 9.957,6.477 10.000,7.815 10.000 L 8.997 10.000 9.009 12.153 L 9.020 14.306 9.141 14.503 C 9.543 15.156,10.457 15.156,10.859 14.503 L 10.980 14.306 10.991 9.153 L 11.001 4.000 12.000 4.000 L 12.999 4.000 13.009 9.153 L 13.020 14.306 13.141 14.503 C 13.543 15.156,14.457 15.156,14.859 14.503 L 14.980 14.306 14.991 9.158 L 15.001 4.009 15.179 3.982 C 15.423 3.946,15.712 3.741,15.859 3.503 C 15.966 3.329,15.980 3.271,15.980 3.003 C 15.980 2.746,15.964 2.672,15.872 2.516 C 15.740 2.293,15.533 2.128,15.290 2.055 C 15.027 1.976,6.869 1.981,6.358 2.061 M9.000 6.000 L 9.000 8.000 7.868 8.000 C 6.650 8.000,6.471 7.978,6.083 7.781 C 5.975 7.727,5.782 7.585,5.653 7.465 C 4.665 6.547,4.829 4.981,5.987 4.279 C 6.390 4.035,6.597 4.005,7.870 4.002 L 9.000 4.000 9.000 6.000 M17.670 13.061 C 17.448 13.142,17.250 13.309,17.128 13.516 C 17.036 13.672,17.020 13.745,17.021 14.000 C 17.021 14.213,17.043 14.341,17.095 14.440 C 17.136 14.517,17.711 15.125,18.374 15.790 L 19.578 17.000 10.735 17.000 C 3.359 17.000,1.862 17.009,1.710 17.055 C 1.467 17.128,1.260 17.293,1.128 17.516 C 1.037 17.672,1.020 17.746,1.020 18.000 C 1.020 18.256,1.036 18.328,1.131 18.489 C 1.256 18.702,1.449 18.864,1.670 18.943 C 1.794 18.987,3.386 18.997,10.699 18.998 L 19.578 19.000 18.374 20.210 C 17.711 20.876,17.138 21.481,17.101 21.555 C 16.872 22.009,17.056 22.601,17.508 22.867 C 17.673 22.964,17.742 22.980,18.000 22.979 C 18.212 22.979,18.341 22.957,18.440 22.905 C 18.517 22.865,19.531 21.884,20.694 20.726 C 22.996 18.433,22.999 18.429,22.999 18.000 C 22.999 17.569,22.999 17.569,20.674 15.255 C 18.750 13.340,18.521 13.124,18.343 13.065 C 18.107 12.987,17.874 12.986,17.670 13.061 " stroke="none" fill-rule="evenodd" fill="#000000"></path></svg>