<svg  xmlns="http://www.w3.org/2000/svg" width="24" height="24" viewBox="0 0 24 24" fill="none" stroke="currentColor" stroke-width="2" stroke-linecap="round" stroke-linejoin="round"><path d="M6.680 1.027 C 5.679 1.199,4.928 2.145,5.010 3.131 C 5.044 3.546,5.149 3.822,5.421 4.215 C 6.373 5.589,6.941 6.693,7.357 7.975 C 7.799 9.335,7.974 10.469,7.976 11.980 C 7.978 13.567,7.771 14.842,7.281 16.254 C 6.867 17.450,6.321 18.485,5.421 19.785 C 4.943 20.475,4.873 21.169,5.210 21.880 C 5.364 22.206,5.771 22.623,6.080 22.772 C 6.577 23.011,6.300 23.000,12.000 23.000 C 17.700 23.000,17.423 23.011,17.920 22.772 C 18.229 22.623,18.636 22.206,18.790 21.880 C 19.128 21.166,19.050 20.446,18.559 19.752 C 17.117 17.714,16.358 15.768,16.073 13.380 C 16.009 12.839,16.009 11.168,16.074 10.620 C 16.242 9.195,16.572 7.976,17.136 6.698 C 17.491 5.894,17.931 5.140,18.579 4.224 C 19.403 3.060,18.958 1.616,17.614 1.095 C 17.428 1.023,17.206 1.020,12.100 1.015 C 9.174 1.012,6.735 1.018,6.680 1.027 M16.695 3.429 C 15.523 5.102,14.695 7.050,14.283 9.101 C 13.491 13.042,14.378 17.262,16.695 20.571 L 16.995 21.000 12.000 21.000 L 7.005 21.000 7.305 20.571 C 8.821 18.407,9.751 15.795,9.958 13.122 C 10.221 9.730,9.262 6.224,7.305 3.429 L 7.005 3.000 12.000 3.000 L 16.995 3.000 16.695 3.429 " stroke="none" fill-rule="evenodd" fill="#000000"></path></svg>