<svg  xmlns="http://www.w3.org/2000/svg" width="24" height="24" viewBox="0 0 24 24" fill="none" stroke="currentColor" stroke-width="2" stroke-linecap="round" stroke-linejoin="round"><path d="M11.280 1.024 C 9.568 1.141,8.142 1.475,6.785 2.076 C 3.101 3.708,0.885 6.850,1.012 10.260 C 1.066 11.715,1.492 13.009,2.359 14.347 C 2.409 14.424,2.402 14.462,2.290 14.707 C 2.065 15.200,2.022 15.409,2.021 16.000 C 2.021 16.455,2.035 16.587,2.114 16.840 C 2.369 17.660,2.937 18.325,3.701 18.702 L 4.063 18.879 4.116 19.170 C 4.250 19.902,4.657 20.836,5.133 21.505 C 5.588 22.146,6.382 22.869,6.733 22.964 C 7.405 23.145,8.060 22.589,7.988 21.897 C 7.956 21.588,7.830 21.396,7.438 21.063 C 6.784 20.507,6.358 19.816,6.103 18.900 C 6.085 18.833,6.130 18.795,6.371 18.670 C 6.530 18.588,6.775 18.422,6.916 18.302 C 7.105 18.141,7.189 18.092,7.236 18.117 C 7.373 18.189,8.323 18.490,8.760 18.599 C 10.427 19.017,12.233 19.107,13.960 18.856 C 15.343 18.656,16.968 18.118,18.131 17.475 C 19.608 16.659,20.817 15.571,21.661 14.300 C 24.202 10.472,23.031 5.703,18.880 2.978 C 17.002 1.746,14.721 1.070,12.282 1.024 C 11.852 1.015,11.401 1.016,11.280 1.024 M13.480 3.103 C 15.435 3.372,17.140 4.079,18.530 5.197 C 18.938 5.526,19.567 6.192,19.867 6.614 C 20.364 7.314,20.761 8.240,20.905 9.040 C 21.006 9.596,20.996 10.534,20.885 11.068 C 20.530 12.764,19.468 14.227,17.780 15.346 C 15.902 16.592,13.275 17.199,10.880 16.941 C 9.949 16.841,9.319 16.705,8.436 16.416 L 8.012 16.277 7.989 15.849 C 7.974 15.583,7.932 15.313,7.879 15.140 C 7.583 14.183,6.813 13.414,5.861 13.125 C 5.449 13.000,4.645 12.983,4.254 13.092 C 4.119 13.129,3.999 13.160,3.987 13.160 C 3.975 13.160,3.873 12.997,3.760 12.797 C 2.586 10.714,2.801 8.313,4.340 6.340 C 4.477 6.164,4.776 5.840,5.005 5.620 C 5.706 4.947,6.303 4.539,7.300 4.055 C 8.458 3.493,9.727 3.151,11.060 3.041 C 11.653 2.993,12.915 3.025,13.480 3.103 M5.334 15.064 C 5.698 15.188,6.000 15.613,6.000 16.001 C 6.000 16.331,5.784 16.696,5.484 16.872 C 5.328 16.963,5.254 16.980,5.000 16.980 C 4.746 16.980,4.672 16.963,4.516 16.872 C 3.937 16.531,3.833 15.774,4.301 15.306 C 4.587 15.019,4.952 14.934,5.334 15.064 " stroke="none" fill-rule="evenodd" fill="#000000"></path></svg>