<svg  xmlns="http://www.w3.org/2000/svg" width="24" height="24" viewBox="0 0 24 24" fill="none" stroke="currentColor" stroke-width="2" stroke-linecap="round" stroke-linejoin="round"><path d="M7.670 1.061 C 7.448 1.142,7.250 1.309,7.128 1.516 C 7.037 1.672,7.020 1.746,7.020 2.000 C 7.020 2.411,7.090 2.516,7.896 3.319 C 8.532 3.951,8.556 3.981,8.500 4.066 C 8.370 4.265,8.160 4.849,8.082 5.228 C 8.032 5.475,8.000 5.786,8.000 6.028 L 8.000 6.422 7.710 6.567 C 7.289 6.776,6.776 7.157,6.416 7.526 L 6.102 7.849 5.895 7.784 C 5.405 7.629,4.732 7.046,4.406 6.493 C 4.196 6.135,4.081 5.783,4.033 5.340 C 4.011 5.142,3.985 4.906,3.975 4.815 C 3.951 4.603,3.776 4.329,3.577 4.192 C 3.093 3.859,2.457 3.995,2.143 4.498 C 2.044 4.656,2.023 4.736,2.009 5.012 C 1.989 5.419,2.079 5.990,2.245 6.509 C 2.656 7.795,3.537 8.829,4.750 9.448 L 5.165 9.660 5.141 9.800 C 5.127 9.877,5.090 10.093,5.058 10.280 C 5.023 10.486,5.000 10.891,5.000 11.310 L 5.000 12.000 3.446 12.000 C 1.758 12.000,1.658 12.011,1.382 12.221 C 1.302 12.282,1.187 12.415,1.128 12.516 C 1.037 12.672,1.020 12.746,1.020 13.000 C 1.020 13.256,1.036 13.328,1.131 13.489 C 1.192 13.592,1.304 13.725,1.381 13.783 C 1.654 13.991,1.700 13.996,3.404 13.998 L 4.989 14.000 5.016 14.399 C 5.051 14.910,5.133 15.403,5.259 15.873 C 5.315 16.078,5.360 16.251,5.360 16.258 C 5.360 16.265,5.256 16.313,5.130 16.364 C 4.028 16.810,3.058 17.704,2.544 18.746 C 2.187 19.470,2.023 20.128,2.021 20.843 C 2.020 21.289,2.024 21.313,2.141 21.503 C 2.539 22.150,3.457 22.156,3.852 21.514 C 3.949 21.356,3.972 21.264,4.004 20.894 C 4.051 20.348,4.123 20.057,4.303 19.690 C 4.655 18.969,5.325 18.384,6.077 18.139 L 6.294 18.069 6.377 18.169 C 6.970 18.888,7.283 19.200,7.820 19.607 C 8.699 20.274,9.808 20.736,10.980 20.926 C 11.392 20.992,12.607 20.992,13.020 20.926 C 14.184 20.738,15.306 20.270,16.180 19.607 C 16.717 19.200,17.030 18.888,17.623 18.169 L 17.706 18.069 17.923 18.139 C 18.672 18.383,19.346 18.972,19.697 19.690 C 19.877 20.057,19.949 20.348,19.996 20.894 C 20.028 21.264,20.051 21.356,20.148 21.514 C 20.543 22.156,21.461 22.150,21.859 21.503 C 21.976 21.313,21.980 21.289,21.979 20.843 C 21.975 19.151,20.955 17.474,19.420 16.632 C 19.244 16.536,18.997 16.415,18.870 16.364 C 18.744 16.313,18.640 16.265,18.640 16.258 C 18.640 16.251,18.685 16.078,18.741 15.873 C 18.867 15.403,18.949 14.910,18.984 14.399 L 19.011 14.000 20.596 13.998 C 22.300 13.996,22.346 13.991,22.619 13.783 C 22.696 13.725,22.808 13.592,22.869 13.489 C 22.964 13.328,22.980 13.256,22.980 13.000 C 22.980 12.746,22.963 12.672,22.872 12.516 C 22.813 12.415,22.698 12.282,22.618 12.221 C 22.342 12.011,22.242 12.000,20.554 12.000 L 19.000 12.000 19.000 11.310 C 19.000 10.678,18.946 10.135,18.848 9.782 C 18.816 9.667,18.821 9.662,19.138 9.509 C 20.643 8.782,21.671 7.397,21.944 5.729 C 21.981 5.502,22.000 5.204,21.991 5.012 C 21.977 4.736,21.956 4.656,21.857 4.498 C 21.543 3.995,20.907 3.859,20.423 4.192 C 20.224 4.329,20.049 4.603,20.025 4.815 C 20.015 4.906,19.989 5.142,19.967 5.340 C 19.919 5.783,19.804 6.135,19.594 6.493 C 19.268 7.046,18.595 7.629,18.105 7.784 L 17.898 7.849 17.584 7.526 C 17.228 7.161,16.745 6.802,16.302 6.575 L 16.000 6.420 16.000 6.026 C 16.000 5.792,15.968 5.475,15.921 5.243 C 15.844 4.868,15.627 4.260,15.502 4.068 C 15.444 3.980,15.460 3.959,16.104 3.319 C 16.910 2.516,16.980 2.411,16.980 2.000 C 16.980 1.746,16.963 1.672,16.872 1.516 C 16.617 1.083,16.135 0.905,15.657 1.067 C 15.491 1.123,15.345 1.247,14.740 1.843 L 14.020 2.552 13.780 2.430 C 13.270 2.171,12.563 2.000,12.000 2.000 C 11.437 2.000,10.730 2.171,10.220 2.430 L 9.980 2.552 9.260 1.843 C 8.655 1.247,8.509 1.123,8.343 1.067 C 8.108 0.987,7.876 0.985,7.670 1.061 M12.478 4.062 C 12.956 4.171,13.389 4.485,13.686 4.937 C 13.855 5.196,13.938 5.430,13.981 5.776 L 14.009 6.000 12.005 6.000 L 10.000 6.000 10.000 5.898 C 10.000 5.676,10.132 5.235,10.265 5.014 C 10.739 4.222,11.584 3.859,12.478 4.062 M14.840 8.116 C 15.800 8.403,16.578 9.176,16.877 10.139 C 16.976 10.457,16.977 10.475,16.991 12.260 C 17.007 14.151,16.980 14.691,16.839 15.240 C 16.485 16.625,15.495 17.845,14.212 18.476 C 13.876 18.641,13.391 18.817,13.151 18.861 L 13.001 18.889 12.991 14.794 L 12.980 10.700 12.871 10.514 C 12.479 9.848,11.521 9.848,11.129 10.514 L 11.020 10.700 11.009 14.794 L 10.999 18.889 10.849 18.861 C 10.608 18.817,10.124 18.641,9.785 18.474 C 8.503 17.844,7.515 16.626,7.161 15.240 C 7.020 14.691,6.993 14.151,7.009 12.260 C 7.023 10.475,7.024 10.457,7.123 10.139 C 7.462 9.048,8.384 8.235,9.499 8.042 C 9.609 8.023,10.789 8.012,12.120 8.017 C 14.498 8.026,14.545 8.028,14.840 8.116 " stroke="none" fill-rule="evenodd" fill="#000000"></path></svg>