<svg  xmlns="http://www.w3.org/2000/svg" width="24" height="24" viewBox="0 0 24 24" fill="none" stroke="currentColor" stroke-width="2" stroke-linecap="round" stroke-linejoin="round"><path d="M8.499 2.042 C 7.374 2.237,6.461 3.048,6.114 4.160 L 6.020 4.460 6.020 9.500 L 6.020 14.540 6.114 14.840 C 6.422 15.827,7.173 16.578,8.160 16.886 L 8.460 16.980 14.500 16.980 L 20.540 16.980 20.840 16.886 C 21.827 16.578,22.578 15.827,22.886 14.840 L 22.980 14.540 22.980 10.500 L 22.980 6.460 22.886 6.160 C 22.581 5.181,21.829 4.425,20.861 4.122 L 20.540 4.022 17.416 4.001 C 14.743 3.983,14.282 3.971,14.221 3.921 C 14.182 3.889,13.962 3.614,13.732 3.312 C 13.174 2.577,12.905 2.358,12.273 2.127 L 11.980 2.020 10.340 2.013 C 9.438 2.010,8.609 2.023,8.499 2.042 M11.720 4.060 C 11.784 4.093,12.027 4.372,12.261 4.679 C 12.494 4.987,12.770 5.311,12.873 5.399 C 13.133 5.622,13.539 5.828,13.904 5.921 C 14.198 5.996,14.358 6.000,17.159 6.000 C 20.507 6.000,20.383 5.989,20.697 6.303 C 21.015 6.621,21.000 6.417,21.000 10.501 C 21.000 14.415,21.005 14.321,20.779 14.618 C 20.718 14.698,20.585 14.813,20.484 14.872 L 20.300 14.980 14.500 14.980 L 8.700 14.980 8.516 14.872 C 8.415 14.813,8.282 14.698,8.221 14.618 C 7.992 14.318,8.000 14.501,8.000 9.501 C 8.000 4.300,7.981 4.625,8.304 4.303 C 8.591 4.015,8.649 4.006,10.232 4.003 C 11.378 4.000,11.623 4.010,11.720 4.060 M2.536 7.398 C 1.988 7.672,1.487 8.237,1.237 8.862 C 0.988 9.484,0.997 9.250,1.009 14.653 L 1.020 19.580 1.114 19.860 C 1.446 20.851,2.184 21.582,3.160 21.886 L 3.460 21.980 9.480 21.980 C 15.199 21.980,15.512 21.976,15.740 21.907 C 16.422 21.699,16.881 21.405,17.312 20.902 C 17.811 20.318,17.857 19.735,17.436 19.313 C 17.076 18.951,16.551 18.905,16.150 19.199 C 16.067 19.259,15.944 19.388,15.876 19.484 C 15.705 19.726,15.533 19.867,15.318 19.939 C 15.157 19.994,14.481 20.000,9.418 19.991 L 3.700 19.980 3.516 19.872 C 3.303 19.747,3.141 19.550,3.058 19.316 C 2.971 19.067,2.971 9.933,3.058 9.684 C 3.136 9.464,3.279 9.285,3.490 9.143 C 3.721 8.987,3.903 8.743,3.962 8.508 C 4.172 7.675,3.316 7.009,2.536 7.398 " stroke="none" fill-rule="evenodd" fill="#000000"></path></svg>