<svg  xmlns="http://www.w3.org/2000/svg" width="24" height="24" viewBox="0 0 24 24" fill="none" stroke="currentColor" stroke-width="2" stroke-linecap="round" stroke-linejoin="round"><path d="M4.499 2.043 C 3.380 2.232,2.461 3.048,2.114 4.160 L 2.020 4.460 2.020 12.000 L 2.020 19.540 2.114 19.840 C 2.422 20.827,3.173 21.578,4.160 21.886 L 4.460 21.980 12.000 21.980 L 19.540 21.980 19.840 21.886 C 20.827 21.578,21.578 20.827,21.886 19.840 L 21.980 19.540 21.980 12.000 L 21.980 4.460 21.886 4.160 C 21.581 3.182,20.832 2.428,19.861 2.121 L 19.540 2.020 12.120 2.014 C 8.039 2.011,4.609 2.024,4.499 2.043 M19.310 4.061 C 19.589 4.144,19.856 4.411,19.939 4.690 C 19.993 4.870,20.000 5.755,20.000 12.001 C 20.000 17.907,19.991 19.138,19.945 19.290 C 19.872 19.533,19.707 19.740,19.484 19.872 L 19.300 19.980 12.000 19.980 L 4.700 19.980 4.516 19.872 C 4.415 19.813,4.284 19.700,4.225 19.623 C 3.986 19.309,4.000 19.795,4.000 12.022 C 4.000 5.758,4.007 4.870,4.061 4.690 C 4.140 4.421,4.412 4.143,4.673 4.063 C 4.964 3.974,19.009 3.971,19.310 4.061 M8.580 8.094 C 8.343 8.204,8.155 8.405,8.064 8.646 C 8.004 8.804,7.999 9.126,8.009 12.063 L 8.020 15.306 8.141 15.503 C 8.543 16.156,9.457 16.156,9.859 15.503 L 9.980 15.306 9.991 13.365 L 10.003 11.424 12.211 13.628 C 13.426 14.840,14.481 15.862,14.555 15.899 C 15.010 16.128,15.601 15.944,15.867 15.492 C 15.964 15.327,15.980 15.258,15.979 15.000 C 15.979 14.788,15.957 14.659,15.905 14.560 C 15.865 14.483,14.839 13.425,13.626 12.210 L 11.421 10.000 13.300 9.998 C 14.766 9.997,15.213 9.985,15.330 9.943 C 15.551 9.864,15.744 9.702,15.869 9.489 C 15.964 9.328,15.980 9.256,15.980 9.000 C 15.980 8.746,15.963 8.672,15.872 8.516 C 15.813 8.415,15.698 8.282,15.618 8.221 C 15.324 7.997,15.377 8.000,11.944 8.000 L 8.780 8.001 8.580 8.094 " stroke="none" fill-rule="evenodd" fill="#000000"></path></svg>