<svg  xmlns="http://www.w3.org/2000/svg" width="24" height="24" viewBox="0 0 24 24" fill="none" stroke="currentColor" stroke-width="2" stroke-linecap="round" stroke-linejoin="round"><path d="M8.695 2.057 C 8.466 2.129,8.256 2.299,8.128 2.516 L 8.020 2.700 8.009 4.541 L 7.997 6.382 6.230 7.261 C 4.305 8.219,4.191 8.292,4.066 8.660 C 4.030 8.767,4.000 8.920,4.000 9.000 C 4.000 9.406,4.293 9.811,4.678 9.939 C 5.067 10.068,5.153 10.040,6.628 9.305 C 7.362 8.939,7.971 8.640,7.981 8.640 C 7.992 8.640,8.000 9.144,8.000 9.760 L 8.000 10.880 6.243 11.759 C 5.277 12.242,4.421 12.695,4.341 12.765 C 3.655 13.367,4.098 14.499,5.017 14.490 C 5.241 14.488,5.325 14.453,6.627 13.805 L 8.000 13.122 8.002 17.151 C 8.003 20.412,8.014 21.209,8.057 21.330 C 8.136 21.551,8.298 21.744,8.511 21.869 C 8.696 21.978,8.712 21.980,9.320 21.977 C 11.343 21.966,13.443 21.206,15.200 19.847 C 15.637 19.509,16.509 18.637,16.847 18.200 C 18.206 16.443,18.966 14.343,18.977 12.320 C 18.980 11.714,18.978 11.696,18.871 11.514 C 18.481 10.851,17.520 10.847,17.134 11.507 C 17.039 11.668,17.025 11.748,16.993 12.273 C 16.856 14.525,16.047 16.316,14.496 17.801 C 13.648 18.612,12.618 19.229,11.500 19.595 C 11.021 19.751,10.297 19.920,10.102 19.920 L 10.000 19.920 10.000 16.020 L 10.000 12.120 12.757 10.742 C 14.294 9.973,15.578 9.306,15.659 9.235 C 15.973 8.960,16.081 8.502,15.920 8.129 C 15.821 7.898,15.598 7.674,15.376 7.581 C 15.296 7.547,15.117 7.520,14.978 7.520 C 14.727 7.520,14.710 7.527,12.362 8.699 L 10.000 9.879 10.000 8.749 L 10.000 7.620 12.768 6.240 C 14.968 5.143,15.570 4.827,15.702 4.697 C 15.881 4.521,16.000 4.243,16.000 4.000 C 16.000 3.594,15.708 3.189,15.321 3.060 C 14.917 2.926,14.925 2.923,12.369 4.198 C 11.087 4.837,10.031 5.360,10.021 5.360 C 10.012 5.360,9.999 4.761,9.992 4.030 L 9.980 2.700 9.872 2.516 C 9.628 2.101,9.150 1.915,8.695 2.057 " stroke="none" fill-rule="evenodd" fill="#000000"></path></svg>