<svg  xmlns="http://www.w3.org/2000/svg" width="24" height="24" viewBox="0 0 24 24" fill="none" stroke="currentColor" stroke-width="2" stroke-linecap="round" stroke-linejoin="round"><path d="M6.499 1.043 C 5.382 1.230,4.454 2.054,4.115 3.160 C 4.045 3.390,4.023 3.559,4.022 3.883 C 4.020 4.285,4.026 4.315,4.141 4.503 C 4.446 4.998,5.077 5.144,5.548 4.828 C 5.816 4.647,5.951 4.410,5.999 4.031 C 6.049 3.636,6.114 3.485,6.321 3.283 C 6.597 3.016,6.701 3.000,8.187 3.000 L 9.480 3.000 9.480 4.000 L 9.480 5.000 9.110 5.002 C 8.431 5.007,7.952 5.205,7.535 5.653 C 7.415 5.782,7.273 5.975,7.219 6.083 C 7.022 6.471,7.000 6.651,7.000 7.864 L 7.000 8.991 6.230 9.010 C 5.567 9.027,5.416 9.043,5.139 9.126 C 4.181 9.415,3.420 10.179,3.114 11.160 L 3.020 11.460 3.020 15.500 L 3.020 19.540 3.114 19.840 C 3.419 20.816,4.153 21.558,5.140 21.885 C 5.417 21.977,5.446 21.978,7.567 21.991 C 9.023 22.000,9.767 21.990,9.876 21.961 C 10.281 21.852,10.600 21.429,10.600 21.003 C 10.599 20.616,10.395 20.291,10.025 20.089 C 9.913 20.027,9.684 20.018,7.800 20.000 L 5.700 19.980 5.516 19.872 C 5.415 19.813,5.284 19.700,5.225 19.623 C 4.992 19.317,5.000 19.469,5.000 15.522 C 5.000 11.415,4.985 11.621,5.303 11.303 C 5.621 10.985,5.414 11.000,9.537 10.998 C 12.476 10.997,13.209 10.986,13.330 10.943 C 13.551 10.864,13.744 10.702,13.869 10.489 L 13.980 10.300 13.992 8.553 C 14.001 7.098,13.993 6.762,13.942 6.543 C 13.859 6.185,13.723 5.931,13.465 5.653 C 13.048 5.205,12.569 5.007,11.890 5.002 L 11.520 5.000 11.520 4.000 L 11.520 3.000 12.850 2.998 C 14.280 2.996,14.351 2.988,14.619 2.783 C 14.696 2.725,14.808 2.592,14.869 2.489 C 14.964 2.328,14.980 2.256,14.980 2.000 C 14.980 1.746,14.963 1.672,14.872 1.516 C 14.813 1.415,14.698 1.282,14.618 1.221 C 14.320 0.994,14.426 1.000,10.404 1.005 C 8.367 1.007,6.609 1.025,6.499 1.043 M12.000 8.000 L 12.000 9.000 10.500 9.000 L 9.000 9.000 9.000 8.000 L 9.000 7.000 10.500 7.000 L 12.000 7.000 12.000 8.000 M16.664 10.063 C 16.277 10.205,16.121 10.419,15.961 11.030 C 15.827 11.536,15.745 11.753,15.505 12.228 C 15.159 12.914,14.834 13.296,13.749 14.295 C 12.557 15.391,12.024 16.527,12.021 17.980 C 12.019 18.821,12.160 19.431,12.526 20.175 C 13.498 22.152,15.639 23.282,17.760 22.938 C 19.831 22.602,21.452 21.032,21.907 18.919 C 21.995 18.509,22.006 17.510,21.926 17.140 C 21.676 15.988,21.161 15.120,20.212 14.256 C 18.797 12.966,18.425 12.391,17.960 10.766 C 17.891 10.526,17.843 10.441,17.698 10.300 C 17.413 10.023,17.019 9.933,16.664 10.063 M17.181 13.910 C 17.519 14.422,17.965 14.910,18.790 15.673 C 19.520 16.348,19.826 16.828,19.946 17.488 C 20.136 18.537,19.709 19.642,18.839 20.348 C 18.174 20.888,17.274 21.111,16.441 20.943 C 15.792 20.811,15.369 20.577,14.880 20.080 C 13.985 19.170,13.754 17.858,14.299 16.780 C 14.525 16.332,14.814 15.991,15.380 15.501 C 15.905 15.047,16.441 14.463,16.750 14.010 C 16.873 13.829,16.987 13.680,17.002 13.680 C 17.016 13.680,17.097 13.784,17.181 13.910 " stroke="none" fill-rule="evenodd" fill="#000000"></path></svg>