<svg  xmlns="http://www.w3.org/2000/svg" width="24" height="24" viewBox="0 0 24 24" fill="none" stroke="currentColor" stroke-width="2" stroke-linecap="round" stroke-linejoin="round"><path d="M1.670 1.061 C 1.448 1.142,1.250 1.309,1.128 1.516 C 1.036 1.672,1.020 1.745,1.021 2.000 C 1.021 2.213,1.043 2.341,1.095 2.440 C 1.136 2.517,1.700 3.114,2.349 3.766 C 3.198 4.619,3.520 4.967,3.496 5.006 C 3.478 5.036,3.326 5.243,3.158 5.466 C 2.116 6.850,1.397 8.590,1.112 10.420 C 0.985 11.235,0.986 12.770,1.114 13.594 C 1.416 15.540,2.184 17.317,3.368 18.808 C 3.668 19.187,3.977 19.424,4.329 19.546 C 4.625 19.649,5.107 19.639,5.409 19.523 C 5.537 19.474,5.661 19.448,5.689 19.466 C 5.717 19.483,5.911 19.633,6.120 19.800 C 7.322 20.758,8.785 21.703,9.600 22.047 C 10.152 22.280,10.861 22.236,11.295 21.941 C 11.377 21.885,11.462 21.840,11.485 21.840 C 11.508 21.840,11.773 21.937,12.073 22.055 C 13.125 22.469,14.117 22.765,14.919 22.902 C 15.566 23.013,16.091 22.878,16.525 22.488 L 16.726 22.307 17.233 22.432 C 18.464 22.734,20.193 22.960,21.308 22.964 C 21.545 22.965,21.867 22.968,22.021 22.972 C 22.263 22.977,22.329 22.962,22.493 22.866 C 22.968 22.588,23.138 21.967,22.865 21.508 C 22.810 21.416,18.215 16.793,12.653 11.235 C 3.300 1.889,2.525 1.125,2.343 1.065 C 2.107 0.987,1.874 0.986,1.670 1.061 M11.100 1.024 C 10.284 1.108,9.682 1.220,8.978 1.420 C 7.932 1.716,7.629 1.883,7.454 2.260 C 7.211 2.782,7.458 3.401,7.989 3.600 C 8.292 3.713,8.443 3.701,8.962 3.522 C 9.939 3.184,10.675 3.046,11.680 3.013 C 12.439 2.988,13.130 3.047,13.885 3.201 C 14.842 3.396,16.032 3.889,16.880 4.443 C 17.323 4.732,17.347 4.697,16.575 4.882 C 15.546 5.129,13.998 5.353,12.618 5.454 C 11.781 5.516,11.655 5.553,11.412 5.806 C 11.238 5.988,11.152 6.212,11.152 6.483 C 11.152 6.905,11.408 7.265,11.819 7.422 C 11.999 7.490,12.062 7.492,12.776 7.446 C 14.237 7.351,16.013 7.085,17.247 6.777 C 17.460 6.724,17.644 6.680,17.655 6.680 C 17.688 6.680,18.196 7.297,18.528 7.740 C 19.199 8.633,20.112 10.115,20.026 10.169 C 19.888 10.257,18.424 10.179,17.480 10.034 C 16.424 9.871,16.228 9.885,15.924 10.145 C 15.606 10.418,15.481 10.861,15.620 11.226 C 15.701 11.438,15.918 11.696,16.091 11.785 C 16.434 11.963,18.373 12.200,19.485 12.200 L 19.954 12.200 20.193 12.810 C 20.482 13.544,20.722 14.288,20.842 14.824 L 20.931 15.220 20.798 15.431 C 20.552 15.826,20.594 16.291,20.906 16.639 C 21.106 16.861,21.338 16.960,21.659 16.960 C 22.225 16.960,22.804 16.333,22.927 15.588 C 22.962 15.380,22.957 15.251,22.904 14.934 C 22.771 14.138,22.474 13.137,22.055 12.073 C 21.937 11.773,21.840 11.508,21.840 11.485 C 21.840 11.462,21.885 11.377,21.941 11.295 C 22.118 11.034,22.212 10.643,22.193 10.243 C 22.178 9.932,22.157 9.853,22.010 9.546 C 21.519 8.523,20.486 6.947,19.536 5.772 L 19.433 5.644 19.522 5.412 C 19.590 5.237,19.612 5.097,19.612 4.840 C 19.612 4.221,19.370 3.800,18.732 3.311 C 17.130 2.084,15.455 1.383,13.440 1.097 C 13.038 1.040,11.435 0.990,11.100 1.024 M9.575 11.153 C 9.253 11.181,8.064 10.942,7.225 10.680 C 6.595 10.483,6.352 10.472,6.044 10.625 C 5.777 10.758,5.584 11.014,5.524 11.315 C 5.500 11.435,5.480 11.724,5.480 11.957 C 5.479 13.033,5.182 15.326,4.882 16.575 C 4.698 17.343,4.728 17.317,4.470 16.920 C 2.512 13.910,2.527 9.997,4.509 7.025 C 4.673 6.780,4.845 6.539,4.892 6.489 L 4.977 6.397 7.349 8.769 L 9.721 11.140 9.575 11.153 M8.080 12.961 C 8.399 13.026,8.700 13.079,8.749 13.080 C 8.864 13.080,8.902 13.158,9.171 13.940 C 9.635 15.294,9.944 16.643,10.102 18.001 C 10.170 18.582,10.204 20.009,10.152 20.061 C 10.049 20.165,7.647 18.535,6.868 17.833 L 6.675 17.660 6.815 17.080 C 7.067 16.037,7.263 14.826,7.387 13.550 C 7.425 13.160,7.466 12.840,7.478 12.841 C 7.490 12.842,7.761 12.895,8.080 12.961 M13.040 14.460 C 13.982 15.403,14.394 15.840,14.340 15.840 C 14.014 15.839,12.375 15.544,11.842 15.389 L 11.668 15.339 11.496 14.707 C 11.402 14.360,11.259 13.878,11.179 13.636 C 11.098 13.393,11.038 13.189,11.046 13.182 C 11.057 13.171,11.414 13.111,11.620 13.085 C 11.642 13.082,12.281 13.701,13.040 14.460 M12.920 17.663 C 13.217 17.714,13.761 17.789,14.129 17.827 L 14.797 17.898 14.841 18.099 C 14.978 18.730,15.087 19.599,15.108 20.228 C 15.131 20.888,15.128 20.915,15.056 20.898 C 14.181 20.701,13.366 20.432,12.250 19.972 C 12.214 19.957,12.200 19.820,12.199 19.486 C 12.198 19.034,12.150 18.227,12.095 17.744 L 12.068 17.509 12.224 17.539 C 12.310 17.555,12.623 17.611,12.920 17.663 M19.342 20.791 C 19.312 20.821,18.279 20.627,17.720 20.486 L 17.140 20.340 17.111 19.900 C 17.083 19.465,16.977 18.575,16.934 18.420 C 16.922 18.376,17.462 18.888,18.135 19.558 C 18.807 20.228,19.350 20.783,19.342 20.791 " stroke="none" fill-rule="evenodd" fill="#000000"></path></svg>