<svg  xmlns="http://www.w3.org/2000/svg" width="24" height="24" viewBox="0 0 24 24" fill="none" stroke="currentColor" stroke-width="2" stroke-linecap="round" stroke-linejoin="round"><path d="M2.695 4.057 C 2.466 4.129,2.256 4.299,2.128 4.516 C 2.037 4.672,2.020 4.746,2.020 5.000 C 2.020 5.256,2.036 5.328,2.131 5.489 C 2.256 5.702,2.449 5.864,2.670 5.943 C 2.893 6.023,21.107 6.023,21.330 5.943 C 21.551 5.864,21.744 5.702,21.869 5.489 C 21.964 5.328,21.980 5.256,21.980 5.000 C 21.980 4.746,21.963 4.672,21.872 4.516 C 21.740 4.293,21.533 4.128,21.290 4.055 C 21.027 3.976,2.947 3.978,2.695 4.057 M15.536 10.058 C 14.970 10.218,14.446 10.627,14.228 11.080 C 13.996 11.563,14.000 11.492,14.000 15.000 C 14.000 18.508,13.996 18.437,14.228 18.920 C 14.366 19.206,14.794 19.634,15.080 19.772 C 15.593 20.019,16.153 20.060,16.650 19.885 C 16.948 19.781,22.123 16.675,22.353 16.463 C 23.181 15.701,23.213 14.414,22.424 13.618 C 22.215 13.406,21.819 13.155,19.640 11.852 C 16.641 10.059,16.869 10.191,16.620 10.105 C 16.343 10.009,15.793 9.985,15.536 10.058 M2.695 11.057 C 2.466 11.129,2.256 11.299,2.128 11.516 C 2.037 11.672,2.020 11.746,2.020 12.000 C 2.020 12.256,2.036 12.328,2.131 12.489 C 2.256 12.702,2.449 12.864,2.670 12.943 C 2.891 13.022,10.109 13.022,10.330 12.943 C 10.551 12.864,10.744 12.702,10.869 12.489 C 10.964 12.328,10.980 12.256,10.980 12.000 C 10.980 11.746,10.963 11.672,10.872 11.516 C 10.740 11.293,10.533 11.128,10.290 11.055 C 10.030 10.977,2.945 10.979,2.695 11.057 M20.960 15.004 C 20.960 15.017,19.884 15.673,18.570 16.461 C 17.256 17.249,16.140 17.920,16.090 17.951 L 16.000 18.009 16.000 15.007 L 16.000 12.004 18.480 13.492 C 19.844 14.310,20.960 14.991,20.960 15.004 M2.695 18.057 C 2.466 18.129,2.256 18.299,2.128 18.516 C 2.037 18.672,2.020 18.746,2.020 19.000 C 2.020 19.256,2.036 19.328,2.131 19.489 C 2.256 19.702,2.449 19.864,2.670 19.943 C 2.891 20.022,10.109 20.022,10.330 19.943 C 10.551 19.864,10.744 19.702,10.869 19.489 C 10.964 19.328,10.980 19.256,10.980 19.000 C 10.980 18.746,10.963 18.672,10.872 18.516 C 10.740 18.293,10.533 18.128,10.290 18.055 C 10.030 17.977,2.945 17.979,2.695 18.057 " stroke="none" fill-rule="evenodd" fill="#000000"></path></svg>