<svg  xmlns="http://www.w3.org/2000/svg" width="24" height="24" viewBox="0 0 24 24" fill="none" stroke="currentColor" stroke-width="2" stroke-linecap="round" stroke-linejoin="round"><path d="M11.541 1.042 C 11.238 1.089,10.963 1.179,10.660 1.331 C 10.366 1.478,3.476 5.413,3.280 5.546 C 3.086 5.677,2.693 6.067,2.561 6.260 C 2.391 6.507,2.217 6.873,2.114 7.201 L 2.020 7.500 2.020 11.980 C 2.020 16.148,2.025 16.478,2.091 16.720 C 2.171 17.011,2.381 17.477,2.537 17.707 C 2.700 17.949,3.114 18.347,3.378 18.517 C 3.797 18.786,10.364 22.525,10.700 22.685 C 10.876 22.770,11.137 22.870,11.280 22.908 C 11.633 23.003,12.367 23.003,12.720 22.908 C 13.090 22.809,13.633 22.540,13.814 22.368 C 14.444 21.766,14.048 20.708,13.179 20.670 L 13.000 20.663 13.000 16.621 L 13.001 12.580 13.130 12.506 C 13.726 12.164,17.865 9.788,18.800 9.252 L 19.980 8.574 20.000 9.677 C 20.019 10.711,20.025 10.790,20.106 10.940 C 20.298 11.294,20.615 11.488,21.003 11.488 C 21.292 11.488,21.536 11.381,21.724 11.173 C 22.004 10.862,22.006 10.847,21.990 9.079 C 21.975 7.299,21.974 7.293,21.662 6.660 C 21.472 6.273,21.266 6.007,20.933 5.717 C 20.726 5.537,13.790 1.540,13.239 1.284 C 13.096 1.217,12.873 1.136,12.743 1.102 C 12.439 1.023,11.848 0.994,11.541 1.042 M12.289 3.053 C 12.437 3.100,18.957 6.802,18.958 6.840 C 18.959 6.870,16.547 8.240,16.493 8.240 C 16.461 8.240,10.215 4.689,9.547 4.291 C 9.503 4.265,11.494 3.124,11.700 3.057 C 11.898 2.993,12.094 2.992,12.289 3.053 M10.895 7.365 C 12.746 8.423,14.310 9.320,14.371 9.357 L 14.482 9.426 13.241 10.136 L 11.999 10.847 8.520 8.854 C 6.607 7.757,5.042 6.851,5.042 6.840 C 5.043 6.815,7.448 5.443,7.495 5.441 C 7.514 5.441,9.044 6.306,10.895 7.365 M9.630 11.794 L 11.000 12.580 11.000 16.573 C 11.000 18.776,10.985 20.561,10.966 20.553 C 10.947 20.546,9.467 19.703,7.677 18.680 C 5.445 17.405,4.374 16.771,4.271 16.665 C 3.990 16.376,4.000 16.543,4.000 12.335 L 4.000 8.564 6.130 9.786 C 7.302 10.458,8.876 11.362,9.630 11.794 M16.044 13.625 C 15.540 13.876,15.346 14.567,15.651 15.020 C 15.695 15.086,16.147 15.558,16.655 16.070 L 17.579 17.000 16.655 17.930 C 16.147 18.442,15.695 18.914,15.651 18.980 C 15.373 19.392,15.510 20.024,15.940 20.320 C 16.238 20.525,16.740 20.540,17.017 20.352 C 17.085 20.306,17.558 19.853,18.070 19.345 L 19.000 18.421 19.930 19.345 C 20.442 19.853,20.915 20.306,20.981 20.351 C 21.384 20.624,22.047 20.475,22.330 20.048 C 22.525 19.753,22.536 19.254,22.352 18.983 C 22.306 18.915,21.853 18.442,21.345 17.930 L 20.421 17.000 21.345 16.070 C 21.853 15.558,22.306 15.085,22.351 15.019 C 22.468 14.846,22.514 14.545,22.462 14.291 C 22.369 13.831,21.980 13.519,21.502 13.521 C 21.089 13.522,20.997 13.588,19.950 14.631 L 19.000 15.578 18.050 14.631 C 17.371 13.954,17.049 13.661,16.920 13.603 C 16.654 13.483,16.313 13.492,16.044 13.625 " stroke="none" fill-rule="evenodd" fill="#000000"></path></svg>