<svg  xmlns="http://www.w3.org/2000/svg" width="24" height="24" viewBox="0 0 24 24" fill="none" stroke="currentColor" stroke-width="2" stroke-linecap="round" stroke-linejoin="round"><path d="M4.477 1.071 C 3.800 1.254,3.238 1.825,3.060 2.508 C 3.008 2.708,3.000 3.918,3.000 12.000 C 3.000 22.112,2.985 21.457,3.225 21.930 C 3.362 22.200,3.801 22.639,4.071 22.775 C 4.409 22.947,4.732 23.013,5.120 22.990 C 5.676 22.957,5.876 22.871,6.896 22.225 C 7.092 22.101,7.292 22.000,7.340 22.000 C 7.388 22.000,7.669 22.156,7.964 22.346 C 8.764 22.863,9.118 23.000,9.646 23.000 C 10.208 23.000,10.568 22.863,11.379 22.340 C 11.669 22.153,11.948 22.000,12.000 22.000 C 12.052 22.000,12.331 22.153,12.621 22.340 C 13.432 22.863,13.792 23.000,14.354 23.000 C 14.882 23.000,15.236 22.863,16.036 22.346 C 16.331 22.156,16.612 22.000,16.660 22.000 C 16.708 22.000,16.908 22.101,17.104 22.225 C 18.124 22.871,18.324 22.957,18.880 22.990 C 19.490 23.026,19.965 22.844,20.404 22.404 C 20.694 22.114,20.841 21.863,20.937 21.491 C 20.993 21.274,21.000 20.286,20.999 12.014 C 20.999 1.944,21.012 2.538,20.775 2.069 C 20.716 1.955,20.550 1.742,20.404 1.597 C 19.928 1.123,19.392 0.944,18.709 1.031 C 18.272 1.086,17.990 1.212,17.272 1.673 C 16.993 1.853,16.721 2.000,16.669 2.000 C 16.616 2.000,16.359 1.863,16.097 1.695 C 15.390 1.243,15.245 1.168,14.901 1.080 C 14.383 0.948,13.882 0.988,13.419 1.198 C 13.285 1.258,12.933 1.464,12.635 1.654 C 12.338 1.844,12.052 2.000,12.000 2.000 C 11.948 2.000,11.662 1.844,11.365 1.654 C 11.067 1.464,10.715 1.258,10.581 1.198 C 10.118 0.988,9.617 0.948,9.099 1.080 C 8.755 1.168,8.610 1.243,7.903 1.695 C 7.641 1.863,7.384 2.000,7.331 2.000 C 7.279 2.000,7.042 1.876,6.806 1.724 C 5.885 1.132,5.685 1.048,5.108 1.018 C 4.831 1.004,4.675 1.017,4.477 1.071 M5.621 3.340 C 6.432 3.863,6.792 4.000,7.354 4.000 C 7.882 4.000,8.236 3.863,9.036 3.346 C 9.331 3.156,9.612 3.000,9.660 3.000 C 9.708 3.000,9.908 3.101,10.104 3.225 C 11.221 3.932,11.338 3.978,12.000 3.978 C 12.662 3.978,12.779 3.932,13.896 3.225 C 14.092 3.101,14.292 3.000,14.340 3.000 C 14.388 3.000,14.669 3.156,14.964 3.346 C 15.764 3.863,16.118 4.000,16.646 4.000 C 17.208 4.000,17.568 3.863,18.379 3.340 C 18.669 3.153,18.927 3.000,18.953 3.000 C 18.989 3.000,19.000 5.141,19.000 12.000 C 19.000 18.899,18.989 21.000,18.953 21.000 C 18.927 21.000,18.662 20.844,18.365 20.654 C 18.067 20.464,17.715 20.258,17.581 20.198 C 17.118 19.988,16.617 19.948,16.099 20.080 C 15.755 20.168,15.610 20.243,14.903 20.695 C 14.641 20.863,14.384 21.000,14.331 21.000 C 14.279 21.000,14.009 20.854,13.732 20.677 C 12.886 20.132,12.549 20.001,12.000 20.001 C 11.451 20.001,11.114 20.132,10.268 20.677 C 9.991 20.854,9.721 21.000,9.669 21.000 C 9.616 21.000,9.359 20.863,9.097 20.695 C 8.390 20.243,8.245 20.168,7.901 20.080 C 7.383 19.948,6.882 19.988,6.419 20.198 C 6.285 20.258,5.933 20.464,5.635 20.654 C 5.338 20.844,5.073 21.000,5.047 21.000 C 5.011 21.000,5.000 18.899,5.000 12.000 C 5.000 5.141,5.011 3.000,5.047 3.000 C 5.073 3.000,5.331 3.153,5.621 3.340 M8.695 6.057 C 8.466 6.129,8.256 6.299,8.128 6.516 C 8.036 6.672,8.020 6.745,8.021 7.000 C 8.021 7.213,8.043 7.341,8.095 7.440 C 8.136 7.517,8.711 8.125,9.374 8.790 L 10.578 10.000 9.735 10.000 C 8.812 10.000,8.634 10.029,8.382 10.221 C 8.302 10.282,8.187 10.415,8.128 10.516 C 8.037 10.672,8.020 10.746,8.020 11.000 C 8.020 11.256,8.036 11.328,8.131 11.489 C 8.192 11.592,8.304 11.725,8.381 11.783 C 8.643 11.983,8.738 11.996,9.910 11.998 L 11.000 12.000 11.000 13.000 L 11.000 14.000 9.946 14.000 C 8.797 14.000,8.644 14.022,8.382 14.221 C 8.302 14.282,8.187 14.415,8.128 14.516 C 8.037 14.672,8.020 14.746,8.020 15.000 C 8.020 15.256,8.036 15.328,8.131 15.489 C 8.192 15.592,8.304 15.725,8.381 15.783 C 8.642 15.983,8.738 15.996,9.907 15.998 L 10.993 16.000 11.007 16.653 C 11.020 17.300,11.021 17.308,11.141 17.503 C 11.543 18.156,12.457 18.156,12.859 17.503 C 12.979 17.308,12.980 17.300,12.993 16.653 L 13.007 16.000 14.093 15.998 C 15.262 15.996,15.358 15.983,15.619 15.783 C 15.696 15.725,15.808 15.592,15.869 15.489 C 15.964 15.328,15.980 15.256,15.980 15.000 C 15.980 14.746,15.963 14.672,15.872 14.516 C 15.813 14.415,15.698 14.282,15.618 14.221 C 15.356 14.022,15.203 14.000,14.054 14.000 L 13.000 14.000 13.000 13.000 L 13.000 12.000 14.090 11.998 C 15.262 11.996,15.357 11.983,15.619 11.783 C 15.696 11.725,15.808 11.592,15.869 11.489 C 15.964 11.328,15.980 11.256,15.980 11.000 C 15.980 10.746,15.963 10.672,15.872 10.516 C 15.813 10.415,15.698 10.282,15.618 10.221 C 15.366 10.029,15.188 10.000,14.265 10.000 L 13.422 10.000 14.626 8.790 C 15.289 8.125,15.864 7.517,15.905 7.440 C 15.957 7.341,15.979 7.213,15.979 7.000 C 15.980 6.745,15.964 6.672,15.872 6.516 C 15.740 6.293,15.533 6.128,15.290 6.055 C 15.054 5.984,14.943 5.986,14.677 6.064 C 14.472 6.125,14.390 6.199,13.230 7.352 L 12.000 8.576 10.770 7.352 C 9.610 6.199,9.528 6.125,9.323 6.064 C 9.066 5.988,8.919 5.987,8.695 6.057 " stroke="none" fill-rule="evenodd" fill="#000000"></path></svg>