<svg  xmlns="http://www.w3.org/2000/svg" width="24" height="24" viewBox="0 0 24 24" fill="none" stroke="currentColor" stroke-width="2" stroke-linecap="round" stroke-linejoin="round"><path d="M13.578 2.256 C 13.232 2.340,13.044 2.457,11.714 3.417 L 10.420 4.352 10.273 4.276 C 9.737 4.003,8.767 3.934,8.139 4.125 C 7.179 4.417,6.417 5.182,6.114 6.160 C 6.037 6.410,6.021 6.549,6.021 6.995 L 6.020 7.530 4.600 8.573 C 2.976 9.766,2.634 10.075,2.373 10.580 C 2.282 10.756,2.166 11.026,2.114 11.180 L 2.020 11.460 2.009 15.839 C 2.002 18.805,2.012 20.283,2.040 20.421 C 2.148 20.941,2.602 21.538,3.070 21.775 C 3.542 22.014,2.983 22.000,12.000 22.000 C 21.017 22.000,20.458 22.014,20.930 21.775 C 21.196 21.640,21.638 21.200,21.771 20.937 C 22.013 20.460,22.004 20.691,21.990 15.469 L 21.978 10.700 21.871 10.296 C 21.179 7.682,18.913 4.819,16.161 3.085 C 15.567 2.711,14.828 2.326,14.582 2.262 C 14.302 2.189,13.863 2.187,13.578 2.256 M14.434 4.388 C 15.476 4.954,16.341 5.612,17.261 6.536 C 18.543 7.824,19.507 9.329,19.891 10.640 L 19.979 10.940 19.991 15.470 L 20.002 20.000 12.001 20.000 L 4.000 20.000 4.000 19.000 L 4.000 18.000 10.090 17.998 C 15.073 17.997,16.207 17.987,16.330 17.943 C 16.551 17.864,16.744 17.702,16.869 17.489 C 16.964 17.328,16.980 17.256,16.980 17.000 C 16.980 16.746,16.963 16.672,16.872 16.516 C 16.740 16.293,16.533 16.128,16.290 16.055 C 16.139 16.009,15.067 16.000,10.054 16.000 L 4.000 16.000 4.000 15.000 L 4.000 14.000 10.090 13.998 C 15.073 13.997,16.207 13.987,16.330 13.943 C 16.551 13.864,16.744 13.702,16.869 13.489 C 16.964 13.328,16.980 13.256,16.980 13.000 C 16.980 12.746,16.963 12.672,16.872 12.516 C 16.740 12.293,16.533 12.128,16.290 12.055 C 16.139 12.009,15.067 12.000,10.049 12.000 L 3.991 12.000 4.019 11.850 C 4.058 11.636,4.150 11.460,4.294 11.317 C 4.399 11.214,6.821 9.407,6.986 9.308 C 7.020 9.288,7.114 9.333,7.249 9.434 C 7.521 9.636,7.788 9.769,8.161 9.886 C 8.593 10.021,9.406 10.021,9.840 9.886 C 10.826 9.579,11.579 8.826,11.886 7.840 C 11.965 7.588,11.979 7.454,11.979 7.000 C 11.979 6.545,11.964 6.411,11.883 6.149 C 11.831 5.978,11.795 5.832,11.804 5.824 C 11.857 5.775,14.053 4.200,14.068 4.200 C 14.079 4.200,14.243 4.285,14.434 4.388 M9.307 6.060 C 9.601 6.147,9.893 6.465,9.962 6.773 C 10.059 7.209,9.871 7.645,9.486 7.871 C 9.328 7.964,9.255 7.980,9.000 7.980 C 8.746 7.980,8.672 7.963,8.516 7.872 C 7.935 7.530,7.833 6.774,8.304 6.303 C 8.582 6.025,8.916 5.944,9.307 6.060 " stroke="none" fill-rule="evenodd" fill="#000000"></path></svg>