<svg  xmlns="http://www.w3.org/2000/svg" width="24" height="24" viewBox="0 0 24 24" fill="none" stroke="currentColor" stroke-width="2" stroke-linecap="round" stroke-linejoin="round"><path d="M11.400 1.044 C 9.761 1.229,8.261 2.290,7.526 3.785 C 7.145 4.559,7.038 5.053,7.011 6.150 L 6.991 7.000 6.366 7.001 C 6.021 7.002,5.604 7.027,5.437 7.057 C 4.475 7.228,3.589 7.950,3.225 8.858 C 3.165 9.009,2.679 11.094,2.073 13.809 L 1.024 18.500 1.023 19.000 C 1.021 19.368,1.040 19.564,1.092 19.740 C 1.423 20.852,2.145 21.575,3.260 21.908 C 3.488 21.976,3.939 21.980,12.000 21.980 C 20.061 21.980,20.512 21.976,20.740 21.908 C 21.855 21.575,22.577 20.852,22.908 19.740 C 22.960 19.564,22.979 19.368,22.977 19.000 L 22.976 18.500 21.927 13.809 C 21.321 11.094,20.835 9.009,20.775 8.858 C 20.411 7.950,19.525 7.228,18.563 7.057 C 18.396 7.027,17.979 7.002,17.634 7.001 L 17.009 7.000 16.989 6.150 C 16.975 5.566,16.947 5.206,16.901 5.000 C 16.558 3.469,15.585 2.211,14.213 1.525 C 13.352 1.095,12.397 0.932,11.400 1.044 M12.861 3.129 C 13.804 3.405,14.587 4.186,14.874 5.139 C 14.957 5.416,14.973 5.567,14.990 6.230 L 15.009 7.000 12.000 7.000 L 8.991 7.000 9.010 6.230 C 9.027 5.567,9.043 5.416,9.126 5.139 C 9.452 4.057,10.370 3.245,11.499 3.040 C 11.832 2.980,12.500 3.023,12.861 3.129 M7.008 10.153 L 7.020 11.307 7.141 11.503 C 7.543 12.156,8.457 12.156,8.859 11.503 L 8.980 11.307 8.992 10.153 L 9.005 9.000 12.000 9.000 L 14.995 9.000 15.008 10.153 L 15.020 11.307 15.141 11.503 C 15.543 12.156,16.457 12.156,16.859 11.503 L 16.980 11.307 16.992 10.153 L 17.005 9.000 17.575 9.000 C 18.213 9.000,18.410 9.044,18.649 9.241 C 18.728 9.306,18.830 9.436,18.875 9.530 C 19.001 9.792,21.013 18.899,20.990 19.104 C 20.964 19.331,20.808 19.627,20.643 19.764 C 20.336 20.017,20.942 20.000,12.000 20.000 C 3.058 20.000,3.664 20.017,3.357 19.764 C 3.192 19.627,3.036 19.331,3.010 19.104 C 2.987 18.899,4.999 9.792,5.125 9.530 C 5.170 9.436,5.272 9.306,5.352 9.240 C 5.590 9.044,5.757 9.007,6.408 9.003 L 6.995 9.000 7.008 10.153 " stroke="none" fill-rule="evenodd" fill="#000000"></path></svg>