<svg  xmlns="http://www.w3.org/2000/svg" width="24" height="24" viewBox="0 0 24 24" fill="none" stroke="currentColor" stroke-width="2" stroke-linecap="round" stroke-linejoin="round"><path d="M15.400 1.044 C 14.557 1.138,13.667 1.502,12.961 2.040 C 12.634 2.288,3.917 11.151,3.554 11.604 C 2.803 12.540,2.358 13.526,2.093 14.840 C 2.006 15.271,1.994 16.594,2.073 17.040 C 2.313 18.403,2.815 19.506,3.647 20.500 C 5.033 22.158,7.093 23.070,9.260 22.987 C 10.825 22.927,12.292 22.366,13.491 21.372 C 13.809 21.107,22.354 12.389,22.489 12.191 C 22.787 11.753,22.642 11.106,22.183 10.822 C 21.913 10.654,21.493 10.628,21.226 10.761 C 21.092 10.828,19.918 12.002,16.685 15.302 C 13.541 18.510,12.227 19.825,11.976 20.013 C 11.405 20.441,10.723 20.744,9.960 20.907 C 9.494 21.007,8.510 21.008,8.054 20.910 C 6.000 20.466,4.526 18.994,4.093 16.951 C 3.996 16.496,3.996 15.505,4.092 15.052 C 4.315 14.000,4.740 13.226,5.557 12.382 C 7.176 10.710,13.899 3.866,14.080 3.707 C 14.370 3.451,14.746 3.245,15.139 3.125 C 15.412 3.042,15.542 3.027,16.000 3.027 C 16.458 3.027,16.588 3.042,16.861 3.125 C 17.815 3.416,18.584 4.185,18.875 5.139 C 18.958 5.412,18.973 5.542,18.973 6.000 C 18.973 6.458,18.958 6.588,18.875 6.861 C 18.748 7.278,18.547 7.632,18.233 7.988 C 17.682 8.616,9.617 16.798,9.463 16.887 C 9.332 16.962,9.241 16.980,8.997 16.980 C 8.729 16.980,8.671 16.966,8.502 16.860 C 8.124 16.624,7.945 16.224,8.031 15.812 C 8.058 15.686,8.121 15.525,8.171 15.454 C 8.221 15.383,10.179 13.370,12.521 10.980 C 14.864 8.589,16.822 6.564,16.873 6.479 C 17.170 5.983,16.893 5.255,16.333 5.064 C 16.097 4.983,15.950 4.983,15.679 5.064 C 15.420 5.141,15.835 4.731,10.636 10.040 C 8.514 12.207,6.700 14.078,6.605 14.198 C 6.391 14.469,6.235 14.775,6.114 15.161 C 5.979 15.593,5.979 16.406,6.114 16.840 C 6.421 17.826,7.174 18.579,8.160 18.886 C 8.594 19.021,9.406 19.021,9.840 18.886 C 10.245 18.760,10.611 18.562,10.903 18.310 C 11.119 18.124,18.596 10.512,19.560 9.497 C 20.129 8.898,20.488 8.317,20.732 7.600 C 20.922 7.042,20.980 6.669,20.980 6.000 C 20.980 5.552,20.960 5.286,20.907 5.040 C 20.584 3.531,19.676 2.308,18.356 1.605 C 17.421 1.106,16.463 0.925,15.400 1.044 " stroke="none" fill-rule="evenodd" fill="#000000"></path></svg>