<svg  xmlns="http://www.w3.org/2000/svg" width="24" height="24" viewBox="0 0 24 24" fill="none" stroke="currentColor" stroke-width="2" stroke-linecap="round" stroke-linejoin="round"><path d="M1.670 1.061 C 1.448 1.142,1.250 1.309,1.128 1.516 C 1.037 1.672,1.020 1.746,1.020 2.000 C 1.020 2.254,1.036 2.328,1.127 2.480 C 1.186 2.579,1.720 3.144,2.313 3.735 L 3.391 4.810 3.297 4.948 C 3.246 5.024,3.162 5.188,3.112 5.313 L 3.020 5.540 3.020 9.720 C 3.020 12.971,3.032 13.989,3.073 14.300 C 3.579 18.102,5.965 20.778,10.420 22.540 C 11.933 23.138,12.088 23.140,13.520 22.573 C 14.741 22.091,15.950 21.462,16.829 20.853 C 17.227 20.577,17.999 19.956,18.158 19.784 L 18.256 19.678 19.838 21.255 C 20.708 22.122,21.483 22.865,21.560 22.905 C 21.659 22.957,21.788 22.979,22.000 22.979 C 22.258 22.980,22.327 22.964,22.492 22.867 C 22.968 22.587,23.139 21.967,22.865 21.508 C 22.810 21.416,18.215 16.793,12.653 11.235 C 3.300 1.889,2.525 1.125,2.343 1.065 C 2.107 0.987,1.874 0.986,1.670 1.061 M11.606 1.045 C 11.240 1.106,10.901 1.287,10.366 1.708 C 10.088 1.928,9.698 2.214,9.500 2.345 C 9.302 2.476,9.005 2.673,8.840 2.782 C 8.592 2.945,8.521 3.018,8.430 3.197 C 8.308 3.438,8.287 3.700,8.367 3.968 C 8.430 4.178,8.677 4.451,8.899 4.555 C 9.114 4.656,9.456 4.668,9.665 4.581 C 10.033 4.427,11.084 3.716,11.656 3.234 C 11.810 3.105,11.964 3.000,12.000 3.000 C 12.036 3.000,12.163 3.084,12.282 3.186 C 14.105 4.742,16.618 5.858,18.585 5.985 L 19.000 6.012 19.000 9.634 C 19.000 12.019,18.984 13.443,18.954 13.805 C 18.895 14.504,18.929 14.649,19.218 14.945 C 19.623 15.361,20.177 15.378,20.594 14.986 C 20.990 14.613,20.997 14.518,20.998 9.700 C 20.999 5.460,21.002 5.517,20.784 5.087 C 20.572 4.670,20.056 4.229,19.623 4.097 C 19.511 4.063,19.174 4.018,18.873 3.999 C 17.911 3.935,17.061 3.701,16.034 3.217 C 15.145 2.798,14.399 2.331,13.680 1.743 C 13.220 1.367,13.114 1.295,12.853 1.185 C 12.453 1.017,12.047 0.972,11.606 1.045 M16.729 18.374 C 16.575 18.539,15.955 19.029,15.596 19.270 C 14.711 19.865,13.599 20.417,12.358 20.878 L 12.016 21.005 11.538 20.826 C 9.667 20.129,8.243 19.300,7.212 18.307 C 5.874 17.018,5.191 15.570,5.041 13.704 C 5.017 13.403,5.000 11.779,5.000 9.804 L 5.000 6.420 10.919 12.339 L 16.838 18.258 16.729 18.374 " stroke="none" fill-rule="evenodd" fill="#000000"></path></svg>