<svg  xmlns="http://www.w3.org/2000/svg" width="24" height="24" viewBox="0 0 24 24" fill="none" stroke="currentColor" stroke-width="2" stroke-linecap="round" stroke-linejoin="round"><path d="M8.695 1.057 C 8.466 1.129,8.256 1.299,8.128 1.516 L 8.020 1.700 8.009 4.350 L 7.998 7.000 7.369 7.002 C 6.909 7.004,6.669 7.023,6.477 7.073 C 5.786 7.254,5.184 7.886,5.039 8.583 C 5.010 8.725,5.001 9.585,5.011 11.246 C 5.027 13.914,5.024 13.885,5.268 14.600 C 5.839 16.273,7.231 17.505,9.000 17.901 C 9.206 17.947,9.566 17.975,10.149 17.989 L 10.997 18.009 11.009 20.158 L 11.020 22.306 11.141 22.503 C 11.543 23.156,12.457 23.156,12.859 22.503 L 12.980 22.306 12.991 20.158 L 13.003 18.009 13.851 17.989 C 14.984 17.962,15.468 17.851,16.286 17.433 C 17.614 16.756,18.544 15.536,18.904 14.000 C 18.966 13.735,18.976 13.414,18.989 11.255 C 19.005 8.596,19.000 8.514,18.782 8.083 C 18.646 7.816,18.297 7.449,18.017 7.281 C 17.658 7.065,17.361 7.005,16.631 7.002 L 16.002 7.000 15.991 4.350 L 15.980 1.700 15.871 1.514 C 15.479 0.848,14.521 0.848,14.129 1.514 L 14.020 1.700 14.009 4.350 L 13.998 7.000 12.000 7.000 L 10.002 7.000 9.991 4.350 L 9.980 1.700 9.872 1.516 C 9.628 1.101,9.150 0.915,8.695 1.057 M16.991 11.270 L 16.978 13.540 16.878 13.861 C 16.575 14.829,15.819 15.581,14.840 15.886 L 14.540 15.980 12.000 15.980 L 9.460 15.980 9.160 15.886 C 8.181 15.581,7.425 14.829,7.122 13.861 L 7.022 13.540 7.009 11.270 L 6.996 9.000 12.000 9.000 L 17.004 9.000 16.991 11.270 " stroke="none" fill-rule="evenodd" fill="#000000"></path></svg>