<svg  xmlns="http://www.w3.org/2000/svg" width="24" height="24" viewBox="0 0 24 24" fill="none" stroke="currentColor" stroke-width="2" stroke-linecap="round" stroke-linejoin="round"><path d="M19.103 1.045 C 18.909 1.066,18.736 1.119,18.523 1.223 C 18.254 1.355,18.132 1.459,17.435 2.156 C 16.647 2.944,16.414 3.233,16.242 3.640 C 16.046 4.100,16.031 4.212,16.004 5.360 C 15.982 6.318,15.970 6.478,15.906 6.600 C 15.865 6.677,15.526 7.048,15.152 7.425 L 14.471 8.110 14.266 7.974 C 13.009 7.143,11.286 6.808,9.981 7.139 C 9.155 7.348,8.353 7.881,7.827 8.570 C 7.569 8.908,7.408 9.216,7.101 9.958 C 6.978 10.253,6.833 10.554,6.778 10.627 C 6.639 10.809,6.365 10.959,6.134 10.981 C 6.027 10.991,5.742 11.019,5.500 11.042 C 4.586 11.130,3.840 11.413,3.068 11.963 C 2.067 12.677,1.364 13.771,1.093 15.040 C 1.005 15.449,0.996 16.521,1.075 17.020 C 1.566 20.104,3.896 22.434,6.980 22.925 C 7.479 23.004,8.551 22.995,8.960 22.907 C 11.237 22.420,12.873 20.531,12.987 18.260 C 13.027 17.449,13.172 17.254,13.981 16.924 C 14.266 16.807,14.644 16.641,14.820 16.554 C 15.824 16.056,16.573 15.116,16.887 13.957 C 17.017 13.478,17.016 12.456,16.885 11.840 C 16.724 11.086,16.411 10.314,16.040 9.755 L 15.890 9.529 16.575 8.849 C 16.952 8.474,17.323 8.135,17.400 8.094 C 17.522 8.030,17.680 8.018,18.640 7.997 C 19.637 7.975,19.766 7.964,20.020 7.882 C 20.686 7.665,20.981 7.451,21.923 6.494 C 22.531 5.876,22.646 5.740,22.773 5.480 C 23.058 4.898,23.058 4.307,22.774 3.712 C 22.647 3.446,22.543 3.329,21.607 2.396 C 20.690 1.481,20.549 1.356,20.289 1.228 C 20.028 1.099,19.886 1.063,19.500 1.026 C 19.434 1.020,19.255 1.028,19.103 1.045 M20.200 3.820 L 20.979 4.600 20.380 5.203 C 20.050 5.534,19.708 5.845,19.620 5.893 C 19.475 5.971,19.390 5.981,18.727 5.993 L 17.994 6.006 18.007 5.273 C 18.018 4.654,18.032 4.518,18.094 4.400 C 18.159 4.276,19.347 3.040,19.400 3.040 C 19.411 3.040,19.771 3.391,20.200 3.820 M11.605 9.058 C 12.030 9.123,12.377 9.230,12.740 9.410 C 12.872 9.476,12.988 9.537,12.998 9.546 C 13.008 9.555,12.592 9.990,12.074 10.512 C 11.556 11.033,11.095 11.514,11.051 11.580 C 10.771 11.995,10.916 12.641,11.354 12.931 C 11.648 13.126,12.147 13.135,12.419 12.951 C 12.485 12.906,12.967 12.444,13.488 11.926 C 14.010 11.408,14.445 10.992,14.454 11.002 C 14.463 11.012,14.524 11.128,14.590 11.260 C 14.771 11.626,14.878 11.971,14.946 12.416 C 15.076 13.264,14.923 13.852,14.434 14.382 C 14.214 14.620,13.979 14.762,13.440 14.981 C 12.488 15.369,12.019 15.673,11.653 16.140 C 11.220 16.694,11.060 17.151,11.000 18.002 C 10.940 18.857,10.741 19.402,10.305 19.911 C 9.893 20.391,9.421 20.705,8.840 20.886 C 8.584 20.966,8.455 20.979,7.960 20.980 C 6.661 20.980,5.512 20.519,4.563 19.616 C 3.686 18.781,3.168 17.725,3.037 16.500 C 2.911 15.317,3.249 14.416,4.088 13.696 C 4.598 13.259,5.143 13.060,5.998 13.000 C 6.519 12.963,6.744 12.920,7.110 12.786 C 7.479 12.651,7.930 12.333,8.216 12.009 C 8.571 11.605,8.647 11.474,8.934 10.772 C 9.296 9.886,9.472 9.626,9.903 9.340 C 10.384 9.021,10.846 8.944,11.605 9.058 M5.670 15.061 C 5.448 15.142,5.250 15.309,5.128 15.516 C 5.036 15.672,5.020 15.745,5.021 16.000 C 5.021 16.213,5.043 16.341,5.095 16.440 C 5.194 16.627,7.294 18.739,7.508 18.866 C 7.968 19.138,8.587 18.968,8.867 18.492 C 8.964 18.327,8.980 18.257,8.980 18.000 C 8.980 17.747,8.963 17.672,8.873 17.520 C 8.815 17.421,8.266 16.843,7.653 16.236 C 6.680 15.271,6.515 15.124,6.343 15.066 C 6.108 14.987,5.875 14.985,5.670 15.061 " stroke="none" fill-rule="evenodd" fill="#000000"></path></svg>