<svg  xmlns="http://www.w3.org/2000/svg" width="24" height="24" viewBox="0 0 24 24" fill="none" stroke="currentColor" stroke-width="2" stroke-linecap="round" stroke-linejoin="round"><path d="M11.340 1.024 C 10.026 1.160,9.091 1.415,8.060 1.918 C 6.244 2.804,4.840 4.202,3.939 6.020 C 2.688 8.542,2.688 11.458,3.939 13.980 C 4.840 15.798,6.248 17.199,8.060 18.082 C 8.906 18.494,9.785 18.772,10.620 18.893 L 10.980 18.944 10.991 19.972 L 11.001 21.000 8.947 21.000 C 6.717 21.000,6.666 21.004,6.382 21.221 C 6.302 21.282,6.187 21.415,6.128 21.516 C 6.037 21.672,6.020 21.746,6.020 22.000 C 6.020 22.256,6.036 22.328,6.131 22.489 C 6.256 22.702,6.449 22.864,6.670 22.943 C 6.892 23.022,17.108 23.022,17.330 22.943 C 17.551 22.864,17.744 22.702,17.869 22.489 C 17.964 22.328,17.980 22.256,17.980 22.000 C 17.980 21.746,17.963 21.672,17.872 21.516 C 17.813 21.415,17.698 21.282,17.618 21.221 C 17.334 21.004,17.283 21.000,15.053 21.000 L 12.999 21.000 13.009 19.972 L 13.020 18.944 13.380 18.893 C 14.852 18.681,16.445 17.975,17.657 16.998 C 17.831 16.858,18.146 16.570,18.358 16.358 C 21.079 13.637,21.771 9.506,20.084 6.060 C 18.773 3.384,16.266 1.546,13.320 1.101 C 12.911 1.039,11.662 0.991,11.340 1.024 M13.102 3.098 C 16.099 3.551,18.491 5.985,18.924 9.020 C 18.990 9.483,18.990 10.517,18.924 10.980 C 18.487 14.047,16.126 16.424,13.020 16.926 C 12.607 16.992,11.393 16.992,10.980 16.926 C 7.873 16.424,5.513 14.047,5.076 10.980 C 4.967 10.217,5.022 9.093,5.205 8.340 C 5.815 5.828,7.824 3.818,10.340 3.205 C 10.624 3.135,11.064 3.069,11.540 3.023 C 11.813 2.997,12.726 3.041,13.102 3.098 M9.640 5.669 C 9.496 5.720,9.298 5.892,8.646 6.536 C 8.199 6.978,7.788 7.416,7.734 7.508 C 7.462 7.969,7.633 8.588,8.108 8.867 C 8.273 8.964,8.343 8.980,8.600 8.980 C 8.854 8.980,8.928 8.963,9.080 8.873 C 9.301 8.741,10.803 7.233,10.905 7.040 C 10.957 6.940,10.979 6.813,10.979 6.600 C 10.980 6.345,10.964 6.272,10.872 6.116 C 10.617 5.682,10.118 5.502,9.640 5.669 M14.580 6.597 C 14.471 6.648,13.500 7.594,11.514 9.586 C 8.378 12.732,8.508 12.583,8.511 13.020 C 8.518 13.712,9.257 14.197,9.880 13.918 C 10.150 13.796,15.768 8.184,15.904 7.900 C 16.135 7.417,15.891 6.791,15.391 6.582 C 15.185 6.496,14.779 6.503,14.580 6.597 " stroke="none" fill-rule="evenodd" fill="#000000"></path></svg>