<svg  xmlns="http://www.w3.org/2000/svg" width="24" height="24" viewBox="0 0 24 24" fill="none" stroke="currentColor" stroke-width="2" stroke-linecap="round" stroke-linejoin="round"><path d="M11.420 1.059 C 11.088 1.120,10.707 1.269,10.424 1.449 C 10.214 1.583,3.104 7.657,2.824 7.942 C 2.621 8.148,2.355 8.558,2.227 8.862 C 1.991 9.425,1.996 9.280,2.009 14.660 L 2.020 19.580 2.114 19.860 C 2.446 20.851,3.184 21.582,4.160 21.886 L 4.460 21.980 12.000 21.980 L 19.540 21.980 19.840 21.886 C 20.816 21.582,21.554 20.851,21.886 19.860 L 21.980 19.580 21.991 14.660 C 22.004 9.293,22.010 9.453,21.776 8.878 C 21.649 8.566,21.386 8.156,21.176 7.942 C 20.896 7.657,13.786 1.583,13.576 1.449 C 12.971 1.064,12.176 0.920,11.420 1.059 M12.473 3.125 C 12.559 3.177,14.242 4.603,16.213 6.294 C 19.266 8.913,19.811 9.396,19.889 9.554 L 19.980 9.740 19.992 14.380 C 20.001 17.644,19.992 19.081,19.961 19.224 C 19.905 19.484,19.724 19.731,19.486 19.871 L 19.300 19.980 12.000 19.980 L 4.700 19.980 4.516 19.872 C 4.415 19.813,4.283 19.700,4.224 19.621 C 3.987 19.312,3.998 19.561,4.009 14.439 L 4.020 9.740 4.111 9.554 C 4.189 9.396,4.733 8.914,7.789 6.294 C 9.761 4.603,11.410 3.194,11.454 3.163 C 11.717 2.975,12.197 2.957,12.473 3.125 M9.780 9.026 C 8.696 9.199,7.771 9.885,7.320 10.851 C 7.075 11.375,7.022 11.622,7.022 12.240 C 7.022 12.823,7.074 13.090,7.272 13.540 C 7.502 14.063,7.559 14.133,9.465 16.200 C 10.145 16.937,10.787 17.597,10.891 17.667 C 11.255 17.911,11.488 17.976,12.000 17.976 C 12.512 17.976,12.745 17.911,13.109 17.667 C 13.281 17.552,15.488 15.201,16.159 14.419 C 17.124 13.292,17.262 11.856,16.526 10.580 C 16.349 10.274,15.732 9.658,15.420 9.476 C 14.870 9.156,14.388 9.026,13.740 9.026 C 13.175 9.025,12.786 9.116,12.295 9.362 C 11.993 9.514,11.986 9.516,11.884 9.446 C 11.730 9.341,11.331 9.173,11.059 9.099 C 10.823 9.034,10.016 8.988,9.780 9.026 M10.778 11.119 C 10.883 11.170,11.083 11.325,11.222 11.463 C 11.729 11.968,12.266 11.969,12.775 11.468 C 13.108 11.140,13.369 11.022,13.760 11.024 C 14.118 11.025,14.372 11.130,14.621 11.379 C 14.870 11.628,14.975 11.882,14.976 12.240 C 14.978 12.740,14.929 12.812,13.636 14.221 C 13.011 14.902,12.388 15.576,12.250 15.719 L 12.000 15.980 11.750 15.719 C 10.781 14.709,9.197 12.935,9.116 12.771 C 8.981 12.496,8.980 11.978,9.115 11.720 C 9.283 11.397,9.575 11.148,9.920 11.035 C 10.105 10.974,10.574 11.020,10.778 11.119 " stroke="none" fill-rule="evenodd" fill="#000000"></path></svg>