<svg  xmlns="http://www.w3.org/2000/svg" width="24" height="24" viewBox="0 0 24 24" fill="none" stroke="currentColor" stroke-width="2" stroke-linecap="round" stroke-linejoin="round"><path d="M9.499 1.042 C 8.385 1.234,7.472 2.039,7.118 3.140 C 7.039 3.385,7.026 3.529,7.010 4.289 L 6.991 5.158 6.776 5.257 C 6.658 5.311,6.457 5.423,6.330 5.505 C 6.084 5.666,2.341 9.358,1.796 9.977 C 1.449 10.373,1.255 10.709,1.114 11.160 L 1.020 11.460 1.020 15.500 L 1.020 19.540 1.114 19.840 C 1.422 20.827,2.173 21.578,3.160 21.886 L 3.460 21.980 12.000 21.980 L 20.540 21.980 20.840 21.886 C 21.827 21.578,22.578 20.827,22.886 19.840 L 22.980 19.540 22.980 15.500 L 22.980 11.460 22.886 11.160 C 22.746 10.709,22.551 10.373,22.204 9.977 C 21.663 9.362,17.917 5.667,17.670 5.506 C 17.543 5.423,17.342 5.311,17.224 5.257 L 17.009 5.158 16.990 4.289 C 16.974 3.529,16.961 3.385,16.882 3.140 C 16.571 2.172,15.820 1.422,14.861 1.122 L 14.540 1.022 12.120 1.015 C 10.789 1.011,9.609 1.023,9.499 1.042 M14.310 3.061 C 14.452 3.103,14.571 3.178,14.697 3.303 C 14.948 3.554,15.000 3.751,15.000 4.447 L 15.000 5.000 12.000 5.000 L 9.000 5.000 9.000 4.447 C 9.000 3.750,9.052 3.554,9.304 3.303 C 9.604 3.002,9.569 3.006,11.983 3.003 C 13.772 3.000,14.138 3.010,14.310 3.061 M16.323 7.063 C 16.532 7.124,16.617 7.204,18.707 9.293 C 21.218 11.804,21.000 11.505,21.000 12.447 L 21.000 13.000 19.003 13.000 L 17.007 13.000 16.993 12.350 C 16.981 11.726,16.976 11.693,16.871 11.514 C 16.479 10.848,15.521 10.848,15.129 11.514 C 15.024 11.693,15.019 11.726,15.007 12.350 L 14.993 13.000 12.000 13.000 L 9.007 13.000 8.993 12.350 C 8.981 11.726,8.976 11.693,8.871 11.514 C 8.648 11.134,8.208 10.941,7.786 11.035 C 7.515 11.096,7.270 11.275,7.129 11.514 C 7.024 11.693,7.019 11.726,7.007 12.350 L 6.993 13.000 4.997 13.000 L 3.000 13.000 3.000 12.447 C 3.000 11.505,2.783 11.804,5.293 9.293 C 7.306 7.281,7.474 7.122,7.660 7.066 C 7.832 7.014,8.430 7.005,11.983 7.003 C 15.631 7.000,16.130 7.007,16.323 7.063 M7.007 15.653 C 7.020 16.300,7.021 16.308,7.141 16.503 C 7.543 17.156,8.457 17.156,8.859 16.503 C 8.979 16.308,8.980 16.300,8.993 15.653 L 9.007 15.000 12.000 15.000 L 14.993 15.000 15.007 15.653 C 15.020 16.300,15.021 16.308,15.141 16.503 C 15.209 16.613,15.346 16.756,15.452 16.828 C 15.923 17.144,16.554 16.999,16.859 16.503 C 16.979 16.308,16.980 16.300,16.993 15.653 L 17.007 15.000 19.003 15.000 L 21.000 15.000 21.000 17.054 C 21.000 19.283,20.996 19.334,20.779 19.618 C 20.718 19.698,20.585 19.813,20.484 19.872 L 20.300 19.980 12.000 19.980 L 3.700 19.980 3.516 19.872 C 3.415 19.813,3.284 19.700,3.225 19.623 C 3.000 19.328,3.000 19.328,3.000 17.075 L 3.000 15.000 4.997 15.000 L 6.993 15.000 7.007 15.653 " stroke="none" fill-rule="evenodd" fill="#000000"></path></svg>