<svg  xmlns="http://www.w3.org/2000/svg" width="24" height="24" viewBox="0 0 24 24" fill="none" stroke="currentColor" stroke-width="2" stroke-linecap="round" stroke-linejoin="round"><path d="M14.528 1.060 C 13.974 1.216,13.444 1.632,13.228 2.080 C 13.020 2.513,13.000 2.678,13.000 3.961 C 13.000 5.321,12.983 5.419,12.700 5.702 C 12.499 5.903,12.588 5.872,10.176 6.575 C 9.162 6.870,8.226 7.162,8.096 7.223 C 7.771 7.376,7.369 7.783,7.210 8.120 C 7.041 8.481,7.008 8.688,6.960 9.731 C 6.888 11.268,6.712 12.548,6.417 13.675 C 5.991 15.307,5.244 16.548,4.485 16.890 C 4.374 16.940,4.150 16.982,3.874 17.006 C 2.920 17.088,2.276 17.411,1.679 18.108 C 1.437 18.391,1.238 18.761,1.114 19.160 C 0.979 19.594,0.979 20.406,1.114 20.840 C 1.417 21.815,2.149 22.553,3.140 22.886 L 3.420 22.980 10.773 22.991 C 15.657 22.998,18.177 22.988,18.277 22.961 C 18.498 22.901,18.739 22.710,18.867 22.492 C 18.964 22.327,18.980 22.257,18.980 22.000 C 18.980 21.746,18.963 21.672,18.872 21.516 C 18.761 21.328,18.572 21.158,18.373 21.070 C 18.287 21.032,17.497 21.015,15.052 21.000 L 11.843 20.980 17.101 15.426 C 20.473 11.863,22.414 9.783,22.514 9.624 C 22.854 9.086,22.979 8.656,22.979 8.020 C 22.980 7.156,22.724 6.517,22.139 5.915 C 21.943 5.715,16.465 1.568,16.055 1.310 C 15.633 1.045,14.967 0.936,14.528 1.060 M18.270 5.472 C 18.275 5.488,17.359 6.472,16.234 7.660 C 14.696 9.284,14.165 9.870,14.095 10.020 C 13.923 10.385,13.986 10.766,14.267 11.080 C 14.472 11.308,14.697 11.408,15.005 11.408 C 15.447 11.408,15.395 11.454,17.752 8.968 L 19.915 6.686 20.333 7.000 C 20.562 7.173,20.788 7.375,20.834 7.450 C 21.036 7.777,21.042 8.228,20.848 8.513 C 20.789 8.601,18.114 11.447,14.904 14.838 L 9.067 21.002 6.384 20.991 L 3.700 20.980 3.516 20.872 C 2.595 20.330,2.998 19.000,4.084 19.000 C 4.870 19.000,5.781 18.573,6.447 17.893 C 6.833 17.499,6.899 17.418,7.170 17.000 C 8.203 15.408,8.796 13.063,8.966 9.900 L 9.014 9.000 9.337 8.903 C 9.515 8.850,10.380 8.597,11.260 8.341 C 12.140 8.085,12.977 7.832,13.120 7.778 C 13.812 7.518,14.466 6.874,14.765 6.161 C 14.967 5.677,15.000 5.393,15.000 4.141 L 15.000 3.000 16.630 4.222 C 17.527 4.894,18.264 5.457,18.270 5.472 M18.695 17.057 C 18.466 17.129,18.256 17.299,18.128 17.516 C 18.037 17.672,18.020 17.746,18.020 18.000 C 18.020 18.256,18.036 18.328,18.131 18.489 C 18.256 18.702,18.449 18.864,18.670 18.943 C 18.888 19.021,22.112 19.021,22.330 18.943 C 22.551 18.864,22.744 18.702,22.869 18.489 C 22.964 18.328,22.980 18.256,22.980 18.000 C 22.980 17.746,22.963 17.672,22.872 17.516 C 22.740 17.293,22.533 17.128,22.290 17.055 C 22.035 16.978,18.941 16.980,18.695 17.057 " stroke="none" fill-rule="evenodd" fill="#000000"></path></svg>