<svg  xmlns="http://www.w3.org/2000/svg" width="24" height="24" viewBox="0 0 24 24" fill="none" stroke="currentColor" stroke-width="2" stroke-linecap="round" stroke-linejoin="round"><path d="M11.660 1.035 C 11.406 1.102,11.155 1.242,10.954 1.427 C 10.758 1.609,10.675 1.765,9.510 4.120 C 8.829 5.495,8.228 6.679,8.173 6.752 C 8.022 6.951,7.801 7.069,7.454 7.138 C 7.281 7.172,6.026 7.362,4.664 7.560 C 3.303 7.758,2.123 7.940,2.043 7.964 C 1.963 7.988,1.800 8.073,1.680 8.154 C 0.880 8.691,0.779 9.789,1.463 10.506 C 1.571 10.620,2.407 11.436,3.320 12.320 C 4.233 13.204,5.068 14.020,5.175 14.133 C 5.430 14.404,5.518 14.600,5.519 14.897 C 5.520 15.028,5.322 16.297,5.080 17.717 C 4.838 19.138,4.631 20.355,4.620 20.421 C 4.591 20.595,4.671 20.985,4.785 21.227 C 4.916 21.505,5.289 21.847,5.589 21.964 C 5.761 22.031,5.907 22.055,6.160 22.057 C 6.479 22.060,6.521 22.050,6.840 21.896 C 7.565 21.546,11.625 19.390,11.714 19.307 C 12.197 18.858,12.115 18.045,11.555 17.725 C 11.314 17.587,11.075 17.543,10.847 17.594 C 10.756 17.614,9.817 18.085,8.759 18.640 C 7.701 19.195,6.826 19.639,6.813 19.626 C 6.800 19.613,6.955 18.635,7.158 17.452 C 7.459 15.688,7.525 15.229,7.523 14.906 C 7.518 14.205,7.284 13.539,6.860 13.019 C 6.788 12.930,6.021 12.165,5.155 11.319 C 4.289 10.472,3.575 9.771,3.570 9.760 C 3.564 9.749,4.410 9.616,5.450 9.466 C 6.489 9.315,7.493 9.166,7.680 9.135 C 8.548 8.990,9.161 8.659,9.693 8.048 C 9.897 7.814,10.057 7.516,10.952 5.710 C 11.517 4.572,11.988 3.640,12.000 3.640 C 12.012 3.640,12.484 4.571,13.048 5.710 C 13.959 7.550,14.099 7.810,14.312 8.052 C 14.782 8.586,15.369 8.937,16.024 9.076 C 16.220 9.118,17.293 9.284,18.410 9.446 C 19.526 9.608,20.438 9.749,20.436 9.760 C 20.434 9.771,19.947 10.248,19.355 10.820 C 18.157 11.977,18.068 12.095,18.071 12.504 C 18.077 13.132,18.654 13.600,19.262 13.472 C 19.579 13.405,19.463 13.507,21.733 11.288 C 22.606 10.435,22.740 10.287,22.845 10.063 C 23.131 9.450,22.983 8.710,22.488 8.275 C 22.141 7.970,22.087 7.958,19.220 7.540 C 17.768 7.329,16.499 7.135,16.400 7.111 C 16.170 7.054,15.953 6.919,15.827 6.752 C 15.772 6.679,15.171 5.495,14.490 4.120 C 13.326 1.765,13.242 1.609,13.046 1.427 C 12.761 1.164,12.458 1.035,12.080 1.017 C 11.915 1.009,11.726 1.017,11.660 1.035 M20.640 15.068 C 20.488 15.121,20.196 15.394,18.731 16.853 L 17.002 18.575 16.271 17.855 C 15.655 17.247,15.509 17.123,15.343 17.067 C 14.865 16.905,14.383 17.083,14.128 17.516 C 14.036 17.672,14.020 17.745,14.021 18.000 C 14.021 18.213,14.043 18.341,14.095 18.440 C 14.197 18.633,16.297 20.740,16.520 20.873 C 16.673 20.964,16.745 20.980,17.000 20.979 C 17.212 20.979,17.341 20.957,17.440 20.905 C 17.632 20.805,21.739 16.705,21.873 16.480 C 21.964 16.328,21.980 16.254,21.980 16.000 C 21.980 15.746,21.963 15.672,21.872 15.516 C 21.617 15.083,21.121 14.903,20.640 15.068 " stroke="none" fill-rule="evenodd" fill="#000000"></path></svg>