<svg  xmlns="http://www.w3.org/2000/svg" width="24" height="24" viewBox="0 0 24 24" fill="none" stroke="currentColor" stroke-width="2" stroke-linecap="round" stroke-linejoin="round"><path d="M2.695 4.057 C 2.466 4.129,2.256 4.299,2.128 4.516 C 2.037 4.672,2.020 4.746,2.020 5.000 C 2.020 5.256,2.036 5.328,2.131 5.489 C 2.256 5.702,2.449 5.864,2.670 5.943 C 2.892 6.022,11.108 6.022,11.330 5.943 C 11.551 5.864,11.744 5.702,11.869 5.489 C 11.964 5.328,11.980 5.256,11.980 5.000 C 11.980 4.746,11.963 4.672,11.872 4.516 C 11.740 4.293,11.533 4.128,11.290 4.055 C 11.029 3.976,2.946 3.979,2.695 4.057 M17.640 4.069 C 17.488 4.121,17.208 4.381,15.847 5.735 C 14.960 6.618,14.186 7.421,14.127 7.520 C 14.037 7.672,14.020 7.746,14.020 8.000 C 14.020 8.257,14.036 8.327,14.133 8.492 C 14.263 8.714,14.502 8.901,14.736 8.965 C 14.939 9.019,15.267 8.989,15.445 8.899 C 15.519 8.862,16.125 8.289,16.790 7.626 L 18.000 6.422 19.210 7.626 C 19.875 8.289,20.483 8.864,20.560 8.905 C 20.659 8.957,20.787 8.979,21.000 8.979 C 21.258 8.980,21.327 8.964,21.492 8.867 C 21.968 8.587,22.138 7.968,21.866 7.508 C 21.811 7.416,21.040 6.618,20.153 5.736 C 18.714 4.305,18.519 4.124,18.343 4.066 C 18.102 3.985,17.878 3.986,17.640 4.069 M2.695 11.057 C 2.466 11.129,2.256 11.299,2.128 11.516 C 2.037 11.672,2.020 11.746,2.020 12.000 C 2.020 12.256,2.036 12.328,2.131 12.489 C 2.256 12.702,2.449 12.864,2.670 12.943 C 2.892 13.022,11.108 13.022,11.330 12.943 C 11.551 12.864,11.744 12.702,11.869 12.489 C 11.964 12.328,11.980 12.256,11.980 12.000 C 11.980 11.746,11.963 11.672,11.872 11.516 C 11.740 11.293,11.533 11.128,11.290 11.055 C 11.029 10.976,2.946 10.979,2.695 11.057 M14.670 15.061 C 14.448 15.142,14.250 15.309,14.128 15.516 C 14.036 15.672,14.020 15.745,14.021 16.000 C 14.021 16.212,14.043 16.341,14.095 16.440 C 14.196 16.632,17.296 19.739,17.520 19.873 C 17.672 19.964,17.746 19.980,18.000 19.980 C 18.254 19.980,18.328 19.964,18.480 19.873 C 18.704 19.739,21.804 16.632,21.905 16.440 C 21.957 16.341,21.979 16.212,21.979 16.000 C 21.980 15.745,21.964 15.672,21.872 15.516 C 21.618 15.084,21.137 14.905,20.657 15.066 C 20.484 15.124,20.312 15.279,19.230 16.354 L 18.000 17.576 16.770 16.354 C 15.688 15.279,15.516 15.124,15.343 15.066 C 15.108 14.987,14.875 14.985,14.670 15.061 M2.695 18.057 C 2.466 18.129,2.256 18.299,2.128 18.516 C 2.037 18.672,2.020 18.746,2.020 19.000 C 2.020 19.256,2.036 19.328,2.131 19.489 C 2.256 19.702,2.449 19.864,2.670 19.943 C 2.892 20.022,11.108 20.022,11.330 19.943 C 11.551 19.864,11.744 19.702,11.869 19.489 C 11.964 19.328,11.980 19.256,11.980 19.000 C 11.980 18.746,11.963 18.672,11.872 18.516 C 11.740 18.293,11.533 18.128,11.290 18.055 C 11.029 17.976,2.946 17.979,2.695 18.057 " stroke="none" fill-rule="evenodd" fill="#000000"></path></svg>