<svg  xmlns="http://www.w3.org/2000/svg" width="24" height="24" viewBox="0 0 24 24" fill="none" stroke="currentColor" stroke-width="2" stroke-linecap="round" stroke-linejoin="round"><path d="M10.499 1.043 C 9.379 1.233,8.461 2.048,8.114 3.160 L 8.020 3.460 8.020 9.500 L 8.020 15.540 8.114 15.840 C 8.422 16.827,9.173 17.578,10.160 17.886 L 10.460 17.980 15.660 17.980 L 20.860 17.980 21.104 17.867 C 21.413 17.724,21.721 17.415,21.868 17.100 L 21.980 16.860 21.980 9.500 L 21.980 2.140 21.867 1.896 C 21.724 1.587,21.415 1.279,21.100 1.132 L 20.860 1.020 15.780 1.014 C 12.986 1.011,10.609 1.024,10.499 1.043 M20.000 7.499 L 20.000 11.998 15.230 12.010 C 10.868 12.022,10.441 12.028,10.240 12.091 C 10.119 12.128,10.015 12.159,10.010 12.160 C 10.005 12.160,10.000 10.300,10.000 8.027 C 10.000 3.356,9.983 3.624,10.304 3.303 C 10.619 2.987,10.296 3.006,15.430 3.003 L 20.000 3.000 20.000 7.499 M4.499 6.043 C 3.383 6.230,2.461 7.048,2.114 8.160 L 2.020 8.460 2.020 14.500 L 2.020 20.540 2.114 20.840 C 2.422 21.827,3.173 22.578,4.160 22.886 L 4.460 22.980 9.660 22.980 L 14.860 22.980 15.104 22.867 C 15.413 22.724,15.721 22.415,15.868 22.100 C 15.974 21.872,15.980 21.831,15.980 21.280 C 15.980 20.720,15.976 20.694,15.871 20.514 C 15.648 20.134,15.208 19.941,14.786 20.035 C 14.392 20.123,14.078 20.448,14.017 20.831 L 13.990 21.001 9.345 20.991 L 4.700 20.980 4.516 20.872 C 3.947 20.538,3.834 19.784,4.283 19.321 C 4.539 19.058,4.646 19.028,5.423 19.002 C 6.096 18.980,6.110 18.978,6.303 18.859 C 6.956 18.457,6.956 17.543,6.303 17.141 L 6.106 17.020 5.303 17.021 C 4.772 17.022,4.439 17.039,4.320 17.073 C 4.221 17.102,4.109 17.134,4.070 17.145 C 4.004 17.164,4.000 16.950,4.000 13.030 C 4.000 8.394,3.986 8.628,4.283 8.321 C 4.484 8.114,4.636 8.049,5.028 7.999 C 5.392 7.953,5.631 7.827,5.802 7.591 C 6.207 7.032,5.947 6.253,5.290 6.055 C 5.090 5.995,4.811 5.991,4.499 6.043 M20.000 15.001 L 20.000 16.001 15.350 15.991 L 10.700 15.980 10.516 15.872 C 9.935 15.530,9.833 14.774,10.304 14.303 C 10.619 13.987,10.296 14.006,15.430 14.003 L 20.000 14.000 20.000 15.001 " stroke="none" fill-rule="evenodd" fill="#000000"></path></svg>