<svg  xmlns="http://www.w3.org/2000/svg" width="24" height="24" viewBox="0 0 24 24" fill="none" stroke="currentColor" stroke-width="2" stroke-linecap="round" stroke-linejoin="round"><path d="M1.670 1.061 C 1.448 1.142,1.250 1.309,1.128 1.516 C 1.037 1.672,1.020 1.746,1.020 2.000 C 1.020 2.254,1.036 2.328,1.127 2.480 C 1.186 2.579,1.758 3.182,2.397 3.820 C 3.037 4.458,3.560 4.989,3.560 5.001 C 3.560 5.013,3.431 5.015,3.273 5.006 C 2.521 4.964,2.056 5.314,2.010 5.957 C 1.919 7.219,2.946 9.304,4.537 11.091 L 4.885 11.482 4.753 11.528 C 4.444 11.634,3.482 12.148,3.048 12.438 C 2.139 13.046,1.524 13.681,1.196 14.352 C 0.997 14.761,0.960 15.020,1.060 15.321 C 1.176 15.671,1.376 15.833,1.983 16.072 C 3.212 16.555,4.414 16.866,5.585 17.004 L 5.989 17.051 5.817 17.397 C 5.330 18.377,4.949 20.086,5.009 21.020 C 5.031 21.370,5.160 21.621,5.409 21.802 C 5.654 21.979,5.833 22.013,6.380 21.986 C 7.759 21.916,9.194 21.413,10.495 20.544 L 10.995 20.210 11.008 21.258 L 11.020 22.307 11.141 22.503 C 11.543 23.156,12.457 23.156,12.859 22.503 L 12.980 22.307 12.992 21.258 L 13.005 20.210 13.505 20.544 C 14.534 21.231,15.677 21.700,16.820 21.904 C 17.281 21.986,18.065 22.020,18.264 21.965 C 18.498 21.901,18.737 21.714,18.867 21.492 C 18.973 21.312,18.980 21.271,18.980 20.851 L 18.980 20.402 20.200 21.617 C 20.871 22.285,21.483 22.864,21.560 22.905 C 21.659 22.957,21.787 22.979,22.000 22.979 C 22.258 22.980,22.327 22.964,22.492 22.867 C 22.968 22.587,23.139 21.967,22.865 21.508 C 22.810 21.416,18.215 16.793,12.653 11.235 C 3.300 1.889,2.525 1.125,2.343 1.065 C 2.107 0.987,1.874 0.986,1.670 1.061 M11.670 1.055 C 11.409 1.152,11.252 1.309,10.927 1.794 C 10.383 2.608,10.023 3.339,9.717 4.249 C 9.489 4.930,9.512 5.210,9.827 5.560 C 10.033 5.788,10.261 5.891,10.560 5.888 C 10.819 5.886,11.023 5.808,11.221 5.634 C 11.387 5.488,11.474 5.330,11.599 4.940 C 11.719 4.569,11.962 4.000,12.000 4.000 C 12.041 4.000,12.285 4.581,12.412 4.980 C 12.725 5.962,12.868 6.743,12.960 7.975 C 13.015 8.718,13.053 8.806,13.513 9.248 C 13.876 9.597,14.034 9.680,14.340 9.680 C 14.605 9.680,14.785 9.596,15.167 9.294 C 16.250 8.436,17.459 7.792,18.760 7.382 C 19.146 7.260,19.720 7.121,19.720 7.149 C 19.720 7.221,19.285 7.983,18.991 8.427 C 18.380 9.349,17.815 10.007,17.034 10.706 C 16.620 11.076,16.514 11.193,16.454 11.349 C 16.357 11.599,16.364 11.932,16.470 12.140 C 16.546 12.289,17.122 12.893,17.263 12.972 C 17.298 12.992,17.505 13.059,17.724 13.121 C 18.249 13.271,18.493 13.365,18.982 13.603 C 19.364 13.789,20.068 14.230,20.339 14.453 L 20.458 14.550 20.334 14.654 C 20.165 14.797,20.031 15.122,20.034 15.384 C 20.040 15.882,20.365 16.264,20.860 16.356 C 21.101 16.401,21.312 16.349,22.015 16.072 C 22.429 15.909,22.568 15.834,22.702 15.701 C 23.030 15.372,23.078 14.946,22.845 14.429 C 22.409 13.462,21.370 12.561,19.792 11.782 L 19.124 11.451 19.246 11.336 C 19.624 10.977,20.383 9.988,20.853 9.240 C 21.612 8.033,22.049 6.772,21.990 5.957 C 21.956 5.481,21.664 5.136,21.210 5.034 C 20.719 4.924,19.192 5.146,18.157 5.477 C 17.231 5.774,16.050 6.308,15.243 6.797 C 15.058 6.909,14.904 6.996,14.900 6.990 C 14.896 6.985,14.872 6.827,14.845 6.640 C 14.589 4.836,14.012 3.223,13.156 1.916 C 12.809 1.387,12.697 1.253,12.501 1.138 C 12.286 1.012,11.890 0.972,11.670 1.055 M5.060 7.328 C 5.280 7.392,5.671 7.529,5.928 7.631 L 6.397 7.816 10.994 12.418 C 14.069 15.497,15.667 17.125,15.822 17.337 C 16.085 17.698,16.377 18.234,16.558 18.694 C 16.677 18.995,16.880 19.708,16.880 19.825 C 16.880 19.893,16.806 19.879,16.300 19.713 C 15.207 19.355,14.101 18.629,12.917 17.492 C 12.522 17.112,12.315 17.002,12.000 17.002 C 11.685 17.002,11.478 17.112,11.083 17.492 C 9.899 18.629,8.793 19.355,7.700 19.713 C 7.194 19.879,7.120 19.893,7.120 19.825 C 7.120 19.708,7.322 18.996,7.439 18.703 C 7.726 17.981,8.046 17.458,8.568 16.860 C 8.993 16.373,9.080 16.088,8.934 15.659 C 8.843 15.394,8.580 15.143,8.300 15.055 C 8.111 14.995,8.037 14.993,7.704 15.033 C 6.975 15.123,6.108 15.083,5.140 14.914 C 4.644 14.827,3.685 14.581,3.630 14.526 C 3.591 14.487,4.118 14.103,4.567 13.845 C 5.388 13.373,6.457 13.000,6.991 13.000 C 7.557 13.000,8.044 12.475,7.991 11.922 C 7.959 11.585,7.830 11.389,7.447 11.094 C 6.526 10.384,5.708 9.485,4.974 8.375 C 4.700 7.960,4.320 7.272,4.320 7.189 C 4.320 7.139,4.590 7.189,5.060 7.328 " stroke="none" fill-rule="evenodd" fill="#000000"></path></svg>