<svg  xmlns="http://www.w3.org/2000/svg" width="24" height="24" viewBox="0 0 24 24" fill="none" stroke="currentColor" stroke-width="2" stroke-linecap="round" stroke-linejoin="round"><path d="M11.380 1.024 C 9.494 1.167,7.848 1.734,6.360 2.753 C 4.063 4.327,2.602 6.650,2.113 9.505 C 1.985 10.253,1.985 11.747,2.113 12.496 C 2.481 14.644,3.351 16.402,4.810 17.943 C 5.453 18.623,6.571 19.467,6.947 19.557 C 7.113 19.597,7.189 19.595,7.376 19.546 C 7.915 19.405,8.240 18.902,8.125 18.386 C 8.042 18.014,7.966 17.934,7.154 17.360 C 6.815 17.120,5.953 16.259,5.653 15.860 C 4.829 14.765,4.334 13.600,4.096 12.200 C 3.996 11.612,3.995 10.379,4.095 9.800 C 4.392 8.072,5.091 6.659,6.239 5.465 C 7.288 4.374,8.555 3.635,10.020 3.261 C 10.739 3.077,11.185 3.023,12.000 3.023 C 12.807 3.023,13.248 3.076,13.979 3.260 C 16.556 3.910,18.617 5.795,19.533 8.340 C 19.855 9.234,19.976 9.962,19.976 11.000 C 19.976 11.566,19.956 11.895,19.905 12.200 C 19.667 13.592,19.164 14.776,18.353 15.853 C 18.047 16.258,17.187 17.119,16.846 17.360 C 16.034 17.934,15.958 18.014,15.875 18.386 C 15.760 18.902,16.085 19.405,16.624 19.546 C 16.811 19.595,16.887 19.597,17.053 19.557 C 17.429 19.467,18.547 18.623,19.190 17.943 C 20.647 16.404,21.520 14.642,21.887 12.496 C 22.015 11.747,22.015 10.253,21.887 9.504 C 21.634 8.027,21.151 6.748,20.414 5.608 C 18.796 3.105,16.186 1.457,13.246 1.083 C 12.883 1.037,11.702 0.999,11.380 1.024 M11.342 5.041 C 9.458 5.257,7.739 6.383,6.797 8.020 C 5.977 9.447,5.783 11.233,6.280 12.791 C 6.560 13.669,7.108 14.613,7.472 14.843 C 8.085 15.232,8.913 14.831,8.987 14.110 C 9.016 13.832,8.945 13.611,8.719 13.278 C 8.041 12.280,7.843 11.148,8.140 9.975 C 8.501 8.553,9.672 7.426,11.135 7.092 C 11.523 7.003,12.477 7.003,12.865 7.092 C 14.328 7.426,15.499 8.553,15.860 9.975 C 16.157 11.148,15.959 12.280,15.281 13.278 C 15.055 13.611,14.984 13.832,15.013 14.110 C 15.087 14.834,15.915 15.232,16.532 14.841 C 16.732 14.714,17.086 14.226,17.333 13.736 C 17.984 12.449,18.168 10.949,17.837 9.633 C 17.544 8.467,17.079 7.640,16.241 6.795 C 15.715 6.265,15.273 5.939,14.664 5.633 C 14.252 5.425,13.512 5.179,13.060 5.101 C 12.611 5.023,11.761 4.993,11.342 5.041 M11.477 9.073 C 10.806 9.249,10.238 9.823,10.060 10.508 C 9.941 10.962,10.003 11.492,10.225 11.930 C 10.361 12.199,10.801 12.639,11.070 12.775 C 11.659 13.073,12.341 13.073,12.930 12.775 C 13.196 12.640,13.638 12.200,13.771 11.937 C 13.994 11.498,14.052 11.007,13.940 10.529 C 13.858 10.182,13.720 9.927,13.465 9.653 C 13.074 9.232,12.560 9.005,12.000 9.005 C 11.857 9.005,11.622 9.036,11.477 9.073 M11.477 15.073 C 10.753 15.262,10.155 15.918,10.028 16.664 C 9.986 16.905,10.008 17.159,10.252 19.367 C 10.458 21.221,10.542 21.856,10.604 22.022 C 10.758 22.434,11.148 22.813,11.538 22.930 C 11.747 22.992,12.253 22.992,12.462 22.930 C 12.852 22.813,13.242 22.434,13.396 22.022 C 13.458 21.857,13.542 21.220,13.746 19.380 C 13.998 17.113,14.012 16.937,13.967 16.668 C 13.900 16.278,13.737 15.946,13.471 15.659 C 13.074 15.232,12.563 15.005,12.000 15.005 C 11.857 15.005,11.622 15.036,11.477 15.073 " fill="currentColor" stroke="none" fill-rule="evenodd"></path></svg>