<svg  xmlns="http://www.w3.org/2000/svg" width="24" height="24" viewBox="0 0 24 24" fill="none" stroke="currentColor" stroke-width="2" stroke-linecap="round" stroke-linejoin="round"><path d="M6.541 2.044 C 5.619 2.180,4.837 2.757,4.268 3.720 C 3.086 5.718,2.322 8.059,2.073 10.440 C 2.005 11.087,2.005 12.913,2.073 13.560 C 2.281 15.546,2.816 17.416,3.682 19.180 C 4.593 21.036,5.244 21.690,6.434 21.942 C 6.829 22.026,17.171 22.026,17.566 21.942 C 18.502 21.744,19.150 21.240,19.742 20.252 C 21.000 18.147,21.773 15.653,21.959 13.100 C 22.192 9.900,21.387 6.512,19.738 3.740 C 19.319 3.037,18.908 2.622,18.360 2.349 C 17.645 1.993,18.188 2.022,12.140 2.015 C 9.192 2.011,6.673 2.025,6.541 2.044 M8.747 4.110 C 8.734 4.171,8.657 4.620,8.574 5.110 L 8.425 6.000 6.893 6.000 C 5.869 6.000,5.360 5.986,5.360 5.959 C 5.360 5.819,6.136 4.464,6.324 4.276 C 6.567 4.033,6.716 4.006,7.815 4.003 L 8.769 4.000 8.747 4.110 M13.217 4.130 C 13.299 4.533,13.520 5.825,13.520 5.906 L 13.520 6.000 12.000 6.000 L 10.480 6.000 10.480 5.906 C 10.480 5.825,10.701 4.533,10.783 4.130 L 10.810 4.000 12.000 4.000 L 13.190 4.000 13.217 4.130 M17.315 4.062 C 17.451 4.103,17.578 4.178,17.677 4.277 C 17.864 4.464,18.640 5.819,18.640 5.959 C 18.640 5.986,18.131 6.000,17.107 6.000 L 15.575 6.000 15.426 5.110 C 15.343 4.620,15.266 4.171,15.253 4.110 L 15.231 4.000 16.168 4.000 C 16.900 4.000,17.151 4.014,17.315 4.062 M8.187 8.090 C 8.174 8.139,8.133 8.594,8.094 9.100 C 7.994 10.402,7.994 13.598,8.094 14.900 C 8.133 15.406,8.174 15.861,8.187 15.910 L 8.209 16.000 6.388 16.000 L 4.567 16.000 4.444 15.490 C 4.146 14.258,4.027 13.261,4.027 12.000 C 4.027 10.739,4.146 9.742,4.444 8.510 L 4.567 8.000 6.388 8.000 L 8.209 8.000 8.187 8.090 M13.814 8.210 C 14.032 10.079,14.032 13.921,13.814 15.790 L 13.789 16.000 12.000 16.000 L 10.211 16.000 10.186 15.790 C 9.969 13.998,9.969 10.002,10.186 8.210 L 10.211 8.000 12.000 8.000 L 13.789 8.000 13.814 8.210 M19.576 8.610 C 19.876 9.899,19.973 10.728,19.973 12.000 C 19.973 13.272,19.876 14.101,19.576 15.390 L 19.434 16.000 17.612 16.000 L 15.791 16.000 15.813 15.910 C 15.826 15.861,15.867 15.406,15.906 14.900 C 16.006 13.598,16.006 10.402,15.906 9.100 C 15.867 8.594,15.826 8.139,15.813 8.090 L 15.791 8.000 17.612 8.000 L 19.434 8.000 19.576 8.610 M8.574 18.890 C 8.657 19.380,8.734 19.829,8.747 19.890 L 8.769 20.000 7.810 20.000 C 6.580 20.000,6.447 19.960,6.138 19.495 C 5.949 19.209,5.360 18.117,5.360 18.050 C 5.360 18.011,5.693 18.000,6.893 18.000 L 8.425 18.000 8.574 18.890 M13.520 18.094 C 13.520 18.175,13.299 19.467,13.217 19.870 L 13.190 20.000 12.000 20.000 L 10.810 20.000 10.783 19.870 C 10.701 19.467,10.480 18.175,10.480 18.094 L 10.480 18.000 12.000 18.000 L 13.520 18.000 13.520 18.094 M18.640 18.041 C 18.640 18.134,18.093 19.141,17.833 19.529 C 17.735 19.674,17.610 19.798,17.489 19.869 L 17.300 19.980 16.265 19.992 L 15.230 20.005 15.253 19.892 C 15.266 19.831,15.343 19.380,15.426 18.890 L 15.575 18.000 17.107 18.000 C 18.131 18.000,18.640 18.014,18.640 18.041 " stroke="none" fill-rule="evenodd" fill="#000000"></path></svg>