<svg  xmlns="http://www.w3.org/2000/svg" width="24" height="24" viewBox="0 0 24 24" fill="none" stroke="currentColor" stroke-width="2" stroke-linecap="round" stroke-linejoin="round"><path d="M11.200 1.044 C 9.558 1.255,8.020 2.020,6.950 3.157 C 5.850 4.327,5.214 5.688,5.045 7.240 C 5.022 7.449,4.993 7.989,4.982 8.440 C 4.935 10.216,4.692 11.420,4.163 12.500 C 3.864 13.109,3.546 13.548,2.863 14.295 C 2.290 14.922,2.132 15.172,2.044 15.592 C 1.906 16.254,2.109 16.918,2.597 17.400 C 2.885 17.684,3.240 17.883,3.592 17.956 C 3.892 18.018,20.108 18.018,20.408 17.956 C 20.777 17.879,21.117 17.690,21.403 17.404 C 21.892 16.913,22.094 16.253,21.956 15.592 C 21.870 15.182,21.703 14.908,21.207 14.369 C 20.634 13.746,20.483 13.561,20.169 13.100 C 19.898 12.701,19.709 12.550,19.394 12.483 C 19.038 12.406,18.710 12.523,18.449 12.819 C 18.224 13.074,18.150 13.399,18.241 13.726 C 18.330 14.046,19.011 14.963,19.655 15.630 L 20.012 16.000 12.026 16.000 C 7.634 16.000,4.040 15.987,4.040 15.971 C 4.040 15.955,4.164 15.815,4.315 15.661 C 5.651 14.294,6.367 12.918,6.737 11.004 C 6.884 10.247,6.958 9.493,7.000 8.340 C 7.021 7.751,7.063 7.177,7.096 7.017 C 7.397 5.537,8.409 4.210,9.740 3.548 C 10.511 3.165,11.125 3.022,12.000 3.022 C 12.875 3.022,13.489 3.165,14.260 3.548 C 14.914 3.874,15.363 4.251,16.084 5.082 C 16.254 5.279,16.354 5.357,16.504 5.410 C 16.885 5.547,17.221 5.481,17.520 5.213 C 17.746 5.009,17.847 4.784,17.850 4.480 C 17.852 4.211,17.787 4.055,17.541 3.729 C 16.257 2.029,14.121 0.987,11.960 1.006 C 11.685 1.008,11.343 1.025,11.200 1.044 M20.640 5.068 C 20.488 5.121,20.196 5.394,18.731 6.853 L 17.002 8.575 16.271 7.855 C 15.655 7.247,15.509 7.123,15.343 7.067 C 14.865 6.905,14.383 7.083,14.128 7.516 C 14.036 7.672,14.020 7.745,14.021 8.000 C 14.021 8.213,14.043 8.341,14.095 8.440 C 14.197 8.633,16.297 10.740,16.520 10.873 C 16.673 10.964,16.745 10.980,17.000 10.979 C 17.212 10.979,17.341 10.957,17.440 10.905 C 17.632 10.805,21.739 6.705,21.873 6.480 C 21.964 6.328,21.980 6.254,21.980 6.000 C 21.980 5.746,21.963 5.672,21.872 5.516 C 21.617 5.083,21.121 4.903,20.640 5.068 M9.946 20.065 C 9.698 20.141,9.398 20.433,9.329 20.665 C 9.245 20.947,9.267 21.201,9.398 21.464 C 9.657 21.982,10.195 22.474,10.780 22.729 C 11.253 22.935,11.467 22.979,12.000 22.979 C 12.533 22.979,12.747 22.935,13.220 22.729 C 13.640 22.546,13.983 22.286,14.312 21.902 C 14.811 21.318,14.857 20.735,14.436 20.313 C 14.075 19.951,13.551 19.905,13.148 20.200 C 13.065 20.261,12.935 20.398,12.860 20.503 C 12.693 20.738,12.538 20.863,12.318 20.941 C 11.883 21.094,11.423 20.925,11.143 20.510 C 10.932 20.196,10.583 19.996,10.260 20.003 C 10.194 20.004,10.053 20.032,9.946 20.065 " stroke="none" fill-rule="evenodd" fill="#000000"></path></svg>