<svg  xmlns="http://www.w3.org/2000/svg" width="24" height="24" viewBox="0 0 24 24" fill="none" stroke="currentColor" stroke-width="2" stroke-linecap="round" stroke-linejoin="round"><path d="M5.499 1.043 C 4.379 1.234,3.461 2.048,3.114 3.160 L 3.020 3.460 3.020 12.000 L 3.020 20.540 3.114 20.840 C 3.422 21.827,4.173 22.578,5.160 22.886 L 5.460 22.980 12.000 22.980 L 18.540 22.980 18.840 22.886 C 19.827 22.578,20.578 21.827,20.886 20.840 L 20.980 20.540 20.980 13.980 L 20.980 7.420 20.868 7.060 C 20.728 6.613,20.498 6.179,20.219 5.840 C 19.855 5.397,16.159 1.747,15.910 1.585 C 15.591 1.378,15.236 1.218,14.860 1.111 L 14.540 1.021 10.120 1.015 C 7.689 1.011,5.609 1.024,5.499 1.043 M13.000 5.132 C 13.000 7.443,13.004 7.494,13.225 7.930 C 13.361 8.199,13.801 8.639,14.070 8.775 C 14.506 8.996,14.557 9.000,16.868 9.000 L 19.000 9.000 19.000 14.554 C 19.000 19.144,18.990 20.139,18.945 20.290 C 18.872 20.533,18.707 20.740,18.484 20.872 L 18.300 20.980 12.000 20.980 L 5.700 20.980 5.516 20.872 C 5.415 20.813,5.284 20.700,5.225 20.623 C 4.985 20.308,5.000 20.888,5.000 12.022 C 5.000 2.888,4.974 3.632,5.304 3.303 C 5.615 2.991,5.409 3.006,9.430 3.003 L 13.000 3.000 13.000 5.132 M16.800 5.220 L 18.580 7.000 16.790 7.000 L 15.000 7.000 15.000 5.220 C 15.000 4.241,15.005 3.440,15.010 3.440 C 15.016 3.440,15.821 4.241,16.800 5.220 M7.695 9.057 C 7.466 9.129,7.256 9.299,7.128 9.516 L 7.020 9.700 7.009 13.940 C 6.999 17.801,7.004 18.196,7.064 18.354 C 7.155 18.595,7.343 18.796,7.580 18.906 L 7.780 18.999 11.980 18.998 C 15.385 18.997,16.208 18.986,16.330 18.943 C 16.551 18.864,16.744 18.702,16.869 18.489 C 16.964 18.328,16.980 18.256,16.980 18.000 C 16.980 17.746,16.963 17.672,16.872 17.516 C 16.813 17.415,16.698 17.282,16.618 17.221 C 16.326 16.998,16.349 17.000,13.265 17.000 L 10.422 17.000 11.626 15.790 C 12.289 15.125,12.864 14.517,12.905 14.440 C 12.957 14.341,12.979 14.213,12.979 14.000 C 12.980 13.745,12.964 13.672,12.872 13.516 C 12.618 13.084,12.137 12.905,11.657 13.066 C 11.484 13.124,11.312 13.279,10.231 14.353 L 9.002 15.574 8.991 12.637 L 8.980 9.700 8.872 9.516 C 8.628 9.101,8.150 8.915,7.695 9.057 " stroke="none" fill-rule="evenodd" fill="#000000"></path></svg>