<svg  xmlns="http://www.w3.org/2000/svg" width="24" height="24" viewBox="0 0 24 24" fill="none" stroke="currentColor" stroke-width="2" stroke-linecap="round" stroke-linejoin="round"><path d="M1.670 1.061 C 1.448 1.142,1.250 1.309,1.128 1.516 C 1.037 1.672,1.020 1.746,1.020 2.000 C 1.020 2.254,1.036 2.327,1.127 2.480 C 1.187 2.579,2.072 3.496,3.094 4.517 L 4.954 6.374 4.719 6.841 C 3.305 9.663,2.684 13.191,3.165 15.680 C 3.703 18.466,5.493 20.821,8.014 22.058 C 9.896 22.981,11.898 23.225,13.958 22.782 C 15.546 22.440,17.060 21.614,18.318 20.403 L 18.656 20.077 20.038 21.454 C 20.798 22.212,21.483 22.864,21.560 22.905 C 21.659 22.957,21.788 22.979,22.000 22.979 C 22.258 22.980,22.327 22.964,22.492 22.867 C 22.968 22.587,23.139 21.967,22.865 21.508 C 22.810 21.416,18.215 16.793,12.653 11.235 C 3.300 1.889,2.525 1.125,2.343 1.065 C 2.107 0.987,1.874 0.986,1.670 1.061 M11.280 1.059 C 10.739 1.139,10.340 1.251,9.837 1.463 C 9.165 1.747,8.258 2.317,8.055 2.583 C 7.757 2.973,7.772 3.461,8.092 3.824 C 8.358 4.127,8.726 4.255,9.064 4.164 C 9.153 4.140,9.423 3.992,9.663 3.835 C 10.582 3.235,11.188 3.025,12.000 3.025 C 12.627 3.025,13.001 3.117,13.620 3.422 C 15.117 4.162,16.484 5.703,17.521 7.820 C 18.491 9.801,18.999 11.943,19.000 14.055 C 19.000 14.613,19.048 14.768,19.299 15.027 C 19.724 15.463,20.326 15.452,20.733 15.000 C 20.961 14.746,21.000 14.593,21.000 13.951 C 21.000 10.934,19.983 7.637,18.277 5.120 C 16.800 2.940,14.948 1.517,13.068 1.118 C 12.574 1.014,11.766 0.987,11.280 1.059 M16.989 18.913 C 16.012 19.909,14.718 20.597,13.283 20.885 C 12.687 21.004,11.688 21.031,11.097 20.944 C 8.671 20.588,6.756 19.197,5.700 17.024 C 5.416 16.440,5.285 16.071,5.166 15.515 C 4.943 14.479,4.963 13.128,5.225 11.660 C 5.446 10.416,5.788 9.317,6.318 8.142 L 6.444 7.864 11.841 13.261 L 17.239 18.659 16.989 18.913 " stroke="none" fill-rule="evenodd" fill="#000000"></path></svg>