<svg  xmlns="http://www.w3.org/2000/svg" width="24" height="24" viewBox="0 0 24 24" fill="none" stroke="currentColor" stroke-width="2" stroke-linecap="round" stroke-linejoin="round"><path d="M11.695 1.057 C 11.466 1.129,11.256 1.299,11.128 1.516 L 11.020 1.700 11.020 3.003 L 11.020 4.306 11.141 4.503 C 11.543 5.156,12.457 5.156,12.859 4.503 L 12.980 4.306 12.980 3.003 L 12.980 1.700 12.872 1.516 C 12.628 1.101,12.150 0.915,11.695 1.057 M17.499 1.040 C 16.374 1.244,15.488 2.024,15.114 3.140 L 15.020 3.420 15.009 8.720 L 14.998 14.020 14.861 14.114 C 14.655 14.255,14.079 14.867,13.889 15.146 C 12.930 16.559,12.741 18.323,13.379 19.905 C 13.651 20.581,13.988 21.069,14.554 21.607 C 15.272 22.291,16.072 22.712,17.060 22.927 C 17.379 22.996,18.621 22.996,18.940 22.927 C 19.949 22.708,20.738 22.286,21.488 21.566 C 23.231 19.893,23.492 17.181,22.106 15.140 C 21.920 14.866,21.343 14.253,21.139 14.114 L 21.002 14.020 20.991 8.720 L 20.980 3.420 20.886 3.140 C 20.555 2.154,19.800 1.403,18.861 1.129 C 18.500 1.023,17.832 0.980,17.499 1.040 M18.310 3.061 C 18.589 3.144,18.856 3.411,18.939 3.690 C 18.992 3.869,19.000 4.580,19.000 9.317 L 19.001 14.740 19.095 14.940 C 19.201 15.163,19.299 15.262,19.683 15.530 C 19.986 15.742,20.275 16.023,20.448 16.273 C 20.611 16.508,20.859 17.052,20.925 17.320 C 21.004 17.637,20.993 18.434,20.905 18.760 C 20.631 19.770,19.852 20.573,18.840 20.887 C 18.406 21.022,17.594 21.022,17.160 20.887 C 16.148 20.573,15.370 19.772,15.095 18.760 C 15.010 18.448,14.997 17.596,15.073 17.320 C 15.282 16.562,15.698 15.963,16.317 15.530 C 16.675 15.280,16.792 15.168,16.894 14.980 L 16.980 14.820 17.000 9.280 C 17.022 3.071,16.994 3.601,17.322 3.283 C 17.589 3.024,17.928 2.947,18.310 3.061 M4.780 3.947 C 4.387 4.037,4.127 4.251,4.001 4.585 C 3.903 4.848,3.900 4.959,3.984 5.241 C 4.042 5.438,4.116 5.525,4.834 6.252 C 5.266 6.690,5.693 7.099,5.783 7.161 C 6.100 7.381,6.582 7.379,6.905 7.157 C 7.339 6.858,7.459 6.212,7.161 5.783 C 6.985 5.529,5.517 4.102,5.360 4.032 C 5.205 3.963,4.904 3.918,4.780 3.947 M11.480 7.028 C 10.281 7.156,9.228 7.680,8.367 8.578 C 7.772 9.197,7.384 9.903,7.151 10.791 C 7.035 11.231,7.027 11.306,7.024 12.000 C 7.020 12.834,7.074 13.134,7.347 13.818 C 7.625 14.514,7.939 14.995,8.468 15.535 C 8.849 15.923,9.219 16.189,9.740 16.448 C 10.123 16.638,10.151 16.646,10.407 16.629 C 11.166 16.578,11.580 15.828,11.216 15.160 C 11.105 14.956,10.997 14.868,10.560 14.628 C 9.792 14.207,9.243 13.460,9.064 12.592 C 8.867 11.638,9.167 10.607,9.841 9.922 C 10.342 9.413,10.953 9.111,11.634 9.036 C 11.846 9.013,12.096 8.985,12.189 8.975 C 12.420 8.948,12.711 8.744,12.859 8.503 C 12.966 8.329,12.980 8.271,12.980 8.003 C 12.980 7.746,12.964 7.672,12.872 7.516 C 12.621 7.089,12.220 6.949,11.480 7.028 M1.695 11.057 C 1.466 11.129,1.256 11.299,1.128 11.516 C 1.037 11.672,1.020 11.746,1.020 12.000 C 1.020 12.256,1.036 12.328,1.131 12.489 C 1.256 12.702,1.449 12.864,1.670 12.943 C 1.885 13.020,4.115 13.020,4.330 12.943 C 4.551 12.864,4.744 12.702,4.869 12.489 C 4.964 12.328,4.980 12.256,4.980 12.000 C 4.980 11.746,4.963 11.672,4.872 11.516 C 4.740 11.293,4.533 11.128,4.290 11.055 C 4.039 10.979,1.937 10.981,1.695 11.057 M5.895 16.780 C 5.751 16.852,5.461 17.116,4.871 17.712 C 4.115 18.475,4.043 18.561,3.984 18.759 C 3.900 19.041,3.903 19.152,4.001 19.415 C 4.107 19.698,4.357 19.932,4.643 20.017 C 4.907 20.096,4.973 20.096,5.241 20.016 C 5.439 19.957,5.525 19.885,6.290 19.128 C 6.899 18.525,7.149 18.249,7.221 18.102 C 7.550 17.428,7.087 16.680,6.340 16.680 C 6.160 16.680,6.043 16.706,5.895 16.780 " stroke="none" fill-rule="evenodd" fill="#000000"></path></svg>