<svg  xmlns="http://www.w3.org/2000/svg" width="24" height="24" viewBox="0 0 24 24" fill="none" stroke="currentColor" stroke-width="2" stroke-linecap="round" stroke-linejoin="round"><path d="M11.358 1.061 C 9.442 1.360,7.999 3.063,8.000 5.026 C 8.001 5.894,8.192 6.625,8.624 7.418 C 8.768 7.680,8.911 7.995,8.943 8.116 C 8.988 8.292,9.000 8.705,9.000 10.165 L 9.000 11.994 7.470 12.010 C 6.065 12.024,5.915 12.032,5.636 12.109 C 4.399 12.452,3.508 13.321,3.133 14.548 C 3.030 14.887,3.025 14.941,3.009 16.046 C 2.991 17.302,3.009 17.469,3.202 17.877 C 3.348 18.186,3.771 18.623,4.070 18.775 C 4.540 19.013,4.078 19.000,12.000 19.000 C 19.922 19.000,19.460 19.013,19.930 18.775 C 20.196 18.640,20.638 18.200,20.771 17.937 C 20.972 17.541,21.000 17.334,21.000 16.234 C 21.000 15.676,20.981 15.107,20.959 14.969 C 20.736 13.597,19.734 12.488,18.378 12.113 C 18.082 12.031,17.955 12.024,16.530 12.010 L 15.000 11.994 15.000 10.165 C 15.000 8.042,14.991 8.111,15.378 7.408 C 15.681 6.858,15.859 6.355,15.940 5.812 C 16.181 4.213,15.622 2.736,14.438 1.843 C 13.866 1.412,13.276 1.160,12.605 1.058 C 12.144 0.989,11.816 0.990,11.358 1.061 M12.523 3.073 C 13.246 3.262,13.839 3.913,13.964 4.657 C 14.018 4.976,13.990 5.467,13.899 5.820 C 13.865 5.952,13.723 6.267,13.584 6.520 C 13.012 7.562,13.000 7.634,13.000 10.084 L 13.000 12.000 12.000 12.000 L 11.000 12.000 11.000 10.084 C 11.000 7.634,10.988 7.562,10.416 6.520 C 10.129 5.998,10.048 5.736,10.013 5.217 C 9.969 4.564,10.155 4.035,10.583 3.598 C 11.081 3.090,11.820 2.890,12.523 3.073 M18.100 14.132 C 18.416 14.279,18.725 14.587,18.867 14.896 C 18.978 15.137,18.979 15.150,18.993 16.070 L 19.007 17.000 12.000 17.000 L 4.993 17.000 5.006 16.070 C 5.020 15.149,5.022 15.138,5.132 14.900 C 5.330 14.476,5.755 14.125,6.174 14.041 C 6.265 14.023,8.932 14.011,12.100 14.014 L 17.860 14.020 18.100 14.132 M4.695 21.057 C 4.466 21.129,4.256 21.299,4.128 21.516 C 4.037 21.672,4.020 21.746,4.020 22.000 C 4.020 22.256,4.036 22.328,4.131 22.489 C 4.256 22.702,4.449 22.864,4.670 22.943 C 4.893 23.022,19.107 23.022,19.330 22.943 C 19.551 22.864,19.744 22.702,19.869 22.489 C 19.964 22.328,19.980 22.256,19.980 22.000 C 19.980 21.746,19.963 21.672,19.872 21.516 C 19.740 21.293,19.533 21.128,19.290 21.055 C 19.027 20.976,4.947 20.978,4.695 21.057 " stroke="none" fill-rule="evenodd" fill="#000000"></path></svg>