<svg  xmlns="http://www.w3.org/2000/svg" width="24" height="24" viewBox="0 0 24 24" fill="none" stroke="currentColor" stroke-width="2" stroke-linecap="round" stroke-linejoin="round"><path d="M2.695 4.057 C 2.466 4.129,2.256 4.299,2.128 4.516 L 2.020 4.700 2.020 11.120 L 2.020 17.540 2.114 17.840 C 2.419 18.817,3.155 19.559,4.140 19.885 C 4.413 19.975,4.464 19.977,6.266 19.991 C 7.485 20.000,8.166 19.991,8.270 19.963 C 8.498 19.901,8.738 19.712,8.867 19.492 C 8.964 19.327,8.980 19.257,8.980 19.000 C 8.980 18.746,8.963 18.672,8.872 18.516 C 8.761 18.327,8.571 18.158,8.373 18.071 C 8.291 18.035,7.768 18.015,6.480 18.001 L 4.700 17.980 4.516 17.872 C 4.415 17.813,4.284 17.700,4.225 17.623 C 3.999 17.327,4.000 17.335,4.000 14.995 C 4.000 13.810,4.005 12.840,4.010 12.840 C 4.016 12.841,4.110 12.871,4.220 12.909 C 4.394 12.967,4.662 12.978,6.266 12.991 C 7.486 13.000,8.166 12.991,8.270 12.963 C 8.498 12.901,8.738 12.712,8.867 12.492 C 8.964 12.327,8.980 12.257,8.980 12.000 C 8.980 11.746,8.963 11.672,8.872 11.516 C 8.761 11.327,8.571 11.158,8.373 11.071 C 8.291 11.035,7.768 11.015,6.480 11.001 L 4.700 10.980 4.516 10.872 C 4.328 10.761,4.158 10.572,4.070 10.373 C 4.032 10.287,4.015 9.582,4.000 7.480 L 3.980 4.700 3.872 4.516 C 3.628 4.101,3.150 3.915,2.695 4.057 M7.695 4.057 C 7.466 4.129,7.256 4.299,7.128 4.516 C 7.037 4.672,7.020 4.746,7.020 5.000 C 7.020 5.256,7.036 5.328,7.131 5.489 C 7.256 5.702,7.449 5.864,7.670 5.943 C 7.893 6.022,21.107 6.022,21.330 5.943 C 21.551 5.864,21.744 5.702,21.869 5.489 C 21.964 5.328,21.980 5.256,21.980 5.000 C 21.980 4.746,21.963 4.672,21.872 4.516 C 21.740 4.293,21.533 4.128,21.290 4.055 C 21.028 3.976,7.947 3.978,7.695 4.057 M12.695 11.057 C 12.466 11.129,12.256 11.299,12.128 11.516 C 12.037 11.672,12.020 11.746,12.020 12.000 C 12.020 12.256,12.036 12.328,12.131 12.489 C 12.256 12.702,12.449 12.864,12.670 12.943 C 12.892 13.022,21.108 13.022,21.330 12.943 C 21.551 12.864,21.744 12.702,21.869 12.489 C 21.964 12.328,21.980 12.256,21.980 12.000 C 21.980 11.746,21.963 11.672,21.872 11.516 C 21.740 11.293,21.533 11.128,21.290 11.055 C 21.029 10.976,12.946 10.979,12.695 11.057 M12.695 18.057 C 12.466 18.129,12.256 18.299,12.128 18.516 C 12.037 18.672,12.020 18.746,12.020 19.000 C 12.020 19.256,12.036 19.328,12.131 19.489 C 12.256 19.702,12.449 19.864,12.670 19.943 C 12.892 20.022,21.108 20.022,21.330 19.943 C 21.551 19.864,21.744 19.702,21.869 19.489 C 21.964 19.328,21.980 19.256,21.980 19.000 C 21.980 18.746,21.963 18.672,21.872 18.516 C 21.740 18.293,21.533 18.128,21.290 18.055 C 21.029 17.976,12.946 17.979,12.695 18.057 " stroke="none" fill-rule="evenodd" fill="#000000"></path></svg>