<svg  xmlns="http://www.w3.org/2000/svg" width="24" height="24" viewBox="0 0 24 24" fill="none" stroke="currentColor" stroke-width="2" stroke-linecap="round" stroke-linejoin="round"><path d="M5.695 3.057 C 5.466 3.129,5.256 3.299,5.128 3.516 C 5.037 3.672,5.020 3.746,5.020 4.000 C 5.020 4.256,5.036 4.328,5.131 4.489 C 5.256 4.702,5.449 4.864,5.670 4.943 C 5.892 5.022,18.108 5.022,18.330 4.943 C 18.551 4.864,18.744 4.702,18.869 4.489 C 18.964 4.328,18.980 4.256,18.980 4.000 C 18.980 3.746,18.963 3.672,18.872 3.516 C 18.740 3.293,18.533 3.128,18.290 3.055 C 18.028 2.976,5.947 2.978,5.695 3.057 M5.670 7.061 C 5.448 7.142,5.250 7.309,5.128 7.516 C 5.036 7.672,5.020 7.745,5.021 8.000 C 5.021 8.212,5.043 8.341,5.095 8.440 C 5.135 8.517,6.386 9.800,7.874 11.290 L 10.579 14.000 7.874 16.710 C 6.386 18.201,5.135 19.483,5.095 19.560 C 5.043 19.659,5.021 19.788,5.021 20.000 C 5.020 20.258,5.036 20.327,5.133 20.492 C 5.263 20.714,5.502 20.901,5.736 20.965 C 5.938 21.019,6.266 20.989,6.445 20.899 C 6.519 20.862,7.800 19.614,9.290 18.126 L 12.000 15.421 14.710 18.126 C 16.200 19.614,17.483 20.865,17.560 20.905 C 17.659 20.957,17.788 20.979,18.000 20.979 C 18.258 20.980,18.327 20.964,18.492 20.867 C 18.714 20.737,18.901 20.498,18.965 20.264 C 19.019 20.062,18.989 19.734,18.899 19.555 C 18.862 19.481,17.614 18.201,16.126 16.710 L 13.421 14.000 16.126 11.290 C 17.614 9.800,18.865 8.517,18.905 8.440 C 18.957 8.341,18.979 8.212,18.979 8.000 C 18.980 7.745,18.964 7.672,18.872 7.516 C 18.618 7.084,18.138 6.906,17.657 7.065 C 17.478 7.125,17.210 7.380,14.730 9.854 L 12.000 12.578 9.270 9.854 C 6.790 7.380,6.522 7.125,6.343 7.065 C 6.107 6.987,5.874 6.986,5.670 7.061 " stroke="none" fill-rule="evenodd" fill="#000000"></path></svg>