<svg  xmlns="http://www.w3.org/2000/svg" width="24" height="24" viewBox="0 0 24 24" fill="none" stroke="currentColor" stroke-width="2" stroke-linecap="round" stroke-linejoin="round"><path d="M21.640 2.068 C 21.483 2.121,20.909 2.680,17.231 6.354 L 13.001 10.578 11.449 9.031 C 10.031 7.617,9.875 7.473,9.627 7.357 C 9.387 7.245,9.315 7.230,9.003 7.230 C 8.706 7.230,8.612 7.248,8.396 7.342 C 8.155 7.447,7.938 7.655,4.687 10.897 C 2.700 12.878,1.189 14.416,1.127 14.520 C 1.036 14.672,1.020 14.746,1.020 15.000 C 1.020 15.257,1.036 15.327,1.133 15.492 C 1.263 15.714,1.502 15.901,1.736 15.965 C 1.938 16.019,2.266 15.989,2.445 15.899 C 2.519 15.862,4.024 14.390,5.789 12.627 L 8.999 9.422 10.569 10.982 C 11.718 12.123,12.190 12.567,12.328 12.633 C 12.744 12.833,13.254 12.833,13.672 12.634 C 13.817 12.565,14.881 11.526,18.313 8.102 C 20.895 5.526,22.811 3.584,22.873 3.480 C 22.964 3.328,22.980 3.254,22.980 3.000 C 22.980 2.746,22.963 2.672,22.872 2.516 C 22.617 2.083,22.122 1.903,21.640 2.068 M19.578 9.755 C 19.367 9.851,19.103 10.155,19.044 10.370 C 19.009 10.497,19.000 11.908,19.009 15.923 L 19.020 21.306 19.141 21.503 C 19.543 22.156,20.457 22.156,20.859 21.503 L 20.980 21.306 20.991 15.923 C 21.000 11.908,20.991 10.497,20.956 10.370 C 20.897 10.155,20.633 9.851,20.422 9.755 C 20.318 9.708,20.167 9.682,20.000 9.682 C 19.833 9.682,19.682 9.708,19.578 9.755 M15.676 13.695 C 15.461 13.772,15.249 13.950,15.128 14.156 L 15.020 14.340 15.020 17.823 L 15.020 21.306 15.141 21.503 C 15.209 21.613,15.346 21.756,15.452 21.828 C 15.923 22.144,16.554 21.999,16.859 21.503 L 16.980 21.306 16.980 17.823 L 16.980 14.340 16.872 14.156 C 16.684 13.837,16.355 13.644,16.000 13.644 C 15.901 13.644,15.755 13.667,15.676 13.695 M7.578 13.755 C 7.367 13.851,7.103 14.155,7.044 14.370 C 7.009 14.495,7.000 15.427,7.008 17.923 L 7.020 21.306 7.141 21.503 C 7.543 22.156,8.457 22.156,8.859 21.503 L 8.980 21.306 8.992 17.923 C 9.000 15.427,8.991 14.495,8.956 14.370 C 8.897 14.155,8.633 13.851,8.422 13.755 C 8.206 13.657,7.794 13.657,7.578 13.755 M11.695 15.057 C 11.466 15.129,11.256 15.299,11.128 15.516 L 11.020 15.700 11.020 18.503 L 11.020 21.306 11.141 21.503 C 11.543 22.156,12.457 22.156,12.859 21.503 L 12.980 21.306 12.980 18.503 L 12.980 15.700 12.872 15.516 C 12.628 15.101,12.150 14.915,11.695 15.057 M3.614 17.538 C 3.410 17.627,3.176 17.866,3.083 18.082 C 2.999 18.278,2.997 18.320,3.008 19.795 L 3.020 21.306 3.141 21.503 C 3.543 22.156,4.457 22.156,4.859 21.503 L 4.980 21.306 4.992 19.795 C 5.003 18.320,5.001 18.278,4.917 18.082 C 4.822 17.862,4.587 17.624,4.377 17.536 C 4.207 17.465,3.779 17.466,3.614 17.538 " stroke="none" fill-rule="evenodd" fill="#000000"></path></svg>