<svg  xmlns="http://www.w3.org/2000/svg" width="24" height="24" viewBox="0 0 24 24" fill="none" stroke="currentColor" stroke-width="2" stroke-linecap="round" stroke-linejoin="round"><path d="M4.499 2.042 C 3.388 2.232,2.488 3.024,2.114 4.140 L 2.020 4.420 2.009 12.204 L 1.999 19.988 1.785 20.035 C 1.515 20.096,1.270 20.275,1.129 20.514 C 1.036 20.672,1.020 20.745,1.020 21.000 C 1.020 21.256,1.036 21.328,1.131 21.489 C 1.256 21.702,1.449 21.864,1.670 21.943 C 1.893 22.022,15.107 22.022,15.330 21.943 C 15.551 21.864,15.744 21.702,15.869 21.489 C 15.964 21.328,15.980 21.256,15.980 21.000 C 15.980 20.745,15.964 20.672,15.871 20.514 C 15.730 20.275,15.485 20.096,15.214 20.035 L 15.000 19.987 15.000 16.994 L 15.000 14.000 15.553 14.000 C 16.231 14.000,16.441 14.053,16.679 14.283 C 16.977 14.573,16.976 14.567,17.002 16.160 C 17.025 17.492,17.032 17.597,17.117 17.860 C 17.435 18.839,18.184 19.582,19.160 19.886 C 19.594 20.021,20.406 20.021,20.840 19.886 C 21.826 19.579,22.578 18.827,22.886 17.840 L 22.980 17.540 22.980 13.500 L 22.980 9.460 22.886 9.160 C 22.757 8.746,22.560 8.388,22.290 8.074 C 22.163 7.927,21.286 6.995,20.340 6.003 C 19.059 4.659,18.574 4.175,18.440 4.109 C 18.208 3.995,17.766 3.987,17.568 4.093 C 17.060 4.366,16.852 5.021,17.127 5.479 C 17.178 5.564,17.860 6.305,18.643 7.127 C 20.964 9.564,20.871 9.460,20.939 9.690 C 21.026 9.981,21.031 17.004,20.945 17.290 C 20.872 17.533,20.707 17.740,20.484 17.872 C 20.328 17.963,20.254 17.980,20.000 17.980 C 19.746 17.980,19.672 17.963,19.516 17.872 C 19.327 17.761,19.157 17.570,19.071 17.373 C 19.037 17.295,19.015 16.822,18.998 15.840 C 18.976 14.507,18.969 14.403,18.883 14.140 C 18.566 13.166,17.809 12.412,16.861 12.126 C 16.584 12.043,16.433 12.027,15.771 12.010 L 15.003 11.991 14.991 8.205 L 14.980 4.420 14.886 4.140 C 14.557 3.158,13.820 2.424,12.861 2.121 L 12.540 2.020 8.620 2.014 C 6.464 2.011,4.609 2.024,4.499 2.042 M12.310 4.061 C 12.452 4.103,12.571 4.178,12.697 4.303 C 12.993 4.599,13.000 4.650,13.000 6.447 L 13.000 8.000 8.500 8.000 L 4.000 8.000 4.000 6.447 C 4.000 4.649,4.007 4.599,4.304 4.303 C 4.616 3.991,4.403 4.006,8.483 4.003 C 11.615 4.000,12.133 4.008,12.310 4.061 M13.000 15.000 L 13.000 20.000 8.500 20.000 L 4.000 20.000 4.000 15.000 L 4.000 10.000 8.500 10.000 L 13.000 10.000 13.000 15.000 " stroke="none" fill-rule="evenodd" fill="#000000"></path></svg>