<svg  xmlns="http://www.w3.org/2000/svg" width="24" height="24" viewBox="0 0 24 24" fill="none" stroke="currentColor" stroke-width="2" stroke-linecap="round" stroke-linejoin="round"><path d="M9.358 3.061 C 7.731 3.315,6.417 4.584,6.083 6.227 C 5.864 7.302,6.109 8.826,6.752 10.389 L 6.838 10.598 6.449 10.856 C 5.060 11.777,4.286 12.992,4.062 14.600 C 3.811 16.395,4.353 18.090,5.573 19.333 C 7.281 21.073,9.715 21.462,12.580 20.453 C 13.324 20.191,14.363 19.621,15.000 19.128 L 15.100 19.050 15.720 19.410 C 16.390 19.799,17.548 20.410,18.272 20.756 C 18.796 21.007,19.007 21.044,19.322 20.939 C 19.840 20.767,20.117 20.197,19.938 19.671 C 19.823 19.334,19.696 19.239,18.675 18.725 C 18.155 18.464,17.466 18.102,17.143 17.921 L 16.557 17.591 16.669 17.447 C 17.526 16.333,18.204 14.724,18.402 13.330 L 18.449 13.000 18.815 12.998 C 19.368 12.996,19.652 12.858,19.869 12.489 C 19.964 12.328,19.980 12.256,19.980 12.000 C 19.980 11.746,19.963 11.672,19.872 11.516 C 19.740 11.293,19.533 11.128,19.290 11.055 C 19.026 10.975,15.974 10.975,15.710 11.055 C 15.053 11.253,14.793 12.032,15.198 12.591 C 15.263 12.681,15.402 12.804,15.506 12.865 C 15.663 12.958,15.752 12.979,16.047 12.993 C 16.455 13.012,16.437 12.982,16.338 13.472 C 16.146 14.417,15.551 15.672,14.968 16.359 C 14.857 16.490,14.843 16.495,14.749 16.445 C 14.559 16.343,13.181 15.292,12.720 14.897 C 12.144 14.403,11.029 13.294,10.637 12.824 C 10.196 12.295,9.644 11.544,9.674 11.513 C 9.688 11.498,9.970 11.376,10.300 11.240 C 11.149 10.892,11.675 10.627,12.154 10.307 C 13.346 9.510,13.930 8.508,13.987 7.160 C 14.012 6.567,13.925 6.062,13.705 5.516 C 13.172 4.197,12.001 3.269,10.605 3.058 C 10.144 2.989,9.816 2.990,9.358 3.061 M10.523 5.073 C 11.271 5.269,11.855 5.929,11.968 6.707 C 12.125 7.789,11.599 8.485,10.129 9.138 C 9.470 9.431,8.685 9.738,8.659 9.712 C 8.647 9.700,8.576 9.540,8.501 9.355 C 8.107 8.386,7.916 7.181,8.057 6.550 C 8.255 5.659,9.078 5.005,10.000 5.005 C 10.143 5.005,10.378 5.036,10.523 5.073 M8.100 12.802 C 9.215 14.415,10.847 16.057,12.700 17.431 C 13.008 17.660,13.264 17.859,13.269 17.873 C 13.284 17.914,12.743 18.215,12.325 18.398 C 11.846 18.608,11.138 18.823,10.646 18.907 C 10.085 19.004,8.986 19.003,8.640 18.906 C 7.617 18.620,6.820 17.960,6.342 17.005 C 6.093 16.508,6.028 16.193,6.028 15.480 C 6.027 14.360,6.271 13.694,6.920 13.040 C 7.144 12.814,7.704 12.376,7.787 12.361 C 7.791 12.361,7.932 12.559,8.100 12.802 " stroke="none" fill-rule="evenodd" fill="#000000"></path></svg>