<svg  xmlns="http://www.w3.org/2000/svg" width="24" height="24" viewBox="0 0 24 24" fill="none" stroke="currentColor" stroke-width="2" stroke-linecap="round" stroke-linejoin="round"><path d="M5.640 1.062 C 4.441 1.251,3.382 1.809,2.517 2.706 C 1.800 3.451,1.321 4.369,1.093 5.440 C 1.001 5.867,0.991 7.034,1.075 7.460 C 1.215 8.171,1.548 8.993,1.919 9.540 L 2.108 9.820 1.915 10.270 C 1.065 12.260,0.795 14.382,1.166 16.180 C 1.932 19.897,5.152 22.321,10.100 22.906 C 10.948 23.006,13.052 23.006,13.900 22.906 C 18.041 22.417,20.978 20.647,22.288 17.852 C 23.091 16.138,23.216 14.011,22.638 11.848 C 22.499 11.324,22.223 10.544,22.024 10.107 L 21.891 9.814 22.046 9.597 C 22.406 9.094,22.784 8.175,22.925 7.460 C 23.009 7.034,22.999 5.867,22.907 5.440 C 22.749 4.701,22.453 3.995,22.041 3.378 C 21.779 2.985,21.044 2.250,20.633 1.969 C 19.746 1.363,18.792 1.051,17.700 1.011 C 16.078 0.951,14.572 1.573,13.473 2.757 L 13.175 3.077 12.587 3.031 C 12.143 2.996,11.857 2.996,11.413 3.031 L 10.825 3.077 10.527 2.757 C 9.893 2.074,9.075 1.552,8.178 1.258 C 7.430 1.014,6.433 0.936,5.640 1.062 M7.360 3.101 C 8.153 3.310,8.895 3.832,9.377 4.519 C 9.819 5.150,10.052 5.238,10.910 5.095 C 11.435 5.008,12.565 5.008,13.090 5.095 C 13.948 5.238,14.181 5.150,14.623 4.519 C 15.109 3.825,15.846 3.310,16.660 3.096 C 17.087 2.983,17.950 2.991,18.393 3.111 C 19.864 3.512,20.902 4.788,20.987 6.300 C 21.040 7.245,20.733 8.108,20.077 8.860 C 19.762 9.222,19.652 9.486,19.697 9.775 C 19.711 9.866,19.866 10.240,20.040 10.606 C 20.724 12.042,21.055 13.508,20.986 14.800 C 20.903 16.355,20.403 17.520,19.381 18.541 C 18.824 19.098,18.344 19.438,17.560 19.833 C 14.460 21.393,9.540 21.393,6.440 19.833 C 5.656 19.438,5.176 19.098,4.619 18.541 C 3.792 17.715,3.299 16.770,3.096 15.620 C 3.009 15.132,2.997 13.991,3.073 13.460 C 3.216 12.450,3.556 11.404,4.078 10.363 C 4.190 10.140,4.292 9.880,4.306 9.785 C 4.346 9.491,4.237 9.213,3.957 8.897 C 3.638 8.537,3.506 8.344,3.339 7.990 C 3.098 7.482,3.027 7.139,3.027 6.480 C 3.027 5.965,3.038 5.861,3.134 5.548 C 3.322 4.930,3.598 4.456,4.009 4.043 C 4.541 3.509,5.181 3.181,6.000 3.025 C 6.212 2.984,7.106 3.035,7.360 3.101 M6.174 5.039 C 5.563 5.169,5.061 5.748,5.010 6.382 C 4.961 6.995,5.402 7.488,6.000 7.488 C 6.301 7.488,6.540 7.380,6.730 7.156 C 6.915 6.938,6.938 6.915,7.156 6.730 C 7.378 6.541,7.488 6.301,7.488 6.003 C 7.488 5.329,6.887 4.888,6.174 5.039 M17.240 5.035 C 16.784 5.185,16.512 5.546,16.512 6.003 C 16.512 6.301,16.622 6.541,16.844 6.730 C 17.062 6.915,17.085 6.938,17.270 7.156 C 17.645 7.598,18.335 7.605,18.724 7.173 C 18.933 6.941,19.016 6.697,18.991 6.386 C 18.949 5.867,18.593 5.359,18.119 5.143 C 17.881 5.034,17.415 4.977,17.240 5.035 M8.660 11.067 C 8.480 11.122,8.349 11.239,7.347 12.234 C 6.734 12.842,6.185 13.421,6.127 13.520 C 6.037 13.672,6.020 13.747,6.020 14.000 C 6.020 14.257,6.036 14.327,6.133 14.492 C 6.413 14.968,7.032 15.138,7.492 14.866 C 7.706 14.739,9.806 12.627,9.905 12.440 C 9.957 12.341,9.979 12.213,9.979 12.000 C 9.980 11.745,9.964 11.672,9.872 11.516 C 9.740 11.293,9.533 11.128,9.290 11.055 C 9.061 10.986,8.914 10.989,8.660 11.067 M14.695 11.057 C 14.466 11.129,14.256 11.299,14.128 11.516 C 14.036 11.672,14.020 11.745,14.021 12.000 C 14.021 12.213,14.043 12.341,14.095 12.440 C 14.194 12.627,16.294 14.739,16.508 14.866 C 16.968 15.138,17.587 14.968,17.867 14.492 C 17.964 14.327,17.980 14.257,17.980 14.000 C 17.980 13.747,17.963 13.672,17.873 13.520 C 17.815 13.421,17.266 12.842,16.653 12.234 C 15.610 11.198,15.526 11.125,15.323 11.064 C 15.066 10.988,14.920 10.987,14.695 11.057 M11.052 16.280 C 10.830 16.326,10.730 16.381,10.550 16.553 C 10.393 16.703,10.240 17.039,10.240 17.234 C 10.240 17.295,10.268 17.440,10.303 17.556 C 10.357 17.738,10.432 17.836,10.852 18.267 C 11.466 18.898,11.597 18.980,12.000 18.980 C 12.253 18.980,12.328 18.963,12.480 18.874 C 12.708 18.739,13.562 17.867,13.650 17.677 C 13.882 17.181,13.659 16.574,13.160 16.345 C 12.998 16.270,12.894 16.261,12.100 16.253 C 11.616 16.249,11.144 16.261,11.052 16.280 " stroke="none" fill-rule="evenodd" fill="#000000"></path></svg>