<svg  xmlns="http://www.w3.org/2000/svg" width="24" height="24" viewBox="0 0 24 24" fill="none" stroke="currentColor" stroke-width="2" stroke-linecap="round" stroke-linejoin="round"><path d="M9.695 1.057 C 9.466 1.129,9.256 1.299,9.128 1.516 L 9.020 1.700 9.009 6.542 L 8.999 11.385 6.369 11.958 C 4.923 12.273,3.685 12.553,3.617 12.580 C 3.278 12.717,3.001 13.131,3.001 13.500 C 3.001 13.888,3.307 14.323,3.665 14.442 C 3.750 14.471,3.901 14.493,4.000 14.492 C 4.099 14.491,5.256 14.254,6.570 13.965 C 7.885 13.676,8.971 13.440,8.982 13.440 C 8.994 13.440,8.998 14.093,8.992 14.890 C 8.981 16.214,8.974 16.352,8.906 16.480 C 8.812 16.657,8.612 16.870,8.473 16.943 C 8.414 16.974,7.091 17.313,5.533 17.696 C 3.975 18.079,2.649 18.413,2.587 18.437 C 2.087 18.630,1.838 19.281,2.077 19.774 C 2.251 20.134,2.699 20.396,3.055 20.346 C 3.400 20.298,8.923 18.919,9.166 18.821 C 9.843 18.546,10.406 17.992,10.737 17.274 C 10.981 16.745,11.000 16.561,11.000 14.682 L 11.000 13.002 11.110 12.974 C 11.171 12.959,11.724 12.836,12.340 12.701 L 13.460 12.455 13.484 14.018 C 13.510 15.688,13.513 15.712,13.733 16.146 C 14.093 16.856,14.951 17.309,15.730 17.199 C 16.025 17.157,20.205 16.188,20.380 16.121 C 20.857 15.937,21.107 15.383,20.940 14.879 C 20.801 14.462,20.344 14.162,19.925 14.212 C 19.823 14.225,18.807 14.452,17.666 14.717 C 16.526 14.983,15.576 15.200,15.556 15.200 C 15.535 15.200,15.520 14.530,15.520 13.604 L 15.520 12.009 15.610 11.987 C 15.660 11.974,16.699 11.747,17.920 11.481 C 19.141 11.215,20.219 10.971,20.315 10.939 C 21.021 10.705,21.227 9.814,20.695 9.297 C 20.514 9.121,20.239 9.000,20.020 9.000 C 19.927 9.000,16.259 9.781,15.611 9.939 L 15.523 9.961 15.511 6.870 C 15.499 3.435,15.514 3.625,15.228 3.326 C 15.015 3.104,14.819 3.022,14.500 3.022 C 14.181 3.022,13.985 3.104,13.772 3.326 C 13.485 3.626,13.501 3.409,13.489 7.090 L 13.477 10.399 13.389 10.421 C 13.340 10.433,12.783 10.556,12.151 10.695 L 11.001 10.946 10.991 6.323 L 10.980 1.700 10.872 1.516 C 10.628 1.101,10.150 0.915,9.695 1.057 M17.042 19.120 C 15.558 19.446,14.278 19.732,14.198 19.756 C 13.806 19.873,13.509 20.279,13.509 20.696 C 13.509 21.186,13.868 21.606,14.366 21.696 C 14.478 21.716,15.203 21.572,17.366 21.100 C 18.936 20.758,20.281 20.459,20.355 20.434 C 20.691 20.325,20.999 19.878,20.999 19.500 C 20.999 19.128,20.725 18.721,20.374 18.575 C 20.107 18.463,19.806 18.513,17.042 19.120 " stroke="none" fill-rule="evenodd" fill="#000000"></path></svg>