<svg  xmlns="http://www.w3.org/2000/svg" width="24" height="24" viewBox="0 0 24 24" fill="none" stroke="currentColor" stroke-width="2" stroke-linecap="round" stroke-linejoin="round"><path d="M8.860 3.058 C 8.017 3.190,7.343 3.504,6.391 4.208 C 5.233 5.065,4.434 5.204,3.424 4.724 C 3.246 4.640,2.949 4.460,2.764 4.325 C 2.387 4.050,2.193 3.980,1.901 4.015 C 1.337 4.082,0.956 4.552,1.013 5.112 C 1.045 5.429,1.194 5.646,1.568 5.924 C 2.208 6.398,2.788 6.686,3.473 6.870 C 3.813 6.961,3.937 6.974,4.500 6.974 C 5.063 6.974,5.187 6.961,5.527 6.870 C 6.265 6.672,6.770 6.411,7.598 5.801 C 9.047 4.734,9.953 4.734,11.402 5.801 C 12.230 6.411,12.735 6.672,13.473 6.870 C 13.813 6.961,13.937 6.974,14.500 6.974 C 15.063 6.974,15.187 6.961,15.527 6.870 C 16.265 6.672,16.770 6.411,17.598 5.801 C 18.355 5.244,18.932 5.001,19.500 5.001 C 20.019 5.001,20.633 5.240,21.236 5.677 C 21.616 5.951,21.805 6.019,22.112 5.987 C 22.818 5.915,23.221 5.112,22.860 4.496 C 22.689 4.205,21.911 3.670,21.220 3.368 C 20.551 3.076,19.762 2.953,19.069 3.033 C 18.112 3.145,17.415 3.450,16.391 4.208 C 14.967 5.262,14.033 5.263,12.612 4.210 C 11.644 3.494,10.989 3.191,10.120 3.059 C 9.670 2.990,9.297 2.990,8.860 3.058 M8.860 10.058 C 8.017 10.190,7.343 10.504,6.391 11.208 C 5.233 12.065,4.434 12.204,3.424 11.724 C 3.246 11.640,2.949 11.460,2.764 11.325 C 2.387 11.050,2.193 10.980,1.901 11.015 C 1.337 11.082,0.956 11.552,1.013 12.112 C 1.045 12.429,1.194 12.646,1.568 12.924 C 2.208 13.398,2.788 13.686,3.473 13.870 C 3.813 13.961,3.937 13.974,4.500 13.974 C 5.063 13.974,5.187 13.961,5.527 13.870 C 6.265 13.672,6.770 13.411,7.598 12.801 C 9.047 11.734,9.953 11.734,11.402 12.801 C 12.230 13.411,12.735 13.672,13.473 13.870 C 13.813 13.961,13.937 13.974,14.500 13.974 C 15.063 13.974,15.187 13.961,15.527 13.870 C 16.265 13.672,16.770 13.411,17.598 12.801 C 18.555 12.096,19.199 11.895,19.975 12.060 C 20.331 12.135,20.815 12.372,21.236 12.677 C 21.616 12.951,21.805 13.019,22.112 12.987 C 22.818 12.915,23.221 12.112,22.860 11.496 C 22.689 11.205,21.911 10.670,21.220 10.368 C 20.551 10.076,19.762 9.953,19.069 10.033 C 18.112 10.145,17.415 10.450,16.391 11.208 C 14.967 12.262,14.033 12.263,12.612 11.210 C 11.644 10.494,10.989 10.191,10.120 10.059 C 9.670 9.990,9.297 9.990,8.860 10.058 M8.860 17.058 C 8.017 17.190,7.343 17.504,6.391 18.208 C 5.233 19.065,4.434 19.204,3.424 18.724 C 3.246 18.640,2.949 18.460,2.764 18.325 C 2.387 18.050,2.193 17.980,1.901 18.015 C 1.337 18.082,0.956 18.552,1.013 19.112 C 1.045 19.429,1.194 19.646,1.568 19.924 C 2.208 20.398,2.788 20.686,3.473 20.870 C 3.813 20.961,3.937 20.974,4.500 20.974 C 5.063 20.974,5.187 20.961,5.527 20.870 C 6.265 20.672,6.770 20.411,7.598 19.801 C 9.047 18.734,9.953 18.734,11.402 19.801 C 12.230 20.411,12.735 20.672,13.473 20.870 C 13.813 20.961,13.937 20.974,14.500 20.974 C 15.063 20.974,15.187 20.961,15.527 20.870 C 16.265 20.672,16.770 20.411,17.598 19.801 C 18.555 19.096,19.199 18.895,19.975 19.060 C 20.331 19.135,20.815 19.372,21.236 19.677 C 21.616 19.951,21.805 20.019,22.112 19.987 C 22.818 19.915,23.221 19.112,22.860 18.496 C 22.689 18.205,21.911 17.670,21.220 17.368 C 20.551 17.076,19.762 16.953,19.069 17.033 C 18.112 17.145,17.415 17.450,16.391 18.208 C 14.967 19.262,14.033 19.263,12.612 18.210 C 11.644 17.494,10.989 17.191,10.120 17.059 C 9.670 16.990,9.297 16.990,8.860 17.058 " stroke="none" fill-rule="evenodd" fill="#000000"></path></svg>