<svg  xmlns="http://www.w3.org/2000/svg" width="24" height="24" viewBox="0 0 24 24" fill="none" stroke="currentColor" stroke-width="2" stroke-linecap="round" stroke-linejoin="round"><path d="M14.695 2.057 C 14.466 2.129,14.256 2.299,14.128 2.516 C 14.037 2.672,14.020 2.746,14.020 3.000 C 14.020 3.256,14.036 3.328,14.131 3.489 C 14.256 3.702,14.449 3.864,14.670 3.943 C 14.787 3.985,15.234 3.997,16.700 3.998 L 18.580 4.000 15.291 7.289 L 12.002 10.578 10.771 9.355 C 9.688 8.279,9.516 8.124,9.343 8.066 C 8.863 7.905,8.382 8.084,8.128 8.516 C 8.036 8.672,8.020 8.745,8.021 9.000 C 8.021 9.213,8.043 9.341,8.095 9.440 C 8.136 9.517,8.711 10.125,9.374 10.790 L 10.579 12.001 6.373 16.210 C 4.060 18.526,2.135 20.483,2.095 20.560 C 2.043 20.659,2.021 20.788,2.021 21.000 C 2.020 21.258,2.036 21.327,2.133 21.492 C 2.263 21.714,2.502 21.901,2.736 21.965 C 2.938 22.019,3.266 21.989,3.445 21.899 C 3.519 21.862,5.474 19.940,7.790 17.627 L 11.999 13.421 13.210 14.626 C 13.875 15.289,14.481 15.862,14.555 15.899 C 15.009 16.128,15.601 15.944,15.867 15.492 C 15.964 15.327,15.980 15.258,15.979 15.000 C 15.979 14.787,15.957 14.659,15.905 14.560 C 15.864 14.483,15.289 13.875,14.626 13.210 L 13.421 11.999 16.700 8.719 L 19.980 5.440 20.000 7.373 L 20.020 9.306 20.141 9.503 C 20.543 10.156,21.457 10.156,21.859 9.503 L 21.980 9.306 21.991 6.063 C 22.001 3.126,21.996 2.804,21.936 2.646 C 21.845 2.405,21.657 2.204,21.420 2.094 L 21.220 2.001 18.040 2.003 C 15.557 2.005,14.824 2.017,14.695 2.057 " stroke="none" fill-rule="evenodd" fill="#000000"></path></svg>