<svg  xmlns="http://www.w3.org/2000/svg" width="24" height="24" viewBox="0 0 24 24" fill="none" stroke="currentColor" stroke-width="2" stroke-linecap="round" stroke-linejoin="round"><path d="M15.400 1.044 C 14.824 1.109,14.303 1.267,13.749 1.545 C 13.471 1.684,11.883 2.673,11.140 3.170 C 9.617 4.189,8.587 5.670,8.179 7.432 C 7.888 8.687,7.959 10.054,8.378 11.277 C 8.434 11.440,8.475 11.577,8.470 11.582 C 8.464 11.586,8.244 11.735,7.980 11.913 C 5.898 13.311,4.188 15.255,2.679 17.940 C 2.135 18.907,1.527 20.270,1.172 21.316 C 1.013 21.785,0.993 21.883,1.011 22.087 C 1.088 22.928,2.103 23.299,2.699 22.703 C 2.838 22.564,2.891 22.457,3.055 21.985 C 3.341 21.157,4.089 19.442,4.246 19.253 C 4.282 19.209,4.327 19.259,4.468 19.507 C 5.446 21.224,6.811 22.258,8.609 22.646 C 9.086 22.749,10.197 22.788,10.860 22.725 C 11.507 22.663,12.552 22.485,12.700 22.411 C 13.036 22.242,13.238 21.972,13.298 21.612 C 13.321 21.474,13.298 21.359,13.165 20.969 C 12.656 19.473,12.036 18.395,11.202 17.555 C 10.148 16.494,8.938 15.974,7.180 15.827 L 6.580 15.777 7.200 15.157 C 7.848 14.508,8.414 14.033,9.080 13.578 L 9.475 13.308 9.587 13.444 C 10.906 15.052,12.918 15.998,15.020 15.998 C 15.825 15.999,16.503 15.875,17.402 15.564 C 18.078 15.331,19.935 14.616,20.219 14.480 C 21.541 13.850,22.554 12.544,22.906 11.020 C 23.008 10.576,23.009 9.520,22.908 9.040 C 22.762 8.348,22.514 7.745,22.158 7.218 C 21.934 6.885,21.367 6.270,21.143 6.117 C 21.015 6.029,21.010 6.016,20.988 5.683 C 20.872 3.916,19.808 2.322,18.213 1.525 C 17.352 1.095,16.397 0.932,15.400 1.044 M16.861 3.129 C 17.624 3.352,18.304 3.922,18.679 4.653 C 18.879 5.043,18.883 5.088,18.710 5.049 C 18.639 5.033,18.112 5.020,17.540 5.020 C 16.574 5.020,16.477 5.027,16.178 5.112 C 15.216 5.388,14.419 6.174,14.122 7.140 C 14.074 7.296,14.025 7.592,14.012 7.809 C 13.985 8.253,13.986 8.252,13.702 7.920 C 13.447 7.621,13.242 7.245,13.125 6.861 C 13.042 6.588,13.027 6.458,13.027 6.000 C 13.027 5.542,13.042 5.412,13.125 5.139 C 13.456 4.052,14.370 3.246,15.506 3.039 C 15.832 2.980,16.503 3.024,16.861 3.129 M11.102 6.980 C 11.496 8.951,13.025 10.476,15.040 10.907 C 15.321 10.967,15.567 10.980,16.460 10.980 C 17.480 10.980,17.557 10.975,17.840 10.886 C 18.240 10.762,18.609 10.563,18.891 10.321 C 19.580 9.732,19.936 9.041,19.988 8.193 C 20.006 7.904,20.024 7.812,20.063 7.827 C 20.162 7.865,20.563 8.412,20.697 8.693 C 21.038 9.407,21.090 10.293,20.831 11.000 C 20.612 11.596,20.077 12.263,19.583 12.557 C 19.363 12.688,17.668 13.356,16.740 13.678 C 15.985 13.939,15.744 13.980,14.980 13.978 C 14.274 13.976,13.920 13.921,13.360 13.727 C 12.156 13.310,11.096 12.373,10.532 11.229 C 10.148 10.450,10.020 9.894,10.020 9.000 C 10.020 7.953,10.257 7.142,10.813 6.282 L 10.980 6.023 11.009 6.342 C 11.024 6.517,11.066 6.804,11.102 6.980 M17.310 7.061 C 17.688 7.173,18.000 7.598,18.000 8.001 C 18.000 8.331,17.784 8.696,17.484 8.872 C 17.328 8.963,17.254 8.980,17.000 8.980 C 16.746 8.980,16.672 8.963,16.516 8.872 C 15.932 8.528,15.831 7.775,16.307 7.299 C 16.582 7.024,16.918 6.944,17.310 7.061 M7.223 17.842 C 7.848 17.903,8.346 18.042,8.863 18.300 C 9.410 18.573,9.787 18.883,10.134 19.345 C 10.386 19.682,10.733 20.267,10.857 20.567 L 10.918 20.713 10.613 20.742 C 10.124 20.788,9.226 20.737,8.846 20.642 C 8.466 20.548,8.079 20.386,7.712 20.170 C 7.389 19.980,6.709 19.304,6.465 18.932 C 6.282 18.652,5.882 17.928,5.881 17.873 C 5.879 17.800,6.612 17.783,7.223 17.842 " stroke="none" fill-rule="evenodd" fill="#000000"></path></svg>