<svg  xmlns="http://www.w3.org/2000/svg" width="24" height="24" viewBox="0 0 24 24" fill="none" stroke="currentColor" stroke-width="2" stroke-linecap="round" stroke-linejoin="round"><path d="M3.499 1.042 C 2.383 1.236,1.463 2.047,1.120 3.140 C 0.953 3.672,0.971 5.029,1.164 6.494 C 1.758 11.001,3.985 15.194,7.380 18.197 C 9.934 20.456,12.932 21.956,16.220 22.619 C 18.056 22.989,20.138 23.106,20.860 22.880 C 21.828 22.576,22.581 21.818,22.886 20.840 C 22.979 20.542,22.980 20.527,22.980 18.500 C 22.980 16.473,22.979 16.458,22.886 16.160 C 22.577 15.169,21.792 14.390,20.822 14.112 C 20.505 14.022,20.467 14.020,18.520 14.020 C 16.309 14.020,16.275 14.024,15.700 14.308 C 15.228 14.542,14.942 14.783,14.546 15.277 C 14.396 15.466,14.256 15.626,14.236 15.633 C 14.180 15.654,13.355 15.186,12.800 14.817 C 11.298 13.821,9.959 12.450,9.012 10.939 C 8.794 10.591,8.360 9.806,8.360 9.759 C 8.360 9.743,8.494 9.629,8.658 9.505 C 9.325 9.003,9.680 8.502,9.908 7.740 C 9.973 7.523,9.980 7.307,9.980 5.480 C 9.980 3.474,9.979 3.458,9.886 3.160 C 9.581 2.181,8.827 1.424,7.861 1.123 L 7.540 1.023 5.620 1.015 C 4.564 1.011,3.609 1.023,3.499 1.042 M15.695 1.057 C 15.466 1.129,15.256 1.299,15.128 1.516 C 15.037 1.672,15.020 1.746,15.020 2.000 C 15.020 2.256,15.036 2.328,15.131 2.489 C 15.256 2.702,15.449 2.864,15.670 2.943 C 15.787 2.985,16.234 2.997,17.700 2.998 L 19.579 3.000 17.374 5.210 C 16.161 6.425,15.138 7.481,15.101 7.555 C 14.872 8.010,15.056 8.601,15.508 8.867 C 15.673 8.964,15.742 8.980,16.000 8.979 C 16.212 8.979,16.341 8.957,16.440 8.905 C 16.517 8.865,17.574 7.840,18.789 6.628 L 20.997 4.424 21.009 6.365 L 21.020 8.306 21.141 8.503 C 21.543 9.156,22.457 9.156,22.859 8.503 L 22.980 8.306 22.991 5.063 C 23.001 2.126,22.996 1.804,22.936 1.646 C 22.845 1.405,22.657 1.204,22.420 1.094 L 22.220 1.001 19.040 1.003 C 16.557 1.005,15.824 1.017,15.695 1.057 M7.310 3.061 C 7.452 3.103,7.571 3.178,7.697 3.304 C 8.000 3.607,8.005 3.644,7.992 5.587 L 7.980 7.262 7.878 7.461 C 7.800 7.612,7.686 7.728,7.398 7.949 C 7.190 8.109,6.941 8.325,6.844 8.430 C 6.485 8.817,6.281 9.467,6.359 9.977 C 6.416 10.345,6.484 10.522,6.787 11.088 C 8.196 13.713,10.278 15.793,12.927 17.222 C 13.564 17.566,13.817 17.650,14.220 17.651 C 14.986 17.653,15.456 17.378,16.081 16.562 C 16.274 16.311,16.391 16.199,16.539 16.122 L 16.738 16.020 18.413 16.008 C 20.356 15.995,20.393 16.000,20.696 16.303 C 20.994 16.600,21.000 16.643,21.000 18.501 C 21.000 20.246,20.990 20.341,20.779 20.618 C 20.718 20.698,20.585 20.812,20.484 20.872 C 20.321 20.967,20.250 20.981,19.867 20.994 C 19.096 21.021,17.769 20.887,16.700 20.677 C 13.609 20.067,10.684 18.570,8.437 16.450 C 6.772 14.879,5.654 13.360,4.677 11.340 C 3.652 9.221,3.124 7.069,3.017 4.578 C 2.983 3.775,3.027 3.580,3.303 3.303 C 3.597 3.010,3.622 3.006,5.483 3.003 C 6.825 3.000,7.141 3.011,7.310 3.061 " stroke="none" fill-rule="evenodd" fill="#000000"></path></svg>