<svg  xmlns="http://www.w3.org/2000/svg" width="24" height="24" viewBox="0 0 24 24" fill="none" stroke="currentColor" stroke-width="2" stroke-linecap="round" stroke-linejoin="round"><path d="M1.670 1.061 C 1.448 1.142,1.250 1.309,1.128 1.516 C 1.037 1.672,1.020 1.746,1.020 2.000 C 1.020 2.254,1.036 2.328,1.127 2.480 C 1.186 2.579,1.749 3.173,2.377 3.800 C 3.006 4.427,3.520 4.954,3.520 4.972 C 3.520 4.990,3.424 5.125,3.306 5.272 C 1.792 7.166,0.927 9.825,1.014 12.320 C 1.097 14.709,1.882 16.890,3.336 18.771 C 4.377 20.118,6.022 21.399,7.560 22.061 C 9.864 23.052,12.320 23.260,14.680 22.664 C 16.068 22.314,17.438 21.665,18.548 20.833 C 18.763 20.672,18.963 20.524,18.994 20.505 C 19.034 20.480,19.364 20.785,20.235 21.651 C 20.887 22.300,21.483 22.864,21.560 22.905 C 21.659 22.957,21.787 22.979,22.000 22.979 C 22.258 22.980,22.327 22.964,22.492 22.867 C 22.968 22.587,23.139 21.967,22.865 21.508 C 22.810 21.416,18.215 16.793,12.653 11.235 C 3.300 1.889,2.525 1.125,2.343 1.065 C 2.107 0.987,1.874 0.986,1.670 1.061 M11.070 1.043 C 9.948 1.136,8.381 1.529,7.818 1.859 C 7.512 2.038,7.333 2.408,7.372 2.781 C 7.410 3.157,7.615 3.440,7.960 3.597 C 8.241 3.724,8.462 3.704,9.069 3.496 C 9.364 3.395,9.615 3.322,9.626 3.333 C 9.638 3.344,9.552 3.494,9.435 3.667 C 9.189 4.032,9.124 4.192,9.122 4.443 C 9.115 5.134,9.796 5.625,10.453 5.403 C 10.684 5.325,10.867 5.142,11.153 4.700 C 11.493 4.174,11.949 3.560,12.000 3.560 C 12.055 3.560,12.601 4.301,12.919 4.807 C 13.253 5.340,13.791 6.390,14.016 6.950 C 14.393 7.889,14.647 8.814,14.825 9.899 C 14.937 10.585,14.979 10.705,15.174 10.914 C 15.789 11.567,16.878 11.133,16.880 10.233 C 16.880 10.108,16.835 9.742,16.781 9.419 C 16.451 7.476,15.726 5.551,14.686 3.860 C 14.511 3.574,14.372 3.335,14.378 3.329 C 14.400 3.307,15.066 3.532,15.440 3.687 C 18.174 4.820,20.203 7.263,20.799 10.140 C 20.840 10.338,20.887 10.612,20.902 10.748 L 20.930 10.997 19.155 11.008 C 17.419 11.020,17.376 11.022,17.217 11.107 C 16.583 11.447,16.474 12.259,16.999 12.731 C 17.105 12.827,17.263 12.926,17.351 12.952 C 17.462 12.986,18.014 13.000,19.220 13.000 L 20.931 13.000 20.906 13.239 C 20.862 13.667,20.716 14.282,20.516 14.888 C 20.297 15.552,20.276 15.760,20.403 16.040 C 20.667 16.623,21.351 16.813,21.887 16.452 C 22.104 16.306,22.212 16.113,22.417 15.506 C 22.855 14.209,23.030 13.042,22.987 11.700 C 22.895 8.785,21.763 6.188,19.695 4.151 C 17.425 1.915,14.273 0.779,11.070 1.043 M7.316 8.895 C 7.255 9.120,7.086 10.252,7.057 10.630 L 7.030 11.000 5.055 11.000 L 3.080 11.000 3.080 10.907 C 3.080 10.545,3.396 9.274,3.639 8.660 C 3.903 7.994,4.436 7.057,4.832 6.566 L 4.972 6.392 6.161 7.581 C 7.333 8.753,7.350 8.772,7.316 8.895 M9.317 10.992 C 9.182 10.999,9.062 10.996,9.052 10.985 C 9.042 10.975,9.046 10.865,9.062 10.740 L 9.090 10.513 9.327 10.746 L 9.563 10.980 9.317 10.992 M7.073 13.510 C 7.289 15.810,8.117 18.243,9.357 20.220 C 9.509 20.462,9.620 20.665,9.604 20.671 C 9.532 20.698,8.569 20.330,8.060 20.082 C 5.855 19.006,4.244 17.162,3.459 14.814 C 3.292 14.315,3.178 13.844,3.105 13.353 L 3.053 13.000 5.039 13.000 L 7.025 13.000 7.073 13.510 M13.010 14.430 L 14.440 15.860 14.246 16.420 C 13.914 17.379,13.582 18.092,13.066 18.960 C 12.726 19.530,12.071 20.440,12.000 20.440 C 11.959 20.440,11.712 20.124,11.374 19.640 C 10.121 17.844,9.280 15.529,9.060 13.270 L 9.034 13.000 10.307 13.000 L 11.580 13.000 13.010 14.430 M17.539 19.100 C 17.183 19.378,16.406 19.856,15.942 20.081 C 15.452 20.320,14.418 20.712,14.381 20.674 C 14.373 20.666,14.492 20.462,14.644 20.220 C 15.133 19.439,15.817 18.060,15.980 17.525 C 16.007 17.436,16.071 17.491,16.813 18.234 C 17.584 19.005,17.615 19.041,17.539 19.100 " stroke="none" fill-rule="evenodd" fill="#000000"></path></svg>