<svg  xmlns="http://www.w3.org/2000/svg" width="24" height="24" viewBox="0 0 24 24" fill="none" stroke="currentColor" stroke-width="2" stroke-linecap="round" stroke-linejoin="round"><path d="M3.695 3.057 C 3.466 3.129,3.256 3.299,3.128 3.516 L 3.020 3.700 3.009 11.460 C 3.002 16.750,3.012 19.284,3.041 19.423 C 3.148 19.941,3.602 20.538,4.070 20.775 C 4.541 21.014,4.033 21.000,12.458 20.998 C 18.805 20.997,20.207 20.987,20.330 20.943 C 20.551 20.864,20.744 20.702,20.869 20.489 C 20.964 20.328,20.980 20.256,20.980 20.000 C 20.980 19.746,20.963 19.672,20.872 19.516 C 20.740 19.293,20.533 19.128,20.290 19.055 C 20.138 19.009,18.947 19.000,13.268 19.000 L 6.428 19.000 6.629 18.788 C 6.924 18.476,6.978 18.354,6.979 18.000 C 6.980 17.745,6.964 17.672,6.872 17.516 C 6.747 17.303,6.550 17.141,6.316 17.058 C 5.946 16.928,5.605 17.019,5.245 17.345 L 5.001 17.566 4.990 10.633 L 4.980 3.700 4.872 3.516 C 4.628 3.101,4.150 2.915,3.695 3.057 M14.640 8.069 C 14.495 8.120,14.296 8.295,13.626 8.956 C 13.167 9.409,12.742 9.852,12.681 9.940 C 12.280 10.520,12.618 11.347,13.305 11.469 C 13.570 11.516,13.858 11.460,14.055 11.322 C 14.294 11.155,15.817 9.605,15.905 9.440 C 15.957 9.340,15.979 9.213,15.979 9.000 C 15.980 8.745,15.964 8.672,15.872 8.516 C 15.617 8.082,15.118 7.902,14.640 8.069 M10.080 12.603 C 9.866 12.700,8.293 14.240,8.134 14.508 C 7.862 14.968,8.032 15.587,8.508 15.867 C 8.673 15.964,8.743 15.980,9.000 15.980 C 9.254 15.980,9.328 15.963,9.480 15.873 C 9.579 15.814,10.033 15.391,10.488 14.933 C 11.093 14.324,11.338 14.050,11.398 13.914 C 11.695 13.242,11.230 12.518,10.502 12.521 C 10.346 12.521,10.196 12.551,10.080 12.603 " stroke="none" fill-rule="evenodd" fill="#000000"></path></svg>