<svg  xmlns="http://www.w3.org/2000/svg" width="24" height="24" viewBox="0 0 24 24" fill="none" stroke="currentColor" stroke-width="2" stroke-linecap="round" stroke-linejoin="round"><path d="M11.500 1.046 C 11.390 1.066,11.210 1.111,11.100 1.146 C 10.809 1.239,2.135 5.186,1.910 5.328 C 1.378 5.665,1.000 6.359,1.000 7.000 C 1.000 7.715,1.454 8.445,2.103 8.771 C 2.798 9.121,10.931 12.801,11.180 12.879 C 11.714 13.045,12.399 13.029,12.965 12.838 C 13.218 12.753,21.510 8.992,21.926 8.774 C 22.271 8.593,22.476 8.415,22.662 8.135 C 22.884 7.801,23.004 7.420,23.005 7.048 C 23.008 6.429,22.847 6.044,22.401 5.600 L 22.100 5.299 17.640 3.271 C 15.187 2.156,13.099 1.214,13.000 1.179 C 12.547 1.017,11.946 0.963,11.500 1.046 M16.323 4.870 C 18.554 5.885,20.523 6.780,20.698 6.860 L 21.016 7.005 16.838 8.906 C 14.540 9.952,12.543 10.853,12.400 10.908 C 11.949 11.081,12.018 11.104,9.317 9.874 C 7.988 9.268,6.032 8.378,4.971 7.896 C 3.910 7.414,3.042 7.011,3.041 7.000 C 3.040 6.984,11.560 3.099,11.760 3.024 C 11.793 3.012,11.920 3.007,12.043 3.013 C 12.241 3.023,12.723 3.232,16.323 4.870 M1.665 11.059 C 1.441 11.139,1.235 11.321,1.123 11.537 C 0.767 12.230,1.255 13.345,2.103 13.771 C 2.835 14.139,10.938 17.804,11.200 17.885 C 11.619 18.015,12.228 18.019,12.460 17.894 C 13.173 17.509,13.177 16.479,12.467 16.114 C 12.383 16.071,12.181 16.021,12.018 16.002 C 11.698 15.966,12.128 16.156,5.080 12.943 L 3.020 12.004 2.993 11.846 C 2.886 11.228,2.249 10.850,1.665 11.059 M21.780 11.035 C 21.580 11.088,21.421 11.187,21.269 11.355 C 21.139 11.499,21.089 11.612,21.022 11.920 C 21.006 11.991,20.941 12.048,20.795 12.119 C 20.186 12.414,20.056 13.218,20.540 13.702 C 20.747 13.909,21.043 14.018,21.326 13.990 C 21.563 13.968,22.108 13.707,22.346 13.503 C 22.860 13.062,23.154 12.127,22.941 11.616 C 22.861 11.423,22.667 11.217,22.473 11.117 C 22.304 11.030,21.956 10.989,21.780 11.035 M1.665 16.059 C 1.441 16.139,1.235 16.321,1.123 16.537 C 0.767 17.230,1.255 18.345,2.103 18.771 C 2.795 19.120,10.931 22.801,11.180 22.879 C 11.740 23.053,12.518 23.022,13.076 22.802 C 13.542 22.618,15.433 21.739,15.552 21.651 C 15.871 21.414,16.018 20.979,15.907 20.599 C 15.771 20.131,15.375 19.857,14.883 19.889 C 14.651 19.905,14.506 19.959,13.640 20.357 C 12.176 21.030,12.050 21.069,11.716 20.953 C 11.641 20.927,9.654 20.028,7.300 18.955 L 3.020 17.004 2.993 16.846 C 2.886 16.228,2.249 15.851,1.665 16.059 M15.695 16.057 C 15.466 16.129,15.256 16.299,15.128 16.516 C 15.037 16.672,15.020 16.746,15.020 17.000 C 15.020 17.256,15.036 17.328,15.131 17.489 C 15.256 17.702,15.449 17.864,15.670 17.943 C 15.891 18.022,22.109 18.022,22.330 17.943 C 22.551 17.864,22.744 17.702,22.869 17.489 C 22.964 17.328,22.980 17.256,22.980 17.000 C 22.980 16.746,22.963 16.672,22.872 16.516 C 22.740 16.293,22.533 16.128,22.290 16.055 C 22.030 15.977,15.945 15.979,15.695 16.057 " stroke="none" fill-rule="evenodd" fill="#000000"></path></svg>