<svg  xmlns="http://www.w3.org/2000/svg" width="24" height="24" viewBox="0 0 24 24" fill="none" stroke="currentColor" stroke-width="2" stroke-linecap="round" stroke-linejoin="round"><path d="M5.499 1.043 C 4.379 1.234,3.461 2.048,3.114 3.160 L 3.020 3.460 3.020 12.000 L 3.020 20.540 3.114 20.840 C 3.422 21.827,4.173 22.578,5.160 22.886 L 5.460 22.980 12.000 22.980 L 18.540 22.980 18.840 22.886 C 19.827 22.578,20.578 21.827,20.886 20.840 L 20.980 20.540 20.980 13.980 L 20.980 7.420 20.868 7.060 C 20.728 6.613,20.498 6.179,20.219 5.840 C 19.855 5.397,16.159 1.747,15.910 1.585 C 15.591 1.378,15.236 1.218,14.860 1.111 L 14.540 1.021 10.120 1.015 C 7.689 1.011,5.609 1.024,5.499 1.043 M14.560 3.116 C 14.750 3.200,15.047 3.479,16.752 5.176 C 18.505 6.922,18.738 7.169,18.852 7.399 L 18.980 7.658 18.992 13.839 C 19.001 18.220,18.992 20.079,18.961 20.224 C 18.905 20.484,18.724 20.731,18.486 20.871 L 18.300 20.980 12.000 20.980 L 5.700 20.980 5.516 20.872 C 5.415 20.813,5.284 20.700,5.225 20.623 C 4.985 20.308,5.000 20.888,5.000 12.022 C 5.000 2.888,4.974 3.632,5.304 3.303 C 5.620 2.986,5.329 3.004,10.100 3.012 L 14.340 3.020 14.560 3.116 M11.695 6.057 C 11.466 6.129,11.256 6.299,11.128 6.516 L 11.020 6.700 11.008 7.850 L 10.995 9.000 9.944 9.000 C 8.797 9.000,8.643 9.022,8.382 9.221 C 8.302 9.282,8.187 9.415,8.128 9.516 C 8.037 9.672,8.020 9.746,8.020 10.000 C 8.020 10.256,8.036 10.328,8.131 10.489 C 8.192 10.592,8.304 10.725,8.381 10.783 C 8.642 10.983,8.738 10.996,9.908 10.998 L 10.995 11.000 11.008 12.153 L 11.020 13.307 11.141 13.503 C 11.543 14.156,12.457 14.156,12.859 13.503 L 12.980 13.307 12.992 12.153 L 13.005 11.000 14.092 10.998 C 15.262 10.996,15.358 10.983,15.619 10.783 C 15.696 10.725,15.808 10.592,15.869 10.489 C 15.964 10.328,15.980 10.256,15.980 10.000 C 15.980 9.746,15.963 9.672,15.872 9.516 C 15.813 9.415,15.698 9.282,15.618 9.221 C 15.357 9.022,15.203 9.000,14.056 9.000 L 13.005 9.000 12.992 7.850 L 12.980 6.700 12.872 6.516 C 12.628 6.101,12.150 5.915,11.695 6.057 M8.695 16.057 C 8.466 16.129,8.256 16.299,8.128 16.516 C 8.037 16.672,8.020 16.746,8.020 17.000 C 8.020 17.256,8.036 17.328,8.131 17.489 C 8.256 17.702,8.449 17.864,8.670 17.943 C 8.891 18.022,15.109 18.022,15.330 17.943 C 15.551 17.864,15.744 17.702,15.869 17.489 C 15.964 17.328,15.980 17.256,15.980 17.000 C 15.980 16.746,15.963 16.672,15.872 16.516 C 15.740 16.293,15.533 16.128,15.290 16.055 C 15.030 15.977,8.945 15.979,8.695 16.057 " stroke="none" fill-rule="evenodd" fill="#000000"></path></svg>