<svg  xmlns="http://www.w3.org/2000/svg" width="24" height="24" viewBox="0 0 24 24" fill="none" stroke="currentColor" stroke-width="2" stroke-linecap="round" stroke-linejoin="round"><path d="M9.500 1.025 C 8.307 1.154,7.194 1.706,6.370 2.577 C 6.193 2.764,5.954 3.057,5.839 3.229 C 5.557 3.650,1.401 11.972,1.269 12.380 C 1.061 13.022,1.020 13.293,1.021 14.020 C 1.022 14.635,1.033 14.742,1.136 15.140 C 1.335 15.914,1.584 16.441,2.028 17.029 C 2.516 17.674,2.707 17.817,6.221 20.160 C 8.029 21.365,9.644 22.417,9.811 22.497 C 10.559 22.857,11.112 22.978,12.000 22.978 C 12.862 22.979,13.454 22.849,14.159 22.506 C 14.347 22.415,15.979 21.355,17.787 20.152 C 20.642 18.251,21.123 17.916,21.447 17.606 C 22.177 16.909,22.626 16.117,22.883 15.080 C 22.963 14.755,22.977 14.598,22.978 14.000 C 22.978 13.366,22.968 13.261,22.870 12.880 C 22.666 12.096,20.695 6.259,20.486 5.821 C 20.011 4.827,19.139 3.966,18.116 3.482 C 17.713 3.291,11.574 1.236,11.060 1.119 C 10.706 1.039,9.849 0.987,9.500 1.025 M10.480 3.042 C 10.888 3.107,16.941 5.135,17.375 5.351 C 17.675 5.501,17.805 5.599,18.103 5.897 C 18.401 6.195,18.499 6.325,18.648 6.624 C 18.976 7.279,21.069 13.665,20.984 13.750 C 20.978 13.755,19.562 13.186,17.837 12.483 L 14.700 11.207 12.370 7.120 C 11.089 4.872,10.040 3.026,10.040 3.017 C 10.040 2.989,10.206 2.998,10.480 3.042 M10.518 7.916 C 11.839 10.234,12.920 12.165,12.920 12.208 C 12.920 12.306,11.205 20.848,11.181 20.873 C 11.156 20.897,10.738 20.728,10.520 20.605 C 10.182 20.414,4.341 16.510,4.075 16.297 C 3.618 15.931,3.265 15.378,3.096 14.760 C 2.984 14.356,2.993 13.550,3.112 13.168 C 3.230 12.792,7.258 4.726,7.542 4.296 C 7.734 4.008,8.063 3.650,8.102 3.688 C 8.110 3.696,9.197 5.599,10.518 7.916 M17.640 14.560 C 19.169 15.183,20.427 15.698,20.435 15.705 C 20.466 15.730,20.302 15.942,20.105 16.135 C 19.936 16.299,14.069 20.252,13.465 20.609 L 13.270 20.724 13.291 20.612 C 13.303 20.550,13.634 18.902,14.026 16.948 C 14.613 14.029,14.751 13.399,14.800 13.413 C 14.833 13.422,16.111 13.938,17.640 14.560 " stroke="none" fill-rule="evenodd" fill="#000000"></path></svg>