<svg  xmlns="http://www.w3.org/2000/svg" width="24" height="24" viewBox="0 0 24 24" fill="none" stroke="currentColor" stroke-width="2" stroke-linecap="round" stroke-linejoin="round"><path d="M5.499 1.042 C 4.378 1.234,3.461 2.048,3.114 3.160 L 3.020 3.460 3.020 12.000 L 3.020 20.540 3.114 20.840 C 3.418 21.816,4.149 22.554,5.140 22.886 L 5.420 22.980 11.773 22.991 C 15.991 22.998,18.176 22.988,18.276 22.961 C 18.498 22.901,18.739 22.710,18.867 22.492 C 18.964 22.327,18.980 22.257,18.980 22.000 C 18.980 21.746,18.963 21.672,18.872 21.516 C 18.761 21.328,18.572 21.158,18.373 21.070 C 18.285 21.031,16.885 21.016,11.980 21.000 L 5.700 20.980 5.516 20.872 C 5.415 20.813,5.284 20.700,5.225 20.623 C 4.985 20.308,5.000 20.888,5.000 12.022 C 5.000 2.889,4.974 3.632,5.303 3.303 C 5.621 2.986,5.423 3.000,9.447 3.000 L 13.000 3.000 13.000 5.132 C 13.000 7.443,13.004 7.494,13.225 7.930 C 13.361 8.199,13.801 8.639,14.070 8.775 C 14.506 8.996,14.557 9.000,16.867 9.000 L 18.998 9.000 19.009 11.653 L 19.020 14.306 19.141 14.503 C 19.543 15.156,20.457 15.156,20.859 14.503 L 20.980 14.306 20.980 10.863 L 20.980 7.420 20.868 7.060 C 20.732 6.627,20.505 6.192,20.241 5.863 C 19.921 5.464,16.162 1.748,15.920 1.592 C 15.585 1.376,15.319 1.252,14.932 1.131 L 14.580 1.020 10.140 1.014 C 7.698 1.011,5.609 1.024,5.499 1.042 M16.800 5.220 L 18.580 7.000 16.790 7.000 L 15.000 7.000 15.000 5.220 C 15.000 4.241,15.005 3.440,15.010 3.440 C 15.016 3.440,15.821 4.241,16.800 5.220 M13.695 17.057 C 13.466 17.129,13.256 17.299,13.128 17.516 C 13.037 17.672,13.020 17.746,13.020 18.000 C 13.020 18.256,13.036 18.328,13.131 18.489 C 13.256 18.702,13.449 18.864,13.670 18.943 C 13.891 19.022,20.109 19.022,20.330 18.943 C 20.551 18.864,20.744 18.702,20.869 18.489 C 20.964 18.328,20.980 18.256,20.980 18.000 C 20.980 17.746,20.963 17.672,20.872 17.516 C 20.740 17.293,20.533 17.128,20.290 17.055 C 20.030 16.977,13.945 16.979,13.695 17.057 " stroke="none" fill-rule="evenodd" fill="#000000"></path></svg>