<svg  xmlns="http://www.w3.org/2000/svg" width="24" height="24" viewBox="0 0 24 24" fill="none" stroke="currentColor" stroke-width="2" stroke-linecap="round" stroke-linejoin="round"><path d="M5.499 1.042 C 4.378 1.234,3.461 2.048,3.114 3.160 C 3.021 3.456,3.020 3.483,3.020 5.300 C 3.020 7.109,3.021 7.143,3.106 7.300 C 3.494 8.018,4.506 8.018,4.894 7.300 C 4.977 7.145,4.981 7.086,5.000 5.440 C 5.022 3.533,5.015 3.580,5.321 3.283 C 5.625 2.989,5.459 3.000,9.447 3.000 L 13.000 3.000 13.000 5.132 C 13.000 7.443,13.004 7.494,13.225 7.930 C 13.361 8.199,13.801 8.639,14.070 8.775 C 14.506 8.996,14.557 9.000,16.868 9.000 L 19.000 9.000 19.000 14.554 C 19.000 19.144,18.990 20.139,18.945 20.290 C 18.872 20.533,18.707 20.740,18.484 20.872 L 18.300 20.980 17.020 21.001 C 16.146 21.016,15.704 21.038,15.627 21.071 C 15.431 21.156,15.239 21.327,15.128 21.516 C 15.037 21.672,15.020 21.746,15.020 22.000 C 15.020 22.257,15.036 22.327,15.133 22.492 C 15.263 22.713,15.502 22.901,15.732 22.963 C 15.837 22.992,16.353 23.001,17.236 22.991 C 18.505 22.976,18.596 22.970,18.860 22.884 C 19.842 22.563,20.581 21.817,20.886 20.840 L 20.980 20.540 20.980 13.980 L 20.980 7.420 20.868 7.060 C 20.732 6.627,20.505 6.192,20.241 5.863 C 19.921 5.464,16.162 1.748,15.920 1.592 C 15.585 1.376,15.319 1.252,14.932 1.131 L 14.580 1.020 10.140 1.014 C 7.698 1.011,5.609 1.024,5.499 1.042 M16.800 5.220 L 18.580 7.000 16.790 7.000 L 15.000 7.000 15.000 5.220 C 15.000 4.241,15.005 3.440,15.010 3.440 C 15.016 3.440,15.821 4.241,16.800 5.220 M7.540 9.023 C 6.478 9.125,5.692 9.335,4.910 9.726 C 2.838 10.762,1.448 12.666,1.074 14.980 C 1.008 15.393,1.008 16.607,1.074 17.020 C 1.574 20.112,3.888 22.426,6.980 22.926 C 7.392 22.992,8.607 22.992,9.020 22.926 C 12.109 22.428,14.428 20.109,14.926 17.020 C 14.954 16.844,14.977 16.385,14.977 16.000 C 14.977 15.056,14.876 14.462,14.573 13.620 C 13.715 11.237,11.581 9.473,9.102 9.098 C 8.726 9.041,7.813 8.997,7.540 9.023 M8.552 11.043 C 10.413 11.246,12.001 12.479,12.680 14.248 C 13.092 15.320,13.085 16.720,12.663 17.793 C 12.120 19.174,10.991 20.256,9.600 20.732 C 9.044 20.922,8.670 20.980,8.000 20.980 C 7.330 20.980,6.956 20.922,6.400 20.732 C 4.808 20.188,3.580 18.864,3.161 17.240 C 2.920 16.307,2.983 15.125,3.320 14.248 C 4.146 12.096,6.274 10.793,8.552 11.043 M7.695 13.057 C 7.466 13.129,7.256 13.299,7.128 13.516 L 7.020 13.700 7.008 15.014 C 6.994 16.498,7.008 16.595,7.273 16.868 C 7.445 17.044,9.126 18.104,9.325 18.161 C 10.091 18.381,10.793 17.641,10.540 16.881 C 10.444 16.592,10.280 16.443,9.592 16.020 L 9.006 15.660 8.993 14.680 L 8.980 13.700 8.872 13.516 C 8.628 13.101,8.150 12.915,7.695 13.057 " stroke="none" fill-rule="evenodd" fill="#000000"></path></svg>