<svg  xmlns="http://www.w3.org/2000/svg" width="24" height="24" viewBox="0 0 24 24" fill="none" stroke="currentColor" stroke-width="2" stroke-linecap="round" stroke-linejoin="round"><path d="M6.640 2.026 C 6.299 2.079,5.941 2.189,5.680 2.322 C 5.337 2.495,5.183 2.604,4.904 2.871 C 4.599 3.162,1.460 7.368,1.299 7.700 C 0.857 8.615,0.915 9.743,1.447 10.566 C 1.537 10.706,3.425 13.314,5.642 16.363 C 10.100 22.492,9.981 22.342,10.643 22.664 C 11.167 22.919,11.420 22.978,12.000 22.979 C 12.517 22.979,12.739 22.937,13.180 22.753 C 13.484 22.627,13.875 22.356,14.129 22.095 C 14.461 21.754,22.531 10.646,22.699 10.300 C 22.917 9.849,22.977 9.567,22.977 9.000 C 22.977 8.434,22.917 8.153,22.700 7.700 C 22.541 7.369,19.403 3.164,19.096 2.871 C 18.817 2.604,18.662 2.495,18.320 2.322 C 17.678 1.998,18.161 2.022,12.120 2.016 C 9.161 2.013,6.695 2.017,6.640 2.026 M8.969 4.074 C 8.953 4.115,8.580 5.014,8.140 6.073 L 7.340 7.998 5.428 7.999 C 3.908 8.000,3.521 7.990,3.546 7.950 C 3.711 7.676,6.336 4.239,6.423 4.182 C 6.663 4.024,6.823 4.005,7.929 4.003 C 8.952 4.000,8.996 4.003,8.969 4.074 M12.911 4.190 C 13.172 4.800,14.480 7.957,14.480 7.976 C 14.480 7.989,13.364 8.000,12.000 8.000 C 10.636 8.000,9.520 7.989,9.520 7.976 C 9.520 7.957,10.828 4.800,11.089 4.190 L 11.170 4.000 12.000 4.000 L 12.830 4.000 12.911 4.190 M17.461 4.121 C 17.643 4.213,17.774 4.374,19.031 6.041 C 19.785 7.041,20.420 7.891,20.443 7.930 C 20.481 7.996,20.381 8.000,18.571 7.999 L 16.660 7.998 15.860 6.073 C 15.420 5.014,15.047 4.114,15.030 4.072 C 15.002 3.998,15.033 3.996,16.132 4.008 C 17.250 4.020,17.265 4.021,17.461 4.121 M8.630 14.448 C 9.383 16.894,9.993 18.900,9.987 18.906 C 9.975 18.918,3.549 10.094,3.527 10.035 C 3.519 10.015,4.335 10.000,5.388 10.000 L 7.262 10.000 8.630 14.448 M14.631 10.050 C 14.621 10.078,14.030 11.994,13.319 14.310 C 12.607 16.625,12.014 18.520,12.000 18.520 C 11.986 18.520,11.393 16.626,10.681 14.310 C 9.970 11.995,9.379 10.078,9.369 10.050 C 9.355 10.010,9.898 10.000,12.000 10.000 C 14.102 10.000,14.645 10.010,14.631 10.050 M20.473 10.035 C 20.453 10.090,14.023 18.916,14.012 18.905 C 14.006 18.900,14.617 16.894,15.370 14.448 L 16.738 10.000 18.612 10.000 C 19.681 10.000,20.481 10.015,20.473 10.035 " stroke="none" fill-rule="evenodd" fill="#000000"></path></svg>