<svg  xmlns="http://www.w3.org/2000/svg" width="24" height="24" viewBox="0 0 24 24" fill="none" stroke="currentColor" stroke-width="2" stroke-linecap="round" stroke-linejoin="round"><path d="M4.477 1.073 C 3.806 1.249,3.238 1.823,3.060 2.508 C 2.972 2.844,2.972 6.156,3.060 6.492 C 3.153 6.852,3.310 7.118,3.596 7.404 C 3.958 7.766,4.457 8.000,4.868 8.000 L 4.998 8.000 5.009 14.290 L 5.020 20.580 5.114 20.860 C 5.446 21.851,6.184 22.582,7.160 22.886 L 7.460 22.980 12.000 22.980 L 16.540 22.980 16.840 22.886 C 17.816 22.582,18.554 21.851,18.886 20.860 L 18.980 20.580 18.991 14.290 L 19.002 8.000 19.132 8.000 C 19.323 8.000,19.690 7.896,19.930 7.775 C 20.196 7.640,20.638 7.200,20.771 6.937 C 20.990 6.506,21.000 6.396,20.999 4.514 C 20.999 2.642,20.985 2.484,20.781 2.083 C 20.646 1.816,20.297 1.449,20.017 1.281 C 19.525 0.985,20.100 1.005,12.000 1.005 C 5.266 1.005,4.721 1.010,4.477 1.073 M19.000 4.500 L 19.000 6.000 12.000 6.000 L 5.000 6.000 5.000 4.500 L 5.000 3.000 12.000 3.000 L 19.000 3.000 19.000 4.500 M17.000 9.000 L 17.000 10.000 15.370 10.002 C 13.545 10.005,13.417 10.020,12.983 10.281 C 12.703 10.449,12.354 10.816,12.219 11.083 C 12.000 11.515,12.000 11.512,12.000 14.500 C 12.000 17.501,11.999 17.484,12.225 17.930 C 12.361 18.199,12.801 18.639,13.070 18.775 C 13.493 18.990,13.601 19.000,15.368 19.000 L 17.000 19.000 17.000 19.554 C 17.000 20.352,16.890 20.633,16.484 20.872 L 16.300 20.980 12.000 20.980 L 7.700 20.980 7.516 20.872 C 7.415 20.813,7.284 20.700,7.225 20.623 C 6.987 20.311,7.000 20.696,7.000 14.075 L 7.000 8.000 12.000 8.000 L 17.000 8.000 17.000 9.000 M17.000 14.500 L 17.000 17.000 15.500 17.000 L 14.000 17.000 14.000 14.500 L 14.000 12.000 15.500 12.000 L 17.000 12.000 17.000 14.500 " stroke="none" fill-rule="evenodd" fill="#000000"></path></svg>