<svg  xmlns="http://www.w3.org/2000/svg" width="24" height="24" viewBox="0 0 24 24" fill="none" stroke="currentColor" stroke-width="2" stroke-linecap="round" stroke-linejoin="round"><path d="M1.670 1.061 C 1.448 1.142,1.250 1.309,1.128 1.516 C 1.037 1.672,1.020 1.746,1.020 2.000 C 1.020 2.413,1.089 2.515,1.933 3.356 L 2.632 4.051 2.446 4.179 C 2.344 4.250,2.207 4.392,2.143 4.496 C 2.044 4.655,2.023 4.736,2.009 5.012 C 1.989 5.419,2.079 5.990,2.245 6.509 C 2.654 7.789,3.525 8.814,4.734 9.442 C 4.957 9.557,5.146 9.657,5.154 9.663 C 5.161 9.669,5.136 9.815,5.098 9.987 C 5.050 10.207,5.023 10.554,5.010 11.150 L 4.991 12.000 3.442 12.000 C 1.759 12.000,1.658 12.011,1.382 12.221 C 1.302 12.282,1.187 12.415,1.128 12.516 C 1.037 12.672,1.020 12.746,1.020 13.000 C 1.020 13.256,1.036 13.328,1.131 13.489 C 1.192 13.592,1.304 13.725,1.381 13.783 C 1.654 13.991,1.700 13.996,3.410 13.998 L 5.000 14.000 5.000 14.239 C 5.000 14.680,5.172 15.670,5.340 16.201 C 5.357 16.255,5.312 16.290,5.131 16.363 C 4.028 16.810,3.058 17.703,2.544 18.746 C 2.187 19.470,2.023 20.128,2.021 20.843 C 2.020 21.289,2.024 21.313,2.141 21.503 C 2.539 22.150,3.457 22.156,3.852 21.514 C 3.949 21.356,3.972 21.264,4.004 20.894 C 4.051 20.348,4.123 20.057,4.303 19.690 C 4.649 18.981,5.290 18.411,6.025 18.158 C 6.150 18.115,6.264 18.080,6.279 18.080 C 6.293 18.080,6.429 18.234,6.581 18.422 C 7.623 19.718,9.022 20.541,10.800 20.902 C 11.222 20.987,12.382 21.023,12.803 20.964 C 14.126 20.776,15.425 20.233,16.380 19.467 C 16.490 19.378,16.729 19.161,16.910 18.984 L 17.240 18.661 19.330 20.747 C 20.480 21.893,21.483 22.865,21.560 22.905 C 21.659 22.957,21.788 22.979,22.000 22.979 C 22.258 22.980,22.327 22.964,22.492 22.867 C 22.968 22.587,23.139 21.967,22.865 21.508 C 22.810 21.416,18.215 16.793,12.653 11.235 C 3.300 1.889,2.525 1.125,2.343 1.065 C 2.107 0.987,1.874 0.986,1.670 1.061 M7.670 1.061 C 7.448 1.142,7.250 1.309,7.128 1.516 C 7.036 1.672,7.020 1.745,7.021 2.000 C 7.021 2.213,7.043 2.340,7.095 2.440 C 7.136 2.517,7.515 2.931,7.937 3.360 C 8.648 4.081,8.711 4.157,8.773 4.365 C 8.893 4.764,9.292 5.054,9.720 5.054 C 10.015 5.054,10.179 4.972,10.535 4.647 C 11.154 4.083,11.703 3.909,12.400 4.057 C 13.255 4.238,13.876 4.911,13.978 5.767 L 14.005 5.994 13.193 6.007 C 12.448 6.019,12.366 6.027,12.217 6.107 C 11.593 6.441,11.475 7.250,11.982 7.718 C 12.080 7.808,12.210 7.903,12.270 7.929 C 12.340 7.959,12.768 7.986,13.440 8.001 C 14.369 8.023,14.539 8.037,14.820 8.116 C 15.784 8.386,16.581 9.171,16.875 10.139 C 16.963 10.432,16.974 10.554,16.998 11.540 C 17.014 12.212,17.041 12.661,17.070 12.728 C 17.139 12.889,17.395 13.156,17.562 13.241 C 17.649 13.285,17.729 13.366,17.760 13.439 C 17.830 13.609,18.159 13.895,18.351 13.952 C 18.591 14.024,22.126 14.016,22.330 13.943 C 22.551 13.864,22.744 13.702,22.869 13.489 C 22.964 13.328,22.980 13.256,22.980 13.000 C 22.980 12.746,22.963 12.672,22.872 12.516 C 22.813 12.415,22.698 12.282,22.618 12.221 C 22.342 12.011,22.242 12.000,20.554 12.000 L 19.000 12.000 19.000 11.310 C 19.000 10.678,18.946 10.135,18.848 9.782 C 18.816 9.667,18.821 9.662,19.138 9.509 C 20.643 8.782,21.671 7.397,21.944 5.729 C 21.981 5.502,22.000 5.204,21.991 5.012 C 21.977 4.736,21.956 4.656,21.857 4.498 C 21.543 3.995,20.907 3.859,20.423 4.192 C 20.224 4.329,20.049 4.603,20.025 4.815 C 20.015 4.906,19.989 5.142,19.967 5.340 C 19.919 5.783,19.804 6.135,19.594 6.493 C 19.268 7.046,18.595 7.629,18.105 7.784 L 17.898 7.849 17.584 7.526 C 17.228 7.161,16.745 6.802,16.302 6.575 L 16.000 6.420 15.999 6.060 C 15.998 5.390,15.857 4.766,15.587 4.234 L 15.452 3.968 16.108 3.314 C 16.910 2.516,16.980 2.410,16.980 2.000 C 16.980 1.746,16.963 1.672,16.872 1.516 C 16.617 1.083,16.135 0.905,15.657 1.067 C 15.491 1.123,15.345 1.247,14.740 1.843 L 14.020 2.552 13.800 2.437 C 12.734 1.880,11.325 1.872,10.240 2.416 L 9.980 2.546 9.260 1.840 C 8.656 1.248,8.508 1.123,8.343 1.067 C 8.108 0.987,7.876 0.985,7.670 1.061 M6.239 7.680 C 6.238 7.691,6.211 7.735,6.179 7.777 C 6.122 7.852,6.113 7.853,5.904 7.787 C 5.223 7.572,4.412 6.728,4.167 5.980 C 3.972 5.384,3.934 5.362,5.136 6.560 C 5.743 7.165,6.239 7.669,6.239 7.680 M9.350 10.770 L 11.000 12.420 11.000 15.654 L 11.000 18.889 10.868 18.864 C 10.795 18.850,10.593 18.793,10.418 18.737 C 8.625 18.158,7.273 16.502,7.041 14.601 C 7.019 14.414,7.001 13.481,7.001 12.521 C 7.003 10.629,7.022 10.401,7.221 9.899 C 7.323 9.641,7.629 9.120,7.678 9.120 C 7.690 9.120,8.442 9.862,9.350 10.770 M15.520 17.540 C 15.148 17.914,14.727 18.220,14.260 18.453 C 13.925 18.620,13.195 18.880,13.060 18.880 C 13.008 18.880,13.000 18.598,13.000 16.650 L 13.000 14.420 14.409 15.830 L 15.819 17.239 15.520 17.540 " stroke="none" fill-rule="evenodd" fill="#000000"></path></svg>