<svg  xmlns="http://www.w3.org/2000/svg" width="24" height="24" viewBox="0 0 24 24" fill="none" stroke="currentColor" stroke-width="2" stroke-linecap="round" stroke-linejoin="round"><path d="M8.695 3.057 C 8.466 3.129,8.256 3.299,8.128 3.516 C 8.037 3.672,8.020 3.746,8.020 4.000 C 8.020 4.256,8.036 4.328,8.131 4.489 C 8.256 4.702,8.449 4.864,8.670 4.943 C 8.891 5.022,15.109 5.022,15.330 4.943 C 15.551 4.864,15.744 4.702,15.869 4.489 C 15.964 4.328,15.980 4.256,15.980 4.000 C 15.980 3.746,15.963 3.672,15.872 3.516 C 15.740 3.293,15.533 3.128,15.290 3.055 C 15.030 2.977,8.945 2.979,8.695 3.057 M9.477 7.073 C 8.806 7.249,8.238 7.823,8.060 8.508 C 8.014 8.685,8.000 8.994,8.000 9.868 L 8.000 11.000 6.282 11.000 C 5.162 11.000,4.490 11.016,4.352 11.045 C 3.543 11.217,2.949 12.002,3.011 12.818 C 3.037 13.159,3.143 13.452,3.333 13.709 C 3.411 13.814,5.101 15.521,7.087 17.503 C 10.968 21.373,10.836 21.254,11.417 21.421 C 11.727 21.511,12.273 21.511,12.583 21.421 C 13.164 21.254,13.032 21.373,16.913 17.503 C 18.899 15.521,20.586 13.818,20.660 13.718 C 21.170 13.030,21.085 12.075,20.460 11.484 C 20.347 11.377,20.179 11.251,20.088 11.204 C 19.711 11.012,19.576 11.000,17.732 11.000 L 16.000 11.000 15.999 9.890 C 15.999 8.691,15.970 8.456,15.781 8.083 C 15.646 7.816,15.297 7.449,15.017 7.281 C 14.564 7.008,14.524 7.005,12.000 7.005 C 9.992 7.005,9.711 7.012,9.477 7.073 M14.000 10.132 C 14.000 11.358,14.021 11.528,14.225 11.930 C 14.361 12.199,14.801 12.639,15.070 12.775 C 15.486 12.986,15.619 13.000,17.158 13.000 L 18.580 13.000 15.340 16.240 C 12.772 18.809,12.079 19.480,12.000 19.480 C 11.921 19.480,11.228 18.809,8.660 16.240 L 5.420 13.000 6.842 13.000 C 8.381 13.000,8.514 12.986,8.930 12.775 C 9.196 12.640,9.638 12.200,9.771 11.937 C 9.976 11.533,10.000 11.342,10.000 10.124 L 10.000 9.000 12.000 9.000 L 14.000 9.000 14.000 10.132 " stroke="none" fill-rule="evenodd" fill="#000000"></path></svg>