<svg  xmlns="http://www.w3.org/2000/svg" width="24" height="24" viewBox="0 0 24 24" fill="none" stroke="currentColor" stroke-width="2" stroke-linecap="round" stroke-linejoin="round"><path d="M9.499 1.042 C 8.385 1.234,7.470 2.041,7.118 3.140 C 7.042 3.379,7.026 3.536,7.010 4.207 L 6.991 4.995 5.225 5.009 C 3.477 5.023,3.457 5.024,3.139 5.123 C 2.173 5.423,1.419 6.181,1.114 7.160 L 1.020 7.460 1.020 13.000 L 1.020 18.540 1.114 18.840 C 1.422 19.827,2.173 20.578,3.160 20.886 L 3.460 20.980 12.000 20.980 L 20.540 20.980 20.840 20.886 C 21.827 20.578,22.578 19.827,22.886 18.840 L 22.980 18.540 22.980 13.000 L 22.980 7.460 22.886 7.160 C 22.581 6.181,21.827 5.423,20.861 5.123 C 20.543 5.024,20.523 5.023,18.775 5.009 L 17.009 4.995 16.990 4.207 C 16.974 3.536,16.958 3.379,16.882 3.140 C 16.573 2.174,15.820 1.422,14.861 1.122 L 14.540 1.022 12.120 1.015 C 10.789 1.011,9.609 1.023,9.499 1.042 M14.310 3.061 C 14.452 3.103,14.571 3.178,14.697 3.303 C 14.948 3.554,15.000 3.751,15.000 4.447 L 15.000 5.000 12.000 5.000 L 9.000 5.000 9.000 4.447 C 9.000 3.750,9.052 3.554,9.304 3.303 C 9.604 3.002,9.569 3.006,11.983 3.003 C 13.772 3.000,14.138 3.010,14.310 3.061 M7.000 13.002 L 7.000 19.003 5.350 18.992 L 3.700 18.980 3.516 18.872 C 3.415 18.813,3.284 18.700,3.225 18.623 C 2.988 18.312,3.000 18.608,3.000 13.022 C 3.000 7.240,2.979 7.627,3.304 7.303 C 3.596 7.011,3.629 7.006,5.430 7.003 L 7.000 7.000 7.000 13.002 M15.000 13.000 L 15.000 19.000 12.000 19.000 L 9.000 19.000 9.000 13.000 L 9.000 7.000 12.000 7.000 L 15.000 7.000 15.000 13.000 M20.310 7.061 C 20.589 7.144,20.856 7.411,20.939 7.690 C 20.992 7.868,21.000 8.546,21.000 13.001 C 21.000 17.212,20.990 18.139,20.945 18.290 C 20.872 18.533,20.707 18.740,20.484 18.872 L 20.300 18.980 18.650 18.992 L 17.000 19.003 17.000 13.002 L 17.000 7.000 18.553 7.000 C 19.826 7.000,20.142 7.011,20.310 7.061 " stroke="none" fill-rule="evenodd" fill="#000000"></path></svg>