<svg  xmlns="http://www.w3.org/2000/svg" width="24" height="24" viewBox="0 0 24 24" fill="none" stroke="currentColor" stroke-width="2" stroke-linecap="round" stroke-linejoin="round"><path d="M1.670 1.061 C 1.448 1.142,1.250 1.309,1.128 1.516 C 1.036 1.672,1.020 1.745,1.021 2.000 C 1.022 2.367,1.077 2.481,1.427 2.844 L 1.681 3.108 1.605 3.204 C 1.343 3.537,1.121 4.057,1.041 4.522 C 1.010 4.704,1.000 6.366,1.008 10.180 L 1.020 15.580 1.114 15.860 C 1.443 16.840,2.160 17.558,3.140 17.886 L 3.420 17.980 7.210 17.991 L 11.000 18.003 11.000 19.001 L 11.000 20.000 9.446 20.000 C 7.758 20.000,7.658 20.011,7.382 20.221 C 7.302 20.282,7.187 20.415,7.128 20.516 C 7.037 20.672,7.020 20.746,7.020 21.000 C 7.020 21.256,7.036 21.328,7.131 21.489 C 7.256 21.702,7.449 21.864,7.670 21.943 C 7.892 22.022,16.108 22.022,16.330 21.943 C 16.551 21.864,16.744 21.702,16.869 21.489 C 16.964 21.328,16.980 21.256,16.980 21.000 C 16.980 20.746,16.963 20.672,16.872 20.516 C 16.813 20.415,16.698 20.282,16.618 20.221 C 16.342 20.011,16.242 20.000,14.554 20.000 L 13.000 20.000 13.000 19.000 L 13.000 18.000 14.790 18.000 L 16.580 18.000 18.960 20.383 C 20.282 21.706,21.420 22.813,21.520 22.873 C 21.673 22.964,21.746 22.980,22.000 22.980 C 22.257 22.980,22.327 22.964,22.492 22.867 C 22.968 22.587,23.139 21.967,22.865 21.508 C 22.810 21.416,18.215 16.793,12.653 11.235 C 3.300 1.889,2.525 1.125,2.343 1.065 C 2.107 0.987,1.874 0.986,1.670 1.061 M8.400 2.037 C 8.094 2.131,7.808 2.395,7.718 2.665 C 7.645 2.881,7.652 3.155,7.735 3.373 C 7.821 3.598,8.126 3.885,8.351 3.952 C 8.470 3.988,9.944 4.000,14.307 4.000 C 20.839 4.000,20.371 3.978,20.697 4.304 C 21.022 4.628,21.002 4.236,20.990 10.082 L 20.980 15.260 20.850 15.547 C 20.645 16.000,20.682 16.375,20.966 16.697 C 21.341 17.123,21.988 17.150,22.392 16.756 C 22.635 16.518,22.860 16.006,22.960 15.460 C 22.991 15.290,23.001 13.637,22.992 9.820 L 22.980 4.420 22.886 4.140 C 22.556 3.158,21.821 2.425,20.861 2.121 L 20.540 2.020 14.520 2.013 C 11.209 2.009,8.455 2.020,8.400 2.037 M8.860 10.280 L 14.580 16.001 9.140 15.990 L 3.700 15.980 3.516 15.872 C 3.415 15.813,3.284 15.700,3.225 15.623 C 2.988 15.312,3.000 15.609,3.000 10.010 C 3.000 5.020,3.010 4.560,3.116 4.560 C 3.129 4.560,5.714 7.134,8.860 10.280 " stroke="none" fill-rule="evenodd" fill="#000000"></path></svg>