<svg  xmlns="http://www.w3.org/2000/svg" width="24" height="24" viewBox="0 0 24 24" fill="none" stroke="currentColor" stroke-width="2" stroke-linecap="round" stroke-linejoin="round"><path d="M8.477 1.073 C 7.806 1.249,7.238 1.823,7.060 2.508 C 7.027 2.634,7.000 2.794,7.000 2.864 L 7.000 2.991 6.230 3.010 C 5.567 3.027,5.416 3.043,5.139 3.126 C 4.181 3.415,3.420 4.179,3.114 5.160 L 3.020 5.460 3.020 13.000 L 3.020 20.540 3.114 20.840 C 3.419 21.817,4.158 22.563,5.140 22.884 C 5.404 22.970,5.495 22.976,6.764 22.991 C 7.647 23.001,8.163 22.992,8.268 22.963 C 8.498 22.901,8.737 22.713,8.867 22.492 C 8.964 22.327,8.980 22.257,8.980 22.000 C 8.980 21.746,8.963 21.672,8.872 21.516 C 8.761 21.327,8.569 21.156,8.373 21.071 C 8.296 21.038,7.854 21.016,6.980 21.001 L 5.700 20.980 5.516 20.872 C 5.415 20.813,5.284 20.700,5.225 20.623 C 4.986 20.309,5.000 20.795,5.000 13.022 C 5.000 5.006,4.975 5.631,5.303 5.303 C 5.554 5.052,5.751 5.000,6.447 5.000 L 7.000 5.000 7.000 5.132 C 7.000 5.323,7.104 5.690,7.225 5.930 C 7.361 6.199,7.801 6.639,8.070 6.775 C 8.522 7.004,8.454 7.000,11.993 7.000 C 15.539 7.000,15.479 7.003,15.937 6.771 C 16.197 6.639,16.639 6.197,16.771 5.937 C 16.888 5.707,17.000 5.309,17.000 5.124 L 17.000 5.000 17.553 5.000 C 18.249 5.000,18.446 5.052,18.697 5.303 C 18.947 5.554,19.000 5.751,19.000 6.440 C 19.000 7.086,19.052 7.283,19.284 7.514 C 19.510 7.740,19.692 7.818,20.000 7.818 C 20.308 7.818,20.490 7.740,20.717 7.513 C 20.977 7.253,21.013 7.082,20.990 6.186 C 20.974 5.538,20.957 5.377,20.882 5.140 C 20.572 4.172,19.810 3.412,18.861 3.126 C 18.585 3.043,18.433 3.027,17.778 3.010 L 17.017 2.991 16.968 2.687 C 16.942 2.520,16.869 2.275,16.806 2.141 C 16.665 1.839,16.321 1.464,16.017 1.281 C 15.548 0.999,15.636 1.005,12.000 1.005 C 9.047 1.005,8.715 1.011,8.477 1.073 M15.000 4.000 L 15.000 5.000 12.000 5.000 L 9.000 5.000 9.000 4.000 L 9.000 3.000 12.000 3.000 L 15.000 3.000 15.000 4.000 M15.540 9.023 C 14.478 9.125,13.692 9.335,12.910 9.726 C 10.838 10.762,9.448 12.666,9.074 14.980 C 9.008 15.393,9.008 16.607,9.074 17.020 C 9.574 20.112,11.888 22.426,14.980 22.926 C 15.392 22.992,16.607 22.992,17.020 22.926 C 20.109 22.428,22.428 20.109,22.926 17.020 C 22.954 16.844,22.977 16.385,22.977 16.000 C 22.977 15.056,22.876 14.462,22.573 13.620 C 21.715 11.237,19.581 9.473,17.102 9.098 C 16.726 9.041,15.813 8.997,15.540 9.023 M16.552 11.043 C 18.413 11.246,20.001 12.479,20.680 14.248 C 21.092 15.320,21.085 16.720,20.663 17.793 C 20.120 19.174,18.991 20.256,17.600 20.732 C 17.044 20.922,16.670 20.980,16.000 20.980 C 15.330 20.980,14.956 20.922,14.400 20.732 C 12.808 20.188,11.580 18.864,11.161 17.240 C 10.920 16.307,10.983 15.125,11.320 14.248 C 12.146 12.096,14.274 10.793,16.552 11.043 M15.695 13.057 C 15.466 13.129,15.256 13.299,15.128 13.516 L 15.020 13.700 15.008 15.014 C 14.994 16.498,15.008 16.595,15.273 16.868 C 15.445 17.044,17.126 18.104,17.325 18.161 C 18.091 18.381,18.793 17.641,18.540 16.881 C 18.444 16.592,18.280 16.443,17.592 16.020 L 17.006 15.660 16.993 14.680 L 16.980 13.700 16.872 13.516 C 16.628 13.101,16.150 12.915,15.695 13.057 " stroke="none" fill-rule="evenodd" fill="#000000"></path></svg>