<svg  xmlns="http://www.w3.org/2000/svg" width="24" height="24" viewBox="0 0 24 24" fill="none" stroke="currentColor" stroke-width="2" stroke-linecap="round" stroke-linejoin="round"><path d="M10.920 2.027 C 10.473 2.073,9.923 2.188,9.520 2.319 C 8.483 2.659,7.687 3.147,6.918 3.917 C 6.135 4.701,5.666 5.462,5.323 6.506 L 5.170 6.971 4.891 7.141 C 2.702 8.476,1.334 10.641,1.037 13.240 C 0.951 13.993,1.035 15.118,1.238 15.920 C 1.968 18.807,4.177 21.016,7.080 21.761 C 7.925 21.978,7.738 21.971,12.940 21.989 C 16.462 22.001,17.878 21.993,18.140 21.960 C 19.387 21.799,20.456 21.285,21.340 20.420 C 22.959 18.835,23.435 16.495,22.570 14.376 C 22.033 13.062,20.895 11.946,19.539 11.403 C 18.802 11.108,18.140 11.001,17.052 10.999 L 16.420 10.998 16.201 10.532 C 15.194 8.396,13.157 6.763,10.820 6.218 C 10.005 6.028,8.911 5.959,8.160 6.051 C 7.907 6.082,7.695 6.104,7.690 6.100 C 7.660 6.078,8.130 5.511,8.376 5.272 C 9.293 4.383,10.485 3.943,11.784 4.015 C 13.001 4.083,14.193 4.686,14.954 5.620 C 15.351 6.107,15.524 6.419,15.761 7.070 C 15.934 7.545,15.988 7.636,16.179 7.782 C 16.447 7.987,16.524 7.996,17.883 7.998 C 18.605 7.999,19.247 8.018,19.383 8.043 C 20.005 8.157,20.539 8.592,20.849 9.240 C 21.052 9.664,21.170 9.796,21.453 9.917 C 21.925 10.119,22.448 9.932,22.703 9.470 C 22.867 9.172,22.864 8.850,22.692 8.449 C 22.198 7.298,21.177 6.428,19.952 6.115 C 19.668 6.042,19.468 6.027,18.558 6.011 L 17.497 5.992 17.361 5.690 C 16.929 4.730,16.008 3.687,15.025 3.046 C 13.851 2.279,12.276 1.888,10.920 2.027 M10.040 8.097 C 11.586 8.370,13.016 9.286,13.935 10.593 C 14.179 10.941,14.469 11.516,14.655 12.022 C 14.847 12.543,14.988 12.750,15.253 12.890 C 15.413 12.975,15.476 12.980,16.760 13.004 C 17.942 13.026,18.136 13.038,18.405 13.111 C 19.390 13.379,20.233 14.096,20.678 15.046 C 20.906 15.532,20.978 15.881,20.978 16.500 C 20.978 17.119,20.906 17.468,20.678 17.954 C 20.232 18.907,19.459 19.569,18.420 19.892 C 18.140 19.978,18.134 19.979,13.420 19.992 C 10.077 20.001,8.589 19.992,8.320 19.959 C 7.301 19.838,6.236 19.418,5.439 18.822 C 5.032 18.519,4.377 17.850,4.104 17.460 C 3.007 15.892,2.717 13.917,3.319 12.116 C 3.838 10.559,4.920 9.324,6.380 8.620 C 7.065 8.289,7.634 8.124,8.374 8.038 C 8.763 7.993,9.625 8.024,10.040 8.097 " stroke="none" fill-rule="evenodd" fill="#000000"></path></svg>