<svg  xmlns="http://www.w3.org/2000/svg" width="24" height="24" viewBox="0 0 24 24" fill="none" stroke="currentColor" stroke-width="2" stroke-linecap="round" stroke-linejoin="round"><path d="M6.174 5.039 C 5.797 5.119,5.380 5.437,5.191 5.789 C 5.135 5.894,4.175 8.175,3.058 10.859 C 1.670 14.192,1.021 15.797,1.009 15.924 C 0.956 16.477,1.438 17.000,2.000 17.000 C 2.241 17.000,2.521 16.881,2.697 16.704 C 2.837 16.563,2.933 16.365,3.384 15.280 L 3.908 14.020 6.500 14.020 L 9.092 14.020 9.616 15.280 C 10.067 16.365,10.163 16.563,10.303 16.704 C 10.479 16.881,10.759 17.000,11.000 17.000 C 11.562 17.000,12.044 16.477,11.991 15.924 C 11.979 15.797,11.330 14.192,9.942 10.859 C 8.825 8.175,7.865 5.894,7.809 5.789 C 7.676 5.541,7.372 5.259,7.108 5.138 C 6.870 5.030,6.436 4.984,6.174 5.039 M17.580 6.096 C 17.422 6.172,16.940 6.634,15.274 8.306 C 14.116 9.469,13.138 10.481,13.101 10.555 C 12.872 11.010,13.056 11.601,13.508 11.867 C 13.673 11.964,13.742 11.980,14.000 11.979 C 14.213 11.979,14.341 11.957,14.440 11.905 C 14.517 11.864,15.124 11.289,15.789 10.627 L 16.998 9.423 17.009 12.865 L 17.020 16.306 17.141 16.503 C 17.209 16.613,17.346 16.756,17.452 16.828 C 17.923 17.144,18.554 16.999,18.859 16.503 L 18.980 16.306 18.991 12.865 L 19.002 9.423 20.211 10.627 C 20.876 11.289,21.483 11.864,21.560 11.905 C 21.659 11.957,21.787 11.979,22.000 11.979 C 22.258 11.980,22.327 11.964,22.492 11.867 C 22.714 11.737,22.901 11.498,22.965 11.264 C 23.019 11.061,22.989 10.733,22.899 10.555 C 22.862 10.481,21.884 9.469,20.726 8.306 C 18.433 6.004,18.429 6.001,18.000 6.001 C 17.851 6.001,17.716 6.031,17.580 6.096 M7.385 9.929 C 7.837 11.013,8.217 11.922,8.228 11.950 C 8.244 11.990,7.883 12.000,6.500 12.000 C 5.117 12.000,4.756 11.990,4.772 11.950 C 4.783 11.922,5.165 11.009,5.620 9.920 C 6.075 8.831,6.457 7.916,6.470 7.886 C 6.502 7.807,6.475 7.748,7.385 9.929 " stroke="none" fill-rule="evenodd" fill="#000000"></path></svg>