<svg  xmlns="http://www.w3.org/2000/svg" width="24" height="24" viewBox="0 0 24 24" fill="none" stroke="currentColor" stroke-width="2" stroke-linecap="round" stroke-linejoin="round"><path d="M12.477 1.073 C 11.806 1.249,11.238 1.823,11.060 2.508 C 11.015 2.680,11.000 2.976,11.000 3.706 L 11.000 4.676 10.770 4.573 C 10.002 4.231,8.868 3.999,7.960 4.000 C 6.117 4.002,4.227 4.813,2.960 6.145 C 2.411 6.722,2.028 7.282,1.677 8.019 C 1.408 8.584,1.241 9.088,1.113 9.722 C 1.029 10.134,1.020 10.284,1.023 11.220 C 1.025 12.334,1.076 12.897,1.262 13.906 C 1.782 16.725,3.035 19.357,4.873 21.495 C 5.694 22.449,6.640 22.928,7.823 22.987 C 8.551 23.024,9.074 22.909,9.863 22.539 C 10.714 22.140,11.182 22.028,12.000 22.028 C 12.818 22.028,13.286 22.140,14.137 22.539 C 14.935 22.913,15.441 23.024,16.179 22.987 C 17.360 22.928,18.309 22.447,19.126 21.495 C 21.232 19.039,22.508 16.117,22.904 12.840 C 22.954 12.433,22.975 11.949,22.977 11.220 C 22.980 10.284,22.971 10.134,22.887 9.722 C 22.756 9.072,22.590 8.579,22.303 7.980 C 21.613 6.542,20.564 5.474,19.140 4.760 C 18.321 4.350,17.617 4.139,16.740 4.041 C 15.619 3.916,14.236 4.123,13.250 4.565 L 13.000 4.677 13.000 3.843 L 13.000 3.009 13.179 2.982 C 13.422 2.946,13.712 2.742,13.859 2.503 C 13.966 2.329,13.980 2.271,13.980 2.003 C 13.980 1.746,13.964 1.672,13.872 1.516 C 13.605 1.062,13.115 0.907,12.477 1.073 M9.125 6.136 C 9.831 6.298,10.508 6.620,11.060 7.058 C 11.624 7.505,11.614 7.500,12.000 7.500 C 12.386 7.500,12.376 7.505,12.940 7.058 C 13.496 6.618,14.211 6.281,14.940 6.116 C 15.269 6.042,15.458 6.026,16.000 6.027 C 16.921 6.028,17.395 6.137,18.220 6.539 C 19.945 7.377,21.000 9.117,21.000 11.119 C 20.999 13.421,20.347 15.879,19.189 17.940 C 18.680 18.846,17.770 20.088,17.317 20.495 C 16.845 20.919,16.122 21.101,15.530 20.943 C 15.415 20.913,15.109 20.788,14.850 20.667 C 14.022 20.278,13.427 20.115,12.530 20.033 C 11.385 19.927,10.285 20.134,9.150 20.667 C 8.604 20.923,8.349 20.999,8.032 21.000 C 7.448 21.001,6.990 20.802,6.554 20.356 C 5.849 19.637,4.889 18.197,4.370 17.080 C 3.518 15.246,3.097 13.515,3.015 11.500 C 2.960 10.167,3.220 9.159,3.868 8.192 C 4.517 7.223,5.574 6.481,6.762 6.161 C 7.453 5.975,8.381 5.965,9.125 6.136 " stroke="none" fill-rule="evenodd" fill="#000000"></path></svg>