<svg  xmlns="http://www.w3.org/2000/svg" width="24" height="24" viewBox="0 0 24 24" fill="none" stroke="currentColor" stroke-width="2" stroke-linecap="round" stroke-linejoin="round"><path d="M4.460 3.057 C 3.356 3.275,2.508 4.017,2.150 5.077 L 2.020 5.460 2.020 11.980 L 2.020 18.500 2.114 18.800 C 2.471 19.944,3.295 20.700,4.454 20.947 C 5.035 21.071,5.886 20.940,6.400 20.649 C 6.849 20.394,16.484 14.610,16.680 14.478 C 17.657 13.819,18.180 12.558,17.942 11.434 C 17.775 10.643,17.323 9.959,16.680 9.523 C 16.240 9.224,6.553 3.433,6.271 3.300 C 6.111 3.224,5.872 3.135,5.740 3.101 C 5.392 3.011,4.794 2.991,4.460 3.057 M20.695 3.057 C 20.466 3.129,20.256 3.299,20.128 3.516 L 20.020 3.700 20.020 12.003 L 20.020 20.306 20.141 20.503 C 20.543 21.156,21.457 21.156,21.859 20.503 L 21.980 20.306 21.980 12.003 L 21.980 3.700 21.872 3.516 C 21.628 3.101,21.150 2.915,20.695 3.057 M5.284 5.046 C 5.439 5.098,15.422 11.072,15.647 11.247 C 16.064 11.573,16.103 12.297,15.724 12.676 C 15.552 12.848,5.590 18.845,5.316 18.941 C 4.960 19.067,4.582 18.975,4.303 18.697 C 3.976 18.369,4.000 18.905,4.000 12.000 C 4.000 5.249,3.985 5.662,4.240 5.353 C 4.469 5.074,4.949 4.933,5.284 5.046 " stroke="none" fill-rule="evenodd" fill="#000000"></path></svg>