<svg  xmlns="http://www.w3.org/2000/svg" width="24" height="24" viewBox="0 0 24 24" fill="none" stroke="currentColor" stroke-width="2" stroke-linecap="round" stroke-linejoin="round"><path d="M4.499 2.043 C 3.380 2.232,2.461 3.048,2.114 4.160 L 2.020 4.460 2.020 12.000 L 2.020 19.540 2.114 19.840 C 2.422 20.827,3.173 21.578,4.160 21.886 L 4.460 21.980 12.000 21.980 L 19.540 21.980 19.840 21.886 C 20.827 21.578,21.578 20.827,21.886 19.840 L 21.980 19.540 21.980 12.000 L 21.980 4.460 21.886 4.160 C 21.581 3.182,20.832 2.428,19.861 2.121 L 19.540 2.020 12.120 2.014 C 8.039 2.011,4.609 2.024,4.499 2.043 M19.310 4.061 C 19.589 4.144,19.856 4.411,19.939 4.690 C 19.993 4.870,20.000 5.755,20.000 12.001 C 20.000 17.907,19.991 19.138,19.945 19.290 C 19.872 19.533,19.707 19.740,19.484 19.872 L 19.300 19.980 12.000 19.980 L 4.700 19.980 4.516 19.872 C 4.415 19.813,4.284 19.700,4.225 19.623 C 3.986 19.309,4.000 19.795,4.000 12.022 C 4.000 5.758,4.007 4.870,4.061 4.690 C 4.140 4.421,4.412 4.143,4.673 4.063 C 4.964 3.974,19.009 3.971,19.310 4.061 M11.695 6.057 C 11.466 6.129,11.256 6.299,11.128 6.516 L 11.020 6.700 11.020 9.003 L 11.020 11.306 11.141 11.503 C 11.209 11.613,11.346 11.756,11.452 11.828 C 11.923 12.144,12.554 11.999,12.859 11.503 L 12.980 11.306 12.980 9.003 L 12.980 6.700 12.872 6.516 C 12.628 6.101,12.150 5.915,11.695 6.057 M7.695 8.057 C 7.444 8.136,7.274 8.288,7.031 8.650 C 6.516 9.419,6.200 10.244,6.060 11.180 C 5.843 12.634,6.236 14.233,7.115 15.480 C 7.363 15.832,8.034 16.518,8.396 16.791 C 9.419 17.561,10.725 17.999,12.000 17.999 C 12.415 17.999,13.070 17.923,13.380 17.839 C 14.222 17.610,14.822 17.339,15.465 16.894 C 15.862 16.620,16.697 15.766,16.966 15.360 C 18.195 13.503,18.331 11.239,17.333 9.264 C 17.086 8.774,16.732 8.286,16.532 8.159 C 15.925 7.774,15.098 8.161,15.014 8.869 C 14.978 9.173,15.021 9.321,15.248 9.667 C 15.693 10.346,15.894 10.869,15.970 11.550 C 16.086 12.582,15.781 13.661,15.145 14.464 C 14.222 15.632,12.761 16.194,11.310 15.941 C 9.786 15.675,8.534 14.524,8.134 13.020 C 8.040 12.666,8.027 12.547,8.027 11.980 C 8.028 11.456,8.043 11.285,8.111 11.034 C 8.233 10.587,8.406 10.206,8.676 9.789 C 8.973 9.330,9.035 9.126,8.969 8.813 C 8.843 8.214,8.273 7.876,7.695 8.057 " stroke="none" fill-rule="evenodd" fill="#000000"></path></svg>