<svg  xmlns="http://www.w3.org/2000/svg" width="24" height="24" viewBox="0 0 24 24" fill="none" stroke="currentColor" stroke-width="2" stroke-linecap="round" stroke-linejoin="round"><path d="M4.499 2.043 C 3.383 2.230,2.461 3.048,2.114 4.160 L 2.020 4.460 2.020 12.000 L 2.020 19.540 2.114 19.840 C 2.418 20.816,3.149 21.554,4.140 21.886 L 4.420 21.980 12.320 21.991 C 17.725 21.998,20.284 21.988,20.423 21.959 C 20.938 21.853,21.538 21.398,21.771 20.937 C 21.990 20.506,22.000 20.397,22.000 18.494 L 22.001 16.740 22.142 16.644 C 22.347 16.504,22.669 16.139,22.779 15.922 C 22.979 15.528,23.000 15.342,22.999 14.014 C 22.999 12.683,22.974 12.463,22.782 12.085 C 22.666 11.855,22.331 11.478,22.138 11.359 L 22.000 11.273 21.999 9.527 C 21.999 7.631,21.985 7.485,21.775 7.069 C 21.625 6.774,21.198 6.362,20.880 6.207 C 20.728 6.132,20.492 6.060,20.310 6.031 L 20.000 5.982 19.999 4.881 C 19.999 3.691,19.970 3.455,19.781 3.083 C 19.646 2.816,19.297 2.449,19.017 2.281 C 18.526 1.985,19.045 2.004,11.480 2.007 C 7.751 2.008,4.609 2.025,4.499 2.043 M18.000 5.000 L 18.000 6.001 11.350 5.990 L 4.700 5.980 4.516 5.872 C 3.935 5.530,3.833 4.774,4.304 4.303 C 4.421 4.185,4.552 4.100,4.673 4.063 C 4.832 4.014,5.829 4.005,11.430 4.003 L 18.000 4.000 18.000 5.000 M4.220 7.910 C 4.407 7.975,4.929 7.981,12.210 7.991 L 20.000 8.001 20.000 9.497 L 20.000 10.993 18.730 11.009 C 17.518 11.025,17.445 11.030,17.139 11.124 C 16.176 11.420,15.419 12.181,15.114 13.160 C 14.979 13.594,14.979 14.406,15.114 14.840 C 15.418 15.816,16.158 16.563,17.140 16.884 C 17.403 16.969,17.498 16.976,18.710 16.991 L 20.000 17.007 20.000 18.504 L 20.000 20.001 12.350 19.990 L 4.700 19.980 4.516 19.872 C 4.415 19.813,4.284 19.700,4.225 19.623 C 3.987 19.311,4.000 19.657,4.000 13.495 C 4.000 10.385,4.005 7.840,4.010 7.840 C 4.016 7.841,4.110 7.872,4.220 7.910 M21.000 14.002 L 21.000 15.003 19.350 14.992 L 17.700 14.980 17.516 14.872 C 16.935 14.530,16.833 13.774,17.304 13.303 C 17.596 13.011,17.629 13.006,19.430 13.003 L 21.000 13.000 21.000 14.002 " stroke="none" fill-rule="evenodd" fill="#000000"></path></svg>