<svg  xmlns="http://www.w3.org/2000/svg" width="24" height="24" viewBox="0 0 24 24" fill="none" stroke="currentColor" stroke-width="2" stroke-linecap="round" stroke-linejoin="round"><path d="M18.695 1.057 C 18.466 1.129,18.256 1.299,18.128 1.516 L 18.020 1.700 18.008 2.850 L 17.995 4.000 16.944 4.000 C 15.797 4.000,15.643 4.022,15.382 4.221 C 15.302 4.282,15.187 4.415,15.128 4.516 C 15.037 4.672,15.020 4.746,15.020 5.000 C 15.020 5.256,15.036 5.328,15.131 5.489 C 15.192 5.592,15.304 5.725,15.381 5.783 C 15.642 5.983,15.738 5.996,16.908 5.998 L 17.995 6.000 18.008 7.153 L 18.020 8.307 18.141 8.503 C 18.543 9.156,19.457 9.156,19.859 8.503 L 19.980 8.307 19.992 7.153 L 20.005 6.000 21.092 5.998 C 22.262 5.996,22.358 5.983,22.619 5.783 C 22.696 5.725,22.808 5.592,22.869 5.489 C 22.964 5.328,22.980 5.256,22.980 5.000 C 22.980 4.746,22.963 4.672,22.872 4.516 C 22.813 4.415,22.698 4.282,22.618 4.221 C 22.357 4.022,22.203 4.000,21.056 4.000 L 20.005 4.000 19.992 2.850 L 19.980 1.700 19.872 1.516 C 19.628 1.101,19.150 0.915,18.695 1.057 M4.499 2.043 C 3.380 2.232,2.461 3.048,2.114 4.160 L 2.020 4.460 2.020 12.000 L 2.020 19.540 2.114 19.840 C 2.422 20.827,3.173 21.578,4.160 21.886 L 4.460 21.980 12.000 21.980 L 19.540 21.980 19.840 21.886 C 20.816 21.582,21.554 20.851,21.886 19.860 L 21.980 19.580 21.991 15.460 C 22.004 10.861,22.021 11.157,21.724 10.828 C 21.530 10.612,21.319 10.522,21.009 10.521 C 20.581 10.519,20.280 10.710,20.095 11.100 C 20.008 11.284,20.001 11.350,20.000 11.937 L 20.000 12.574 19.190 11.775 C 18.745 11.335,18.299 10.920,18.200 10.853 C 17.668 10.492,17.193 10.352,16.500 10.352 C 15.809 10.352,15.343 10.489,14.800 10.851 C 14.701 10.917,12.584 13.004,10.095 15.490 L 5.570 20.009 5.135 19.994 C 4.750 19.981,4.679 19.967,4.516 19.872 C 4.415 19.812,4.284 19.700,4.225 19.623 C 3.986 19.309,4.000 19.795,4.000 12.022 C 4.000 4.006,3.975 4.631,4.303 4.303 C 4.622 3.984,4.383 4.000,8.797 4.000 L 12.700 3.999 12.900 3.905 C 13.281 3.724,13.488 3.405,13.488 3.000 C 13.488 2.615,13.293 2.297,12.940 2.106 L 12.780 2.020 8.740 2.014 C 6.518 2.011,4.609 2.024,4.499 2.043 M8.499 6.040 C 7.363 6.246,6.460 7.049,6.114 8.160 C 5.979 8.594,5.979 9.406,6.114 9.840 C 6.421 10.826,7.174 11.579,8.160 11.886 C 8.594 12.021,9.406 12.021,9.840 11.886 C 10.826 11.579,11.579 10.826,11.886 9.840 C 12.021 9.406,12.021 8.594,11.886 8.160 C 11.581 7.179,10.810 6.407,9.861 6.129 C 9.500 6.023,8.832 5.980,8.499 6.040 M9.310 8.061 C 9.688 8.173,10.000 8.598,10.000 9.001 C 10.000 9.331,9.784 9.696,9.484 9.872 C 9.328 9.963,9.254 9.980,9.000 9.980 C 8.746 9.980,8.672 9.963,8.516 9.872 C 7.935 9.530,7.833 8.774,8.304 8.303 C 8.583 8.024,8.916 7.944,9.310 8.061 M16.920 12.425 C 17.010 12.462,17.587 13.009,18.530 13.951 L 20.000 15.420 20.000 17.263 C 20.000 19.265,19.993 19.337,19.779 19.618 C 19.718 19.698,19.585 19.813,19.484 19.872 L 19.300 19.980 13.860 19.990 L 8.420 20.001 12.160 16.258 C 14.217 14.199,15.949 12.489,16.009 12.457 C 16.274 12.316,16.625 12.304,16.920 12.425 " stroke="none" fill-rule="evenodd" fill="#000000"></path></svg>