<svg  xmlns="http://www.w3.org/2000/svg" width="24" height="24" viewBox="0 0 24 24" fill="none" stroke="currentColor" stroke-width="2" stroke-linecap="round" stroke-linejoin="round"><path d="M12.480 2.073 C 11.804 2.249,11.239 2.818,11.061 3.502 C 11.009 3.702,11.000 4.164,11.000 6.657 L 11.000 9.578 8.610 7.196 C 7.161 5.751,6.149 4.773,6.038 4.710 C 5.666 4.498,5.380 4.431,4.916 4.446 C 4.510 4.460,4.478 4.468,4.144 4.633 C 3.734 4.837,3.439 5.110,3.253 5.461 C 2.994 5.950,3.000 5.866,3.001 9.346 C 3.001 12.771,3.002 12.780,3.226 13.320 C 3.415 13.773,3.628 14.036,4.634 15.050 L 5.616 16.040 4.575 16.040 C 3.448 16.040,3.282 16.063,2.920 16.270 C 2.448 16.539,2.155 16.896,1.982 17.411 C 1.774 18.030,1.900 18.736,2.314 19.272 C 2.440 19.434,5.100 21.578,5.378 21.741 C 5.483 21.803,5.689 21.887,5.834 21.927 C 6.085 21.996,6.417 22.000,12.447 22.000 C 16.928 22.000,18.858 21.987,19.008 21.956 C 19.514 21.850,19.677 21.733,20.581 20.825 C 21.482 19.920,21.562 19.810,21.701 19.280 C 21.786 18.954,21.760 18.510,21.635 18.176 C 21.569 17.998,17.002 9.804,16.597 9.137 L 16.522 9.014 18.411 7.399 C 20.481 5.628,20.824 5.316,20.997 5.043 C 21.173 4.764,21.280 4.366,21.280 3.986 C 21.279 3.521,21.161 3.170,20.883 2.798 C 20.592 2.411,20.137 2.130,19.663 2.043 C 19.504 2.014,18.321 2.001,16.083 2.002 C 13.071 2.004,12.714 2.011,12.480 2.073 M19.239 4.054 C 18.957 4.317,15.559 7.200,15.534 7.199 C 15.506 7.197,14.707 5.796,13.888 4.312 L 13.715 4.000 16.506 4.000 C 18.863 4.000,19.288 4.008,19.239 4.054 M15.490 19.990 L 12.421 20.001 8.808 16.390 C 6.729 14.314,5.158 12.712,5.107 12.620 C 5.020 12.460,5.020 12.459,5.009 9.440 L 4.999 6.420 11.779 13.200 L 18.560 19.980 15.490 19.990 M16.010 12.180 C 17.592 14.996,18.933 17.381,18.988 17.480 C 19.058 17.604,18.149 16.721,16.045 14.620 L 13.000 11.580 13.002 9.200 C 13.003 6.984,13.008 6.828,13.068 6.940 C 13.104 7.006,14.427 9.364,16.010 12.180 M8.600 19.020 L 9.579 20.000 7.965 20.000 L 6.350 20.000 5.165 19.054 C 4.513 18.534,3.963 18.093,3.942 18.074 C 3.921 18.055,4.719 18.040,5.762 18.040 L 7.621 18.040 8.600 19.020 " stroke="none" fill-rule="evenodd" fill="#000000"></path></svg>