<svg  xmlns="http://www.w3.org/2000/svg" width="24" height="24" viewBox="0 0 24 24" fill="none" stroke="currentColor" stroke-width="2" stroke-linecap="round" stroke-linejoin="round"><path d="M5.695 2.057 C 5.466 2.129,5.256 2.299,5.128 2.516 C 5.037 2.672,5.020 2.746,5.020 3.000 C 5.020 3.256,5.036 3.328,5.131 3.489 C 5.256 3.702,5.449 3.864,5.670 3.943 C 5.791 3.986,6.516 3.997,9.410 3.998 L 13.000 4.000 13.000 5.030 L 13.000 6.060 12.507 6.148 C 9.485 6.688,7.203 8.970,7.014 11.641 L 6.988 12.000 4.996 12.000 L 3.005 12.000 2.992 10.850 L 2.980 9.700 2.871 9.514 C 2.479 8.848,1.521 8.848,1.129 9.514 L 1.020 9.700 1.020 12.503 L 1.020 15.306 1.141 15.503 C 1.543 16.156,2.457 16.156,2.859 15.503 C 2.979 15.308,2.980 15.300,2.993 14.653 L 3.007 14.000 4.999 14.000 L 6.991 14.000 7.010 14.790 C 7.026 15.464,7.042 15.621,7.118 15.860 C 7.493 17.032,8.520 17.877,9.698 17.984 L 10.000 18.011 10.000 19.006 L 10.000 20.000 8.446 20.000 C 6.758 20.000,6.658 20.011,6.382 20.221 C 6.302 20.282,6.187 20.415,6.128 20.516 C 6.037 20.672,6.020 20.746,6.020 21.000 C 6.020 21.256,6.036 21.328,6.131 21.489 C 6.256 21.702,6.449 21.864,6.670 21.943 C 6.893 22.022,21.107 22.022,21.330 21.943 C 21.551 21.864,21.744 21.702,21.869 21.489 C 21.964 21.328,21.980 21.256,21.980 21.000 C 21.980 20.746,21.963 20.672,21.872 20.516 C 21.813 20.415,21.698 20.282,21.618 20.221 C 21.342 20.011,21.242 20.000,19.554 20.000 L 18.000 20.000 18.000 19.006 L 18.000 18.012 18.330 17.988 C 19.787 17.885,21.161 17.128,22.034 15.948 C 22.427 15.416,22.756 14.667,22.907 13.960 C 23.007 13.493,23.007 12.440,22.906 11.960 C 22.672 10.842,22.126 9.796,21.311 8.905 C 20.317 7.819,18.680 6.864,17.052 6.419 C 16.544 6.280,15.799 6.134,15.440 6.101 C 14.950 6.057,15.000 6.181,15.000 5.017 L 15.000 4.000 18.590 3.998 C 21.484 3.997,22.209 3.986,22.330 3.943 C 22.551 3.864,22.744 3.702,22.869 3.489 C 22.964 3.328,22.980 3.256,22.980 3.000 C 22.980 2.746,22.963 2.672,22.872 2.516 C 22.740 2.293,22.533 2.128,22.290 2.055 C 22.027 1.976,5.947 1.978,5.695 2.057 M13.009 9.830 C 13.023 11.530,13.026 11.588,13.116 11.860 C 13.437 12.834,14.162 13.560,15.140 13.885 C 15.419 13.978,15.426 13.978,18.134 13.999 L 20.847 14.020 20.683 14.340 C 20.302 15.081,19.641 15.636,18.840 15.886 L 18.540 15.980 14.120 15.980 L 9.700 15.980 9.516 15.872 C 9.303 15.747,9.141 15.550,9.058 15.316 C 8.976 15.081,8.974 11.982,9.056 11.480 C 9.282 10.103,10.386 8.926,12.000 8.342 C 12.237 8.256,12.810 8.103,12.967 8.083 C 12.982 8.082,13.001 8.867,13.009 9.830 M15.699 8.160 C 16.873 8.376,17.857 8.765,18.780 9.379 C 19.718 10.003,20.422 10.837,20.757 11.720 C 20.802 11.841,20.840 11.954,20.840 11.971 C 20.840 11.988,19.683 11.997,18.270 11.991 L 15.700 11.980 15.516 11.872 C 15.415 11.813,15.284 11.700,15.225 11.623 C 15.006 11.336,15.000 11.280,15.000 9.615 L 15.000 8.080 15.132 8.080 C 15.205 8.080,15.460 8.116,15.699 8.160 M16.000 19.000 L 16.000 20.000 14.000 20.000 L 12.000 20.000 12.000 19.000 L 12.000 18.000 14.000 18.000 L 16.000 18.000 16.000 19.000 " stroke="none" fill-rule="evenodd" fill="#000000"></path></svg>