<svg  xmlns="http://www.w3.org/2000/svg" width="24" height="24" viewBox="0 0 24 24" fill="none" stroke="currentColor" stroke-width="2" stroke-linecap="round" stroke-linejoin="round"><path d="M4.499 2.043 C 3.380 2.232,2.461 3.048,2.114 4.160 L 2.020 4.460 2.020 12.000 L 2.020 19.540 2.114 19.840 C 2.422 20.827,3.173 21.578,4.160 21.886 L 4.460 21.980 12.000 21.980 L 19.540 21.980 19.840 21.886 C 20.827 21.578,21.578 20.827,21.886 19.840 L 21.980 19.540 21.980 12.000 L 21.980 4.460 21.886 4.160 C 21.581 3.182,20.832 2.428,19.861 2.121 L 19.540 2.020 12.120 2.014 C 8.039 2.011,4.609 2.024,4.499 2.043 M19.310 4.061 C 19.589 4.144,19.856 4.411,19.939 4.690 C 19.993 4.870,20.000 5.755,20.000 12.001 C 20.000 17.907,19.991 19.138,19.945 19.290 C 19.872 19.533,19.707 19.740,19.484 19.872 L 19.300 19.980 12.000 19.980 L 4.700 19.980 4.516 19.872 C 4.415 19.813,4.284 19.700,4.225 19.623 C 3.986 19.309,4.000 19.795,4.000 12.022 C 4.000 5.758,4.007 4.870,4.061 4.690 C 4.140 4.421,4.412 4.143,4.673 4.063 C 4.964 3.974,19.009 3.971,19.310 4.061 M8.695 8.057 C 8.466 8.129,8.256 8.299,8.128 8.516 L 8.020 8.700 8.009 11.940 C 7.999 14.874,8.004 15.196,8.064 15.354 C 8.155 15.595,8.343 15.796,8.580 15.906 L 8.780 15.999 11.980 15.998 C 14.549 15.997,15.210 15.986,15.330 15.943 C 15.551 15.864,15.744 15.702,15.869 15.489 C 15.964 15.328,15.980 15.256,15.980 15.000 C 15.980 14.746,15.963 14.672,15.872 14.516 C 15.813 14.415,15.698 14.282,15.618 14.221 C 15.337 14.007,15.265 14.000,13.264 14.000 L 11.421 14.000 13.626 11.790 C 14.839 10.575,15.865 9.517,15.905 9.440 C 15.957 9.341,15.979 9.212,15.979 9.000 C 15.980 8.745,15.964 8.672,15.872 8.516 C 15.618 8.084,15.138 7.906,14.657 8.065 C 14.479 8.124,14.245 8.346,12.231 10.353 L 10.003 12.575 9.991 10.637 L 9.980 8.700 9.872 8.516 C 9.628 8.101,9.150 7.915,8.695 8.057 " stroke="none" fill-rule="evenodd" fill="#000000"></path></svg>