<svg  xmlns="http://www.w3.org/2000/svg" width="24" height="24" viewBox="0 0 24 24" fill="none" stroke="currentColor" stroke-width="2" stroke-linecap="round" stroke-linejoin="round"><path d="M3.499 2.043 C 2.380 2.232,1.461 3.048,1.114 4.160 L 1.020 4.460 1.020 7.500 L 1.020 10.540 1.114 10.840 C 1.419 11.817,2.158 12.563,3.140 12.884 C 3.404 12.970,3.495 12.976,4.764 12.991 C 5.647 13.001,6.163 12.992,6.268 12.963 C 6.498 12.901,6.737 12.713,6.867 12.492 C 6.964 12.327,6.980 12.257,6.980 12.000 C 6.980 11.746,6.963 11.672,6.872 11.516 C 6.761 11.327,6.569 11.156,6.373 11.071 C 6.296 11.038,5.854 11.016,4.980 11.001 L 3.700 10.980 3.516 10.872 C 3.415 10.813,3.284 10.700,3.225 10.623 C 2.996 10.323,3.000 10.378,3.000 7.522 C 3.000 4.530,2.992 4.614,3.303 4.303 C 3.632 3.974,2.892 4.000,12.000 4.000 C 21.108 4.000,20.368 3.974,20.697 4.303 C 21.008 4.614,21.000 4.532,21.000 7.501 C 21.000 10.329,21.000 10.328,20.779 10.618 C 20.718 10.698,20.585 10.813,20.484 10.872 L 20.300 10.980 19.020 11.001 C 18.146 11.016,17.704 11.038,17.627 11.071 C 17.431 11.156,17.239 11.327,17.128 11.516 C 17.037 11.672,17.020 11.746,17.020 12.000 C 17.020 12.257,17.036 12.327,17.133 12.492 C 17.263 12.713,17.502 12.901,17.732 12.963 C 17.837 12.992,18.353 13.001,19.236 12.991 C 20.505 12.976,20.596 12.970,20.860 12.884 C 21.842 12.563,22.581 11.817,22.886 10.840 L 22.980 10.540 22.980 7.500 L 22.980 4.460 22.886 4.160 C 22.581 3.182,21.832 2.428,20.861 2.121 L 20.540 2.020 12.120 2.014 C 7.489 2.011,3.609 2.024,3.499 2.043 M5.695 7.057 C 5.466 7.129,5.256 7.299,5.128 7.516 C 5.037 7.672,5.020 7.746,5.020 8.000 C 5.020 8.256,5.036 8.328,5.131 8.489 C 5.256 8.702,5.449 8.864,5.670 8.943 C 5.892 9.022,18.108 9.022,18.330 8.943 C 18.551 8.864,18.744 8.702,18.869 8.489 C 18.964 8.328,18.980 8.256,18.980 8.000 C 18.980 7.746,18.963 7.672,18.872 7.516 C 18.740 7.293,18.533 7.128,18.290 7.055 C 18.028 6.976,5.947 6.978,5.695 7.057 M9.695 11.057 C 9.466 11.129,9.256 11.299,9.128 11.516 L 9.020 11.700 9.000 14.480 L 8.980 17.260 8.886 17.450 C 8.590 18.051,7.778 18.180,7.299 17.701 C 7.125 17.527,7.000 17.243,7.000 17.020 C 7.000 16.789,7.116 16.496,7.280 16.309 C 7.488 16.073,7.598 15.827,7.599 15.595 C 7.603 14.704,6.514 14.252,5.883 14.884 C 5.333 15.433,5.057 16.059,5.012 16.860 C 4.941 18.131,5.703 19.319,6.888 19.783 C 8.643 20.471,10.568 19.424,10.938 17.580 C 10.994 17.301,11.001 16.905,10.991 14.480 L 10.980 11.700 10.872 11.516 C 10.628 11.101,10.150 10.915,9.695 11.057 M13.695 11.057 C 13.466 11.129,13.256 11.299,13.128 11.516 L 13.020 11.700 13.008 15.720 C 12.995 19.958,12.999 20.066,13.178 20.593 C 13.653 21.990,14.872 22.914,16.340 22.988 C 17.035 23.023,17.683 22.860,18.320 22.491 C 18.659 22.294,19.294 21.659,19.491 21.320 C 20.208 20.084,20.158 18.657,19.358 17.477 C 19.167 17.195,18.652 16.712,18.427 16.603 C 18.204 16.495,17.806 16.492,17.578 16.595 C 17.363 16.693,17.103 16.995,17.040 17.221 C 16.978 17.443,17.008 17.742,17.115 17.947 C 17.158 18.031,17.315 18.217,17.463 18.360 C 17.847 18.731,17.977 19.017,17.979 19.500 C 17.980 19.822,17.967 19.887,17.856 20.120 C 17.698 20.449,17.452 20.696,17.120 20.855 C 16.888 20.966,16.821 20.980,16.500 20.980 C 16.188 20.980,16.107 20.965,15.891 20.865 C 15.586 20.724,15.279 20.412,15.128 20.090 L 15.020 19.860 15.000 15.780 L 14.980 11.700 14.872 11.516 C 14.628 11.101,14.150 10.915,13.695 11.057 " stroke="none" fill-rule="evenodd" fill="#000000"></path></svg>