<svg  xmlns="http://www.w3.org/2000/svg" width="24" height="24" viewBox="0 0 24 24" fill="none" stroke="currentColor" stroke-width="2" stroke-linecap="round" stroke-linejoin="round"><path d="M8.477 1.073 C 7.806 1.249,7.238 1.823,7.060 2.508 C 7.027 2.634,7.000 2.794,7.000 2.864 L 7.000 2.991 6.230 3.010 C 5.567 3.027,5.416 3.043,5.139 3.126 C 4.181 3.415,3.420 4.179,3.114 5.160 L 3.020 5.460 3.020 13.000 L 3.020 20.540 3.114 20.840 C 3.419 21.817,4.158 22.563,5.140 22.884 C 5.404 22.970,5.495 22.976,6.764 22.991 C 7.647 23.001,8.163 22.992,8.268 22.963 C 8.498 22.901,8.737 22.713,8.867 22.492 C 8.964 22.327,8.980 22.257,8.980 22.000 C 8.980 21.746,8.963 21.672,8.872 21.516 C 8.761 21.327,8.569 21.156,8.373 21.071 C 8.296 21.038,7.854 21.016,6.980 21.001 L 5.700 20.980 5.516 20.872 C 5.415 20.813,5.284 20.700,5.225 20.623 C 4.986 20.309,5.000 20.795,5.000 13.022 C 5.000 5.006,4.975 5.631,5.303 5.303 C 5.554 5.052,5.751 5.000,6.447 5.000 L 7.000 5.000 7.000 5.132 C 7.000 5.323,7.104 5.690,7.225 5.930 C 7.361 6.199,7.801 6.639,8.070 6.775 C 8.522 7.004,8.454 7.000,11.993 7.000 C 15.539 7.000,15.479 7.003,15.937 6.771 C 16.197 6.639,16.639 6.197,16.771 5.937 C 16.888 5.707,17.000 5.309,17.000 5.124 L 17.000 5.000 17.553 5.000 C 18.231 5.000,18.441 5.053,18.679 5.283 C 18.975 5.571,18.977 5.581,19.000 7.023 L 19.020 8.307 19.141 8.503 C 19.543 9.156,20.457 9.156,20.859 8.503 L 20.980 8.306 20.980 6.883 C 20.980 5.503,20.977 5.451,20.886 5.160 C 20.580 4.179,19.819 3.415,18.861 3.126 C 18.585 3.043,18.433 3.027,17.778 3.010 L 17.017 2.991 16.968 2.687 C 16.942 2.520,16.869 2.275,16.806 2.141 C 16.665 1.839,16.321 1.464,16.017 1.281 C 15.548 0.999,15.636 1.005,12.000 1.005 C 9.047 1.005,8.715 1.011,8.477 1.073 M15.000 4.000 L 15.000 5.000 12.000 5.000 L 9.000 5.000 9.000 4.000 L 9.000 3.000 12.000 3.000 L 15.000 3.000 15.000 4.000 M19.313 11.078 C 18.781 11.176,18.346 11.370,17.923 11.700 C 17.597 11.953,12.434 17.145,12.282 17.373 C 12.210 17.479,12.093 17.695,12.021 17.853 C 11.864 18.195,11.001 21.130,10.971 21.425 C 10.927 21.854,11.118 22.320,11.468 22.641 C 11.758 22.906,12.049 23.016,12.460 23.016 C 12.750 23.016,12.924 22.973,14.320 22.564 C 16.082 22.047,16.415 21.910,16.880 21.508 C 17.045 21.366,18.350 20.073,19.780 18.635 C 22.463 15.937,22.526 15.867,22.741 15.331 C 22.970 14.762,23.019 13.931,22.859 13.340 C 22.581 12.316,21.681 11.416,20.660 11.141 C 20.380 11.066,19.583 11.029,19.313 11.078 M20.334 13.161 C 20.556 13.272,20.722 13.440,20.847 13.680 C 20.969 13.915,20.977 14.379,20.863 14.620 C 20.766 14.827,15.609 20.010,15.384 20.126 C 15.247 20.198,13.236 20.809,13.213 20.786 C 13.190 20.763,13.799 18.760,13.871 18.620 C 13.922 18.522,14.987 17.430,16.607 15.813 C 19.060 13.366,19.275 13.162,19.460 13.103 C 19.728 13.019,20.099 13.044,20.334 13.161 " stroke="none" fill-rule="evenodd" fill="#000000"></path></svg>