<svg  xmlns="http://www.w3.org/2000/svg" width="24" height="24" viewBox="0 0 24 24" fill="none" stroke="currentColor" stroke-width="2" stroke-linecap="round" stroke-linejoin="round"><path d="M11.500 1.046 C 11.390 1.066,11.210 1.111,11.100 1.146 C 10.809 1.239,2.135 5.186,1.910 5.328 C 1.378 5.665,1.000 6.359,1.000 7.000 C 1.000 7.715,1.454 8.445,2.103 8.771 C 2.798 9.121,10.931 12.801,11.180 12.879 C 11.714 13.045,12.399 13.029,12.965 12.838 C 13.214 12.754,21.494 9.000,21.940 8.768 C 22.446 8.506,22.847 7.986,22.964 7.439 C 23.025 7.156,22.988 6.552,22.895 6.320 C 22.743 5.937,22.469 5.591,22.136 5.358 C 21.977 5.248,13.724 1.468,13.124 1.231 C 12.592 1.021,12.001 0.953,11.500 1.046 M16.343 4.879 C 18.585 5.900,20.554 6.795,20.718 6.870 L 21.016 7.005 16.838 8.906 C 14.540 9.952,12.543 10.853,12.400 10.908 C 11.949 11.081,12.018 11.104,9.317 9.874 C 7.988 9.268,6.032 8.378,4.971 7.896 C 3.910 7.414,3.042 7.011,3.041 7.000 C 3.040 6.984,11.560 3.099,11.760 3.024 C 11.793 3.012,11.920 3.007,12.043 3.013 C 12.241 3.023,12.725 3.233,16.343 4.879 M1.670 11.061 C 1.305 11.195,1.051 11.517,1.012 11.897 C 0.946 12.536,1.336 13.306,1.910 13.673 C 2.178 13.844,10.840 17.773,11.180 17.878 C 11.766 18.058,12.506 18.023,13.101 17.786 C 13.370 17.679,21.697 13.894,21.967 13.756 C 22.242 13.616,22.664 13.167,22.796 12.873 C 23.096 12.208,23.060 11.652,22.694 11.296 C 22.416 11.027,22.079 10.944,21.710 11.055 C 21.351 11.163,21.106 11.433,21.020 11.816 L 20.974 12.020 16.777 13.930 C 14.469 14.980,12.481 15.877,12.360 15.923 C 11.941 16.083,12.150 16.164,7.379 13.996 L 3.025 12.017 2.980 11.815 C 2.955 11.704,2.895 11.549,2.847 11.471 C 2.613 11.093,2.084 10.909,1.670 11.061 M1.695 16.057 C 1.323 16.174,1.052 16.506,1.012 16.897 C 0.946 17.536,1.336 18.306,1.910 18.673 C 2.178 18.844,10.840 22.773,11.180 22.878 C 11.766 23.058,12.506 23.023,13.101 22.786 C 13.370 22.679,21.697 18.894,21.967 18.756 C 22.242 18.616,22.664 18.167,22.796 17.873 C 23.096 17.208,23.060 16.652,22.694 16.296 C 22.416 16.027,22.079 15.944,21.710 16.055 C 21.351 16.163,21.106 16.433,21.020 16.816 L 20.974 17.020 16.777 18.930 C 14.469 19.980,12.481 20.877,12.360 20.923 C 11.941 21.083,12.150 21.164,7.379 18.996 L 3.025 17.017 2.980 16.815 C 2.894 16.433,2.649 16.163,2.290 16.055 C 2.068 15.988,1.913 15.989,1.695 16.057 " stroke="none" fill-rule="evenodd" fill="#000000"></path></svg>