<svg  xmlns="http://www.w3.org/2000/svg" width="24" height="24" viewBox="0 0 24 24" fill="none" stroke="currentColor" stroke-width="2" stroke-linecap="round" stroke-linejoin="round"><path d="M4.499 2.043 C 3.380 2.232,2.461 3.048,2.114 4.160 L 2.020 4.460 2.020 12.000 L 2.020 19.540 2.114 19.840 C 2.418 20.816,3.150 21.555,4.140 21.886 L 4.420 21.979 7.770 21.991 C 9.990 21.999,11.172 21.989,11.274 21.962 C 11.498 21.901,11.739 21.711,11.867 21.492 C 11.964 21.327,11.980 21.257,11.980 21.000 C 11.980 20.746,11.963 20.672,11.872 20.516 C 11.813 20.415,11.698 20.282,11.618 20.221 C 11.347 20.015,11.225 20.000,9.764 20.000 L 8.421 20.000 10.126 18.290 C 11.064 17.350,11.865 16.517,11.905 16.440 C 11.957 16.341,11.979 16.212,11.979 16.000 C 11.980 15.745,11.964 15.672,11.872 15.516 C 11.618 15.084,11.138 14.906,10.657 15.065 C 10.479 15.124,10.230 15.360,8.014 17.570 L 5.569 20.009 5.134 19.994 C 4.750 19.981,4.679 19.967,4.516 19.872 C 4.415 19.812,4.284 19.700,4.225 19.623 C 3.986 19.309,4.000 19.795,4.000 12.022 C 4.000 4.006,3.975 4.631,4.303 4.303 C 4.631 3.976,4.009 4.000,12.000 4.000 C 19.938 4.000,19.365 3.979,19.679 4.283 C 20.002 4.597,19.978 4.275,20.000 8.600 C 20.020 12.460,20.020 12.460,20.106 12.620 C 20.494 13.338,21.506 13.338,21.894 12.620 L 21.980 12.460 21.980 8.460 L 21.980 4.460 21.886 4.160 C 21.581 3.182,20.832 2.428,19.861 2.121 L 19.540 2.020 12.120 2.014 C 8.039 2.011,4.609 2.024,4.499 2.043 M8.499 6.040 C 7.363 6.246,6.460 7.049,6.114 8.160 C 5.979 8.594,5.979 9.406,6.114 9.840 C 6.421 10.826,7.174 11.579,8.160 11.886 C 8.594 12.021,9.406 12.021,9.840 11.886 C 10.826 11.579,11.579 10.826,11.886 9.840 C 12.021 9.406,12.021 8.594,11.886 8.160 C 11.581 7.179,10.810 6.407,9.861 6.129 C 9.500 6.023,8.832 5.980,8.499 6.040 M9.310 8.061 C 9.688 8.173,10.000 8.598,10.000 9.001 C 10.000 9.331,9.784 9.696,9.484 9.872 C 9.328 9.963,9.254 9.980,9.000 9.980 C 8.746 9.980,8.672 9.963,8.516 9.872 C 7.935 9.530,7.833 8.774,8.304 8.303 C 8.583 8.024,8.916 7.944,9.310 8.061 M15.536 13.058 C 14.970 13.218,14.446 13.627,14.228 14.080 C 13.996 14.563,14.000 14.492,14.000 18.000 C 14.000 21.508,13.996 21.437,14.228 21.920 C 14.366 22.206,14.794 22.634,15.080 22.772 C 15.593 23.019,16.153 23.060,16.650 22.885 C 16.948 22.781,22.123 19.675,22.353 19.463 C 23.181 18.701,23.213 17.414,22.424 16.618 C 22.215 16.406,21.819 16.155,19.640 14.852 C 16.641 13.059,16.869 13.191,16.620 13.105 C 16.343 13.009,15.793 12.985,15.536 13.058 M20.960 18.004 C 20.960 18.017,19.884 18.673,18.570 19.461 C 17.256 20.249,16.140 20.920,16.090 20.951 L 16.000 21.009 16.000 18.007 L 16.000 15.004 18.480 16.492 C 19.844 17.310,20.960 17.991,20.960 18.004 " stroke="none" fill-rule="evenodd" fill="#000000"></path></svg>