<svg  xmlns="http://www.w3.org/2000/svg" width="24" height="24" viewBox="0 0 24 24" fill="none" stroke="currentColor" stroke-width="2" stroke-linecap="round" stroke-linejoin="round"><path d="M5.499 1.043 C 4.389 1.232,3.488 2.024,3.114 3.140 L 3.020 3.420 3.009 7.075 C 2.996 11.174,2.983 10.973,3.283 11.273 C 3.510 11.500,3.692 11.578,4.000 11.578 C 4.308 11.578,4.490 11.500,4.716 11.274 C 5.012 10.978,5.000 11.152,5.000 7.320 C 5.000 3.438,4.986 3.620,5.303 3.303 C 5.621 2.986,5.423 3.000,9.447 3.000 L 13.000 3.000 13.000 5.132 C 13.000 7.443,13.004 7.494,13.225 7.930 C 13.361 8.199,13.801 8.639,14.070 8.775 C 14.506 8.996,14.557 9.000,16.868 9.000 L 19.000 9.000 19.000 14.554 C 19.000 19.144,18.990 20.139,18.945 20.290 C 18.872 20.533,18.707 20.740,18.484 20.872 L 18.300 20.980 15.920 21.000 C 13.571 21.020,13.538 21.021,13.377 21.107 C 12.758 21.439,12.635 22.250,13.134 22.711 C 13.465 23.016,13.359 23.006,16.121 22.991 C 18.572 22.978,18.581 22.978,18.860 22.885 C 19.848 22.557,20.581 21.816,20.886 20.840 L 20.980 20.540 20.980 13.980 L 20.980 7.420 20.868 7.060 C 20.728 6.613,20.498 6.179,20.219 5.840 C 19.855 5.397,16.159 1.747,15.910 1.585 C 15.591 1.378,15.236 1.218,14.860 1.111 L 14.540 1.021 10.120 1.015 C 7.689 1.011,5.609 1.024,5.499 1.043 M16.800 5.220 L 18.580 7.000 16.790 7.000 L 15.000 7.000 15.000 5.220 C 15.000 4.241,15.005 3.440,15.010 3.440 C 15.016 3.440,15.821 4.241,16.800 5.220 M5.048 13.405 C 4.847 13.505,4.664 13.677,4.573 13.854 C 4.482 14.030,4.457 14.465,4.528 14.639 L 4.585 14.778 4.182 15.182 L 3.780 15.586 3.640 15.528 C 3.545 15.489,3.414 15.477,3.232 15.490 C 2.529 15.540,2.121 16.222,2.402 16.876 C 2.495 17.091,2.694 17.296,2.892 17.379 L 3.010 17.429 3.010 18.001 L 3.010 18.573 2.855 18.651 C 2.513 18.823,2.314 19.151,2.314 19.542 C 2.314 20.213,2.996 20.689,3.640 20.467 L 3.780 20.419 4.183 20.820 L 4.586 21.220 4.528 21.360 C 4.456 21.534,4.481 21.968,4.573 22.146 C 4.668 22.330,4.875 22.522,5.072 22.609 C 5.546 22.819,6.183 22.575,6.379 22.108 L 6.429 21.990 7.000 21.990 L 7.571 21.990 7.621 22.108 C 7.817 22.576,8.454 22.819,8.931 22.608 C 9.394 22.403,9.634 21.845,9.467 21.360 L 9.419 21.220 9.820 20.817 L 10.220 20.414 10.360 20.472 C 10.534 20.544,10.968 20.519,11.146 20.427 C 11.610 20.187,11.810 19.617,11.600 19.129 C 11.503 18.903,11.371 18.765,11.145 18.651 L 10.990 18.573 10.990 18.001 L 10.990 17.429 11.108 17.379 C 11.306 17.296,11.505 17.091,11.598 16.876 C 11.878 16.224,11.465 15.539,10.761 15.490 C 10.588 15.477,10.453 15.490,10.361 15.528 L 10.222 15.585 9.818 15.182 L 9.414 14.780 9.472 14.640 C 9.543 14.467,9.519 14.032,9.429 13.857 C 9.262 13.535,8.905 13.320,8.537 13.321 C 8.148 13.322,7.800 13.529,7.644 13.851 L 7.563 14.020 7.000 14.018 L 6.438 14.016 6.355 13.848 C 6.131 13.395,5.500 13.181,5.048 13.405 M7.408 16.044 C 7.979 16.163,8.546 16.606,8.793 17.125 C 9.054 17.672,9.054 18.326,8.794 18.875 C 8.606 19.270,8.193 19.664,7.778 19.842 C 7.478 19.971,7.434 19.978,7.000 19.978 C 6.566 19.978,6.522 19.971,6.222 19.842 C 5.642 19.593,5.172 19.022,5.044 18.408 C 4.905 17.743,5.105 17.087,5.596 16.597 C 6.090 16.105,6.743 15.906,7.408 16.044 " stroke="none" fill-rule="evenodd" fill="#000000"></path></svg>