<svg  xmlns="http://www.w3.org/2000/svg" width="24" height="24" viewBox="0 0 24 24" fill="none" stroke="currentColor" stroke-width="2" stroke-linecap="round" stroke-linejoin="round"><path d="M9.400 2.044 C 7.761 2.229,6.261 3.290,5.526 4.785 C 5.158 5.533,5.020 6.136,5.020 7.000 C 5.020 7.670,5.078 8.044,5.268 8.600 C 5.846 10.291,7.253 11.525,9.040 11.907 C 9.511 12.008,10.489 12.008,10.960 11.907 C 12.488 11.580,13.748 10.630,14.433 9.288 C 14.838 8.494,14.980 7.899,14.980 7.000 C 14.980 6.101,14.838 5.506,14.433 4.713 C 13.794 3.461,12.604 2.510,11.240 2.162 C 10.669 2.016,10.019 1.974,9.400 2.044 M10.861 4.129 C 11.804 4.405,12.584 5.183,12.875 6.139 C 12.958 6.412,12.973 6.542,12.973 7.000 C 12.973 7.458,12.958 7.588,12.875 7.861 C 12.582 8.822,11.819 9.581,10.840 9.886 C 10.406 10.021,9.594 10.021,9.160 9.886 C 8.181 9.581,7.418 8.822,7.125 7.861 C 7.042 7.588,7.027 7.458,7.027 7.000 C 7.027 6.542,7.042 6.412,7.125 6.139 C 7.456 5.054,8.371 4.245,9.499 4.040 C 9.832 3.980,10.500 4.023,10.861 4.129 M19.695 10.057 C 19.466 10.129,19.256 10.299,19.128 10.516 L 19.020 10.700 19.000 13.426 L 18.980 16.153 18.660 16.317 C 17.919 16.698,17.363 17.360,17.114 18.160 C 16.979 18.594,16.979 19.406,17.114 19.840 C 17.421 20.826,18.174 21.579,19.160 21.886 C 19.594 22.021,20.406 22.021,20.840 21.886 C 21.826 21.579,22.579 20.826,22.886 19.840 C 23.021 19.406,23.021 18.594,22.886 18.160 C 22.635 17.355,22.078 16.693,21.330 16.313 L 21.000 16.145 21.000 15.073 L 21.000 14.000 21.590 13.998 C 21.977 13.997,22.232 13.978,22.330 13.943 C 22.551 13.864,22.744 13.702,22.869 13.489 C 22.964 13.328,22.980 13.256,22.980 13.000 C 22.980 12.746,22.963 12.672,22.872 12.516 C 22.634 12.111,22.352 12.000,21.557 12.000 L 21.007 12.000 20.993 11.350 C 20.981 10.728,20.975 10.692,20.872 10.516 C 20.628 10.101,20.150 9.915,19.695 10.057 M6.400 14.044 C 4.761 14.229,3.261 15.290,2.526 16.785 C 2.333 17.177,2.187 17.599,2.093 18.040 C 2.030 18.334,2.020 18.579,2.020 19.843 L 2.020 21.306 2.141 21.503 C 2.543 22.156,3.457 22.156,3.859 21.503 L 3.980 21.307 4.003 19.883 C 4.025 18.522,4.031 18.446,4.124 18.139 C 4.420 17.173,5.215 16.388,6.178 16.112 L 6.500 16.020 9.980 16.020 C 13.929 16.020,13.628 15.997,14.408 16.364 C 14.874 16.584,15.052 16.614,15.366 16.525 C 15.716 16.425,16.014 16.079,16.064 15.713 C 16.100 15.455,15.992 15.116,15.811 14.915 C 15.708 14.801,15.522 14.684,15.182 14.518 C 14.663 14.263,14.149 14.109,13.601 14.042 C 13.192 13.991,6.847 13.994,6.400 14.044 M20.310 18.061 C 20.688 18.173,21.000 18.598,21.000 19.001 C 21.000 19.331,20.784 19.696,20.484 19.872 C 20.328 19.963,20.254 19.980,20.000 19.980 C 19.746 19.980,19.672 19.963,19.516 19.872 C 18.935 19.530,18.833 18.774,19.304 18.303 C 19.583 18.024,19.916 17.944,20.310 18.061 " stroke="none" fill-rule="evenodd" fill="#000000"></path></svg>