<svg  xmlns="http://www.w3.org/2000/svg" width="24" height="24" viewBox="0 0 24 24" fill="none" stroke="currentColor" stroke-width="2" stroke-linecap="round" stroke-linejoin="round"><path d="M2.695 4.057 C 2.466 4.129,2.256 4.299,2.128 4.516 C 2.037 4.672,2.020 4.746,2.020 5.000 C 2.020 5.256,2.036 5.328,2.131 5.489 C 2.256 5.702,2.449 5.864,2.670 5.943 C 2.893 6.022,16.107 6.022,16.330 5.943 C 16.551 5.864,16.744 5.702,16.869 5.489 C 16.964 5.328,16.980 5.256,16.980 5.000 C 16.980 4.746,16.963 4.672,16.872 4.516 C 16.740 4.293,16.533 4.128,16.290 4.055 C 16.028 3.976,2.947 3.978,2.695 4.057 M2.695 11.057 C 2.466 11.129,2.256 11.299,2.128 11.516 C 2.037 11.672,2.020 11.746,2.020 12.000 C 2.020 12.256,2.036 12.328,2.131 12.489 C 2.256 12.702,2.449 12.864,2.670 12.943 C 2.892 13.022,11.108 13.022,11.330 12.943 C 11.551 12.864,11.744 12.702,11.869 12.489 C 11.964 12.328,11.980 12.256,11.980 12.000 C 11.980 11.746,11.963 11.672,11.872 11.516 C 11.740 11.293,11.533 11.128,11.290 11.055 C 11.029 10.976,2.946 10.979,2.695 11.057 M14.695 11.057 C 14.466 11.129,14.256 11.299,14.128 11.516 C 14.037 11.672,14.020 11.746,14.020 12.000 C 14.020 12.256,14.036 12.328,14.131 12.489 C 14.256 12.702,14.449 12.864,14.670 12.943 C 14.891 13.022,21.109 13.022,21.330 12.943 C 21.551 12.864,21.744 12.702,21.869 12.489 C 21.964 12.328,21.980 12.256,21.980 12.000 C 21.980 11.746,21.963 11.672,21.872 11.516 C 21.740 11.293,21.533 11.128,21.290 11.055 C 21.030 10.977,14.945 10.979,14.695 11.057 M2.695 18.057 C 2.466 18.129,2.256 18.299,2.128 18.516 C 2.037 18.672,2.020 18.746,2.020 19.000 C 2.020 19.256,2.036 19.328,2.131 19.489 C 2.256 19.702,2.449 19.864,2.670 19.943 C 2.793 19.987,4.021 19.996,9.500 19.996 C 14.979 19.996,16.207 19.987,16.330 19.943 C 16.551 19.864,16.744 19.702,16.869 19.489 C 16.964 19.328,16.980 19.256,16.980 19.000 C 16.980 18.746,16.963 18.672,16.872 18.516 C 16.740 18.293,16.533 18.128,16.290 18.055 C 16.028 17.976,2.947 17.978,2.695 18.057 " stroke="none" fill-rule="evenodd" fill="#000000"></path></svg>