<svg  xmlns="http://www.w3.org/2000/svg" width="24" height="24" viewBox="0 0 24 24" fill="none" stroke="currentColor" stroke-width="2" stroke-linecap="round" stroke-linejoin="round"><path d="M10.499 1.040 C 9.764 1.174,9.178 1.519,8.670 2.120 C 8.559 2.252,8.461 2.360,8.452 2.360 C 8.444 2.360,8.367 2.324,8.281 2.281 C 8.196 2.237,7.985 2.161,7.813 2.112 C 7.358 1.981,6.593 1.988,6.139 2.125 C 5.190 2.414,4.441 3.159,4.115 4.140 C 4.022 4.420,4.022 4.422,4.009 6.995 L 3.996 9.570 3.650 9.945 C 2.330 11.375,1.823 12.989,2.059 15.008 C 2.373 17.691,3.817 20.034,6.080 21.531 C 6.918 22.086,8.103 22.584,9.092 22.797 C 9.856 22.961,10.410 23.000,12.000 23.000 C 14.027 23.000,14.655 22.924,15.840 22.535 C 19.194 21.434,21.613 18.393,21.960 14.840 C 21.991 14.524,22.001 13.133,21.992 10.400 L 21.980 6.420 21.886 6.140 C 21.556 5.156,20.810 4.413,19.861 4.125 C 19.327 3.963,18.451 3.989,17.948 4.182 C 17.911 4.197,17.877 4.148,17.843 4.032 C 17.661 3.417,17.080 2.728,16.441 2.368 C 15.997 2.119,15.622 2.028,15.020 2.025 C 14.470 2.022,14.073 2.100,13.719 2.281 C 13.633 2.324,13.556 2.360,13.548 2.360 C 13.539 2.360,13.441 2.252,13.330 2.120 C 12.723 1.403,12.020 1.053,11.120 1.019 C 10.889 1.011,10.609 1.020,10.499 1.040 M11.310 3.061 C 11.452 3.103,11.571 3.178,11.697 3.303 C 11.978 3.584,12.000 3.703,12.000 4.947 L 12.000 6.000 11.000 6.000 L 10.000 6.000 10.000 4.947 C 10.000 3.702,10.022 3.585,10.304 3.303 C 10.583 3.024,10.916 2.944,11.310 3.061 M7.310 4.061 C 7.452 4.103,7.571 4.178,7.697 4.303 C 7.957 4.563,8.000 4.742,8.000 5.551 C 8.000 6.188,7.997 6.208,7.915 6.230 C 7.731 6.278,7.127 6.599,6.888 6.776 C 6.750 6.878,6.494 7.099,6.318 7.266 L 6.000 7.571 6.000 6.233 C 6.000 4.673,6.012 4.594,6.304 4.303 C 6.583 4.024,6.916 3.944,7.310 4.061 M15.310 4.061 C 15.589 4.144,15.856 4.411,15.939 4.690 C 16.030 4.996,16.029 8.009,15.937 8.316 C 15.857 8.586,15.610 8.842,15.340 8.934 C 15.019 9.043,15.015 9.040,14.984 8.698 C 14.922 8.018,14.624 7.390,14.127 6.893 L 14.000 6.766 14.000 5.830 C 14.000 4.714,14.027 4.580,14.304 4.303 C 14.583 4.024,14.916 3.944,15.310 4.061 M19.310 6.061 C 19.589 6.144,19.856 6.411,19.939 6.690 C 20.023 6.972,20.028 9.015,19.945 9.290 C 19.872 9.533,19.707 9.740,19.484 9.872 C 19.328 9.963,19.254 9.980,19.000 9.980 C 18.746 9.980,18.672 9.963,18.516 9.872 C 18.415 9.813,18.284 9.700,18.225 9.623 C 18.014 9.347,18.000 9.245,18.000 8.022 C 18.000 6.695,18.019 6.587,18.304 6.303 C 18.583 6.024,18.916 5.944,19.310 6.061 M12.256 8.044 C 13.108 8.280,13.252 9.420,12.486 9.871 C 12.300 9.980,12.299 9.980,11.280 10.004 C 10.372 10.026,10.229 10.039,9.980 10.119 C 9.311 10.335,9.022 10.546,8.038 11.546 C 7.222 12.375,7.120 12.528,7.032 13.039 C 6.907 13.767,7.319 14.518,8.024 14.848 C 8.262 14.959,8.346 14.975,8.851 15.006 C 9.497 15.046,9.648 15.079,9.979 15.254 C 10.602 15.582,11.035 16.312,11.040 17.040 C 11.042 17.412,11.376 17.865,11.717 17.960 C 12.269 18.113,12.809 17.834,12.985 17.304 C 13.162 16.772,12.863 15.553,12.374 14.812 C 12.140 14.458,11.620 13.938,11.259 13.698 C 10.775 13.376,10.129 13.126,9.605 13.059 L 9.390 13.031 9.805 12.613 C 10.410 12.002,10.339 12.027,11.560 11.997 C 12.466 11.974,12.611 11.961,12.860 11.881 C 13.380 11.714,13.781 11.465,14.149 11.082 L 14.303 10.921 14.542 10.960 C 15.080 11.049,15.582 10.986,16.146 10.760 L 16.459 10.635 16.554 10.747 C 17.085 11.382,17.508 11.681,18.161 11.886 C 18.630 12.033,19.521 12.015,19.947 11.852 C 20.003 11.830,20.007 11.977,19.989 13.284 C 19.974 14.301,19.950 14.849,19.908 15.100 C 19.402 18.143,17.061 20.452,14.000 20.927 C 13.524 21.001,10.476 21.001,10.000 20.927 C 6.897 20.446,4.509 18.048,4.077 14.980 C 3.992 14.377,4.008 13.523,4.113 13.100 C 4.222 12.661,4.524 12.030,4.792 11.680 C 4.902 11.537,5.691 10.726,6.546 9.878 C 8.203 8.234,8.286 8.166,8.770 8.061 C 9.090 7.991,12.015 7.977,12.256 8.044 " stroke="none" fill-rule="evenodd" fill="#000000"></path></svg>