<svg  xmlns="http://www.w3.org/2000/svg" width="24" height="24" viewBox="0 0 24 24" fill="none" stroke="currentColor" stroke-width="2" stroke-linecap="round" stroke-linejoin="round"><path d="M5.499 1.043 C 4.379 1.234,3.461 2.048,3.114 3.160 L 3.020 3.460 3.020 12.000 L 3.020 20.540 3.114 20.840 C 3.422 21.827,4.173 22.578,5.160 22.886 L 5.460 22.980 12.000 22.980 L 18.540 22.980 18.840 22.886 C 19.827 22.578,20.578 21.827,20.886 20.840 L 20.980 20.540 20.980 13.980 L 20.980 7.420 20.868 7.060 C 20.728 6.613,20.498 6.179,20.219 5.840 C 19.855 5.397,16.159 1.747,15.910 1.585 C 15.591 1.378,15.236 1.218,14.860 1.111 L 14.540 1.021 10.120 1.015 C 7.689 1.011,5.609 1.024,5.499 1.043 M13.000 5.132 C 13.000 7.443,13.004 7.494,13.225 7.930 C 13.361 8.199,13.801 8.639,14.070 8.775 C 14.506 8.996,14.557 9.000,16.868 9.000 L 19.000 9.000 19.000 14.554 C 19.000 19.144,18.990 20.139,18.945 20.290 C 18.872 20.533,18.707 20.740,18.484 20.872 L 18.300 20.980 12.000 20.980 L 5.700 20.980 5.516 20.872 C 5.415 20.813,5.284 20.700,5.225 20.623 C 4.985 20.308,5.000 20.888,5.000 12.022 C 5.000 2.888,4.974 3.632,5.304 3.303 C 5.615 2.991,5.409 3.006,9.430 3.003 L 13.000 3.000 13.000 5.132 M16.800 5.220 L 18.580 7.000 16.790 7.000 L 15.000 7.000 15.000 5.220 C 15.000 4.241,15.005 3.440,15.010 3.440 C 15.016 3.440,15.821 4.241,16.800 5.220 M9.477 11.073 C 9.130 11.164,8.802 11.366,8.535 11.653 C 8.109 12.112,8.000 12.460,8.000 13.362 L 8.000 13.987 7.786 14.035 C 7.515 14.096,7.270 14.275,7.129 14.514 C 7.036 14.672,7.020 14.745,7.020 15.003 C 7.020 15.271,7.034 15.329,7.141 15.503 C 7.288 15.742,7.578 15.946,7.821 15.982 L 8.000 16.009 8.000 16.636 C 8.000 17.320,8.044 17.572,8.225 17.930 C 8.362 18.200,8.801 18.639,9.071 18.775 C 9.577 19.032,10.150 19.067,10.499 18.863 C 11.277 18.407,11.097 17.233,10.218 17.036 L 10.008 16.989 9.992 16.284 C 9.978 15.668,9.964 15.550,9.883 15.340 C 9.768 15.040,9.768 14.959,9.884 14.660 C 9.966 14.448,9.979 14.337,9.992 13.714 L 10.006 13.008 10.182 12.982 C 10.423 12.946,10.713 12.741,10.859 12.503 C 10.966 12.329,10.980 12.271,10.980 12.003 C 10.980 11.746,10.964 11.672,10.872 11.516 C 10.605 11.062,10.115 10.907,9.477 11.073 M13.695 11.057 C 13.466 11.129,13.256 11.299,13.128 11.516 C 13.036 11.672,13.020 11.746,13.020 12.003 C 13.020 12.271,13.034 12.329,13.141 12.503 C 13.287 12.740,13.577 12.946,13.817 12.982 L 13.993 13.008 14.008 13.734 C 14.022 14.419,14.029 14.475,14.134 14.730 L 14.245 15.000 14.134 15.270 C 14.029 15.525,14.022 15.581,14.008 16.264 L 13.993 16.989 13.782 17.036 C 12.903 17.233,12.723 18.407,13.501 18.863 C 13.850 19.067,14.423 19.032,14.929 18.775 C 15.196 18.640,15.638 18.200,15.771 17.937 C 15.952 17.581,16.000 17.304,16.000 16.629 L 16.000 16.009 16.179 15.982 C 16.422 15.946,16.712 15.742,16.859 15.503 C 16.966 15.329,16.980 15.271,16.980 15.003 C 16.980 14.745,16.964 14.672,16.871 14.514 C 16.730 14.275,16.485 14.096,16.214 14.035 L 16.000 13.987 15.999 13.384 C 15.999 12.471,15.886 12.106,15.465 11.653 C 14.985 11.137,14.241 10.886,13.695 11.057 " stroke="none" fill-rule="evenodd" fill="#000000"></path></svg>