<svg  xmlns="http://www.w3.org/2000/svg" width="24" height="24" viewBox="0 0 24 24" fill="none" stroke="currentColor" stroke-width="2" stroke-linecap="round" stroke-linejoin="round"><path d="M5.499 1.042 C 4.388 1.232,3.488 2.024,3.114 3.140 L 3.020 3.420 3.009 7.710 L 2.998 12.000 2.445 12.000 C 1.648 12.000,1.367 12.110,1.128 12.516 C 1.037 12.672,1.020 12.746,1.020 13.000 C 1.020 13.256,1.036 13.328,1.131 13.489 C 1.256 13.702,1.449 13.864,1.670 13.943 C 1.893 14.023,22.107 14.023,22.330 13.943 C 22.551 13.864,22.744 13.702,22.869 13.489 C 22.964 13.328,22.980 13.256,22.980 13.000 C 22.980 12.746,22.963 12.672,22.872 12.516 C 22.633 12.110,22.352 12.000,21.555 12.000 L 21.004 12.000 20.991 9.710 L 20.978 7.420 20.867 7.060 C 20.733 6.628,20.506 6.193,20.241 5.863 C 19.921 5.464,16.162 1.748,15.920 1.592 C 15.585 1.376,15.319 1.252,14.932 1.131 L 14.580 1.020 10.140 1.014 C 7.698 1.011,5.609 1.024,5.499 1.042 M13.000 5.132 C 13.000 7.443,13.004 7.494,13.225 7.930 C 13.361 8.199,13.801 8.639,14.070 8.775 C 14.506 8.996,14.557 9.000,16.868 9.000 L 19.000 9.000 19.000 10.500 L 19.000 12.000 12.000 12.000 L 5.000 12.000 5.000 7.947 C 5.000 3.365,4.983 3.623,5.304 3.303 C 5.615 2.991,5.409 3.006,9.430 3.003 L 13.000 3.000 13.000 5.132 M16.800 5.220 L 18.580 7.000 16.790 7.000 L 15.000 7.000 15.000 5.220 C 15.000 4.241,15.005 3.440,15.010 3.440 C 15.016 3.440,15.821 4.241,16.800 5.220 M5.695 16.057 C 5.466 16.129,5.256 16.299,5.128 16.516 L 5.020 16.700 5.020 18.503 L 5.020 20.306 5.141 20.503 C 5.209 20.613,5.346 20.756,5.452 20.828 C 5.923 21.144,6.554 20.999,6.859 20.503 L 6.980 20.306 6.980 18.503 L 6.980 16.700 6.872 16.516 C 6.628 16.101,6.150 15.915,5.695 16.057 M9.695 16.057 C 9.466 16.129,9.256 16.299,9.128 16.516 L 9.020 16.700 9.020 19.503 L 9.020 22.306 9.141 22.503 C 9.543 23.156,10.457 23.156,10.859 22.503 L 10.980 22.306 10.980 19.503 L 10.980 16.700 10.872 16.516 C 10.628 16.101,10.150 15.915,9.695 16.057 M13.695 16.057 C 13.466 16.129,13.256 16.299,13.128 16.516 L 13.020 16.700 13.020 18.003 L 13.020 19.306 13.141 19.503 C 13.543 20.156,14.457 20.156,14.859 19.503 L 14.980 19.306 14.980 18.003 L 14.980 16.700 14.872 16.516 C 14.628 16.101,14.150 15.915,13.695 16.057 M17.695 16.057 C 17.466 16.129,17.256 16.299,17.128 16.516 L 17.020 16.700 17.020 18.503 L 17.020 20.306 17.141 20.503 C 17.209 20.613,17.346 20.756,17.452 20.828 C 17.923 21.144,18.554 20.999,18.859 20.503 L 18.980 20.306 18.980 18.503 L 18.980 16.700 18.872 16.516 C 18.628 16.101,18.150 15.915,17.695 16.057 " stroke="none" fill-rule="evenodd" fill="#000000"></path></svg>