<svg  xmlns="http://www.w3.org/2000/svg" width="24" height="24" viewBox="0 0 24 24" fill="none" stroke="currentColor" stroke-width="2" stroke-linecap="round" stroke-linejoin="round"><path d="M5.670 1.061 C 5.448 1.142,5.250 1.309,5.128 1.516 C 5.037 1.672,5.020 1.746,5.020 2.000 C 5.020 2.254,5.036 2.328,5.127 2.480 C 5.262 2.706,10.368 7.805,10.560 7.905 C 10.659 7.957,10.788 7.979,11.000 7.979 C 11.258 7.980,11.327 7.964,11.492 7.867 C 11.968 7.587,12.139 6.967,11.865 6.508 C 11.810 6.416,11.350 5.926,10.843 5.420 L 9.920 4.501 10.670 3.750 C 11.146 3.274,11.449 3.000,11.500 3.000 C 11.612 3.000,19.000 10.389,19.000 10.501 C 19.000 10.547,18.906 10.676,18.789 10.791 L 18.577 11.000 11.019 10.990 L 3.460 10.980 5.006 9.420 C 6.473 7.939,6.555 7.849,6.616 7.643 C 6.695 7.373,6.696 7.307,6.618 7.045 C 6.541 6.787,6.322 6.535,6.083 6.429 C 5.854 6.327,5.470 6.324,5.257 6.422 C 5.091 6.497,2.727 8.810,2.172 9.438 C 0.770 11.027,0.613 13.294,1.781 15.066 C 1.972 15.357,2.381 15.789,4.057 17.475 C 5.181 18.605,6.252 19.664,6.438 19.828 C 8.028 21.229,10.290 21.387,12.066 20.220 C 12.370 20.020,12.987 19.422,16.452 15.964 C 18.766 13.654,20.546 11.847,20.630 11.721 C 20.895 11.324,20.976 11.044,20.978 10.520 C 20.980 9.981,20.894 9.668,20.639 9.289 C 20.548 9.154,18.914 7.493,16.652 5.236 C 13.694 2.283,12.769 1.382,12.594 1.285 C 12.311 1.127,11.824 1.000,11.500 1.000 C 11.175 1.000,10.687 1.127,10.406 1.286 C 10.255 1.371,9.900 1.690,9.340 2.245 L 8.501 3.076 7.520 2.104 C 6.671 1.262,6.514 1.124,6.343 1.066 C 6.108 0.987,5.875 0.985,5.670 1.061 M13.800 15.773 C 11.240 18.326,10.997 18.558,10.732 18.694 C 9.945 19.099,9.056 19.099,8.268 18.694 C 8.004 18.559,7.791 18.357,5.717 16.283 C 3.661 14.228,3.440 13.994,3.311 13.740 C 3.198 13.520,3.040 13.094,3.040 13.013 C 3.040 13.006,6.086 13.000,9.810 13.000 L 16.580 13.001 13.800 15.773 M19.617 15.577 C 19.439 15.654,19.207 15.870,19.123 16.036 C 19.083 16.115,19.019 16.287,18.982 16.418 C 18.846 16.889,18.700 17.111,18.197 17.609 C 17.937 17.867,17.652 18.173,17.565 18.289 C 16.774 19.337,16.823 20.893,17.679 21.891 C 18.107 22.391,18.570 22.702,19.160 22.886 C 19.412 22.964,19.547 22.979,20.000 22.979 C 20.453 22.979,20.588 22.964,20.840 22.886 C 21.818 22.582,22.580 21.824,22.879 20.860 C 23.012 20.430,23.032 19.794,22.926 19.351 C 22.841 18.996,22.651 18.573,22.462 18.320 C 22.405 18.243,22.127 17.946,21.845 17.660 C 21.301 17.110,21.154 16.888,21.018 16.418 C 20.981 16.287,20.917 16.115,20.877 16.036 C 20.791 15.866,20.558 15.652,20.374 15.575 C 20.208 15.505,19.778 15.506,19.617 15.577 M20.447 19.097 C 20.819 19.458,20.883 19.540,20.937 19.723 C 21.015 19.986,21.016 20.105,20.942 20.316 C 20.859 20.550,20.697 20.747,20.484 20.872 C 20.328 20.963,20.254 20.980,20.000 20.980 C 19.746 20.980,19.672 20.963,19.516 20.872 C 19.063 20.605,18.878 20.031,19.104 19.592 C 19.163 19.477,19.946 18.682,20.000 18.681 C 20.011 18.681,20.212 18.868,20.447 19.097 " stroke="none" fill-rule="evenodd" fill="#000000"></path></svg>