<svg  xmlns="http://www.w3.org/2000/svg" width="24" height="24" viewBox="0 0 24 24" fill="none" stroke="currentColor" stroke-width="2" stroke-linecap="round" stroke-linejoin="round"><path d="M6.640 2.099 C 5.867 2.227,5.007 2.572,4.370 3.008 C 3.949 3.296,3.231 4.022,2.954 4.440 C 1.900 6.030,1.714 7.957,2.446 9.680 C 3.172 11.389,4.769 12.647,6.590 12.946 C 7.077 13.026,7.293 12.999,7.548 12.828 C 8.032 12.502,8.138 11.846,7.781 11.378 C 7.623 11.171,7.439 11.084,6.932 10.979 C 6.428 10.875,6.068 10.750,5.766 10.575 C 4.530 9.857,3.850 8.475,4.037 7.060 C 4.146 6.245,4.423 5.697,5.040 5.080 C 5.824 4.295,6.583 4.000,7.680 4.052 C 8.640 4.097,9.342 4.419,10.024 5.126 C 10.468 5.585,10.716 6.018,10.894 6.640 L 10.979 6.940 11.000 14.123 L 11.020 21.306 11.141 21.503 C 11.209 21.613,11.346 21.756,11.452 21.828 C 11.923 22.144,12.554 21.999,12.859 21.503 L 12.980 21.306 13.000 14.123 L 13.021 6.940 13.106 6.640 C 13.284 6.018,13.532 5.585,13.976 5.126 C 14.658 4.419,15.360 4.097,16.320 4.052 C 17.361 4.003,18.145 4.291,18.887 4.994 C 19.424 5.504,19.715 5.986,19.892 6.660 C 19.959 6.917,19.975 7.095,19.974 7.560 C 19.972 8.070,19.959 8.183,19.865 8.492 C 19.597 9.382,19.020 10.119,18.234 10.575 C 17.931 10.751,17.571 10.875,17.061 10.981 C 16.504 11.095,16.329 11.194,16.141 11.498 C 16.034 11.671,16.020 11.729,16.020 12.000 C 16.020 12.271,16.034 12.329,16.141 12.503 C 16.290 12.745,16.577 12.946,16.828 12.983 C 17.267 13.049,18.338 12.765,19.035 12.398 C 20.541 11.605,21.572 10.217,21.907 8.527 C 22.007 8.028,22.005 6.983,21.904 6.500 C 21.668 5.369,21.180 4.459,20.380 3.660 C 19.865 3.145,19.491 2.877,18.870 2.580 C 18.025 2.175,17.267 2.019,16.320 2.054 C 16.001 2.065,15.598 2.103,15.425 2.138 C 14.667 2.289,13.819 2.671,13.188 3.146 C 12.839 3.409,12.215 4.034,12.089 4.247 C 12.007 4.387,11.993 4.387,11.911 4.247 C 11.785 4.034,11.161 3.409,10.812 3.146 C 10.181 2.672,9.336 2.290,8.575 2.137 C 8.133 2.049,7.070 2.027,6.640 2.099 " stroke="none" fill-rule="evenodd" fill="#000000"></path></svg>