<svg  xmlns="http://www.w3.org/2000/svg" width="24" height="24" viewBox="0 0 24 24" fill="none" stroke="currentColor" stroke-width="2" stroke-linecap="round" stroke-linejoin="round"><path d="M5.499 1.043 C 4.379 1.234,3.461 2.048,3.114 3.160 L 3.020 3.460 3.020 12.000 L 3.020 20.540 3.114 20.840 C 3.422 21.827,4.173 22.578,5.160 22.886 L 5.460 22.980 12.000 22.980 L 18.540 22.980 18.840 22.886 C 19.827 22.578,20.578 21.827,20.886 20.840 L 20.980 20.540 20.980 13.980 L 20.980 7.420 20.868 7.060 C 20.728 6.613,20.498 6.179,20.219 5.840 C 19.855 5.397,16.159 1.747,15.910 1.585 C 15.591 1.378,15.236 1.218,14.860 1.111 L 14.540 1.021 10.120 1.015 C 7.689 1.011,5.609 1.024,5.499 1.043 M13.000 5.132 C 13.000 7.443,13.004 7.494,13.225 7.930 C 13.361 8.199,13.801 8.639,14.070 8.775 C 14.506 8.996,14.557 9.000,16.868 9.000 L 19.000 9.000 19.000 14.554 C 19.000 19.144,18.990 20.139,18.945 20.290 C 18.872 20.533,18.707 20.740,18.484 20.872 L 18.300 20.980 12.000 20.980 L 5.700 20.980 5.516 20.872 C 5.415 20.813,5.284 20.700,5.225 20.623 C 4.985 20.308,5.000 20.888,5.000 12.022 C 5.000 2.888,4.974 3.632,5.304 3.303 C 5.615 2.991,5.409 3.006,9.430 3.003 L 13.000 3.000 13.000 5.132 M16.800 5.220 L 18.580 7.000 16.790 7.000 L 15.000 7.000 15.000 5.220 C 15.000 4.241,15.005 3.440,15.010 3.440 C 15.016 3.440,15.821 4.241,16.800 5.220 M9.695 10.057 C 9.350 10.165,9.073 10.481,9.017 10.830 L 8.990 11.000 8.441 11.000 C 7.649 11.000,7.366 11.111,7.128 11.516 C 7.037 11.672,7.020 11.746,7.020 12.000 C 7.020 12.256,7.036 12.328,7.131 12.489 C 7.256 12.702,7.449 12.864,7.670 12.943 C 7.768 12.978,8.022 12.997,8.405 12.998 L 8.991 13.000 9.018 13.179 C 9.054 13.422,9.258 13.712,9.497 13.859 C 9.671 13.966,9.729 13.980,10.000 13.980 C 10.271 13.980,10.329 13.966,10.503 13.859 C 10.742 13.712,10.946 13.422,10.982 13.179 L 11.009 13.000 13.595 12.998 C 15.650 12.997,16.211 12.986,16.330 12.943 C 16.551 12.864,16.744 12.702,16.869 12.489 C 16.964 12.328,16.980 12.256,16.980 12.000 C 16.980 11.746,16.963 11.672,16.872 11.516 C 16.813 11.415,16.698 11.282,16.618 11.221 C 16.328 11.000,16.324 11.000,13.559 11.000 L 11.010 11.000 10.983 10.830 C 10.926 10.473,10.648 10.163,10.290 10.055 C 10.068 9.988,9.913 9.989,9.695 10.057 M13.695 15.057 C 13.350 15.165,13.073 15.481,13.017 15.830 L 12.990 16.000 10.441 16.000 C 7.676 16.000,7.672 16.000,7.382 16.221 C 7.302 16.282,7.187 16.415,7.128 16.516 C 7.037 16.672,7.020 16.746,7.020 17.000 C 7.020 17.256,7.036 17.328,7.131 17.489 C 7.256 17.702,7.449 17.864,7.670 17.943 C 7.789 17.986,8.350 17.997,10.405 17.998 L 12.991 18.000 13.018 18.179 C 13.054 18.422,13.258 18.712,13.497 18.859 C 13.671 18.966,13.729 18.980,14.000 18.980 C 14.271 18.980,14.329 18.966,14.503 18.859 C 14.742 18.712,14.946 18.422,14.982 18.179 L 15.009 18.000 15.595 17.998 C 15.978 17.997,16.232 17.978,16.330 17.943 C 16.551 17.864,16.744 17.702,16.869 17.489 C 16.964 17.328,16.980 17.256,16.980 17.000 C 16.980 16.746,16.963 16.672,16.872 16.516 C 16.634 16.111,16.351 16.000,15.559 16.000 L 15.010 16.000 14.983 15.830 C 14.926 15.473,14.648 15.163,14.290 15.055 C 14.068 14.988,13.913 14.989,13.695 15.057 " stroke="none" fill-rule="evenodd" fill="#000000"></path></svg>