<svg  xmlns="http://www.w3.org/2000/svg" width="24" height="24" viewBox="0 0 24 24" fill="none" stroke="currentColor" stroke-width="2" stroke-linecap="round" stroke-linejoin="round"><path d="M6.477 2.073 C 6.130 2.164,5.802 2.366,5.535 2.653 C 5.108 3.112,5.000 3.460,5.000 4.368 L 5.000 5.000 3.446 5.000 C 1.758 5.000,1.658 5.011,1.382 5.221 C 1.302 5.282,1.187 5.415,1.128 5.516 C 1.037 5.672,1.020 5.746,1.020 6.000 C 1.020 6.256,1.036 6.328,1.131 6.489 C 1.192 6.592,1.304 6.725,1.381 6.783 C 1.654 6.991,1.700 6.996,3.410 6.998 L 5.000 7.000 5.000 8.000 L 5.000 9.000 3.446 9.000 C 1.758 9.000,1.658 9.011,1.382 9.221 C 1.302 9.282,1.187 9.415,1.128 9.516 C 1.037 9.672,1.020 9.746,1.020 10.000 C 1.020 10.256,1.036 10.328,1.131 10.489 C 1.192 10.592,1.304 10.725,1.381 10.783 C 1.654 10.991,1.700 10.996,3.410 10.998 L 5.000 11.000 5.000 12.000 L 5.000 13.000 3.446 13.000 C 1.758 13.000,1.658 13.011,1.382 13.221 C 1.302 13.282,1.187 13.415,1.128 13.516 C 1.037 13.672,1.020 13.746,1.020 14.000 C 1.020 14.256,1.036 14.328,1.131 14.489 C 1.192 14.592,1.304 14.725,1.381 14.783 C 1.654 14.991,1.700 14.996,3.410 14.998 L 5.000 15.000 5.000 16.000 L 5.000 17.000 3.446 17.000 C 1.758 17.000,1.658 17.011,1.382 17.221 C 1.302 17.282,1.187 17.415,1.128 17.516 C 1.037 17.672,1.020 17.746,1.020 18.000 C 1.020 18.256,1.036 18.328,1.131 18.489 C 1.192 18.592,1.304 18.725,1.381 18.783 C 1.654 18.991,1.700 18.996,3.410 18.998 L 5.000 19.000 5.000 19.632 C 5.000 20.574,5.119 20.927,5.596 21.404 C 5.882 21.690,6.148 21.847,6.508 21.940 C 6.847 22.029,11.153 22.029,11.492 21.940 C 11.852 21.847,12.118 21.690,12.404 21.404 C 12.793 21.015,13.000 20.539,13.000 20.032 L 13.000 19.816 13.350 19.889 C 13.824 19.989,14.698 20.025,15.125 19.962 C 15.526 19.903,16.048 19.753,16.385 19.600 C 16.680 19.467,16.961 19.280,17.690 18.734 C 18.543 18.095,18.736 18.021,19.540 18.024 C 20.283 18.026,20.501 18.109,21.230 18.665 C 21.675 19.004,21.946 19.072,22.322 18.939 C 22.953 18.717,23.186 18.008,22.818 17.434 C 22.681 17.221,21.923 16.666,21.460 16.439 C 20.981 16.205,20.579 16.096,19.976 16.034 C 19.135 15.949,18.230 16.100,17.555 16.438 C 17.197 16.617,16.955 16.779,16.300 17.278 C 15.501 17.886,15.106 18.026,14.300 17.986 C 13.787 17.961,13.325 17.852,12.960 17.670 L 12.700 17.540 12.452 15.560 C 12.315 14.471,12.203 13.540,12.202 13.492 C 12.200 13.405,12.206 13.406,12.470 13.539 C 13.831 14.226,15.675 14.133,16.885 13.318 C 17.025 13.223,17.387 12.961,17.690 12.734 C 18.543 12.095,18.736 12.021,19.540 12.024 C 20.283 12.026,20.501 12.109,21.230 12.665 C 21.675 13.004,21.946 13.072,22.322 12.939 C 22.953 12.717,23.186 12.008,22.818 11.434 C 22.681 11.221,21.923 10.666,21.460 10.439 C 20.981 10.205,20.579 10.096,19.976 10.034 C 19.135 9.949,18.230 10.100,17.555 10.438 C 17.197 10.617,16.955 10.779,16.300 11.278 C 15.513 11.877,15.101 12.026,14.340 11.987 C 13.641 11.951,13.379 11.828,12.457 11.099 C 12.235 10.923,12.005 10.744,11.945 10.700 L 11.836 10.620 11.397 7.101 C 11.156 5.166,10.939 3.510,10.915 3.422 C 10.801 3.000,10.432 2.531,10.017 2.281 C 9.599 2.029,9.418 2.005,8.000 2.005 C 6.938 2.005,6.699 2.015,6.477 2.073 M9.000 4.040 C 9.000 4.099,10.955 19.760,10.978 19.890 L 10.998 20.000 8.999 20.000 L 7.000 20.000 7.000 12.000 L 7.000 4.000 8.000 4.000 C 8.643 4.000,9.000 4.014,9.000 4.040 " stroke="none" fill-rule="evenodd" fill="#000000"></path></svg>