<svg  xmlns="http://www.w3.org/2000/svg" width="24" height="24" viewBox="0 0 24 24" fill="none" stroke="currentColor" stroke-width="2" stroke-linecap="round" stroke-linejoin="round"><path d="M3.695 4.057 C 3.466 4.129,3.256 4.299,3.128 4.516 C 3.037 4.672,3.020 4.746,3.020 5.000 C 3.020 5.256,3.036 5.328,3.131 5.489 C 3.256 5.702,3.449 5.864,3.670 5.943 C 3.893 6.022,20.107 6.022,20.330 5.943 C 20.551 5.864,20.744 5.702,20.869 5.489 C 20.964 5.328,20.980 5.256,20.980 5.000 C 20.980 4.746,20.963 4.672,20.872 4.516 C 20.740 4.293,20.533 4.128,20.290 4.055 C 20.027 3.976,3.947 3.978,3.695 4.057 M3.695 11.057 C 3.466 11.129,3.256 11.299,3.128 11.516 C 3.037 11.672,3.020 11.746,3.020 12.000 C 3.020 12.256,3.036 12.328,3.131 12.489 C 3.256 12.702,3.449 12.864,3.670 12.943 C 3.893 13.022,20.107 13.022,20.330 12.943 C 20.551 12.864,20.744 12.702,20.869 12.489 C 20.964 12.328,20.980 12.256,20.980 12.000 C 20.980 11.746,20.963 11.672,20.872 11.516 C 20.740 11.293,20.533 11.128,20.290 11.055 C 20.027 10.976,3.947 10.978,3.695 11.057 M3.695 18.057 C 3.466 18.129,3.256 18.299,3.128 18.516 C 3.037 18.672,3.020 18.746,3.020 19.000 C 3.020 19.256,3.036 19.328,3.131 19.489 C 3.256 19.702,3.449 19.864,3.670 19.943 C 3.893 20.022,20.107 20.022,20.330 19.943 C 20.551 19.864,20.744 19.702,20.869 19.489 C 20.964 19.328,20.980 19.256,20.980 19.000 C 20.980 18.746,20.963 18.672,20.872 18.516 C 20.740 18.293,20.533 18.128,20.290 18.055 C 20.027 17.976,3.947 17.978,3.695 18.057 " stroke="none" fill-rule="evenodd" fill="#000000"></path></svg>