<svg  xmlns="http://www.w3.org/2000/svg" width="24" height="24" viewBox="0 0 24 24" fill="none" stroke="currentColor" stroke-width="2" stroke-linecap="round" stroke-linejoin="round"><path d="M2.695 2.057 C 2.466 2.129,2.256 2.299,2.128 2.516 L 2.020 2.700 2.020 11.120 L 2.020 19.540 2.114 19.840 C 2.418 20.816,3.149 21.554,4.140 21.886 L 4.420 21.980 12.773 21.991 C 18.322 21.998,21.177 21.988,21.277 21.961 C 21.498 21.901,21.739 21.710,21.867 21.492 C 21.964 21.327,21.980 21.257,21.980 21.000 C 21.980 20.746,21.963 20.672,21.872 20.516 C 21.761 20.328,21.572 20.158,21.373 20.070 C 21.284 20.031,19.486 20.016,12.980 20.000 L 4.700 19.980 4.516 19.872 C 4.328 19.761,4.158 19.572,4.070 19.373 C 4.031 19.284,4.016 17.486,4.000 10.980 L 3.980 2.700 3.872 2.516 C 3.628 2.101,3.150 1.915,2.695 2.057 M11.499 3.040 C 10.363 3.246,9.460 4.049,9.114 5.160 C 8.979 5.594,8.979 6.406,9.114 6.840 C 9.421 7.827,10.179 8.584,11.160 8.885 C 11.400 8.958,11.556 8.977,11.940 8.978 C 12.204 8.979,12.494 8.967,12.584 8.950 L 12.748 8.921 13.175 9.562 L 13.602 10.203 13.505 10.331 C 13.237 10.689,13.049 11.250,13.008 11.816 L 12.980 12.206 12.095 12.585 L 11.210 12.965 11.095 12.858 C 10.689 12.479,10.295 12.249,9.820 12.113 C 9.357 11.981,8.595 11.987,8.139 12.125 C 7.179 12.417,6.419 13.181,6.114 14.160 C 5.979 14.594,5.979 15.406,6.114 15.840 C 6.421 16.826,7.174 17.579,8.160 17.886 C 8.594 18.021,9.406 18.021,9.840 17.886 C 10.239 17.762,10.609 17.563,10.891 17.321 C 11.580 16.731,11.929 16.055,11.992 15.184 L 12.020 14.794 12.905 14.415 L 13.790 14.035 13.905 14.143 C 14.304 14.518,14.660 14.729,15.161 14.886 C 15.593 15.021,16.406 15.021,16.840 14.886 C 17.826 14.579,18.579 13.826,18.886 12.840 C 19.021 12.406,19.021 11.594,18.886 11.160 C 18.577 10.168,17.781 9.380,16.822 9.116 C 16.479 9.022,15.850 8.991,15.457 9.050 L 15.253 9.081 14.827 8.441 L 14.401 7.802 14.504 7.651 C 14.729 7.322,14.959 6.735,14.961 6.486 C 14.961 6.428,14.976 6.356,14.995 6.327 C 15.014 6.297,16.190 5.983,17.722 5.599 C 20.679 4.859,20.627 4.877,20.851 4.514 C 21.244 3.879,20.758 3.000,20.015 3.000 C 19.943 3.000,18.695 3.297,17.241 3.660 C 15.788 4.023,14.576 4.320,14.548 4.320 C 14.520 4.320,14.414 4.222,14.313 4.101 C 13.730 3.407,13.011 3.053,12.120 3.019 C 11.889 3.011,11.609 3.020,11.499 3.040 M12.310 5.061 C 12.688 5.173,13.000 5.598,13.000 6.000 C 13.000 6.220,12.880 6.510,12.722 6.673 C 12.481 6.921,12.347 6.978,12.000 6.979 C 11.745 6.980,11.672 6.964,11.516 6.872 C 10.935 6.530,10.833 5.774,11.304 5.303 C 11.583 5.024,11.916 4.944,12.310 5.061 M16.310 11.061 C 16.688 11.173,17.000 11.598,17.000 12.001 C 17.000 12.331,16.784 12.696,16.484 12.872 C 16.328 12.963,16.254 12.980,16.000 12.980 C 15.746 12.980,15.672 12.963,15.516 12.872 C 14.932 12.528,14.831 11.775,15.307 11.299 C 15.582 11.024,15.918 10.944,16.310 11.061 M9.310 14.061 C 9.688 14.173,10.000 14.598,10.000 15.001 C 10.000 15.331,9.784 15.696,9.484 15.872 C 9.328 15.963,9.254 15.980,9.000 15.980 C 8.746 15.980,8.672 15.963,8.516 15.872 C 7.935 15.530,7.833 14.774,8.304 14.303 C 8.583 14.024,8.916 13.944,9.310 14.061 " stroke="none" fill-rule="evenodd" fill="#000000"></path></svg>