<svg  xmlns="http://www.w3.org/2000/svg" width="24" height="24" viewBox="0 0 24 24" fill="none" stroke="currentColor" stroke-width="2" stroke-linecap="round" stroke-linejoin="round"><path d="M3.499 2.043 C 2.390 2.231,1.479 3.033,1.116 4.140 C 1.029 4.406,1.024 4.492,1.009 5.808 C 0.992 7.320,1.006 7.462,1.202 7.877 C 1.348 8.186,1.771 8.623,2.070 8.775 C 2.472 8.979,2.643 9.000,3.867 9.000 L 4.998 9.000 5.009 14.290 L 5.020 19.580 5.114 19.860 C 5.446 20.851,6.184 21.582,7.160 21.886 L 7.460 21.980 14.000 21.980 L 20.540 21.980 20.840 21.886 C 21.818 21.581,22.568 20.836,22.882 19.860 C 22.961 19.614,22.974 19.473,22.990 18.700 C 23.014 17.480,22.931 17.154,22.465 16.653 C 21.998 16.151,21.590 16.006,20.631 16.002 L 20.002 16.000 19.991 10.210 L 19.980 4.420 19.886 4.140 C 19.556 3.158,18.821 2.425,17.861 2.121 L 17.540 2.020 10.620 2.014 C 6.814 2.011,3.609 2.024,3.499 2.043 M4.310 4.061 C 4.452 4.103,4.571 4.178,4.697 4.303 C 4.978 4.584,5.000 4.703,5.000 5.947 L 5.000 7.000 4.000 7.000 L 3.000 7.000 3.000 5.947 C 3.000 4.702,3.022 4.585,3.304 4.303 C 3.583 4.024,3.916 3.944,4.310 4.061 M17.310 4.061 C 17.589 4.144,17.856 4.411,17.939 4.690 C 17.992 4.869,18.000 5.593,18.000 10.447 L 18.000 16.000 14.370 16.002 C 10.323 16.005,10.455 15.996,9.983 16.281 C 9.703 16.449,9.354 16.816,9.219 17.083 C 9.040 17.434,9.000 17.682,9.000 18.422 C 9.000 19.177,8.963 19.376,8.779 19.618 C 8.718 19.698,8.585 19.813,8.484 19.872 C 8.328 19.963,8.254 19.980,8.000 19.980 C 7.746 19.980,7.672 19.963,7.516 19.872 C 7.328 19.761,7.158 19.572,7.070 19.373 C 7.031 19.284,7.016 17.658,7.000 11.840 C 6.981 4.925,6.975 4.406,6.910 4.220 C 6.872 4.110,6.841 4.016,6.840 4.010 C 6.840 4.005,9.150 4.000,11.973 4.000 C 16.451 4.000,17.132 4.008,17.310 4.061 M21.000 18.554 C 21.000 19.352,20.890 19.633,20.484 19.872 L 20.300 19.980 15.570 19.991 C 12.968 19.996,10.840 19.996,10.840 19.991 C 10.841 19.985,10.870 19.890,10.906 19.780 C 10.953 19.634,10.976 19.365,10.990 18.790 L 11.009 18.000 16.005 18.000 L 21.000 18.000 21.000 18.554 " stroke="none" fill-rule="evenodd" fill="#000000"></path></svg>