<svg  xmlns="http://www.w3.org/2000/svg" width="24" height="24" viewBox="0 0 24 24" fill="none" stroke="currentColor" stroke-width="2" stroke-linecap="round" stroke-linejoin="round"><path d="M8.695 2.057 C 8.466 2.129,8.256 2.299,8.128 2.516 L 8.020 2.700 8.008 4.228 L 7.996 5.756 7.628 5.941 C 5.963 6.780,4.545 8.260,3.777 9.960 C 2.875 11.956,2.758 14.106,3.439 16.160 C 3.880 17.493,4.512 18.515,5.507 19.510 L 5.997 20.000 4.945 20.000 C 3.797 20.000,3.644 20.022,3.382 20.221 C 3.302 20.282,3.187 20.415,3.128 20.516 C 3.037 20.672,3.020 20.746,3.020 21.000 C 3.020 21.256,3.036 21.328,3.131 21.489 C 3.256 21.702,3.449 21.864,3.670 21.943 C 3.893 22.022,20.107 22.022,20.330 21.943 C 20.551 21.864,20.744 21.702,20.869 21.489 C 20.964 21.328,20.980 21.256,20.980 21.000 C 20.980 20.746,20.963 20.672,20.872 20.516 C 20.813 20.415,20.698 20.282,20.618 20.221 C 20.318 19.992,20.492 20.000,15.604 19.999 C 10.892 19.998,10.673 19.991,9.997 19.821 C 8.870 19.537,7.882 19.004,7.068 18.240 C 6.346 17.561,5.845 16.829,5.473 15.908 C 4.390 13.222,5.271 10.055,7.580 8.328 L 7.980 8.029 8.000 10.168 L 8.020 12.306 8.141 12.503 C 8.543 13.156,9.457 13.156,9.859 12.503 L 9.980 12.306 9.991 9.739 L 10.002 7.172 10.411 7.099 C 10.671 7.053,11.031 7.025,11.400 7.023 L 11.980 7.020 12.000 9.663 L 12.020 12.306 12.141 12.503 C 12.543 13.156,13.457 13.156,13.859 12.503 L 13.980 12.306 13.991 9.911 L 14.002 7.515 14.091 7.543 C 14.140 7.558,14.366 7.672,14.593 7.795 C 16.206 8.674,17.398 10.227,17.820 12.000 C 17.859 12.165,17.925 12.366,17.965 12.448 C 18.353 13.221,19.470 13.157,19.781 12.343 C 19.876 12.093,19.843 11.756,19.661 11.131 C 19.262 9.759,18.538 8.537,17.521 7.519 C 16.598 6.596,15.391 5.832,14.291 5.475 L 14.004 5.382 13.992 4.041 L 13.980 2.700 13.871 2.514 C 13.479 1.848,12.521 1.848,12.129 2.514 L 12.020 2.700 12.008 3.850 L 11.995 5.000 11.568 5.001 C 11.182 5.001,10.717 5.037,10.192 5.105 L 10.004 5.130 9.992 3.915 L 9.980 2.700 9.872 2.516 C 9.628 2.101,9.150 1.915,8.695 2.057 " stroke="none" fill-rule="evenodd" fill="#000000"></path></svg>