<svg  xmlns="http://www.w3.org/2000/svg" width="24" height="24" viewBox="0 0 24 24" fill="none" stroke="currentColor" stroke-width="2" stroke-linecap="round" stroke-linejoin="round"><path d="M5.499 1.043 C 4.380 1.233,3.461 2.048,3.114 3.160 L 3.020 3.460 3.020 12.000 L 3.020 20.540 3.114 20.840 C 3.422 21.827,4.173 22.578,5.160 22.886 L 5.460 22.980 12.000 22.980 L 18.540 22.980 18.840 22.886 C 19.827 22.578,20.578 21.827,20.886 20.840 L 20.980 20.540 20.980 12.000 L 20.980 3.460 20.886 3.160 C 20.581 2.182,19.832 1.428,18.861 1.121 L 18.540 1.020 12.120 1.014 C 8.589 1.011,5.609 1.024,5.499 1.043 M18.310 3.061 C 18.589 3.144,18.856 3.411,18.939 3.690 C 18.993 3.870,19.000 4.860,19.000 12.001 C 19.000 18.754,18.991 20.138,18.945 20.290 C 18.872 20.533,18.707 20.740,18.484 20.872 L 18.300 20.980 12.000 20.980 L 5.700 20.980 5.516 20.872 C 5.415 20.813,5.284 20.700,5.225 20.623 C 4.985 20.308,5.000 20.888,5.000 12.022 C 5.000 2.888,4.974 3.632,5.304 3.303 C 5.623 2.983,5.120 3.006,11.983 3.003 C 17.353 3.000,18.131 3.007,18.310 3.061 M10.640 5.069 C 10.488 5.121,10.208 5.381,8.847 6.735 C 7.960 7.618,7.186 8.421,7.127 8.520 C 7.037 8.672,7.020 8.746,7.020 9.000 C 7.020 9.257,7.036 9.327,7.133 9.492 C 7.413 9.968,8.033 10.138,8.492 9.865 C 8.707 9.738,11.807 6.626,11.905 6.440 C 11.957 6.341,11.979 6.212,11.979 6.000 C 11.980 5.745,11.964 5.672,11.872 5.516 C 11.617 5.083,11.121 4.902,10.640 5.069 M15.660 6.066 C 15.472 6.123,15.209 6.377,11.347 10.233 C 8.975 12.602,7.189 14.416,7.127 14.520 C 7.036 14.672,7.020 14.746,7.020 15.000 C 7.020 15.257,7.036 15.327,7.133 15.492 C 7.263 15.714,7.502 15.901,7.736 15.965 C 7.938 16.019,8.266 15.989,8.445 15.899 C 8.630 15.807,16.737 7.708,16.873 7.480 C 16.964 7.328,16.980 7.254,16.980 7.000 C 16.980 6.746,16.963 6.672,16.872 6.516 C 16.740 6.293,16.533 6.128,16.290 6.055 C 16.062 5.986,15.915 5.989,15.660 6.066 " stroke="none" fill-rule="evenodd" fill="#000000"></path></svg>