<svg  xmlns="http://www.w3.org/2000/svg" width="24" height="24" viewBox="0 0 24 24" fill="none" stroke="currentColor" stroke-width="2" stroke-linecap="round" stroke-linejoin="round"><path d="M6.499 2.043 C 5.390 2.231,4.488 3.024,4.114 4.140 L 4.020 4.420 4.009 12.316 C 3.998 20.962,3.984 20.413,4.228 20.920 C 4.366 21.206,4.794 21.634,5.080 21.772 C 5.590 22.018,6.153 22.060,6.642 21.888 C 6.763 21.845,7.870 21.234,9.102 20.531 C 10.333 19.827,11.434 19.204,11.549 19.146 C 11.837 19.000,12.163 19.000,12.451 19.146 C 12.566 19.204,13.667 19.827,14.898 20.531 C 16.130 21.234,17.237 21.845,17.358 21.888 C 17.847 22.060,18.410 22.018,18.920 21.772 C 19.206 21.634,19.634 21.206,19.772 20.920 C 20.016 20.413,20.002 20.962,19.991 12.316 L 19.980 4.420 19.886 4.140 C 19.556 3.158,18.821 2.425,17.861 2.121 L 17.540 2.020 12.120 2.014 C 9.139 2.011,6.609 2.024,6.499 2.043 M17.310 4.061 C 17.592 4.144,17.858 4.412,17.940 4.693 C 17.993 4.876,17.999 5.816,17.990 12.445 L 17.980 19.989 15.820 18.751 C 14.632 18.070,13.516 17.443,13.340 17.357 C 12.466 16.930,11.534 16.930,10.660 17.357 C 10.484 17.443,9.368 18.070,8.180 18.751 L 6.020 19.989 6.010 12.445 C 5.999 3.959,5.974 4.632,6.303 4.303 C 6.621 3.985,6.233 4.006,11.983 4.003 C 16.458 4.000,17.131 4.008,17.310 4.061 M11.695 6.057 C 11.466 6.129,11.256 6.299,11.128 6.516 L 11.020 6.700 11.008 7.850 L 10.995 9.000 9.944 9.000 C 8.797 9.000,8.643 9.022,8.382 9.221 C 8.302 9.282,8.187 9.415,8.128 9.516 C 8.037 9.672,8.020 9.746,8.020 10.000 C 8.020 10.256,8.036 10.328,8.131 10.489 C 8.192 10.592,8.304 10.725,8.381 10.783 C 8.642 10.983,8.738 10.996,9.908 10.998 L 10.995 11.000 11.008 12.153 L 11.020 13.307 11.141 13.503 C 11.543 14.156,12.457 14.156,12.859 13.503 L 12.980 13.307 12.992 12.153 L 13.005 11.000 14.092 10.998 C 15.262 10.996,15.358 10.983,15.619 10.783 C 15.696 10.725,15.808 10.592,15.869 10.489 C 15.964 10.328,15.980 10.256,15.980 10.000 C 15.980 9.746,15.963 9.672,15.872 9.516 C 15.813 9.415,15.698 9.282,15.618 9.221 C 15.357 9.022,15.203 9.000,14.056 9.000 L 13.005 9.000 12.992 7.850 L 12.980 6.700 12.872 6.516 C 12.628 6.101,12.150 5.915,11.695 6.057 " stroke="none" fill-rule="evenodd" fill="#000000"></path></svg>