<svg  xmlns="http://www.w3.org/2000/svg" width="24" height="24" viewBox="0 0 24 24" fill="none" stroke="currentColor" stroke-width="2" stroke-linecap="round" stroke-linejoin="round"><path d="M6.695 1.057 C 6.469 1.128,6.256 1.298,6.134 1.506 C 6.052 1.646,6.025 1.764,5.995 2.121 C 5.912 3.081,5.590 3.723,4.892 4.321 C 4.429 4.717,3.871 4.935,3.160 4.996 C 2.929 5.016,2.689 5.052,2.627 5.076 C 2.438 5.150,2.242 5.323,2.128 5.516 C 2.037 5.672,2.020 5.746,2.020 6.000 C 2.020 6.257,2.036 6.327,2.133 6.492 C 2.263 6.714,2.502 6.901,2.736 6.965 C 2.942 7.021,3.551 6.989,3.980 6.900 C 5.473 6.590,6.751 5.623,7.433 4.288 C 7.808 3.553,7.977 2.893,7.979 2.160 C 7.980 1.731,7.973 1.688,7.872 1.516 C 7.628 1.101,7.150 0.915,6.695 1.057 M10.695 1.057 C 10.466 1.129,10.256 1.299,10.128 1.516 C 10.037 1.672,10.020 1.746,10.020 2.000 C 10.020 2.256,10.036 2.328,10.131 2.489 C 10.256 2.702,10.449 2.864,10.670 2.943 C 10.885 3.020,13.115 3.020,13.330 2.943 C 13.551 2.864,13.744 2.702,13.869 2.489 C 13.964 2.328,13.980 2.256,13.980 2.000 C 13.980 1.746,13.963 1.672,13.872 1.516 C 13.740 1.293,13.533 1.128,13.290 1.055 C 13.039 0.979,10.937 0.981,10.695 1.057 M8.204 6.785 C 7.678 7.048,7.504 7.733,7.841 8.220 C 7.902 8.308,8.310 8.734,8.748 9.166 C 9.475 9.884,9.562 9.958,9.759 10.016 C 10.028 10.096,10.092 10.096,10.363 10.016 C 10.661 9.927,10.927 9.661,11.016 9.363 C 11.096 9.092,11.096 9.028,11.016 8.759 C 10.957 8.561,10.885 8.475,10.129 7.712 C 9.200 6.773,9.067 6.680,8.660 6.680 C 8.476 6.680,8.363 6.706,8.204 6.785 M2.695 9.057 C 2.466 9.129,2.256 9.299,2.128 9.516 L 2.020 9.700 2.020 11.003 L 2.020 12.306 2.141 12.503 C 2.543 13.156,3.457 13.156,3.859 12.503 L 3.980 12.306 3.980 11.003 L 3.980 9.700 3.872 9.516 C 3.628 9.101,3.150 8.915,2.695 9.057 M7.541 13.045 C 6.735 13.162,5.962 13.658,5.494 14.360 C 5.209 14.787,2.188 20.143,2.115 20.351 C 1.940 20.847,1.981 21.407,2.228 21.920 C 2.366 22.206,2.794 22.634,3.080 22.772 C 3.584 23.015,3.187 23.002,10.164 22.991 L 16.540 22.980 16.880 22.866 C 17.531 22.647,18.121 22.212,18.472 21.690 C 18.557 21.564,18.767 21.212,18.939 20.908 C 19.111 20.604,19.265 20.370,19.282 20.388 C 19.298 20.406,19.494 20.888,19.716 21.459 C 19.958 22.079,20.166 22.555,20.235 22.639 C 20.380 22.818,20.668 22.967,20.917 22.991 C 21.511 23.048,22.049 22.514,21.991 21.926 C 21.980 21.816,21.682 20.992,21.261 19.911 L 20.549 18.082 21.176 16.983 C 21.521 16.379,21.840 15.780,21.884 15.652 C 22.213 14.718,21.789 13.674,20.905 13.239 C 20.726 13.151,20.483 13.062,20.365 13.040 C 20.095 12.990,7.885 12.995,7.541 13.045 M12.152 15.710 C 11.931 16.101,11.675 16.550,11.585 16.710 L 11.420 16.999 8.847 17.000 L 6.273 17.000 6.352 16.870 C 6.395 16.799,6.604 16.434,6.816 16.060 C 7.045 15.656,7.260 15.328,7.345 15.252 C 7.624 15.003,7.585 15.007,10.188 15.003 L 12.555 15.000 12.152 15.710 M19.881 15.210 C 19.814 15.325,19.557 15.775,19.310 16.210 L 18.860 16.999 16.292 17.000 L 13.724 17.000 13.992 16.528 C 14.140 16.268,14.395 15.818,14.560 15.528 L 14.860 15.000 17.431 15.000 L 20.002 15.000 19.881 15.210 M9.872 19.710 C 9.651 20.101,9.395 20.550,9.305 20.710 L 9.140 20.999 6.569 21.000 L 3.998 21.000 4.119 20.790 C 4.186 20.674,4.443 20.225,4.690 19.790 L 5.140 19.001 7.708 19.000 L 10.275 19.000 9.872 19.710 M17.648 19.130 C 17.605 19.202,17.396 19.566,17.184 19.940 C 16.954 20.345,16.740 20.672,16.654 20.748 C 16.369 21.003,16.386 21.002,13.796 20.990 L 11.454 20.980 12.017 19.990 L 12.580 19.000 15.153 19.000 L 17.727 19.000 17.648 19.130 " stroke="none" fill-rule="evenodd" fill="#000000"></path></svg>