<svg  xmlns="http://www.w3.org/2000/svg" width="24" height="24" viewBox="0 0 24 24" fill="none" stroke="currentColor" stroke-width="2" stroke-linecap="round" stroke-linejoin="round"><path d="M9.477 1.073 C 8.806 1.249,8.238 1.823,8.060 2.508 C 8.012 2.690,8.000 3.021,8.001 4.118 C 8.001 5.619,8.023 5.831,8.226 6.320 C 8.419 6.783,8.628 7.038,9.675 8.082 C 10.763 9.168,10.899 9.272,11.417 9.421 C 11.727 9.511,12.273 9.511,12.583 9.421 C 13.108 9.270,13.233 9.173,14.360 8.043 C 15.447 6.953,15.582 6.786,15.787 6.279 C 15.978 5.805,15.999 5.599,15.999 4.140 C 15.999 2.672,15.977 2.470,15.781 2.083 C 15.646 1.816,15.297 1.449,15.017 1.281 C 14.564 1.008,14.524 1.005,12.000 1.005 C 9.992 1.005,9.711 1.012,9.477 1.073 M13.992 4.230 C 13.981 5.335,13.972 5.474,13.906 5.600 C 13.865 5.677,13.443 6.131,12.966 6.610 C 12.296 7.284,12.078 7.480,12.000 7.480 C 11.922 7.480,11.704 7.284,11.034 6.610 C 10.557 6.131,10.135 5.677,10.094 5.600 C 10.028 5.474,10.019 5.335,10.008 4.230 L 9.996 3.000 12.000 3.000 L 14.004 3.000 13.992 4.230 M2.477 8.072 C 1.802 8.252,1.238 8.824,1.060 9.508 C 1.010 9.698,1.000 10.123,1.000 12.000 C 1.000 14.455,1.003 14.491,1.225 14.930 C 1.361 15.199,1.801 15.639,2.070 15.775 C 2.485 15.985,2.622 16.000,4.118 15.999 C 5.600 15.999,5.804 15.978,6.279 15.787 C 6.786 15.582,6.953 15.447,8.043 14.360 C 9.173 13.233,9.270 13.108,9.421 12.583 C 9.511 12.273,9.511 11.727,9.421 11.417 C 9.275 10.911,9.158 10.756,8.161 9.747 C 6.963 8.533,6.720 8.348,6.020 8.117 C 5.750 8.027,5.685 8.024,4.240 8.013 C 2.913 8.003,2.710 8.010,2.477 8.072 M18.311 8.041 C 17.870 8.115,17.406 8.321,17.020 8.612 C 16.888 8.712,16.356 9.222,15.839 9.747 C 14.841 10.757,14.726 10.910,14.577 11.420 C 14.486 11.735,14.486 12.265,14.577 12.580 C 14.729 13.103,14.831 13.236,15.918 14.325 C 16.975 15.384,17.228 15.591,17.694 15.777 C 18.205 15.980,18.386 15.999,19.882 15.999 C 21.378 16.000,21.515 15.985,21.930 15.775 C 22.196 15.640,22.638 15.200,22.771 14.937 C 22.996 14.494,23.000 14.442,22.999 12.014 C 22.999 9.601,22.991 9.496,22.781 9.083 C 22.646 8.816,22.297 8.449,22.017 8.281 C 21.592 8.025,21.431 8.004,19.880 8.007 C 19.121 8.008,18.415 8.024,18.311 8.041 M5.600 10.094 C 5.677 10.135,6.131 10.557,6.610 11.034 C 7.284 11.704,7.480 11.922,7.480 12.000 C 7.480 12.078,7.284 12.296,6.610 12.966 C 6.131 13.443,5.677 13.865,5.600 13.906 C 5.474 13.972,5.335 13.981,4.230 13.992 L 3.000 14.004 3.000 12.000 L 3.000 9.996 4.230 10.008 C 5.335 10.019,5.474 10.028,5.600 10.094 M21.000 12.002 L 21.000 14.004 19.770 13.992 C 18.665 13.981,18.526 13.972,18.400 13.906 C 18.323 13.865,17.869 13.443,17.390 12.966 C 16.713 12.292,16.520 12.078,16.520 11.999 C 16.520 11.920,16.717 11.701,17.412 11.009 C 17.903 10.520,18.312 10.120,18.322 10.119 C 18.332 10.119,18.412 10.093,18.500 10.061 C 18.625 10.016,18.915 10.003,19.830 10.002 L 21.000 10.000 21.000 12.002 M11.404 14.583 C 10.918 14.714,10.759 14.836,9.675 15.918 C 8.628 16.962,8.419 17.217,8.226 17.680 C 8.023 18.169,8.001 18.381,8.001 19.882 C 8.000 21.378,8.015 21.515,8.225 21.930 C 8.361 22.199,8.801 22.639,9.070 22.775 C 9.509 22.997,9.545 23.000,12.000 23.000 C 14.455 23.000,14.491 22.997,14.930 22.775 C 15.196 22.640,15.638 22.200,15.771 21.937 C 15.983 21.520,16.000 21.364,15.999 19.874 C 15.999 18.387,15.980 18.205,15.777 17.694 C 15.591 17.228,15.384 16.975,14.325 15.918 C 13.231 14.827,13.081 14.712,12.578 14.581 C 12.285 14.505,11.692 14.506,11.404 14.583 M12.966 17.390 C 13.443 17.869,13.865 18.323,13.906 18.400 C 13.972 18.526,13.981 18.665,13.992 19.770 L 14.004 21.000 12.000 21.000 L 9.996 21.000 10.008 19.770 C 10.019 18.665,10.028 18.526,10.094 18.400 C 10.135 18.323,10.557 17.869,11.034 17.390 C 11.704 16.716,11.922 16.520,12.000 16.520 C 12.078 16.520,12.296 16.716,12.966 17.390 " stroke="none" fill-rule="evenodd" fill="#000000"></path></svg>