<svg  xmlns="http://www.w3.org/2000/svg" width="24" height="24" viewBox="0 0 24 24" fill="none" stroke="currentColor" stroke-width="2" stroke-linecap="round" stroke-linejoin="round"><path d="M1.670 1.061 C 1.448 1.142,1.250 1.309,1.128 1.516 C 1.037 1.672,1.020 1.746,1.020 2.000 C 1.020 2.254,1.036 2.327,1.127 2.480 C 1.188 2.581,2.502 3.926,4.135 5.557 L 7.035 8.455 6.708 8.811 C 5.858 9.736,5.367 10.671,5.114 11.846 C 5.040 12.190,5.025 12.385,5.025 13.000 C 5.025 13.773,5.094 14.261,5.278 14.785 L 5.352 14.995 3.966 15.009 C 2.667 15.023,2.566 15.029,2.350 15.110 C 1.871 15.289,1.423 15.679,1.223 16.092 C 0.840 16.884,0.960 17.700,1.560 18.380 C 1.692 18.529,1.848 18.752,1.908 18.876 C 2.012 19.091,2.017 19.128,2.020 19.760 C 2.023 20.333,2.035 20.451,2.110 20.654 C 2.359 21.326,2.930 21.821,3.620 21.961 C 3.775 21.992,4.000 22.000,4.260 21.984 C 4.887 21.943,5.139 22.032,5.660 22.478 C 6.502 23.199,7.647 23.169,8.400 22.404 C 8.684 22.115,8.883 21.760,8.956 21.408 C 8.983 21.279,9.000 20.694,9.000 19.918 L 9.000 18.641 9.150 18.699 C 9.931 19.002,11.196 19.079,12.154 18.882 C 13.306 18.645,14.260 18.145,15.189 17.292 L 15.545 16.965 18.443 19.865 C 20.074 21.498,21.419 22.812,21.520 22.873 C 21.673 22.964,21.746 22.980,22.000 22.980 C 22.257 22.980,22.327 22.964,22.492 22.867 C 22.968 22.587,23.139 21.967,22.865 21.508 C 22.810 21.416,18.215 16.793,12.653 11.235 C 3.300 1.889,2.525 1.125,2.343 1.065 C 2.107 0.987,1.874 0.986,1.670 1.061 M16.525 1.060 C 15.797 1.265,15.247 1.814,15.058 2.525 C 15.014 2.690,15.001 3.041,15.000 4.035 L 15.000 5.329 14.910 5.304 C 14.397 5.161,13.991 5.076,13.640 5.036 C 12.878 4.950,11.735 5.067,11.338 5.272 C 10.925 5.484,10.728 5.933,10.841 6.403 C 10.914 6.707,11.212 7.008,11.533 7.100 C 11.747 7.162,11.793 7.162,12.113 7.105 C 12.304 7.070,12.582 7.030,12.730 7.015 L 13.000 6.989 13.000 7.740 C 13.000 8.204,13.018 8.551,13.048 8.649 C 13.074 8.737,13.173 8.895,13.269 9.001 C 13.755 9.542,14.594 9.409,14.906 8.740 C 14.988 8.565,14.999 8.479,15.000 8.050 C 15.000 7.780,15.011 7.560,15.024 7.560 C 15.037 7.560,15.104 7.599,15.174 7.647 C 16.100 8.285,16.670 9.130,16.924 10.240 C 17.000 10.576,16.991 11.353,16.905 11.860 L 16.830 12.300 16.917 12.528 C 17.202 13.274,18.175 13.423,18.651 12.794 C 18.921 12.438,19.081 11.118,18.958 10.260 C 18.924 10.022,18.785 9.402,18.696 9.090 L 18.671 9.000 19.933 9.000 C 20.698 9.000,21.280 8.983,21.408 8.956 C 21.941 8.845,22.550 8.383,22.772 7.920 C 23.160 7.111,23.044 6.304,22.440 5.620 C 22.308 5.471,22.151 5.247,22.090 5.124 C 21.984 4.908,21.980 4.877,21.978 4.240 C 21.977 3.665,21.965 3.550,21.890 3.346 C 21.551 2.431,20.757 1.952,19.698 2.023 C 19.156 2.059,18.886 1.975,18.494 1.647 C 18.094 1.313,17.995 1.250,17.693 1.136 C 17.347 1.006,16.837 0.973,16.525 1.060 M17.480 3.407 C 18.041 3.815,18.946 4.075,19.655 4.030 L 19.980 4.010 19.982 4.535 C 19.983 5.138,20.059 5.472,20.319 6.027 C 20.487 6.387,20.610 6.570,20.856 6.830 L 21.017 7.000 19.248 7.000 L 17.480 7.000 17.240 6.760 L 17.000 6.520 17.000 4.752 L 17.000 2.983 17.170 3.144 C 17.264 3.233,17.403 3.351,17.480 3.407 M9.000 13.429 C 9.000 15.085,8.986 16.440,8.970 16.440 C 8.953 16.440,8.785 16.323,8.595 16.181 C 7.763 15.556,7.214 14.636,7.058 13.605 C 6.986 13.121,6.986 12.879,7.058 12.395 C 7.186 11.547,7.563 10.809,8.214 10.129 L 8.455 9.877 8.728 10.148 L 9.000 10.418 9.000 13.429 M13.812 15.837 C 13.100 16.515,12.243 16.907,11.300 16.986 L 11.000 17.012 11.000 14.716 L 11.000 12.420 12.562 13.980 L 14.124 15.540 13.812 15.837 M6.765 17.230 L 6.998 17.460 6.999 19.233 L 7.000 21.005 6.783 20.814 C 6.146 20.252,5.191 19.920,4.360 19.972 L 4.020 19.993 4.018 19.467 C 4.017 19.044,3.999 18.877,3.927 18.624 C 3.762 18.044,3.480 17.519,3.146 17.170 L 2.983 17.000 4.758 17.000 L 6.532 17.000 6.765 17.230 " stroke="none" fill-rule="evenodd" fill="#000000"></path></svg>