<svg  xmlns="http://www.w3.org/2000/svg" width="24" height="24" viewBox="0 0 24 24" fill="none" stroke="currentColor" stroke-width="2" stroke-linecap="round" stroke-linejoin="round"><path d="M2.695 2.057 C 2.466 2.129,2.256 2.299,2.128 2.516 L 2.020 2.700 2.020 11.120 L 2.020 19.540 2.114 19.840 C 2.418 20.816,3.149 21.554,4.140 21.886 L 4.420 21.980 12.773 21.991 C 18.322 21.998,21.177 21.988,21.277 21.961 C 21.498 21.901,21.739 21.710,21.867 21.492 C 21.964 21.327,21.980 21.257,21.980 21.000 C 21.980 20.746,21.963 20.672,21.872 20.516 C 21.761 20.328,21.572 20.158,21.373 20.070 C 21.284 20.031,19.486 20.016,12.980 20.000 L 4.700 19.980 4.516 19.872 C 4.328 19.761,4.158 19.572,4.070 19.373 C 4.031 19.284,4.016 17.486,4.000 10.980 L 3.980 2.700 3.872 2.516 C 3.628 2.101,3.150 1.915,2.695 2.057 M18.050 6.778 C 17.957 6.808,17.795 6.887,17.690 6.954 C 17.586 7.022,16.600 7.978,15.501 9.078 L 13.502 11.079 11.941 9.525 C 10.113 7.706,10.159 7.740,9.500 7.740 C 8.865 7.740,8.834 7.761,7.527 9.056 C 6.926 9.652,6.370 10.226,6.292 10.332 C 5.996 10.733,6.000 10.689,6.000 13.635 C 6.000 16.488,6.000 16.485,6.225 16.930 C 6.361 17.199,6.801 17.639,7.070 17.775 C 7.534 18.010,7.267 18.000,13.000 18.000 C 18.733 18.000,18.466 18.010,18.930 17.775 C 19.196 17.640,19.638 17.200,19.771 16.937 C 20.007 16.472,20.000 16.622,20.000 12.128 C 20.000 8.187,19.997 7.996,19.924 7.762 C 19.781 7.302,19.396 6.920,18.937 6.781 C 18.697 6.708,18.280 6.707,18.050 6.778 M18.000 12.720 L 18.000 16.000 13.000 16.000 L 8.000 16.000 8.000 13.710 L 8.000 11.421 8.749 10.671 L 9.498 9.921 11.060 11.479 C 12.886 13.299,12.833 13.260,13.500 13.260 C 14.176 13.260,14.087 13.328,16.180 11.238 C 17.170 10.250,17.985 9.441,17.990 9.440 C 17.995 9.440,18.000 10.916,18.000 12.720 " stroke="none" fill-rule="evenodd" fill="#000000"></path></svg>