<svg  xmlns="http://www.w3.org/2000/svg" width="24" height="24" viewBox="0 0 24 24" fill="none" stroke="currentColor" stroke-width="2" stroke-linecap="round" stroke-linejoin="round"><path d="M7.695 1.057 C 7.466 1.129,7.256 1.299,7.128 1.516 C 7.025 1.692,7.019 1.728,7.007 2.347 L 6.993 2.993 5.727 3.009 C 4.518 3.025,4.445 3.030,4.139 3.124 C 3.176 3.420,2.420 4.180,2.114 5.160 L 2.020 5.460 2.020 13.000 L 2.020 20.540 2.114 20.840 C 2.418 21.816,3.150 22.555,4.140 22.886 L 4.420 22.979 7.770 22.991 C 9.990 22.999,11.172 22.989,11.274 22.962 C 11.498 22.901,11.739 22.711,11.867 22.492 C 11.964 22.327,11.980 22.257,11.980 22.000 C 11.980 21.746,11.963 21.672,11.872 21.516 C 11.761 21.328,11.572 21.158,11.373 21.070 C 11.287 21.032,10.483 21.015,7.980 21.000 L 4.700 20.980 4.516 20.872 C 4.415 20.813,4.284 20.700,4.225 20.623 C 3.989 20.314,4.000 20.557,4.000 15.575 L 4.000 11.000 12.035 11.000 L 20.070 11.000 20.165 11.140 C 20.369 11.440,20.775 11.631,21.113 11.584 C 21.352 11.552,21.531 11.459,21.717 11.273 C 22.012 10.978,22.005 11.059,21.991 8.074 L 21.979 5.420 21.885 5.140 C 21.559 4.159,20.813 3.417,19.861 3.124 C 19.555 3.030,19.482 3.025,18.273 3.009 L 17.007 2.993 16.993 2.347 C 16.981 1.726,16.976 1.693,16.871 1.514 C 16.479 0.848,15.521 0.848,15.129 1.514 C 15.024 1.693,15.019 1.726,15.007 2.350 L 14.993 3.000 12.000 3.000 L 9.007 3.000 8.993 2.350 C 8.981 1.728,8.975 1.692,8.872 1.516 C 8.628 1.101,8.150 0.915,7.695 1.057 M7.007 5.653 C 7.020 6.300,7.021 6.308,7.141 6.503 C 7.543 7.156,8.457 7.156,8.859 6.503 C 8.979 6.308,8.980 6.300,8.993 5.653 L 9.007 5.000 12.000 5.000 L 14.993 5.000 15.007 5.653 C 15.020 6.300,15.021 6.308,15.141 6.503 C 15.543 7.156,16.457 7.156,16.859 6.503 C 16.979 6.308,16.980 6.300,16.993 5.653 L 17.007 5.000 18.056 5.000 C 19.297 5.000,19.416 5.022,19.697 5.303 C 19.993 5.599,20.000 5.650,20.000 7.447 L 20.000 9.000 12.000 9.000 L 4.000 9.000 4.000 7.447 C 4.000 5.649,4.007 5.599,4.304 5.303 C 4.582 5.024,4.681 5.006,5.927 5.003 L 6.993 5.000 7.007 5.653 M16.147 13.361 C 16.024 13.398,15.779 13.572,15.672 13.699 C 15.499 13.904,15.427 14.407,15.534 14.659 C 15.585 14.777,15.582 14.781,15.182 15.182 L 14.780 15.586 14.640 15.528 C 14.546 15.490,14.414 15.477,14.239 15.489 C 13.704 15.528,13.314 15.936,13.314 16.458 C 13.314 16.850,13.558 17.239,13.892 17.379 L 14.010 17.429 14.010 18.001 L 14.010 18.573 13.855 18.651 C 13.629 18.765,13.497 18.903,13.400 19.129 C 13.190 19.617,13.390 20.187,13.854 20.427 C 14.032 20.519,14.466 20.544,14.640 20.472 L 14.780 20.414 15.182 20.818 L 15.585 21.222 15.528 21.361 C 15.457 21.535,15.482 21.970,15.573 22.146 C 15.668 22.330,15.875 22.522,16.072 22.609 C 16.546 22.819,17.183 22.575,17.379 22.108 L 17.429 21.990 18.000 21.990 L 18.571 21.990 18.621 22.108 C 18.817 22.576,19.454 22.819,19.931 22.608 C 20.394 22.403,20.634 21.845,20.467 21.360 L 20.419 21.220 20.820 20.817 L 21.220 20.414 21.360 20.472 C 21.534 20.544,21.968 20.519,22.146 20.427 C 22.610 20.187,22.810 19.617,22.600 19.129 C 22.503 18.903,22.371 18.765,22.145 18.651 L 21.990 18.573 21.990 18.001 L 21.990 17.429 22.108 17.379 C 22.442 17.239,22.686 16.850,22.686 16.458 C 22.686 16.100,22.509 15.803,22.170 15.594 C 21.991 15.483,21.557 15.448,21.361 15.528 L 21.222 15.585 20.818 15.182 L 20.414 14.780 20.472 14.640 C 20.543 14.467,20.519 14.032,20.429 13.857 C 20.262 13.535,19.905 13.320,19.537 13.321 C 19.149 13.322,18.805 13.526,18.645 13.848 L 18.562 14.016 17.997 14.018 L 17.433 14.020 17.382 13.900 C 17.198 13.459,16.636 13.214,16.147 13.361 M18.408 16.044 C 18.979 16.163,19.546 16.606,19.793 17.125 C 20.054 17.672,20.054 18.326,19.794 18.875 C 19.606 19.270,19.193 19.664,18.778 19.842 C 18.478 19.971,18.434 19.978,18.000 19.978 C 17.566 19.978,17.522 19.971,17.222 19.842 C 16.642 19.593,16.172 19.022,16.044 18.408 C 15.905 17.743,16.105 17.087,16.596 16.597 C 17.090 16.105,17.743 15.906,18.408 16.044 " stroke="none" fill-rule="evenodd" fill="#000000"></path></svg>