<svg  xmlns="http://www.w3.org/2000/svg" width="24" height="24" viewBox="0 0 24 24" fill="none" stroke="currentColor" stroke-width="2" stroke-linecap="round" stroke-linejoin="round"><path d="M6.460 2.057 C 5.356 2.275,4.525 3.000,4.156 4.067 L 4.020 4.460 4.009 11.892 C 3.998 20.058,3.982 19.503,4.240 20.146 C 4.556 20.936,5.217 21.550,6.065 21.843 C 6.439 21.972,6.489 21.979,7.000 21.978 C 7.919 21.976,7.451 22.218,14.400 18.163 C 17.733 16.218,20.559 14.560,20.680 14.478 C 21.211 14.120,21.623 13.572,21.842 12.935 C 21.971 12.561,21.978 12.511,21.978 12.000 C 21.977 11.499,21.968 11.432,21.848 11.074 C 21.632 10.428,21.182 9.844,20.623 9.484 C 20.146 9.177,8.535 2.425,8.260 2.295 C 8.106 2.222,7.872 2.135,7.740 2.101 C 7.392 2.011,6.794 1.991,6.460 2.057 M7.284 4.046 C 7.359 4.071,10.156 5.687,13.499 7.636 C 17.570 10.009,19.627 11.230,19.726 11.331 C 20.084 11.699,20.083 12.301,19.724 12.671 C 19.623 12.775,17.635 13.956,13.520 16.356 C 10.190 18.299,7.394 19.914,7.308 19.944 C 6.961 20.067,6.579 19.973,6.303 19.697 C 5.974 19.368,6.000 20.025,6.000 12.000 C 6.000 3.974,5.974 4.632,6.304 4.303 C 6.571 4.035,6.955 3.935,7.284 4.046 " stroke="none" fill-rule="evenodd" fill="#000000"></path></svg>