<svg  xmlns="http://www.w3.org/2000/svg" width="24" height="24" viewBox="0 0 24 24" fill="none" stroke="currentColor" stroke-width="2" stroke-linecap="round" stroke-linejoin="round"><path d="M10.903 3.040 C 7.597 3.299,4.664 4.430,2.100 6.436 C 1.438 6.953,1.105 7.298,1.041 7.531 C 0.867 8.168,1.339 8.810,1.982 8.811 C 2.297 8.812,2.462 8.734,2.858 8.400 C 4.581 6.942,6.489 5.952,8.591 5.425 C 9.769 5.130,10.670 5.024,12.000 5.024 C 13.295 5.024,14.191 5.126,15.323 5.402 C 17.460 5.924,19.382 6.914,21.145 8.403 C 21.538 8.734,21.703 8.812,22.018 8.811 C 22.658 8.810,23.113 8.202,22.959 7.554 C 22.916 7.370,22.868 7.300,22.624 7.059 C 22.246 6.686,21.507 6.113,20.820 5.661 C 18.642 4.228,16.334 3.395,13.720 3.099 C 13.069 3.025,11.507 2.993,10.903 3.040 M11.420 8.024 C 9.436 8.147,7.621 8.738,6.000 9.790 C 5.096 10.377,4.132 11.243,4.047 11.545 C 3.974 11.799,3.991 12.039,4.095 12.260 C 4.277 12.643,4.593 12.847,5.003 12.845 C 5.316 12.844,5.481 12.765,5.831 12.450 C 6.981 11.411,8.218 10.716,9.600 10.333 C 10.526 10.076,11.691 9.962,12.624 10.038 C 13.823 10.134,14.678 10.353,15.791 10.847 C 16.324 11.083,16.511 11.116,16.790 11.023 C 17.383 10.826,17.660 10.181,17.387 9.634 C 17.257 9.375,17.078 9.237,16.564 9.003 C 15.560 8.545,14.479 8.239,13.380 8.100 C 12.915 8.042,11.824 8.000,11.420 8.024 M10.400 13.217 C 9.944 13.346,9.700 13.445,9.197 13.706 C 8.482 14.076,7.745 14.683,7.593 15.026 C 7.419 15.419,7.519 15.886,7.840 16.175 C 7.989 16.309,8.314 16.440,8.500 16.440 C 8.703 16.440,9.000 16.312,9.186 16.145 C 9.754 15.636,10.313 15.320,10.969 15.138 C 11.433 15.009,11.622 14.882,11.782 14.592 C 11.994 14.207,11.928 13.731,11.619 13.421 C 11.322 13.125,10.950 13.063,10.400 13.217 M16.048 13.405 C 15.847 13.505,15.664 13.677,15.573 13.854 C 15.482 14.030,15.457 14.465,15.528 14.639 L 15.585 14.778 15.182 15.182 L 14.780 15.586 14.640 15.528 C 14.546 15.490,14.414 15.477,14.239 15.489 C 13.704 15.528,13.314 15.936,13.314 16.458 C 13.314 16.850,13.558 17.239,13.892 17.379 L 14.010 17.429 14.010 18.001 L 14.010 18.573 13.855 18.651 C 13.513 18.823,13.314 19.151,13.314 19.542 C 13.314 20.213,13.996 20.689,14.640 20.467 L 14.780 20.419 15.183 20.820 L 15.586 21.220 15.528 21.360 C 15.456 21.534,15.481 21.968,15.573 22.146 C 15.668 22.330,15.875 22.522,16.072 22.609 C 16.546 22.819,17.183 22.575,17.379 22.108 L 17.429 21.990 18.000 21.990 L 18.571 21.990 18.621 22.108 C 18.817 22.576,19.454 22.819,19.931 22.608 C 20.394 22.403,20.634 21.845,20.467 21.360 L 20.419 21.220 20.820 20.817 L 21.220 20.414 21.360 20.472 C 21.534 20.544,21.968 20.519,22.146 20.427 C 22.610 20.187,22.810 19.617,22.600 19.129 C 22.503 18.903,22.371 18.765,22.145 18.651 L 21.990 18.573 21.990 18.001 L 21.990 17.429 22.108 17.379 C 22.442 17.239,22.686 16.850,22.686 16.458 C 22.686 16.100,22.509 15.803,22.170 15.594 C 21.991 15.483,21.557 15.448,21.361 15.528 L 21.222 15.585 20.818 15.182 L 20.414 14.780 20.472 14.640 C 20.543 14.467,20.519 14.032,20.429 13.857 C 20.262 13.535,19.905 13.320,19.537 13.321 C 19.148 13.322,18.800 13.529,18.644 13.851 L 18.563 14.020 18.000 14.018 L 17.438 14.016 17.355 13.848 C 17.131 13.395,16.500 13.181,16.048 13.405 M18.408 16.044 C 18.979 16.163,19.546 16.606,19.793 17.125 C 20.054 17.672,20.054 18.326,19.794 18.875 C 19.606 19.270,19.193 19.664,18.778 19.842 C 18.478 19.971,18.434 19.978,18.000 19.978 C 17.566 19.978,17.522 19.971,17.222 19.842 C 16.642 19.593,16.172 19.022,16.044 18.408 C 15.905 17.743,16.105 17.087,16.596 16.597 C 17.090 16.105,17.743 15.906,18.408 16.044 " stroke="none" fill-rule="evenodd" fill="#000000"></path></svg>