<svg  xmlns="http://www.w3.org/2000/svg" width="24" height="24" viewBox="0 0 24 24" fill="none" stroke="currentColor" stroke-width="2" stroke-linecap="round" stroke-linejoin="round"><path d="M5.499 1.043 C 4.379 1.234,3.461 2.048,3.114 3.160 L 3.020 3.460 3.020 12.000 L 3.020 20.540 3.114 20.840 C 3.419 21.816,4.152 22.557,5.140 22.885 C 5.420 22.978,5.424 22.978,7.954 22.991 C 10.784 23.005,10.728 23.010,11.015 22.732 C 11.249 22.505,11.337 22.304,11.337 22.000 C 11.337 21.607,11.148 21.303,10.781 21.106 C 10.623 21.021,10.581 21.020,8.160 21.000 L 5.700 20.980 5.516 20.872 C 5.415 20.813,5.284 20.700,5.225 20.623 C 4.985 20.308,5.000 20.888,5.000 12.022 C 5.000 2.889,4.974 3.632,5.303 3.303 C 5.621 2.986,5.423 3.000,9.447 3.000 L 13.000 3.000 13.000 5.132 C 13.000 7.443,13.004 7.494,13.225 7.930 C 13.361 8.199,13.801 8.639,14.070 8.775 C 14.506 8.996,14.557 9.000,16.865 9.000 L 18.993 9.000 19.007 9.653 C 19.020 10.300,19.021 10.308,19.141 10.503 C 19.543 11.156,20.457 11.156,20.859 10.503 L 20.980 10.306 20.979 8.863 L 20.978 7.420 20.867 7.060 C 20.729 6.614,20.498 6.180,20.219 5.840 C 19.855 5.397,16.159 1.747,15.910 1.585 C 15.591 1.378,15.236 1.218,14.860 1.111 L 14.540 1.021 10.120 1.015 C 7.689 1.011,5.609 1.024,5.499 1.043 M16.800 5.220 L 18.580 7.000 16.790 7.000 L 15.000 7.000 15.000 5.220 C 15.000 4.241,15.005 3.440,15.010 3.440 C 15.016 3.440,15.821 4.241,16.800 5.220 M15.499 13.043 C 14.382 13.230,13.454 14.054,13.115 15.160 C 13.045 15.390,13.023 15.559,13.022 15.883 C 13.020 16.285,13.026 16.315,13.141 16.503 C 13.538 17.149,14.457 17.156,14.850 16.518 C 14.931 16.386,14.972 16.252,14.996 16.038 C 15.038 15.666,15.110 15.493,15.301 15.301 C 15.491 15.112,15.645 15.048,16.028 14.999 C 16.392 14.953,16.631 14.827,16.802 14.591 C 17.207 14.032,16.947 13.253,16.290 13.055 C 16.090 12.995,15.811 12.991,15.499 13.043 M19.695 13.054 C 19.048 13.267,18.799 14.040,19.198 14.591 C 19.369 14.827,19.608 14.953,19.972 14.999 C 20.355 15.048,20.509 15.112,20.699 15.301 C 20.889 15.491,20.952 15.645,21.001 16.031 C 21.049 16.410,21.184 16.647,21.452 16.828 C 21.923 17.144,22.554 16.998,22.859 16.503 C 22.974 16.315,22.980 16.285,22.978 15.883 C 22.977 15.559,22.955 15.390,22.885 15.160 C 22.586 14.184,21.809 13.404,20.863 13.130 C 20.463 13.015,19.922 12.979,19.695 13.054 M13.695 19.057 C 13.466 19.129,13.256 19.299,13.128 19.516 C 13.029 19.685,13.020 19.734,13.022 20.120 C 13.023 20.440,13.045 20.611,13.115 20.840 C 13.413 21.812,14.179 22.584,15.137 22.877 C 15.481 22.982,16.040 23.026,16.264 22.965 C 16.498 22.901,16.737 22.714,16.867 22.492 C 16.964 22.327,16.980 22.257,16.980 22.000 C 16.980 21.746,16.963 21.672,16.872 21.516 C 16.758 21.323,16.561 21.149,16.375 21.078 C 16.314 21.055,16.130 21.019,15.966 20.998 C 15.623 20.955,15.387 20.835,15.226 20.625 C 15.081 20.434,15.037 20.309,14.997 19.966 C 14.942 19.488,14.701 19.179,14.290 19.055 C 14.068 18.988,13.913 18.989,13.695 19.057 M21.695 19.057 C 21.298 19.181,21.062 19.491,21.002 19.966 C 20.957 20.320,20.916 20.438,20.774 20.625 C 20.613 20.835,20.377 20.955,20.034 20.998 C 19.870 21.019,19.686 21.055,19.625 21.078 C 19.439 21.149,19.242 21.323,19.128 21.516 C 19.037 21.672,19.020 21.746,19.020 22.000 C 19.020 22.257,19.036 22.327,19.133 22.492 C 19.263 22.714,19.502 22.901,19.736 22.965 C 19.960 23.026,20.519 22.982,20.863 22.877 C 21.821 22.584,22.587 21.812,22.885 20.840 C 22.955 20.611,22.977 20.440,22.978 20.120 C 22.980 19.734,22.971 19.685,22.872 19.516 C 22.628 19.101,22.150 18.915,21.695 19.057 " stroke="none" fill-rule="evenodd" fill="#000000"></path></svg>