<svg  xmlns="http://www.w3.org/2000/svg" width="24" height="24" viewBox="0 0 24 24" fill="none" stroke="currentColor" stroke-width="2" stroke-linecap="round" stroke-linejoin="round"><path d="M2.695 3.057 C 2.466 3.129,2.256 3.299,2.128 3.516 L 2.020 3.700 2.020 10.620 L 2.020 17.540 2.114 17.840 C 2.418 18.816,3.149 19.554,4.140 19.886 L 4.420 19.980 11.498 19.991 L 18.576 20.002 17.873 20.711 C 17.486 21.101,17.136 21.483,17.096 21.560 C 17.043 21.660,17.021 21.787,17.021 22.000 C 17.020 22.258,17.036 22.327,17.133 22.492 C 17.263 22.714,17.502 22.901,17.736 22.965 C 17.939 23.019,18.267 22.989,18.445 22.899 C 18.519 22.862,19.306 22.109,20.194 21.226 C 21.957 19.472,21.999 19.420,21.999 19.000 C 21.999 18.578,21.960 18.530,20.175 16.756 C 18.716 15.307,18.519 15.124,18.343 15.066 C 17.863 14.906,17.382 15.084,17.128 15.516 C 17.036 15.672,17.020 15.745,17.021 16.000 C 17.021 16.213,17.043 16.340,17.096 16.440 C 17.136 16.517,17.486 16.900,17.874 17.290 L 18.578 18.001 11.639 17.990 L 4.700 17.980 4.516 17.872 C 4.328 17.761,4.158 17.572,4.070 17.373 C 4.031 17.285,4.016 15.785,4.000 10.480 L 3.980 3.700 3.872 3.516 C 3.628 3.101,3.150 2.915,2.695 3.057 M6.695 3.057 C 6.466 3.129,6.256 3.299,6.128 3.516 C 6.037 3.672,6.020 3.746,6.020 4.000 C 6.020 4.256,6.036 4.328,6.131 4.489 C 6.256 4.702,6.449 4.864,6.670 4.943 C 6.892 5.022,15.108 5.022,15.330 4.943 C 15.551 4.864,15.744 4.702,15.869 4.489 C 15.964 4.328,15.980 4.256,15.980 4.000 C 15.980 3.746,15.963 3.672,15.872 3.516 C 15.740 3.293,15.533 3.128,15.290 3.055 C 15.029 2.976,6.946 2.979,6.695 3.057 M6.695 8.057 C 6.466 8.129,6.256 8.299,6.128 8.516 C 6.037 8.672,6.020 8.746,6.020 9.000 C 6.020 9.256,6.036 9.328,6.131 9.489 C 6.256 9.702,6.449 9.864,6.670 9.943 C 6.892 10.022,19.108 10.022,19.330 9.943 C 19.551 9.864,19.744 9.702,19.869 9.489 C 19.964 9.328,19.980 9.256,19.980 9.000 C 19.980 8.746,19.963 8.672,19.872 8.516 C 19.740 8.293,19.533 8.128,19.290 8.055 C 19.028 7.976,6.947 7.978,6.695 8.057 M6.695 13.057 C 6.466 13.129,6.256 13.299,6.128 13.516 C 6.037 13.672,6.020 13.746,6.020 14.000 C 6.020 14.256,6.036 14.328,6.131 14.489 C 6.256 14.702,6.449 14.864,6.670 14.943 C 6.891 15.022,14.109 15.022,14.330 14.943 C 14.551 14.864,14.744 14.702,14.869 14.489 C 14.964 14.328,14.980 14.256,14.980 14.000 C 14.980 13.746,14.963 13.672,14.872 13.516 C 14.740 13.293,14.533 13.128,14.290 13.055 C 14.030 12.977,6.945 12.979,6.695 13.057 " stroke="none" fill-rule="evenodd" fill="#000000"></path></svg>