<svg  xmlns="http://www.w3.org/2000/svg" width="24" height="24" viewBox="0 0 24 24" fill="none" stroke="currentColor" stroke-width="2" stroke-linecap="round" stroke-linejoin="round"><path d="M5.873 1.063 C 5.147 1.194,4.470 1.562,3.958 2.105 C 3.562 2.524,3.318 2.949,3.130 3.548 L 3.020 3.900 3.020 12.000 L 3.020 20.100 3.130 20.452 C 3.511 21.666,4.334 22.489,5.548 22.870 L 5.900 22.980 12.560 22.991 C 17.107 22.998,19.284 22.988,19.422 22.960 C 19.938 22.852,20.538 22.398,20.771 21.937 C 21.015 21.455,21.000 22.127,20.999 12.014 C 20.999 1.974,21.011 2.536,20.781 2.083 C 20.646 1.816,20.297 1.449,20.017 1.281 C 19.527 0.986,20.016 1.004,12.720 1.006 C 7.322 1.007,6.126 1.017,5.873 1.063 M19.000 9.500 L 19.000 16.000 12.625 16.000 C 5.699 16.000,5.896 15.994,5.296 16.220 C 5.150 16.275,5.023 16.320,5.014 16.320 C 5.006 16.320,5.003 13.580,5.009 10.230 L 5.020 4.140 5.132 3.900 C 5.330 3.475,5.756 3.124,6.174 3.042 C 6.265 3.024,9.189 3.007,12.670 3.004 L 19.000 3.000 19.000 9.500 M9.780 5.026 C 8.696 5.199,7.771 5.885,7.320 6.851 C 7.075 7.375,7.022 7.622,7.022 8.240 C 7.022 8.823,7.074 9.090,7.272 9.540 C 7.502 10.063,7.559 10.133,9.465 12.200 C 10.145 12.937,10.787 13.597,10.891 13.667 C 11.255 13.911,11.488 13.976,12.000 13.976 C 12.512 13.976,12.745 13.911,13.109 13.667 C 13.281 13.552,15.488 11.201,16.159 10.419 C 17.124 9.292,17.262 7.856,16.526 6.580 C 16.349 6.274,15.732 5.658,15.420 5.476 C 14.870 5.156,14.388 5.026,13.740 5.026 C 13.175 5.025,12.786 5.116,12.295 5.362 C 11.993 5.514,11.986 5.516,11.884 5.446 C 11.730 5.341,11.331 5.173,11.059 5.099 C 10.823 5.034,10.016 4.988,9.780 5.026 M10.778 7.119 C 10.883 7.170,11.083 7.325,11.222 7.463 C 11.729 7.968,12.266 7.969,12.775 7.468 C 13.108 7.140,13.369 7.022,13.760 7.024 C 14.118 7.025,14.372 7.130,14.621 7.379 C 14.870 7.628,14.975 7.882,14.976 8.240 C 14.978 8.740,14.929 8.812,13.636 10.221 C 13.011 10.902,12.388 11.576,12.250 11.719 L 12.000 11.980 11.750 11.719 C 10.781 10.709,9.197 8.935,9.116 8.771 C 8.981 8.496,8.980 7.978,9.115 7.720 C 9.283 7.397,9.575 7.148,9.920 7.035 C 10.105 6.974,10.574 7.020,10.778 7.119 M19.000 19.500 L 19.000 21.001 12.570 20.990 L 6.140 20.980 5.900 20.868 C 5.583 20.720,5.275 20.413,5.135 20.104 C 5.040 19.896,5.024 19.808,5.024 19.500 C 5.023 19.191,5.039 19.106,5.134 18.900 C 5.328 18.477,5.755 18.124,6.174 18.042 C 6.265 18.024,9.189 18.007,12.670 18.004 L 19.000 18.000 19.000 19.500 " stroke="none" fill-rule="evenodd" fill="#000000"></path></svg>