<svg  xmlns="http://www.w3.org/2000/svg" width="24" height="24" viewBox="0 0 24 24" fill="none" stroke="currentColor" stroke-width="2" stroke-linecap="round" stroke-linejoin="round"><path d="M1.670 1.061 C 1.448 1.142,1.250 1.309,1.128 1.516 C 1.036 1.672,1.020 1.745,1.021 2.000 C 1.021 2.213,1.043 2.341,1.095 2.440 C 1.136 2.517,1.762 3.176,2.488 3.904 L 3.807 5.229 3.554 5.372 C 2.871 5.755,2.351 6.401,2.114 7.160 L 2.020 7.460 2.020 10.000 L 2.020 12.540 2.114 12.840 C 2.486 14.032,3.522 14.885,4.718 14.985 L 5.032 15.011 5.058 15.275 C 5.254 17.243,5.952 19.270,7.007 20.936 C 7.663 21.972,8.058 22.388,8.660 22.680 C 9.164 22.924,9.417 22.978,10.040 22.976 C 10.514 22.975,10.619 22.962,10.901 22.869 C 11.689 22.608,12.370 22.015,12.702 21.300 C 12.889 20.899,12.961 20.599,12.986 20.120 C 13.025 19.368,12.882 18.924,12.337 18.111 C 11.894 17.449,11.579 16.848,11.387 16.296 C 11.259 15.927,11.080 15.207,11.080 15.061 C 11.080 15.011,11.148 15.000,11.470 15.001 C 11.940 15.002,12.879 15.089,13.423 15.183 L 13.820 15.251 17.620 19.042 C 19.710 21.126,21.483 22.865,21.560 22.905 C 21.659 22.957,21.788 22.979,22.000 22.979 C 22.258 22.980,22.327 22.964,22.492 22.867 C 22.968 22.587,23.139 21.967,22.865 21.508 C 22.810 21.416,18.215 16.793,12.653 11.235 C 3.300 1.889,2.525 1.125,2.343 1.065 C 2.107 0.987,1.874 0.986,1.670 1.061 M19.680 2.027 C 19.350 2.079,18.995 2.261,18.457 2.654 C 16.482 4.094,14.422 4.826,11.869 4.997 C 11.385 5.029,11.295 5.047,11.140 5.138 C 10.529 5.496,10.472 6.367,11.032 6.789 C 11.285 6.979,11.462 7.014,12.040 6.985 C 14.738 6.852,17.527 5.856,19.630 4.276 L 20.000 3.998 20.000 9.745 C 20.000 14.068,20.012 15.530,20.048 15.649 C 20.115 15.874,20.402 16.179,20.627 16.265 C 20.862 16.355,21.138 16.355,21.373 16.265 C 21.598 16.179,21.885 15.874,21.952 15.649 C 21.988 15.530,22.000 14.043,22.000 9.634 C 22.000 3.239,22.012 3.580,21.772 3.080 C 21.636 2.796,21.209 2.374,20.913 2.230 C 20.507 2.034,20.080 1.963,19.680 2.027 M6.290 7.710 L 7.000 8.421 7.000 10.713 L 7.000 13.005 5.850 12.992 L 4.700 12.980 4.516 12.872 C 4.415 12.813,4.284 12.700,4.225 12.623 C 4.000 12.327,4.000 12.332,4.000 10.022 C 4.000 7.586,3.997 7.609,4.304 7.303 C 4.531 7.076,4.742 7.006,5.220 7.003 L 5.581 7.000 6.290 7.710 M10.300 11.720 L 11.580 13.000 10.290 13.000 L 9.000 13.000 9.000 11.720 C 9.000 11.016,9.005 10.440,9.010 10.440 C 9.016 10.440,9.596 11.016,10.300 11.720 M9.080 15.134 C 9.080 15.323,9.225 16.025,9.363 16.506 C 9.621 17.401,10.007 18.219,10.583 19.085 C 10.976 19.676,11.042 19.871,10.964 20.216 C 10.807 20.918,9.995 21.226,9.412 20.804 C 9.059 20.549,8.146 19.009,7.772 18.040 C 7.464 17.242,7.170 16.087,7.101 15.400 C 7.086 15.257,7.065 15.108,7.054 15.070 C 7.036 15.005,7.102 15.000,8.057 15.000 L 9.080 15.000 9.080 15.134 " stroke="none" fill-rule="evenodd" fill="#000000"></path></svg>