<svg  xmlns="http://www.w3.org/2000/svg" width="24" height="24" viewBox="0 0 24 24" fill="none" stroke="currentColor" stroke-width="2" stroke-linecap="round" stroke-linejoin="round"><path d="M4.695 2.057 C 4.466 2.129,4.256 2.299,4.128 2.516 L 4.020 2.700 4.020 10.003 L 4.020 17.306 4.141 17.503 C 4.543 18.156,5.457 18.156,5.859 17.503 L 5.980 17.306 5.980 10.003 L 5.980 2.700 5.872 2.516 C 5.628 2.101,5.150 1.915,4.695 2.057 M11.695 2.057 C 11.466 2.129,11.256 2.299,11.128 2.516 L 11.020 2.700 11.020 7.003 L 11.020 11.306 11.141 11.503 C 11.543 12.156,12.457 12.156,12.859 11.503 L 12.980 11.306 12.980 7.003 L 12.980 2.700 12.872 2.516 C 12.628 2.101,12.150 1.915,11.695 2.057 M18.695 2.057 C 18.466 2.129,18.256 2.299,18.128 2.516 L 18.020 2.700 18.020 12.003 L 18.020 21.306 18.141 21.503 C 18.543 22.156,19.457 22.156,19.859 21.503 L 19.980 21.306 19.980 12.003 L 19.980 2.700 19.872 2.516 C 19.628 2.101,19.150 1.915,18.695 2.057 " stroke="none" fill-rule="evenodd" fill="#000000"></path></svg>