<svg  xmlns="http://www.w3.org/2000/svg" width="24" height="24" viewBox="0 0 24 24" fill="none" stroke="currentColor" stroke-width="2" stroke-linecap="round" stroke-linejoin="round"><path d="M1.670 1.061 C 1.448 1.142,1.250 1.309,1.128 1.516 C 1.036 1.672,1.020 1.745,1.021 2.000 C 1.021 2.212,1.043 2.341,1.095 2.440 C 1.135 2.517,1.862 3.276,2.710 4.126 L 4.251 5.672 4.071 5.906 C 3.174 7.073,2.500 8.546,2.206 9.980 C 2.019 10.893,2.020 10.877,2.020 15.320 L 2.020 19.540 2.114 19.840 C 2.422 20.827,3.173 21.578,4.160 21.886 C 4.442 21.974,4.521 21.980,5.500 21.980 C 6.479 21.980,6.558 21.974,6.840 21.886 C 7.827 21.578,8.578 20.827,8.886 19.840 C 8.979 19.542,8.980 19.527,8.980 17.500 C 8.980 15.473,8.979 15.458,8.886 15.160 C 8.580 14.180,7.824 13.420,6.861 13.124 C 6.554 13.030,6.482 13.025,5.264 13.009 L 3.989 12.993 4.012 12.067 C 4.025 11.510,4.060 10.988,4.099 10.760 C 4.244 9.898,4.504 9.105,4.887 8.352 C 5.091 7.952,5.621 7.120,5.672 7.120 C 5.687 7.120,7.792 9.213,10.348 11.770 L 14.996 16.420 15.010 18.000 C 15.023 19.521,15.027 19.590,15.116 19.860 C 15.439 20.844,16.183 21.581,17.160 21.886 C 17.443 21.975,17.520 21.980,18.520 21.980 L 19.580 21.980 19.940 21.853 L 20.300 21.727 20.860 22.278 C 21.168 22.582,21.483 22.863,21.560 22.904 C 21.660 22.957,21.786 22.979,22.000 22.979 C 22.258 22.980,22.327 22.964,22.492 22.867 C 22.968 22.587,23.139 21.967,22.865 21.508 C 22.810 21.416,18.215 16.793,12.653 11.235 C 3.300 1.889,2.525 1.125,2.343 1.065 C 2.107 0.987,1.874 0.986,1.670 1.061 M11.360 2.024 C 10.531 2.095,9.896 2.208,9.200 2.408 C 8.695 2.553,8.475 2.673,8.322 2.883 C 7.915 3.446,8.192 4.227,8.868 4.424 C 9.128 4.500,9.100 4.503,10.001 4.269 C 10.299 4.192,10.713 4.105,10.921 4.075 C 11.461 3.999,12.637 4.008,13.180 4.092 C 14.987 4.373,16.532 5.181,17.803 6.510 C 18.887 7.645,19.603 9.069,19.880 10.643 C 19.946 11.017,19.973 11.369,19.989 12.065 L 20.011 12.989 19.695 13.008 C 19.325 13.030,19.122 13.119,18.912 13.352 C 18.548 13.755,18.586 14.360,18.999 14.731 C 19.223 14.933,19.412 15.000,19.755 15.000 L 20.000 15.000 20.000 15.245 C 20.000 15.588,20.067 15.777,20.269 16.001 C 20.554 16.319,20.971 16.418,21.373 16.265 C 21.608 16.175,21.891 15.868,21.957 15.630 C 22.037 15.346,21.994 11.107,21.906 10.580 C 21.531 8.334,20.618 6.503,19.121 4.995 C 17.523 3.386,15.534 2.390,13.340 2.100 C 12.868 2.038,11.713 1.993,11.360 2.024 M6.310 15.061 C 6.589 15.144,6.856 15.411,6.939 15.690 C 7.024 15.976,7.029 19.010,6.945 19.290 C 6.872 19.533,6.707 19.740,6.484 19.872 C 6.301 19.980,6.297 19.980,5.500 19.980 C 4.703 19.980,4.699 19.980,4.516 19.872 C 4.415 19.813,4.284 19.700,4.225 19.623 C 4.000 19.328,4.000 19.328,4.000 17.075 L 4.000 15.000 5.053 15.000 C 5.879 15.000,6.150 15.013,6.310 15.061 M18.493 19.994 C 18.455 20.002,18.261 20.002,18.060 19.993 C 17.755 19.980,17.666 19.960,17.514 19.870 C 17.147 19.655,17.000 19.344,17.000 18.785 L 17.000 18.421 17.781 19.200 C 18.338 19.756,18.542 19.984,18.493 19.994 " stroke="none" fill-rule="evenodd" fill="#000000"></path></svg>