<svg  xmlns="http://www.w3.org/2000/svg" width="24" height="24" viewBox="0 0 24 24" fill="none" stroke="currentColor" stroke-width="2" stroke-linecap="round" stroke-linejoin="round"><path d="M8.499 4.043 C 7.393 4.228,6.488 5.024,6.114 6.140 L 6.020 6.420 6.009 11.968 L 5.998 17.515 5.769 17.659 C 5.445 17.862,5.091 17.963,4.620 17.987 C 3.942 18.022,3.473 17.878,2.960 17.479 C 2.370 17.018,2.179 16.947,1.778 17.037 C 1.002 17.211,0.743 18.159,1.319 18.718 C 1.565 18.958,2.199 19.407,2.500 19.556 C 3.476 20.039,4.784 20.133,5.860 19.798 C 6.458 19.612,6.778 19.425,7.735 18.703 C 8.535 18.099,8.743 18.021,9.540 18.024 C 10.324 18.027,10.500 18.100,11.400 18.801 C 11.675 19.015,12.028 19.272,12.185 19.373 C 13.168 20.008,14.640 20.178,15.860 19.798 C 16.458 19.612,16.778 19.425,17.735 18.703 C 18.535 18.099,18.743 18.021,19.540 18.024 C 20.283 18.026,20.501 18.109,21.230 18.665 C 21.412 18.803,21.628 18.935,21.710 18.958 C 22.317 19.127,22.924 18.723,22.988 18.108 C 23.034 17.663,22.874 17.401,22.292 16.961 C 21.797 16.587,21.202 16.281,20.743 16.162 C 19.908 15.947,18.868 15.968,18.090 16.217 L 18.000 16.245 18.000 11.570 C 18.000 6.334,17.984 6.630,18.283 6.321 C 18.484 6.114,18.636 6.049,19.028 5.999 C 19.392 5.953,19.631 5.827,19.802 5.591 C 20.220 5.013,19.923 4.204,19.232 4.038 C 18.821 3.939,18.053 4.091,17.559 4.368 C 16.879 4.751,16.358 5.391,16.118 6.140 C 16.042 6.379,16.026 6.536,16.010 7.210 L 15.991 8.000 11.995 8.000 L 8.000 8.000 8.000 7.447 C 8.000 6.769,8.053 6.559,8.283 6.321 C 8.484 6.114,8.636 6.049,9.028 5.999 C 9.392 5.953,9.631 5.827,9.802 5.591 C 10.207 5.032,9.947 4.253,9.290 4.055 C 9.090 3.995,8.811 3.991,8.499 4.043 M16.000 11.000 L 16.000 12.000 12.000 12.000 L 8.000 12.000 8.000 11.000 L 8.000 10.000 12.000 10.000 L 16.000 10.000 16.000 11.000 M16.000 15.757 L 16.000 17.514 15.770 17.658 C 15.445 17.862,15.092 17.963,14.620 17.987 C 13.943 18.022,13.475 17.879,12.960 17.480 C 12.046 16.771,11.822 16.616,11.460 16.439 C 11.240 16.332,10.917 16.207,10.743 16.162 C 9.908 15.947,8.868 15.968,8.090 16.217 L 8.000 16.245 8.000 15.123 L 8.000 14.000 12.000 14.000 L 16.000 14.000 16.000 15.757 " stroke="none" fill-rule="evenodd" fill="#000000"></path></svg>