<svg  xmlns="http://www.w3.org/2000/svg" width="24" height="24" viewBox="0 0 24 24" fill="none" stroke="currentColor" stroke-width="2" stroke-linecap="round" stroke-linejoin="round"><path d="M3.499 5.043 C 2.393 5.228,1.488 6.024,1.114 7.140 L 1.020 7.420 1.009 12.318 C 1.001 15.654,1.011 17.282,1.040 17.421 C 1.115 17.779,1.300 18.108,1.591 18.399 C 2.084 18.892,2.416 19.000,3.442 19.000 L 4.147 19.000 4.312 19.330 C 4.682 20.069,5.355 20.635,6.160 20.886 C 6.594 21.021,7.406 21.021,7.840 20.886 C 8.645 20.635,9.318 20.069,9.688 19.330 L 9.853 19.000 11.500 19.000 L 13.147 19.000 13.312 19.330 C 13.682 20.069,14.355 20.635,15.160 20.886 C 15.412 20.964,15.547 20.979,16.000 20.979 C 16.453 20.979,16.588 20.964,16.840 20.886 C 17.645 20.635,18.318 20.069,18.688 19.330 L 18.853 19.000 20.058 19.000 C 21.363 19.000,21.524 18.981,21.930 18.775 C 22.196 18.640,22.638 18.200,22.771 17.937 C 22.990 17.505,23.000 17.401,23.000 15.453 C 23.000 13.969,22.989 13.616,22.939 13.422 C 22.823 12.976,22.666 12.754,21.962 12.038 C 21.367 11.433,21.269 11.349,20.998 11.221 C 20.832 11.143,20.616 11.065,20.518 11.048 L 20.341 11.018 20.089 10.119 C 19.117 6.650,19.163 6.765,18.479 6.081 C 17.896 5.498,17.228 5.147,16.499 5.042 C 16.156 4.992,3.795 4.993,3.499 5.043 M12.000 9.132 C 12.000 11.443,12.004 11.494,12.225 11.930 C 12.361 12.199,12.801 12.639,13.070 12.775 C 13.521 13.004,13.461 13.000,16.918 13.000 L 20.099 13.000 20.549 13.449 L 21.000 13.899 21.000 15.449 L 21.000 17.000 19.927 17.000 L 18.853 17.000 18.688 16.670 C 18.321 15.938,17.642 15.363,16.861 15.125 C 16.588 15.042,16.458 15.027,16.000 15.027 C 15.542 15.027,15.412 15.042,15.139 15.125 C 14.358 15.363,13.679 15.938,13.312 16.670 L 13.147 17.000 11.500 17.000 L 9.853 17.000 9.688 16.670 C 9.321 15.938,8.642 15.363,7.861 15.125 C 7.588 15.042,7.458 15.027,7.000 15.027 C 6.542 15.027,6.412 15.042,6.139 15.125 C 5.358 15.363,4.679 15.938,4.312 16.670 L 4.147 17.000 3.573 17.000 L 3.000 17.000 3.000 12.447 C 3.000 7.307,2.981 7.625,3.304 7.303 C 3.618 6.989,3.352 7.006,7.930 7.003 L 12.000 7.000 12.000 9.132 M16.612 7.156 C 16.919 7.312,17.247 7.634,17.359 7.890 C 17.418 8.024,18.099 10.392,18.222 10.890 L 18.249 11.000 16.124 11.000 L 14.000 11.000 14.000 8.997 L 14.000 6.995 15.172 7.007 L 16.344 7.020 16.612 7.156 M7.310 17.061 C 7.688 17.173,8.000 17.598,8.000 18.001 C 8.000 18.331,7.784 18.696,7.484 18.872 C 7.328 18.963,7.254 18.980,7.000 18.980 C 6.746 18.980,6.672 18.963,6.516 18.872 C 5.935 18.530,5.833 17.774,6.304 17.303 C 6.583 17.024,6.916 16.944,7.310 17.061 M16.310 17.061 C 16.688 17.173,17.000 17.598,17.000 18.001 C 17.000 18.331,16.784 18.696,16.484 18.872 C 16.328 18.963,16.254 18.980,16.000 18.980 C 15.746 18.980,15.672 18.963,15.516 18.872 C 14.932 18.528,14.831 17.775,15.307 17.299 C 15.582 17.024,15.918 16.944,16.310 17.061 " stroke="none" fill-rule="evenodd" fill="#000000"></path></svg>