<svg  xmlns="http://www.w3.org/2000/svg" width="24" height="24" viewBox="0 0 24 24" fill="none" stroke="currentColor" stroke-width="2" stroke-linecap="round" stroke-linejoin="round"><path d="M17.723 2.047 C 17.647 2.068,17.512 2.137,17.423 2.200 C 17.333 2.263,14.840 4.736,11.882 7.695 L 6.504 13.076 6.019 12.604 C 5.637 12.232,5.494 12.119,5.340 12.066 C 4.866 11.905,4.382 12.084,4.128 12.516 C 4.036 12.672,4.020 12.745,4.021 13.000 C 4.021 13.213,4.043 13.341,4.095 13.440 C 4.136 13.517,4.711 14.125,5.374 14.790 L 6.579 16.001 5.293 17.287 L 4.007 18.573 3.759 18.349 C 3.395 18.019,3.056 17.927,2.684 18.058 C 2.450 18.141,2.253 18.303,2.128 18.516 C 2.036 18.672,2.020 18.745,2.021 19.000 C 2.021 19.213,2.043 19.341,2.095 19.440 C 2.194 19.627,4.294 21.739,4.508 21.866 C 4.968 22.138,5.587 21.968,5.867 21.492 C 5.964 21.327,5.980 21.258,5.979 21.000 C 5.978 20.646,5.924 20.524,5.627 20.210 L 5.424 19.996 6.712 18.708 L 7.999 17.421 9.210 18.626 C 9.875 19.289,10.481 19.862,10.555 19.899 C 11.009 20.128,11.601 19.944,11.867 19.492 C 11.964 19.327,11.980 19.257,11.980 19.000 C 11.980 18.609,11.900 18.473,11.343 17.921 L 10.920 17.501 16.395 12.021 C 21.542 6.869,21.875 6.528,21.937 6.335 C 21.995 6.154,22.002 5.922,21.992 4.415 L 21.980 2.700 21.872 2.516 C 21.813 2.415,21.698 2.282,21.618 2.221 C 21.340 2.009,21.249 2.000,19.484 2.004 C 18.550 2.006,17.802 2.024,17.723 2.047 M20.000 4.790 L 20.000 5.580 14.750 10.830 L 9.500 16.080 8.710 15.290 L 7.920 14.500 13.170 9.250 L 18.420 4.000 19.210 4.000 L 20.000 4.000 20.000 4.790 " stroke="none" fill-rule="evenodd" fill="#000000"></path></svg>