<svg  xmlns="http://www.w3.org/2000/svg" width="24" height="24" viewBox="0 0 24 24" fill="none" stroke="currentColor" stroke-width="2" stroke-linecap="round" stroke-linejoin="round"><path d="M11.069 1.042 C 8.919 1.233,6.934 2.015,5.200 3.354 C 4.676 3.759,3.628 4.830,3.211 5.387 C 1.362 7.858,0.630 10.961,1.182 13.983 C 1.465 15.529,2.117 17.080,3.011 18.336 C 3.779 19.414,4.797 20.409,5.871 21.131 C 8.744 23.063,12.409 23.528,15.660 22.373 C 17.188 21.830,18.498 21.011,19.675 19.862 C 20.927 18.639,21.762 17.336,22.384 15.636 C 22.621 14.988,22.582 14.628,22.237 14.283 C 21.957 14.003,22.150 14.020,19.180 14.020 C 16.502 14.020,16.500 14.020,16.178 14.112 C 15.219 14.387,14.444 15.149,14.115 16.140 C 14.023 16.417,14.022 16.444,14.009 18.604 L 13.996 20.788 13.728 20.835 C 13.275 20.915,12.516 21.000,12.254 21.000 L 12.005 21.000 11.991 19.210 C 11.977 17.467,11.974 17.413,11.884 17.140 C 11.694 16.564,11.381 16.098,10.911 15.695 C 10.432 15.284,9.877 15.070,9.121 15.005 C 8.624 14.963,8.417 14.874,8.226 14.625 C 8.042 14.384,8.027 14.299,7.998 13.340 C 7.974 12.550,7.958 12.381,7.881 12.140 C 7.574 11.175,6.814 10.417,5.861 10.124 C 5.559 10.032,5.472 10.025,4.390 10.009 C 3.626 9.998,3.240 9.979,3.240 9.951 C 3.240 9.852,3.493 9.047,3.642 8.670 C 3.949 7.894,4.470 7.002,5.003 6.342 C 5.269 6.012,5.954 5.300,5.980 5.327 C 5.988 5.335,6.033 5.530,6.080 5.760 C 6.357 7.119,7.244 8.192,8.512 8.704 C 9.286 9.016,10.122 9.084,10.495 8.865 C 11.248 8.424,11.121 7.305,10.290 7.055 C 10.189 7.025,10.024 7.000,9.922 7.000 C 9.112 7.000,8.287 6.341,8.073 5.523 C 8.022 5.328,8.004 5.089,8.002 4.595 L 8.000 3.931 8.270 3.810 C 9.374 3.318,10.381 3.084,11.726 3.006 C 12.259 2.975,12.330 2.962,12.498 2.863 C 13.248 2.424,13.119 1.304,12.290 1.055 C 12.094 0.996,11.642 0.991,11.069 1.042 M17.499 1.040 C 16.373 1.244,15.470 2.041,15.118 3.140 C 15.042 3.378,15.026 3.536,15.010 4.202 L 14.991 4.983 14.685 5.032 C 14.259 5.099,13.918 5.275,13.596 5.597 C 13.310 5.882,13.154 6.147,13.060 6.508 C 12.972 6.844,12.972 10.156,13.060 10.492 C 13.153 10.852,13.310 11.118,13.596 11.404 C 13.882 11.690,14.148 11.847,14.508 11.940 C 14.850 12.029,21.150 12.029,21.492 11.940 C 21.852 11.847,22.118 11.690,22.404 11.404 C 22.694 11.114,22.841 10.863,22.937 10.491 C 23.027 10.144,23.029 6.909,22.940 6.529 C 22.852 6.156,22.699 5.891,22.404 5.597 C 22.082 5.275,21.741 5.099,21.315 5.032 L 21.009 4.983 20.990 4.202 C 20.974 3.536,20.958 3.378,20.882 3.140 C 20.571 2.170,19.801 1.404,18.861 1.129 C 18.500 1.023,17.832 0.980,17.499 1.040 M18.310 3.061 C 18.452 3.103,18.571 3.178,18.697 3.303 C 18.948 3.554,19.000 3.751,19.000 4.447 L 19.000 5.000 18.000 5.000 L 17.000 5.000 17.000 4.447 C 17.000 3.750,17.052 3.554,17.304 3.303 C 17.583 3.024,17.916 2.944,18.310 3.061 M21.000 8.500 L 21.000 10.000 18.000 10.000 L 15.000 10.000 15.000 8.500 L 15.000 7.000 18.000 7.000 L 21.000 7.000 21.000 8.500 M5.308 12.060 C 5.543 12.130,5.812 12.368,5.911 12.593 C 5.961 12.707,5.982 12.947,6.003 13.660 C 6.026 14.452,6.042 14.619,6.119 14.860 C 6.499 16.054,7.551 16.902,8.755 16.984 C 9.276 17.019,9.482 17.089,9.696 17.303 C 9.990 17.597,10.000 17.662,10.000 19.332 L 10.000 20.769 9.850 20.741 C 9.509 20.678,8.583 20.338,8.058 20.082 C 5.498 18.835,3.682 16.453,3.163 13.660 C 3.080 13.216,3.000 12.484,3.000 12.170 L 3.000 12.000 4.053 12.000 C 4.873 12.000,5.150 12.013,5.308 12.060 M20.040 16.032 C 20.040 16.081,19.650 16.748,19.434 17.069 C 18.684 18.180,17.644 19.135,16.422 19.835 C 16.225 19.948,16.049 20.040,16.032 20.040 C 16.014 20.040,16.000 19.323,16.000 18.447 C 16.000 16.627,16.003 16.603,16.307 16.299 C 16.596 16.011,16.630 16.006,18.450 16.003 C 19.325 16.001,20.040 16.014,20.040 16.032 " stroke="none" fill-rule="evenodd" fill="#000000"></path></svg>