<svg  xmlns="http://www.w3.org/2000/svg" width="24" height="24" viewBox="0 0 24 24" fill="none" stroke="currentColor" stroke-width="2" stroke-linecap="round" stroke-linejoin="round"><path d="M5.499 1.042 C 4.388 1.232,3.488 2.024,3.114 3.140 L 3.020 3.420 3.009 7.556 C 2.996 12.160,2.983 11.921,3.268 12.215 C 3.495 12.449,3.696 12.537,4.000 12.537 C 4.304 12.537,4.505 12.449,4.731 12.215 C 5.013 11.925,5.000 12.140,5.000 7.800 C 5.000 3.383,4.984 3.622,5.303 3.303 C 5.621 2.986,5.423 3.000,9.447 3.000 L 13.000 3.000 13.000 5.132 C 13.000 7.443,13.004 7.494,13.225 7.930 C 13.361 8.199,13.801 8.639,14.070 8.775 C 14.506 8.996,14.557 9.000,16.868 9.000 L 19.000 9.000 19.000 14.554 C 19.000 19.144,18.990 20.139,18.945 20.290 C 18.872 20.533,18.707 20.740,18.484 20.872 L 18.300 20.980 17.040 21.000 C 15.848 21.019,15.771 21.025,15.619 21.106 C 15.252 21.303,15.063 21.607,15.063 22.000 C 15.063 22.304,15.151 22.505,15.385 22.732 C 15.657 22.996,15.749 23.009,17.250 22.991 C 18.504 22.976,18.596 22.970,18.860 22.884 C 19.842 22.563,20.581 21.817,20.886 20.840 L 20.980 20.540 20.980 13.980 L 20.980 7.420 20.868 7.060 C 20.732 6.627,20.505 6.192,20.241 5.863 C 19.921 5.464,16.162 1.748,15.920 1.592 C 15.585 1.376,15.319 1.252,14.932 1.131 L 14.580 1.020 10.140 1.014 C 7.698 1.011,5.609 1.024,5.499 1.042 M16.800 5.220 L 18.580 7.000 16.790 7.000 L 15.000 7.000 15.000 5.220 C 15.000 4.241,15.005 3.440,15.010 3.440 C 15.016 3.440,15.821 4.241,16.800 5.220 M7.117 13.052 C 6.812 13.139,6.619 13.279,5.605 14.153 L 4.630 14.993 3.885 15.006 C 3.147 15.020,3.138 15.021,2.880 15.144 C 2.462 15.345,2.185 15.664,2.061 16.091 C 2.006 16.281,1.998 16.553,2.008 18.086 L 2.020 19.860 2.144 20.120 C 2.337 20.523,2.639 20.792,3.057 20.933 C 3.211 20.985,3.406 21.000,3.938 21.000 L 4.621 21.000 5.621 21.864 C 6.816 22.897,6.956 22.981,7.480 22.978 C 7.740 22.977,7.876 22.954,8.060 22.882 C 8.383 22.754,8.714 22.437,8.865 22.108 L 8.980 21.860 8.980 18.000 L 8.980 14.140 8.865 13.892 C 8.711 13.558,8.381 13.244,8.060 13.123 C 7.765 13.013,7.362 12.983,7.117 13.052 M11.670 14.055 C 11.306 14.190,11.051 14.516,11.012 14.892 C 10.983 15.177,11.040 15.343,11.319 15.780 C 11.807 16.543,11.976 17.112,11.976 18.000 C 11.976 18.888,11.807 19.457,11.319 20.220 C 11.039 20.658,10.983 20.822,11.013 21.111 C 11.088 21.843,11.938 22.240,12.546 21.828 C 12.885 21.598,13.396 20.747,13.676 19.948 C 14.043 18.900,14.096 17.625,13.819 16.534 C 13.570 15.550,12.934 14.392,12.505 14.141 C 12.286 14.012,11.892 13.972,11.670 14.055 M6.991 19.195 L 6.980 20.389 6.380 19.873 C 5.521 19.135,5.211 19.001,4.350 19.000 L 4.000 19.000 4.000 18.000 L 4.000 17.000 4.390 16.999 C 4.873 16.998,5.252 16.921,5.551 16.762 C 5.677 16.694,6.050 16.408,6.380 16.125 L 6.980 15.611 6.991 16.805 C 6.996 17.462,6.996 18.538,6.991 19.195 " stroke="none" fill-rule="evenodd" fill="#000000"></path></svg>