<svg  xmlns="http://www.w3.org/2000/svg" width="24" height="24" viewBox="0 0 24 24" fill="none" stroke="currentColor" stroke-width="2" stroke-linecap="round" stroke-linejoin="round"><path d="M13.695 5.057 C 13.466 5.129,13.256 5.299,13.128 5.516 L 13.020 5.700 13.009 10.914 C 13.002 14.337,13.013 16.179,13.039 16.277 C 13.217 16.937,14.055 17.211,14.604 16.789 C 14.734 16.690,14.913 16.435,14.984 16.249 C 14.986 16.243,15.112 16.311,15.264 16.400 C 15.602 16.598,16.050 16.774,16.512 16.890 C 16.803 16.964,16.967 16.978,17.520 16.976 C 18.098 16.974,18.228 16.961,18.563 16.871 C 19.756 16.551,20.713 15.855,21.323 14.864 C 22.560 12.854,22.057 10.295,20.143 8.871 C 18.766 7.846,16.800 7.726,15.308 8.577 L 15.004 8.750 14.992 7.225 L 14.980 5.700 14.872 5.516 C 14.628 5.101,14.150 4.915,13.695 5.057 M5.900 8.042 C 3.603 8.352,1.898 10.402,2.012 12.717 C 2.110 14.711,3.452 16.339,5.437 16.871 C 5.772 16.961,5.902 16.974,6.480 16.976 C 7.033 16.978,7.197 16.964,7.488 16.890 C 7.950 16.774,8.398 16.598,8.736 16.400 C 8.888 16.311,9.014 16.243,9.016 16.249 C 9.087 16.435,9.266 16.690,9.396 16.789 C 9.945 17.211,10.783 16.937,10.961 16.277 C 10.988 16.178,10.998 14.838,10.991 12.413 L 10.980 8.700 10.871 8.514 C 10.563 7.990,9.870 7.852,9.391 8.218 C 9.255 8.322,9.072 8.582,9.017 8.750 C 9.015 8.755,8.872 8.680,8.700 8.581 C 8.328 8.369,7.850 8.190,7.416 8.100 C 7.028 8.020,6.277 7.991,5.900 8.042 M7.020 10.060 C 7.741 10.211,8.395 10.713,8.715 11.362 C 9.087 12.118,9.090 12.878,8.723 13.620 C 8.439 14.195,7.932 14.646,7.320 14.868 C 7.052 14.965,6.965 14.976,6.500 14.976 C 6.035 14.976,5.948 14.965,5.680 14.868 C 4.495 14.438,3.803 13.206,4.060 11.980 C 4.339 10.644,5.674 9.778,7.020 10.060 M18.020 10.060 C 18.741 10.211,19.395 10.713,19.715 11.362 C 20.087 12.118,20.090 12.878,19.723 13.620 C 19.439 14.195,18.932 14.646,18.320 14.868 C 18.052 14.965,17.965 14.976,17.500 14.976 C 17.035 14.976,16.948 14.965,16.680 14.868 C 16.068 14.646,15.561 14.195,15.277 13.620 C 14.347 11.740,15.972 9.631,18.020 10.060 " stroke="none" fill-rule="evenodd" fill="#000000"></path></svg>