<svg  xmlns="http://www.w3.org/2000/svg" width="24" height="24" viewBox="0 0 24 24" fill="none" stroke="currentColor" stroke-width="2" stroke-linecap="round" stroke-linejoin="round"><path d="M5.499 1.042 C 4.378 1.234,3.461 2.048,3.114 3.160 L 3.020 3.460 3.020 12.000 L 3.020 20.540 3.114 20.840 C 3.418 21.816,4.151 22.556,5.140 22.885 L 5.420 22.979 8.269 22.991 C 10.156 22.999,11.171 22.989,11.273 22.962 C 11.498 22.901,11.738 22.711,11.867 22.492 C 11.964 22.327,11.980 22.257,11.980 22.000 C 11.980 21.746,11.963 21.672,11.872 21.516 C 11.761 21.328,11.572 21.158,11.373 21.070 C 11.287 21.032,10.582 21.015,8.480 21.000 L 5.700 20.980 5.516 20.872 C 5.415 20.813,5.284 20.700,5.225 20.623 C 4.985 20.308,5.000 20.888,5.000 12.022 C 5.000 2.889,4.974 3.632,5.303 3.303 C 5.621 2.986,5.423 3.000,9.447 3.000 L 13.000 3.000 13.000 5.132 C 13.000 7.443,13.004 7.494,13.225 7.930 C 13.361 8.199,13.801 8.639,14.070 8.775 C 14.506 8.996,14.557 9.000,16.867 9.000 L 18.997 9.000 19.009 11.153 L 19.020 13.306 19.141 13.503 C 19.543 14.156,20.457 14.156,20.859 13.503 L 20.980 13.306 20.980 10.363 L 20.980 7.420 20.868 7.060 C 20.732 6.627,20.505 6.192,20.241 5.863 C 19.921 5.464,16.162 1.748,15.920 1.592 C 15.585 1.376,15.319 1.252,14.932 1.131 L 14.580 1.020 10.140 1.014 C 7.698 1.011,5.609 1.024,5.499 1.042 M16.800 5.220 L 18.580 7.000 16.790 7.000 L 15.000 7.000 15.000 5.220 C 15.000 4.241,15.005 3.440,15.010 3.440 C 15.016 3.440,15.821 4.241,16.800 5.220 M14.670 16.061 C 14.448 16.142,14.250 16.309,14.128 16.516 C 14.037 16.672,14.020 16.746,14.020 17.000 C 14.020 17.254,14.036 17.328,14.127 17.480 C 14.186 17.579,14.650 18.074,15.157 18.579 L 16.079 19.499 15.124 20.459 C 14.599 20.988,14.138 21.481,14.101 21.555 C 13.872 22.009,14.056 22.601,14.508 22.867 C 14.673 22.964,14.743 22.980,15.000 22.980 C 15.254 22.980,15.328 22.964,15.480 22.873 C 15.579 22.814,16.074 22.350,16.579 21.843 L 17.499 20.921 18.459 21.876 C 18.988 22.401,19.483 22.864,19.560 22.905 C 19.659 22.957,19.787 22.979,20.000 22.979 C 20.258 22.980,20.327 22.964,20.492 22.867 C 20.714 22.737,20.901 22.498,20.965 22.264 C 21.019 22.061,20.989 21.733,20.899 21.555 C 20.862 21.481,20.401 20.988,19.876 20.459 L 18.921 19.499 19.843 18.579 C 20.350 18.074,20.814 17.579,20.873 17.480 C 20.964 17.328,20.980 17.254,20.980 17.000 C 20.980 16.746,20.963 16.672,20.872 16.516 C 20.618 16.084,20.136 15.905,19.657 16.066 C 19.486 16.124,19.330 16.262,18.480 17.104 L 17.500 18.076 16.520 17.104 C 15.671 16.262,15.514 16.124,15.343 16.066 C 15.108 15.987,14.875 15.985,14.670 16.061 " stroke="none" fill-rule="evenodd" fill="#000000"></path></svg>