<svg  xmlns="http://www.w3.org/2000/svg" width="24" height="24" viewBox="0 0 24 24" fill="none" stroke="currentColor" stroke-width="2" stroke-linecap="round" stroke-linejoin="round"><path d="M11.703 2.445 C 11.510 2.466,11.334 2.519,11.123 2.622 C 10.830 2.765,10.703 2.887,7.147 6.435 C 5.128 8.451,3.411 10.186,3.333 10.291 C 2.693 11.155,3.025 12.376,4.030 12.852 L 4.300 12.980 6.150 12.992 L 8.000 13.004 8.000 16.133 C 8.000 19.534,7.997 19.479,8.225 19.930 C 8.361 20.199,8.801 20.639,9.070 20.775 C 9.509 20.997,9.545 21.000,12.000 21.000 C 14.455 21.000,14.491 20.997,14.930 20.775 C 15.196 20.640,15.638 20.200,15.771 19.937 C 16.003 19.480,16.000 19.526,16.000 16.126 L 16.000 13.004 17.850 12.992 L 19.700 12.980 19.970 12.852 C 20.978 12.374,21.306 11.153,20.660 10.282 C 20.586 10.182,18.872 8.451,16.853 6.435 C 13.365 2.955,13.165 2.763,12.889 2.628 C 12.628 2.499,12.486 2.463,12.100 2.426 C 12.034 2.420,11.855 2.428,11.703 2.445 M15.300 7.720 L 18.580 11.000 17.160 11.002 C 15.567 11.005,15.408 11.025,14.983 11.281 C 14.703 11.449,14.354 11.816,14.219 12.083 C 13.998 12.519,14.000 12.479,14.000 15.868 L 14.000 19.000 12.000 19.000 L 10.000 19.000 9.999 15.890 C 9.999 12.526,9.998 12.510,9.781 12.083 C 9.646 11.816,9.297 11.449,9.017 11.281 C 8.592 11.025,8.433 11.005,6.840 11.002 L 5.420 11.000 8.700 7.720 C 10.504 5.916,11.989 4.440,12.000 4.440 C 12.011 4.440,13.496 5.916,15.300 7.720 " stroke="none" fill-rule="evenodd" fill="#000000"></path></svg>