<svg  xmlns="http://www.w3.org/2000/svg" width="24" height="24" viewBox="0 0 24 24" fill="none" stroke="currentColor" stroke-width="2" stroke-linecap="round" stroke-linejoin="round"><path d="M5.499 1.043 C 4.379 1.234,3.461 2.048,3.114 3.160 L 3.020 3.460 3.020 12.000 L 3.020 20.540 3.114 20.840 C 3.422 21.827,4.173 22.578,5.160 22.886 L 5.460 22.980 12.000 22.980 L 18.540 22.980 18.840 22.886 C 19.827 22.578,20.578 21.827,20.886 20.840 L 20.980 20.540 20.980 13.980 L 20.980 7.420 20.868 7.060 C 20.728 6.613,20.498 6.179,20.219 5.840 C 19.855 5.397,16.159 1.747,15.910 1.585 C 15.591 1.378,15.236 1.218,14.860 1.111 L 14.540 1.021 10.120 1.015 C 7.689 1.011,5.609 1.024,5.499 1.043 M13.000 5.132 C 13.000 7.443,13.004 7.494,13.225 7.930 C 13.361 8.199,13.801 8.639,14.070 8.775 C 14.506 8.996,14.557 9.000,16.868 9.000 L 19.000 9.000 19.000 14.554 C 19.000 19.144,18.990 20.139,18.945 20.290 C 18.872 20.533,18.707 20.740,18.484 20.872 L 18.300 20.980 12.000 20.980 L 5.700 20.980 5.516 20.872 C 5.415 20.813,5.284 20.700,5.225 20.623 C 4.985 20.308,5.000 20.888,5.000 12.022 C 5.000 2.888,4.974 3.632,5.304 3.303 C 5.615 2.991,5.409 3.006,9.430 3.003 L 13.000 3.000 13.000 5.132 M16.800 5.220 L 18.580 7.000 16.790 7.000 L 15.000 7.000 15.000 5.220 C 15.000 4.241,15.005 3.440,15.010 3.440 C 15.016 3.440,15.821 4.241,16.800 5.220 M9.641 11.565 C 9.587 11.586,9.482 11.650,9.409 11.706 C 9.267 11.814,7.254 14.304,7.107 14.553 C 6.983 14.762,6.983 15.238,7.107 15.447 C 7.210 15.622,9.227 18.142,9.365 18.268 C 9.597 18.481,10.065 18.557,10.363 18.431 C 10.563 18.346,10.789 18.137,10.891 17.944 C 10.994 17.745,11.010 17.331,10.921 17.120 C 10.889 17.043,10.506 16.535,10.071 15.990 L 9.280 15.000 10.071 14.010 C 10.506 13.466,10.889 12.957,10.921 12.880 C 11.010 12.669,10.994 12.255,10.891 12.056 C 10.791 11.866,10.563 11.654,10.374 11.575 C 10.224 11.512,9.788 11.506,9.641 11.565 M13.617 11.575 C 13.142 11.789,12.885 12.367,13.060 12.826 C 13.105 12.943,13.427 13.382,13.926 14.006 L 14.720 15.000 13.926 15.994 C 13.427 16.618,13.105 17.057,13.060 17.174 C 12.883 17.637,13.146 18.223,13.620 18.424 C 13.935 18.557,14.397 18.486,14.635 18.268 C 14.773 18.142,16.790 15.622,16.893 15.447 C 17.028 15.218,17.017 14.761,16.871 14.520 C 16.656 14.165,14.703 11.783,14.527 11.661 C 14.376 11.556,14.314 11.539,14.047 11.530 C 13.849 11.523,13.696 11.539,13.617 11.575 " stroke="none" fill-rule="evenodd" fill="#000000"></path></svg>