<svg  xmlns="http://www.w3.org/2000/svg" width="24" height="24" viewBox="0 0 24 24" fill="none" stroke="currentColor" stroke-width="2" stroke-linecap="round" stroke-linejoin="round"><path d="M11.695 1.057 C 11.466 1.129,11.256 1.299,11.128 1.516 C 11.025 1.692,11.019 1.728,11.007 2.350 L 10.993 3.000 10.443 3.000 C 9.648 3.000,9.366 3.111,9.128 3.516 C 9.037 3.672,9.020 3.746,9.020 4.000 C 9.020 4.256,9.036 4.328,9.131 4.489 C 9.256 4.702,9.449 4.864,9.670 4.943 C 9.768 4.978,10.023 4.997,10.410 4.998 L 11.000 5.000 11.000 5.875 L 11.000 6.750 10.690 6.596 C 9.369 5.939,7.604 5.825,6.140 6.304 C 4.087 6.974,2.582 8.670,2.115 10.840 C 1.995 11.395,1.984 12.508,2.093 13.054 C 2.364 14.407,3.073 15.672,4.301 16.992 C 4.471 17.174,4.603 17.329,4.595 17.336 C 4.587 17.343,4.507 17.395,4.417 17.451 C 3.824 17.820,3.340 18.449,3.118 19.140 C 3.039 19.386,3.026 19.528,3.010 20.303 C 2.990 21.282,3.014 21.479,3.202 21.877 C 3.348 22.186,3.771 22.623,4.070 22.775 C 4.540 23.013,4.078 23.000,12.000 23.000 C 19.922 23.000,19.460 23.013,19.930 22.775 C 20.196 22.640,20.638 22.200,20.771 21.937 C 20.980 21.526,21.010 21.305,20.990 20.320 C 20.975 19.526,20.962 19.387,20.882 19.140 C 20.660 18.449,20.176 17.820,19.583 17.451 C 19.493 17.395,19.414 17.344,19.406 17.337 C 19.399 17.331,19.559 17.140,19.763 16.913 C 21.035 15.496,21.646 14.375,21.925 12.940 C 22.015 12.478,21.993 11.352,21.884 10.840 C 21.424 8.679,19.911 6.973,17.860 6.304 C 16.396 5.825,14.631 5.939,13.310 6.596 L 13.000 6.750 13.000 5.875 L 13.000 5.000 13.590 4.998 C 13.977 4.997,14.232 4.978,14.330 4.943 C 14.551 4.864,14.744 4.702,14.869 4.489 C 14.964 4.328,14.980 4.256,14.980 4.000 C 14.980 3.746,14.963 3.672,14.872 3.516 C 14.634 3.111,14.352 3.000,13.557 3.000 L 13.007 3.000 12.993 2.350 C 12.981 1.728,12.975 1.692,12.872 1.516 C 12.628 1.101,12.150 0.915,11.695 1.057 M8.580 8.044 C 9.539 8.162,10.178 8.494,11.131 9.370 C 11.517 9.724,11.684 9.808,12.003 9.808 C 12.317 9.808,12.523 9.703,12.880 9.364 C 13.802 8.487,14.509 8.136,15.564 8.033 C 16.376 7.954,17.019 8.067,17.742 8.418 C 18.528 8.801,19.148 9.402,19.536 10.160 C 19.768 10.614,19.871 10.930,19.946 11.416 C 20.119 12.544,19.786 13.654,18.936 14.784 C 18.622 15.200,18.197 15.678,17.514 16.379 L 16.910 17.000 11.999 17.000 L 7.089 17.000 6.380 16.273 C 5.273 15.135,4.743 14.446,4.393 13.690 C 3.744 12.288,3.933 10.711,4.896 9.494 C 5.486 8.749,6.414 8.208,7.356 8.061 C 7.792 7.993,8.126 7.989,8.580 8.044 M18.310 19.061 C 18.452 19.103,18.571 19.178,18.697 19.303 C 18.948 19.554,19.000 19.751,19.000 20.447 L 19.000 21.000 12.000 21.000 L 5.000 21.000 5.000 20.447 C 5.000 19.750,5.052 19.554,5.304 19.303 C 5.623 18.983,5.120 19.006,11.983 19.003 C 17.353 19.000,18.131 19.007,18.310 19.061 " stroke="none" fill-rule="evenodd" fill="#000000"></path></svg>