<svg  xmlns="http://www.w3.org/2000/svg" width="24" height="24" viewBox="0 0 24 24" fill="none" stroke="currentColor" stroke-width="2" stroke-linecap="round" stroke-linejoin="round"><path d="M7.477 2.072 C 6.802 2.252,6.238 2.824,6.060 3.508 C 6.014 3.685,6.000 3.994,6.000 4.868 L 6.000 6.000 4.946 6.000 C 3.797 6.000,3.644 6.022,3.382 6.221 C 3.302 6.282,3.187 6.415,3.128 6.516 C 3.037 6.672,3.020 6.746,3.020 7.000 C 3.020 7.256,3.036 7.328,3.131 7.489 C 3.192 7.592,3.304 7.725,3.381 7.783 C 3.643 7.983,3.738 7.996,4.910 7.998 L 6.000 8.000 6.000 9.000 L 6.000 10.000 4.946 10.000 C 3.797 10.000,3.644 10.022,3.382 10.221 C 3.302 10.282,3.187 10.415,3.128 10.516 C 3.037 10.672,3.020 10.746,3.020 11.000 C 3.020 11.256,3.036 11.328,3.131 11.489 C 3.192 11.592,3.304 11.725,3.381 11.783 C 3.642 11.983,3.738 11.996,4.909 11.998 L 5.999 12.000 6.009 16.653 L 6.020 21.306 6.141 21.503 C 6.543 22.156,7.457 22.156,7.859 21.503 L 7.980 21.306 7.991 18.656 L 8.002 16.006 10.411 15.988 C 12.917 15.970,13.002 15.964,13.720 15.783 C 15.628 15.300,17.339 13.938,18.219 12.202 L 18.321 12.000 19.251 11.998 C 20.250 11.996,20.363 11.979,20.619 11.783 C 20.696 11.725,20.808 11.592,20.869 11.489 C 20.964 11.328,20.980 11.256,20.980 11.000 C 20.980 10.746,20.963 10.672,20.872 10.516 C 20.630 10.104,20.356 10.000,19.513 10.000 L 18.919 10.000 18.950 9.830 C 18.989 9.610,18.989 8.390,18.950 8.170 L 18.919 8.000 19.550 7.998 C 19.971 7.997,20.230 7.979,20.330 7.943 C 20.551 7.864,20.744 7.702,20.869 7.489 C 20.964 7.328,20.980 7.256,20.980 7.000 C 20.980 6.746,20.963 6.672,20.872 6.516 C 20.813 6.415,20.698 6.282,20.618 6.221 C 20.364 6.027,20.191 6.000,19.214 6.000 L 18.321 6.000 18.219 5.798 C 17.339 4.062,15.626 2.698,13.720 2.217 C 13.010 2.038,12.846 2.029,10.240 2.015 C 7.955 2.003,7.717 2.007,7.477 2.072 M12.552 4.043 C 13.435 4.139,14.182 4.428,14.932 4.963 C 15.261 5.197,15.960 5.877,15.960 5.962 C 15.960 5.986,14.463 6.000,11.980 6.000 L 8.000 6.000 8.000 5.000 L 8.000 4.000 10.082 4.000 C 11.282 4.000,12.328 4.018,12.552 4.043 M16.947 8.310 C 16.989 8.706,16.989 9.294,16.947 9.690 L 16.913 10.000 12.457 10.000 L 8.000 10.000 8.000 9.000 L 8.000 8.000 12.457 8.000 L 16.913 8.000 16.947 8.310 M15.960 12.044 C 15.960 12.127,15.102 12.940,14.812 13.132 C 14.273 13.488,13.660 13.750,13.000 13.904 C 12.736 13.966,12.416 13.976,10.350 13.989 L 8.000 14.004 8.000 13.002 L 8.000 12.000 11.980 12.000 C 14.872 12.000,15.960 12.012,15.960 12.044 " stroke="none" fill-rule="evenodd" fill="#000000"></path></svg>