<svg  xmlns="http://www.w3.org/2000/svg" width="24" height="24" viewBox="0 0 24 24" fill="none" stroke="currentColor" stroke-width="2" stroke-linecap="round" stroke-linejoin="round"><path d="M4.499 2.043 C 3.380 2.232,2.461 3.048,2.114 4.160 L 2.020 4.460 2.020 12.000 L 2.020 19.540 2.114 19.840 C 2.422 20.827,3.173 21.578,4.160 21.886 L 4.460 21.980 12.000 21.980 L 19.540 21.980 19.840 21.886 C 20.827 21.578,21.578 20.827,21.886 19.840 L 21.980 19.540 21.980 12.000 L 21.980 4.460 21.886 4.160 C 21.581 3.182,20.832 2.428,19.861 2.121 L 19.540 2.020 12.120 2.014 C 8.039 2.011,4.609 2.024,4.499 2.043 M19.310 4.061 C 19.452 4.103,19.571 4.178,19.697 4.303 C 19.948 4.554,20.000 4.751,20.000 5.447 L 20.000 6.000 12.000 6.000 L 4.000 6.000 4.000 5.447 C 4.000 4.750,4.052 4.554,4.304 4.303 C 4.421 4.185,4.552 4.100,4.673 4.063 C 4.964 3.974,19.009 3.971,19.310 4.061 M20.000 8.997 L 20.000 9.994 18.370 10.010 C 16.528 10.027,16.525 10.027,15.892 10.344 C 15.423 10.578,15.098 10.873,14.635 11.487 C 14.216 12.041,13.994 12.267,13.640 12.499 C 13.101 12.853,12.669 12.979,12.000 12.979 C 11.331 12.979,10.899 12.853,10.360 12.499 C 10.006 12.267,9.784 12.041,9.365 11.487 C 8.902 10.873,8.577 10.578,8.108 10.344 C 7.475 10.027,7.472 10.027,5.630 10.010 L 4.000 9.994 4.000 8.997 L 4.000 8.000 12.000 8.000 L 20.000 8.000 20.000 8.997 M7.020 12.044 C 7.256 12.103,7.466 12.293,7.827 12.769 C 8.755 13.994,9.685 14.610,11.060 14.908 C 11.464 14.996,12.456 15.005,12.860 14.924 C 14.256 14.646,15.232 14.011,16.173 12.769 C 16.534 12.293,16.744 12.103,16.980 12.044 C 17.092 12.016,17.673 12.000,18.578 12.000 L 20.000 12.000 20.000 15.554 C 20.000 19.410,20.005 19.322,19.779 19.618 C 19.718 19.698,19.585 19.813,19.484 19.872 L 19.300 19.980 12.000 19.980 L 4.700 19.980 4.516 19.872 C 4.415 19.813,4.284 19.700,4.225 19.623 C 3.992 19.317,4.000 19.464,4.000 15.575 L 4.000 12.000 5.422 12.000 C 6.327 12.000,6.908 12.016,7.020 12.044 " stroke="none" fill-rule="evenodd" fill="#000000"></path></svg>