<svg  xmlns="http://www.w3.org/2000/svg" width="24" height="24" viewBox="0 0 24 24" fill="none" stroke="currentColor" stroke-width="2" stroke-linecap="round" stroke-linejoin="round"><path d="M4.695 2.057 C 4.466 2.129,4.256 2.299,4.128 2.516 L 4.020 2.700 4.020 6.503 L 4.020 10.306 4.141 10.503 C 4.209 10.613,4.346 10.756,4.452 10.828 C 4.923 11.144,5.554 10.999,5.859 10.503 L 5.980 10.306 5.980 6.503 L 5.980 2.700 5.872 2.516 C 5.628 2.101,5.150 1.915,4.695 2.057 M11.695 2.057 C 11.466 2.129,11.256 2.299,11.128 2.516 L 11.020 2.700 11.009 4.850 L 10.997 7.000 10.445 7.000 C 9.648 7.000,9.367 7.110,9.128 7.516 C 9.037 7.672,9.020 7.746,9.020 8.000 C 9.020 8.256,9.036 8.328,9.131 8.489 C 9.256 8.702,9.449 8.864,9.670 8.943 C 9.889 9.021,14.111 9.021,14.330 8.943 C 14.551 8.864,14.744 8.702,14.869 8.489 C 14.964 8.328,14.980 8.256,14.980 8.000 C 14.980 7.746,14.963 7.672,14.872 7.516 C 14.633 7.110,14.352 7.000,13.555 7.000 L 13.003 7.000 12.991 4.850 L 12.980 2.700 12.872 2.516 C 12.628 2.101,12.150 1.915,11.695 2.057 M18.695 2.057 C 18.466 2.129,18.256 2.299,18.128 2.516 L 18.020 2.700 18.020 7.503 L 18.020 12.306 18.141 12.503 C 18.543 13.156,19.457 13.156,19.859 12.503 L 19.980 12.306 19.980 7.503 L 19.980 2.700 19.872 2.516 C 19.628 2.101,19.150 1.915,18.695 2.057 M11.695 11.057 C 11.466 11.129,11.256 11.299,11.128 11.516 L 11.020 11.700 11.020 16.503 L 11.020 21.306 11.141 21.503 C 11.543 22.156,12.457 22.156,12.859 21.503 L 12.980 21.306 12.980 16.503 L 12.980 11.700 12.872 11.516 C 12.628 11.101,12.150 10.915,11.695 11.057 M2.695 13.057 C 2.466 13.129,2.256 13.299,2.128 13.516 C 2.037 13.672,2.020 13.746,2.020 14.000 C 2.020 14.256,2.036 14.328,2.131 14.489 C 2.256 14.702,2.449 14.864,2.670 14.943 C 2.768 14.978,3.023 14.997,3.409 14.998 L 3.998 15.000 4.009 18.153 L 4.020 21.306 4.141 21.503 C 4.543 22.156,5.457 22.156,5.859 21.503 L 5.980 21.306 5.991 18.153 L 6.002 15.000 6.591 14.998 C 6.977 14.997,7.232 14.978,7.330 14.943 C 7.551 14.864,7.744 14.702,7.869 14.489 C 7.964 14.328,7.980 14.256,7.980 14.000 C 7.980 13.746,7.963 13.672,7.872 13.516 C 7.740 13.293,7.533 13.128,7.290 13.055 C 7.033 12.978,2.943 12.979,2.695 13.057 M16.695 15.057 C 16.466 15.129,16.256 15.299,16.128 15.516 C 16.037 15.672,16.020 15.746,16.020 16.000 C 16.020 16.256,16.036 16.328,16.131 16.489 C 16.256 16.702,16.449 16.864,16.670 16.943 C 16.768 16.978,17.022 16.997,17.409 16.998 L 17.997 17.000 18.009 19.153 L 18.020 21.306 18.141 21.503 C 18.543 22.156,19.457 22.156,19.859 21.503 L 19.980 21.306 19.991 19.153 L 20.003 17.000 20.591 16.998 C 20.978 16.997,21.232 16.978,21.330 16.943 C 21.551 16.864,21.744 16.702,21.869 16.489 C 21.964 16.328,21.980 16.256,21.980 16.000 C 21.980 15.746,21.963 15.672,21.872 15.516 C 21.740 15.293,21.533 15.128,21.290 15.055 C 21.033 14.978,16.943 14.979,16.695 15.057 " stroke="none" fill-rule="evenodd" fill="#000000"></path></svg>