<svg  xmlns="http://www.w3.org/2000/svg" width="24" height="24" viewBox="0 0 24 24" fill="none" stroke="currentColor" stroke-width="2" stroke-linecap="round" stroke-linejoin="round"><path d="M8.670 1.061 C 8.448 1.142,8.250 1.309,8.128 1.516 C 8.036 1.672,8.020 1.745,8.021 2.000 C 8.021 2.213,8.043 2.340,8.096 2.440 C 8.136 2.517,8.485 2.898,8.871 3.288 L 9.572 3.995 7.516 4.009 L 5.460 4.023 5.139 4.123 C 4.172 4.424,3.419 5.181,3.114 6.160 C 3.021 6.457,3.020 6.478,3.020 8.383 L 3.020 10.306 3.141 10.503 C 3.543 11.156,4.457 11.156,4.859 10.503 L 4.980 10.306 5.000 8.523 C 5.022 6.523,5.014 6.582,5.321 6.283 C 5.609 6.004,5.645 6.000,7.736 6.000 L 9.577 6.000 8.873 6.710 C 8.486 7.101,8.139 7.481,8.101 7.555 C 7.872 8.008,8.056 8.601,8.508 8.867 C 8.673 8.964,8.742 8.980,9.000 8.979 C 9.212 8.979,9.341 8.957,9.440 8.905 C 9.517 8.865,10.306 8.109,11.194 7.226 C 12.957 5.472,12.999 5.420,12.999 5.000 C 12.999 4.578,12.960 4.530,11.175 2.756 C 9.716 1.307,9.519 1.124,9.343 1.066 C 9.108 0.987,8.875 0.986,8.670 1.061 M15.695 4.055 C 15.464 4.130,15.255 4.300,15.128 4.516 C 15.037 4.672,15.020 4.746,15.020 5.000 C 15.020 5.256,15.036 5.328,15.131 5.489 C 15.192 5.592,15.304 5.725,15.381 5.783 C 15.644 5.984,15.734 5.996,16.963 5.998 C 18.306 6.000,18.413 6.019,18.697 6.303 C 19.022 6.628,19.000 6.184,19.000 12.501 C 19.000 17.136,18.990 18.139,18.945 18.290 C 18.872 18.533,18.707 18.740,18.484 18.872 L 18.300 18.980 12.000 18.980 L 5.700 18.980 5.516 18.872 C 5.328 18.761,5.158 18.572,5.070 18.373 C 5.033 18.289,5.015 17.681,5.000 15.980 L 4.980 13.700 4.871 13.514 C 4.479 12.848,3.521 12.848,3.129 13.514 L 3.020 13.700 3.020 16.120 L 3.020 18.540 3.114 18.840 C 3.422 19.827,4.173 20.578,5.160 20.886 L 5.460 20.980 12.000 20.980 L 18.540 20.980 18.840 20.886 C 19.827 20.578,20.578 19.827,20.886 18.840 L 20.980 18.540 20.980 12.500 L 20.980 6.460 20.886 6.160 C 20.581 5.181,19.825 4.421,18.861 4.124 C 18.551 4.028,18.495 4.025,17.200 4.014 C 16.166 4.005,15.822 4.014,15.695 4.055 " stroke="none" fill-rule="evenodd" fill="#000000"></path></svg>