<svg  xmlns="http://www.w3.org/2000/svg" width="24" height="24" viewBox="0 0 24 24" fill="none" stroke="currentColor" stroke-width="2" stroke-linecap="round" stroke-linejoin="round"><path d="M8.460 2.026 C 6.522 2.179,4.859 2.914,3.479 4.227 C 2.100 5.540,1.255 7.267,1.042 9.208 C 0.748 11.902,1.964 14.694,4.154 16.354 C 5.015 17.007,5.387 17.157,5.803 17.019 C 6.307 16.852,6.609 16.326,6.481 15.840 C 6.398 15.524,6.268 15.379,5.787 15.062 C 4.762 14.388,4.135 13.681,3.620 12.620 C 2.986 11.315,2.843 9.974,3.187 8.560 C 3.603 6.846,4.738 5.433,6.344 4.629 C 7.038 4.281,7.620 4.117,8.440 4.038 C 9.816 3.905,11.171 4.242,12.296 4.995 C 13.430 5.755,14.228 6.779,14.675 8.049 C 14.828 8.486,14.884 8.593,15.026 8.725 C 15.296 8.975,15.302 8.976,16.740 9.005 C 17.911 9.028,18.096 9.040,18.380 9.116 C 20.071 9.568,21.166 11.175,20.960 12.901 C 20.880 13.570,20.733 13.952,20.321 14.560 C 20.043 14.972,19.983 15.141,20.012 15.428 C 20.100 16.280,21.185 16.629,21.749 15.986 C 22.274 15.389,22.713 14.454,22.907 13.520 C 22.995 13.098,23.007 11.908,22.927 11.540 C 22.675 10.379,22.164 9.399,21.428 8.663 C 20.625 7.860,19.791 7.396,18.680 7.133 C 18.319 7.048,18.130 7.031,17.338 7.012 L 16.415 6.990 16.218 6.566 C 15.259 4.503,13.378 2.931,11.100 2.285 C 10.335 2.068,9.260 1.963,8.460 2.026 M16.640 14.068 C 16.485 14.121,16.109 14.480,13.980 16.603 L 11.500 19.077 10.520 18.105 C 9.670 17.262,9.514 17.124,9.343 17.066 C 8.864 16.905,8.382 17.084,8.128 17.516 C 8.036 17.672,8.020 17.745,8.021 18.000 C 8.021 18.213,8.043 18.341,8.095 18.440 C 8.180 18.602,10.700 21.150,10.943 21.320 C 11.256 21.539,11.744 21.539,12.055 21.321 C 12.305 21.147,17.821 15.601,17.905 15.440 C 17.957 15.341,17.979 15.212,17.979 15.000 C 17.980 14.745,17.964 14.672,17.872 14.516 C 17.617 14.083,17.121 13.903,16.640 14.068 " stroke="none" fill-rule="evenodd" fill="#000000"></path></svg>