<svg  xmlns="http://www.w3.org/2000/svg" width="24" height="24" viewBox="0 0 24 24" fill="none" stroke="currentColor" stroke-width="2" stroke-linecap="round" stroke-linejoin="round"><path d="M1.670 1.061 C 1.448 1.142,1.250 1.309,1.128 1.516 C 1.037 1.672,1.020 1.746,1.020 2.000 C 1.020 2.254,1.036 2.327,1.127 2.480 C 1.186 2.579,1.857 3.281,2.617 4.040 L 4.000 5.420 4.000 12.383 C 4.000 19.114,4.003 19.357,4.077 19.647 C 4.354 20.733,5.039 21.489,6.065 21.843 C 6.439 21.972,6.489 21.979,7.000 21.978 C 7.894 21.976,7.723 22.060,12.090 19.510 C 14.152 18.305,15.853 17.320,15.870 17.320 C 15.887 17.320,17.124 18.545,18.620 20.043 C 20.145 21.569,21.419 22.812,21.520 22.873 C 21.673 22.964,21.746 22.980,22.000 22.980 C 22.257 22.980,22.327 22.964,22.492 22.867 C 22.968 22.587,23.139 21.967,22.865 21.508 C 22.810 21.416,18.215 16.793,12.653 11.235 C 3.300 1.889,2.525 1.125,2.343 1.065 C 2.107 0.987,1.874 0.986,1.670 1.061 M9.960 3.597 C 9.690 3.679,9.431 3.896,9.309 4.140 C 9.128 4.503,9.210 4.944,9.514 5.242 C 9.651 5.375,11.010 6.187,14.639 8.302 C 17.928 10.218,19.628 11.231,19.726 11.331 C 20.083 11.698,20.083 12.302,19.726 12.669 C 19.645 12.752,19.449 12.897,19.289 12.992 C 18.951 13.193,18.819 13.320,18.719 13.540 C 18.601 13.799,18.586 13.971,18.658 14.218 C 18.823 14.785,19.418 15.090,19.960 14.885 C 20.265 14.770,20.857 14.376,21.116 14.116 C 21.434 13.798,21.687 13.387,21.842 12.935 C 21.971 12.561,21.978 12.511,21.978 12.000 C 21.977 11.499,21.968 11.432,21.848 11.074 C 21.632 10.427,21.181 9.842,20.623 9.485 C 19.944 9.049,10.636 3.659,10.484 3.613 C 10.291 3.555,10.116 3.550,9.960 3.597 M14.349 15.863 C 14.245 15.958,7.458 19.891,7.308 19.944 C 6.961 20.067,6.579 19.973,6.303 19.697 C 5.976 19.370,6.000 19.872,6.000 13.283 L 6.000 7.420 10.199 11.619 C 13.415 14.835,14.387 15.829,14.349 15.863 " stroke="none" fill-rule="evenodd" fill="#000000"></path></svg>