<svg  xmlns="http://www.w3.org/2000/svg" width="24" height="24" viewBox="0 0 24 24" fill="none" stroke="currentColor" stroke-width="2" stroke-linecap="round" stroke-linejoin="round"><path d="M10.311 1.041 C 9.921 1.107,9.483 1.288,9.120 1.532 C 8.855 1.711,7.251 3.310,7.127 3.520 C 7.037 3.672,7.020 3.747,7.020 4.000 C 7.020 4.253,7.037 4.328,7.127 4.480 C 7.267 4.717,8.872 6.302,9.180 6.508 C 9.312 6.596,9.543 6.717,9.694 6.777 C 10.266 7.004,10.130 6.999,14.882 6.999 C 19.651 7.000,19.470 7.008,19.930 6.775 C 20.196 6.640,20.638 6.200,20.771 5.937 C 20.979 5.527,21.000 5.352,20.999 4.014 C 20.999 2.682,20.974 2.463,20.781 2.083 C 20.646 1.816,20.297 1.449,20.017 1.281 C 19.537 0.992,19.766 1.004,14.880 1.007 C 12.471 1.008,10.415 1.024,10.311 1.041 M3.695 3.055 C 3.464 3.130,3.255 3.300,3.128 3.516 C 3.037 3.672,3.020 3.746,3.020 4.000 C 3.020 4.257,3.036 4.327,3.133 4.492 C 3.651 5.374,4.998 5.018,4.998 4.000 C 4.998 3.623,4.792 3.281,4.463 3.112 C 4.265 3.010,3.911 2.984,3.695 3.055 M19.000 4.001 L 19.000 5.001 14.770 4.991 L 10.540 4.980 10.380 4.893 C 10.292 4.845,10.040 4.625,9.821 4.403 L 9.422 4.000 9.821 3.597 C 10.206 3.208,10.346 3.102,10.560 3.037 C 10.615 3.021,12.537 3.005,14.830 3.003 L 19.000 3.000 19.000 4.001 M3.695 7.055 C 3.464 7.130,3.255 7.300,3.128 7.516 C 3.037 7.672,3.020 7.746,3.020 8.000 C 3.020 8.257,3.036 8.327,3.133 8.492 C 3.651 9.374,4.998 9.018,4.998 8.000 C 4.998 7.623,4.792 7.281,4.463 7.112 C 4.265 7.010,3.911 6.984,3.695 7.055 M10.311 9.041 C 9.921 9.107,9.483 9.288,9.120 9.532 C 8.855 9.711,7.251 11.310,7.127 11.520 C 7.037 11.672,7.020 11.747,7.020 12.000 C 7.020 12.253,7.037 12.328,7.127 12.480 C 7.267 12.717,8.872 14.302,9.180 14.508 C 9.312 14.596,9.543 14.717,9.694 14.777 C 10.266 15.004,10.130 14.999,14.882 14.999 C 19.651 15.000,19.470 15.008,19.930 14.775 C 20.196 14.640,20.638 14.200,20.771 13.937 C 20.979 13.527,21.000 13.352,20.999 12.014 C 20.999 10.682,20.974 10.463,20.781 10.083 C 20.646 9.816,20.297 9.449,20.017 9.281 C 19.537 8.992,19.766 9.004,14.880 9.007 C 12.471 9.008,10.415 9.024,10.311 9.041 M3.695 11.055 C 3.464 11.130,3.255 11.300,3.128 11.516 C 3.037 11.672,3.020 11.746,3.020 12.000 C 3.020 12.257,3.036 12.327,3.133 12.492 C 3.651 13.374,4.998 13.018,4.998 12.000 C 4.998 11.623,4.792 11.281,4.463 11.112 C 4.265 11.010,3.911 10.984,3.695 11.055 M19.000 12.001 L 19.000 13.001 14.770 12.991 L 10.540 12.980 10.380 12.893 C 10.292 12.845,10.040 12.625,9.821 12.403 L 9.422 12.000 9.821 11.597 C 10.206 11.208,10.346 11.102,10.560 11.037 C 10.615 11.021,12.537 11.005,14.830 11.003 L 19.000 11.000 19.000 12.001 M3.695 15.055 C 3.464 15.130,3.255 15.300,3.128 15.516 C 3.037 15.672,3.020 15.746,3.020 16.000 C 3.020 16.257,3.036 16.327,3.133 16.492 C 3.651 17.374,4.998 17.018,4.998 16.000 C 4.998 15.623,4.792 15.281,4.463 15.112 C 4.265 15.010,3.911 14.984,3.695 15.055 M10.311 17.041 C 9.921 17.107,9.483 17.288,9.120 17.532 C 8.855 17.711,7.251 19.310,7.127 19.520 C 7.037 19.672,7.020 19.747,7.020 20.000 C 7.020 20.253,7.037 20.328,7.127 20.480 C 7.267 20.717,8.872 22.302,9.180 22.508 C 9.312 22.596,9.543 22.717,9.694 22.777 C 10.266 23.004,10.130 22.999,14.882 22.999 C 19.651 23.000,19.470 23.008,19.930 22.775 C 20.196 22.640,20.638 22.200,20.771 21.937 C 20.979 21.527,21.000 21.352,20.999 20.014 C 20.999 18.682,20.974 18.463,20.781 18.083 C 20.646 17.816,20.297 17.449,20.017 17.281 C 19.537 16.992,19.766 17.004,14.880 17.007 C 12.471 17.008,10.415 17.024,10.311 17.041 M3.695 19.055 C 3.464 19.130,3.255 19.300,3.128 19.516 C 3.037 19.672,3.020 19.746,3.020 20.000 C 3.020 20.257,3.036 20.327,3.133 20.492 C 3.651 21.374,4.998 21.018,4.998 20.000 C 4.998 19.623,4.792 19.281,4.463 19.112 C 4.265 19.010,3.911 18.984,3.695 19.055 M19.000 20.001 L 19.000 21.001 14.770 20.991 L 10.540 20.980 10.380 20.893 C 10.292 20.845,10.040 20.625,9.821 20.403 L 9.422 20.000 9.821 19.597 C 10.206 19.208,10.346 19.102,10.560 19.037 C 10.615 19.021,12.537 19.005,14.830 19.003 L 19.000 19.000 19.000 20.001 " stroke="none" fill-rule="evenodd" fill="#000000"></path></svg>