<svg  xmlns="http://www.w3.org/2000/svg" width="24" height="24" viewBox="0 0 24 24" fill="none" stroke="currentColor" stroke-width="2" stroke-linecap="round" stroke-linejoin="round"><path d="M11.280 1.023 C 11.203 1.032,10.951 1.059,10.720 1.083 C 8.832 1.283,6.991 2.023,5.360 3.235 C 4.751 3.688,3.684 4.755,3.226 5.367 C 0.728 8.714,0.301 13.032,2.097 16.780 C 2.643 17.918,3.276 18.801,4.238 19.762 C 5.199 20.724,6.082 21.357,7.220 21.903 C 10.967 23.699,15.288 23.270,18.637 20.770 C 19.246 20.316,20.316 19.246,20.770 18.637 C 23.744 14.652,23.744 9.348,20.770 5.363 C 20.316 4.755,19.247 3.686,18.640 3.235 C 17.045 2.049,15.365 1.360,13.423 1.096 C 13.000 1.038,11.574 0.990,11.280 1.023 M13.320 3.101 C 15.883 3.488,18.124 4.931,19.560 7.120 C 19.863 7.583,20.303 8.479,20.492 9.020 C 20.838 10.013,20.977 10.865,20.977 12.000 C 20.977 13.493,20.720 14.621,20.080 15.940 C 19.375 17.394,18.311 18.607,16.927 19.532 C 16.138 20.060,14.876 20.588,13.908 20.797 C 11.266 21.366,8.479 20.708,6.370 19.019 C 4.857 17.807,3.722 16.029,3.267 14.160 C 3.081 13.397,3.023 12.888,3.023 12.000 C 3.023 10.507,3.280 9.379,3.920 8.060 C 4.971 5.891,6.877 4.221,9.160 3.466 C 9.865 3.233,10.432 3.118,11.340 3.024 C 11.662 2.991,12.911 3.039,13.320 3.101 M11.660 5.964 C 11.301 6.016,10.875 6.243,10.584 6.538 C 10.370 6.755,10.284 6.898,9.881 7.697 C 9.570 8.316,9.397 8.618,9.341 8.639 C 9.297 8.655,8.828 8.734,8.300 8.815 C 7.436 8.946,7.311 8.975,7.046 9.105 C 6.483 9.380,6.072 9.932,5.955 10.571 C 5.888 10.941,5.954 11.360,6.143 11.759 C 6.272 12.032,6.352 12.123,7.048 12.799 L 7.811 13.541 7.683 14.340 C 7.613 14.780,7.539 15.212,7.519 15.300 C 7.436 15.662,7.489 16.078,7.673 16.494 C 8.025 17.289,8.901 17.767,9.769 17.638 C 10.018 17.601,10.201 17.524,11.031 17.107 L 12.001 16.620 12.971 17.109 C 14.078 17.668,14.272 17.725,14.810 17.641 C 15.915 17.470,16.720 16.341,16.481 15.300 C 16.461 15.212,16.387 14.780,16.317 14.341 L 16.189 13.542 16.899 12.848 C 17.680 12.085,17.837 11.884,17.964 11.487 C 18.260 10.556,17.827 9.539,16.951 9.107 C 16.689 8.978,16.565 8.949,15.700 8.816 C 15.172 8.735,14.700 8.654,14.651 8.636 C 14.586 8.612,14.442 8.360,14.111 7.693 C 13.716 6.896,13.630 6.753,13.420 6.538 C 13.133 6.245,12.707 6.022,12.320 5.961 C 12.028 5.916,11.997 5.916,11.660 5.964 M12.459 8.870 C 12.833 9.608,12.936 9.778,13.148 10.003 C 13.402 10.272,13.720 10.474,14.020 10.556 C 14.173 10.598,15.901 10.880,16.007 10.880 C 16.034 10.880,15.713 11.227,15.293 11.650 C 14.503 12.446,14.398 12.588,14.264 13.037 C 14.229 13.157,14.200 13.381,14.200 13.535 C 14.200 13.797,14.457 15.531,14.508 15.613 C 14.541 15.666,14.549 15.670,13.515 15.148 C 12.696 14.735,12.544 14.672,12.290 14.638 C 11.726 14.564,11.538 14.617,10.483 15.148 C 9.432 15.677,9.460 15.664,9.492 15.613 C 9.542 15.531,9.800 13.786,9.800 13.528 C 9.800 13.378,9.771 13.157,9.736 13.037 C 9.603 12.592,9.495 12.445,8.707 11.650 C 8.288 11.227,7.967 10.880,7.994 10.880 C 8.148 10.880,9.873 10.588,10.032 10.535 C 10.350 10.429,10.621 10.250,10.866 9.987 C 11.056 9.782,11.182 9.573,11.540 8.868 C 11.782 8.392,11.989 8.002,12.000 8.001 C 12.011 8.001,12.218 8.392,12.459 8.870 " stroke="none" fill-rule="evenodd" fill="#000000"></path></svg>