<svg  xmlns="http://www.w3.org/2000/svg" width="24" height="24" viewBox="0 0 24 24" fill="none" stroke="currentColor" stroke-width="2" stroke-linecap="round" stroke-linejoin="round"><path d="M16.659 4.064 C 16.416 4.150,16.217 4.336,16.098 4.589 C 16.006 4.783,15.993 4.852,16.010 5.066 C 16.037 5.395,16.168 5.615,16.489 5.873 C 17.022 6.300,17.380 6.745,17.662 7.332 C 17.890 7.804,18.000 8.239,18.000 8.662 L 18.000 8.992 17.670 9.017 C 16.886 9.077,16.127 9.221,15.740 9.382 L 15.585 9.448 15.506 9.334 C 15.353 9.114,14.737 8.538,14.513 8.407 C 14.222 8.236,13.815 8.095,13.448 8.039 C 13.259 8.009,12.688 7.999,11.809 8.009 C 10.511 8.024,10.448 8.029,10.139 8.124 C 9.571 8.299,9.100 8.617,8.679 9.108 C 8.570 9.236,8.440 9.416,8.391 9.510 C 8.341 9.604,8.283 9.680,8.261 9.680 C 8.239 9.680,7.087 9.302,5.699 8.840 C 4.312 8.378,3.113 8.000,3.035 8.000 C 2.260 8.000,1.774 8.785,2.126 9.469 C 2.314 9.834,2.276 9.818,5.688 10.955 C 7.724 11.634,8.878 12.000,8.984 12.000 C 9.518 12.000,10.000 11.535,10.000 11.020 C 10.000 10.598,10.304 10.175,10.690 10.061 C 10.966 9.979,13.100 9.975,13.327 10.056 C 13.472 10.108,13.800 10.342,13.800 10.393 C 13.800 10.408,13.733 10.465,13.652 10.520 C 13.417 10.680,12.718 11.391,12.453 11.741 C 11.581 12.893,11.118 14.137,11.015 15.610 L 10.988 16.000 9.933 16.000 C 8.963 16.000,8.876 15.994,8.855 15.930 C 8.843 15.892,8.778 15.716,8.711 15.540 C 8.213 14.232,7.008 13.270,5.605 13.058 C 5.121 12.986,4.879 12.986,4.395 13.058 C 2.155 13.396,0.632 15.563,1.083 17.773 C 1.357 19.118,2.249 20.195,3.512 20.704 C 4.231 20.994,5.023 21.070,5.757 20.921 C 7.127 20.641,8.230 19.723,8.711 18.460 C 8.778 18.284,8.843 18.108,8.855 18.070 C 8.876 18.005,8.969 18.000,10.070 18.000 C 11.362 18.000,11.525 17.980,11.930 17.775 C 12.234 17.621,12.655 17.184,12.798 16.874 C 12.936 16.576,12.982 16.333,13.039 15.600 C 13.098 14.849,13.226 14.384,13.555 13.731 C 13.885 13.074,14.454 12.404,15.039 11.983 C 15.308 11.789,15.978 11.402,16.047 11.401 C 16.073 11.400,16.800 13.542,16.800 13.620 C 16.800 13.643,16.671 13.759,16.514 13.879 C 16.178 14.135,15.790 14.576,15.569 14.953 C 14.320 17.083,15.233 19.785,17.512 20.704 C 19.560 21.529,21.874 20.540,22.705 18.484 C 22.994 17.770,23.070 16.976,22.921 16.243 C 22.628 14.806,21.637 13.680,20.245 13.204 C 19.942 13.100,19.319 13.001,18.973 13.000 L 18.727 13.000 18.399 12.017 C 18.219 11.477,18.078 11.030,18.086 11.025 C 18.094 11.019,18.215 10.994,18.355 10.969 C 18.757 10.897,19.090 10.719,19.398 10.410 C 19.870 9.939,20.000 9.565,20.000 8.684 C 20.000 8.270,19.979 8.025,19.922 7.767 C 19.614 6.385,18.826 5.144,17.715 4.291 C 17.348 4.009,17.014 3.937,16.659 4.064 M5.523 15.073 C 6.262 15.266,6.850 15.924,6.967 16.690 C 7.067 17.343,6.873 17.933,6.403 18.404 C 6.002 18.807,5.547 19.000,5.000 19.000 C 4.485 19.000,4.038 18.822,3.653 18.465 C 2.323 17.229,3.189 15.005,5.000 15.005 C 5.143 15.005,5.378 15.036,5.523 15.073 M19.523 15.073 C 20.262 15.266,20.850 15.924,20.967 16.690 C 21.067 17.343,20.873 17.933,20.403 18.404 C 20.002 18.807,19.547 19.000,19.000 19.000 C 18.485 19.000,18.038 18.822,17.653 18.465 C 16.323 17.229,17.189 15.005,19.000 15.005 C 19.143 15.005,19.378 15.036,19.523 15.073 " stroke="none" fill-rule="evenodd" fill="#000000"></path></svg>