<svg  xmlns="http://www.w3.org/2000/svg" width="24" height="24" viewBox="0 0 24 24" fill="none" stroke="currentColor" stroke-width="2" stroke-linecap="round" stroke-linejoin="round"><path d="M14.140 2.254 C 12.772 2.653,11.644 3.359,10.758 4.370 C 9.813 5.449,9.247 6.693,9.062 8.101 C 8.979 8.734,9.044 8.976,9.376 9.268 C 9.768 9.613,10.286 9.607,10.680 9.253 C 10.908 9.048,10.980 8.885,11.039 8.436 C 11.159 7.539,11.402 6.888,11.884 6.173 C 12.269 5.603,12.928 4.991,13.500 4.672 C 13.791 4.509,14.240 4.307,14.262 4.328 C 14.270 4.337,14.242 4.460,14.200 4.601 C 13.919 5.529,13.942 6.621,14.265 7.600 C 14.489 8.280,14.865 8.896,15.395 9.450 C 16.684 10.800,18.562 11.309,20.379 10.803 C 20.533 10.761,20.666 10.733,20.675 10.742 C 20.685 10.751,20.590 10.963,20.466 11.214 C 19.971 12.207,19.213 12.971,18.228 13.466 C 17.753 13.704,17.618 13.816,17.494 14.068 C 17.229 14.611,17.468 15.230,18.025 15.439 C 18.391 15.575,18.556 15.546,19.171 15.237 C 20.694 14.471,21.909 13.120,22.537 11.493 C 22.875 10.617,22.923 10.050,22.699 9.580 C 22.483 9.126,21.982 8.748,21.451 8.638 C 21.104 8.566,20.594 8.608,20.240 8.738 C 19.655 8.952,19.524 8.977,19.000 8.977 C 18.137 8.976,17.540 8.737,16.927 8.144 C 16.378 7.615,16.078 6.974,16.017 6.198 C 15.983 5.767,16.045 5.382,16.228 4.880 C 16.549 4.004,16.415 3.169,15.866 2.621 C 15.753 2.508,15.553 2.363,15.422 2.299 C 15.090 2.137,14.601 2.120,14.140 2.254 M6.420 11.025 C 6.104 11.059,5.447 11.201,5.137 11.302 C 3.346 11.885,1.885 13.346,1.302 15.137 C 1.089 15.792,1.027 16.203,1.025 16.980 C 1.022 17.752,1.049 17.954,1.245 18.660 C 1.517 19.636,2.019 20.472,2.795 21.240 C 3.646 22.083,4.472 22.549,5.620 22.834 C 6.251 22.990,6.512 23.000,9.990 23.000 C 13.202 23.000,13.387 22.996,13.757 22.921 C 15.384 22.589,16.589 21.384,16.921 19.757 C 17.111 18.823,16.926 17.778,16.421 16.932 C 15.961 16.161,15.142 15.511,14.245 15.204 C 13.929 15.096,13.315 15.001,12.933 15.000 L 12.646 15.000 12.597 14.850 C 12.571 14.768,12.469 14.539,12.372 14.341 C 11.556 12.681,10.002 11.496,8.143 11.116 C 7.749 11.036,6.791 10.985,6.420 11.025 M7.966 13.114 C 8.810 13.336,9.653 13.883,10.156 14.534 C 10.522 15.009,10.718 15.439,10.940 16.252 C 11.018 16.538,11.222 16.776,11.500 16.906 C 11.687 16.993,11.750 16.999,12.480 17.002 C 13.373 17.005,13.639 17.053,14.017 17.281 C 14.902 17.814,15.243 18.955,14.793 19.880 C 14.638 20.198,14.227 20.625,13.930 20.775 C 13.478 21.004,13.551 21.000,9.957 21.000 C 6.349 21.000,6.297 20.997,5.650 20.768 C 4.784 20.462,3.957 19.759,3.500 18.943 C 2.825 17.736,2.848 16.126,3.558 14.975 C 4.213 13.914,5.144 13.269,6.323 13.062 C 6.778 12.982,7.557 13.007,7.966 13.114 " stroke="none" fill-rule="evenodd" fill="#000000"></path></svg>