<svg  xmlns="http://www.w3.org/2000/svg" width="24" height="24" viewBox="0 0 24 24" fill="none" stroke="currentColor" stroke-width="2" stroke-linecap="round" stroke-linejoin="round"><path d="M2.695 3.057 C 2.466 3.129,2.256 3.299,2.128 3.516 L 2.020 3.700 2.020 12.003 L 2.020 20.306 2.141 20.503 C 2.543 21.156,3.457 21.156,3.859 20.503 L 3.980 20.306 3.980 12.003 L 3.980 3.700 3.872 3.516 C 3.628 3.101,3.150 2.915,2.695 3.057 M18.541 3.042 C 18.232 3.090,17.962 3.180,17.640 3.341 C 17.362 3.480,7.555 9.356,7.270 9.554 C 6.454 10.122,5.963 11.131,6.011 12.140 C 6.057 13.077,6.551 13.960,7.320 14.478 C 7.516 14.610,17.151 20.394,17.600 20.649 C 18.114 20.940,18.965 21.071,19.546 20.947 C 20.705 20.700,21.529 19.944,21.886 18.800 L 21.980 18.500 21.980 12.000 L 21.980 5.500 21.886 5.200 C 21.695 4.588,21.374 4.092,20.912 3.696 C 20.663 3.483,20.080 3.186,19.740 3.099 C 19.435 3.021,18.851 2.993,18.541 3.042 M19.460 5.124 C 19.688 5.232,19.865 5.442,19.941 5.697 C 20.031 6.000,20.030 18.006,19.939 18.310 C 19.788 18.819,19.190 19.120,18.684 18.941 C 18.410 18.845,8.448 12.848,8.276 12.676 C 7.890 12.290,7.936 11.558,8.368 11.233 C 8.570 11.081,18.563 5.097,18.700 5.046 C 18.868 4.984,19.243 5.022,19.460 5.124 " stroke="none" fill-rule="evenodd" fill="#000000"></path></svg>