<svg  xmlns="http://www.w3.org/2000/svg" width="24" height="24" viewBox="0 0 24 24" fill="none" stroke="currentColor" stroke-width="2" stroke-linecap="round" stroke-linejoin="round"><path d="M2.695 4.057 C 2.466 4.129,2.256 4.299,2.128 4.516 C 2.037 4.672,2.020 4.746,2.020 5.000 C 2.020 5.256,2.036 5.328,2.131 5.489 C 2.256 5.702,2.449 5.864,2.670 5.943 C 2.885 6.020,5.115 6.020,5.330 5.943 C 5.551 5.864,5.744 5.702,5.869 5.489 C 5.964 5.328,5.980 5.256,5.980 5.000 C 5.980 4.746,5.963 4.672,5.872 4.516 C 5.740 4.293,5.533 4.128,5.290 4.055 C 5.039 3.979,2.937 3.981,2.695 4.057 M10.695 4.057 C 10.466 4.129,10.256 4.299,10.128 4.516 C 10.037 4.672,10.020 4.746,10.020 5.000 C 10.020 5.256,10.036 5.328,10.131 5.489 C 10.256 5.702,10.449 5.864,10.670 5.943 C 10.885 6.020,13.115 6.020,13.330 5.943 C 13.551 5.864,13.744 5.702,13.869 5.489 C 13.964 5.328,13.980 5.256,13.980 5.000 C 13.980 4.746,13.963 4.672,13.872 4.516 C 13.740 4.293,13.533 4.128,13.290 4.055 C 13.039 3.979,10.937 3.981,10.695 4.057 M18.695 4.057 C 18.466 4.129,18.256 4.299,18.128 4.516 C 18.037 4.672,18.020 4.746,18.020 5.000 C 18.020 5.256,18.036 5.328,18.131 5.489 C 18.256 5.702,18.449 5.864,18.670 5.943 C 18.885 6.020,21.115 6.020,21.330 5.943 C 21.551 5.864,21.744 5.702,21.869 5.489 C 21.964 5.328,21.980 5.256,21.980 5.000 C 21.980 4.746,21.963 4.672,21.872 4.516 C 21.740 4.293,21.533 4.128,21.290 4.055 C 21.039 3.979,18.937 3.981,18.695 4.057 M2.695 11.057 C 2.466 11.129,2.256 11.299,2.128 11.516 C 2.037 11.672,2.020 11.746,2.020 12.000 C 2.020 12.256,2.036 12.328,2.131 12.489 C 2.256 12.702,2.449 12.864,2.670 12.943 C 2.891 13.022,9.109 13.022,9.330 12.943 C 9.551 12.864,9.744 12.702,9.869 12.489 C 9.964 12.328,9.980 12.256,9.980 12.000 C 9.980 11.746,9.963 11.672,9.872 11.516 C 9.740 11.293,9.533 11.128,9.290 11.055 C 9.030 10.977,2.945 10.979,2.695 11.057 M14.695 11.057 C 14.466 11.129,14.256 11.299,14.128 11.516 C 14.037 11.672,14.020 11.746,14.020 12.000 C 14.020 12.256,14.036 12.328,14.131 12.489 C 14.256 12.702,14.449 12.864,14.670 12.943 C 14.891 13.022,21.109 13.022,21.330 12.943 C 21.551 12.864,21.744 12.702,21.869 12.489 C 21.964 12.328,21.980 12.256,21.980 12.000 C 21.980 11.746,21.963 11.672,21.872 11.516 C 21.740 11.293,21.533 11.128,21.290 11.055 C 21.030 10.977,14.945 10.979,14.695 11.057 M2.695 18.057 C 2.466 18.129,2.256 18.299,2.128 18.516 C 2.037 18.672,2.020 18.746,2.020 19.000 C 2.020 19.256,2.036 19.328,2.131 19.489 C 2.256 19.702,2.449 19.864,2.670 19.943 C 2.893 20.023,21.107 20.023,21.330 19.943 C 21.551 19.864,21.744 19.702,21.869 19.489 C 21.964 19.328,21.980 19.256,21.980 19.000 C 21.980 18.746,21.963 18.672,21.872 18.516 C 21.740 18.293,21.533 18.128,21.290 18.055 C 21.027 17.976,2.947 17.978,2.695 18.057 " stroke="none" fill-rule="evenodd" fill="#000000"></path></svg>