<svg  xmlns="http://www.w3.org/2000/svg" width="24" height="24" viewBox="0 0 24 24" fill="none" stroke="currentColor" stroke-width="2" stroke-linecap="round" stroke-linejoin="round"><path d="M13.664 1.060 C 13.413 1.156,13.254 1.303,13.077 1.600 C 12.759 2.135,12.381 2.464,11.849 2.667 C 11.387 2.844,11.155 2.836,7.744 2.523 C 6.052 2.367,4.516 2.240,4.332 2.240 C 2.767 2.240,1.374 3.397,1.058 4.957 C 1.007 5.208,0.995 5.418,1.009 5.777 C 1.025 6.195,1.047 6.315,1.167 6.667 C 1.531 7.725,2.277 8.467,3.344 8.832 C 3.478 8.878,3.680 8.928,3.794 8.943 L 4.000 8.970 4.000 9.207 C 4.000 10.182,4.315 11.468,4.800 12.471 C 5.197 13.294,5.611 13.886,6.259 14.554 C 7.478 15.813,8.945 16.584,10.740 16.908 C 11.034 16.961,11.536 16.977,13.480 16.996 L 15.860 17.020 16.104 17.133 C 16.414 17.276,16.722 17.586,16.866 17.900 C 16.961 18.106,16.977 18.192,16.977 18.500 C 16.977 18.808,16.961 18.894,16.866 19.100 C 16.721 19.417,16.414 19.725,16.104 19.864 C 15.784 20.009,15.345 20.037,14.877 19.942 C 14.438 19.853,14.207 19.734,13.820 19.398 C 13.377 19.014,13.071 18.922,12.684 19.058 C 12.450 19.141,12.253 19.303,12.128 19.516 C 12.037 19.672,12.020 19.746,12.020 20.000 C 12.020 20.255,12.036 20.328,12.129 20.486 C 12.190 20.588,12.323 20.746,12.425 20.836 L 12.611 21.000 12.425 21.164 C 12.179 21.380,12.040 21.625,12.013 21.888 C 11.971 22.295,12.156 22.660,12.508 22.867 C 12.673 22.964,12.742 22.980,13.000 22.979 C 13.351 22.978,13.459 22.931,13.786 22.634 C 14.325 22.147,14.610 22.049,15.640 21.998 C 16.497 21.956,17.108 21.856,17.735 21.654 C 18.914 21.274,19.939 20.652,20.795 19.795 C 21.872 18.719,22.601 17.332,22.887 15.814 C 23.017 15.130,23.017 13.870,22.887 13.186 C 22.374 10.471,20.462 8.260,17.880 7.397 C 17.446 7.252,17.140 7.175,16.580 7.072 C 16.416 7.042,14.400 7.021,10.180 7.004 L 4.020 6.980 3.795 6.870 C 3.530 6.739,3.229 6.433,3.107 6.169 C 2.978 5.888,2.982 5.293,3.115 5.040 C 3.372 4.551,3.780 4.273,4.277 4.249 C 4.422 4.242,5.924 4.363,7.616 4.518 C 9.308 4.673,10.887 4.800,11.124 4.800 C 12.521 4.800,13.896 4.042,14.668 2.847 C 15.067 2.230,15.097 1.761,14.764 1.357 C 14.528 1.071,14.005 0.930,13.664 1.060 M13.466 9.229 C 13.614 9.565,13.822 10.316,13.905 10.820 C 13.956 11.133,13.977 11.474,13.977 12.000 C 13.977 12.526,13.956 12.867,13.905 13.180 C 13.821 13.686,13.614 14.435,13.464 14.775 L 13.360 15.009 12.290 14.989 C 11.395 14.972,11.155 14.954,10.820 14.882 C 8.185 14.310,6.297 12.210,6.039 9.564 C 6.019 9.353,6.002 9.139,6.001 9.090 L 6.000 9.000 9.682 9.000 L 13.364 9.000 13.466 9.229 M16.520 9.106 C 17.172 9.217,17.940 9.528,18.520 9.915 C 19.068 10.282,19.050 10.257,19.044 10.619 C 19.029 11.631,18.307 13.138,17.362 14.132 C 16.753 14.773,16.347 15.000,15.815 15.000 C 15.549 15.000,15.515 14.992,15.537 14.934 C 15.610 14.744,15.764 14.128,15.837 13.740 C 16.101 12.322,16.038 10.834,15.658 9.476 C 15.606 9.287,15.550 9.101,15.535 9.062 C 15.510 8.996,15.532 8.993,15.844 9.019 C 16.029 9.035,16.333 9.074,16.520 9.106 M10.695 11.055 C 10.464 11.130,10.255 11.300,10.128 11.516 C 10.037 11.672,10.020 11.746,10.020 12.000 C 10.020 12.257,10.036 12.327,10.133 12.492 C 10.651 13.374,11.998 13.018,11.998 12.000 C 11.998 11.623,11.792 11.281,11.463 11.112 C 11.265 11.010,10.911 10.984,10.695 11.055 M20.821 13.146 C 21.304 15.026,20.741 17.032,19.342 18.419 L 19.020 18.739 18.992 18.319 C 18.944 17.608,18.694 16.926,18.279 16.374 L 18.124 16.169 18.510 15.814 C 19.280 15.107,20.054 13.985,20.519 12.905 C 20.675 12.543,20.664 12.535,20.821 13.146 " stroke="none" fill-rule="evenodd" fill="#000000"></path></svg>