<svg  xmlns="http://www.w3.org/2000/svg" width="24" height="24" viewBox="0 0 24 24" fill="none" stroke="currentColor" stroke-width="2" stroke-linecap="round" stroke-linejoin="round"><path d="M13.499 2.040 C 12.901 2.149,12.459 2.371,11.957 2.814 C 11.424 3.285,1.709 13.037,1.552 13.260 C 1.358 13.534,1.225 13.807,1.114 14.161 C 0.979 14.592,0.979 15.405,1.113 15.840 C 1.214 16.166,1.419 16.568,1.612 16.820 C 1.812 17.082,5.795 21.066,6.114 21.325 C 6.443 21.591,6.725 21.745,7.140 21.885 L 7.420 21.980 14.273 21.991 C 18.824 21.998,21.176 21.988,21.277 21.961 C 21.498 21.901,21.739 21.710,21.867 21.492 C 21.964 21.327,21.980 21.257,21.980 21.000 C 21.980 20.746,21.963 20.672,21.872 20.516 C 21.813 20.415,21.698 20.282,21.618 20.221 C 21.325 19.998,21.356 20.000,18.185 20.000 L 15.262 20.000 18.804 16.450 C 22.200 13.046,22.487 12.741,22.711 12.300 C 22.914 11.897,22.980 11.571,22.977 10.980 C 22.974 10.492,22.961 10.380,22.872 10.113 C 22.729 9.682,22.531 9.348,22.187 8.957 C 21.635 8.332,15.908 2.660,15.680 2.512 C 15.352 2.301,15.160 2.211,14.834 2.119 C 14.498 2.025,13.810 1.984,13.499 2.040 M14.343 4.065 C 14.523 4.124,14.815 4.405,17.707 7.295 C 20.785 10.371,20.875 10.466,20.937 10.677 C 21.016 10.949,21.016 11.051,20.937 11.323 C 20.875 11.534,20.777 11.636,17.397 15.020 L 13.921 18.500 10.210 14.790 L 6.500 11.079 9.980 7.604 C 12.995 4.594,13.484 4.121,13.640 4.068 C 13.878 3.987,14.102 3.986,14.343 4.065 M8.799 16.219 C 11.393 18.813,12.485 19.931,12.456 19.960 C 12.427 19.989,11.671 19.999,10.057 19.991 L 7.700 19.980 7.520 19.873 C 7.420 19.813,6.409 18.832,5.234 17.653 C 3.208 15.621,3.125 15.532,3.064 15.323 C 2.984 15.050,2.984 14.949,3.064 14.678 C 3.124 14.476,3.196 14.393,4.092 13.490 C 4.622 12.957,5.065 12.520,5.078 12.520 C 5.090 12.520,6.765 14.185,8.799 16.219 " stroke="none" fill-rule="evenodd" fill="#000000"></path></svg>