<svg  xmlns="http://www.w3.org/2000/svg" width="24" height="24" viewBox="0 0 24 24" fill="none" stroke="currentColor" stroke-width="2" stroke-linecap="round" stroke-linejoin="round"><path d="M6.477 1.073 C 5.804 1.250,5.238 1.823,5.060 2.508 C 4.972 2.845,4.972 9.359,5.060 9.780 C 5.134 10.137,5.292 10.515,5.492 10.820 C 5.676 11.099,12.406 17.869,12.875 18.247 C 14.125 19.253,15.874 19.253,17.125 18.247 C 17.505 17.940,22.181 13.244,22.368 12.980 C 23.253 11.732,23.204 10.064,22.247 8.875 C 21.933 8.486,15.113 1.686,14.880 1.531 C 14.622 1.359,14.342 1.223,14.020 1.115 L 13.740 1.021 10.240 1.012 C 7.028 1.004,6.718 1.009,6.477 1.073 M13.620 3.107 C 13.713 3.158,15.257 4.675,17.284 6.707 C 21.233 10.667,20.978 10.371,20.978 11.000 C 20.978 11.617,21.108 11.458,18.364 14.213 C 17.031 15.551,15.864 16.700,15.770 16.765 C 15.344 17.062,14.681 17.076,14.268 16.796 C 14.035 16.638,7.198 9.786,7.107 9.620 L 7.020 9.460 7.009 6.229 L 6.998 2.998 10.229 3.009 L 13.460 3.020 13.620 3.107 M10.174 5.039 C 9.750 5.129,9.329 5.477,9.132 5.900 C 9.035 6.107,9.020 6.190,9.020 6.500 C 9.020 6.811,9.035 6.894,9.133 7.104 C 9.276 7.413,9.585 7.721,9.900 7.868 C 10.107 7.965,10.190 7.980,10.500 7.980 C 10.810 7.980,10.893 7.965,11.100 7.868 C 11.415 7.721,11.724 7.413,11.867 7.104 C 11.965 6.894,11.980 6.811,11.980 6.500 C 11.980 6.189,11.965 6.106,11.867 5.896 C 11.727 5.592,11.415 5.278,11.119 5.143 C 10.870 5.030,10.441 4.982,10.174 5.039 M1.695 6.057 C 1.466 6.129,1.256 6.299,1.128 6.516 L 1.020 6.700 1.009 10.088 C 0.997 13.775,0.995 13.733,1.223 14.305 C 1.283 14.456,1.404 14.688,1.491 14.820 C 1.681 15.106,8.563 22.021,8.960 22.324 C 9.847 23.002,11.102 23.188,12.170 22.798 C 12.784 22.575,13.333 22.147,13.431 21.815 C 13.589 21.283,13.344 20.762,12.840 20.557 C 12.763 20.526,12.592 20.502,12.460 20.504 C 12.212 20.507,12.077 20.558,11.780 20.761 C 11.341 21.061,10.679 21.074,10.260 20.790 C 10.034 20.637,3.196 13.783,3.107 13.620 L 3.020 13.460 3.000 10.080 L 2.980 6.700 2.872 6.516 C 2.628 6.101,2.150 5.915,1.695 6.057 " stroke="none" fill-rule="evenodd" fill="#000000"></path></svg>