<svg  xmlns="http://www.w3.org/2000/svg" width="24" height="24" viewBox="0 0 24 24" fill="none" stroke="currentColor" stroke-width="2" stroke-linecap="round" stroke-linejoin="round"><path d="M8.695 1.057 C 8.466 1.129,8.256 1.299,8.128 1.516 C 8.037 1.672,8.020 1.746,8.020 2.000 C 8.020 2.256,8.036 2.328,8.131 2.489 C 8.356 2.872,8.628 2.996,9.249 2.998 L 9.678 3.000 9.256 3.504 C 7.142 6.027,5.733 8.662,5.226 11.040 C 5.061 11.812,5.022 12.213,5.024 13.100 C 5.025 13.814,5.039 14.003,5.115 14.360 C 5.303 15.242,5.661 16.119,6.102 16.776 C 6.202 16.926,6.274 17.059,6.261 17.072 C 6.248 17.085,6.140 17.126,6.022 17.163 C 5.384 17.360,4.676 17.966,4.344 18.600 C 4.068 19.126,4.030 19.323,4.010 20.303 C 3.990 21.282,4.014 21.479,4.202 21.877 C 4.348 22.186,4.771 22.623,5.070 22.775 C 5.538 23.012,5.172 23.000,12.000 23.000 C 18.828 23.000,18.462 23.012,18.930 22.775 C 19.196 22.640,19.638 22.200,19.771 21.937 C 19.980 21.526,20.010 21.305,19.990 20.320 C 19.970 19.321,19.933 19.129,19.656 18.600 C 19.324 17.966,18.616 17.360,17.978 17.163 C 17.860 17.126,17.752 17.085,17.739 17.073 C 17.726 17.060,17.814 16.899,17.933 16.715 C 18.380 16.027,18.697 15.244,18.886 14.360 C 18.963 13.999,18.975 13.820,18.975 13.080 C 18.975 12.188,18.930 11.743,18.759 10.960 C 18.250 8.630,16.833 6.001,14.732 3.490 L 14.322 3.000 14.751 2.998 C 15.372 2.996,15.644 2.872,15.869 2.489 C 15.964 2.328,15.980 2.256,15.980 2.000 C 15.980 1.746,15.963 1.672,15.872 1.516 C 15.740 1.293,15.533 1.128,15.290 1.055 C 15.030 0.977,8.945 0.979,8.695 1.057 M12.459 3.926 C 13.181 4.722,13.928 5.657,14.492 6.469 C 14.617 6.650,14.720 6.812,14.720 6.829 C 14.720 6.846,14.287 7.292,13.757 7.820 C 13.227 8.348,12.744 8.852,12.682 8.940 C 12.371 9.385,12.489 10.010,12.942 10.321 C 13.239 10.525,13.741 10.539,14.019 10.351 C 14.085 10.306,14.513 9.899,14.968 9.446 L 15.796 8.624 15.962 8.982 C 16.464 10.064,16.787 11.096,16.924 12.060 C 17.003 12.616,16.993 13.630,16.904 14.040 C 16.651 15.212,15.917 16.327,15.051 16.853 L 14.810 17.000 11.993 17.000 L 9.176 17.000 8.877 16.803 C 8.320 16.438,7.771 15.775,7.441 15.072 C 7.016 14.166,6.911 13.188,7.102 11.920 C 7.419 9.806,8.656 7.395,10.709 4.890 C 11.113 4.396,11.965 3.441,12.000 3.441 C 12.011 3.441,12.218 3.659,12.459 3.926 M17.310 19.061 C 17.452 19.103,17.571 19.178,17.697 19.303 C 17.948 19.554,18.000 19.751,18.000 20.447 L 18.000 21.000 12.000 21.000 L 6.000 21.000 6.000 20.447 C 6.000 19.750,6.052 19.554,6.304 19.303 C 6.621 18.985,6.234 19.006,11.983 19.003 C 16.458 19.000,17.131 19.008,17.310 19.061 " stroke="none" fill-rule="evenodd" fill="#000000"></path></svg>