<svg  xmlns="http://www.w3.org/2000/svg" width="24" height="24" viewBox="0 0 24 24" fill="none" stroke="currentColor" stroke-width="2" stroke-linecap="round" stroke-linejoin="round"><path d="M5.499 1.043 C 4.379 1.234,3.461 2.048,3.114 3.160 L 3.020 3.460 3.020 12.000 L 3.020 20.540 3.114 20.840 C 3.422 21.827,4.173 22.578,5.160 22.886 L 5.460 22.980 12.000 22.980 L 18.540 22.980 18.840 22.886 C 19.827 22.578,20.578 21.827,20.886 20.840 L 20.980 20.540 20.980 13.980 L 20.980 7.420 20.868 7.060 C 20.728 6.613,20.498 6.179,20.219 5.840 C 19.855 5.397,16.159 1.747,15.910 1.585 C 15.591 1.378,15.236 1.218,14.860 1.111 L 14.540 1.021 10.120 1.015 C 7.689 1.011,5.609 1.024,5.499 1.043 M13.000 5.132 C 13.000 7.443,13.004 7.494,13.225 7.930 C 13.361 8.199,13.801 8.639,14.070 8.775 C 14.506 8.996,14.557 9.000,16.868 9.000 L 19.000 9.000 19.000 14.554 C 19.000 19.144,18.990 20.139,18.945 20.290 C 18.872 20.533,18.707 20.740,18.484 20.872 C 18.306 20.977,18.277 20.980,17.595 20.993 L 16.890 21.006 16.862 20.853 C 16.782 20.415,16.459 19.683,16.125 19.182 C 15.888 18.827,15.382 18.292,15.058 18.054 L 14.806 17.869 15.042 17.588 C 15.489 17.057,15.779 16.453,15.921 15.757 C 16.070 15.024,15.994 14.230,15.705 13.516 C 15.172 12.197,14.001 11.269,12.605 11.058 C 12.121 10.986,11.879 10.986,11.395 11.058 C 9.155 11.396,7.632 13.563,8.083 15.773 C 8.222 16.459,8.510 17.056,8.958 17.588 L 9.194 17.869 8.942 18.054 C 8.616 18.293,8.100 18.839,7.865 19.193 C 7.541 19.680,7.218 20.418,7.138 20.853 L 7.110 21.006 6.405 20.993 C 5.723 20.980,5.694 20.977,5.516 20.872 C 5.415 20.813,5.284 20.700,5.225 20.623 C 4.985 20.308,5.000 20.888,5.000 12.022 C 5.000 2.888,4.974 3.632,5.304 3.303 C 5.615 2.991,5.409 3.006,9.430 3.003 L 13.000 3.000 13.000 5.132 M16.800 5.220 L 18.580 7.000 16.790 7.000 L 15.000 7.000 15.000 5.220 C 15.000 4.241,15.005 3.440,15.010 3.440 C 15.016 3.440,15.821 4.241,16.800 5.220 M12.523 13.073 C 13.262 13.266,13.850 13.924,13.967 14.690 C 14.067 15.343,13.873 15.933,13.403 16.404 C 13.002 16.807,12.547 17.000,12.000 17.000 C 11.485 17.000,11.038 16.822,10.653 16.465 C 9.323 15.229,10.189 13.005,12.000 13.005 C 12.143 13.005,12.378 13.036,12.523 13.073 M12.861 19.129 C 13.626 19.353,14.304 19.922,14.683 20.660 L 14.847 20.980 13.424 20.991 C 12.641 20.996,11.359 20.996,10.576 20.991 L 9.153 20.980 9.317 20.660 C 9.757 19.803,10.554 19.212,11.499 19.040 C 11.832 18.980,12.500 19.023,12.861 19.129 " stroke="none" fill-rule="evenodd" fill="#000000"></path></svg>