<svg  xmlns="http://www.w3.org/2000/svg" width="24" height="24" viewBox="0 0 24 24" fill="none" stroke="currentColor" stroke-width="2" stroke-linecap="round" stroke-linejoin="round"><path d="M3.499 2.043 C 2.391 2.230,1.488 3.024,1.114 4.140 L 1.020 4.420 1.009 12.958 C 1.000 20.694,1.005 21.516,1.063 21.718 C 1.326 22.631,2.237 23.176,3.110 22.943 C 3.571 22.820,3.647 22.759,4.980 21.438 C 5.684 20.740,6.323 20.136,6.400 20.095 C 6.535 20.023,6.810 20.019,13.560 20.000 L 20.580 19.980 20.860 19.886 C 21.851 19.554,22.582 18.816,22.886 17.840 L 22.980 17.540 22.980 11.000 L 22.980 4.460 22.886 4.160 C 22.581 3.182,21.832 2.428,20.861 2.121 L 20.540 2.020 12.120 2.014 C 7.489 2.011,3.609 2.024,3.499 2.043 M20.310 4.061 C 20.589 4.144,20.856 4.411,20.939 4.690 C 20.992 4.869,21.000 5.651,21.000 11.001 C 21.000 16.059,20.991 17.139,20.945 17.290 C 20.872 17.533,20.707 17.740,20.484 17.872 L 20.300 17.980 13.280 18.000 L 6.260 18.020 5.980 18.115 C 5.291 18.347,5.119 18.475,3.970 19.615 L 3.000 20.576 3.000 12.735 C 3.000 5.832,3.007 4.870,3.061 4.690 C 3.140 4.421,3.412 4.143,3.673 4.063 C 3.833 4.014,5.030 4.005,11.983 4.003 C 19.144 4.000,20.130 4.007,20.310 4.061 M6.695 6.057 C 6.466 6.129,6.256 6.299,6.128 6.516 C 6.037 6.672,6.020 6.746,6.020 7.000 C 6.020 7.256,6.036 7.328,6.131 7.489 C 6.256 7.702,6.449 7.864,6.670 7.943 C 6.892 8.022,15.108 8.022,15.330 7.943 C 15.551 7.864,15.744 7.702,15.869 7.489 C 15.964 7.328,15.980 7.256,15.980 7.000 C 15.980 6.746,15.963 6.672,15.872 6.516 C 15.740 6.293,15.533 6.128,15.290 6.055 C 15.029 5.976,6.946 5.979,6.695 6.057 M6.695 10.057 C 6.466 10.129,6.256 10.299,6.128 10.516 C 6.037 10.672,6.020 10.746,6.020 11.000 C 6.020 11.256,6.036 11.328,6.131 11.489 C 6.256 11.702,6.449 11.864,6.670 11.943 C 6.892 12.022,17.108 12.022,17.330 11.943 C 17.551 11.864,17.744 11.702,17.869 11.489 C 17.964 11.328,17.980 11.256,17.980 11.000 C 17.980 10.746,17.963 10.672,17.872 10.516 C 17.740 10.293,17.533 10.128,17.290 10.055 C 17.028 9.976,6.946 9.978,6.695 10.057 M6.695 14.057 C 6.466 14.129,6.256 14.299,6.128 14.516 C 6.037 14.672,6.020 14.746,6.020 15.000 C 6.020 15.256,6.036 15.328,6.131 15.489 C 6.256 15.702,6.449 15.864,6.670 15.943 C 6.891 16.022,13.109 16.022,13.330 15.943 C 13.551 15.864,13.744 15.702,13.869 15.489 C 13.964 15.328,13.980 15.256,13.980 15.000 C 13.980 14.746,13.963 14.672,13.872 14.516 C 13.740 14.293,13.533 14.128,13.290 14.055 C 13.030 13.977,6.945 13.979,6.695 14.057 " stroke="none" fill-rule="evenodd" fill="#000000"></path></svg>