<svg  xmlns="http://www.w3.org/2000/svg" width="24" height="24" viewBox="0 0 24 24" fill="none" stroke="currentColor" stroke-width="2" stroke-linecap="round" stroke-linejoin="round"><path d="M18.695 1.057 C 18.466 1.129,18.256 1.299,18.128 1.516 L 18.020 1.700 18.008 2.850 L 17.995 4.000 16.944 4.000 C 15.797 4.000,15.643 4.022,15.382 4.221 C 15.302 4.282,15.187 4.415,15.128 4.516 C 15.037 4.672,15.020 4.746,15.020 5.000 C 15.020 5.256,15.036 5.328,15.131 5.489 C 15.192 5.592,15.304 5.725,15.381 5.783 C 15.642 5.983,15.738 5.996,16.908 5.998 L 17.995 6.000 18.008 7.153 L 18.020 8.307 18.141 8.503 C 18.543 9.156,19.457 9.156,19.859 8.503 L 19.980 8.307 19.992 7.153 L 20.005 6.000 21.092 5.998 C 22.262 5.996,22.358 5.983,22.619 5.783 C 22.696 5.725,22.808 5.592,22.869 5.489 C 22.964 5.328,22.980 5.256,22.980 5.000 C 22.980 4.746,22.963 4.672,22.872 4.516 C 22.813 4.415,22.698 4.282,22.618 4.221 C 22.357 4.022,22.203 4.000,21.056 4.000 L 20.005 4.000 19.992 2.850 L 19.980 1.700 19.872 1.516 C 19.628 1.101,19.150 0.915,18.695 1.057 M1.695 4.057 C 1.466 4.129,1.256 4.299,1.128 4.516 C 1.037 4.672,1.020 4.746,1.020 5.000 C 1.020 5.256,1.036 5.328,1.131 5.489 C 1.256 5.702,1.449 5.864,1.670 5.943 C 1.892 6.022,12.108 6.022,12.330 5.943 C 12.551 5.864,12.744 5.702,12.869 5.489 C 12.964 5.328,12.980 5.256,12.980 5.000 C 12.980 4.746,12.963 4.672,12.872 4.516 C 12.740 4.293,12.533 4.128,12.290 4.055 C 12.028 3.976,1.946 3.978,1.695 4.057 M5.695 11.057 C 5.466 11.129,5.256 11.299,5.128 11.516 C 5.037 11.672,5.020 11.746,5.020 12.000 C 5.020 12.256,5.036 12.328,5.131 12.489 C 5.256 12.702,5.449 12.864,5.670 12.943 C 5.793 12.987,6.938 12.996,12.000 12.996 C 17.062 12.996,18.207 12.987,18.330 12.943 C 18.551 12.864,18.744 12.702,18.869 12.489 C 18.964 12.328,18.980 12.256,18.980 12.000 C 18.980 11.746,18.963 11.672,18.872 11.516 C 18.740 11.293,18.533 11.128,18.290 11.055 C 18.028 10.976,5.947 10.978,5.695 11.057 M8.695 18.057 C 8.466 18.129,8.256 18.299,8.128 18.516 C 8.037 18.672,8.020 18.746,8.020 19.000 C 8.020 19.256,8.036 19.328,8.131 19.489 C 8.256 19.702,8.449 19.864,8.670 19.943 C 8.891 20.022,15.109 20.022,15.330 19.943 C 15.551 19.864,15.744 19.702,15.869 19.489 C 15.964 19.328,15.980 19.256,15.980 19.000 C 15.980 18.746,15.963 18.672,15.872 18.516 C 15.740 18.293,15.533 18.128,15.290 18.055 C 15.030 17.977,8.945 17.979,8.695 18.057 " stroke="none" fill-rule="evenodd" fill="#000000"></path></svg>