<svg  xmlns="http://www.w3.org/2000/svg" width="24" height="24" viewBox="0 0 24 24" fill="none" stroke="currentColor" stroke-width="2" stroke-linecap="round" stroke-linejoin="round"><path d="M11.499 1.040 C 10.363 1.246,9.460 2.049,9.114 3.160 C 8.979 3.594,8.979 4.406,9.114 4.840 C 9.365 5.645,9.931 6.318,10.670 6.688 L 11.000 6.853 11.000 8.427 L 11.000 10.000 9.946 10.000 C 8.797 10.000,8.644 10.022,8.382 10.221 C 8.302 10.282,8.187 10.415,8.128 10.516 C 8.037 10.672,8.020 10.746,8.020 11.000 C 8.020 11.256,8.036 11.328,8.131 11.489 C 8.192 11.592,8.304 11.725,8.381 11.783 C 8.643 11.983,8.738 11.996,9.910 11.998 L 11.000 12.000 11.000 15.960 L 11.000 19.920 10.898 19.920 C 10.703 19.920,9.979 19.751,9.500 19.595 C 8.680 19.327,7.800 18.861,7.100 18.325 C 6.500 17.866,5.752 17.054,5.309 16.380 C 4.862 15.702,4.335 14.487,4.219 13.870 L 4.191 13.720 4.461 13.846 C 4.800 14.005,5.045 14.032,5.322 13.939 C 5.838 13.768,6.117 13.197,5.939 12.675 C 5.815 12.311,5.727 12.248,4.485 11.624 C 3.744 11.253,3.268 11.037,3.148 11.019 C 2.752 10.960,2.336 11.162,2.129 11.514 C 2.023 11.695,2.020 11.716,2.022 12.300 C 2.029 13.940,2.548 15.706,3.470 17.220 C 4.015 18.116,5.008 19.235,5.800 19.847 C 7.193 20.923,8.814 21.633,10.440 21.878 C 10.605 21.902,10.796 21.932,10.865 21.942 C 10.981 21.960,10.992 21.976,11.016 22.158 C 11.051 22.419,11.247 22.705,11.497 22.859 C 11.671 22.966,11.729 22.980,12.000 22.980 C 12.271 22.980,12.329 22.966,12.503 22.859 C 12.753 22.705,12.949 22.419,12.984 22.158 C 13.008 21.976,13.019 21.960,13.135 21.942 C 13.204 21.932,13.395 21.902,13.560 21.878 C 15.186 21.633,16.810 20.922,18.200 19.847 C 18.637 19.509,19.509 18.637,19.847 18.200 C 21.167 16.494,21.892 14.547,21.986 12.458 C 22.008 11.980,22.001 11.864,21.941 11.682 C 21.797 11.249,21.353 10.963,20.905 11.013 C 20.607 11.047,18.529 12.075,18.298 12.303 C 17.907 12.687,17.908 13.310,18.300 13.702 C 18.627 14.029,19.045 14.078,19.539 13.846 L 19.809 13.720 19.781 13.870 C 19.666 14.481,19.132 15.711,18.692 16.380 C 18.247 17.055,17.500 17.866,16.900 18.325 C 16.200 18.861,15.320 19.327,14.500 19.595 C 14.021 19.751,13.297 19.920,13.102 19.920 L 13.000 19.920 13.000 15.960 L 13.000 12.000 14.090 11.998 C 15.262 11.996,15.357 11.983,15.619 11.783 C 15.696 11.725,15.808 11.592,15.869 11.489 C 15.964 11.328,15.980 11.256,15.980 11.000 C 15.980 10.746,15.963 10.672,15.872 10.516 C 15.813 10.415,15.698 10.282,15.618 10.221 C 15.356 10.022,15.203 10.000,14.054 10.000 L 13.000 10.000 13.000 8.427 L 13.000 6.853 13.330 6.688 C 14.069 6.318,14.635 5.645,14.886 4.840 C 15.021 4.406,15.021 3.594,14.886 3.160 C 14.581 2.179,13.810 1.407,12.861 1.129 C 12.500 1.023,11.832 0.980,11.499 1.040 M12.310 3.061 C 12.688 3.173,13.000 3.598,13.000 4.001 C 13.000 4.331,12.784 4.696,12.484 4.872 C 12.328 4.963,12.254 4.980,12.000 4.980 C 11.746 4.980,11.672 4.963,11.516 4.872 C 10.935 4.530,10.833 3.774,11.304 3.303 C 11.583 3.024,11.916 2.944,12.310 3.061 " stroke="none" fill-rule="evenodd" fill="#000000"></path></svg>