<svg  xmlns="http://www.w3.org/2000/svg" width="24" height="24" viewBox="0 0 24 24" fill="none" stroke="currentColor" stroke-width="2" stroke-linecap="round" stroke-linejoin="round"><path d="M3.499 5.043 C 2.380 5.232,1.461 6.048,1.114 7.160 L 1.020 7.460 1.020 11.000 L 1.020 14.540 1.114 14.840 C 1.364 15.641,1.929 16.315,2.660 16.684 L 2.980 16.845 3.000 17.576 C 3.020 18.304,3.020 18.307,3.141 18.503 C 3.543 19.156,4.457 19.156,4.859 18.503 C 4.979 18.308,4.980 18.300,4.993 17.653 L 5.007 17.000 6.000 17.000 L 6.993 17.000 7.007 17.653 C 7.020 18.300,7.021 18.308,7.141 18.503 C 7.543 19.156,8.457 19.156,8.859 18.503 C 8.979 18.308,8.980 18.300,8.993 17.653 L 9.007 17.000 10.000 17.000 L 10.993 17.000 11.007 17.653 C 11.020 18.300,11.021 18.308,11.141 18.503 C 11.543 19.156,12.457 19.156,12.859 18.503 C 12.979 18.308,12.980 18.300,12.993 17.653 L 13.007 17.000 14.000 17.000 L 14.993 17.000 15.007 17.653 C 15.020 18.300,15.021 18.308,15.141 18.503 C 15.543 19.156,16.457 19.156,16.859 18.503 C 16.979 18.308,16.980 18.300,16.993 17.653 L 17.007 17.000 18.000 17.000 L 18.993 17.000 19.007 17.653 C 19.020 18.300,19.021 18.308,19.141 18.503 C 19.543 19.156,20.457 19.156,20.859 18.503 C 20.980 18.307,20.980 18.304,21.000 17.576 L 21.020 16.845 21.340 16.684 C 22.071 16.315,22.636 15.641,22.886 14.840 L 22.980 14.540 22.980 11.000 L 22.980 7.460 22.886 7.160 C 22.581 6.182,21.832 5.428,20.861 5.121 L 20.540 5.020 12.120 5.014 C 7.489 5.011,3.609 5.024,3.499 5.043 M20.310 7.061 C 20.452 7.103,20.571 7.178,20.697 7.303 C 20.978 7.584,21.000 7.703,21.000 8.943 L 21.000 9.991 20.610 10.008 C 20.174 10.027,19.994 10.095,19.772 10.326 C 19.599 10.507,19.512 10.732,19.512 11.000 C 19.512 11.405,19.719 11.724,20.100 11.905 C 20.263 11.982,20.365 11.999,20.650 12.000 L 21.000 12.000 21.000 13.054 C 21.000 14.203,20.978 14.356,20.779 14.618 C 20.718 14.698,20.585 14.813,20.484 14.872 L 20.300 14.980 12.000 14.980 L 3.700 14.980 3.516 14.872 C 3.415 14.813,3.282 14.698,3.221 14.618 C 3.022 14.356,3.000 14.203,3.000 13.054 L 3.000 12.000 3.350 12.000 C 3.635 11.999,3.737 11.982,3.900 11.905 C 4.281 11.724,4.488 11.405,4.488 11.000 C 4.488 10.732,4.401 10.507,4.228 10.326 C 4.006 10.095,3.826 10.027,3.390 10.008 L 3.000 9.991 3.000 8.943 C 3.000 7.703,3.022 7.584,3.304 7.303 C 3.421 7.185,3.552 7.100,3.673 7.063 C 3.833 7.014,5.030 7.005,11.983 7.003 C 19.144 7.000,20.130 7.007,20.310 7.061 M7.695 9.057 C 7.466 9.129,7.256 9.299,7.128 9.516 L 7.020 9.700 7.020 11.003 L 7.020 12.306 7.141 12.503 C 7.543 13.156,8.457 13.156,8.859 12.503 L 8.980 12.306 8.980 11.003 L 8.980 9.700 8.872 9.516 C 8.628 9.101,8.150 8.915,7.695 9.057 M11.695 9.057 C 11.466 9.129,11.256 9.299,11.128 9.516 L 11.020 9.700 11.020 11.003 L 11.020 12.306 11.141 12.503 C 11.543 13.156,12.457 13.156,12.859 12.503 L 12.980 12.306 12.980 11.003 L 12.980 9.700 12.872 9.516 C 12.628 9.101,12.150 8.915,11.695 9.057 M15.695 9.057 C 15.466 9.129,15.256 9.299,15.128 9.516 L 15.020 9.700 15.020 11.003 L 15.020 12.306 15.141 12.503 C 15.543 13.156,16.457 13.156,16.859 12.503 L 16.980 12.306 16.980 11.003 L 16.980 9.700 16.872 9.516 C 16.628 9.101,16.150 8.915,15.695 9.057 " stroke="none" fill-rule="evenodd" fill="#000000"></path></svg>