<svg  xmlns="http://www.w3.org/2000/svg" width="24" height="24" viewBox="0 0 24 24" fill="none" stroke="currentColor" stroke-width="2" stroke-linecap="round" stroke-linejoin="round"><path d="M1.670 1.061 C 1.448 1.142,1.250 1.309,1.128 1.516 C 1.036 1.672,1.020 1.745,1.021 2.000 C 1.021 2.212,1.043 2.341,1.095 2.440 C 1.135 2.517,1.882 3.296,2.754 4.172 C 4.047 5.470,4.328 5.771,4.275 5.801 C 3.871 6.033,3.162 6.742,2.829 7.248 C 2.554 7.667,2.440 7.894,2.289 8.320 C 2.055 8.983,2.021 9.242,2.020 10.323 L 2.020 11.306 2.141 11.503 C 2.543 12.156,3.457 12.156,3.859 11.503 L 3.980 11.306 4.006 10.383 C 4.024 9.739,4.050 9.392,4.094 9.236 C 4.317 8.432,4.835 7.776,5.574 7.360 L 5.808 7.228 10.694 12.114 L 15.580 17.000 10.501 17.000 L 5.422 17.000 6.626 15.790 C 7.289 15.124,7.864 14.517,7.905 14.440 C 7.957 14.341,7.979 14.213,7.979 14.000 C 7.980 13.745,7.964 13.672,7.872 13.516 C 7.618 13.084,7.138 12.906,6.657 13.065 C 6.479 13.124,6.250 13.340,4.326 15.255 C 2.001 17.569,2.001 17.569,2.001 18.000 C 2.001 18.429,2.004 18.433,4.306 20.726 C 5.469 21.884,6.483 22.865,6.560 22.905 C 6.659 22.957,6.788 22.979,7.000 22.979 C 7.258 22.980,7.327 22.964,7.492 22.867 C 7.714 22.737,7.901 22.498,7.965 22.264 C 8.019 22.061,7.989 21.733,7.899 21.555 C 7.862 21.481,7.289 20.876,6.627 20.210 L 5.423 19.001 11.481 18.990 L 17.540 18.980 19.480 20.906 C 20.547 21.965,21.483 22.865,21.560 22.905 C 21.659 22.957,21.788 22.979,22.000 22.979 C 22.258 22.980,22.327 22.964,22.492 22.867 C 22.968 22.587,23.139 21.967,22.865 21.508 C 22.810 21.416,18.215 16.793,12.653 11.235 C 3.300 1.889,2.525 1.125,2.343 1.065 C 2.107 0.987,1.874 0.986,1.670 1.061 M16.670 1.061 C 16.448 1.142,16.250 1.309,16.128 1.516 C 16.036 1.672,16.020 1.745,16.021 2.000 C 16.021 2.213,16.043 2.341,16.095 2.440 C 16.136 2.517,16.711 3.124,17.373 3.789 L 18.577 4.998 14.978 5.009 L 11.380 5.020 11.217 5.107 C 10.583 5.447,10.474 6.259,10.999 6.731 C 11.105 6.827,11.263 6.926,11.351 6.952 C 11.468 6.988,12.429 7.000,15.044 7.000 L 18.578 7.000 17.374 8.210 C 16.711 8.876,16.138 9.481,16.101 9.555 C 15.872 10.009,16.056 10.601,16.508 10.867 C 16.673 10.964,16.742 10.980,17.000 10.979 C 17.212 10.979,17.341 10.957,17.440 10.905 C 17.517 10.865,18.531 9.884,19.694 8.726 C 21.996 6.433,21.999 6.429,21.999 6.000 C 21.999 5.569,21.999 5.569,19.674 3.255 C 17.750 1.340,17.521 1.124,17.343 1.065 C 17.107 0.987,16.874 0.986,16.670 1.061 M20.695 12.057 C 20.466 12.129,20.256 12.299,20.128 12.516 C 20.023 12.696,20.020 12.719,19.994 13.580 C 19.977 14.166,19.947 14.547,19.905 14.720 C 19.784 15.212,19.852 15.578,20.112 15.854 C 20.366 16.122,20.811 16.228,21.146 16.100 C 21.371 16.014,21.620 15.797,21.717 15.603 C 21.914 15.206,22.010 14.470,21.993 13.475 C 21.980 12.716,21.978 12.696,21.872 12.516 C 21.628 12.101,21.150 11.915,20.695 12.057 " stroke="none" fill-rule="evenodd" fill="#000000"></path></svg>