<svg  xmlns="http://www.w3.org/2000/svg" width="24" height="24" viewBox="0 0 24 24" fill="none" stroke="currentColor" stroke-width="2" stroke-linecap="round" stroke-linejoin="round"><path d="M7.260 1.042 C 6.815 1.087,6.213 1.213,5.807 1.345 C 5.362 1.490,4.518 1.912,4.086 2.205 C 3.465 2.625,3.148 3.055,3.042 3.620 C 3.009 3.795,3.000 6.355,3.008 13.083 L 3.020 22.306 3.141 22.503 C 3.543 23.156,4.457 23.156,4.859 22.503 L 4.980 22.306 4.991 19.154 L 5.002 16.002 5.231 15.846 C 5.729 15.508,6.432 15.220,7.069 15.093 C 7.320 15.043,7.602 15.023,8.060 15.025 C 9.087 15.029,9.738 15.191,11.500 15.881 C 13.650 16.722,14.492 16.941,15.760 16.986 C 17.270 17.039,18.647 16.649,19.889 15.814 C 20.510 15.397,20.792 15.033,20.939 14.462 C 20.992 14.254,21.000 13.559,21.000 9.000 C 21.000 3.301,21.011 3.578,20.772 3.080 C 20.709 2.949,20.559 2.754,20.403 2.600 C 19.682 1.890,18.666 1.812,17.798 2.401 C 17.327 2.721,16.821 2.886,16.070 2.965 C 14.945 3.082,14.357 2.949,12.440 2.140 C 10.905 1.492,10.111 1.239,9.186 1.102 C 8.646 1.022,7.736 0.993,7.260 1.042 M8.592 3.043 C 9.500 3.142,10.059 3.314,11.680 3.990 C 12.937 4.514,13.764 4.799,14.340 4.906 C 14.827 4.996,16.037 5.007,16.560 4.926 C 17.488 4.781,18.321 4.477,18.890 4.073 L 19.000 3.995 19.000 8.994 L 19.000 13.993 18.803 14.138 C 18.695 14.217,18.451 14.362,18.260 14.459 C 17.135 15.033,15.897 15.145,14.489 14.800 C 13.974 14.674,13.376 14.468,12.340 14.059 C 10.262 13.240,9.364 13.026,8.000 13.029 C 7.428 13.030,7.154 13.049,6.793 13.114 C 6.312 13.200,5.612 13.408,5.222 13.581 L 5.000 13.679 5.000 8.841 L 5.000 4.003 5.239 3.840 C 5.774 3.477,6.536 3.171,7.120 3.085 C 7.285 3.060,7.465 3.034,7.520 3.026 C 7.734 2.994,8.221 3.002,8.592 3.043 " stroke="none" fill-rule="evenodd" fill="#000000"></path></svg>