<svg  xmlns="http://www.w3.org/2000/svg" width="24" height="24" viewBox="0 0 24 24" fill="none" stroke="currentColor" stroke-width="2" stroke-linecap="round" stroke-linejoin="round"><path d="M6.634 3.061 C 4.797 3.312,3.124 4.358,2.099 5.898 C 0.887 7.718,0.669 9.890,1.496 11.922 C 1.936 13.006,2.722 14.093,4.045 15.449 C 5.070 16.500,10.102 21.331,10.340 21.493 C 11.084 22.000,12.056 22.131,12.921 21.842 C 13.538 21.636,13.762 21.468,14.831 20.410 C 15.707 19.544,15.796 19.443,15.841 19.269 C 16.010 18.622,15.539 18.001,14.880 18.001 C 14.498 18.001,14.350 18.104,13.395 19.030 C 12.637 19.766,12.505 19.879,12.321 19.940 C 12.057 20.027,11.783 20.005,11.544 19.876 C 11.309 19.750,5.445 14.062,4.846 13.380 C 4.293 12.750,3.982 12.340,3.715 11.888 C 3.156 10.943,2.930 10.007,3.030 9.053 C 3.314 6.361,5.832 4.538,8.470 5.116 C 9.354 5.310,10.010 5.676,10.740 6.383 C 11.237 6.864,11.480 6.979,12.000 6.980 C 12.343 6.980,12.405 6.968,12.640 6.855 C 12.822 6.768,13.008 6.626,13.260 6.381 C 13.721 5.933,14.052 5.687,14.469 5.480 C 15.135 5.150,15.769 5.000,16.486 5.001 C 17.083 5.002,17.406 5.052,17.918 5.223 C 18.644 5.466,19.224 5.827,19.722 6.346 C 20.813 7.484,21.230 9.025,20.860 10.553 C 20.742 11.038,20.738 11.160,20.826 11.420 C 21.010 11.960,21.683 12.228,22.190 11.963 C 22.535 11.784,22.672 11.565,22.818 10.959 C 22.964 10.356,23.015 9.821,22.986 9.180 C 22.911 7.507,22.254 6.041,21.042 4.840 C 19.346 3.160,16.777 2.566,14.473 3.321 C 13.660 3.587,12.822 4.063,12.247 4.583 L 11.998 4.808 11.829 4.653 C 10.483 3.419,8.488 2.808,6.634 3.061 M14.695 14.057 C 14.466 14.129,14.256 14.299,14.128 14.516 C 14.037 14.672,14.020 14.746,14.020 15.000 C 14.020 15.256,14.036 15.328,14.131 15.489 C 14.256 15.702,14.449 15.864,14.670 15.943 C 14.891 16.022,21.109 16.022,21.330 15.943 C 21.551 15.864,21.744 15.702,21.869 15.489 C 21.964 15.328,21.980 15.256,21.980 15.000 C 21.980 14.746,21.963 14.672,21.872 14.516 C 21.740 14.293,21.533 14.128,21.290 14.055 C 21.030 13.977,14.945 13.979,14.695 14.057 " stroke="none" fill-rule="evenodd" fill="#000000"></path></svg>