<svg  xmlns="http://www.w3.org/2000/svg" width="24" height="24" viewBox="0 0 24 24" fill="none" stroke="currentColor" stroke-width="2" stroke-linecap="round" stroke-linejoin="round"><path d="M3.499 5.043 C 2.383 5.230,1.461 6.048,1.114 7.160 L 1.020 7.460 1.020 12.000 L 1.020 16.540 1.114 16.840 C 1.419 17.816,2.153 18.558,3.140 18.885 C 3.417 18.977,3.446 18.978,5.567 18.991 C 7.023 19.000,7.767 18.990,7.876 18.961 C 8.272 18.854,8.600 18.426,8.600 18.014 C 8.600 17.642,8.415 17.323,8.089 17.131 L 7.900 17.020 5.800 17.000 L 3.700 16.980 3.516 16.872 C 3.415 16.813,3.284 16.700,3.225 16.623 C 2.990 16.315,3.000 16.515,3.000 12.022 C 3.000 7.357,2.983 7.623,3.303 7.303 C 3.606 7.000,3.609 7.000,5.817 7.000 C 7.018 7.000,7.796 6.984,7.889 6.958 C 8.282 6.849,8.600 6.420,8.600 6.000 C 8.600 5.580,8.282 5.151,7.889 5.042 C 7.708 4.992,3.799 4.993,3.499 5.043 M12.280 5.036 C 11.987 5.129,11.728 5.354,11.622 5.609 C 11.588 5.691,11.560 5.867,11.560 6.000 C 11.560 6.419,11.754 6.722,12.140 6.905 L 12.340 6.999 14.223 7.000 C 16.386 7.000,16.395 7.001,16.697 7.303 C 17.017 7.623,17.000 7.359,17.000 12.001 C 17.000 16.458,17.007 16.319,16.779 16.618 C 16.718 16.698,16.585 16.813,16.484 16.872 L 16.300 16.980 14.200 17.000 L 12.100 17.020 11.911 17.131 C 11.585 17.323,11.400 17.642,11.400 18.014 C 11.400 18.426,11.728 18.854,12.124 18.961 C 12.233 18.990,12.977 19.000,14.433 18.991 C 16.554 18.978,16.583 18.977,16.860 18.885 C 17.847 18.558,18.581 17.816,18.886 16.840 L 18.980 16.540 18.980 12.000 L 18.980 7.460 18.886 7.160 C 18.581 6.181,17.828 5.424,16.861 5.123 L 16.540 5.023 14.460 5.014 C 13.316 5.009,12.335 5.019,12.280 5.036 M9.695 8.057 C 9.466 8.129,9.256 8.299,9.128 8.516 L 9.020 8.700 9.008 9.850 L 8.995 11.000 7.944 11.000 C 6.797 11.000,6.643 11.022,6.382 11.221 C 6.302 11.282,6.187 11.415,6.128 11.516 C 6.037 11.672,6.020 11.746,6.020 12.000 C 6.020 12.256,6.036 12.328,6.131 12.489 C 6.192 12.592,6.304 12.725,6.381 12.783 C 6.642 12.983,6.738 12.996,7.908 12.998 L 8.995 13.000 9.008 14.153 L 9.020 15.307 9.141 15.503 C 9.543 16.156,10.457 16.156,10.859 15.503 L 10.980 15.307 10.992 14.153 L 11.005 13.000 12.092 12.998 C 13.262 12.996,13.358 12.983,13.619 12.783 C 13.696 12.725,13.808 12.592,13.869 12.489 C 13.964 12.328,13.980 12.256,13.980 12.000 C 13.980 11.746,13.963 11.672,13.872 11.516 C 13.813 11.415,13.698 11.282,13.618 11.221 C 13.357 11.022,13.203 11.000,12.056 11.000 L 11.005 11.000 10.992 9.850 L 10.980 8.700 10.872 8.516 C 10.628 8.101,10.150 7.915,9.695 8.057 M21.695 9.057 C 21.466 9.129,21.256 9.299,21.128 9.516 L 21.020 9.700 21.020 12.003 L 21.020 14.306 21.141 14.503 C 21.543 15.156,22.457 15.156,22.859 14.503 L 22.980 14.306 22.980 12.003 L 22.980 9.700 22.872 9.516 C 22.628 9.101,22.150 8.915,21.695 9.057 " stroke="none" fill-rule="evenodd" fill="#000000"></path></svg>