<svg  xmlns="http://www.w3.org/2000/svg" width="24" height="24" viewBox="0 0 24 24" fill="none" stroke="currentColor" stroke-width="2" stroke-linecap="round" stroke-linejoin="round"><path d="M2.477 3.073 C 1.804 3.250,1.238 3.823,1.060 4.508 C 0.970 4.854,0.970 19.146,1.060 19.492 C 1.153 19.852,1.310 20.118,1.596 20.404 C 1.882 20.690,2.148 20.847,2.508 20.940 C 2.850 21.029,14.246 21.030,15.008 20.941 C 17.055 20.701,18.910 19.806,20.358 18.358 C 23.079 15.637,23.771 11.506,22.084 8.060 C 21.198 6.251,19.760 4.807,17.978 3.936 C 17.117 3.515,16.317 3.262,15.320 3.094 C 14.933 3.029,14.420 3.022,8.820 3.013 C 3.158 3.004,2.722 3.008,2.477 3.073 M8.077 5.226 C 7.170 6.026,6.481 6.926,5.939 8.020 C 4.688 10.542,4.688 13.458,5.939 15.980 C 6.479 17.071,7.170 17.973,8.077 18.773 L 8.334 19.000 5.667 19.000 L 3.000 19.000 3.000 12.000 L 3.000 5.000 5.667 5.000 L 8.334 5.000 8.077 5.226 M13.000 12.004 L 13.000 18.927 12.830 18.900 C 12.498 18.847,11.884 18.679,11.531 18.544 C 9.137 17.631,7.436 15.506,7.076 12.980 C 6.967 12.217,7.022 11.093,7.205 10.340 C 7.686 8.359,9.040 6.667,10.889 5.735 C 11.470 5.442,12.419 5.143,12.950 5.085 C 12.990 5.081,13.000 6.488,13.000 12.004 M15.660 5.206 C 18.166 5.810,20.185 7.828,20.795 10.340 C 21.041 11.354,21.041 12.646,20.795 13.660 C 20.190 16.150,18.197 18.161,15.725 18.777 C 15.513 18.830,15.263 18.885,15.170 18.900 L 15.000 18.927 15.000 12.003 L 15.000 5.079 15.170 5.104 C 15.263 5.117,15.484 5.163,15.660 5.206 " stroke="none" fill-rule="evenodd" fill="#000000"></path></svg>