<svg  xmlns="http://www.w3.org/2000/svg" width="24" height="24" viewBox="0 0 24 24" fill="none" stroke="currentColor" stroke-width="2" stroke-linecap="round" stroke-linejoin="round"><path d="M9.600 3.024 C 9.104 3.116,8.638 3.302,8.251 3.563 C 8.035 3.709,2.280 9.428,1.797 9.977 C 1.449 10.373,1.255 10.709,1.114 11.160 C 1.033 11.418,1.020 11.539,1.023 12.020 C 1.026 12.508,1.039 12.620,1.128 12.887 C 1.271 13.319,1.469 13.653,1.814 14.043 C 2.394 14.700,8.053 20.304,8.310 20.476 C 8.778 20.789,9.269 20.953,9.841 20.988 C 10.375 21.020,10.782 20.933,11.320 20.673 C 11.684 20.497,11.786 20.424,12.084 20.125 C 12.571 19.635,12.820 19.177,12.940 18.546 C 12.987 18.304,13.000 17.898,13.000 16.748 L 13.000 15.263 15.530 17.785 C 17.121 19.372,18.153 20.370,18.310 20.475 C 18.778 20.789,19.269 20.953,19.841 20.988 C 20.375 21.020,20.782 20.933,21.320 20.673 C 21.684 20.497,21.786 20.424,22.084 20.125 C 22.571 19.635,22.820 19.177,22.940 18.546 C 23.031 18.072,23.030 5.927,22.940 5.450 C 22.820 4.821,22.578 4.370,22.103 3.896 C 21.781 3.573,21.687 3.506,21.318 3.328 C 20.775 3.067,20.566 3.019,19.980 3.023 C 19.311 3.027,18.817 3.182,18.251 3.564 C 18.146 3.635,16.922 4.828,15.530 6.215 L 13.000 8.737 13.000 7.253 C 13.000 5.659,12.972 5.353,12.788 4.916 C 12.592 4.448,12.463 4.255,12.105 3.898 C 11.799 3.592,11.679 3.503,11.360 3.345 C 11.151 3.242,10.881 3.130,10.760 3.097 C 10.538 3.037,9.786 2.989,9.600 3.024 M10.317 5.063 C 10.467 5.107,10.578 5.177,10.700 5.302 C 11.024 5.635,11.000 5.105,11.000 12.000 C 11.000 18.890,11.023 18.365,10.703 18.695 C 10.402 19.004,9.953 19.080,9.556 18.888 C 9.429 18.826,8.509 17.930,6.253 15.671 C 3.219 12.633,3.125 12.534,3.063 12.323 C 2.984 12.051,2.984 11.949,3.063 11.677 C 3.125 11.466,3.217 11.370,6.293 8.293 C 9.260 5.326,9.473 5.122,9.660 5.066 C 9.922 4.987,10.060 4.987,10.317 5.063 M20.317 5.063 C 20.467 5.107,20.578 5.177,20.700 5.302 C 21.024 5.635,21.000 5.105,21.000 12.000 C 21.000 18.890,21.023 18.365,20.703 18.695 C 20.402 19.004,19.953 19.080,19.556 18.888 C 19.429 18.826,18.509 17.930,16.253 15.671 C 13.219 12.633,13.125 12.534,13.063 12.323 C 12.984 12.051,12.984 11.949,13.063 11.677 C 13.125 11.466,13.217 11.370,16.293 8.293 C 19.260 5.326,19.473 5.122,19.660 5.066 C 19.922 4.987,20.060 4.987,20.317 5.063 " stroke="none" fill-rule="evenodd" fill="#000000"></path></svg>