<svg  xmlns="http://www.w3.org/2000/svg" width="24" height="24" viewBox="0 0 24 24" fill="none" stroke="currentColor" stroke-width="2" stroke-linecap="round" stroke-linejoin="round"><path d="M7.499 2.043 C 6.389 2.232,5.484 3.028,5.115 4.140 C 5.023 4.418,5.022 4.438,5.009 6.705 L 4.996 8.991 4.228 9.010 C 3.567 9.027,3.416 9.043,3.139 9.126 C 2.181 9.415,1.420 10.179,1.114 11.160 L 1.020 11.460 1.020 15.500 L 1.020 19.540 1.114 19.840 C 1.422 20.827,2.173 21.578,3.160 21.886 L 3.460 21.980 12.000 21.980 L 20.540 21.980 20.840 21.886 C 21.827 21.578,22.578 20.827,22.886 19.840 L 22.980 19.540 22.980 14.000 L 22.980 8.460 22.886 8.160 C 22.580 7.179,21.819 6.415,20.861 6.126 C 20.585 6.043,20.433 6.027,19.775 6.010 L 19.009 5.991 18.990 5.205 C 18.974 4.536,18.958 4.379,18.882 4.140 C 18.573 3.174,17.823 2.425,16.861 2.121 L 16.540 2.020 12.120 2.014 C 9.689 2.011,7.609 2.024,7.499 2.043 M16.310 4.061 C 16.589 4.144,16.856 4.411,16.939 4.690 C 16.993 4.870,17.000 5.802,17.000 12.447 L 17.000 20.000 16.003 20.000 L 15.007 20.000 14.991 18.710 C 14.976 17.498,14.969 17.403,14.884 17.140 C 14.565 16.165,13.812 15.415,12.861 15.125 C 12.588 15.042,12.458 15.027,12.000 15.027 C 11.542 15.027,11.412 15.042,11.139 15.125 C 10.188 15.415,9.435 16.165,9.116 17.140 C 9.031 17.403,9.024 17.498,9.009 18.710 L 8.993 20.000 7.997 20.000 L 7.000 20.000 7.000 12.447 C 7.000 3.955,6.975 4.632,7.304 4.303 C 7.618 3.989,7.346 4.006,11.983 4.003 C 15.563 4.000,16.132 4.008,16.310 4.061 M9.695 7.057 C 9.466 7.129,9.256 7.299,9.128 7.516 C 9.037 7.672,9.020 7.746,9.020 8.000 C 9.020 8.256,9.036 8.328,9.131 8.489 C 9.256 8.702,9.449 8.864,9.670 8.943 C 9.889 9.021,14.111 9.021,14.330 8.943 C 14.551 8.864,14.744 8.702,14.869 8.489 C 14.964 8.328,14.980 8.256,14.980 8.000 C 14.980 7.746,14.963 7.672,14.872 7.516 C 14.740 7.293,14.533 7.128,14.290 7.055 C 14.033 6.978,9.943 6.979,9.695 7.057 M20.310 8.061 C 20.589 8.144,20.856 8.411,20.939 8.690 C 20.992 8.868,21.000 9.546,21.000 14.001 C 21.000 18.212,20.990 19.139,20.945 19.290 C 20.872 19.533,20.707 19.740,20.484 19.872 C 20.308 19.975,20.272 19.981,19.650 19.993 L 19.000 20.007 19.000 14.003 L 19.000 8.000 19.553 8.000 C 19.931 8.000,20.170 8.019,20.310 8.061 M5.000 15.503 L 5.000 20.007 4.350 19.993 C 3.728 19.981,3.692 19.975,3.516 19.872 C 3.415 19.813,3.284 19.700,3.225 19.623 C 2.992 19.317,3.000 19.469,3.000 15.522 C 3.000 11.414,2.985 11.621,3.304 11.303 C 3.554 11.052,3.727 11.006,4.430 11.003 L 5.000 11.000 5.000 15.503 M9.695 11.057 C 9.466 11.129,9.256 11.299,9.128 11.516 C 9.037 11.672,9.020 11.746,9.020 12.000 C 9.020 12.256,9.036 12.328,9.131 12.489 C 9.256 12.702,9.449 12.864,9.670 12.943 C 9.889 13.021,14.111 13.021,14.330 12.943 C 14.551 12.864,14.744 12.702,14.869 12.489 C 14.964 12.328,14.980 12.256,14.980 12.000 C 14.980 11.746,14.963 11.672,14.872 11.516 C 14.740 11.293,14.533 11.128,14.290 11.055 C 14.033 10.978,9.943 10.979,9.695 11.057 M12.310 17.061 C 12.452 17.103,12.571 17.178,12.697 17.303 C 12.978 17.584,13.000 17.703,13.000 18.947 L 13.000 20.000 12.000 20.000 L 11.000 20.000 11.000 18.947 C 11.000 17.702,11.022 17.585,11.304 17.303 C 11.583 17.024,11.916 16.944,12.310 17.061 " stroke="none" fill-rule="evenodd" fill="#000000"></path></svg>