<svg  xmlns="http://www.w3.org/2000/svg" width="24" height="24" viewBox="0 0 24 24" fill="none" stroke="currentColor" stroke-width="2" stroke-linecap="round" stroke-linejoin="round"><path d="M10.898 3.056 C 10.406 3.175,10.518 3.072,6.597 6.995 C 2.613 10.980,2.748 10.832,2.577 11.420 C 2.486 11.735,2.486 12.265,2.577 12.580 C 2.747 13.165,2.625 13.030,6.497 16.913 C 8.479 18.899,10.182 20.586,10.282 20.660 C 11.153 21.306,12.374 20.978,12.852 19.970 L 12.980 19.700 12.992 17.850 L 13.004 16.000 16.133 16.000 C 19.534 16.000,19.479 16.003,19.930 15.775 C 20.196 15.640,20.638 15.200,20.771 14.937 C 20.996 14.494,21.000 14.442,20.999 12.014 C 20.999 9.601,20.991 9.496,20.781 9.083 C 20.646 8.816,20.297 8.449,20.017 8.281 C 19.550 8.000,19.620 8.005,16.132 8.002 L 13.004 8.000 12.992 6.150 L 12.980 4.300 12.852 4.030 C 12.492 3.269,11.682 2.865,10.898 3.056 M11.111 8.684 C 11.363 9.310,11.882 9.777,12.508 9.940 C 12.701 9.991,13.222 10.000,15.868 10.000 L 19.000 10.000 19.000 12.000 L 19.000 14.000 15.870 14.002 C 12.380 14.005,12.450 14.000,11.983 14.281 C 11.703 14.449,11.354 14.816,11.219 15.083 C 11.015 15.484,11.000 15.627,11.000 17.158 L 11.000 18.580 7.760 15.340 C 5.195 12.775,4.520 12.079,4.520 12.000 C 4.520 11.921,5.193 11.227,7.750 8.670 L 10.980 5.440 11.001 6.950 C 11.020 8.399,11.025 8.469,11.111 8.684 " stroke="none" fill-rule="evenodd" fill="#000000"></path></svg>