<svg  xmlns="http://www.w3.org/2000/svg" width="24" height="24" viewBox="0 0 24 24" fill="none" stroke="currentColor" stroke-width="2" stroke-linecap="round" stroke-linejoin="round"><path d="M8.740 2.024 C 7.661 2.177,6.607 2.504,6.326 2.771 C 5.893 3.182,5.903 3.844,6.348 4.245 C 6.680 4.544,6.978 4.563,7.660 4.329 C 8.539 4.028,9.290 3.935,9.906 4.052 C 11.246 4.307,11.534 5.379,10.466 6.136 C 10.109 6.389,9.973 6.449,9.115 6.733 C 8.022 7.095,7.496 7.308,6.580 7.760 C 3.849 9.108,2.310 10.853,2.036 12.914 C 1.925 13.745,2.158 14.688,2.658 15.434 C 2.910 15.809,3.463 16.330,3.863 16.569 C 4.236 16.792,4.890 17.045,5.340 17.142 C 5.724 17.225,6.513 17.236,6.860 17.164 C 8.032 16.920,9.011 16.373,10.280 15.255 C 10.763 14.830,11.955 13.634,13.101 12.424 C 15.279 10.127,16.626 9.306,17.775 9.576 C 18.338 9.709,18.943 10.114,19.365 10.640 C 20.069 11.519,20.355 13.059,20.097 14.580 C 20.036 14.942,19.856 15.701,19.817 15.765 C 19.805 15.784,19.630 15.654,19.428 15.476 C 17.365 13.668,15.011 13.478,13.363 14.985 C 12.376 15.886,11.866 17.389,12.098 18.708 C 12.251 19.579,12.593 20.258,13.198 20.893 C 14.099 21.838,15.077 22.239,16.207 22.125 C 17.326 22.012,18.336 21.495,19.289 20.549 C 19.537 20.302,20.066 19.694,20.141 19.570 C 20.144 19.564,20.221 19.630,20.311 19.716 C 20.948 20.322,22.008 19.863,21.998 18.985 C 21.996 18.738,21.923 18.575,21.585 18.061 L 21.277 17.593 21.434 17.186 C 21.907 15.969,22.142 14.896,22.187 13.757 C 22.266 11.758,21.660 10.045,20.466 8.890 C 20.030 8.468,19.612 8.178,19.063 7.916 C 18.445 7.621,18.071 7.541,17.320 7.545 C 16.783 7.548,16.649 7.562,16.316 7.652 C 15.375 7.908,14.500 8.415,13.430 9.327 C 12.876 9.800,12.184 10.485,10.773 11.962 C 8.762 14.068,7.795 14.830,6.740 15.142 C 6.417 15.237,5.891 15.238,5.581 15.145 C 5.134 15.010,4.758 14.803,4.536 14.571 C 3.523 13.508,4.047 11.876,5.833 10.532 C 6.307 10.175,6.840 9.856,7.532 9.517 C 8.297 9.141,8.749 8.961,9.796 8.614 C 10.849 8.266,11.413 7.978,11.937 7.519 C 12.668 6.880,13.070 6.098,13.111 5.236 C 13.132 4.776,13.097 4.554,12.933 4.109 C 12.574 3.141,11.612 2.375,10.431 2.117 C 10.073 2.039,9.036 1.982,8.740 2.024 M16.303 16.003 C 17.043 16.139,17.817 16.637,18.673 17.530 L 18.927 17.794 18.757 18.047 C 18.073 19.066,17.337 19.734,16.611 19.998 C 16.001 20.219,15.548 20.194,15.113 19.912 C 14.815 19.720,14.483 19.388,14.334 19.134 C 13.972 18.515,13.954 17.707,14.290 17.032 C 14.436 16.736,14.855 16.296,15.120 16.158 C 15.462 15.980,15.879 15.926,16.303 16.003 " stroke="none" fill-rule="evenodd" fill="#000000"></path></svg>