<svg  xmlns="http://www.w3.org/2000/svg" width="24" height="24" viewBox="0 0 24 24" fill="none" stroke="currentColor" stroke-width="2" stroke-linecap="round" stroke-linejoin="round"><path d="M2.620 2.041 C 1.633 2.245,0.943 3.137,1.011 4.120 C 1.036 4.482,1.153 4.830,1.339 5.100 C 1.415 5.210,2.984 6.965,4.825 9.000 C 9.134 13.762,8.864 13.455,8.938 13.672 C 8.992 13.831,9.000 14.265,9.000 17.039 C 9.000 20.505,8.996 20.437,9.228 20.920 C 9.289 21.046,9.447 21.253,9.598 21.405 C 9.849 21.658,9.925 21.702,11.101 22.288 C 12.363 22.917,12.584 23.000,13.005 23.000 C 13.830 23.000,14.583 22.463,14.890 21.657 L 14.979 21.420 15.000 17.560 C 15.018 14.055,15.026 13.689,15.087 13.580 C 15.123 13.514,15.308 13.281,15.498 13.062 C 15.990 12.494,16.060 12.197,15.816 11.712 C 15.547 11.180,14.782 11.025,14.323 11.411 C 13.970 11.709,13.447 12.369,13.278 12.733 C 13.008 13.313,13.023 13.070,13.010 17.230 L 12.998 20.999 11.999 20.499 L 11.000 20.000 11.000 16.863 C 11.000 13.482,10.996 13.398,10.787 12.881 C 10.733 12.748,10.616 12.527,10.526 12.390 C 10.436 12.252,8.710 10.313,6.691 8.080 L 3.018 4.020 7.919 4.000 L 12.820 3.980 12.980 3.894 C 13.316 3.712,13.518 3.377,13.518 3.000 C 13.518 2.623,13.316 2.288,12.980 2.106 L 12.820 2.020 7.800 2.014 C 5.039 2.011,2.708 2.023,2.620 2.041 M16.044 2.625 C 15.540 2.876,15.346 3.567,15.651 4.020 C 15.695 4.086,16.147 4.559,16.655 5.070 L 17.579 6.000 16.655 6.930 C 16.147 7.441,15.695 7.914,15.651 7.980 C 15.373 8.392,15.510 9.024,15.940 9.320 C 16.238 9.525,16.740 9.540,17.017 9.352 C 17.085 9.306,17.558 8.853,18.070 8.345 L 19.000 7.421 19.930 8.345 C 20.442 8.853,20.915 9.306,20.981 9.351 C 21.384 9.624,22.047 9.475,22.330 9.048 C 22.525 8.753,22.536 8.254,22.352 7.983 C 22.306 7.915,21.853 7.441,21.345 6.930 L 20.421 6.000 21.345 5.070 C 21.853 4.559,22.306 4.085,22.351 4.019 C 22.468 3.846,22.514 3.545,22.462 3.291 C 22.369 2.831,21.980 2.519,21.502 2.521 C 21.089 2.522,20.997 2.588,19.950 3.631 L 19.000 4.578 18.050 3.631 C 17.371 2.954,17.049 2.661,16.920 2.603 C 16.654 2.483,16.313 2.492,16.044 2.625 " stroke="none" fill-rule="evenodd" fill="#000000"></path></svg>