<svg  xmlns="http://www.w3.org/2000/svg" width="24" height="24" viewBox="0 0 24 24" fill="none" stroke="currentColor" stroke-width="2" stroke-linecap="round" stroke-linejoin="round"><path d="M7.333 1.080 C 7.175 1.121,6.986 1.186,6.913 1.223 C 6.425 1.474,2.414 3.761,2.219 3.899 C 1.469 4.434,1.037 5.287,1.036 6.240 C 1.035 7.046,1.317 7.741,1.875 8.307 L 2.079 8.515 1.982 8.591 C 1.793 8.740,1.520 9.096,1.360 9.405 C 0.752 10.573,1.006 12.027,1.972 12.901 C 2.108 13.025,2.394 13.228,2.608 13.353 L 2.995 13.580 3.009 15.480 C 3.021 17.146,3.031 17.409,3.093 17.618 C 3.332 18.428,3.760 19.024,4.397 19.432 C 4.664 19.603,10.613 22.661,10.925 22.788 C 11.604 23.063,12.396 23.063,13.075 22.788 C 13.387 22.661,19.336 19.603,19.603 19.432 C 20.240 19.024,20.668 18.428,20.907 17.618 C 20.969 17.409,20.979 17.146,20.991 15.480 L 21.005 13.580 21.392 13.353 C 22.431 12.744,22.962 11.868,22.964 10.760 C 22.965 9.952,22.679 9.249,22.123 8.694 L 21.917 8.488 22.016 8.410 C 22.360 8.140,22.746 7.499,22.884 6.971 C 22.982 6.592,22.992 5.929,22.905 5.599 C 22.705 4.851,22.339 4.297,21.781 3.899 C 21.516 3.711,17.548 1.469,17.099 1.254 C 16.604 1.017,16.033 0.949,15.464 1.058 C 15.051 1.137,14.977 1.173,13.392 2.066 L 12.004 2.847 10.732 2.128 C 9.192 1.258,8.952 1.136,8.630 1.060 C 8.282 0.978,7.686 0.987,7.333 1.080 M9.109 3.503 C 9.921 3.960,9.954 3.983,9.871 4.040 C 9.824 4.073,8.488 4.832,6.902 5.726 L 4.020 7.352 3.760 7.210 C 3.203 6.905,3.040 6.688,3.040 6.252 C 3.040 5.961,3.108 5.784,3.287 5.611 C 3.361 5.541,4.411 4.923,5.621 4.239 L 7.820 2.996 8.040 3.011 C 8.234 3.024,8.360 3.082,9.109 3.503 M16.316 3.098 C 16.978 3.433,20.603 5.506,20.713 5.612 C 20.892 5.784,20.960 5.961,20.960 6.252 C 20.960 6.688,20.796 6.906,20.240 7.210 L 19.980 7.352 17.030 5.686 C 15.408 4.770,14.081 4.010,14.080 3.998 C 14.080 3.975,14.347 3.819,15.259 3.311 C 15.891 2.959,15.999 2.937,16.316 3.098 M14.990 6.826 C 16.580 7.725,17.882 8.477,17.885 8.498 C 17.889 8.531,12.062 11.840,12.000 11.840 C 11.951 11.840,6.116 8.538,6.108 8.506 C 6.096 8.455,11.971 5.154,12.040 5.174 C 12.073 5.183,13.401 5.927,14.990 6.826 M7.014 11.339 C 8.612 12.240,9.920 12.988,9.920 13.002 C 9.920 13.015,9.529 13.246,9.051 13.513 C 8.292 13.938,8.158 14.000,7.998 14.000 C 7.837 14.000,7.694 13.932,6.778 13.416 C 4.851 12.332,3.821 11.749,3.588 11.610 C 3.172 11.362,3.040 11.155,3.040 10.748 C 3.040 10.450,3.150 10.202,3.351 10.049 C 3.577 9.876,4.016 9.645,4.064 9.674 C 4.088 9.688,5.415 10.437,7.014 11.339 M20.647 10.048 C 20.852 10.207,20.960 10.448,20.960 10.748 C 20.960 11.166,20.827 11.367,20.370 11.635 C 20.222 11.722,19.218 12.290,18.140 12.897 C 16.377 13.889,16.162 14.000,15.999 14.000 C 15.843 14.000,15.703 13.935,14.949 13.513 C 14.471 13.246,14.080 13.016,14.080 13.002 C 14.080 12.989,15.408 12.229,17.030 11.314 L 19.980 9.650 20.240 9.792 C 20.383 9.870,20.566 9.985,20.647 10.048 M5.960 15.253 C 7.150 15.920,7.306 15.977,7.980 15.979 C 8.679 15.981,8.844 15.922,10.030 15.257 L 10.980 14.725 10.990 16.205 C 10.996 17.020,10.996 18.340,10.990 19.139 L 10.980 20.592 8.220 19.177 C 5.782 17.927,5.440 17.740,5.291 17.578 C 5.020 17.283,5.000 17.165,5.000 15.850 C 5.000 15.226,5.014 14.723,5.030 14.732 C 5.046 14.741,5.465 14.975,5.960 15.253 M14.056 15.306 C 15.158 15.925,15.321 15.981,16.020 15.977 C 16.495 15.974,16.568 15.964,16.860 15.855 C 17.036 15.789,17.585 15.507,18.080 15.227 L 18.980 14.720 18.991 15.847 C 19.003 17.161,18.984 17.280,18.710 17.577 C 18.563 17.737,18.300 17.885,16.740 18.684 C 15.750 19.191,14.503 19.830,13.970 20.105 L 13.000 20.604 13.000 17.660 L 13.000 14.717 13.086 14.763 C 13.133 14.788,13.569 15.033,14.056 15.306 " stroke="none" fill-rule="evenodd" fill="#000000"></path></svg>