<svg  xmlns="http://www.w3.org/2000/svg" width="24" height="24" viewBox="0 0 24 24" fill="none" stroke="currentColor" stroke-width="2" stroke-linecap="round" stroke-linejoin="round"><path d="M4.499 2.043 C 3.380 2.232,2.461 3.048,2.114 4.160 L 2.020 4.460 2.020 12.000 L 2.020 19.540 2.114 19.840 C 2.422 20.827,3.173 21.578,4.160 21.886 L 4.460 21.980 12.000 21.980 L 19.540 21.980 19.840 21.886 C 20.827 21.578,21.578 20.827,21.886 19.840 L 21.980 19.540 21.980 12.000 L 21.980 4.460 21.886 4.160 C 21.581 3.182,20.832 2.428,19.861 2.121 L 19.540 2.020 12.120 2.014 C 8.039 2.011,4.609 2.024,4.499 2.043 M19.310 4.061 C 19.589 4.144,19.856 4.411,19.939 4.690 C 19.993 4.870,20.000 5.755,20.000 12.001 C 20.000 17.907,19.991 19.138,19.945 19.290 C 19.872 19.533,19.707 19.740,19.484 19.872 L 19.300 19.980 12.000 19.980 L 4.700 19.980 4.516 19.872 C 4.415 19.813,4.284 19.700,4.225 19.623 C 3.986 19.309,4.000 19.795,4.000 12.022 C 4.000 5.758,4.007 4.870,4.061 4.690 C 4.140 4.421,4.412 4.143,4.673 4.063 C 4.964 3.974,19.009 3.971,19.310 4.061 M8.117 7.052 C 7.694 7.172,7.339 7.475,7.145 7.880 L 7.020 8.140 7.020 12.223 L 7.020 16.306 7.141 16.503 C 7.543 17.156,8.457 17.156,8.859 16.503 L 8.980 16.306 9.000 13.166 L 9.020 10.026 9.955 11.273 C 10.469 11.959,10.954 12.577,11.033 12.646 C 11.112 12.715,11.276 12.819,11.398 12.876 C 11.588 12.964,11.675 12.979,12.000 12.979 C 12.325 12.979,12.412 12.964,12.602 12.876 C 12.724 12.819,12.888 12.715,12.967 12.646 C 13.046 12.577,13.531 11.959,14.045 11.273 L 14.980 10.026 15.000 13.166 L 15.020 16.306 15.141 16.503 C 15.543 17.156,16.457 17.156,16.859 16.503 L 16.980 16.306 16.980 12.223 L 16.980 8.140 16.856 7.880 C 16.701 7.556,16.457 7.313,16.121 7.148 C 15.887 7.033,15.826 7.020,15.501 7.020 C 15.180 7.020,15.111 7.034,14.880 7.144 C 14.736 7.212,14.545 7.346,14.451 7.444 C 14.359 7.541,13.777 8.295,13.159 9.120 C 12.541 9.945,12.019 10.620,12.000 10.620 C 11.981 10.620,11.459 9.945,10.841 9.120 C 10.223 8.295,9.641 7.541,9.549 7.444 C 9.211 7.091,8.584 6.920,8.117 7.052 " stroke="none" fill-rule="evenodd" fill="#000000"></path></svg>