<svg  xmlns="http://www.w3.org/2000/svg" width="24" height="24" viewBox="0 0 24 24" fill="none" stroke="currentColor" stroke-width="2" stroke-linecap="round" stroke-linejoin="round"><path d="M3.499 3.043 C 2.380 3.232,1.461 4.048,1.114 5.160 L 1.020 5.460 1.020 12.000 L 1.020 18.540 1.114 18.840 C 1.422 19.827,2.173 20.578,3.160 20.886 L 3.460 20.980 12.000 20.980 L 20.540 20.980 20.840 20.886 C 21.827 20.578,22.578 19.827,22.886 18.840 L 22.980 18.540 22.980 12.000 L 22.980 5.460 22.886 5.160 C 22.581 4.182,21.832 3.428,20.861 3.121 L 20.540 3.020 12.120 3.014 C 7.489 3.011,3.609 3.024,3.499 3.043 M20.310 5.061 C 20.589 5.144,20.856 5.411,20.939 5.690 C 20.992 5.869,21.000 6.651,21.000 12.001 C 21.000 17.059,20.991 18.139,20.945 18.290 C 20.872 18.533,20.707 18.740,20.484 18.872 L 20.300 18.980 12.000 18.980 L 3.700 18.980 3.516 18.872 C 3.303 18.747,3.141 18.550,3.058 18.316 C 2.968 18.060,2.971 5.993,3.061 5.690 C 3.140 5.421,3.412 5.143,3.673 5.063 C 3.833 5.014,5.030 5.005,11.983 5.003 C 19.144 5.000,20.130 5.007,20.310 5.061 M5.695 7.055 C 5.464 7.130,5.255 7.300,5.128 7.516 C 5.037 7.672,5.020 7.746,5.020 8.000 C 5.020 8.257,5.036 8.327,5.133 8.492 C 5.651 9.374,6.998 9.018,6.998 8.000 C 6.998 7.623,6.792 7.281,6.463 7.112 C 6.265 7.010,5.911 6.984,5.695 7.055 M9.695 7.055 C 9.464 7.130,9.255 7.300,9.128 7.516 C 9.037 7.672,9.020 7.746,9.020 8.000 C 9.020 8.257,9.036 8.327,9.133 8.492 C 9.651 9.374,10.998 9.018,10.998 8.000 C 10.998 7.623,10.792 7.281,10.463 7.112 C 10.265 7.010,9.911 6.984,9.695 7.055 M13.695 7.055 C 13.464 7.130,13.255 7.300,13.128 7.516 C 13.037 7.672,13.020 7.746,13.020 8.000 C 13.020 8.257,13.036 8.327,13.133 8.492 C 13.651 9.374,14.998 9.018,14.998 8.000 C 14.998 7.623,14.792 7.281,14.463 7.112 C 14.265 7.010,13.911 6.984,13.695 7.055 " stroke="none" fill-rule="evenodd" fill="#000000"></path></svg>