<svg  xmlns="http://www.w3.org/2000/svg" width="24" height="24" viewBox="0 0 24 24" fill="none" stroke="currentColor" stroke-width="2" stroke-linecap="round" stroke-linejoin="round"><path d="M4.499 2.042 C 3.372 2.239,2.461 3.048,2.114 4.160 L 2.020 4.460 2.020 12.000 L 2.020 19.540 2.114 19.840 C 2.422 20.827,3.173 21.578,4.160 21.886 L 4.460 21.980 12.000 21.980 L 19.540 21.980 19.840 21.886 C 20.827 21.578,21.578 20.827,21.886 19.840 L 21.980 19.540 21.980 13.840 L 21.980 8.140 21.855 7.880 C 21.698 7.553,21.459 7.314,21.124 7.149 C 20.887 7.032,20.827 7.020,20.501 7.021 C 20.197 7.021,20.105 7.038,19.920 7.125 C 19.799 7.182,18.890 7.746,17.900 8.379 C 16.910 9.012,16.079 9.538,16.053 9.548 C 16.019 9.561,16.003 9.376,15.993 8.853 C 15.980 8.149,15.978 8.137,15.855 7.880 C 15.698 7.553,15.459 7.314,15.124 7.149 C 14.887 7.032,14.827 7.020,14.501 7.021 C 14.197 7.021,14.105 7.038,13.920 7.125 C 13.799 7.182,12.890 7.746,11.900 8.379 C 10.910 9.012,10.078 9.538,10.052 9.548 C 10.015 9.563,10.001 8.977,9.991 6.994 C 9.978 4.422,9.978 4.420,9.885 4.140 C 9.559 3.159,8.815 2.418,7.861 2.124 C 7.548 2.027,7.504 2.024,6.120 2.015 C 5.339 2.010,4.609 2.022,4.499 2.042 M7.308 4.060 C 7.438 4.099,7.571 4.179,7.679 4.283 C 7.998 4.593,7.978 4.371,8.000 7.800 L 8.020 10.860 8.144 11.120 C 8.301 11.450,8.550 11.699,8.880 11.856 C 9.111 11.966,9.180 11.980,9.500 11.980 C 9.804 11.980,9.894 11.964,10.080 11.876 C 10.201 11.820,11.123 11.248,12.128 10.606 C 13.134 9.965,13.965 9.440,13.975 9.440 C 13.985 9.440,13.999 9.760,14.007 10.150 C 14.020 10.851,14.022 10.863,14.145 11.120 C 14.304 11.452,14.551 11.698,14.880 11.856 C 15.111 11.966,15.180 11.980,15.500 11.980 C 15.804 11.980,15.894 11.964,16.080 11.876 C 16.201 11.819,17.123 11.248,18.128 10.606 C 19.133 9.965,19.966 9.440,19.978 9.440 C 19.990 9.440,20.000 11.615,20.000 14.274 C 20.000 18.254,19.990 19.139,19.945 19.290 C 19.872 19.533,19.707 19.740,19.484 19.872 L 19.300 19.980 12.000 19.980 L 4.700 19.980 4.516 19.872 C 4.415 19.813,4.284 19.700,4.225 19.623 C 3.986 19.309,4.000 19.795,4.000 12.022 C 4.000 4.005,3.975 4.631,4.304 4.303 C 4.584 4.022,4.675 4.006,5.983 4.003 C 6.872 4.001,7.148 4.013,7.308 4.060 M7.695 15.055 C 7.464 15.130,7.255 15.300,7.128 15.516 C 7.037 15.672,7.020 15.746,7.020 16.000 C 7.020 16.257,7.036 16.327,7.133 16.492 C 7.651 17.374,8.998 17.018,8.998 16.000 C 8.998 15.623,8.792 15.281,8.463 15.112 C 8.265 15.010,7.911 14.984,7.695 15.055 M11.695 15.055 C 11.464 15.130,11.255 15.300,11.128 15.516 C 11.037 15.672,11.020 15.746,11.020 16.000 C 11.020 16.257,11.036 16.327,11.133 16.492 C 11.651 17.374,12.998 17.018,12.998 16.000 C 12.998 15.623,12.792 15.281,12.463 15.112 C 12.265 15.010,11.911 14.984,11.695 15.055 M15.695 15.055 C 15.464 15.130,15.255 15.300,15.128 15.516 C 15.037 15.672,15.020 15.746,15.020 16.000 C 15.020 16.257,15.036 16.327,15.133 16.492 C 15.651 17.374,16.998 17.018,16.998 16.000 C 16.998 15.623,16.792 15.281,16.463 15.112 C 16.265 15.010,15.911 14.984,15.695 15.055 " stroke="none" fill-rule="evenodd" fill="#000000"></path></svg>