<svg  xmlns="http://www.w3.org/2000/svg" width="24" height="24" viewBox="0 0 24 24" fill="none" stroke="currentColor" stroke-width="2" stroke-linecap="round" stroke-linejoin="round"><path d="M11.540 1.023 C 10.478 1.125,9.692 1.335,8.910 1.726 C 6.838 2.762,5.448 4.666,5.074 6.980 C 5.008 7.393,5.008 8.607,5.074 9.020 C 5.322 10.555,5.988 11.869,7.064 12.946 L 7.430 13.313 6.713 17.326 C 5.922 21.762,5.935 21.655,6.143 22.119 C 6.275 22.413,6.590 22.722,6.910 22.872 C 7.106 22.963,7.193 22.979,7.500 22.979 C 7.803 22.979,7.895 22.962,8.081 22.876 C 8.202 22.819,9.134 22.149,10.151 21.387 L 12.000 20.000 13.849 21.387 C 14.866 22.149,15.798 22.819,15.919 22.876 C 16.104 22.961,16.199 22.978,16.500 22.979 C 16.809 22.980,16.893 22.965,17.090 22.872 C 17.411 22.722,17.725 22.413,17.857 22.119 C 18.066 21.655,18.078 21.762,17.287 17.326 L 16.570 13.313 16.936 12.946 C 17.685 12.196,18.222 11.354,18.573 10.380 C 18.876 9.538,18.977 8.944,18.977 8.000 C 18.977 7.056,18.876 6.462,18.573 5.620 C 17.715 3.237,15.581 1.473,13.102 1.098 C 12.726 1.041,11.813 0.997,11.540 1.023 M12.552 3.043 C 14.413 3.246,16.001 4.479,16.680 6.248 C 17.092 7.320,17.085 8.720,16.663 9.793 C 16.033 11.395,14.670 12.541,12.960 12.907 C 12.489 13.008,11.511 13.008,11.040 12.907 C 9.315 12.538,7.943 11.374,7.320 9.752 C 6.915 8.699,6.915 7.301,7.320 6.248 C 8.146 4.096,10.274 2.793,12.552 3.043 M10.272 14.777 C 10.908 14.936,11.263 14.977,12.000 14.977 C 12.930 14.977,13.637 14.856,14.412 14.564 C 14.627 14.483,14.730 14.461,14.741 14.493 C 14.764 14.565,15.760 20.200,15.760 20.264 C 15.760 20.295,15.146 19.860,14.396 19.298 C 13.626 18.720,12.935 18.232,12.808 18.176 C 12.486 18.034,12.069 17.980,11.707 18.034 C 11.198 18.110,11.153 18.137,9.510 19.369 C 8.811 19.892,8.240 20.298,8.240 20.270 C 8.240 20.210,9.237 14.560,9.259 14.493 C 9.271 14.460,9.368 14.481,9.580 14.562 C 9.747 14.627,10.059 14.723,10.272 14.777 " stroke="none" fill-rule="evenodd" fill="#000000"></path></svg>