<svg  xmlns="http://www.w3.org/2000/svg" width="24" height="24" viewBox="0 0 24 24" fill="none" stroke="currentColor" stroke-width="2" stroke-linecap="round" stroke-linejoin="round"><path d="M5.499 1.042 C 4.388 1.232,3.482 2.030,3.116 3.140 C 3.026 3.412,3.023 3.468,3.009 5.192 C 2.993 7.219,2.994 7.227,3.302 7.536 C 3.703 7.937,4.297 7.937,4.697 7.537 C 4.995 7.239,5.000 7.204,5.000 5.440 C 5.000 3.651,5.007 3.599,5.303 3.303 C 5.621 2.986,5.423 3.000,9.447 3.000 L 13.000 3.000 13.000 5.132 C 13.000 7.443,13.004 7.494,13.225 7.930 C 13.361 8.199,13.801 8.639,14.070 8.775 C 14.506 8.996,14.557 9.000,16.868 9.000 L 19.000 9.000 19.000 14.554 C 19.000 19.144,18.990 20.139,18.945 20.290 C 18.872 20.531,18.708 20.740,18.489 20.868 C 18.336 20.958,18.246 20.977,17.845 21.000 C 17.313 21.031,17.144 21.095,16.912 21.352 C 16.665 21.626,16.598 22.013,16.735 22.373 C 16.827 22.613,17.132 22.891,17.380 22.960 C 17.656 23.037,18.502 22.991,18.860 22.880 C 19.827 22.578,20.581 21.819,20.886 20.840 L 20.980 20.540 20.980 13.980 L 20.980 7.420 20.868 7.060 C 20.732 6.627,20.505 6.192,20.241 5.863 C 19.921 5.464,16.162 1.748,15.920 1.592 C 15.585 1.376,15.319 1.252,14.932 1.131 L 14.580 1.020 10.140 1.014 C 7.698 1.011,5.609 1.024,5.499 1.042 M16.800 5.220 L 18.580 7.000 16.790 7.000 L 15.000 7.000 15.000 5.220 C 15.000 4.241,15.005 3.440,15.010 3.440 C 15.016 3.440,15.821 4.241,16.800 5.220 M7.540 9.023 C 6.715 9.102,6.250 9.200,5.620 9.427 C 3.452 10.207,1.781 12.050,1.222 14.275 C 1.027 15.054,1.020 15.175,1.020 17.940 L 1.020 20.540 1.114 20.840 C 1.422 21.827,2.174 22.579,3.160 22.886 C 3.594 23.021,4.406 23.021,4.840 22.886 C 5.826 22.579,6.578 21.827,6.886 20.840 C 6.974 20.558,6.980 20.479,6.980 19.500 C 6.980 18.521,6.974 18.442,6.886 18.160 C 6.580 17.180,5.821 16.417,4.861 16.125 C 4.452 16.001,3.644 15.983,3.262 16.090 C 3.131 16.127,3.015 16.148,3.004 16.137 C 2.966 16.100,3.082 15.058,3.154 14.780 C 3.615 13.006,5.002 11.614,6.760 11.161 C 7.693 10.920,8.875 10.983,9.752 11.320 C 11.281 11.907,12.434 13.197,12.846 14.780 C 12.918 15.058,13.034 16.100,12.996 16.137 C 12.985 16.148,12.869 16.127,12.738 16.090 C 12.356 15.983,11.548 16.001,11.139 16.125 C 10.179 16.417,9.420 17.180,9.114 18.160 C 9.026 18.442,9.020 18.521,9.020 19.500 C 9.020 20.479,9.026 20.558,9.114 20.840 C 9.422 21.827,10.174 22.579,11.160 22.886 C 11.412 22.964,11.547 22.979,12.000 22.979 C 12.453 22.979,12.588 22.964,12.840 22.886 C 13.826 22.579,14.578 21.827,14.886 20.840 L 14.980 20.540 14.980 17.940 C 14.980 15.221,14.971 15.054,14.796 14.340 C 14.125 11.613,11.844 9.513,9.102 9.098 C 8.726 9.041,7.813 8.997,7.540 9.023 M4.310 18.061 C 4.589 18.144,4.856 18.411,4.939 18.690 C 5.020 18.961,5.024 20.028,4.945 20.290 C 4.872 20.533,4.707 20.740,4.484 20.872 C 4.328 20.963,4.254 20.980,4.000 20.980 C 3.746 20.980,3.672 20.963,3.516 20.872 C 3.303 20.747,3.141 20.550,3.058 20.316 C 2.976 20.081,2.977 18.971,3.061 18.690 C 3.173 18.313,3.577 18.012,3.983 18.003 C 4.050 18.001,4.198 18.027,4.310 18.061 M12.310 18.061 C 12.589 18.144,12.856 18.411,12.939 18.690 C 13.020 18.961,13.024 20.028,12.945 20.290 C 12.872 20.533,12.707 20.740,12.484 20.872 C 12.328 20.963,12.254 20.980,12.000 20.980 C 11.746 20.980,11.672 20.963,11.516 20.872 C 11.303 20.747,11.141 20.550,11.058 20.316 C 10.976 20.081,10.977 18.971,11.061 18.690 C 11.173 18.313,11.577 18.012,11.983 18.003 C 12.050 18.001,12.198 18.027,12.310 18.061 " stroke="none" fill-rule="evenodd" fill="#000000"></path></svg>