<svg  xmlns="http://www.w3.org/2000/svg" width="24" height="24" viewBox="0 0 24 24" fill="none" stroke="currentColor" stroke-width="2" stroke-linecap="round" stroke-linejoin="round"><path d="M3.499 2.043 C 2.391 2.230,1.488 3.024,1.114 4.140 L 1.020 4.420 1.009 12.958 C 1.000 20.694,1.005 21.516,1.063 21.718 C 1.326 22.631,2.237 23.176,3.110 22.943 C 3.571 22.820,3.647 22.759,4.980 21.438 C 5.684 20.740,6.323 20.136,6.400 20.095 C 6.535 20.023,6.810 20.019,13.560 20.000 L 20.580 19.980 20.860 19.886 C 21.851 19.554,22.582 18.816,22.886 17.840 L 22.980 17.540 22.980 11.000 L 22.980 4.460 22.886 4.160 C 22.581 3.182,21.832 2.428,20.861 2.121 L 20.540 2.020 12.120 2.014 C 7.489 2.011,3.609 2.024,3.499 2.043 M20.310 4.061 C 20.589 4.144,20.856 4.411,20.939 4.690 C 20.992 4.869,21.000 5.651,21.000 11.001 C 21.000 16.059,20.991 17.139,20.945 17.290 C 20.872 17.533,20.707 17.740,20.484 17.872 L 20.300 17.980 13.280 18.000 L 6.260 18.020 5.980 18.115 C 5.291 18.347,5.119 18.475,3.970 19.615 L 3.000 20.576 3.000 12.735 C 3.000 5.832,3.007 4.870,3.061 4.690 C 3.140 4.421,3.412 4.143,3.673 4.063 C 3.833 4.014,5.030 4.005,11.983 4.003 C 19.144 4.000,20.130 4.007,20.310 4.061 M7.695 10.055 C 7.464 10.130,7.255 10.300,7.128 10.516 C 7.037 10.672,7.020 10.746,7.020 11.000 C 7.020 11.257,7.036 11.327,7.133 11.492 C 7.651 12.374,8.998 12.018,8.998 11.000 C 8.998 10.623,8.792 10.281,8.463 10.112 C 8.265 10.010,7.911 9.984,7.695 10.055 M11.695 10.055 C 11.464 10.130,11.255 10.300,11.128 10.516 C 11.037 10.672,11.020 10.746,11.020 11.000 C 11.020 11.257,11.036 11.327,11.133 11.492 C 11.651 12.374,12.998 12.018,12.998 11.000 C 12.998 10.623,12.792 10.281,12.463 10.112 C 12.265 10.010,11.911 9.984,11.695 10.055 M15.695 10.055 C 15.464 10.130,15.255 10.300,15.128 10.516 C 15.037 10.672,15.020 10.746,15.020 11.000 C 15.020 11.257,15.036 11.327,15.133 11.492 C 15.651 12.374,16.998 12.018,16.998 11.000 C 16.998 10.623,16.792 10.281,16.463 10.112 C 16.265 10.010,15.911 9.984,15.695 10.055 " stroke="none" fill-rule="evenodd" fill="#000000"></path></svg>