<svg  xmlns="http://www.w3.org/2000/svg" width="24" height="24" viewBox="0 0 24 24" fill="none" stroke="currentColor" stroke-width="2" stroke-linecap="round" stroke-linejoin="round"><path d="M4.499 2.043 C 3.380 2.232,2.461 3.048,2.114 4.160 L 2.020 4.460 2.020 12.000 L 2.020 19.540 2.114 19.840 C 2.422 20.827,3.173 21.578,4.160 21.886 L 4.460 21.980 12.000 21.980 L 19.540 21.980 19.840 21.886 C 20.827 21.578,21.578 20.827,21.886 19.840 L 21.980 19.540 21.980 12.000 L 21.980 4.460 21.886 4.160 C 21.581 3.182,20.832 2.428,19.861 2.121 L 19.540 2.020 12.120 2.014 C 8.039 2.011,4.609 2.024,4.499 2.043 M19.310 4.061 C 19.589 4.144,19.856 4.411,19.939 4.690 C 19.993 4.870,20.000 5.755,20.000 12.001 C 20.000 17.907,19.991 19.138,19.945 19.290 C 19.872 19.533,19.707 19.740,19.484 19.872 L 19.300 19.980 12.000 19.980 L 4.700 19.980 4.516 19.872 C 4.415 19.813,4.284 19.700,4.225 19.623 C 3.986 19.309,4.000 19.795,4.000 12.022 C 4.000 5.758,4.007 4.870,4.061 4.690 C 4.140 4.421,4.412 4.143,4.673 4.063 C 4.964 3.974,19.009 3.971,19.310 4.061 M11.580 6.047 C 11.160 6.127,10.686 6.423,10.417 6.773 C 10.346 6.865,10.097 7.318,9.864 7.780 C 9.630 8.242,9.425 8.642,9.408 8.669 C 9.389 8.698,9.043 8.769,8.578 8.840 C 7.383 9.021,7.323 9.034,7.013 9.186 C 6.677 9.351,6.307 9.710,6.145 10.031 C 5.836 10.641,5.849 11.369,6.181 11.950 C 6.241 12.055,6.627 12.482,7.041 12.900 L 7.792 13.660 7.648 14.480 C 7.459 15.560,7.450 16.089,7.614 16.485 C 7.917 17.214,8.651 17.720,9.420 17.728 C 9.891 17.733,10.082 17.667,11.059 17.161 L 11.979 16.685 12.959 17.183 C 13.810 17.616,13.977 17.687,14.220 17.719 C 15.140 17.842,16.057 17.297,16.371 16.440 C 16.534 15.995,16.531 15.823,16.345 14.700 L 16.172 13.660 16.940 12.880 C 17.748 12.060,17.855 11.911,17.982 11.435 C 18.214 10.564,17.764 9.586,16.947 9.186 C 16.638 9.035,16.587 9.024,15.381 8.838 C 14.942 8.771,14.580 8.712,14.576 8.708 C 14.573 8.704,14.356 8.277,14.095 7.760 C 13.684 6.946,13.590 6.791,13.395 6.598 C 12.910 6.121,12.249 5.920,11.580 6.047 M12.423 8.900 C 12.913 9.860,13.036 10.045,13.331 10.273 C 13.758 10.602,13.794 10.612,15.733 10.924 L 16.007 10.968 15.290 11.694 C 14.895 12.093,14.525 12.502,14.466 12.603 C 14.147 13.154,14.119 13.554,14.315 14.740 C 14.385 15.158,14.452 15.551,14.464 15.612 C 14.487 15.721,14.461 15.711,13.588 15.261 C 12.583 14.743,12.307 14.654,11.837 14.696 C 11.460 14.729,11.226 14.821,10.301 15.301 C 9.567 15.681,9.479 15.718,9.498 15.634 C 9.557 15.381,9.800 13.753,9.799 13.616 C 9.798 13.374,9.693 12.985,9.555 12.710 C 9.457 12.513,9.272 12.301,8.691 11.714 L 7.953 10.968 8.226 10.924 C 10.003 10.638,9.972 10.645,10.276 10.495 C 10.799 10.238,10.983 10.009,11.520 8.953 C 11.773 8.455,11.983 8.050,11.987 8.054 C 11.990 8.057,12.186 8.438,12.423 8.900 " stroke="none" fill-rule="evenodd" fill="#000000"></path></svg>