<svg  xmlns="http://www.w3.org/2000/svg" width="24" height="24" viewBox="0 0 24 24" fill="none" stroke="currentColor" stroke-width="2" stroke-linecap="round" stroke-linejoin="round"><path d="M5.684 2.043 C 5.228 2.133,4.678 2.524,4.404 2.955 C 4.223 3.240,4.120 3.593,4.120 3.933 C 4.120 4.245,5.765 20.116,5.843 20.560 C 5.948 21.153,6.233 21.677,6.703 22.140 C 7.009 22.441,7.295 22.631,7.682 22.787 C 8.222 23.005,8.187 23.003,12.113 22.990 C 16.171 22.977,15.903 22.996,16.540 22.681 C 17.275 22.318,17.860 21.618,18.079 20.839 C 18.141 20.616,18.379 18.480,19.021 12.383 C 19.494 7.897,19.880 4.094,19.880 3.932 C 19.880 3.403,19.676 2.959,19.241 2.544 C 18.978 2.293,18.618 2.104,18.284 2.041 C 18.017 1.990,5.943 1.993,5.684 2.043 M17.880 4.032 C 17.880 4.050,17.709 5.686,17.500 7.670 C 17.291 9.653,17.120 11.302,17.120 11.336 C 17.120 11.369,17.008 11.458,16.870 11.534 C 15.750 12.152,14.247 12.151,13.124 11.531 C 12.983 11.453,12.713 11.280,12.524 11.147 C 12.051 10.814,11.372 10.467,10.876 10.304 C 10.236 10.095,9.764 10.025,9.000 10.025 C 8.263 10.025,7.795 10.091,7.188 10.282 C 6.986 10.345,6.810 10.384,6.796 10.368 C 6.783 10.353,6.633 8.990,6.462 7.340 C 6.292 5.690,6.143 4.264,6.131 4.170 L 6.109 4.000 11.995 4.000 C 15.232 4.000,17.880 4.014,17.880 4.032 M10.000 12.134 C 10.523 12.270,10.812 12.411,11.483 12.860 C 12.106 13.277,12.500 13.482,13.052 13.676 C 14.100 14.044,15.374 14.096,16.476 13.817 C 16.686 13.764,16.859 13.720,16.860 13.720 C 16.877 13.720,16.192 20.077,16.160 20.227 C 16.103 20.493,15.933 20.725,15.692 20.867 L 15.500 20.980 12.088 20.991 C 9.798 20.998,8.624 20.988,8.519 20.960 C 8.273 20.894,8.034 20.688,7.913 20.440 C 7.810 20.229,7.789 20.063,7.421 16.500 C 7.209 14.454,7.026 12.724,7.014 12.655 C 6.993 12.533,7.000 12.526,7.301 12.384 C 7.631 12.227,8.042 12.102,8.423 12.041 C 8.821 11.979,9.570 12.023,10.000 12.134 " stroke="none" fill-rule="evenodd" fill="#000000"></path></svg>