<svg  xmlns="http://www.w3.org/2000/svg" width="24" height="24" viewBox="0 0 24 24" fill="none" stroke="currentColor" stroke-width="2" stroke-linecap="round" stroke-linejoin="round"><path d="M16.040 1.916 C 15.542 2.077,15.189 2.327,14.949 2.690 C 14.873 2.805,14.689 3.181,14.540 3.525 L 14.270 4.150 14.045 4.088 C 13.652 3.980,13.045 4.010,12.243 4.176 C 11.860 4.255,11.527 4.320,11.503 4.320 C 11.479 4.320,11.352 4.172,11.222 3.990 C 10.666 3.215,10.420 2.913,10.187 2.720 C 9.909 2.489,9.252 2.155,8.920 2.074 C 8.567 1.988,7.839 2.007,7.468 2.113 C 6.477 2.393,5.730 3.105,5.401 4.080 C 5.325 4.305,5.206 5.238,5.201 5.645 C 5.200 5.748,5.183 5.755,4.590 5.902 C 3.803 6.098,3.402 6.293,2.983 6.685 C 2.067 7.540,1.767 8.780,2.198 9.933 C 2.334 10.300,2.687 10.842,2.940 11.076 L 3.124 11.245 3.060 11.513 C 3.003 11.750,2.997 12.212,3.008 15.680 L 3.020 19.580 3.114 19.860 C 3.446 20.851,4.184 21.582,5.160 21.886 L 5.460 21.980 12.000 21.980 L 18.540 21.980 18.840 21.886 C 19.816 21.582,20.554 20.851,20.886 19.860 L 20.980 19.580 20.991 15.692 C 21.004 11.453,21.007 11.528,20.777 11.074 C 20.720 10.961,20.561 10.754,20.424 10.614 L 20.175 10.358 21.088 8.189 C 21.590 6.996,22.036 5.906,22.080 5.766 C 22.345 4.922,21.925 3.909,21.139 3.494 C 20.855 3.344,17.493 2.024,17.120 1.915 C 16.791 1.820,16.335 1.820,16.040 1.916 M18.400 4.538 C 19.335 4.905,20.111 5.217,20.125 5.232 C 20.146 5.256,19.725 6.277,18.435 9.330 L 18.152 10.000 16.758 10.000 L 15.364 10.000 15.238 9.818 C 15.170 9.718,15.122 9.614,15.134 9.588 C 15.145 9.562,15.316 9.344,15.515 9.105 C 16.104 8.394,16.313 7.903,16.348 7.140 C 16.373 6.609,16.279 6.147,16.054 5.690 L 15.910 5.399 16.245 4.619 C 16.493 4.040,16.596 3.843,16.640 3.855 C 16.673 3.864,17.465 4.171,18.400 4.538 M8.535 4.057 C 8.639 4.088,8.782 4.158,8.854 4.213 C 8.926 4.268,9.280 4.721,9.640 5.220 C 10.000 5.719,10.351 6.170,10.420 6.223 C 10.575 6.341,10.848 6.440,11.017 6.440 C 11.087 6.440,11.636 6.341,12.238 6.220 C 13.434 5.980,13.522 5.977,13.854 6.154 C 14.319 6.402,14.496 7.039,14.225 7.492 C 14.169 7.584,13.864 7.971,13.545 8.352 C 12.839 9.196,12.743 9.418,12.897 9.850 L 12.951 10.000 9.005 10.000 L 5.060 9.999 4.744 9.861 C 4.387 9.705,4.277 9.616,4.128 9.362 C 4.042 9.216,4.023 9.134,4.023 8.902 C 4.022 8.584,4.104 8.384,4.319 8.173 C 4.502 7.995,4.641 7.945,5.633 7.703 C 6.604 7.467,6.751 7.402,6.958 7.116 C 7.110 6.906,7.141 6.728,7.221 5.621 C 7.291 4.641,7.309 4.566,7.534 4.327 C 7.810 4.034,8.153 3.942,8.535 4.057 M19.000 15.554 C 19.000 19.410,19.005 19.322,18.779 19.618 C 18.718 19.698,18.585 19.813,18.484 19.872 L 18.300 19.980 12.000 19.980 L 5.700 19.980 5.516 19.872 C 5.415 19.813,5.284 19.700,5.225 19.623 C 4.992 19.317,5.000 19.464,5.000 15.575 L 5.000 12.000 12.000 12.000 L 19.000 12.000 19.000 15.554 M9.695 14.057 C 9.466 14.129,9.256 14.299,9.128 14.516 C 9.037 14.672,9.020 14.746,9.020 15.000 C 9.020 15.256,9.036 15.328,9.131 15.489 C 9.256 15.702,9.449 15.864,9.670 15.943 C 9.889 16.021,14.111 16.021,14.330 15.943 C 14.551 15.864,14.744 15.702,14.869 15.489 C 14.964 15.328,14.980 15.256,14.980 15.000 C 14.980 14.746,14.963 14.672,14.872 14.516 C 14.740 14.293,14.533 14.128,14.290 14.055 C 14.033 13.978,9.943 13.979,9.695 14.057 " stroke="none" fill-rule="evenodd" fill="#000000"></path></svg>