<svg  xmlns="http://www.w3.org/2000/svg" width="24" height="24" viewBox="0 0 24 24" fill="none" stroke="currentColor" stroke-width="2" stroke-linecap="round" stroke-linejoin="round"><path d="M4.499 2.043 C 3.379 2.233,2.461 3.048,2.114 4.160 L 2.020 4.460 2.020 12.000 L 2.020 19.540 2.114 19.840 C 2.418 20.816,3.149 21.554,4.140 21.886 L 4.420 21.980 8.456 21.991 C 12.949 22.004,12.722 22.017,13.015 21.732 C 13.249 21.505,13.337 21.304,13.337 21.000 C 13.337 20.607,13.148 20.303,12.781 20.106 C 12.620 20.020,12.617 20.020,8.660 20.000 L 4.700 19.980 4.516 19.872 C 4.415 19.813,4.284 19.700,4.225 19.623 C 3.986 19.309,4.000 19.795,4.000 12.022 C 4.000 4.006,3.975 4.631,4.303 4.303 C 4.625 3.981,4.307 4.000,9.447 4.000 L 14.000 4.000 14.000 6.132 C 14.000 8.443,14.004 8.494,14.225 8.930 C 14.361 9.199,14.801 9.639,15.070 9.775 C 15.506 9.996,15.557 10.000,17.867 10.000 L 19.997 10.000 20.009 12.153 L 20.020 14.306 20.141 14.503 C 20.543 15.156,21.457 15.156,21.859 14.503 L 21.980 14.306 21.980 11.363 L 21.980 8.420 21.868 8.060 C 21.732 7.627,21.505 7.192,21.241 6.863 C 20.921 6.464,17.162 2.748,16.920 2.592 C 16.585 2.376,16.319 2.252,15.932 2.130 L 15.580 2.020 10.140 2.014 C 7.148 2.011,4.609 2.024,4.499 2.043 M17.800 6.220 L 19.580 8.000 17.790 8.000 L 16.000 8.000 16.000 6.220 C 16.000 5.241,16.005 4.440,16.010 4.440 C 16.016 4.440,16.821 5.241,17.800 6.220 M14.695 17.057 C 14.466 17.129,14.256 17.299,14.128 17.516 C 14.037 17.672,14.020 17.746,14.020 18.000 C 14.020 18.256,14.036 18.328,14.131 18.489 C 14.256 18.702,14.449 18.864,14.670 18.943 C 14.891 19.022,21.109 19.022,21.330 18.943 C 21.551 18.864,21.744 18.702,21.869 18.489 C 21.964 18.328,21.980 18.256,21.980 18.000 C 21.980 17.746,21.963 17.672,21.872 17.516 C 21.740 17.293,21.533 17.128,21.290 17.055 C 21.030 16.977,14.945 16.979,14.695 17.057 " stroke="none" fill-rule="evenodd" fill="#000000"></path></svg>