<svg  xmlns="http://www.w3.org/2000/svg" width="24" height="24" viewBox="0 0 24 24" fill="none" stroke="currentColor" stroke-width="2" stroke-linecap="round" stroke-linejoin="round"><path d="M15.640 1.069 C 15.488 1.121,15.205 1.384,13.825 2.755 C 12.040 4.530,12.001 4.578,12.001 5.000 C 12.001 5.420,12.043 5.472,13.806 7.226 C 14.694 8.109,15.481 8.862,15.555 8.899 C 16.010 9.128,16.601 8.944,16.867 8.492 C 16.964 8.327,16.980 8.258,16.979 8.000 C 16.979 7.787,16.957 7.660,16.904 7.560 C 16.864 7.483,16.514 7.100,16.127 6.710 L 15.423 6.000 17.264 6.000 C 19.355 6.000,19.391 6.004,19.679 6.283 C 20.007 6.602,19.978 5.981,20.000 13.023 L 20.020 19.306 20.141 19.503 C 20.543 20.156,21.457 20.156,21.859 19.503 L 21.980 19.306 21.980 12.883 L 21.980 6.460 21.886 6.160 C 21.581 5.181,20.828 4.424,19.861 4.123 L 19.540 4.023 17.484 4.009 L 15.428 3.995 16.129 3.288 C 16.515 2.898,16.864 2.517,16.904 2.440 C 16.957 2.340,16.979 2.213,16.979 2.000 C 16.980 1.745,16.964 1.672,16.872 1.516 C 16.617 1.083,16.121 0.902,15.640 1.069 M2.695 4.057 C 2.466 4.129,2.256 4.299,2.128 4.516 C 2.037 4.672,2.020 4.746,2.020 5.000 C 2.020 5.256,2.036 5.328,2.131 5.489 C 2.256 5.702,2.449 5.864,2.670 5.943 C 2.891 6.022,9.109 6.022,9.330 5.943 C 9.551 5.864,9.744 5.702,9.869 5.489 C 9.964 5.328,9.980 5.256,9.980 5.000 C 9.980 4.746,9.963 4.672,9.872 4.516 C 9.740 4.293,9.533 4.128,9.290 4.055 C 9.030 3.977,2.945 3.979,2.695 4.057 M2.695 11.057 C 2.466 11.129,2.256 11.299,2.128 11.516 C 2.037 11.672,2.020 11.746,2.020 12.000 C 2.020 12.256,2.036 12.328,2.131 12.489 C 2.256 12.702,2.449 12.864,2.670 12.943 C 2.793 12.987,4.021 12.996,9.500 12.996 C 14.979 12.996,16.207 12.987,16.330 12.943 C 16.551 12.864,16.744 12.702,16.869 12.489 C 16.964 12.328,16.980 12.256,16.980 12.000 C 16.980 11.746,16.963 11.672,16.872 11.516 C 16.740 11.293,16.533 11.128,16.290 11.055 C 16.028 10.976,2.947 10.978,2.695 11.057 M2.695 18.057 C 2.466 18.129,2.256 18.299,2.128 18.516 C 2.037 18.672,2.020 18.746,2.020 19.000 C 2.020 19.256,2.036 19.328,2.131 19.489 C 2.256 19.702,2.449 19.864,2.670 19.943 C 2.793 19.987,4.021 19.996,9.500 19.996 C 14.979 19.996,16.207 19.987,16.330 19.943 C 16.551 19.864,16.744 19.702,16.869 19.489 C 16.964 19.328,16.980 19.256,16.980 19.000 C 16.980 18.746,16.963 18.672,16.872 18.516 C 16.740 18.293,16.533 18.128,16.290 18.055 C 16.028 17.976,2.947 17.978,2.695 18.057 " stroke="none" fill-rule="evenodd" fill="#000000"></path></svg>