<svg  xmlns="http://www.w3.org/2000/svg" width="24" height="24" viewBox="0 0 24 24" fill="none" stroke="currentColor" stroke-width="2" stroke-linecap="round" stroke-linejoin="round"><path d="M1.670 1.061 C 1.448 1.142,1.250 1.309,1.128 1.516 C 1.036 1.672,1.020 1.745,1.021 2.000 C 1.021 2.212,1.043 2.341,1.095 2.440 C 1.135 2.517,1.933 3.347,2.868 4.284 L 4.567 5.989 4.014 6.010 C 3.596 6.027,3.381 6.056,3.139 6.127 C 2.186 6.410,1.420 7.179,1.114 8.160 L 1.020 8.460 1.020 13.500 L 1.020 18.540 1.114 18.840 C 1.418 19.816,2.149 20.554,3.140 20.886 L 3.420 20.980 11.500 20.991 L 19.579 21.001 20.500 21.916 C 21.006 22.419,21.483 22.864,21.560 22.905 C 21.659 22.957,21.787 22.979,22.000 22.979 C 22.258 22.980,22.327 22.964,22.492 22.867 C 22.968 22.587,23.139 21.967,22.865 21.508 C 22.810 21.416,18.215 16.793,12.653 11.235 C 3.300 1.889,2.525 1.125,2.343 1.065 C 2.107 0.987,1.874 0.986,1.670 1.061 M9.545 3.041 C 8.682 3.191,8.399 4.288,9.089 4.814 C 9.344 5.009,9.323 5.007,11.780 5.002 C 14.393 4.997,14.398 4.997,14.672 5.273 C 14.753 5.355,14.935 5.638,15.076 5.901 C 15.619 6.917,15.995 7.337,16.646 7.656 C 17.273 7.964,17.321 7.971,18.880 7.997 C 20.429 8.024,20.427 8.023,20.717 8.321 C 21.013 8.626,21.000 8.432,21.000 12.693 C 21.000 15.511,21.012 16.532,21.048 16.649 C 21.115 16.874,21.402 17.179,21.627 17.265 C 21.862 17.355,22.138 17.355,22.373 17.265 C 22.607 17.175,22.891 16.868,22.956 16.632 C 22.992 16.503,23.001 15.457,22.992 12.440 L 22.980 8.420 22.886 8.140 C 22.556 7.156,21.812 6.416,20.861 6.124 C 20.554 6.030,20.478 6.025,19.140 6.003 C 17.302 5.973,17.434 6.032,16.857 4.978 C 16.689 4.671,16.489 4.335,16.414 4.232 C 16.160 3.886,15.734 3.530,15.344 3.339 C 14.679 3.013,14.799 3.025,12.120 3.016 C 10.811 3.011,9.652 3.022,9.545 3.041 M7.755 9.175 L 8.970 10.390 8.808 10.595 C 8.462 11.033,8.183 11.669,8.060 12.300 C 7.962 12.800,7.995 13.514,8.139 14.040 C 8.521 15.431,9.575 16.481,10.980 16.867 C 11.336 16.964,11.448 16.977,12.000 16.977 C 12.516 16.977,12.675 16.962,12.947 16.889 C 13.541 16.727,13.982 16.509,14.555 16.091 C 14.614 16.048,14.812 16.231,16.101 17.521 L 17.580 19.001 10.640 18.990 L 3.700 18.980 3.516 18.872 C 3.415 18.813,3.284 18.700,3.225 18.623 C 2.989 18.314,3.000 18.562,3.000 13.522 C 3.000 8.339,2.984 8.630,3.283 8.321 C 3.572 8.024,3.577 8.023,5.060 7.998 C 5.786 7.987,6.416 7.973,6.460 7.968 C 6.518 7.962,6.887 8.307,7.755 9.175 M11.800 13.222 C 13.127 14.551,13.177 14.606,13.100 14.666 C 12.985 14.756,12.693 14.884,12.460 14.946 C 11.878 15.101,11.152 14.916,10.683 14.495 C 10.234 14.091,10.032 13.638,10.025 13.020 C 10.021 12.725,10.039 12.565,10.094 12.408 C 10.175 12.174,10.352 11.840,10.394 11.840 C 10.408 11.840,11.041 12.462,11.800 13.222 " stroke="none" fill-rule="evenodd" fill="#000000"></path></svg>