<svg  xmlns="http://www.w3.org/2000/svg" width="24" height="24" viewBox="0 0 24 24" fill="none" stroke="currentColor" stroke-width="2" stroke-linecap="round" stroke-linejoin="round"><path d="M4.477 1.071 C 3.800 1.254,3.238 1.825,3.060 2.508 C 3.008 2.708,3.000 3.918,3.000 12.000 C 3.000 22.112,2.985 21.457,3.225 21.930 C 3.362 22.200,3.801 22.639,4.071 22.775 C 4.409 22.947,4.732 23.013,5.120 22.990 C 5.676 22.957,5.876 22.871,6.896 22.225 C 7.092 22.101,7.292 22.000,7.340 22.000 C 7.388 22.000,7.669 22.156,7.964 22.346 C 8.764 22.863,9.118 23.000,9.646 23.000 C 10.208 23.000,10.568 22.863,11.379 22.340 C 11.669 22.153,11.948 22.000,12.000 22.000 C 12.052 22.000,12.331 22.153,12.621 22.340 C 13.432 22.863,13.792 23.000,14.354 23.000 C 14.882 23.000,15.236 22.863,16.036 22.346 C 16.331 22.156,16.612 22.000,16.660 22.000 C 16.708 22.000,16.908 22.101,17.104 22.225 C 18.124 22.871,18.324 22.957,18.880 22.990 C 19.490 23.026,19.965 22.844,20.404 22.404 C 20.694 22.114,20.841 21.863,20.937 21.491 C 20.993 21.274,21.000 20.286,20.999 12.014 C 20.999 1.944,21.012 2.538,20.775 2.069 C 20.716 1.955,20.550 1.742,20.404 1.597 C 19.928 1.123,19.392 0.944,18.709 1.031 C 18.272 1.086,17.990 1.212,17.272 1.673 C 16.993 1.853,16.721 2.000,16.669 2.000 C 16.616 2.000,16.359 1.863,16.097 1.695 C 15.390 1.243,15.245 1.168,14.901 1.080 C 14.383 0.948,13.882 0.988,13.419 1.198 C 13.285 1.258,12.933 1.464,12.635 1.654 C 12.338 1.844,12.052 2.000,12.000 2.000 C 11.948 2.000,11.662 1.844,11.365 1.654 C 11.067 1.464,10.715 1.258,10.581 1.198 C 10.118 0.988,9.617 0.948,9.099 1.080 C 8.755 1.168,8.610 1.243,7.903 1.695 C 7.641 1.863,7.384 2.000,7.331 2.000 C 7.279 2.000,7.042 1.876,6.806 1.724 C 5.885 1.132,5.685 1.048,5.108 1.018 C 4.831 1.004,4.675 1.017,4.477 1.071 M5.621 3.340 C 6.432 3.863,6.792 4.000,7.354 4.000 C 7.882 4.000,8.236 3.863,9.036 3.346 C 9.331 3.156,9.612 3.000,9.660 3.000 C 9.708 3.000,9.908 3.101,10.104 3.225 C 11.221 3.932,11.338 3.978,12.000 3.978 C 12.662 3.978,12.779 3.932,13.896 3.225 C 14.092 3.101,14.292 3.000,14.340 3.000 C 14.388 3.000,14.669 3.156,14.964 3.346 C 15.764 3.863,16.118 4.000,16.646 4.000 C 17.208 4.000,17.568 3.863,18.379 3.340 C 18.669 3.153,18.927 3.000,18.953 3.000 C 18.989 3.000,19.000 5.141,19.000 12.000 C 19.000 18.899,18.989 21.000,18.953 21.000 C 18.927 21.000,18.662 20.844,18.365 20.654 C 18.067 20.464,17.715 20.258,17.581 20.198 C 17.118 19.988,16.617 19.948,16.099 20.080 C 15.755 20.168,15.610 20.243,14.903 20.695 C 14.641 20.863,14.384 21.000,14.331 21.000 C 14.279 21.000,14.009 20.854,13.732 20.677 C 12.886 20.132,12.549 20.001,12.000 20.001 C 11.451 20.001,11.114 20.132,10.268 20.677 C 9.991 20.854,9.721 21.000,9.669 21.000 C 9.616 21.000,9.359 20.863,9.097 20.695 C 8.390 20.243,8.245 20.168,7.901 20.080 C 7.383 19.948,6.882 19.988,6.419 20.198 C 6.285 20.258,5.933 20.464,5.635 20.654 C 5.338 20.844,5.073 21.000,5.047 21.000 C 5.011 21.000,5.000 18.899,5.000 12.000 C 5.000 5.141,5.011 3.000,5.047 3.000 C 5.073 3.000,5.331 3.153,5.621 3.340 M11.695 6.057 C 11.352 6.164,11.073 6.481,11.018 6.825 L 10.991 6.991 10.226 7.010 C 9.567 7.027,9.415 7.043,9.139 7.126 C 8.181 7.415,7.419 8.180,7.114 9.160 C 6.979 9.594,6.979 10.406,7.114 10.840 C 7.418 11.817,8.165 12.570,9.140 12.882 C 9.379 12.958,9.536 12.974,10.210 12.990 L 11.000 13.009 11.000 14.005 L 11.000 15.000 9.446 15.000 C 7.758 15.000,7.658 15.011,7.382 15.221 C 7.302 15.282,7.187 15.415,7.128 15.516 C 7.037 15.672,7.020 15.746,7.020 16.000 C 7.020 16.256,7.036 16.328,7.131 16.489 C 7.192 16.592,7.304 16.725,7.381 16.783 C 7.654 16.991,7.700 16.996,9.405 16.998 L 10.991 17.000 11.018 17.179 C 11.054 17.422,11.258 17.712,11.497 17.859 C 11.671 17.966,11.729 17.980,12.000 17.980 C 12.271 17.980,12.329 17.966,12.503 17.859 C 12.740 17.713,12.946 17.423,12.982 17.183 L 13.008 17.009 13.794 16.990 C 14.464 16.974,14.621 16.958,14.860 16.882 C 15.835 16.570,16.582 15.817,16.886 14.840 C 17.021 14.406,17.021 13.594,16.886 13.160 C 16.581 12.180,15.819 11.415,14.861 11.126 C 14.584 11.043,14.433 11.027,13.770 11.010 L 13.000 10.991 13.000 9.995 L 13.000 9.000 14.590 8.998 C 16.300 8.996,16.346 8.991,16.619 8.783 C 16.696 8.725,16.808 8.592,16.869 8.489 C 16.964 8.328,16.980 8.256,16.980 8.000 C 16.980 7.746,16.963 7.672,16.872 7.516 C 16.813 7.415,16.698 7.282,16.618 7.221 C 16.342 7.011,16.241 7.000,14.559 7.000 L 13.010 7.000 12.983 6.830 C 12.926 6.473,12.648 6.163,12.290 6.055 C 12.068 5.988,11.913 5.989,11.695 6.057 M11.000 10.003 L 11.000 11.007 10.350 10.993 C 9.728 10.981,9.692 10.975,9.516 10.872 C 8.935 10.530,8.833 9.774,9.304 9.303 C 9.554 9.052,9.727 9.006,10.430 9.003 L 11.000 9.000 11.000 10.003 M14.310 13.061 C 14.688 13.173,15.000 13.598,15.000 14.001 C 15.000 14.331,14.784 14.696,14.484 14.872 C 14.308 14.975,14.272 14.981,13.650 14.993 L 13.000 15.007 13.000 14.003 L 13.000 13.000 13.553 13.000 C 13.931 13.000,14.170 13.019,14.310 13.061 " stroke="none" fill-rule="evenodd" fill="#000000"></path></svg>