<svg  xmlns="http://www.w3.org/2000/svg" width="24" height="24" viewBox="0 0 24 24" fill="none" stroke="currentColor" stroke-width="2" stroke-linecap="round" stroke-linejoin="round"><path d="M8.400 2.026 C 7.098 2.148,5.981 2.503,4.903 3.137 C 2.806 4.371,1.349 6.610,1.059 9.040 C 0.857 10.739,1.185 12.407,2.014 13.900 C 2.214 14.260,2.334 14.388,2.580 14.505 C 3.130 14.765,3.774 14.472,3.946 13.884 C 4.037 13.572,3.998 13.396,3.706 12.813 C 3.290 11.982,3.128 11.448,3.038 10.620 C 2.831 8.722,3.588 6.783,5.034 5.505 C 5.811 4.818,6.922 4.284,7.967 4.097 C 8.487 4.003,9.493 4.003,10.020 4.097 C 11.267 4.319,12.308 4.865,13.225 5.777 C 13.924 6.474,14.362 7.171,14.680 8.094 C 14.829 8.527,14.990 8.751,15.254 8.891 C 15.412 8.974,15.485 8.980,16.700 9.004 C 17.831 9.027,18.017 9.040,18.300 9.116 C 19.367 9.401,20.257 10.177,20.663 11.175 C 20.827 11.579,20.882 11.836,20.907 12.324 C 20.950 13.152,20.764 13.807,20.289 14.507 C 20.046 14.864,19.985 15.041,20.010 15.315 C 20.075 16.033,20.780 16.444,21.428 16.142 C 22.006 15.873,22.700 14.491,22.882 13.242 C 22.961 12.700,22.912 11.710,22.780 11.204 C 22.359 9.584,21.327 8.300,19.860 7.569 C 19.042 7.162,18.493 7.043,17.300 7.012 L 16.420 6.989 16.174 6.484 C 15.753 5.619,15.253 4.931,14.570 4.276 C 13.386 3.139,11.995 2.421,10.440 2.143 C 9.815 2.031,8.903 1.979,8.400 2.026 M6.695 9.057 C 6.466 9.129,6.256 9.299,6.128 9.516 L 6.020 9.700 6.009 11.940 C 5.998 13.948,6.004 14.198,6.063 14.354 C 6.155 14.595,6.343 14.796,6.580 14.906 L 6.780 14.999 8.980 14.998 C 10.714 14.997,11.212 14.985,11.330 14.943 C 11.551 14.864,11.744 14.702,11.869 14.489 C 11.964 14.328,11.980 14.256,11.980 14.000 C 11.980 13.746,11.963 13.672,11.872 13.516 C 11.813 13.415,11.698 13.282,11.618 13.221 C 11.365 13.028,11.189 13.000,10.249 13.000 C 9.281 13.000,9.296 13.008,9.718 12.721 C 10.956 11.882,12.488 11.778,13.810 12.445 C 14.574 12.830,15.136 13.404,15.617 14.289 C 15.697 14.437,15.822 14.603,15.894 14.658 C 16.578 15.180,17.516 14.744,17.526 13.899 C 17.528 13.717,17.498 13.613,17.361 13.328 C 16.559 11.657,14.924 10.438,13.020 10.091 C 12.456 9.988,11.376 10.000,10.840 10.115 C 9.841 10.328,8.915 10.767,8.193 11.367 L 8.005 11.523 7.993 10.611 C 7.980 9.704,7.980 9.699,7.872 9.516 C 7.628 9.101,7.150 8.915,6.695 9.057 M12.695 17.057 C 12.466 17.129,12.256 17.299,12.128 17.516 C 12.037 17.672,12.020 17.746,12.020 18.000 C 12.020 18.256,12.036 18.328,12.131 18.489 C 12.192 18.592,12.304 18.725,12.381 18.783 C 12.635 18.978,12.752 18.996,13.715 18.998 C 14.723 19.000,14.705 18.991,14.282 19.279 C 13.045 20.118,11.529 20.227,10.221 19.571 C 9.427 19.173,8.871 18.610,8.382 17.708 C 8.147 17.276,7.840 17.098,7.380 17.127 C 6.865 17.160,6.481 17.571,6.474 18.095 C 6.472 18.284,6.500 18.383,6.639 18.672 C 7.363 20.182,8.806 21.360,10.468 21.801 C 12.266 22.277,14.254 21.866,15.695 20.722 L 15.995 20.483 16.007 21.395 L 16.020 22.307 16.141 22.503 C 16.543 23.156,17.457 23.156,17.859 22.503 L 17.980 22.306 17.991 20.063 C 18.002 18.053,17.996 17.802,17.937 17.646 C 17.845 17.405,17.657 17.204,17.420 17.094 L 17.220 17.001 15.040 17.003 C 13.374 17.005,12.821 17.018,12.695 17.057 " stroke="none" fill-rule="evenodd" fill="#000000"></path></svg>