<svg  xmlns="http://www.w3.org/2000/svg" width="24" height="24" viewBox="0 0 24 24" fill="none" stroke="currentColor" stroke-width="2" stroke-linecap="round" stroke-linejoin="round"><path d="M1.670 1.061 C 1.448 1.142,1.250 1.309,1.128 1.516 C 1.036 1.672,1.020 1.745,1.021 2.000 C 1.021 2.214,1.043 2.340,1.096 2.440 C 1.137 2.517,1.418 2.832,1.722 3.140 L 2.273 3.700 2.147 4.060 L 2.020 4.420 2.020 11.980 L 2.020 19.540 2.114 19.840 C 2.422 20.827,3.173 21.578,4.160 21.886 L 4.460 21.980 12.020 21.980 L 19.580 21.980 19.940 21.853 L 20.300 21.727 20.860 22.278 C 21.168 22.582,21.483 22.863,21.560 22.904 C 21.660 22.957,21.786 22.979,22.000 22.979 C 22.258 22.980,22.327 22.964,22.492 22.867 C 22.968 22.587,23.139 21.967,22.865 21.508 C 22.810 21.416,18.215 16.793,12.653 11.235 C 3.300 1.889,2.525 1.125,2.343 1.065 C 2.107 0.987,1.874 0.986,1.670 1.061 M8.400 2.037 C 8.093 2.132,7.808 2.395,7.718 2.665 C 7.645 2.881,7.652 3.155,7.735 3.373 C 7.821 3.598,8.126 3.885,8.351 3.952 C 8.466 3.987,9.249 4.000,11.255 4.000 L 14.000 4.000 14.000 6.132 C 14.000 8.443,14.004 8.494,14.225 8.930 C 14.361 9.199,14.801 9.639,15.070 9.775 C 15.506 9.996,15.557 10.000,17.868 10.000 L 20.000 10.000 20.000 12.745 C 20.000 14.751,20.013 15.534,20.048 15.649 C 20.115 15.874,20.402 16.179,20.627 16.265 C 20.862 16.355,21.138 16.355,21.373 16.265 C 21.607 16.175,21.891 15.868,21.956 15.632 C 21.992 15.504,22.001 14.570,21.992 11.940 L 21.980 8.420 21.867 8.060 C 21.733 7.627,21.505 7.192,21.241 6.863 C 20.921 6.464,17.162 2.748,16.920 2.592 C 16.584 2.376,16.319 2.252,15.932 2.131 L 15.580 2.021 12.040 2.013 C 10.093 2.009,8.455 2.019,8.400 2.037 M17.800 6.220 L 19.580 8.000 17.790 8.000 L 16.000 8.000 16.000 6.220 C 16.000 5.241,16.005 4.440,16.010 4.440 C 16.016 4.440,16.821 5.241,17.800 6.220 M16.950 19.991 C 16.065 19.996,12.946 19.996,10.020 19.991 L 4.700 19.980 4.516 19.872 C 4.415 19.813,4.284 19.700,4.225 19.623 C 3.986 19.310,4.000 19.770,4.000 12.285 L 4.000 5.420 11.280 12.700 L 18.560 19.980 16.950 19.991 " stroke="none" fill-rule="evenodd" fill="#000000"></path></svg>