<svg  xmlns="http://www.w3.org/2000/svg" width="24" height="24" viewBox="0 0 24 24" fill="none" stroke="currentColor" stroke-width="2" stroke-linecap="round" stroke-linejoin="round"><path d="M7.485 2.045 C 6.504 2.208,5.572 2.960,5.225 3.868 C 5.167 4.018,4.199 7.362,3.073 11.300 L 1.026 18.460 1.023 18.960 C 1.021 19.267,1.042 19.545,1.076 19.680 C 1.358 20.784,2.127 21.569,3.260 21.908 C 3.488 21.976,3.939 21.980,12.000 21.980 C 20.061 21.980,20.512 21.976,20.740 21.908 C 22.178 21.478,23.070 20.261,22.989 18.841 C 22.969 18.490,22.809 17.905,20.923 11.300 C 19.799 7.362,18.833 4.018,18.775 3.868 C 18.421 2.942,17.497 2.207,16.480 2.043 C 16.157 1.990,7.800 1.993,7.485 2.045 M11.007 4.653 C 11.020 5.300,11.021 5.308,11.141 5.503 C 11.543 6.156,12.457 6.156,12.859 5.503 C 12.979 5.308,12.980 5.300,12.993 4.653 L 13.007 4.000 14.576 4.000 C 16.299 4.000,16.366 4.008,16.649 4.241 C 16.728 4.306,16.829 4.436,16.874 4.530 C 16.919 4.623,17.860 7.859,18.965 11.720 C 21.201 19.533,21.096 19.104,20.865 19.492 C 20.738 19.703,20.580 19.839,20.345 19.936 C 20.207 19.993,19.798 20.000,16.597 20.000 L 13.003 20.000 12.992 18.350 L 12.980 16.700 12.871 16.514 C 12.479 15.848,11.521 15.848,11.129 16.514 L 11.020 16.700 11.008 18.350 L 10.997 20.000 7.402 20.000 C 3.985 20.000,3.798 19.996,3.633 19.926 C 3.388 19.821,3.234 19.679,3.119 19.454 C 2.920 19.064,2.829 19.430,5.036 11.720 C 6.140 7.859,7.081 4.623,7.126 4.530 C 7.171 4.436,7.272 4.306,7.352 4.240 C 7.630 4.012,7.674 4.007,9.407 4.003 L 10.993 4.000 11.007 4.653 M11.695 8.057 C 11.466 8.129,11.256 8.299,11.128 8.516 L 11.020 8.700 11.020 10.503 L 11.020 12.306 11.141 12.503 C 11.543 13.156,12.457 13.156,12.859 12.503 L 12.980 12.306 12.980 10.503 L 12.980 8.700 12.872 8.516 C 12.628 8.101,12.150 7.915,11.695 8.057 " stroke="none" fill-rule="evenodd" fill="#000000"></path></svg>