<svg  xmlns="http://www.w3.org/2000/svg" width="24" height="24" viewBox="0 0 24 24" fill="none" stroke="currentColor" stroke-width="2" stroke-linecap="round" stroke-linejoin="round"><path d="M2.695 2.057 C 2.466 2.129,2.256 2.299,2.128 2.516 C 2.022 2.697,2.020 2.715,2.007 3.489 L 1.994 4.277 1.859 4.360 C 1.648 4.491,1.318 4.877,1.195 5.137 C 1.006 5.536,0.992 5.689,1.009 7.192 C 1.024 8.508,1.029 8.594,1.116 8.860 C 1.502 10.039,2.520 10.877,3.697 10.984 L 3.997 11.011 4.009 14.595 L 4.021 18.180 4.127 18.563 C 4.594 20.262,5.750 21.417,7.437 21.871 C 7.778 21.963,7.895 21.974,8.500 21.974 C 9.105 21.974,9.222 21.963,9.563 21.871 C 11.250 21.417,12.405 20.263,12.874 18.563 L 12.979 18.180 13.000 12.100 C 13.020 6.339,13.025 6.008,13.094 5.800 C 13.522 4.520,14.744 3.793,16.020 4.060 C 16.741 4.211,17.395 4.713,17.715 5.362 C 18.005 5.951,17.999 5.854,17.999 9.625 L 18.000 12.990 17.714 13.018 C 16.505 13.137,15.504 13.954,15.116 15.140 C 15.029 15.406,15.024 15.492,15.009 16.808 C 14.992 18.311,15.006 18.464,15.195 18.863 C 15.315 19.117,15.629 19.487,15.855 19.642 L 15.994 19.738 16.007 20.522 L 16.020 21.307 16.141 21.503 C 16.543 22.156,17.457 22.156,17.859 21.503 C 17.979 21.308,17.980 21.300,17.993 20.653 L 18.007 20.000 19.000 20.000 L 19.993 20.000 20.007 20.653 C 20.020 21.300,20.021 21.308,20.141 21.503 C 20.543 22.156,21.457 22.156,21.859 21.503 L 21.980 21.307 21.993 20.522 L 22.006 19.738 22.145 19.642 C 22.348 19.503,22.670 19.137,22.779 18.922 C 22.991 18.503,23.007 18.343,22.991 16.822 C 22.976 15.491,22.971 15.406,22.884 15.140 C 22.696 14.566,22.381 14.099,21.911 13.695 C 21.473 13.320,20.893 13.078,20.286 13.018 L 20.000 12.990 20.000 9.560 C 20.000 5.801,19.999 5.788,19.759 5.071 C 19.094 3.086,17.113 1.810,15.045 2.034 C 14.227 2.123,13.476 2.410,12.857 2.871 C 12.075 3.453,11.538 4.184,11.241 5.071 C 10.991 5.816,11.000 5.565,10.999 11.935 C 10.999 18.395,11.013 18.033,10.723 18.620 C 10.439 19.195,9.932 19.646,9.320 19.868 C 9.052 19.965,8.965 19.976,8.500 19.976 C 8.035 19.976,7.948 19.965,7.680 19.868 C 7.068 19.646,6.561 19.195,6.277 18.620 C 5.996 18.053,6.001 18.133,6.001 14.376 L 6.000 11.011 6.302 10.984 C 7.480 10.877,8.498 10.040,8.884 8.860 C 8.971 8.595,8.976 8.508,8.991 7.200 C 9.008 5.697,8.987 5.488,8.783 5.085 C 8.667 4.857,8.332 4.479,8.141 4.360 L 8.006 4.277 7.993 3.489 C 7.980 2.712,7.978 2.697,7.871 2.514 C 7.479 1.848,6.521 1.848,6.129 2.514 C 6.024 2.693,6.019 2.726,6.007 3.350 L 5.993 4.000 5.000 4.000 L 4.007 4.000 3.993 3.350 C 3.981 2.728,3.975 2.692,3.872 2.516 C 3.628 2.101,3.150 1.915,2.695 2.057 M7.000 7.054 C 7.000 8.203,6.978 8.356,6.779 8.618 C 6.718 8.698,6.585 8.813,6.484 8.872 L 6.300 8.980 5.000 8.980 L 3.700 8.980 3.516 8.872 C 3.415 8.813,3.284 8.700,3.225 8.623 C 3.016 8.349,3.000 8.241,3.000 7.075 L 3.000 6.000 5.000 6.000 L 7.000 6.000 7.000 7.054 M20.310 15.061 C 20.452 15.103,20.571 15.178,20.697 15.303 C 20.978 15.584,21.000 15.703,21.000 16.947 L 21.000 18.000 19.000 18.000 L 17.000 18.000 17.000 16.947 C 17.000 15.705,17.022 15.584,17.301 15.306 C 17.587 15.019,17.656 15.007,18.963 15.003 C 19.876 15.001,20.147 15.012,20.310 15.061 " stroke="none" fill-rule="evenodd" fill="#000000"></path></svg>