<svg  xmlns="http://www.w3.org/2000/svg" width="24" height="24" viewBox="0 0 24 24" fill="none" stroke="currentColor" stroke-width="2" stroke-linecap="round" stroke-linejoin="round"><path d="M7.499 1.043 C 6.388 1.232,5.470 2.041,5.118 3.140 C 5.042 3.379,5.026 3.536,5.010 4.210 L 4.991 5.000 4.442 5.000 C 3.649 5.000,3.366 5.111,3.128 5.516 C 3.037 5.672,3.020 5.746,3.020 6.000 C 3.020 6.256,3.036 6.328,3.131 6.489 C 3.256 6.702,3.449 6.864,3.670 6.943 C 3.768 6.978,4.023 6.997,4.410 6.998 L 5.000 7.000 5.000 9.000 L 5.000 11.000 4.446 11.000 C 3.648 11.000,3.367 11.110,3.128 11.516 C 3.037 11.672,3.020 11.746,3.020 12.000 C 3.020 12.256,3.036 12.328,3.131 12.489 C 3.256 12.702,3.449 12.864,3.670 12.943 C 3.768 12.978,4.023 12.997,4.410 12.998 L 5.000 13.000 5.000 15.000 L 5.000 17.000 4.446 17.000 C 3.648 17.000,3.367 17.110,3.128 17.516 C 3.037 17.672,3.020 17.746,3.020 18.000 C 3.020 18.256,3.036 18.328,3.131 18.489 C 3.256 18.702,3.449 18.864,3.670 18.943 C 3.768 18.978,4.022 18.997,4.405 18.998 L 4.991 19.000 5.010 19.790 C 5.026 20.464,5.042 20.621,5.118 20.860 C 5.430 21.834,6.182 22.581,7.160 22.886 L 7.460 22.980 12.000 22.980 L 16.540 22.980 16.840 22.886 C 17.818 22.581,18.570 21.834,18.882 20.860 C 18.958 20.621,18.974 20.464,18.990 19.790 L 19.009 19.000 19.595 18.998 C 19.978 18.997,20.232 18.978,20.330 18.943 C 20.551 18.864,20.744 18.702,20.869 18.489 C 20.964 18.328,20.980 18.256,20.980 18.000 C 20.980 17.746,20.963 17.672,20.872 17.516 C 20.633 17.110,20.352 17.000,19.554 17.000 L 19.000 17.000 19.000 15.000 L 19.000 13.000 19.590 12.998 C 19.977 12.997,20.232 12.978,20.330 12.943 C 20.551 12.864,20.744 12.702,20.869 12.489 C 20.964 12.328,20.980 12.256,20.980 12.000 C 20.980 11.746,20.963 11.672,20.872 11.516 C 20.633 11.110,20.352 11.000,19.554 11.000 L 19.000 11.000 19.000 9.000 L 19.000 7.000 19.590 6.998 C 19.977 6.997,20.232 6.978,20.330 6.943 C 20.551 6.864,20.744 6.702,20.869 6.489 C 20.964 6.328,20.980 6.256,20.980 6.000 C 20.980 5.746,20.963 5.672,20.872 5.516 C 20.634 5.111,20.351 5.000,19.558 5.000 L 19.009 5.000 18.990 4.210 C 18.974 3.536,18.958 3.379,18.882 3.140 C 18.573 2.174,17.823 1.425,16.861 1.121 L 16.540 1.020 12.120 1.014 C 9.689 1.011,7.609 1.024,7.499 1.043 M16.310 3.061 C 16.589 3.144,16.856 3.411,16.939 3.690 C 16.993 3.870,17.000 4.860,17.000 12.001 C 17.000 18.754,16.991 20.138,16.945 20.290 C 16.872 20.533,16.707 20.740,16.484 20.872 L 16.300 20.980 12.000 20.980 L 7.700 20.980 7.516 20.872 C 7.415 20.813,7.284 20.700,7.225 20.623 C 6.985 20.308,7.000 20.888,7.000 12.022 C 7.000 2.888,6.974 3.632,7.304 3.303 C 7.618 2.989,7.346 3.006,11.983 3.003 C 15.563 3.000,16.132 3.008,16.310 3.061 M9.695 6.057 C 9.466 6.129,9.256 6.299,9.128 6.516 C 9.037 6.672,9.020 6.746,9.020 7.000 C 9.020 7.256,9.036 7.328,9.131 7.489 C 9.256 7.702,9.449 7.864,9.670 7.943 C 9.889 8.021,14.111 8.021,14.330 7.943 C 14.551 7.864,14.744 7.702,14.869 7.489 C 14.964 7.328,14.980 7.256,14.980 7.000 C 14.980 6.746,14.963 6.672,14.872 6.516 C 14.740 6.293,14.533 6.128,14.290 6.055 C 14.033 5.978,9.943 5.979,9.695 6.057 M9.695 11.057 C 9.466 11.129,9.256 11.299,9.128 11.516 C 9.037 11.672,9.020 11.746,9.020 12.000 C 9.020 12.256,9.036 12.328,9.131 12.489 C 9.256 12.702,9.449 12.864,9.670 12.943 C 9.889 13.021,14.111 13.021,14.330 12.943 C 14.551 12.864,14.744 12.702,14.869 12.489 C 14.964 12.328,14.980 12.256,14.980 12.000 C 14.980 11.746,14.963 11.672,14.872 11.516 C 14.740 11.293,14.533 11.128,14.290 11.055 C 14.033 10.978,9.943 10.979,9.695 11.057 M9.695 16.057 C 9.466 16.129,9.256 16.299,9.128 16.516 C 9.037 16.672,9.020 16.746,9.020 17.000 C 9.020 17.256,9.036 17.328,9.131 17.489 C 9.256 17.702,9.449 17.864,9.670 17.943 C 9.889 18.021,14.111 18.021,14.330 17.943 C 14.551 17.864,14.744 17.702,14.869 17.489 C 14.964 17.328,14.980 17.256,14.980 17.000 C 14.980 16.746,14.963 16.672,14.872 16.516 C 14.740 16.293,14.533 16.128,14.290 16.055 C 14.033 15.978,9.943 15.979,9.695 16.057 " stroke="none" fill-rule="evenodd" fill="#000000"></path></svg>