<svg  xmlns="http://www.w3.org/2000/svg" width="24" height="24" viewBox="0 0 24 24" fill="none" stroke="currentColor" stroke-width="2" stroke-linecap="round" stroke-linejoin="round"><path d="M6.477 1.073 C 5.806 1.249,5.238 1.823,5.060 2.508 C 4.972 2.845,4.972 7.188,5.060 7.691 C 5.187 8.420,5.410 8.873,6.099 9.800 C 6.576 10.442,6.784 10.809,6.905 11.220 C 6.970 11.441,6.978 11.816,6.998 16.020 L 7.021 20.580 7.114 20.860 C 7.445 21.849,8.184 22.582,9.160 22.886 L 9.460 22.980 12.000 22.980 L 14.540 22.980 14.840 22.886 C 15.816 22.582,16.555 21.849,16.886 20.860 L 16.979 20.580 17.002 16.020 C 17.022 11.816,17.030 11.441,17.095 11.220 C 17.216 10.809,17.424 10.442,17.901 9.800 C 18.450 9.062,18.638 8.737,18.796 8.252 C 18.986 7.670,19.000 7.451,18.999 5.027 C 18.999 2.600,18.991 2.497,18.781 2.083 C 18.646 1.816,18.297 1.449,18.017 1.281 C 17.533 0.989,17.867 1.005,12.000 1.005 C 7.157 1.005,6.719 1.010,6.477 1.073 M17.000 4.000 L 17.000 5.000 12.000 5.000 L 7.000 5.000 7.000 4.000 L 7.000 3.000 12.000 3.000 L 17.000 3.000 17.000 4.000 M17.000 7.050 C 16.999 7.235,16.901 7.638,16.812 7.827 C 16.753 7.950,16.484 8.350,16.214 8.716 C 15.564 9.594,15.301 10.126,15.094 10.980 C 15.033 11.232,15.023 11.712,15.003 15.760 C 14.985 19.235,14.969 20.286,14.930 20.373 C 14.842 20.572,14.672 20.761,14.484 20.872 L 14.300 20.980 12.000 20.980 L 9.700 20.980 9.516 20.872 C 9.328 20.761,9.158 20.572,9.070 20.373 C 9.031 20.286,9.015 19.235,8.997 15.760 C 8.977 11.710,8.968 11.232,8.906 10.980 C 8.699 10.125,8.436 9.594,7.786 8.716 C 7.516 8.350,7.247 7.950,7.188 7.827 C 7.099 7.638,7.001 7.235,7.000 7.050 C 7.000 7.010,8.027 7.000,12.000 7.000 C 15.973 7.000,17.000 7.010,17.000 7.050 M11.695 12.057 C 11.466 12.129,11.256 12.299,11.128 12.516 C 11.020 12.699,11.020 12.703,11.020 13.503 L 11.020 14.306 11.141 14.503 C 11.543 15.156,12.457 15.156,12.859 14.503 L 12.980 14.306 12.980 13.503 C 12.980 12.703,12.980 12.699,12.872 12.516 C 12.628 12.101,12.150 11.915,11.695 12.057 " stroke="none" fill-rule="evenodd" fill="#000000"></path></svg>