<svg  xmlns="http://www.w3.org/2000/svg" width="24" height="24" viewBox="0 0 24 24" fill="none" stroke="currentColor" stroke-width="2" stroke-linecap="round" stroke-linejoin="round"><path d="M11.695 1.057 C 11.335 1.170,11.058 1.500,11.014 1.866 L 10.991 2.061 10.502 2.149 C 8.405 2.525,6.475 3.829,5.264 5.689 C 4.953 6.166,4.594 6.924,4.405 7.500 C 4.252 7.969,4.080 8.703,4.080 8.889 C 4.080 8.971,4.052 8.987,3.833 9.029 C 3.530 9.086,3.303 9.241,3.140 9.502 C 3.034 9.671,3.020 9.729,3.020 9.997 C 3.020 10.256,3.036 10.327,3.131 10.489 C 3.256 10.702,3.449 10.864,3.670 10.943 C 3.893 11.022,20.107 11.022,20.330 10.943 C 20.551 10.864,20.744 10.702,20.869 10.489 C 20.964 10.327,20.980 10.256,20.980 9.997 C 20.980 9.729,20.966 9.671,20.860 9.502 C 20.697 9.241,20.470 9.086,20.167 9.029 C 19.948 8.987,19.920 8.971,19.920 8.889 C 19.920 8.703,19.748 7.969,19.595 7.500 C 19.229 6.382,18.612 5.352,17.801 4.504 C 16.657 3.309,15.223 2.506,13.648 2.178 C 13.391 2.124,13.142 2.080,13.096 2.080 C 13.024 2.080,13.007 2.049,12.987 1.876 C 12.914 1.264,12.293 0.870,11.695 1.057 M12.564 4.039 C 14.009 4.180,15.260 4.776,16.269 5.805 C 17.072 6.624,17.645 7.673,17.851 8.700 L 17.907 8.980 14.953 8.990 C 13.329 8.996,10.671 8.996,9.047 8.990 L 6.093 8.980 6.149 8.700 C 6.355 7.673,6.928 6.624,7.731 5.805 C 9.008 4.503,10.757 3.864,12.564 4.039 M1.695 13.057 C 1.465 13.129,1.256 13.299,1.128 13.516 C 1.037 13.672,1.020 13.746,1.020 14.000 C 1.020 14.256,1.036 14.328,1.131 14.489 C 1.192 14.592,1.304 14.725,1.381 14.783 C 1.643 14.983,1.738 14.996,2.910 14.998 L 4.000 15.000 4.000 17.500 L 4.000 20.000 2.946 20.000 C 1.797 20.000,1.644 20.022,1.382 20.221 C 1.302 20.282,1.187 20.415,1.128 20.516 C 1.037 20.672,1.020 20.746,1.020 21.000 C 1.020 21.256,1.036 21.328,1.131 21.489 C 1.192 21.592,1.304 21.725,1.381 21.783 C 1.646 21.986,1.728 21.996,3.042 21.998 C 4.366 22.000,4.522 21.982,4.930 21.775 C 5.196 21.640,5.638 21.200,5.771 20.937 C 5.888 20.707,6.000 20.309,6.000 20.124 C 6.000 19.873,6.129 19.976,6.915 20.858 C 8.005 22.082,8.426 22.405,9.341 22.723 C 10.086 22.981,10.075 22.980,13.000 22.980 C 15.424 22.980,15.690 22.974,15.999 22.907 C 16.970 22.698,17.649 22.335,18.380 21.638 C 18.600 21.427,19.536 20.562,20.460 19.715 C 21.384 18.868,22.226 18.078,22.330 17.959 C 22.547 17.710,22.753 17.337,22.881 16.960 C 23.016 16.562,23.038 15.768,22.927 15.328 C 22.817 14.895,22.649 14.551,22.377 14.204 C 21.759 13.414,20.838 12.996,19.841 13.053 C 19.346 13.082,19.044 13.157,18.680 13.340 C 18.346 13.508,18.168 13.644,17.408 14.312 C 17.072 14.608,16.791 14.843,16.784 14.835 C 16.778 14.827,16.715 14.712,16.645 14.580 C 16.299 13.922,15.607 13.357,14.861 13.121 L 14.540 13.020 8.200 13.012 C 3.082 13.006,1.828 13.015,1.695 13.057 M14.310 15.061 C 14.589 15.144,14.856 15.411,14.939 15.690 C 15.015 15.946,15.015 16.053,14.940 16.307 C 14.866 16.556,14.535 16.890,14.296 16.956 C 14.201 16.983,13.700 17.000,13.016 17.000 C 11.792 17.000,11.646 17.020,11.382 17.221 C 11.302 17.282,11.187 17.415,11.128 17.516 C 11.037 17.672,11.020 17.746,11.020 18.000 C 11.020 18.257,11.036 18.327,11.133 18.492 C 11.263 18.713,11.502 18.901,11.732 18.963 C 11.837 18.992,12.353 19.001,13.236 18.991 C 14.509 18.976,14.595 18.970,14.860 18.883 C 15.371 18.715,15.690 18.520,16.140 18.101 C 16.228 18.019,17.011 17.327,17.881 16.564 C 18.935 15.639,19.519 15.153,19.632 15.108 C 19.989 14.965,20.470 15.069,20.728 15.345 C 21.065 15.705,21.093 16.316,20.789 16.677 C 20.738 16.737,19.924 17.494,18.979 18.360 C 18.033 19.226,17.111 20.076,16.928 20.250 C 16.678 20.488,16.515 20.604,16.268 20.721 C 15.693 20.993,15.614 21.000,13.000 21.000 C 10.391 21.000,10.305 20.993,9.740 20.724 C 9.330 20.529,9.157 20.370,8.242 19.342 C 7.799 18.845,7.399 18.434,7.274 18.348 C 6.995 18.156,6.671 18.045,6.299 18.014 L 6.000 17.988 6.000 16.494 L 6.000 15.000 10.053 15.000 C 13.564 15.000,14.133 15.008,14.310 15.061 " stroke="none" fill-rule="evenodd" fill="#000000"></path></svg>