<svg  xmlns="http://www.w3.org/2000/svg" width="24" height="24" viewBox="0 0 24 24" fill="none" stroke="currentColor" stroke-width="2" stroke-linecap="round" stroke-linejoin="round"><path d="M11.075 4.043 C 10.610 4.082,10.371 4.182,10.186 4.415 C 10.003 4.647,9.960 4.768,9.961 5.052 C 9.962 5.353,10.051 5.563,10.265 5.768 C 10.536 6.027,10.551 6.029,12.040 6.023 C 13.531 6.017,13.487 6.024,13.768 5.733 C 13.962 5.533,14.040 5.336,14.040 5.049 C 14.040 4.650,13.799 4.288,13.425 4.127 C 13.178 4.020,11.903 3.975,11.075 4.043 M6.591 5.338 C 6.114 5.521,4.666 6.508,4.385 6.841 C 4.241 7.012,4.148 7.351,4.182 7.578 C 4.249 8.028,4.624 8.388,5.066 8.428 C 5.418 8.459,5.572 8.396,6.096 8.003 C 6.358 7.807,6.804 7.508,7.088 7.339 C 7.391 7.157,7.645 6.976,7.706 6.896 C 8.089 6.394,7.933 5.675,7.381 5.391 C 7.179 5.287,6.791 5.261,6.591 5.338 M16.800 5.315 C 16.105 5.541,15.859 6.326,16.302 6.906 C 16.358 6.980,16.623 7.168,16.916 7.342 C 17.198 7.510,17.644 7.808,17.905 8.004 C 18.172 8.204,18.450 8.379,18.540 8.404 C 18.743 8.461,19.108 8.429,19.280 8.340 C 19.594 8.178,19.812 7.820,19.816 7.460 C 19.823 6.969,19.580 6.697,18.500 5.980 C 17.722 5.463,17.411 5.307,17.127 5.294 C 17.002 5.288,16.855 5.297,16.800 5.315 M11.358 8.061 C 10.230 8.237,9.143 8.974,8.569 9.953 C 7.320 12.083,8.233 14.785,10.512 15.704 C 12.558 16.528,14.877 15.538,15.704 13.488 C 16.090 12.530,16.090 11.469,15.705 10.516 C 15.172 9.197,14.001 8.269,12.605 8.058 C 12.144 7.989,11.816 7.990,11.358 8.061 M2.326 9.725 C 2.103 9.766,1.829 9.927,1.720 10.080 C 1.673 10.146,1.529 10.421,1.401 10.690 C 0.871 11.804,0.868 12.179,1.381 13.267 C 1.669 13.879,1.803 14.056,2.077 14.190 C 2.740 14.514,3.487 14.057,3.497 13.320 C 3.500 13.081,3.480 13.018,3.249 12.528 L 2.997 11.996 3.237 11.488 C 3.521 10.888,3.553 10.734,3.463 10.423 C 3.319 9.930,2.834 9.632,2.326 9.725 M21.320 9.721 C 21.102 9.765,20.981 9.824,20.822 9.964 C 20.591 10.167,20.502 10.372,20.504 10.700 C 20.506 10.960,20.523 11.016,20.755 11.490 L 21.004 12.000 20.755 12.510 C 20.523 12.984,20.506 13.040,20.504 13.300 C 20.502 13.627,20.591 13.833,20.819 14.034 C 21.226 14.391,21.757 14.389,22.148 14.028 C 22.287 13.900,22.389 13.738,22.581 13.340 C 23.136 12.190,23.139 11.829,22.600 10.695 C 22.459 10.396,22.305 10.139,22.202 10.027 C 21.973 9.778,21.628 9.658,21.320 9.721 M12.523 10.073 C 13.262 10.266,13.850 10.924,13.967 11.690 C 14.067 12.343,13.873 12.933,13.403 13.404 C 13.002 13.807,12.547 14.000,12.000 14.000 C 11.485 14.000,11.038 13.822,10.653 13.465 C 9.323 12.229,10.189 10.005,12.000 10.005 C 12.143 10.005,12.378 10.036,12.523 10.073 M4.835 15.615 C 4.756 15.644,4.634 15.707,4.564 15.757 C 4.405 15.870,4.210 16.208,4.177 16.426 C 4.145 16.640,4.246 16.993,4.387 17.161 C 4.669 17.496,5.997 18.407,6.547 18.643 C 7.181 18.915,7.920 18.427,7.917 17.740 C 7.915 17.309,7.742 17.050,7.272 16.777 C 6.846 16.530,6.420 16.247,6.029 15.951 C 5.859 15.821,5.643 15.681,5.549 15.639 C 5.354 15.550,5.046 15.540,4.835 15.615 M18.495 15.609 C 18.426 15.631,18.197 15.779,17.985 15.939 C 17.563 16.258,17.133 16.543,16.691 16.796 C 16.266 17.040,16.080 17.325,16.080 17.729 C 16.081 17.977,16.212 18.286,16.385 18.448 C 16.666 18.711,17.108 18.791,17.456 18.642 C 17.956 18.427,19.314 17.500,19.593 17.182 C 19.753 17.000,19.856 16.655,19.819 16.429 C 19.782 16.203,19.610 15.892,19.458 15.776 C 19.202 15.580,18.799 15.510,18.495 15.609 M10.526 18.043 C 10.340 18.129,10.102 18.377,10.022 18.569 C 9.829 19.032,10.054 19.626,10.502 19.837 C 10.968 20.056,13.032 20.056,13.498 19.837 C 13.829 19.681,14.038 19.339,14.039 18.949 C 14.040 18.665,13.962 18.467,13.768 18.267 C 13.489 17.977,13.533 17.985,12.026 17.980 C 10.838 17.977,10.654 17.985,10.526 18.043 " stroke="none" fill-rule="evenodd" fill="#000000"></path></svg>