<svg  xmlns="http://www.w3.org/2000/svg" width="24" height="24" viewBox="0 0 24 24" fill="none" stroke="currentColor" stroke-width="2" stroke-linecap="round" stroke-linejoin="round"><path d="M5.400 4.044 C 3.761 4.229,2.261 5.290,1.526 6.785 C 1.333 7.177,1.187 7.599,1.093 8.040 C 1.025 8.358,1.020 8.682,1.020 12.960 L 1.020 17.540 1.114 17.840 C 1.419 18.818,2.164 19.568,3.140 19.882 C 3.385 19.961,3.529 19.974,4.286 19.990 L 5.151 20.009 5.314 20.334 C 5.682 21.069,6.357 21.636,7.160 21.886 C 7.594 22.021,8.406 22.021,8.840 21.886 C 9.645 21.635,10.318 21.069,10.688 20.330 L 10.853 20.000 16.058 20.000 C 21.728 20.000,21.466 20.010,21.930 19.775 C 22.196 19.640,22.638 19.200,22.771 18.937 C 22.970 18.545,23.007 18.298,22.993 17.463 C 22.980 16.715,22.978 16.696,22.871 16.514 C 22.479 15.848,21.521 15.848,21.129 16.514 C 21.024 16.693,21.019 16.726,21.007 17.350 L 20.993 18.000 19.998 18.000 L 19.002 18.000 18.989 13.150 C 18.978 8.662,18.971 8.278,18.905 8.000 C 18.588 6.667,17.847 5.566,16.800 4.874 C 16.046 4.375,15.396 4.135,14.552 4.043 C 14.084 3.991,5.855 3.993,5.400 4.044 M14.861 6.121 C 15.823 6.425,16.575 7.177,16.879 8.139 L 16.980 8.460 16.991 13.230 L 17.002 18.000 16.001 18.000 L 15.000 18.000 14.999 13.890 C 14.999 9.437,15.002 9.519,14.781 9.083 C 14.551 8.628,14.022 8.203,13.523 8.073 C 13.134 7.972,10.866 7.972,10.477 8.073 C 9.806 8.249,9.238 8.823,9.060 9.508 C 9.009 9.702,9.000 10.231,9.000 12.951 C 9.000 15.993,8.996 16.164,8.930 16.145 C 8.892 16.134,8.779 16.102,8.680 16.074 C 8.574 16.044,8.287 16.024,7.980 16.025 C 7.548 16.027,7.406 16.044,7.139 16.125 C 6.358 16.363,5.679 16.937,5.311 17.673 L 5.144 18.006 4.422 17.993 C 3.721 17.980,3.695 17.977,3.516 17.872 C 3.415 17.813,3.284 17.700,3.225 17.623 C 3.006 17.336,3.000 17.283,3.000 15.575 L 3.000 14.000 4.132 14.000 C 5.358 14.000,5.528 13.979,5.930 13.775 C 6.196 13.640,6.638 13.200,6.771 12.937 C 6.979 12.527,7.000 12.352,6.999 11.014 C 6.999 9.685,6.974 9.463,6.784 9.087 C 6.574 8.673,6.067 8.238,5.623 8.092 C 5.461 8.039,5.193 8.021,4.286 8.003 L 3.153 7.980 3.317 7.660 C 3.757 6.803,4.569 6.201,5.499 6.043 C 5.609 6.024,7.689 6.011,10.120 6.014 L 14.540 6.020 14.861 6.121 M5.000 11.000 L 5.000 12.000 4.000 12.000 L 3.000 12.000 3.000 11.000 L 3.000 10.000 4.000 10.000 L 5.000 10.000 5.000 11.000 M13.000 14.000 L 13.000 18.000 12.000 18.000 L 11.000 18.000 11.000 14.000 L 11.000 10.000 12.000 10.000 L 13.000 10.000 13.000 14.000 M8.310 18.061 C 8.688 18.173,9.000 18.598,9.000 19.001 C 9.000 19.331,8.784 19.696,8.484 19.872 C 8.328 19.963,8.254 19.980,8.000 19.980 C 7.746 19.980,7.672 19.963,7.516 19.872 C 6.935 19.530,6.833 18.774,7.304 18.303 C 7.583 18.024,7.916 17.944,8.310 18.061 " stroke="none" fill-rule="evenodd" fill="#000000"></path></svg>