<svg  xmlns="http://www.w3.org/2000/svg" width="24" height="24" viewBox="0 0 24 24" fill="none" stroke="currentColor" stroke-width="2" stroke-linecap="round" stroke-linejoin="round"><path d="M14.460 2.056 C 14.117 2.122,13.778 2.256,12.920 2.665 L 12.260 2.980 10.120 3.002 C 7.776 3.027,7.797 3.025,7.244 3.282 C 6.552 3.604,5.968 4.216,5.721 4.878 C 5.670 5.013,5.319 6.216,4.939 7.552 L 4.249 9.980 2.995 10.001 C 2.128 10.015,1.705 10.037,1.627 10.071 C 1.429 10.157,1.239 10.327,1.128 10.516 C 1.037 10.672,1.020 10.746,1.020 11.000 C 1.020 11.256,1.036 11.328,1.131 11.489 C 1.256 11.702,1.449 11.864,1.670 11.943 C 1.893 12.023,22.107 12.023,22.330 11.943 C 22.551 11.864,22.744 11.702,22.869 11.489 C 22.964 11.328,22.980 11.256,22.980 11.000 C 22.980 10.746,22.963 10.672,22.872 10.516 C 22.813 10.415,22.698 10.282,22.618 10.221 C 22.351 10.018,22.214 10.000,20.914 10.000 C 20.257 10.000,19.720 9.991,19.720 9.980 C 19.720 9.944,17.880 4.145,17.792 3.905 C 17.623 3.440,17.138 2.830,16.705 2.536 C 16.489 2.389,16.003 2.164,15.754 2.096 C 15.443 2.012,14.794 1.991,14.460 2.056 M15.455 4.122 C 15.857 4.323,15.758 4.074,17.013 8.040 L 17.627 9.980 14.817 9.990 C 13.271 9.996,10.729 9.996,9.168 9.990 L 6.330 9.980 6.899 7.980 C 7.212 6.880,7.497 5.881,7.532 5.759 C 7.609 5.497,7.820 5.234,8.054 5.109 C 8.218 5.021,8.248 5.020,10.380 4.998 C 12.908 4.972,12.623 5.018,13.887 4.428 C 14.334 4.219,14.727 4.038,14.760 4.025 C 14.892 3.975,15.265 4.027,15.455 4.122 M6.358 14.061 C 5.230 14.237,4.143 14.974,3.569 15.953 C 2.320 18.083,3.233 20.785,5.512 21.704 C 7.558 22.528,9.877 21.538,10.704 19.488 C 10.864 19.090,11.000 18.468,11.000 18.131 C 11.000 17.597,11.264 17.187,11.690 17.061 C 11.947 16.985,12.053 16.985,12.310 17.061 C 12.736 17.187,13.000 17.597,13.000 18.131 C 13.000 18.460,13.141 19.120,13.289 19.479 C 13.714 20.516,14.490 21.292,15.512 21.704 C 17.558 22.528,19.877 21.538,20.704 19.488 C 21.090 18.530,21.090 17.469,20.705 16.516 C 20.263 15.421,19.381 14.593,18.245 14.204 C 17.951 14.103,17.322 14.000,17.000 14.000 C 16.678 14.000,16.049 14.103,15.755 14.204 C 15.113 14.424,14.432 14.869,14.020 15.338 L 13.795 15.594 13.648 15.493 C 13.159 15.160,12.680 15.023,12.000 15.023 C 11.320 15.023,10.841 15.160,10.352 15.493 L 10.205 15.594 9.980 15.338 C 9.568 14.869,8.887 14.424,8.245 14.204 C 7.930 14.096,7.307 13.999,6.960 14.004 C 6.817 14.006,6.546 14.032,6.358 14.061 M7.523 16.073 C 8.262 16.266,8.850 16.924,8.967 17.690 C 9.067 18.343,8.873 18.933,8.403 19.404 C 8.002 19.807,7.547 20.000,7.000 20.000 C 6.485 20.000,6.038 19.822,5.653 19.465 C 4.323 18.229,5.189 16.005,7.000 16.005 C 7.143 16.005,7.378 16.036,7.523 16.073 M17.523 16.073 C 18.262 16.266,18.850 16.924,18.967 17.690 C 19.067 18.343,18.873 18.933,18.403 19.404 C 18.002 19.807,17.547 20.000,17.000 20.000 C 16.485 20.000,16.038 19.822,15.653 19.465 C 14.323 18.229,15.189 16.005,17.000 16.005 C 17.143 16.005,17.378 16.036,17.523 16.073 " stroke="none" fill-rule="evenodd" fill="#000000"></path></svg>