<svg  xmlns="http://www.w3.org/2000/svg" width="24" height="24" viewBox="0 0 24 24" fill="none" stroke="currentColor" stroke-width="2" stroke-linecap="round" stroke-linejoin="round"><path d="M9.499 1.042 C 8.376 1.235,7.454 2.055,7.115 3.160 C 7.045 3.390,7.023 3.559,7.022 3.883 C 7.020 4.285,7.026 4.315,7.141 4.503 C 7.446 4.998,8.077 5.144,8.548 4.828 C 8.816 4.647,8.951 4.410,8.999 4.031 C 9.049 3.636,9.114 3.485,9.321 3.283 C 9.618 2.996,9.568 3.000,12.447 3.000 L 15.000 3.000 15.000 5.132 C 15.000 7.443,15.004 7.494,15.225 7.930 C 15.361 8.199,15.801 8.639,16.070 8.775 C 16.506 8.996,16.557 9.000,18.868 9.000 L 21.000 9.000 21.000 11.554 C 21.000 14.325,21.000 14.328,20.779 14.618 C 20.613 14.835,20.380 14.954,20.034 14.998 C 19.870 15.019,19.686 15.055,19.625 15.078 C 19.439 15.149,19.242 15.323,19.128 15.516 C 19.037 15.672,19.020 15.746,19.020 16.000 C 19.020 16.257,19.036 16.327,19.133 16.492 C 19.263 16.714,19.502 16.901,19.736 16.965 C 19.960 17.026,20.519 16.982,20.863 16.877 C 21.820 16.584,22.581 15.818,22.886 14.840 L 22.980 14.540 22.980 10.980 L 22.980 7.420 22.868 7.060 C 22.732 6.627,22.505 6.192,22.241 5.863 C 21.921 5.464,18.162 1.748,17.920 1.592 C 17.584 1.376,17.319 1.252,16.932 1.131 L 16.580 1.021 13.140 1.014 C 11.248 1.011,9.609 1.023,9.499 1.042 M18.800 5.220 L 20.580 7.000 18.790 7.000 L 17.000 7.000 17.000 5.220 C 17.000 4.241,17.005 3.440,17.010 3.440 C 17.016 3.440,17.821 4.241,18.800 5.220 M3.499 7.042 C 2.377 7.235,1.461 8.048,1.114 9.160 L 1.020 9.460 1.020 15.000 L 1.020 20.540 1.114 20.840 C 1.422 21.827,2.173 22.578,3.160 22.886 L 3.460 22.980 9.000 22.980 L 14.540 22.980 14.840 22.886 C 15.827 22.578,16.578 21.827,16.886 20.840 L 16.980 20.540 16.980 16.980 L 16.980 13.420 16.868 13.060 C 16.732 12.627,16.505 12.192,16.241 11.863 C 15.921 11.464,12.162 7.748,11.920 7.592 C 11.584 7.376,11.319 7.252,10.932 7.131 L 10.580 7.021 7.140 7.014 C 5.248 7.011,3.609 7.023,3.499 7.042 M9.000 11.132 C 9.000 13.443,9.004 13.494,9.225 13.930 C 9.361 14.199,9.801 14.639,10.070 14.775 C 10.506 14.996,10.557 15.000,12.868 15.000 L 15.000 15.000 15.000 17.554 C 15.000 20.325,15.000 20.328,14.779 20.618 C 14.718 20.698,14.585 20.813,14.484 20.872 L 14.300 20.980 9.000 20.980 L 3.700 20.980 3.516 20.872 C 3.415 20.813,3.284 20.700,3.225 20.623 C 2.988 20.312,3.000 20.608,3.000 15.022 C 3.000 9.240,2.979 9.627,3.304 9.303 C 3.609 8.997,3.520 9.006,6.430 9.003 L 9.000 9.000 9.000 11.132 M12.800 11.220 L 14.580 13.000 12.790 13.000 L 11.000 13.000 11.000 11.220 C 11.000 10.241,11.005 9.440,11.010 9.440 C 11.016 9.440,11.821 10.241,12.800 11.220 " stroke="none" fill-rule="evenodd" fill="#000000"></path></svg>