<svg  xmlns="http://www.w3.org/2000/svg" width="24" height="24" viewBox="0 0 24 24" fill="none" stroke="currentColor" stroke-width="2" stroke-linecap="round" stroke-linejoin="round"><path d="M6.898 5.056 C 6.423 5.171,6.398 5.192,4.457 7.135 C 3.391 8.201,2.508 9.120,2.364 9.311 C 1.273 10.760,0.815 12.536,1.078 14.300 C 1.295 15.759,1.919 17.000,2.960 18.040 C 4.000 19.081,5.241 19.705,6.700 19.922 C 8.466 20.185,10.240 19.726,11.697 18.630 C 11.888 18.486,13.178 17.233,14.860 15.557 L 17.700 12.726 18.060 12.851 C 18.395 12.967,18.460 12.976,18.980 12.978 C 19.459 12.980,19.583 12.966,19.840 12.886 C 20.827 12.578,21.578 11.827,21.886 10.840 C 21.966 10.583,21.980 10.459,21.978 9.980 C 21.976 9.460,21.967 9.394,21.851 9.060 L 21.727 8.700 22.278 8.140 C 22.582 7.832,22.863 7.517,22.904 7.440 C 22.957 7.340,22.979 7.214,22.979 7.000 C 22.980 6.745,22.964 6.672,22.872 6.516 C 22.740 6.293,22.533 6.128,22.290 6.055 C 22.055 5.984,21.943 5.986,21.682 6.063 C 21.494 6.119,21.401 6.193,20.884 6.700 L 20.300 7.273 20.017 7.178 C 18.351 6.619,16.635 7.490,16.114 9.160 C 16.034 9.417,16.020 9.541,16.022 10.020 C 16.024 10.541,16.033 10.605,16.149 10.940 L 16.274 11.300 13.527 14.053 C 11.829 15.755,10.650 16.904,10.440 17.063 C 8.810 18.300,6.525 18.305,4.881 17.077 C 3.149 15.782,2.536 13.466,3.399 11.477 C 3.708 10.765,3.888 10.546,5.497 8.928 L 6.980 7.436 7.000 8.871 L 7.020 10.306 7.141 10.503 C 7.543 11.156,8.457 11.156,8.859 10.503 L 8.980 10.306 8.980 8.303 L 8.980 6.300 8.852 6.030 C 8.492 5.269,7.682 4.865,6.898 5.056 M19.310 9.061 C 19.688 9.173,20.000 9.598,20.000 10.001 C 20.000 10.331,19.784 10.696,19.484 10.872 C 19.328 10.964,19.255 10.980,19.000 10.979 C 18.654 10.978,18.519 10.921,18.281 10.676 C 17.905 10.289,17.915 9.691,18.304 9.303 C 18.583 9.024,18.916 8.944,19.310 9.061 " stroke="none" fill-rule="evenodd" fill="#000000"></path></svg>