<svg  xmlns="http://www.w3.org/2000/svg" width="24" height="24" viewBox="0 0 24 24" fill="none" stroke="currentColor" stroke-width="2" stroke-linecap="round" stroke-linejoin="round"><path d="M5.499 1.043 C 4.379 1.234,3.461 2.048,3.114 3.160 L 3.020 3.460 3.020 12.000 L 3.020 20.540 3.114 20.840 C 3.422 21.827,4.173 22.578,5.160 22.886 L 5.460 22.980 12.000 22.980 L 18.540 22.980 18.840 22.886 C 19.827 22.578,20.578 21.827,20.886 20.840 L 20.980 20.540 20.980 13.980 L 20.980 7.420 20.868 7.060 C 20.728 6.613,20.498 6.179,20.219 5.840 C 19.855 5.397,16.159 1.747,15.910 1.585 C 15.591 1.378,15.236 1.218,14.860 1.111 L 14.540 1.021 10.120 1.015 C 7.689 1.011,5.609 1.024,5.499 1.043 M13.000 5.132 C 13.000 7.443,13.004 7.494,13.225 7.930 C 13.361 8.199,13.801 8.639,14.070 8.775 C 14.506 8.996,14.557 9.000,16.868 9.000 L 19.000 9.000 19.000 14.554 C 19.000 19.144,18.990 20.139,18.945 20.290 C 18.872 20.533,18.707 20.740,18.484 20.872 L 18.300 20.980 12.000 20.980 L 5.700 20.980 5.516 20.872 C 5.415 20.813,5.284 20.700,5.225 20.623 C 4.985 20.308,5.000 20.888,5.000 12.022 C 5.000 2.888,4.974 3.632,5.304 3.303 C 5.615 2.991,5.409 3.006,9.430 3.003 L 13.000 3.000 13.000 5.132 M16.800 5.220 L 18.580 7.000 16.790 7.000 L 15.000 7.000 15.000 5.220 C 15.000 4.241,15.005 3.440,15.010 3.440 C 15.016 3.440,15.821 4.241,16.800 5.220 M15.640 12.069 C 15.489 12.121,15.224 12.366,13.979 13.605 L 12.498 15.079 11.819 14.398 C 11.045 13.623,10.890 13.519,10.502 13.521 C 10.073 13.522,10.025 13.559,8.567 15.012 C 7.834 15.742,7.189 16.416,7.134 16.508 C 6.862 16.968,7.032 17.587,7.508 17.867 C 7.673 17.964,7.742 17.980,8.000 17.979 C 8.213 17.979,8.341 17.957,8.440 17.905 C 8.517 17.864,9.012 17.401,9.541 16.876 L 10.502 15.921 11.141 16.563 C 11.492 16.917,11.853 17.257,11.943 17.320 C 12.255 17.539,12.743 17.539,13.055 17.321 C 13.302 17.149,16.820 13.602,16.905 13.440 C 16.957 13.341,16.979 13.212,16.979 13.000 C 16.980 12.745,16.964 12.672,16.872 12.516 C 16.617 12.083,16.120 11.902,15.640 12.069 " stroke="none" fill-rule="evenodd" fill="#000000"></path></svg>