<svg  xmlns="http://www.w3.org/2000/svg" width="24" height="24" viewBox="0 0 24 24" fill="none" stroke="currentColor" stroke-width="2" stroke-linecap="round" stroke-linejoin="round"><path d="M11.695 1.057 C 11.466 1.129,11.256 1.299,11.128 1.516 L 11.020 1.700 11.009 4.637 L 10.998 7.574 9.769 6.353 C 8.688 5.279,8.516 5.124,8.343 5.066 C 7.863 4.905,7.382 5.084,7.128 5.516 C 7.036 5.672,7.020 5.745,7.021 6.000 C 7.021 6.212,7.043 6.341,7.095 6.440 C 7.135 6.517,8.116 7.531,9.274 8.694 C 11.567 10.996,11.571 10.999,12.000 10.999 C 12.429 10.999,12.433 10.996,14.726 8.694 C 15.884 7.531,16.865 6.517,16.905 6.440 C 16.957 6.341,16.979 6.212,16.979 6.000 C 16.980 5.745,16.964 5.672,16.872 5.516 C 16.618 5.084,16.137 4.905,15.657 5.066 C 15.484 5.124,15.312 5.279,14.231 6.353 L 13.002 7.574 12.991 4.637 L 12.980 1.700 12.872 1.516 C 12.628 1.101,12.150 0.915,11.695 1.057 M8.915 13.043 C 8.351 13.103,7.803 13.282,7.307 13.569 C 7.157 13.656,6.761 13.933,6.427 14.185 C 6.093 14.436,5.712 14.696,5.580 14.761 C 4.965 15.066,4.045 15.076,3.433 14.784 C 3.316 14.727,3.103 14.590,2.960 14.479 C 2.370 14.018,2.179 13.947,1.778 14.037 C 1.002 14.211,0.743 15.159,1.319 15.718 C 1.565 15.958,2.199 16.407,2.500 16.556 C 3.850 17.224,5.688 17.124,6.885 16.318 C 7.025 16.223,7.387 15.961,7.690 15.734 C 8.543 15.095,8.736 15.021,9.540 15.024 C 10.324 15.027,10.500 15.100,11.400 15.801 C 11.675 16.015,12.028 16.272,12.185 16.373 C 13.508 17.227,15.572 17.203,16.885 16.318 C 17.025 16.223,17.387 15.961,17.690 15.734 C 18.543 15.095,18.736 15.021,19.540 15.024 C 20.283 15.026,20.501 15.109,21.230 15.665 C 21.675 16.004,21.946 16.072,22.322 15.939 C 22.953 15.717,23.186 15.008,22.818 14.434 C 22.681 14.221,21.923 13.666,21.460 13.439 C 20.981 13.205,20.579 13.096,19.976 13.034 C 19.135 12.949,18.230 13.100,17.555 13.438 C 17.197 13.617,16.955 13.779,16.300 14.278 C 16.036 14.479,15.712 14.697,15.580 14.762 C 14.964 15.066,14.044 15.076,13.433 14.784 C 13.316 14.727,13.103 14.591,12.960 14.480 C 12.046 13.772,11.822 13.616,11.460 13.439 C 10.708 13.071,9.874 12.941,8.915 13.043 M8.915 19.043 C 8.351 19.103,7.803 19.282,7.307 19.569 C 7.157 19.656,6.761 19.933,6.427 20.185 C 6.093 20.436,5.712 20.696,5.580 20.761 C 4.965 21.066,4.045 21.076,3.433 20.784 C 3.316 20.727,3.103 20.590,2.960 20.479 C 2.370 20.018,2.179 19.947,1.778 20.037 C 1.002 20.211,0.743 21.159,1.319 21.718 C 1.565 21.958,2.199 22.407,2.500 22.556 C 3.850 23.224,5.688 23.124,6.885 22.318 C 7.025 22.223,7.387 21.961,7.690 21.734 C 8.543 21.095,8.736 21.021,9.540 21.024 C 10.324 21.027,10.500 21.100,11.400 21.801 C 11.675 22.015,12.028 22.272,12.185 22.373 C 13.508 23.227,15.572 23.203,16.885 22.318 C 17.025 22.223,17.387 21.961,17.690 21.734 C 18.543 21.095,18.736 21.021,19.540 21.024 C 20.283 21.026,20.501 21.109,21.230 21.665 C 21.675 22.004,21.946 22.072,22.322 21.939 C 22.953 21.717,23.186 21.008,22.818 20.434 C 22.681 20.221,21.923 19.666,21.460 19.439 C 20.981 19.205,20.579 19.096,19.976 19.034 C 19.135 18.949,18.230 19.100,17.555 19.438 C 17.197 19.617,16.955 19.779,16.300 20.278 C 16.036 20.479,15.712 20.697,15.580 20.762 C 14.964 21.066,14.044 21.076,13.433 20.784 C 13.316 20.727,13.103 20.591,12.960 20.480 C 12.046 19.772,11.822 19.616,11.460 19.439 C 10.708 19.071,9.874 18.941,8.915 19.043 " stroke="none" fill-rule="evenodd" fill="#000000"></path></svg>