<svg  xmlns="http://www.w3.org/2000/svg" width="24" height="24" viewBox="0 0 24 24" fill="none" stroke="currentColor" stroke-width="2" stroke-linecap="round" stroke-linejoin="round"><path d="M5.499 1.042 C 4.388 1.232,3.488 2.024,3.114 3.140 L 3.020 3.420 3.009 8.460 C 2.996 14.085,2.977 13.681,3.276 14.013 C 3.464 14.221,3.708 14.328,3.997 14.328 C 4.405 14.328,4.724 14.122,4.905 13.740 L 4.999 13.540 5.000 8.717 C 5.000 3.276,4.980 3.626,5.303 3.303 C 5.621 2.986,5.423 3.000,9.447 3.000 L 13.000 3.000 13.000 5.132 C 13.000 7.443,13.004 7.494,13.225 7.930 C 13.361 8.199,13.801 8.639,14.070 8.775 C 14.506 8.996,14.557 9.000,16.868 9.000 L 19.000 9.000 19.000 14.554 C 19.000 19.144,18.990 20.139,18.945 20.290 C 18.872 20.533,18.707 20.740,18.484 20.872 L 18.300 20.980 15.340 21.000 C 12.401 21.020,12.379 21.021,12.220 21.106 C 11.866 21.298,11.672 21.615,11.672 22.003 C 11.672 22.292,11.779 22.536,11.987 22.724 C 12.313 23.017,12.145 23.005,15.540 22.991 L 18.580 22.979 18.860 22.886 C 19.849 22.555,20.582 21.816,20.886 20.840 L 20.980 20.540 20.980 13.980 L 20.980 7.420 20.868 7.060 C 20.732 6.627,20.505 6.192,20.241 5.863 C 19.921 5.464,16.162 1.748,15.920 1.592 C 15.585 1.376,15.319 1.252,14.932 1.131 L 14.580 1.020 10.140 1.014 C 7.698 1.011,5.609 1.024,5.499 1.042 M16.800 5.220 L 18.580 7.000 16.790 7.000 L 15.000 7.000 15.000 5.220 C 15.000 4.241,15.005 3.440,15.010 3.440 C 15.016 3.440,15.821 4.241,16.800 5.220 M11.279 11.062 C 10.910 11.128,10.497 11.293,10.179 11.499 C 10.023 11.600,8.986 12.607,7.193 14.397 C 4.346 17.241,4.208 17.394,4.001 17.917 C 3.956 18.031,3.717 18.812,3.470 19.652 C 3.052 21.072,3.020 21.204,3.020 21.520 C 3.020 21.817,3.036 21.893,3.144 22.120 C 3.387 22.631,3.864 22.957,4.416 22.989 C 4.684 23.005,4.793 22.979,6.300 22.540 C 8.125 22.009,8.446 21.878,8.920 21.468 C 9.498 20.968,14.341 16.069,14.500 15.823 C 15.161 14.802,15.162 13.420,14.502 12.426 C 13.795 11.360,12.547 10.832,11.279 11.062 M12.355 13.118 C 12.594 13.239,12.733 13.374,12.860 13.607 C 13.019 13.896,13.029 14.324,12.885 14.606 C 12.767 14.836,7.565 20.050,7.380 20.123 C 7.215 20.188,5.265 20.759,5.252 20.745 C 5.239 20.733,5.811 18.788,5.877 18.620 C 5.941 18.456,11.132 13.260,11.340 13.151 C 11.428 13.105,11.554 13.053,11.620 13.035 C 11.803 12.987,12.183 13.030,12.355 13.118 " stroke="none" fill-rule="evenodd" fill="#000000"></path></svg>