<svg  xmlns="http://www.w3.org/2000/svg" width="24" height="24" viewBox="0 0 24 24" fill="none" stroke="currentColor" stroke-width="2" stroke-linecap="round" stroke-linejoin="round"><path d="M11.100 1.041 C 10.231 1.113,9.183 1.334,8.372 1.617 C 5.650 2.568,3.337 4.634,2.097 7.220 C 0.707 10.118,0.638 13.376,1.904 16.363 C 2.062 16.735,2.120 16.922,2.120 17.059 C 2.120 17.190,1.957 17.750,1.575 18.930 C 1.200 20.087,1.023 20.694,1.009 20.866 C 0.964 21.429,1.176 21.984,1.596 22.403 C 1.884 22.690,2.152 22.840,2.560 22.944 C 3.020 23.061,3.235 23.020,5.140 22.457 C 6.463 22.066,6.911 21.948,7.081 21.950 C 7.250 21.951,7.399 21.993,7.721 22.131 C 10.133 23.160,12.869 23.276,15.404 22.457 C 16.987 21.945,18.404 21.092,19.608 19.927 C 20.267 19.289,20.668 18.810,21.141 18.100 C 22.093 16.671,22.648 15.211,22.907 13.460 C 23.006 12.792,23.005 11.217,22.906 10.540 C 22.623 8.605,21.923 6.902,20.789 5.387 C 20.368 4.826,19.316 3.750,18.800 3.354 C 17.168 2.103,15.404 1.364,13.415 1.099 C 12.831 1.022,11.691 0.993,11.100 1.041 M13.260 3.097 C 15.238 3.388,16.979 4.259,18.374 5.655 C 19.772 7.055,20.659 8.873,20.924 10.880 C 20.989 11.376,20.989 12.637,20.924 13.120 C 20.648 15.160,19.779 16.932,18.354 18.357 C 17.305 19.407,16.089 20.143,14.680 20.581 C 13.804 20.853,13.178 20.957,12.240 20.988 C 10.969 21.029,9.724 20.796,8.522 20.293 C 7.979 20.066,7.769 20.004,7.380 19.958 C 6.863 19.898,6.559 19.959,4.740 20.492 C 3.816 20.763,3.054 20.970,3.047 20.952 C 3.039 20.935,3.273 20.186,3.565 19.290 L 4.097 17.660 4.098 17.080 C 4.100 16.431,4.094 16.403,3.752 15.582 C 3.229 14.326,3.025 13.319,3.025 12.000 C 3.025 11.014,3.118 10.349,3.386 9.420 C 4.322 6.181,7.223 3.633,10.560 3.120 C 11.399 2.992,12.480 2.982,13.260 3.097 M11.695 7.057 C 11.466 7.129,11.256 7.299,11.128 7.516 L 11.020 7.700 11.008 9.350 L 10.997 11.000 9.445 11.000 C 7.758 11.000,7.658 11.011,7.382 11.221 C 7.302 11.282,7.187 11.415,7.128 11.516 C 7.037 11.672,7.020 11.746,7.020 12.000 C 7.020 12.256,7.036 12.328,7.131 12.489 C 7.192 12.592,7.304 12.725,7.381 12.783 C 7.654 12.991,7.700 12.996,9.408 12.998 L 10.997 13.000 11.008 14.653 L 11.020 16.306 11.141 16.503 C 11.209 16.613,11.346 16.756,11.452 16.828 C 11.923 17.144,12.554 16.999,12.859 16.503 L 12.980 16.306 12.992 14.653 L 13.003 13.000 14.592 12.998 C 16.300 12.996,16.346 12.991,16.619 12.783 C 16.696 12.725,16.808 12.592,16.869 12.489 C 16.964 12.328,16.980 12.256,16.980 12.000 C 16.980 11.746,16.963 11.672,16.872 11.516 C 16.813 11.415,16.698 11.282,16.618 11.221 C 16.342 11.011,16.242 11.000,14.555 11.000 L 13.003 11.000 12.992 9.350 L 12.980 7.700 12.872 7.516 C 12.628 7.101,12.150 6.915,11.695 7.057 " stroke="none" fill-rule="evenodd" fill="#000000"></path></svg>