<svg  xmlns="http://www.w3.org/2000/svg" width="24" height="24" viewBox="0 0 24 24" fill="none" stroke="currentColor" stroke-width="2" stroke-linecap="round" stroke-linejoin="round"><path d="M8.477 1.073 C 7.806 1.249,7.238 1.823,7.060 2.508 C 7.027 2.634,7.000 2.794,7.000 2.864 L 7.000 2.991 6.230 3.010 C 5.567 3.027,5.416 3.043,5.139 3.126 C 4.181 3.415,3.420 4.179,3.114 5.160 L 3.020 5.460 3.020 13.000 L 3.020 20.540 3.114 20.840 C 3.422 21.827,4.173 22.578,5.160 22.886 L 5.460 22.980 12.000 22.980 L 18.540 22.980 18.840 22.886 C 19.818 22.581,20.574 21.830,20.880 20.860 C 20.949 20.642,20.973 20.445,20.990 19.970 C 21.014 19.270,20.976 19.107,20.724 18.828 C 20.530 18.612,20.319 18.522,20.009 18.521 C 19.581 18.519,19.280 18.710,19.095 19.100 C 19.015 19.269,19.001 19.363,19.000 19.704 C 19.000 20.339,18.863 20.649,18.484 20.872 L 18.300 20.980 12.000 20.980 L 5.700 20.980 5.516 20.872 C 5.415 20.813,5.284 20.700,5.225 20.623 C 4.986 20.309,5.000 20.795,5.000 13.022 C 5.000 5.006,4.975 5.631,5.303 5.303 C 5.554 5.052,5.751 5.000,6.447 5.000 L 7.000 5.000 7.000 5.132 C 7.000 5.323,7.104 5.690,7.225 5.930 C 7.361 6.199,7.801 6.639,8.070 6.775 C 8.522 7.004,8.454 7.000,11.993 7.000 C 15.539 7.000,15.479 7.003,15.937 6.771 C 16.197 6.639,16.639 6.197,16.771 5.937 C 16.888 5.707,17.000 5.309,17.000 5.124 L 17.000 5.000 17.550 5.000 C 17.852 5.000,18.172 5.020,18.260 5.044 C 18.495 5.107,18.697 5.260,18.863 5.502 C 19.265 6.085,19.960 6.165,20.440 5.683 C 20.642 5.480,20.720 5.282,20.720 4.972 C 20.720 4.450,20.091 3.706,19.340 3.337 C 18.808 3.076,18.610 3.035,17.758 3.011 L 17.016 2.990 16.968 2.687 C 16.942 2.520,16.869 2.275,16.806 2.141 C 16.665 1.839,16.321 1.464,16.017 1.281 C 15.548 0.999,15.636 1.005,12.000 1.005 C 9.047 1.005,8.715 1.011,8.477 1.073 M15.000 4.000 L 15.000 5.000 12.000 5.000 L 9.000 5.000 9.000 4.000 L 9.000 3.000 12.000 3.000 L 15.000 3.000 15.000 4.000 M19.330 8.044 C 18.849 8.124,18.379 8.336,17.960 8.662 C 17.648 8.905,13.477 13.102,13.329 13.323 C 13.066 13.715,12.947 14.038,12.478 15.642 C 12.011 17.240,11.994 17.311,12.014 17.590 C 12.052 18.135,12.371 18.602,12.875 18.850 C 13.110 18.966,13.174 18.980,13.479 18.979 C 13.794 18.977,13.937 18.943,15.360 18.525 C 17.121 18.008,17.454 17.871,17.920 17.468 C 18.485 16.980,22.340 13.070,22.500 12.823 C 23.161 11.803,23.162 10.420,22.502 9.426 C 22.165 8.918,21.594 8.449,21.039 8.223 C 20.561 8.028,19.864 7.955,19.330 8.044 M20.353 10.116 C 20.594 10.239,20.733 10.374,20.860 10.607 C 21.018 10.896,21.029 11.324,20.885 11.605 C 20.767 11.836,16.563 16.051,16.380 16.122 C 16.221 16.184,14.265 16.759,14.254 16.747 C 14.230 16.723,14.838 14.719,14.911 14.580 C 14.997 14.416,19.127 10.270,19.325 10.149 C 19.595 9.984,20.064 9.969,20.353 10.116 M7.695 17.057 C 7.466 17.129,7.256 17.299,7.128 17.516 C 7.037 17.672,7.020 17.746,7.020 18.000 C 7.020 18.256,7.036 18.328,7.131 18.489 C 7.256 18.702,7.449 18.864,7.670 18.943 C 7.878 19.017,9.122 19.017,9.330 18.943 C 9.551 18.864,9.744 18.702,9.869 18.489 C 9.964 18.328,9.980 18.256,9.980 18.000 C 9.980 17.746,9.963 17.672,9.872 17.516 C 9.740 17.293,9.533 17.128,9.290 17.055 C 9.050 16.983,7.928 16.984,7.695 17.057 " stroke="none" fill-rule="evenodd" fill="#000000"></path></svg>