<svg  xmlns="http://www.w3.org/2000/svg" width="24" height="24" viewBox="0 0 24 24" fill="none" stroke="currentColor" stroke-width="2" stroke-linecap="round" stroke-linejoin="round"><path d="M13.695 2.057 C 13.466 2.129,13.256 2.299,13.128 2.516 L 13.020 2.700 13.020 5.003 L 13.020 7.306 13.141 7.503 C 13.543 8.156,14.457 8.156,14.859 7.503 C 14.979 7.308,14.980 7.300,14.993 6.653 L 15.007 6.000 18.093 5.998 C 20.567 5.997,21.210 5.986,21.330 5.943 C 21.551 5.864,21.744 5.702,21.869 5.489 C 21.964 5.328,21.980 5.256,21.980 5.000 C 21.980 4.746,21.963 4.672,21.872 4.516 C 21.813 4.415,21.698 4.282,21.618 4.221 C 21.325 3.997,21.367 4.000,18.057 4.000 L 15.007 4.000 14.993 3.350 C 14.981 2.728,14.975 2.692,14.872 2.516 C 14.628 2.101,14.150 1.915,13.695 2.057 M2.695 4.057 C 2.466 4.129,2.256 4.299,2.128 4.516 C 2.037 4.672,2.020 4.746,2.020 5.000 C 2.020 5.256,2.036 5.328,2.131 5.489 C 2.256 5.702,2.449 5.864,2.670 5.943 C 2.891 6.022,10.109 6.022,10.330 5.943 C 10.551 5.864,10.744 5.702,10.869 5.489 C 10.964 5.328,10.980 5.256,10.980 5.000 C 10.980 4.746,10.963 4.672,10.872 4.516 C 10.740 4.293,10.533 4.128,10.290 4.055 C 10.030 3.977,2.945 3.979,2.695 4.057 M7.695 9.057 C 7.466 9.129,7.256 9.299,7.128 9.516 C 7.025 9.692,7.019 9.728,7.007 10.350 L 6.993 11.000 4.943 11.000 C 2.718 11.000,2.666 11.004,2.382 11.221 C 2.302 11.282,2.187 11.415,2.128 11.516 C 2.037 11.672,2.020 11.746,2.020 12.000 C 2.020 12.256,2.036 12.328,2.131 12.489 C 2.256 12.702,2.449 12.864,2.670 12.943 C 2.788 12.985,3.268 12.997,4.907 12.998 L 6.993 13.000 7.007 13.653 C 7.020 14.300,7.021 14.308,7.141 14.503 C 7.543 15.156,8.457 15.156,8.859 14.503 L 8.980 14.306 8.980 12.003 L 8.980 9.700 8.872 9.516 C 8.628 9.101,8.150 8.915,7.695 9.057 M11.695 11.057 C 11.466 11.129,11.256 11.299,11.128 11.516 C 11.037 11.672,11.020 11.746,11.020 12.000 C 11.020 12.256,11.036 12.328,11.131 12.489 C 11.256 12.702,11.449 12.864,11.670 12.943 C 11.892 13.022,21.108 13.022,21.330 12.943 C 21.551 12.864,21.744 12.702,21.869 12.489 C 21.964 12.328,21.980 12.256,21.980 12.000 C 21.980 11.746,21.963 11.672,21.872 11.516 C 21.740 11.293,21.533 11.128,21.290 11.055 C 21.029 10.976,11.946 10.978,11.695 11.057 M15.695 16.057 C 15.466 16.129,15.256 16.299,15.128 16.516 L 15.020 16.700 15.020 19.003 L 15.020 21.306 15.141 21.503 C 15.543 22.156,16.457 22.156,16.859 21.503 C 16.979 21.308,16.980 21.300,16.993 20.653 L 17.007 20.000 19.093 19.998 C 20.732 19.997,21.212 19.985,21.330 19.943 C 21.551 19.864,21.744 19.702,21.869 19.489 C 21.964 19.328,21.980 19.256,21.980 19.000 C 21.980 18.746,21.963 18.672,21.872 18.516 C 21.813 18.415,21.698 18.282,21.618 18.221 C 21.334 18.004,21.282 18.000,19.057 18.000 L 17.007 18.000 16.993 17.350 C 16.981 16.728,16.975 16.692,16.872 16.516 C 16.628 16.101,16.150 15.915,15.695 16.057 M2.695 18.057 C 2.466 18.129,2.256 18.299,2.128 18.516 C 2.037 18.672,2.020 18.746,2.020 19.000 C 2.020 19.256,2.036 19.328,2.131 19.489 C 2.256 19.702,2.449 19.864,2.670 19.943 C 2.892 20.022,12.108 20.022,12.330 19.943 C 12.551 19.864,12.744 19.702,12.869 19.489 C 12.964 19.328,12.980 19.256,12.980 19.000 C 12.980 18.746,12.963 18.672,12.872 18.516 C 12.740 18.293,12.533 18.128,12.290 18.055 C 12.029 17.976,2.946 17.978,2.695 18.057 " stroke="none" fill-rule="evenodd" fill="#000000"></path></svg>