<svg  xmlns="http://www.w3.org/2000/svg" width="24" height="24" viewBox="0 0 24 24" fill="none" stroke="currentColor" stroke-width="2" stroke-linecap="round" stroke-linejoin="round"><path d="M11.340 1.024 C 10.026 1.160,9.091 1.415,8.060 1.918 C 6.244 2.804,4.840 4.202,3.939 6.020 C 2.688 8.542,2.688 11.458,3.939 13.980 C 4.404 14.918,4.897 15.609,5.621 16.337 C 7.079 17.801,8.933 18.700,10.992 18.941 C 11.398 18.988,12.106 19.000,14.539 19.000 L 17.578 19.000 16.374 20.210 C 15.711 20.875,15.138 21.481,15.101 21.555 C 14.872 22.009,15.056 22.601,15.508 22.867 C 15.673 22.964,15.742 22.980,16.000 22.979 C 16.212 22.979,16.341 22.957,16.440 22.905 C 16.517 22.865,17.531 21.884,18.694 20.726 C 20.996 18.433,20.999 18.429,20.999 18.000 C 20.999 17.569,20.999 17.569,18.674 15.255 C 16.750 13.340,16.521 13.124,16.343 13.065 C 15.862 12.906,15.382 13.084,15.128 13.516 C 15.036 13.672,15.020 13.745,15.021 14.000 C 15.021 14.213,15.043 14.341,15.095 14.440 C 15.136 14.517,15.711 15.125,16.374 15.792 L 17.580 17.004 14.380 16.988 C 10.969 16.971,11.027 16.974,10.214 16.764 C 7.531 16.073,5.474 13.757,5.076 10.980 C 5.010 10.517,5.010 9.438,5.077 9.000 C 5.548 5.902,7.943 3.515,11.020 3.076 C 11.783 2.967,12.907 3.022,13.660 3.205 C 16.172 3.815,18.190 5.834,18.794 8.340 C 18.897 8.765,18.916 8.905,18.979 9.673 C 19.028 10.274,19.041 10.340,19.147 10.513 C 19.542 11.154,20.460 11.151,20.856 10.508 C 20.956 10.345,20.977 10.263,20.992 9.980 C 21.030 9.255,20.843 8.094,20.538 7.169 C 19.485 3.966,16.680 1.608,13.320 1.101 C 12.911 1.039,11.662 0.991,11.340 1.024 " stroke="none" fill-rule="evenodd" fill="#000000"></path></svg>