<svg  xmlns="http://www.w3.org/2000/svg" width="24" height="24" viewBox="0 0 24 24" fill="none" stroke="currentColor" stroke-width="2" stroke-linecap="round" stroke-linejoin="round"><path d="M11.980 1.043 C 10.875 1.154,9.742 1.433,8.814 1.821 C 5.219 3.328,2.732 6.492,2.118 10.342 C 2.010 11.017,1.972 12.249,2.037 12.944 C 2.128 13.919,2.421 15.208,2.657 15.673 C 2.884 16.122,3.388 16.513,3.900 16.638 C 4.221 16.717,4.632 16.698,4.945 16.592 C 5.122 16.531,6.431 15.798,8.625 14.529 C 10.498 13.447,12.056 12.551,12.086 12.540 C 12.126 12.524,12.753 13.576,14.281 16.222 C 15.458 18.259,16.426 19.942,16.433 19.963 C 16.442 19.986,13.847 20.000,9.670 20.000 C 4.043 20.000,2.862 20.009,2.710 20.055 C 2.467 20.128,2.260 20.293,2.128 20.516 C 2.037 20.672,2.020 20.746,2.020 21.000 C 2.020 21.256,2.036 21.328,2.131 21.489 C 2.256 21.702,2.449 21.864,2.670 21.943 C 2.893 22.023,21.107 22.023,21.330 21.943 C 21.551 21.864,21.744 21.702,21.869 21.489 C 21.964 21.328,21.980 21.256,21.980 21.000 C 21.980 20.746,21.963 20.672,21.872 20.516 C 21.813 20.415,21.698 20.282,21.618 20.221 C 21.352 20.019,21.211 20.000,19.941 20.000 L 18.775 20.000 16.325 15.756 C 14.977 13.422,13.883 11.504,13.893 11.494 C 13.903 11.484,15.465 10.579,17.365 9.484 C 20.306 7.788,20.856 7.457,21.064 7.256 C 21.443 6.891,21.640 6.426,21.640 5.903 C 21.638 5.281,21.469 4.946,20.825 4.287 C 18.726 2.141,15.905 0.979,12.860 1.006 C 12.552 1.008,12.156 1.025,11.980 1.043 M13.848 3.042 C 15.707 3.233,17.457 3.977,18.854 5.171 C 19.239 5.500,19.588 5.866,19.551 5.902 C 19.536 5.917,15.578 8.207,12.780 9.819 C 12.274 10.110,10.187 11.315,8.143 12.496 C 5.419 14.069,4.418 14.629,4.394 14.591 C 4.345 14.512,4.168 13.741,4.092 13.277 C 3.995 12.681,3.998 11.256,4.096 10.680 C 4.277 9.625,4.499 8.919,4.919 8.060 C 5.825 6.207,7.258 4.779,9.098 3.897 C 10.125 3.404,11.102 3.140,12.320 3.026 C 12.654 2.995,13.469 3.003,13.848 3.042 " stroke="none" fill-rule="evenodd" fill="#000000"></path></svg>