<svg  xmlns="http://www.w3.org/2000/svg" width="24" height="24" viewBox="0 0 24 24" fill="none" stroke="currentColor" stroke-width="2" stroke-linecap="round" stroke-linejoin="round"><path d="M1.670 1.061 C 1.448 1.142,1.250 1.309,1.128 1.516 C 1.037 1.672,1.020 1.746,1.020 2.000 C 1.020 2.254,1.036 2.327,1.127 2.480 C 1.187 2.579,2.212 3.636,3.415 4.837 L 5.595 7.014 5.236 7.105 C 4.251 7.354,3.451 8.122,3.116 9.140 C 3.026 9.413,3.023 9.467,3.009 11.210 L 2.995 13.000 2.444 13.000 C 1.648 13.000,1.366 13.111,1.128 13.516 C 1.037 13.672,1.020 13.746,1.020 14.000 C 1.020 14.256,1.036 14.328,1.131 14.489 C 1.256 14.702,1.449 14.864,1.670 14.943 C 1.768 14.978,2.022 14.997,2.407 14.998 L 2.995 15.000 3.009 16.790 C 3.023 18.533,3.026 18.587,3.116 18.860 C 3.440 19.845,4.183 20.581,5.160 20.886 L 5.460 20.980 12.020 20.980 L 18.580 20.980 18.940 20.853 L 19.300 20.726 20.360 21.779 C 20.943 22.357,21.483 22.864,21.560 22.905 C 21.659 22.957,21.787 22.979,22.000 22.979 C 22.258 22.980,22.327 22.964,22.492 22.867 C 22.968 22.587,23.139 21.967,22.865 21.508 C 22.810 21.416,18.215 16.793,12.653 11.235 C 3.300 1.889,2.525 1.125,2.343 1.065 C 2.107 0.987,1.874 0.986,1.670 1.061 M9.400 3.037 C 8.535 3.300,8.423 4.463,9.220 4.894 C 9.366 4.972,9.450 4.981,10.187 4.993 L 10.994 5.006 11.007 5.813 C 11.019 6.550,11.028 6.634,11.106 6.780 C 11.288 7.116,11.623 7.318,12.000 7.318 C 12.377 7.318,12.712 7.116,12.894 6.780 C 12.978 6.624,12.980 6.580,12.980 5.160 L 12.980 3.700 12.872 3.516 C 12.813 3.415,12.698 3.282,12.618 3.221 C 12.347 3.015,12.223 3.000,10.804 3.003 C 10.087 3.005,9.455 3.021,9.400 3.037 M13.400 7.036 C 12.534 7.308,12.422 8.463,13.220 8.894 C 13.378 8.979,13.415 8.980,15.820 9.000 C 18.535 9.022,18.406 9.009,18.699 9.301 C 18.991 9.594,18.978 9.465,19.000 12.180 C 19.020 14.585,19.021 14.622,19.106 14.780 C 19.364 15.257,19.936 15.452,20.420 15.226 C 20.530 15.175,20.645 15.103,20.675 15.066 C 20.722 15.009,20.830 15.000,21.455 14.998 C 22.236 14.996,22.373 14.971,22.619 14.783 C 22.696 14.725,22.808 14.592,22.869 14.489 C 22.964 14.328,22.980 14.256,22.980 14.000 C 22.980 13.746,22.963 13.672,22.872 13.516 C 22.634 13.111,22.352 13.000,21.556 13.000 L 21.005 13.000 20.991 11.210 C 20.977 9.467,20.974 9.413,20.884 9.140 C 20.562 8.163,19.819 7.422,18.861 7.122 L 18.540 7.022 16.020 7.013 C 14.634 7.009,13.455 7.019,13.400 7.036 M12.580 14.000 L 17.580 19.001 11.640 18.990 L 5.700 18.980 5.516 18.872 C 5.415 18.813,5.284 18.700,5.225 18.623 C 4.990 18.315,5.000 18.515,5.000 14.022 C 5.000 9.356,4.983 9.624,5.304 9.303 C 5.573 9.033,5.701 9.006,6.720 9.003 L 7.580 9.000 12.580 14.000 M8.695 12.057 C 8.466 12.129,8.256 12.299,8.128 12.516 L 8.020 12.700 8.020 14.003 L 8.020 15.306 8.141 15.503 C 8.543 16.156,9.457 16.156,9.859 15.503 L 9.980 15.306 9.980 14.003 L 9.980 12.700 9.872 12.516 C 9.628 12.101,9.150 11.915,8.695 12.057 " stroke="none" fill-rule="evenodd" fill="#000000"></path></svg>