<svg  xmlns="http://www.w3.org/2000/svg" width="24" height="24" viewBox="0 0 24 24" fill="none" stroke="currentColor" stroke-width="2" stroke-linecap="round" stroke-linejoin="round"><path d="M11.499 2.040 C 10.363 2.246,9.460 3.049,9.114 4.160 C 8.979 4.594,8.979 5.406,9.114 5.840 C 9.421 6.826,10.174 7.579,11.160 7.886 C 11.594 8.021,12.406 8.021,12.840 7.886 C 13.826 7.579,14.579 6.826,14.886 5.840 C 15.021 5.406,15.021 4.594,14.886 4.160 C 14.581 3.179,13.810 2.407,12.861 2.129 C 12.500 2.023,11.832 1.980,11.499 2.040 M12.310 4.061 C 12.688 4.173,13.000 4.598,13.000 5.001 C 13.000 5.331,12.784 5.696,12.484 5.872 C 12.328 5.963,12.254 5.980,12.000 5.980 C 11.746 5.980,11.672 5.963,11.516 5.872 C 10.935 5.530,10.833 4.774,11.304 4.303 C 11.583 4.024,11.916 3.944,12.310 4.061 M7.499 9.040 C 6.363 9.246,5.460 10.049,5.114 11.160 C 4.979 11.594,4.979 12.406,5.114 12.840 C 5.421 13.826,6.174 14.579,7.160 14.886 C 7.594 15.021,8.406 15.021,8.840 14.886 C 9.826 14.579,10.579 13.826,10.886 12.840 C 11.021 12.406,11.021 11.594,10.886 11.160 C 10.581 10.179,9.810 9.407,8.861 9.129 C 8.500 9.023,7.832 8.980,7.499 9.040 M15.499 9.040 C 14.363 9.246,13.460 10.049,13.114 11.160 C 12.979 11.594,12.979 12.406,13.114 12.840 C 13.421 13.826,14.174 14.579,15.160 14.886 C 15.594 15.021,16.406 15.021,16.840 14.886 C 17.826 14.579,18.579 13.826,18.886 12.840 C 19.021 12.406,19.021 11.594,18.886 11.160 C 18.581 10.179,17.810 9.407,16.861 9.129 C 16.500 9.023,15.832 8.980,15.499 9.040 M8.310 11.061 C 8.688 11.173,9.000 11.598,9.000 12.001 C 9.000 12.331,8.784 12.696,8.484 12.872 C 8.328 12.963,8.254 12.980,8.000 12.980 C 7.746 12.980,7.672 12.963,7.516 12.872 C 6.935 12.530,6.833 11.774,7.304 11.303 C 7.583 11.024,7.916 10.944,8.310 11.061 M16.310 11.061 C 16.688 11.173,17.000 11.598,17.000 12.001 C 17.000 12.331,16.784 12.696,16.484 12.872 C 16.328 12.963,16.254 12.980,16.000 12.980 C 15.746 12.980,15.672 12.963,15.516 12.872 C 14.932 12.528,14.831 11.775,15.307 11.299 C 15.582 11.024,15.918 10.944,16.310 11.061 M3.499 16.040 C 2.363 16.246,1.460 17.049,1.114 18.160 C 0.979 18.594,0.979 19.406,1.114 19.840 C 1.421 20.826,2.174 21.579,3.160 21.886 C 3.412 21.964,3.547 21.979,4.000 21.979 C 4.453 21.979,4.588 21.964,4.840 21.886 C 5.826 21.579,6.579 20.826,6.886 19.840 C 7.021 19.406,7.021 18.594,6.886 18.160 C 6.581 17.179,5.810 16.407,4.861 16.129 C 4.500 16.023,3.832 15.980,3.499 16.040 M11.499 16.040 C 10.363 16.246,9.460 17.049,9.114 18.160 C 8.979 18.594,8.979 19.406,9.114 19.840 C 9.421 20.826,10.174 21.579,11.160 21.886 C 11.412 21.964,11.547 21.979,12.000 21.979 C 12.453 21.979,12.588 21.964,12.840 21.886 C 13.826 21.579,14.579 20.826,14.886 19.840 C 15.021 19.406,15.021 18.594,14.886 18.160 C 14.581 17.179,13.810 16.407,12.861 16.129 C 12.500 16.023,11.832 15.980,11.499 16.040 M19.499 16.040 C 18.363 16.246,17.460 17.049,17.114 18.160 C 16.979 18.594,16.979 19.406,17.114 19.840 C 17.421 20.826,18.174 21.579,19.160 21.886 C 19.412 21.964,19.547 21.979,20.000 21.979 C 20.453 21.979,20.588 21.964,20.840 21.886 C 21.826 21.579,22.579 20.826,22.886 19.840 C 23.021 19.406,23.021 18.594,22.886 18.160 C 22.581 17.179,21.810 16.407,20.861 16.129 C 20.500 16.023,19.832 15.980,19.499 16.040 M4.310 18.061 C 4.688 18.173,5.000 18.598,5.000 19.001 C 5.000 19.331,4.784 19.696,4.484 19.872 C 4.328 19.963,4.254 19.980,4.000 19.980 C 3.746 19.980,3.672 19.963,3.516 19.872 C 2.935 19.530,2.833 18.774,3.304 18.303 C 3.583 18.024,3.916 17.944,4.310 18.061 M12.310 18.061 C 12.688 18.173,13.000 18.598,13.000 19.001 C 13.000 19.331,12.784 19.696,12.484 19.872 C 12.328 19.963,12.254 19.980,12.000 19.980 C 11.746 19.980,11.672 19.963,11.516 19.872 C 10.935 19.530,10.833 18.774,11.304 18.303 C 11.583 18.024,11.916 17.944,12.310 18.061 M20.310 18.061 C 20.688 18.173,21.000 18.598,21.000 19.001 C 21.000 19.331,20.784 19.696,20.484 19.872 C 20.328 19.963,20.254 19.980,20.000 19.980 C 19.746 19.980,19.672 19.963,19.516 19.872 C 18.935 19.530,18.833 18.774,19.304 18.303 C 19.583 18.024,19.916 17.944,20.310 18.061 " stroke="none" fill="#000000" fill-rule="evenodd"></path></svg>