<svg  xmlns="http://www.w3.org/2000/svg" width="24" height="24" viewBox="0 0 24 24" fill="none" stroke="currentColor" stroke-width="2" stroke-linecap="round" stroke-linejoin="round"><path d="M4.873 1.063 C 4.147 1.194,3.470 1.562,2.958 2.105 C 2.562 2.524,2.318 2.949,2.130 3.548 L 2.020 3.900 2.020 12.000 L 2.020 20.100 2.130 20.452 C 2.511 21.666,3.336 22.491,4.548 22.869 L 4.900 22.979 8.010 22.991 C 10.070 22.999,11.171 22.989,11.274 22.962 C 11.498 22.901,11.738 22.711,11.867 22.492 C 11.964 22.327,11.980 22.257,11.980 22.000 C 11.980 21.746,11.963 21.672,11.872 21.516 C 11.761 21.328,11.572 21.158,11.373 21.070 C 11.287 21.032,10.526 21.015,8.200 21.000 L 5.140 20.980 4.896 20.867 C 4.586 20.724,4.278 20.414,4.134 20.100 C 4.039 19.894,4.023 19.808,4.023 19.500 C 4.023 19.192,4.039 19.106,4.134 18.900 C 4.278 18.586,4.586 18.276,4.896 18.133 L 5.140 18.020 7.720 18.000 L 10.300 17.980 10.492 17.867 C 11.248 17.423,11.123 16.306,10.290 16.055 C 10.144 16.011,9.621 16.000,7.679 16.000 C 5.050 16.000,4.845 16.013,4.296 16.220 C 4.150 16.275,4.023 16.320,4.014 16.320 C 4.006 16.320,4.003 13.580,4.009 10.230 L 4.020 4.140 4.133 3.896 C 4.276 3.587,4.585 3.279,4.900 3.132 L 5.140 3.020 11.569 3.009 L 17.999 2.999 18.009 7.152 L 18.020 11.306 18.141 11.503 C 18.543 12.156,19.457 12.156,19.859 11.503 L 19.980 11.306 19.991 7.052 C 20.002 2.429,20.006 2.527,19.782 2.083 C 19.646 1.816,19.297 1.449,19.017 1.281 C 18.527 0.986,19.016 1.004,11.720 1.006 C 6.322 1.007,5.126 1.017,4.873 1.063 M16.358 14.061 C 15.230 14.237,14.143 14.974,13.569 15.953 C 12.320 18.083,13.233 20.785,15.512 21.704 C 16.473 22.091,17.529 22.090,18.494 21.701 C 18.684 21.625,18.881 21.535,18.932 21.502 C 19.020 21.444,19.041 21.460,19.681 22.104 C 20.044 22.468,20.416 22.810,20.508 22.865 C 20.967 23.139,21.587 22.968,21.867 22.492 C 21.964 22.327,21.980 22.257,21.980 22.000 C 21.980 21.589,21.910 21.484,21.104 20.681 C 20.460 20.041,20.444 20.020,20.502 19.932 C 20.627 19.740,20.844 19.132,20.921 18.757 C 21.070 18.024,20.994 17.230,20.705 16.516 C 20.172 15.197,19.001 14.269,17.605 14.058 C 17.144 13.989,16.816 13.990,16.358 14.061 M17.523 16.073 C 18.262 16.266,18.850 16.924,18.967 17.690 C 19.067 18.343,18.873 18.933,18.403 19.404 C 18.002 19.807,17.547 20.000,17.000 20.000 C 16.485 20.000,16.038 19.822,15.653 19.465 C 14.323 18.229,15.189 16.005,17.000 16.005 C 17.143 16.005,17.378 16.036,17.523 16.073 " stroke="none" fill-rule="evenodd" fill="#000000"></path></svg>