<svg  xmlns="http://www.w3.org/2000/svg" width="24" height="24" viewBox="0 0 24 24" fill="none" stroke="currentColor" stroke-width="2" stroke-linecap="round" stroke-linejoin="round"><path d="M11.580 1.047 C 10.933 1.170,10.282 1.759,10.100 2.386 C 10.065 2.507,9.795 3.878,9.501 5.433 C 9.207 6.988,8.946 8.314,8.920 8.380 C 8.895 8.446,8.830 8.558,8.776 8.629 C 8.558 8.915,8.557 8.915,5.460 9.499 C 3.876 9.797,2.472 10.079,2.340 10.125 C 1.349 10.470,0.794 11.520,1.073 12.526 C 1.247 13.153,1.746 13.688,2.341 13.884 C 2.458 13.922,3.856 14.200,5.447 14.500 C 8.555 15.086,8.560 15.088,8.776 15.371 C 8.830 15.442,8.895 15.554,8.920 15.620 C 8.946 15.686,9.207 17.012,9.501 18.567 C 9.795 20.122,10.065 21.493,10.100 21.614 C 10.274 22.213,10.836 22.750,11.474 22.927 C 12.472 23.203,13.564 22.629,13.884 21.659 C 13.922 21.542,14.200 20.144,14.500 18.553 C 15.096 15.393,15.085 15.432,15.407 15.200 C 15.495 15.135,15.600 15.073,15.639 15.060 C 15.678 15.048,16.990 14.796,18.554 14.500 C 20.118 14.205,21.496 13.934,21.616 13.900 C 21.888 13.820,22.250 13.588,22.464 13.354 C 23.440 12.288,23.019 10.598,21.660 10.125 C 21.528 10.079,20.124 9.797,18.541 9.499 C 15.392 8.906,15.435 8.918,15.200 8.593 C 15.135 8.505,15.073 8.400,15.060 8.361 C 15.048 8.322,14.796 7.010,14.500 5.446 C 14.205 3.882,13.934 2.504,13.900 2.384 C 13.763 1.916,13.333 1.428,12.857 1.202 C 12.460 1.014,12.029 0.961,11.580 1.047 M19.695 1.057 C 19.466 1.129,19.256 1.299,19.128 1.516 C 19.025 1.692,19.019 1.728,19.007 2.350 L 18.993 3.000 18.443 3.000 C 17.648 3.000,17.366 3.111,17.128 3.516 C 17.037 3.672,17.020 3.746,17.020 4.000 C 17.020 4.256,17.036 4.328,17.131 4.489 C 17.256 4.702,17.449 4.864,17.670 4.943 C 17.768 4.978,18.022 4.997,18.407 4.998 L 18.993 5.000 19.007 5.653 C 19.020 6.300,19.021 6.308,19.141 6.503 C 19.543 7.156,20.457 7.156,20.859 6.503 C 20.979 6.308,20.980 6.300,20.993 5.653 L 21.007 5.000 21.593 4.998 C 21.978 4.997,22.232 4.978,22.330 4.943 C 22.551 4.864,22.744 4.702,22.869 4.489 C 22.964 4.328,22.980 4.256,22.980 4.000 C 22.980 3.746,22.963 3.672,22.872 3.516 C 22.634 3.111,22.352 3.000,21.557 3.000 L 21.007 3.000 20.993 2.350 C 20.981 1.728,20.975 1.692,20.872 1.516 C 20.628 1.101,20.150 0.915,19.695 1.057 M12.537 5.850 C 13.054 8.589,13.121 8.898,13.274 9.250 C 13.537 9.851,14.151 10.460,14.774 10.736 C 15.110 10.884,15.443 10.956,18.260 11.484 C 19.690 11.751,20.873 11.982,20.888 11.995 C 20.903 12.009,19.733 12.242,18.288 12.513 C 16.843 12.785,15.507 13.044,15.320 13.089 C 14.756 13.226,14.281 13.489,13.885 13.885 C 13.479 14.291,13.233 14.731,13.089 15.307 C 13.047 15.479,12.789 16.803,12.517 18.250 C 12.245 19.697,12.013 20.880,12.000 20.880 C 11.988 20.880,11.746 19.652,11.463 18.150 C 10.945 15.407,10.879 15.100,10.726 14.750 C 10.546 14.337,10.113 13.817,9.729 13.553 C 9.441 13.354,9.037 13.176,8.680 13.089 C 8.493 13.044,7.157 12.785,5.712 12.513 C 4.267 12.242,3.097 12.009,3.112 11.996 C 3.127 11.982,4.310 11.752,5.740 11.483 C 8.564 10.954,8.892 10.883,9.226 10.736 C 9.849 10.460,10.463 9.851,10.726 9.250 C 10.879 8.900,10.945 8.593,11.463 5.850 C 11.746 4.348,11.988 3.120,12.000 3.120 C 12.012 3.120,12.254 4.348,12.537 5.850 M3.499 17.040 C 2.363 17.246,1.460 18.049,1.114 19.160 C 0.979 19.594,0.979 20.406,1.114 20.840 C 1.421 21.826,2.174 22.579,3.160 22.886 C 3.412 22.964,3.547 22.979,4.000 22.979 C 4.453 22.979,4.588 22.964,4.840 22.886 C 5.826 22.579,6.579 21.826,6.886 20.840 C 7.021 20.406,7.021 19.594,6.886 19.160 C 6.581 18.179,5.810 17.407,4.861 17.129 C 4.500 17.023,3.832 16.980,3.499 17.040 M4.310 19.061 C 4.688 19.173,5.000 19.598,5.000 20.001 C 5.000 20.331,4.784 20.696,4.484 20.872 C 4.328 20.963,4.254 20.980,4.000 20.980 C 3.746 20.980,3.672 20.963,3.516 20.872 C 2.935 20.530,2.833 19.774,3.304 19.303 C 3.583 19.024,3.916 18.944,4.310 19.061 " stroke="none" fill-rule="evenodd" fill="#000000"></path></svg>