<svg  xmlns="http://www.w3.org/2000/svg" width="24" height="24" viewBox="0 0 24 24" fill="none" stroke="currentColor" stroke-width="2" stroke-linecap="round" stroke-linejoin="round"><path d="M2.695 4.057 C 2.466 4.129,2.256 4.299,2.128 4.516 C 2.037 4.672,2.020 4.746,2.020 5.000 C 2.020 5.256,2.036 5.328,2.131 5.489 C 2.256 5.702,2.449 5.864,2.670 5.943 C 2.893 6.022,16.107 6.022,16.330 5.943 C 16.551 5.864,16.744 5.702,16.869 5.489 C 16.964 5.328,16.980 5.256,16.980 5.000 C 16.980 4.746,16.963 4.672,16.872 4.516 C 16.740 4.293,16.533 4.128,16.290 4.055 C 16.028 3.976,2.947 3.978,2.695 4.057 M2.695 11.057 C 2.466 11.129,2.256 11.299,2.128 11.516 C 2.037 11.672,2.020 11.746,2.020 12.000 C 2.020 12.256,2.036 12.328,2.131 12.489 C 2.256 12.702,2.449 12.864,2.670 12.943 C 2.793 12.987,4.021 12.996,9.500 12.996 C 14.979 12.996,16.207 12.987,16.330 12.943 C 16.551 12.864,16.744 12.702,16.869 12.489 C 16.964 12.328,16.980 12.256,16.980 12.000 C 16.980 11.746,16.963 11.672,16.872 11.516 C 16.740 11.293,16.533 11.128,16.290 11.055 C 16.028 10.976,2.947 10.978,2.695 11.057 M20.640 15.068 C 20.488 15.121,20.196 15.394,18.731 16.853 L 17.002 18.575 16.271 17.855 C 15.655 17.247,15.509 17.123,15.343 17.067 C 14.865 16.905,14.383 17.083,14.128 17.516 C 14.036 17.672,14.020 17.745,14.021 18.000 C 14.021 18.213,14.043 18.341,14.095 18.440 C 14.197 18.633,16.297 20.740,16.520 20.873 C 16.673 20.964,16.745 20.980,17.000 20.979 C 17.212 20.979,17.341 20.957,17.440 20.905 C 17.632 20.805,21.739 16.705,21.873 16.480 C 21.964 16.328,21.980 16.254,21.980 16.000 C 21.980 15.746,21.963 15.672,21.872 15.516 C 21.617 15.083,21.121 14.903,20.640 15.068 M2.695 18.057 C 2.466 18.129,2.256 18.299,2.128 18.516 C 2.037 18.672,2.020 18.746,2.020 19.000 C 2.020 19.256,2.036 19.328,2.131 19.489 C 2.256 19.702,2.449 19.864,2.670 19.943 C 2.892 20.022,11.108 20.022,11.330 19.943 C 11.551 19.864,11.744 19.702,11.869 19.489 C 11.964 19.328,11.980 19.256,11.980 19.000 C 11.980 18.746,11.963 18.672,11.872 18.516 C 11.740 18.293,11.533 18.128,11.290 18.055 C 11.029 17.976,2.946 17.979,2.695 18.057 " stroke="none" fill-rule="evenodd" fill="#000000"></path></svg>