<svg  xmlns="http://www.w3.org/2000/svg" width="24" height="24" viewBox="0 0 24 24" fill="none" stroke="currentColor" stroke-width="2" stroke-linecap="round" stroke-linejoin="round"><path d="M11.404 2.583 C 10.854 2.731,10.960 2.635,7.087 6.497 C 5.101 8.479,3.411 10.186,3.333 10.291 C 2.693 11.155,3.025 12.376,4.030 12.852 L 4.300 12.980 6.150 12.992 L 8.000 13.004 8.000 14.133 C 8.000 15.357,8.021 15.528,8.225 15.930 C 8.361 16.199,8.801 16.639,9.070 16.775 C 9.509 16.997,9.545 17.000,12.000 17.000 C 14.455 17.000,14.491 16.997,14.930 16.775 C 15.196 16.640,15.638 16.200,15.771 15.937 C 15.976 15.534,16.000 15.342,16.000 14.126 L 16.000 13.004 17.850 12.992 L 19.700 12.980 19.970 12.852 C 20.978 12.374,21.306 11.153,20.660 10.282 C 20.586 10.182,18.899 8.479,16.913 6.497 C 13.022 2.618,13.146 2.729,12.578 2.581 C 12.285 2.505,11.692 2.506,11.404 2.583 M15.340 7.760 L 18.580 11.000 17.160 11.002 C 15.567 11.005,15.408 11.025,14.983 11.281 C 14.703 11.449,14.354 11.816,14.219 12.083 C 14.022 12.471,14.000 12.650,14.000 13.868 L 14.000 15.000 12.000 15.000 L 10.000 15.000 9.999 13.890 C 9.999 12.691,9.970 12.456,9.781 12.083 C 9.646 11.816,9.297 11.449,9.017 11.281 C 8.592 11.025,8.433 11.005,6.840 11.002 L 5.420 11.000 8.660 7.760 C 11.228 5.191,11.921 4.520,12.000 4.520 C 12.079 4.520,12.772 5.191,15.340 7.760 M8.695 19.057 C 8.466 19.129,8.256 19.299,8.128 19.516 C 8.037 19.672,8.020 19.746,8.020 20.000 C 8.020 20.256,8.036 20.328,8.131 20.489 C 8.256 20.702,8.449 20.864,8.670 20.943 C 8.891 21.022,15.109 21.022,15.330 20.943 C 15.551 20.864,15.744 20.702,15.869 20.489 C 15.964 20.328,15.980 20.256,15.980 20.000 C 15.980 19.746,15.963 19.672,15.872 19.516 C 15.740 19.293,15.533 19.128,15.290 19.055 C 15.030 18.977,8.945 18.979,8.695 19.057 " stroke="none" fill-rule="evenodd" fill="#000000"></path></svg>