<svg  xmlns="http://www.w3.org/2000/svg" width="24" height="24" viewBox="0 0 24 24" fill="none" stroke="currentColor" stroke-width="2" stroke-linecap="round" stroke-linejoin="round"><path d="M11.680 2.023 C 11.625 2.033,11.472 2.060,11.340 2.083 C 11.208 2.106,10.917 2.213,10.694 2.321 C 10.173 2.573,9.715 2.990,9.428 3.474 C 9.174 3.902,9.119 4.157,9.216 4.463 C 9.346 4.875,9.768 5.200,10.174 5.200 C 10.538 5.200,10.887 4.969,11.086 4.595 C 11.234 4.317,11.420 4.148,11.675 4.061 C 12.170 3.893,12.650 4.099,12.913 4.593 C 13.145 5.029,13.484 5.229,13.920 5.189 C 14.448 5.141,14.847 4.705,14.837 4.185 C 14.831 3.837,14.560 3.358,14.122 2.916 C 13.676 2.469,13.202 2.196,12.668 2.080 C 12.449 2.033,11.829 1.997,11.680 2.023 M7.647 6.864 C 7.532 6.921,7.395 7.025,7.342 7.094 C 7.222 7.253,6.250 8.932,6.171 9.118 C 5.959 9.618,6.277 10.261,6.816 10.421 C 7.081 10.500,7.195 10.496,7.458 10.397 C 7.763 10.283,7.876 10.139,8.483 9.087 C 9.051 8.104,9.138 7.902,9.102 7.660 C 8.994 6.938,8.281 6.548,7.647 6.864 M15.449 6.847 C 15.235 6.951,14.989 7.227,14.927 7.432 C 14.862 7.649,14.872 7.909,14.952 8.107 C 15.092 8.451,16.024 10.020,16.187 10.186 C 16.696 10.704,17.568 10.484,17.822 9.772 C 17.889 9.585,17.893 9.428,17.835 9.221 C 17.785 9.038,16.798 7.306,16.623 7.093 C 16.368 6.781,15.821 6.667,15.449 6.847 M4.765 12.028 C 4.669 12.062,4.525 12.156,4.445 12.238 C 4.271 12.415,3.253 14.172,3.172 14.435 C 2.994 15.015,3.491 15.670,4.115 15.678 C 4.634 15.684,4.847 15.480,5.490 14.353 C 6.083 13.313,6.118 13.236,6.119 12.949 C 6.121 12.542,5.923 12.237,5.540 12.055 C 5.306 11.945,5.029 11.935,4.765 12.028 M18.483 12.029 C 18.015 12.194,17.730 12.783,17.895 13.245 C 17.989 13.507,19.017 15.256,19.164 15.404 C 19.438 15.678,19.898 15.754,20.262 15.585 C 20.767 15.350,20.981 14.761,20.745 14.260 C 20.693 14.150,20.432 13.682,20.165 13.220 C 19.646 12.321,19.460 12.095,19.170 12.008 C 18.958 11.944,18.700 11.952,18.483 12.029 M1.870 17.214 C 1.464 17.366,1.240 17.678,1.076 18.323 C 1.004 18.605,1.004 19.395,1.076 19.677 C 1.370 20.832,2.269 21.695,3.434 21.942 C 3.761 22.012,4.119 22.016,4.329 21.952 C 4.554 21.885,4.859 21.598,4.945 21.373 C 5.082 21.013,5.015 20.626,4.768 20.352 C 4.571 20.134,4.370 20.042,3.993 19.999 C 3.500 19.943,3.276 19.785,3.080 19.353 C 2.976 19.123,2.981 18.923,3.101 18.548 C 3.218 18.182,3.219 18.158,3.138 17.885 C 3.065 17.640,2.856 17.390,2.626 17.273 C 2.422 17.169,2.067 17.141,1.870 17.214 M21.369 17.302 C 20.891 17.543,20.724 18.031,20.918 18.615 C 21.060 19.041,21.005 19.358,20.733 19.681 C 20.594 19.846,20.269 19.999,20.057 20.000 C 19.333 20.001,18.848 20.633,19.041 21.325 C 19.100 21.539,19.362 21.814,19.607 21.919 C 19.792 21.999,19.863 22.007,20.179 21.988 C 21.019 21.938,21.732 21.580,22.290 20.929 C 22.965 20.139,23.174 19.023,22.832 18.024 C 22.717 17.685,22.572 17.483,22.343 17.342 C 22.183 17.243,22.096 17.219,21.864 17.208 C 21.620 17.197,21.550 17.210,21.369 17.302 M7.695 20.057 C 7.466 20.129,7.256 20.299,7.128 20.516 C 7.037 20.672,7.020 20.746,7.020 21.000 C 7.020 21.256,7.036 21.328,7.131 21.489 C 7.256 21.702,7.449 21.864,7.670 21.943 C 7.885 22.020,10.115 22.020,10.330 21.943 C 10.551 21.864,10.744 21.702,10.869 21.489 C 10.964 21.328,10.980 21.256,10.980 21.000 C 10.980 20.746,10.963 20.672,10.872 20.516 C 10.740 20.293,10.533 20.128,10.290 20.055 C 10.039 19.979,7.937 19.981,7.695 20.057 M13.695 20.057 C 13.466 20.129,13.256 20.299,13.128 20.516 C 13.037 20.672,13.020 20.746,13.020 21.000 C 13.020 21.256,13.036 21.328,13.131 21.489 C 13.256 21.702,13.449 21.864,13.670 21.943 C 13.885 22.020,16.115 22.020,16.330 21.943 C 16.551 21.864,16.744 21.702,16.869 21.489 C 16.964 21.328,16.980 21.256,16.980 21.000 C 16.980 20.746,16.963 20.672,16.872 20.516 C 16.740 20.293,16.533 20.128,16.290 20.055 C 16.039 19.979,13.937 19.981,13.695 20.057 " stroke="none" fill-rule="evenodd" fill="#000000"></path></svg>