<svg  xmlns="http://www.w3.org/2000/svg" width="24" height="24" viewBox="0 0 24 24" fill="none" stroke="currentColor" stroke-width="2" stroke-linecap="round" stroke-linejoin="round"><path d="M3.499 2.043 C 2.391 2.230,1.488 3.024,1.114 4.140 L 1.020 4.420 1.009 12.958 C 1.000 20.694,1.005 21.516,1.063 21.718 C 1.326 22.631,2.237 23.176,3.110 22.943 C 3.571 22.820,3.647 22.759,4.980 21.438 C 5.684 20.740,6.323 20.136,6.400 20.095 C 6.535 20.023,6.810 20.019,13.560 20.000 L 20.580 19.980 20.860 19.886 C 21.851 19.554,22.582 18.816,22.886 17.840 L 22.980 17.540 22.980 11.000 L 22.980 4.460 22.886 4.160 C 22.581 3.182,21.832 2.428,20.861 2.121 L 20.540 2.020 12.120 2.014 C 7.489 2.011,3.609 2.024,3.499 2.043 M20.310 4.061 C 20.589 4.144,20.856 4.411,20.939 4.690 C 20.992 4.869,21.000 5.651,21.000 11.001 C 21.000 16.059,20.991 17.139,20.945 17.290 C 20.872 17.533,20.707 17.740,20.484 17.872 L 20.300 17.980 13.280 18.000 L 6.260 18.020 5.980 18.115 C 5.291 18.347,5.119 18.475,3.970 19.615 L 3.000 20.576 3.000 12.735 C 3.000 5.832,3.007 4.870,3.061 4.690 C 3.140 4.421,3.412 4.143,3.673 4.063 C 3.833 4.014,5.030 4.005,11.983 4.003 C 19.144 4.000,20.130 4.007,20.310 4.061 M9.560 6.023 C 8.286 6.252,7.398 6.893,6.850 7.980 C 6.300 9.071,6.422 10.556,7.150 11.625 C 7.238 11.754,8.083 12.697,9.029 13.720 C 10.837 15.677,10.911 15.745,11.400 15.907 C 11.701 16.007,12.301 16.007,12.600 15.906 C 13.092 15.742,13.193 15.648,14.894 13.805 C 15.781 12.844,16.599 11.943,16.711 11.803 C 17.291 11.084,17.573 10.101,17.476 9.143 C 17.325 7.667,16.298 6.490,14.819 6.097 C 14.432 5.995,13.570 5.994,13.187 6.096 C 12.840 6.188,12.505 6.324,12.242 6.479 C 12.129 6.545,12.020 6.600,12.000 6.600 C 11.980 6.600,11.870 6.545,11.755 6.477 C 11.506 6.330,11.147 6.185,10.820 6.099 C 10.586 6.037,9.760 5.988,9.560 6.023 M10.430 8.074 C 10.724 8.165,10.989 8.344,11.184 8.582 C 11.266 8.682,11.416 8.813,11.517 8.872 C 11.672 8.964,11.745 8.980,12.000 8.979 C 12.376 8.978,12.484 8.923,12.858 8.543 C 13.162 8.233,13.381 8.105,13.734 8.031 C 14.190 7.935,14.779 8.130,15.090 8.479 C 15.349 8.770,15.456 9.041,15.473 9.447 C 15.491 9.871,15.420 10.144,15.210 10.453 C 15.053 10.685,12.055 13.960,12.000 13.960 C 11.974 13.960,9.966 11.801,9.045 10.783 C 8.629 10.323,8.499 9.978,8.528 9.411 C 8.542 9.131,8.568 9.017,8.654 8.849 C 9.000 8.174,9.730 7.856,10.430 8.074 " stroke="none" fill-rule="evenodd" fill="#000000"></path></svg>