<svg  xmlns="http://www.w3.org/2000/svg" width="24" height="24" viewBox="0 0 24 24" fill="none" stroke="currentColor" stroke-width="2" stroke-linecap="round" stroke-linejoin="round"><path d="M12.360 3.041 C 11.857 3.147,11.383 3.533,11.148 4.030 L 11.020 4.300 11.008 6.150 L 10.996 8.000 7.868 8.002 C 4.380 8.005,4.450 8.000,3.983 8.281 C 3.703 8.449,3.354 8.816,3.219 9.083 C 3.004 9.507,3.000 9.556,3.000 12.000 C 3.000 14.455,3.003 14.491,3.225 14.930 C 3.361 15.199,3.801 15.639,4.070 15.775 C 4.521 16.003,4.466 16.000,7.867 16.000 L 10.996 16.000 11.008 17.850 L 11.020 19.700 11.148 19.970 C 11.626 20.978,12.847 21.306,13.718 20.660 C 13.818 20.586,15.521 18.899,17.503 16.913 C 21.375 13.030,21.253 13.165,21.423 12.580 C 21.514 12.265,21.514 11.735,21.423 11.420 C 21.253 10.835,21.375 10.970,17.503 7.087 C 15.521 5.101,13.815 3.412,13.711 3.335 C 13.360 3.074,12.792 2.951,12.360 3.041 M19.480 12.000 C 19.480 12.079,18.809 12.772,16.240 15.340 L 13.000 18.580 12.999 17.180 C 12.999 15.669,12.978 15.471,12.781 15.083 C 12.646 14.816,12.297 14.449,12.017 14.281 C 11.550 14.000,11.620 14.005,8.130 14.002 L 5.000 14.000 5.000 12.000 L 5.000 10.000 8.132 10.000 C 11.535 10.000,11.479 10.003,11.930 9.775 C 12.196 9.640,12.638 9.200,12.771 8.937 C 12.984 8.518,13.000 8.367,13.000 6.834 L 13.000 5.420 16.240 8.660 C 18.809 11.228,19.480 11.921,19.480 12.000 " stroke="none" fill-rule="evenodd" fill="#000000"></path></svg>