<svg  xmlns="http://www.w3.org/2000/svg" width="24" height="24" viewBox="0 0 24 24" fill="none" stroke="currentColor" stroke-width="2" stroke-linecap="round" stroke-linejoin="round"><path d="M11.499 1.040 C 10.363 1.246,9.460 2.049,9.114 3.160 C 8.979 3.594,8.979 4.406,9.114 4.840 C 9.297 5.427,9.619 5.908,10.101 6.313 C 10.239 6.429,10.313 6.520,10.301 6.559 C 10.291 6.592,10.001 7.583,9.657 8.760 C 9.313 9.937,9.018 10.914,9.001 10.932 C 8.978 10.957,7.679 9.307,6.908 8.274 L 6.796 8.124 6.888 7.832 C 7.021 7.407,7.020 6.591,6.886 6.160 C 6.581 5.181,5.822 4.418,4.861 4.125 C 4.588 4.042,4.458 4.027,4.000 4.027 C 3.542 4.027,3.412 4.042,3.139 4.125 C 2.178 4.418,1.419 5.181,1.114 6.160 C 1.036 6.412,1.021 6.547,1.021 7.000 C 1.021 7.609,1.093 7.922,1.344 8.400 C 1.677 9.035,2.406 9.658,3.030 9.843 C 3.124 9.870,3.216 9.913,3.235 9.936 C 3.277 9.990,5.614 17.001,5.594 17.015 C 5.586 17.021,5.438 17.058,5.263 17.097 C 4.291 17.320,3.444 18.126,3.118 19.140 C 3.039 19.386,3.026 19.528,3.010 20.303 C 2.990 21.282,3.014 21.479,3.202 21.877 C 3.348 22.186,3.771 22.623,4.070 22.775 C 4.540 23.013,4.078 23.000,12.000 23.000 C 19.922 23.000,19.460 23.013,19.930 22.775 C 20.196 22.640,20.638 22.200,20.771 21.937 C 20.980 21.526,21.010 21.305,20.990 20.320 C 20.975 19.526,20.962 19.387,20.882 19.140 C 20.556 18.126,19.709 17.320,18.737 17.097 C 18.562 17.058,18.414 17.021,18.406 17.015 C 18.386 17.001,20.723 9.990,20.765 9.936 C 20.784 9.913,20.876 9.870,20.970 9.843 C 21.594 9.658,22.323 9.035,22.656 8.400 C 22.907 7.922,22.979 7.609,22.979 7.000 C 22.979 6.547,22.964 6.412,22.886 6.160 C 22.581 5.181,21.822 4.418,20.861 4.125 C 20.588 4.042,20.458 4.027,20.000 4.027 C 19.542 4.027,19.412 4.042,19.139 4.125 C 18.178 4.418,17.419 5.181,17.114 6.160 C 16.980 6.591,16.979 7.407,17.112 7.832 L 17.204 8.124 17.092 8.275 C 16.381 9.228,15.020 10.955,14.998 10.931 C 14.982 10.914,14.687 9.937,14.343 8.760 C 13.999 7.583,13.709 6.592,13.698 6.559 C 13.687 6.520,13.762 6.429,13.899 6.313 C 14.381 5.908,14.703 5.427,14.886 4.840 C 15.021 4.406,15.021 3.594,14.886 3.160 C 14.581 2.179,13.810 1.407,12.861 1.129 C 12.500 1.023,11.832 0.980,11.499 1.040 M12.310 3.061 C 12.688 3.173,13.000 3.598,13.000 4.000 C 13.000 4.520,12.520 5.000,12.000 5.000 C 11.760 5.000,11.473 4.876,11.300 4.698 C 10.905 4.291,10.907 3.700,11.304 3.303 C 11.583 3.024,11.916 2.944,12.310 3.061 M4.310 6.061 C 4.688 6.173,5.000 6.598,5.000 7.001 C 5.000 7.331,4.784 7.696,4.484 7.872 C 4.328 7.963,4.254 7.980,4.000 7.980 C 3.746 7.980,3.672 7.963,3.516 7.872 C 2.935 7.530,2.833 6.774,3.304 6.303 C 3.583 6.024,3.916 5.944,4.310 6.061 M20.310 6.061 C 20.688 6.173,21.000 6.598,21.000 7.001 C 21.000 7.331,20.784 7.696,20.484 7.872 C 20.328 7.963,20.254 7.980,20.000 7.980 C 19.746 7.980,19.672 7.963,19.516 7.872 C 18.935 7.530,18.833 6.774,19.304 6.303 C 19.583 6.024,19.916 5.944,20.310 6.061 M12.518 9.650 C 13.111 11.678,13.164 11.836,13.325 12.087 C 13.588 12.497,14.110 12.855,14.592 12.956 C 15.187 13.080,15.849 12.909,16.297 12.514 C 16.401 12.423,16.953 11.740,17.525 10.997 C 18.239 10.069,18.584 9.652,18.623 9.667 C 18.654 9.679,18.680 9.709,18.680 9.734 C 18.680 9.759,18.139 11.404,17.477 13.390 L 16.273 17.000 12.000 17.000 L 7.727 17.000 6.523 13.390 C 5.861 11.404,5.320 9.759,5.320 9.734 C 5.320 9.709,5.346 9.679,5.377 9.667 C 5.416 9.652,5.761 10.069,6.475 10.997 C 7.047 11.740,7.599 12.423,7.703 12.514 C 8.151 12.909,8.813 13.080,9.408 12.956 C 9.897 12.854,10.409 12.502,10.677 12.085 C 10.835 11.838,10.886 11.684,11.482 9.650 C 11.754 8.720,11.987 7.960,12.000 7.960 C 12.013 7.960,12.246 8.720,12.518 9.650 M18.310 19.061 C 18.452 19.103,18.571 19.178,18.697 19.303 C 18.948 19.554,19.000 19.751,19.000 20.447 L 19.000 21.000 12.000 21.000 L 5.000 21.000 5.000 20.447 C 5.000 19.750,5.052 19.554,5.304 19.303 C 5.623 18.983,5.120 19.006,11.983 19.003 C 17.353 19.000,18.131 19.007,18.310 19.061 " stroke="none" fill-rule="evenodd" fill="#000000"></path></svg>