<svg  xmlns="http://www.w3.org/2000/svg" width="24" height="24" viewBox="0 0 24 24" fill="none" stroke="currentColor" stroke-width="2" stroke-linecap="round" stroke-linejoin="round"><path d="M9.499 1.042 C 8.385 1.234,7.470 2.041,7.118 3.140 C 7.042 3.379,7.026 3.536,7.010 4.205 L 6.991 4.991 6.225 5.010 C 5.567 5.027,5.415 5.043,5.139 5.126 C 4.181 5.415,3.420 6.179,3.114 7.160 L 3.020 7.460 3.020 11.000 L 3.020 14.540 3.114 14.840 C 3.422 15.827,4.173 16.578,5.160 16.886 L 5.460 16.980 12.000 16.980 L 18.540 16.980 18.840 16.886 C 19.827 16.578,20.578 15.827,20.886 14.840 L 20.980 14.540 20.980 11.000 L 20.980 7.460 20.886 7.160 C 20.580 6.179,19.819 5.415,18.861 5.126 C 18.585 5.043,18.433 5.027,17.775 5.010 L 17.009 4.991 16.990 4.205 C 16.974 3.536,16.958 3.379,16.882 3.140 C 16.573 2.174,15.820 1.422,14.861 1.122 L 14.540 1.022 12.120 1.015 C 10.789 1.011,9.609 1.023,9.499 1.042 M14.310 3.061 C 14.452 3.103,14.571 3.178,14.697 3.303 C 14.948 3.554,15.000 3.751,15.000 4.447 L 15.000 5.000 12.000 5.000 L 9.000 5.000 9.000 4.447 C 9.000 3.750,9.052 3.554,9.304 3.303 C 9.604 3.002,9.569 3.006,11.983 3.003 C 13.772 3.000,14.138 3.010,14.310 3.061 M7.000 11.003 L 7.000 15.007 6.350 14.993 C 5.728 14.981,5.692 14.975,5.516 14.872 C 5.415 14.813,5.282 14.698,5.221 14.618 C 4.997 14.324,5.000 14.372,5.000 11.001 C 5.000 7.474,4.988 7.618,5.304 7.303 C 5.554 7.052,5.727 7.006,6.430 7.003 L 7.000 7.000 7.000 11.003 M15.000 11.000 L 15.000 15.000 12.000 15.000 L 9.000 15.000 9.000 11.000 L 9.000 7.000 12.000 7.000 L 15.000 7.000 15.000 11.000 M18.310 7.061 C 18.589 7.144,18.856 7.411,18.939 7.690 C 19.025 7.980,19.031 14.004,18.945 14.290 C 18.872 14.533,18.707 14.740,18.484 14.872 C 18.308 14.975,18.272 14.981,17.650 14.993 L 17.000 15.007 17.000 11.003 L 17.000 7.000 17.553 7.000 C 17.931 7.000,18.170 7.019,18.310 7.061 M2.695 19.057 C 2.466 19.129,2.256 19.299,2.128 19.516 C 2.037 19.672,2.020 19.746,2.020 20.000 C 2.020 20.256,2.036 20.328,2.131 20.489 C 2.192 20.592,2.304 20.725,2.381 20.783 C 2.642 20.983,2.738 20.996,3.907 20.998 L 4.993 21.000 5.007 21.653 C 5.020 22.300,5.021 22.308,5.141 22.503 C 5.209 22.613,5.346 22.756,5.452 22.828 C 5.923 23.144,6.554 22.999,6.859 22.503 C 6.979 22.308,6.980 22.300,6.993 21.653 L 7.007 21.000 8.000 21.000 L 8.993 21.000 9.007 21.653 C 9.020 22.300,9.021 22.308,9.141 22.503 C 9.209 22.613,9.346 22.756,9.452 22.828 C 9.923 23.144,10.554 22.999,10.859 22.503 C 10.979 22.308,10.980 22.300,10.993 21.653 L 11.007 21.000 12.000 21.000 L 12.993 21.000 13.007 21.653 C 13.020 22.300,13.021 22.308,13.141 22.503 C 13.543 23.156,14.457 23.156,14.859 22.503 C 14.979 22.308,14.980 22.300,14.993 21.653 L 15.007 21.000 16.000 21.000 L 16.993 21.000 17.007 21.653 C 17.020 22.300,17.021 22.308,17.141 22.503 C 17.209 22.613,17.346 22.756,17.452 22.828 C 17.923 23.144,18.554 22.999,18.859 22.503 C 18.979 22.308,18.980 22.300,18.993 21.653 L 19.007 21.000 20.093 20.998 C 21.262 20.996,21.358 20.983,21.619 20.783 C 21.696 20.725,21.808 20.592,21.869 20.489 C 21.964 20.328,21.980 20.256,21.980 20.000 C 21.980 19.746,21.963 19.672,21.872 19.516 C 21.740 19.293,21.533 19.128,21.290 19.055 C 21.027 18.976,2.947 18.978,2.695 19.057 " stroke="none" fill-rule="evenodd" fill="#000000"></path></svg>