<svg  xmlns="http://www.w3.org/2000/svg" width="24" height="24" viewBox="0 0 24 24" fill="none" stroke="currentColor" stroke-width="2" stroke-linecap="round" stroke-linejoin="round"><path d="M5.695 2.057 C 5.466 2.129,5.256 2.299,5.128 2.516 C 5.026 2.691,5.020 2.726,5.023 3.200 C 5.039 5.468,6.257 7.604,8.304 8.950 C 8.379 8.999,8.379 9.001,8.304 9.050 C 6.518 10.225,5.407 11.920,5.074 13.980 C 5.008 14.393,5.008 15.607,5.074 16.020 C 5.574 19.112,7.888 21.426,10.980 21.926 C 11.392 21.992,12.607 21.992,13.020 21.926 C 16.109 21.428,18.428 19.109,18.926 16.020 C 18.954 15.844,18.977 15.385,18.977 15.000 C 18.977 14.056,18.876 13.462,18.573 12.620 C 18.053 11.174,17.067 9.952,15.696 9.050 C 15.621 9.001,15.621 8.999,15.696 8.950 C 17.741 7.605,18.961 5.467,18.977 3.200 C 18.980 2.724,18.975 2.691,18.871 2.514 C 18.648 2.134,18.208 1.941,17.786 2.035 C 17.375 2.127,17.056 2.473,17.019 2.866 C 17.009 2.973,16.981 3.258,16.958 3.500 C 16.890 4.209,16.730 4.737,16.398 5.353 C 15.683 6.681,14.466 7.585,12.960 7.907 C 12.489 8.008,11.511 8.008,11.040 7.907 C 9.771 7.636,8.677 6.933,7.963 5.932 C 7.413 5.160,7.130 4.414,7.042 3.500 C 7.019 3.258,6.991 2.973,6.981 2.866 C 6.946 2.497,6.665 2.168,6.290 2.055 C 6.068 1.988,5.913 1.989,5.695 2.057 M12.552 10.043 C 14.413 10.246,16.001 11.479,16.680 13.248 C 17.092 14.320,17.085 15.720,16.663 16.793 C 16.120 18.174,14.991 19.256,13.600 19.732 C 13.044 19.922,12.670 19.980,12.000 19.980 C 11.330 19.980,10.956 19.922,10.400 19.732 C 8.808 19.188,7.580 17.864,7.161 16.240 C 6.920 15.307,6.983 14.125,7.320 13.248 C 8.146 11.096,10.274 9.793,12.552 10.043 " stroke="none" fill-rule="evenodd" fill="#000000"></path></svg>