<svg  xmlns="http://www.w3.org/2000/svg" width="24" height="24" viewBox="0 0 24 24" fill="none" stroke="currentColor" stroke-width="2" stroke-linecap="round" stroke-linejoin="round"><path d="M5.499 1.043 C 4.379 1.234,3.461 2.048,3.114 3.160 L 3.020 3.460 3.020 12.000 L 3.020 20.540 3.114 20.840 C 3.422 21.827,4.173 22.578,5.160 22.886 L 5.460 22.980 12.000 22.980 L 18.540 22.980 18.840 22.886 C 19.819 22.581,20.577 21.827,20.880 20.860 C 21.000 20.475,21.039 19.613,20.948 19.346 C 20.859 19.085,20.713 18.910,20.470 18.778 C 20.299 18.685,20.211 18.664,20.000 18.664 C 19.690 18.665,19.488 18.750,19.275 18.970 C 19.082 19.168,19.000 19.418,19.000 19.801 C 19.000 20.335,18.843 20.661,18.484 20.872 L 18.300 20.980 12.000 20.980 L 5.700 20.980 5.516 20.872 C 5.415 20.813,5.284 20.700,5.225 20.623 C 4.985 20.308,5.000 20.888,5.000 12.022 C 5.000 2.889,4.974 3.632,5.303 3.303 C 5.621 2.986,5.423 3.000,9.447 3.000 L 13.000 3.000 13.000 5.112 C 13.000 7.404,13.004 7.454,13.228 7.920 C 13.361 8.195,13.793 8.633,14.056 8.759 C 14.443 8.944,14.902 8.855,15.208 8.535 C 15.581 8.146,15.568 7.537,15.178 7.154 L 15.001 6.980 15.000 5.200 L 15.000 3.420 16.290 4.705 C 17.000 5.411,17.637 6.027,17.707 6.075 C 17.995 6.270,18.468 6.254,18.783 6.038 C 19.189 5.759,19.323 5.232,19.103 4.783 C 19.026 4.625,18.677 4.255,17.572 3.157 C 16.765 2.356,16.040 1.670,15.910 1.586 C 15.592 1.378,15.237 1.218,14.860 1.111 L 14.540 1.021 10.120 1.015 C 7.689 1.011,5.609 1.024,5.499 1.043 M19.330 8.044 C 18.849 8.124,18.379 8.336,17.960 8.662 C 17.648 8.905,13.477 13.102,13.329 13.323 C 13.066 13.715,12.947 14.038,12.478 15.642 C 12.011 17.240,11.994 17.311,12.014 17.590 C 12.052 18.135,12.371 18.602,12.875 18.850 C 13.110 18.966,13.174 18.980,13.479 18.979 C 13.794 18.977,13.937 18.943,15.360 18.525 C 17.121 18.008,17.454 17.871,17.920 17.468 C 18.485 16.980,22.340 13.070,22.500 12.823 C 23.161 11.803,23.162 10.420,22.502 9.426 C 22.165 8.918,21.594 8.449,21.039 8.223 C 20.561 8.028,19.864 7.955,19.330 8.044 M20.353 10.116 C 20.594 10.239,20.733 10.374,20.860 10.607 C 21.018 10.896,21.029 11.324,20.885 11.605 C 20.767 11.836,16.563 16.051,16.380 16.122 C 16.221 16.184,14.265 16.759,14.254 16.747 C 14.230 16.723,14.838 14.719,14.911 14.580 C 14.997 14.416,19.127 10.270,19.325 10.149 C 19.595 9.984,20.064 9.969,20.353 10.116 M7.695 17.057 C 7.466 17.129,7.256 17.299,7.128 17.516 C 7.037 17.672,7.020 17.746,7.020 18.000 C 7.020 18.256,7.036 18.328,7.131 18.489 C 7.256 18.702,7.449 18.864,7.670 18.943 C 7.878 19.017,9.122 19.017,9.330 18.943 C 9.551 18.864,9.744 18.702,9.869 18.489 C 9.964 18.328,9.980 18.256,9.980 18.000 C 9.980 17.746,9.963 17.672,9.872 17.516 C 9.740 17.293,9.533 17.128,9.290 17.055 C 9.050 16.983,7.928 16.984,7.695 17.057 " stroke="none" fill-rule="evenodd" fill="#000000"></path></svg>