<svg  xmlns="http://www.w3.org/2000/svg" width="24" height="24" viewBox="0 0 24 24" fill="none" stroke="currentColor" stroke-width="2" stroke-linecap="round" stroke-linejoin="round"><path d="M2.695 2.057 C 2.051 2.258,1.799 3.040,2.198 3.591 C 2.386 3.850,2.613 3.960,3.048 4.001 C 3.526 4.047,3.769 4.122,4.063 4.313 C 4.457 4.569,4.763 4.956,4.914 5.390 C 4.974 5.563,4.982 6.203,5.000 12.443 L 5.020 19.306 5.141 19.503 C 5.543 20.156,6.457 20.156,6.859 19.503 L 6.980 19.306 7.000 12.223 L 7.020 5.140 7.132 4.900 C 7.280 4.583,7.587 4.275,7.896 4.135 C 8.105 4.040,8.192 4.024,8.500 4.024 C 8.808 4.024,8.895 4.040,9.104 4.135 C 9.413 4.275,9.720 4.583,9.868 4.900 L 9.980 5.140 10.000 12.223 L 10.020 19.306 10.141 19.503 C 10.209 19.613,10.346 19.756,10.452 19.828 C 10.923 20.144,11.554 19.999,11.859 19.503 L 11.980 19.306 12.000 12.223 L 12.020 5.140 12.133 4.896 C 12.276 4.586,12.586 4.278,12.900 4.134 C 13.247 3.974,13.753 3.974,14.100 4.134 C 14.414 4.278,14.724 4.586,14.867 4.896 L 14.980 5.140 15.002 10.960 L 15.024 16.780 15.114 17.180 C 15.317 18.075,15.683 18.890,16.183 19.562 C 16.343 19.777,16.463 19.963,16.450 19.976 C 16.437 19.989,16.307 20.000,16.160 20.000 C 15.667 20.000,15.334 20.167,15.128 20.516 C 15.037 20.672,15.020 20.746,15.020 21.000 C 15.020 21.257,15.036 21.327,15.133 21.492 C 15.263 21.714,15.502 21.901,15.736 21.965 C 15.957 22.026,16.651 21.984,17.169 21.879 C 17.549 21.801,18.260 21.580,18.427 21.487 C 18.476 21.459,18.529 21.463,18.599 21.498 C 19.241 21.821,20.795 22.093,21.264 21.965 C 21.498 21.901,21.737 21.714,21.867 21.492 C 21.964 21.327,21.980 21.257,21.980 21.000 C 21.980 20.746,21.963 20.672,21.872 20.516 C 21.666 20.167,21.333 20.000,20.840 20.000 C 20.693 20.000,20.562 19.989,20.549 19.975 C 20.535 19.962,20.627 19.813,20.753 19.645 C 21.334 18.871,21.669 18.141,21.885 17.180 C 21.972 16.791,21.975 16.706,21.989 14.025 C 22.005 11.116,21.999 10.971,21.821 10.412 C 21.232 8.562,19.115 7.536,17.297 8.220 C 17.150 8.275,17.024 8.320,17.015 8.320 C 17.007 8.320,17.000 7.623,17.000 6.770 C 17.000 5.909,16.981 5.108,16.959 4.969 C 16.736 3.597,15.727 2.481,14.378 2.114 C 13.960 2.001,13.117 1.990,12.707 2.092 C 12.141 2.233,11.513 2.564,11.153 2.910 L 11.005 3.051 10.818 2.886 C 10.406 2.524,9.912 2.260,9.364 2.111 C 8.932 1.992,8.068 1.992,7.636 2.111 C 7.042 2.273,6.446 2.608,6.066 2.994 L 5.872 3.191 5.530 2.916 C 4.949 2.451,4.307 2.164,3.605 2.058 C 3.141 1.989,2.915 1.988,2.695 2.057 M19.119 10.143 C 19.415 10.278,19.727 10.592,19.867 10.896 L 19.980 11.140 19.992 13.665 C 20.004 16.377,19.988 16.684,19.797 17.244 C 19.588 17.859,19.072 18.648,18.658 18.985 L 18.496 19.117 18.290 18.937 C 17.870 18.570,17.415 17.861,17.204 17.244 C 17.013 16.686,16.996 16.379,17.008 13.665 L 17.020 11.140 17.132 10.900 C 17.329 10.477,17.750 10.129,18.174 10.039 C 18.441 9.982,18.870 10.030,19.119 10.143 " stroke="none" fill-rule="evenodd" fill="#000000"></path></svg>