<svg  xmlns="http://www.w3.org/2000/svg" width="24" height="24" viewBox="0 0 24 24" fill="none" stroke="currentColor" stroke-width="2" stroke-linecap="round" stroke-linejoin="round"><path d="M2.695 4.057 C 2.466 4.129,2.256 4.299,2.128 4.516 C 2.037 4.672,2.020 4.746,2.020 5.000 C 2.020 5.256,2.036 5.328,2.131 5.489 C 2.256 5.702,2.449 5.864,2.670 5.943 C 2.893 6.022,16.107 6.022,16.330 5.943 C 16.551 5.864,16.744 5.702,16.869 5.489 C 16.964 5.328,16.980 5.256,16.980 5.000 C 16.980 4.746,16.963 4.672,16.872 4.516 C 16.740 4.293,16.533 4.128,16.290 4.055 C 16.028 3.976,2.947 3.978,2.695 4.057 M20.695 4.057 C 20.466 4.129,20.256 4.299,20.128 4.516 L 20.020 4.700 20.009 8.610 C 20.003 10.761,19.989 12.520,19.978 12.520 C 19.967 12.520,19.855 12.469,19.729 12.406 C 19.245 12.164,18.548 12.000,18.000 12.000 C 16.635 12.000,15.253 12.787,14.569 13.953 C 13.320 16.083,14.233 18.785,16.512 19.704 C 17.231 19.994,18.023 20.070,18.757 19.921 C 20.385 19.589,21.589 18.384,21.921 16.755 C 21.999 16.371,22.001 16.226,21.991 10.531 L 21.980 4.700 21.872 4.516 C 21.628 4.101,21.150 3.915,20.695 4.057 M2.695 11.057 C 2.466 11.129,2.256 11.299,2.128 11.516 C 2.037 11.672,2.020 11.746,2.020 12.000 C 2.020 12.256,2.036 12.328,2.131 12.489 C 2.256 12.702,2.449 12.864,2.670 12.943 C 2.892 13.022,11.108 13.022,11.330 12.943 C 11.551 12.864,11.744 12.702,11.869 12.489 C 11.964 12.328,11.980 12.256,11.980 12.000 C 11.980 11.746,11.963 11.672,11.872 11.516 C 11.740 11.293,11.533 11.128,11.290 11.055 C 11.029 10.976,2.946 10.979,2.695 11.057 M18.523 14.073 C 19.262 14.266,19.850 14.924,19.967 15.690 C 20.067 16.343,19.873 16.933,19.403 17.404 C 19.002 17.807,18.547 18.000,18.000 18.000 C 17.485 18.000,17.038 17.822,16.653 17.465 C 15.323 16.229,16.189 14.005,18.000 14.005 C 18.143 14.005,18.378 14.036,18.523 14.073 M2.695 18.057 C 2.466 18.129,2.256 18.299,2.128 18.516 C 2.037 18.672,2.020 18.746,2.020 19.000 C 2.020 19.256,2.036 19.328,2.131 19.489 C 2.256 19.702,2.449 19.864,2.670 19.943 C 2.892 20.022,11.108 20.022,11.330 19.943 C 11.551 19.864,11.744 19.702,11.869 19.489 C 11.964 19.328,11.980 19.256,11.980 19.000 C 11.980 18.746,11.963 18.672,11.872 18.516 C 11.740 18.293,11.533 18.128,11.290 18.055 C 11.029 17.976,2.946 17.979,2.695 18.057 " stroke="none" fill-rule="evenodd" fill="#000000"></path></svg>