<svg  xmlns="http://www.w3.org/2000/svg" width="24" height="24" viewBox="0 0 24 24" fill="none" stroke="currentColor" stroke-width="2" stroke-linecap="round" stroke-linejoin="round"><path d="M8.695 1.057 C 8.352 1.164,8.073 1.481,8.018 1.825 C 7.992 1.985,7.986 1.990,7.781 2.036 C 7.515 2.096,7.269 2.276,7.129 2.514 C 7.036 2.672,7.020 2.745,7.020 3.003 C 7.020 3.271,7.034 3.329,7.141 3.503 C 7.287 3.740,7.577 3.946,7.817 3.982 C 7.988 4.007,7.993 4.012,8.018 4.183 C 8.054 4.423,8.260 4.713,8.497 4.859 C 8.671 4.966,8.729 4.980,9.000 4.980 C 9.271 4.980,9.329 4.966,9.503 4.859 C 9.740 4.713,9.946 4.423,9.982 4.183 C 10.007 4.012,10.012 4.007,10.183 3.982 C 10.423 3.946,10.713 3.740,10.859 3.503 C 10.966 3.329,10.980 3.271,10.980 3.003 C 10.980 2.745,10.964 2.672,10.871 2.514 C 10.731 2.276,10.485 2.096,10.219 2.036 C 10.014 1.990,10.008 1.985,9.982 1.825 C 9.926 1.473,9.646 1.162,9.290 1.055 C 9.068 0.988,8.913 0.989,8.695 1.057 M18.360 1.141 C 17.840 1.248,17.336 1.469,16.891 1.785 C 16.653 1.955,3.029 15.562,2.812 15.847 C 2.585 16.145,2.385 16.702,1.715 18.900 C 1.047 21.092,1.020 21.193,1.021 21.520 C 1.021 21.807,1.039 21.898,1.133 22.104 C 1.275 22.413,1.585 22.721,1.900 22.868 C 2.103 22.962,2.192 22.980,2.480 22.980 C 2.806 22.980,2.913 22.952,5.100 22.286 C 7.761 21.477,7.921 21.412,8.484 20.906 C 8.691 20.720,11.833 17.592,15.466 13.954 C 21.256 8.158,22.100 7.297,22.296 6.995 C 22.552 6.599,22.649 6.389,22.785 5.940 C 23.278 4.313,22.571 2.501,21.098 1.614 C 20.766 1.414,20.270 1.217,19.912 1.143 C 19.537 1.066,18.730 1.065,18.360 1.141 M19.646 3.137 C 20.045 3.258,20.393 3.520,20.632 3.877 C 20.841 4.190,20.920 4.468,20.920 4.886 C 20.919 5.563,20.801 5.760,19.793 6.780 L 19.003 7.580 17.711 6.289 L 16.420 4.998 17.200 4.225 C 18.004 3.428,18.197 3.274,18.540 3.155 C 18.791 3.068,19.387 3.059,19.646 3.137 M3.695 4.057 C 3.466 4.129,3.256 4.299,3.128 4.516 C 3.025 4.692,3.019 4.728,3.007 5.350 L 2.993 6.000 2.443 6.000 C 1.648 6.000,1.366 6.111,1.128 6.516 C 1.037 6.672,1.020 6.746,1.020 7.000 C 1.020 7.256,1.036 7.328,1.131 7.489 C 1.256 7.702,1.449 7.864,1.670 7.943 C 1.768 7.978,2.022 7.997,2.407 7.998 L 2.993 8.000 3.007 8.653 C 3.020 9.300,3.021 9.308,3.141 9.503 C 3.543 10.156,4.457 10.156,4.859 9.503 C 4.979 9.308,4.980 9.300,4.993 8.653 L 5.007 8.000 5.593 7.998 C 5.978 7.997,6.232 7.978,6.330 7.943 C 6.551 7.864,6.744 7.702,6.869 7.489 C 6.964 7.328,6.980 7.256,6.980 7.000 C 6.980 6.746,6.963 6.672,6.872 6.516 C 6.634 6.111,6.352 6.000,5.557 6.000 L 5.007 6.000 4.993 5.350 C 4.981 4.728,4.975 4.692,4.872 4.516 C 4.628 4.101,4.150 3.915,3.695 4.057 M16.300 7.720 L 17.580 9.000 12.322 14.258 C 8.677 17.903,7.008 19.545,6.882 19.612 C 6.677 19.721,3.329 20.743,3.294 20.707 C 3.270 20.683,4.235 17.452,4.348 17.180 C 4.397 17.060,5.729 15.703,9.696 11.730 C 12.602 8.820,14.988 6.440,15.000 6.440 C 15.011 6.440,15.596 7.016,16.300 7.720 M19.695 14.057 C 19.466 14.129,19.256 14.299,19.128 14.516 C 19.025 14.692,19.019 14.728,19.007 15.350 L 18.993 16.000 18.443 16.000 C 17.648 16.000,17.366 16.111,17.128 16.516 C 17.037 16.672,17.020 16.746,17.020 17.000 C 17.020 17.256,17.036 17.328,17.131 17.489 C 17.256 17.702,17.449 17.864,17.670 17.943 C 17.768 17.978,18.022 17.997,18.407 17.998 L 18.993 18.000 19.007 18.653 C 19.020 19.300,19.021 19.308,19.141 19.503 C 19.209 19.613,19.346 19.756,19.452 19.828 C 19.923 20.144,20.554 19.999,20.859 19.503 C 20.979 19.308,20.980 19.300,20.993 18.653 L 21.007 18.000 21.593 17.998 C 21.978 17.997,22.232 17.978,22.330 17.943 C 22.551 17.864,22.744 17.702,22.869 17.489 C 22.964 17.328,22.980 17.256,22.980 17.000 C 22.980 16.746,22.963 16.672,22.872 16.516 C 22.634 16.111,22.352 16.000,21.557 16.000 L 21.007 16.000 20.993 15.350 C 20.981 14.728,20.975 14.692,20.872 14.516 C 20.628 14.101,20.150 13.915,19.695 14.057 " stroke="none" fill-rule="evenodd" fill="#000000"></path></svg>