<svg  xmlns="http://www.w3.org/2000/svg" width="24" height="24" viewBox="0 0 24 24" fill="none" stroke="currentColor" stroke-width="2" stroke-linecap="round" stroke-linejoin="round"><path d="M9.511 1.060 C 9.189 1.141,8.903 1.295,8.669 1.513 C 8.384 1.778,2.207 11.046,2.106 11.360 C 1.944 11.862,1.981 12.397,2.210 12.880 C 2.364 13.206,2.771 13.623,3.080 13.772 C 3.555 14.000,3.549 14.000,6.388 14.000 L 9.000 14.000 9.000 15.000 L 9.000 16.000 6.370 16.002 C 4.018 16.004,3.712 16.012,3.477 16.073 C 2.780 16.255,2.185 16.885,2.036 17.597 C 1.978 17.876,2.009 18.548,2.099 18.980 C 2.516 20.972,4.025 22.476,6.040 22.907 C 6.360 22.976,6.717 22.980,12.000 22.980 C 17.283 22.980,17.640 22.976,17.960 22.907 C 20.245 22.418,21.877 20.527,21.988 18.240 C 22.022 17.543,21.874 17.093,21.465 16.653 C 21.198 16.366,20.870 16.164,20.523 16.073 C 20.282 16.010,19.873 16.004,15.630 16.002 L 11.000 16.000 11.000 15.000 L 11.000 14.000 15.630 14.000 C 20.668 13.999,20.442 14.009,20.914 13.772 C 21.038 13.711,21.258 13.543,21.403 13.400 C 22.082 12.731,22.188 11.688,21.658 10.890 C 21.558 10.739,20.057 9.364,16.398 6.070 C 13.581 3.534,11.177 1.393,11.055 1.311 C 10.933 1.228,10.741 1.132,10.627 1.097 C 10.334 1.007,9.791 0.989,9.511 1.060 M15.570 8.016 C 17.985 10.188,19.960 11.972,19.960 11.982 C 19.960 11.992,17.944 12.000,15.480 12.000 L 11.000 12.000 11.000 7.953 L 11.000 3.906 11.090 3.987 C 11.139 4.032,13.155 5.845,15.570 8.016 M9.000 8.260 L 9.000 12.000 6.500 12.000 L 4.000 12.000 6.490 8.261 C 7.859 6.205,8.985 4.522,8.990 4.521 C 8.995 4.521,9.000 6.203,9.000 8.260 M19.982 18.286 C 19.862 19.505,19.030 20.515,17.840 20.886 L 17.540 20.980 12.000 20.980 L 6.460 20.980 6.160 20.886 C 5.578 20.705,5.107 20.391,4.695 19.911 C 4.320 19.473,4.078 18.893,4.018 18.286 L 3.990 18.000 12.000 18.000 L 20.010 18.000 19.982 18.286 " stroke="none" fill-rule="evenodd" fill="#000000"></path></svg>