<svg  xmlns="http://www.w3.org/2000/svg" width="24" height="24" viewBox="0 0 24 24" fill="none" stroke="currentColor" stroke-width="2" stroke-linecap="round" stroke-linejoin="round"><path d="M11.640 1.023 C 10.968 1.144,11.083 1.090,8.200 2.628 C 7.045 3.244,5.929 3.838,5.720 3.949 C 3.270 5.241,3.192 5.292,3.062 5.671 C 2.829 6.357,3.375 7.059,4.091 6.990 C 4.224 6.977,4.412 6.909,4.647 6.787 L 5.001 6.604 4.990 8.528 L 4.980 10.452 3.380 11.426 C 1.648 12.481,1.443 12.638,1.226 13.086 C 0.993 13.565,0.995 13.532,1.009 16.688 L 1.021 19.580 1.115 19.860 C 1.444 20.849,2.184 21.582,3.160 21.886 L 3.460 21.980 12.000 21.980 L 20.540 21.980 20.840 21.886 C 21.816 21.582,22.556 20.849,22.885 19.860 L 22.979 19.580 22.991 16.688 C 23.005 13.532,23.007 13.565,22.774 13.086 C 22.557 12.638,22.352 12.481,20.620 11.426 L 19.020 10.452 19.010 8.528 L 18.999 6.604 19.353 6.787 C 19.588 6.909,19.776 6.977,19.909 6.990 C 20.625 7.059,21.171 6.357,20.938 5.671 C 20.808 5.292,20.710 5.228,18.240 3.928 C 18.009 3.806,16.803 3.165,15.560 2.502 C 13.117 1.201,13.096 1.191,12.740 1.099 C 12.498 1.037,11.824 0.990,11.640 1.023 M12.387 3.091 C 12.502 3.140,13.586 3.710,14.797 4.358 L 17.000 5.535 17.000 12.768 L 17.000 20.000 16.003 20.000 L 15.007 20.000 14.991 18.710 C 14.976 17.498,14.969 17.403,14.884 17.140 C 14.565 16.165,13.812 15.415,12.861 15.125 C 12.588 15.042,12.458 15.027,12.000 15.027 C 11.542 15.027,11.412 15.042,11.139 15.125 C 10.188 15.415,9.435 16.165,9.116 17.140 C 9.031 17.403,9.024 17.498,9.009 18.710 L 8.993 20.000 7.997 20.000 L 7.000 20.000 7.000 12.768 L 7.000 5.535 9.203 4.358 C 10.414 3.710,11.498 3.140,11.613 3.091 C 11.727 3.042,11.901 3.002,12.000 3.002 C 12.099 3.002,12.273 3.042,12.387 3.091 M11.499 6.040 C 10.363 6.246,9.460 7.049,9.114 8.160 C 8.979 8.594,8.979 9.406,9.114 9.840 C 9.421 10.826,10.174 11.579,11.160 11.886 C 11.594 12.021,12.406 12.021,12.840 11.886 C 13.826 11.579,14.579 10.826,14.886 9.840 C 15.021 9.406,15.021 8.594,14.886 8.160 C 14.581 7.179,13.810 6.407,12.861 6.129 C 12.500 6.023,11.832 5.980,11.499 6.040 M12.310 8.061 C 12.688 8.173,13.000 8.598,13.000 9.001 C 13.000 9.331,12.784 9.696,12.484 9.872 C 12.328 9.963,12.254 9.980,12.000 9.980 C 11.746 9.980,11.672 9.963,11.516 9.872 C 10.935 9.530,10.833 8.774,11.304 8.303 C 11.583 8.024,11.916 7.944,12.310 8.061 M5.000 16.403 L 5.000 20.007 4.350 19.993 C 3.728 19.981,3.692 19.975,3.516 19.872 C 3.415 19.813,3.283 19.700,3.224 19.621 C 2.995 19.322,2.998 19.367,3.010 16.565 L 3.020 13.991 3.980 13.399 C 4.508 13.074,4.954 12.806,4.970 12.804 C 4.986 12.802,5.000 14.422,5.000 16.403 M20.005 13.397 L 20.980 13.994 20.992 16.507 C 21.000 18.219,20.990 19.085,20.961 19.224 C 20.905 19.484,20.724 19.731,20.486 19.871 C 20.307 19.976,20.274 19.981,19.650 19.993 L 19.000 20.007 19.000 16.403 C 19.000 14.422,19.007 12.800,19.015 12.800 C 19.024 12.800,19.470 13.069,20.005 13.397 M12.310 17.061 C 12.452 17.103,12.571 17.178,12.697 17.303 C 12.978 17.584,13.000 17.703,13.000 18.947 L 13.000 20.000 12.000 20.000 L 11.000 20.000 11.000 18.947 C 11.000 17.702,11.022 17.585,11.304 17.303 C 11.583 17.024,11.916 16.944,12.310 17.061 " stroke="none" fill-rule="evenodd" fill="#000000"></path></svg>