<svg  xmlns="http://www.w3.org/2000/svg" width="24" height="24" viewBox="0 0 24 24" fill="none" stroke="currentColor" stroke-width="2" stroke-linecap="round" stroke-linejoin="round"><path d="M6.499 1.040 C 5.363 1.246,4.460 2.049,4.114 3.160 C 3.979 3.594,3.979 4.406,4.114 4.840 C 4.421 5.826,5.174 6.579,6.160 6.886 C 6.594 7.021,7.406 7.021,7.840 6.886 C 8.826 6.579,9.579 5.826,9.886 4.840 C 10.021 4.406,10.021 3.594,9.886 3.160 C 9.581 2.179,8.810 1.407,7.861 1.129 C 7.500 1.023,6.832 0.980,6.499 1.040 M12.670 1.057 C 12.029 1.286,11.802 2.076,12.221 2.625 C 12.379 2.832,12.616 2.944,13.100 3.041 C 14.323 3.285,15.371 3.845,16.224 4.712 C 17.211 5.714,17.820 7.007,17.959 8.394 C 18.011 8.916,18.012 15.031,17.961 15.564 C 17.702 18.217,15.808 20.317,13.160 20.885 C 12.554 21.015,11.446 21.015,10.840 20.885 C 8.739 20.434,7.055 18.984,6.361 17.029 C 6.029 16.095,6.029 16.091,6.003 12.700 L 5.980 9.700 5.871 9.514 C 5.479 8.848,4.521 8.848,4.129 9.514 L 4.020 9.700 4.008 12.520 C 3.999 14.384,4.010 15.489,4.040 15.780 C 4.189 17.265,4.760 18.702,5.674 19.900 C 5.933 20.239,6.606 20.925,6.960 21.211 C 8.378 22.357,10.190 23.000,12.000 23.000 C 13.810 23.000,15.622 22.357,17.040 21.211 C 17.394 20.925,18.067 20.239,18.326 19.900 C 19.240 18.703,19.809 17.269,19.961 15.780 C 19.992 15.476,20.000 14.224,19.988 11.720 C 19.970 7.903,19.973 7.966,19.782 7.140 C 19.192 4.598,17.290 2.408,14.854 1.468 C 14.419 1.299,14.037 1.190,13.506 1.081 C 13.050 0.987,12.879 0.983,12.670 1.057 M7.310 3.061 C 7.688 3.173,8.000 3.598,8.000 4.001 C 8.000 4.331,7.784 4.696,7.484 4.872 C 7.328 4.963,7.254 4.980,7.000 4.980 C 6.746 4.980,6.672 4.963,6.516 4.872 C 5.935 4.530,5.833 3.774,6.304 3.303 C 6.583 3.024,6.916 2.944,7.310 3.061 M11.670 6.375 C 11.446 6.458,11.255 6.620,11.131 6.831 L 11.020 7.020 11.020 8.663 L 11.020 10.306 11.141 10.503 C 11.543 11.156,12.457 11.156,12.859 10.503 L 12.980 10.306 12.992 8.754 C 12.999 7.766,12.988 7.145,12.962 7.047 C 12.902 6.825,12.712 6.582,12.500 6.458 C 12.277 6.327,11.899 6.289,11.670 6.375 " stroke="none" fill-rule="evenodd" fill="#000000"></path></svg>