<svg  xmlns="http://www.w3.org/2000/svg" width="24" height="24" viewBox="0 0 24 24" fill="none" stroke="currentColor" stroke-width="2" stroke-linecap="round" stroke-linejoin="round"><path d="M11.345 3.043 C 8.921 3.257,6.726 4.793,5.684 7.004 C 4.779 8.924,4.778 11.098,5.683 12.997 C 5.994 13.650,6.309 14.120,6.831 14.710 L 7.087 15.000 4.990 15.000 C 2.714 15.000,2.667 15.004,2.382 15.221 C 2.302 15.282,2.187 15.415,2.128 15.516 C 2.037 15.672,2.020 15.746,2.020 16.000 C 2.020 16.256,2.036 16.328,2.131 16.489 C 2.256 16.702,2.449 16.864,2.670 16.943 C 2.791 16.986,3.514 16.997,6.403 16.998 C 10.444 17.000,10.242 17.015,10.591 16.701 C 10.864 16.455,10.978 16.191,10.978 15.800 C 10.978 15.225,10.728 14.892,10.090 14.620 C 8.922 14.120,8.094 13.344,7.530 12.218 C 7.150 11.461,7.022 10.912,7.022 10.040 C 7.023 9.134,7.172 8.478,7.545 7.740 C 8.218 6.412,9.489 5.432,10.954 5.111 C 11.462 5.000,12.496 4.992,12.980 5.096 C 14.026 5.319,14.903 5.810,15.642 6.585 C 16.274 7.248,16.686 8.035,16.885 8.963 C 17.005 9.522,17.015 10.494,16.905 11.000 C 16.632 12.253,15.847 13.443,14.855 14.108 C 14.506 14.341,14.298 14.454,13.910 14.620 C 13.272 14.892,13.022 15.225,13.022 15.800 C 13.022 16.191,13.136 16.455,13.409 16.701 C 13.758 17.015,13.556 17.000,17.597 16.998 C 20.486 16.997,21.209 16.986,21.330 16.943 C 21.551 16.864,21.744 16.702,21.869 16.489 C 21.964 16.328,21.980 16.256,21.980 16.000 C 21.980 15.746,21.963 15.672,21.872 15.516 C 21.813 15.415,21.698 15.282,21.618 15.221 C 21.333 15.004,21.286 15.000,19.011 15.000 L 16.915 15.000 17.242 14.630 C 19.105 12.522,19.522 9.517,18.305 6.980 C 17.937 6.213,17.523 5.633,16.918 5.035 C 15.434 3.569,13.443 2.857,11.345 3.043 M2.695 19.057 C 2.466 19.129,2.256 19.299,2.128 19.516 C 2.037 19.672,2.020 19.746,2.020 20.000 C 2.020 20.256,2.036 20.328,2.131 20.489 C 2.256 20.702,2.449 20.864,2.670 20.943 C 2.893 21.023,21.107 21.023,21.330 20.943 C 21.551 20.864,21.744 20.702,21.869 20.489 C 21.964 20.328,21.980 20.256,21.980 20.000 C 21.980 19.746,21.963 19.672,21.872 19.516 C 21.740 19.293,21.533 19.128,21.290 19.055 C 21.027 18.976,2.947 18.978,2.695 19.057 " stroke="none" fill-rule="evenodd" fill="#000000"></path></svg>