<svg  xmlns="http://www.w3.org/2000/svg" width="24" height="24" viewBox="0 0 24 24" fill="none" stroke="currentColor" stroke-width="2" stroke-linecap="round" stroke-linejoin="round"><path d="M6.174 5.039 C 5.797 5.119,5.380 5.437,5.191 5.789 C 5.135 5.894,4.175 8.175,3.058 10.859 C 1.670 14.192,1.021 15.797,1.009 15.924 C 0.956 16.477,1.438 17.000,2.000 17.000 C 2.241 17.000,2.521 16.881,2.697 16.704 C 2.837 16.563,2.933 16.365,3.384 15.280 L 3.908 14.020 6.500 14.020 L 9.092 14.020 9.616 15.280 C 10.067 16.365,10.163 16.563,10.303 16.704 C 10.479 16.881,10.759 17.000,11.000 17.000 C 11.562 17.000,12.044 16.477,11.991 15.924 C 11.979 15.797,11.330 14.192,9.942 10.859 C 8.825 8.175,7.865 5.894,7.809 5.789 C 7.676 5.541,7.372 5.259,7.108 5.138 C 6.870 5.030,6.436 4.984,6.174 5.039 M7.385 9.929 C 7.837 11.013,8.217 11.922,8.228 11.950 C 8.244 11.990,7.883 12.000,6.500 12.000 C 5.117 12.000,4.756 11.990,4.772 11.950 C 4.783 11.922,5.165 11.009,5.620 9.920 C 6.075 8.831,6.457 7.916,6.470 7.886 C 6.502 7.807,6.475 7.748,7.385 9.929 M17.900 8.042 C 15.603 8.352,13.898 10.402,14.012 12.717 C 14.110 14.711,15.452 16.339,17.437 16.871 C 17.772 16.961,17.902 16.974,18.480 16.976 C 19.033 16.978,19.197 16.964,19.488 16.890 C 19.950 16.774,20.398 16.598,20.736 16.400 C 20.888 16.311,21.014 16.243,21.016 16.249 C 21.087 16.435,21.266 16.690,21.396 16.789 C 21.945 17.211,22.783 16.937,22.961 16.277 C 22.988 16.178,22.998 14.838,22.991 12.413 L 22.980 8.700 22.871 8.514 C 22.563 7.990,21.870 7.852,21.391 8.218 C 21.255 8.322,21.072 8.582,21.017 8.750 C 21.015 8.755,20.872 8.680,20.700 8.581 C 20.328 8.369,19.850 8.190,19.416 8.100 C 19.028 8.020,18.277 7.991,17.900 8.042 M19.020 10.060 C 19.741 10.211,20.395 10.713,20.715 11.362 C 21.087 12.118,21.090 12.878,20.723 13.620 C 20.439 14.195,19.932 14.646,19.320 14.868 C 19.052 14.965,18.965 14.976,18.500 14.976 C 18.035 14.976,17.948 14.965,17.680 14.868 C 17.068 14.646,16.561 14.195,16.277 13.620 C 15.347 11.740,16.972 9.631,19.020 10.060 " stroke="none" fill-rule="evenodd" fill="#000000"></path></svg>