<svg  xmlns="http://www.w3.org/2000/svg" width="24" height="24" viewBox="0 0 24 24" fill="none" stroke="currentColor" stroke-width="2" stroke-linecap="round" stroke-linejoin="round"><path d="M6.174 5.039 C 5.797 5.119,5.380 5.437,5.191 5.789 C 5.135 5.894,4.175 8.175,3.058 10.859 C 1.670 14.192,1.021 15.797,1.009 15.924 C 0.956 16.477,1.438 17.000,2.000 17.000 C 2.241 17.000,2.521 16.881,2.697 16.704 C 2.837 16.563,2.933 16.365,3.384 15.280 L 3.908 14.020 6.500 14.020 L 9.092 14.020 9.616 15.280 C 10.067 16.365,10.163 16.563,10.303 16.704 C 10.479 16.881,10.759 17.000,11.000 17.000 C 11.562 17.000,12.044 16.477,11.991 15.924 C 11.979 15.797,11.330 14.192,9.942 10.859 C 8.825 8.175,7.865 5.894,7.809 5.789 C 7.676 5.541,7.372 5.259,7.108 5.138 C 6.870 5.030,6.436 4.984,6.174 5.039 M17.964 7.063 C 17.845 7.095,17.656 7.170,17.544 7.230 C 17.256 7.384,16.836 7.812,16.709 8.083 C 16.546 8.430,14.032 15.718,14.010 15.910 C 13.966 16.275,14.172 16.670,14.508 16.867 C 14.669 16.962,14.745 16.980,14.981 16.980 C 15.493 16.980,15.821 16.720,16.002 16.172 C 16.051 16.022,16.162 15.697,16.250 15.450 L 16.408 15.000 18.500 15.000 L 20.592 15.000 20.750 15.450 C 20.838 15.697,20.949 16.022,20.998 16.172 C 21.179 16.720,21.507 16.980,22.019 16.980 C 22.255 16.980,22.331 16.962,22.492 16.867 C 22.828 16.670,23.034 16.275,22.990 15.910 C 22.968 15.718,20.454 8.430,20.291 8.083 C 20.164 7.813,19.744 7.384,19.457 7.231 C 19.035 7.006,18.429 6.938,17.964 7.063 M7.385 9.929 C 7.837 11.013,8.217 11.922,8.228 11.950 C 8.244 11.990,7.883 12.000,6.500 12.000 C 5.117 12.000,4.756 11.990,4.772 11.950 C 4.783 11.922,5.165 11.009,5.620 9.920 C 6.075 8.831,6.457 7.916,6.470 7.886 C 6.502 7.807,6.475 7.748,7.385 9.929 M19.218 11.019 C 19.582 12.072,19.880 12.948,19.880 12.967 C 19.880 12.985,19.259 13.000,18.500 13.000 C 17.741 13.000,17.120 12.985,17.120 12.967 C 17.120 12.943,18.252 9.635,18.464 9.040 C 18.483 8.987,18.490 8.988,18.521 9.043 C 18.540 9.077,18.854 9.967,19.218 11.019 " stroke="none" fill-rule="evenodd" fill="#000000"></path></svg>