<svg  xmlns="http://www.w3.org/2000/svg" width="24" height="24" viewBox="0 0 24 24" fill="none" stroke="currentColor" stroke-width="2" stroke-linecap="round" stroke-linejoin="round"><path d="M3.695 1.057 C 3.466 1.129,3.256 1.299,3.128 1.516 L 3.020 1.700 3.020 12.003 L 3.020 22.306 3.141 22.503 C 3.543 23.156,4.457 23.156,4.859 22.503 C 4.979 22.308,4.980 22.300,4.993 21.653 L 5.007 21.000 12.000 21.000 L 18.993 21.000 19.007 21.653 C 19.020 22.300,19.021 22.308,19.141 22.503 C 19.543 23.156,20.457 23.156,20.859 22.503 L 20.980 22.306 20.980 12.003 L 20.980 1.700 20.871 1.514 C 20.479 0.848,19.521 0.848,19.129 1.514 C 19.024 1.693,19.019 1.726,19.007 2.350 L 18.993 3.000 12.000 3.000 L 5.007 3.000 4.993 2.350 C 4.981 1.728,4.975 1.692,4.872 1.516 C 4.628 1.101,4.150 0.915,3.695 1.057 M19.000 8.000 L 19.000 11.000 16.000 11.000 L 13.000 11.000 12.999 9.890 C 12.999 8.691,12.970 8.456,12.781 8.083 C 12.551 7.628,12.022 7.203,11.523 7.073 C 11.134 6.972,8.866 6.972,8.477 7.073 C 7.806 7.249,7.238 7.823,7.060 8.508 C 7.014 8.685,7.000 8.994,7.000 9.868 L 7.000 11.000 6.000 11.000 L 5.000 11.000 5.000 8.000 L 5.000 5.000 12.000 5.000 L 19.000 5.000 19.000 8.000 M11.000 10.000 L 11.000 11.000 10.000 11.000 L 9.000 11.000 9.000 10.000 L 9.000 9.000 10.000 9.000 L 11.000 9.000 11.000 10.000 M19.000 16.000 L 19.000 19.000 18.000 19.000 L 17.000 19.000 16.999 17.890 C 16.999 16.691,16.970 16.456,16.781 16.083 C 16.551 15.628,16.022 15.203,15.523 15.073 C 15.134 14.972,12.866 14.972,12.477 15.073 C 11.806 15.249,11.238 15.823,11.060 16.508 C 11.014 16.685,11.000 16.994,11.000 17.868 L 11.000 19.000 8.000 19.000 L 5.000 19.000 5.000 16.000 L 5.000 13.000 12.000 13.000 L 19.000 13.000 19.000 16.000 M15.000 18.000 L 15.000 19.000 14.000 19.000 L 13.000 19.000 13.000 18.000 L 13.000 17.000 14.000 17.000 L 15.000 17.000 15.000 18.000 " stroke="none" fill-rule="evenodd" fill="#000000"></path></svg>