<svg  xmlns="http://www.w3.org/2000/svg" width="24" height="24" viewBox="0 0 24 24" fill="none" stroke="currentColor" stroke-width="2" stroke-linecap="round" stroke-linejoin="round"><path d="M5.499 1.042 C 4.388 1.232,3.488 2.024,3.114 3.140 L 3.020 3.420 3.009 8.957 C 2.997 15.113,2.980 14.718,3.268 15.015 C 3.495 15.249,3.696 15.337,4.000 15.337 C 4.304 15.337,4.505 15.249,4.731 15.015 C 5.017 14.721,5.000 15.092,5.000 9.200 C 5.000 3.220,4.979 3.627,5.303 3.303 C 5.621 2.986,5.423 3.000,9.447 3.000 L 13.000 3.000 13.000 5.132 C 13.000 7.443,13.004 7.494,13.225 7.930 C 13.361 8.199,13.801 8.639,14.070 8.775 C 14.506 8.996,14.557 9.000,16.868 9.000 L 19.000 9.000 19.000 14.554 C 19.000 19.144,18.990 20.139,18.945 20.290 C 18.872 20.533,18.707 20.740,18.484 20.872 L 18.300 20.980 14.840 21.000 C 11.395 21.020,11.379 21.020,11.219 21.106 C 10.852 21.303,10.663 21.607,10.663 22.000 C 10.663 22.304,10.751 22.505,10.985 22.732 C 11.277 23.015,11.106 23.004,15.045 22.991 L 18.580 22.980 18.860 22.886 C 19.850 22.554,20.582 21.816,20.886 20.840 L 20.980 20.540 20.980 13.980 L 20.980 7.420 20.868 7.060 C 20.732 6.627,20.505 6.192,20.241 5.863 C 19.921 5.464,16.162 1.748,15.920 1.592 C 15.585 1.376,15.319 1.252,14.932 1.131 L 14.580 1.020 10.140 1.014 C 7.698 1.011,5.609 1.024,5.499 1.042 M16.800 5.220 L 18.580 7.000 16.790 7.000 L 15.000 7.000 15.000 5.220 C 15.000 4.241,15.005 3.440,15.010 3.440 C 15.016 3.440,15.821 4.241,16.800 5.220 M7.695 12.055 C 7.464 12.130,7.255 12.300,7.128 12.516 L 7.020 12.700 7.009 14.932 C 6.998 17.020,6.993 17.163,6.929 17.145 C 6.891 17.134,6.779 17.102,6.680 17.074 C 6.574 17.044,6.287 17.024,5.980 17.025 C 5.548 17.027,5.406 17.044,5.139 17.125 C 4.179 17.417,3.419 18.181,3.114 19.160 C 2.979 19.594,2.979 20.406,3.114 20.840 C 3.421 21.826,4.174 22.579,5.160 22.886 C 5.594 23.021,6.406 23.021,6.840 22.886 C 7.815 22.582,8.555 21.849,8.886 20.860 L 8.979 20.580 8.991 17.592 L 9.003 14.605 9.852 15.023 C 10.799 15.489,10.951 15.531,11.287 15.421 C 11.743 15.272,11.980 14.943,11.980 14.460 C 11.980 14.225,11.962 14.149,11.867 13.988 C 11.805 13.883,11.687 13.748,11.604 13.688 C 11.521 13.629,10.743 13.233,9.874 12.808 C 8.165 11.973,8.058 11.936,7.695 12.055 M6.310 19.061 C 6.688 19.173,7.000 19.598,7.000 20.001 C 7.000 20.331,6.784 20.696,6.484 20.872 C 6.328 20.963,6.254 20.980,6.000 20.980 C 5.746 20.980,5.672 20.963,5.516 20.872 C 4.935 20.530,4.833 19.774,5.304 19.303 C 5.583 19.024,5.916 18.944,6.310 19.061 " stroke="none" fill-rule="evenodd" fill="#000000"></path></svg>