<svg  xmlns="http://www.w3.org/2000/svg" width="24" height="24" viewBox="0 0 24 24" fill="none" stroke="currentColor" stroke-width="2" stroke-linecap="round" stroke-linejoin="round"><path d="M2.695 2.057 C 2.466 2.129,2.256 2.299,2.128 2.516 L 2.020 2.700 2.020 11.120 L 2.020 19.540 2.114 19.840 C 2.418 20.816,3.149 21.554,4.140 21.886 L 4.420 21.980 12.773 21.991 C 18.322 21.998,21.177 21.988,21.277 21.961 C 21.498 21.901,21.739 21.710,21.867 21.492 C 21.964 21.327,21.980 21.257,21.980 21.000 C 21.980 20.746,21.963 20.672,21.872 20.516 C 21.761 20.328,21.572 20.158,21.373 20.070 C 21.284 20.031,19.486 20.016,12.980 20.000 L 4.700 19.980 4.516 19.872 C 4.328 19.761,4.158 19.572,4.070 19.373 C 4.031 19.284,4.016 17.486,4.000 10.980 L 3.980 2.700 3.872 2.516 C 3.628 2.101,3.150 1.915,2.695 2.057 M15.477 4.073 C 14.806 4.249,14.238 4.823,14.060 5.508 C 14.008 5.705,14.000 6.464,14.000 11.000 C 14.000 16.733,13.990 16.466,14.225 16.930 C 14.361 17.199,14.801 17.639,15.070 17.775 C 15.479 17.982,15.632 18.000,17.000 18.000 C 18.368 18.000,18.521 17.982,18.930 17.775 C 19.196 17.640,19.638 17.200,19.771 16.937 C 20.010 16.466,20.000 16.732,19.999 11.014 C 19.999 5.337,20.006 5.525,19.781 5.083 C 19.551 4.628,19.022 4.203,18.523 4.073 C 18.134 3.972,15.866 3.972,15.477 4.073 M18.000 7.000 L 18.000 8.000 17.000 8.000 L 16.000 8.000 16.000 7.000 L 16.000 6.000 17.000 6.000 L 18.000 6.000 18.000 7.000 M7.477 7.073 C 6.806 7.249,6.238 7.823,6.060 8.508 C 6.009 8.703,6.000 9.293,6.000 12.500 C 6.000 16.593,5.994 16.474,6.225 16.930 C 6.361 17.199,6.801 17.639,7.070 17.775 C 7.479 17.982,7.632 18.000,9.000 18.000 C 10.368 18.000,10.521 17.982,10.930 17.775 C 11.196 17.640,11.638 17.200,11.771 16.937 C 12.006 16.474,12.000 16.585,11.999 12.514 C 11.999 8.471,12.001 8.516,11.781 8.083 C 11.551 7.628,11.022 7.203,10.523 7.073 C 10.134 6.972,7.866 6.972,7.477 7.073 M10.000 10.500 L 10.000 12.000 9.000 12.000 L 8.000 12.000 8.000 10.500 L 8.000 9.000 9.000 9.000 L 10.000 9.000 10.000 10.500 M18.000 13.000 L 18.000 16.000 17.000 16.000 L 16.000 16.000 16.000 13.000 L 16.000 10.000 17.000 10.000 L 18.000 10.000 18.000 13.000 M10.000 15.000 L 10.000 16.000 9.000 16.000 L 8.000 16.000 8.000 15.000 L 8.000 14.000 9.000 14.000 L 10.000 14.000 10.000 15.000 " stroke="none" fill-rule="evenodd" fill="#000000"></path></svg>