<svg  xmlns="http://www.w3.org/2000/svg" width="24" height="24" viewBox="0 0 24 24" fill="none" stroke="currentColor" stroke-width="2" stroke-linecap="round" stroke-linejoin="round"><path d="M10.460 2.035 C 10.079 2.056,9.941 2.081,9.791 2.154 C 9.067 2.507,9.058 3.556,9.774 3.929 C 9.937 4.014,9.975 4.015,11.960 4.021 C 14.260 4.027,14.219 4.032,14.514 3.697 C 14.988 3.159,14.746 2.305,14.060 2.097 C 13.901 2.049,13.560 2.033,12.400 2.022 C 11.597 2.014,10.724 2.020,10.460 2.035 M5.572 3.058 C 4.739 3.475,4.029 4.078,3.498 4.820 C 3.206 5.228,2.902 5.814,2.844 6.079 C 2.718 6.653,3.213 7.252,3.811 7.251 C 4.259 7.250,4.524 7.055,4.802 6.523 C 5.210 5.744,5.744 5.210,6.521 4.804 C 7.053 4.525,7.250 4.259,7.251 3.816 C 7.252 3.262,6.817 2.840,6.245 2.840 C 6.036 2.840,5.952 2.867,5.572 3.058 M17.287 2.944 C 16.707 3.233,16.574 3.985,17.010 4.502 C 17.067 4.569,17.218 4.674,17.347 4.736 C 18.192 5.143,18.733 5.666,19.199 6.524 C 19.383 6.863,19.460 6.963,19.612 7.067 C 20.217 7.477,21.002 7.160,21.155 6.445 C 21.209 6.193,21.159 5.984,20.938 5.540 C 20.419 4.495,19.517 3.603,18.428 3.058 C 18.041 2.864,17.966 2.840,17.745 2.840 C 17.557 2.840,17.445 2.866,17.287 2.944 M2.657 9.316 C 2.397 9.434,2.213 9.622,2.113 9.872 C 2.024 10.097,2.023 10.122,2.021 11.980 C 2.020 13.673,2.027 13.880,2.090 14.061 C 2.279 14.601,2.820 14.877,3.368 14.713 C 3.589 14.647,3.854 14.400,3.948 14.172 C 4.023 13.989,4.026 13.886,4.020 11.960 C 4.014 9.996,4.012 9.936,3.931 9.780 C 3.693 9.324,3.108 9.111,2.657 9.316 M20.540 9.335 C 20.296 9.451,20.148 9.602,20.049 9.840 C 19.979 10.009,19.974 10.146,19.980 12.040 C 19.985 14.023,19.987 14.063,20.071 14.226 C 20.478 15.009,21.614 14.908,21.910 14.061 C 21.973 13.880,21.980 13.672,21.980 12.000 C 21.980 10.328,21.973 10.120,21.910 9.939 C 21.706 9.355,21.081 9.079,20.540 9.335 M3.355 16.871 C 2.949 17.082,2.747 17.540,2.863 17.985 C 2.993 18.483,3.551 19.343,4.104 19.896 C 4.665 20.457,5.589 21.045,6.085 21.157 C 6.733 21.302,7.376 20.650,7.234 19.991 C 7.159 19.641,6.991 19.453,6.527 19.201 C 5.706 18.755,5.230 18.280,4.802 17.480 C 4.675 17.243,4.531 17.032,4.459 16.977 C 4.132 16.727,3.710 16.687,3.355 16.871 M19.802 16.823 C 19.547 16.934,19.401 17.080,19.254 17.373 C 18.819 18.236,18.336 18.732,17.474 19.200 C 17.010 19.453,16.841 19.641,16.766 19.989 C 16.641 20.575,17.127 21.172,17.729 21.171 C 18.277 21.171,19.471 20.413,20.142 19.640 C 20.701 18.996,21.172 18.126,21.171 17.741 C 21.170 17.187,20.737 16.758,20.182 16.762 C 20.049 16.762,19.878 16.790,19.802 16.823 M9.798 20.065 C 8.992 20.438,9.081 21.610,9.939 21.910 C 10.120 21.973,10.328 21.980,12.000 21.980 C 13.672 21.980,13.880 21.973,14.061 21.910 C 14.600 21.721,14.877 21.180,14.714 20.634 C 14.653 20.432,14.433 20.179,14.226 20.072 C 14.064 19.989,14.017 19.987,12.020 19.984 C 10.024 19.980,9.977 19.982,9.798 20.065 " stroke="none" fill-rule="evenodd" fill="#000000"></path></svg>