<svg  xmlns="http://www.w3.org/2000/svg" width="24" height="24" viewBox="0 0 24 24" fill="none" stroke="currentColor" stroke-width="2" stroke-linecap="round" stroke-linejoin="round"><path d="M1.695 2.057 C 1.466 2.129,1.256 2.299,1.128 2.516 L 1.020 2.700 1.020 12.003 L 1.020 21.306 1.141 21.503 C 1.543 22.156,2.457 22.156,2.859 21.503 L 2.980 21.306 2.992 19.653 L 3.003 18.000 4.502 18.000 L 6.000 18.000 6.000 19.132 C 6.000 20.358,6.021 20.528,6.225 20.930 C 6.361 21.199,6.801 21.639,7.070 21.775 C 7.516 22.001,7.499 22.000,10.500 22.000 C 13.501 22.000,13.484 22.001,13.930 21.775 C 14.196 21.640,14.638 21.200,14.771 20.937 C 14.976 20.533,15.000 20.342,15.000 19.126 L 15.000 18.004 17.790 17.991 L 20.580 17.979 20.860 17.885 C 21.849 17.556,22.582 16.816,22.886 15.840 L 22.980 15.540 22.980 11.000 L 22.980 6.460 22.886 6.160 C 22.581 5.182,21.832 4.428,20.861 4.121 L 20.540 4.020 11.773 4.009 L 3.007 3.999 2.993 3.349 C 2.981 2.728,2.975 2.692,2.872 2.516 C 2.628 2.101,2.150 1.915,1.695 2.057 M20.310 6.061 C 20.589 6.144,20.856 6.411,20.939 6.690 C 20.992 6.867,21.000 7.441,21.000 11.001 C 21.000 15.458,21.007 15.319,20.779 15.618 C 20.718 15.698,20.585 15.813,20.484 15.872 L 20.300 15.980 11.650 15.990 L 3.000 16.001 3.000 11.000 L 3.000 6.000 11.553 6.000 C 19.093 6.000,20.130 6.007,20.310 6.061 M7.499 8.040 C 6.363 8.246,5.460 9.049,5.114 10.160 C 4.979 10.594,4.979 11.406,5.114 11.840 C 5.421 12.826,6.174 13.579,7.160 13.886 C 7.594 14.021,8.406 14.021,8.840 13.886 C 9.826 13.579,10.579 12.826,10.886 11.840 C 11.021 11.406,11.021 10.594,10.886 10.160 C 10.581 9.179,9.810 8.407,8.861 8.129 C 8.500 8.023,7.832 7.980,7.499 8.040 M15.499 8.040 C 14.363 8.246,13.460 9.049,13.114 10.160 C 12.979 10.594,12.979 11.406,13.114 11.840 C 13.421 12.826,14.174 13.579,15.160 13.886 C 15.594 14.021,16.406 14.021,16.840 13.886 C 17.826 13.579,18.579 12.826,18.886 11.840 C 19.021 11.406,19.021 10.594,18.886 10.160 C 18.581 9.179,17.810 8.407,16.861 8.129 C 16.500 8.023,15.832 7.980,15.499 8.040 M8.310 10.061 C 8.688 10.173,9.000 10.598,9.000 11.001 C 9.000 11.331,8.784 11.696,8.484 11.872 C 8.328 11.963,8.254 11.980,8.000 11.980 C 7.746 11.980,7.672 11.963,7.516 11.872 C 6.935 11.530,6.833 10.774,7.304 10.303 C 7.583 10.024,7.916 9.944,8.310 10.061 M16.310 10.061 C 16.688 10.173,17.000 10.598,17.000 11.001 C 17.000 11.331,16.784 11.696,16.484 11.872 C 16.328 11.963,16.254 11.980,16.000 11.980 C 15.746 11.980,15.672 11.963,15.516 11.872 C 14.932 11.528,14.831 10.775,15.307 10.299 C 15.582 10.024,15.918 9.944,16.310 10.061 M13.000 19.000 L 13.000 20.000 10.500 20.000 L 8.000 20.000 8.000 19.000 L 8.000 18.000 10.500 18.000 L 13.000 18.000 13.000 19.000 " stroke="none" fill-rule="evenodd" fill="#000000"></path></svg>