<svg  xmlns="http://www.w3.org/2000/svg" width="24" height="24" viewBox="0 0 24 24" fill="none" stroke="currentColor" stroke-width="2" stroke-linecap="round" stroke-linejoin="round"><path d="M5.499 1.042 C 4.378 1.234,3.461 2.048,3.114 3.160 L 3.020 3.460 3.020 5.883 L 3.020 8.306 3.141 8.503 C 3.543 9.156,4.457 9.156,4.859 8.503 L 4.980 8.306 5.000 6.023 C 5.022 3.464,5.008 3.587,5.321 3.283 C 5.625 2.989,5.459 3.000,9.447 3.000 L 13.000 3.000 13.000 5.132 C 13.000 7.443,13.004 7.494,13.225 7.930 C 13.361 8.199,13.801 8.639,14.070 8.775 C 14.506 8.996,14.557 9.000,16.868 9.000 L 19.000 9.000 19.000 14.554 C 19.000 19.144,18.990 20.139,18.945 20.290 C 18.872 20.533,18.707 20.740,18.484 20.872 L 18.300 20.980 13.840 21.000 L 9.380 21.020 9.219 21.106 C 8.852 21.303,8.663 21.607,8.663 22.000 C 8.663 22.304,8.751 22.505,8.985 22.732 C 9.280 23.018,8.996 23.004,14.044 22.991 L 18.580 22.980 18.860 22.886 C 19.851 22.554,20.582 21.816,20.886 20.840 L 20.980 20.540 20.980 13.980 L 20.980 7.420 20.868 7.060 C 20.732 6.627,20.505 6.192,20.241 5.863 C 19.921 5.464,16.162 1.748,15.920 1.592 C 15.585 1.376,15.319 1.252,14.932 1.131 L 14.580 1.020 10.140 1.014 C 7.698 1.011,5.609 1.024,5.499 1.042 M16.800 5.220 L 18.580 7.000 16.790 7.000 L 15.000 7.000 15.000 5.220 C 15.000 4.241,15.005 3.440,15.010 3.440 C 15.016 3.440,15.821 4.241,16.800 5.220 M3.695 11.057 C 3.466 11.129,3.256 11.299,3.128 11.516 L 3.020 11.700 3.000 14.426 L 2.980 17.153 2.660 17.317 C 1.919 17.698,1.363 18.360,1.114 19.160 C 0.979 19.594,0.979 20.406,1.114 20.840 C 1.421 21.826,2.174 22.579,3.160 22.886 C 3.594 23.021,4.406 23.021,4.840 22.886 C 5.826 22.579,6.579 21.826,6.886 20.840 C 7.021 20.406,7.021 19.594,6.886 19.160 C 6.635 18.355,6.078 17.693,5.330 17.313 L 5.000 17.145 5.000 16.073 L 5.000 15.000 5.590 14.998 C 5.977 14.997,6.232 14.978,6.330 14.943 C 6.551 14.864,6.744 14.702,6.869 14.489 C 6.964 14.328,6.980 14.256,6.980 14.000 C 6.980 13.746,6.963 13.672,6.872 13.516 C 6.634 13.111,6.352 13.000,5.557 13.000 L 5.007 13.000 4.993 12.350 C 4.981 11.728,4.975 11.692,4.872 11.516 C 4.628 11.101,4.150 10.915,3.695 11.057 M4.310 19.061 C 4.688 19.173,5.000 19.598,5.000 20.001 C 5.000 20.331,4.784 20.696,4.484 20.872 C 4.328 20.963,4.254 20.980,4.000 20.980 C 3.746 20.980,3.672 20.963,3.516 20.872 C 2.935 20.530,2.833 19.774,3.304 19.303 C 3.583 19.024,3.916 18.944,4.310 19.061 " stroke="none" fill-rule="evenodd" fill="#000000"></path></svg>