<svg  xmlns="http://www.w3.org/2000/svg" width="24" height="24" viewBox="0 0 24 24" fill="none" stroke="currentColor" stroke-width="2" stroke-linecap="round" stroke-linejoin="round"><path d="M15.540 1.023 C 14.478 1.125,13.692 1.335,12.910 1.726 C 10.838 2.762,9.448 4.666,9.074 6.980 C 9.008 7.393,9.008 8.607,9.074 9.020 C 9.574 12.112,11.888 14.426,14.980 14.926 C 15.392 14.992,16.607 14.992,17.020 14.926 C 20.109 14.428,22.428 12.109,22.926 9.020 C 22.954 8.844,22.977 8.385,22.977 8.000 C 22.977 7.056,22.876 6.462,22.573 5.620 C 21.715 3.237,19.581 1.473,17.102 1.098 C 16.726 1.041,15.813 0.997,15.540 1.023 M16.552 3.043 C 18.413 3.246,20.001 4.479,20.680 6.248 C 21.092 7.320,21.085 8.720,20.663 9.793 C 20.120 11.174,18.991 12.256,17.600 12.732 C 17.044 12.922,16.670 12.980,16.000 12.980 C 15.330 12.980,14.956 12.922,14.400 12.732 C 12.808 12.188,11.580 10.864,11.161 9.240 C 10.920 8.307,10.983 7.125,11.320 6.248 C 12.146 4.096,14.274 2.793,16.552 3.043 M14.695 5.057 C 14.466 5.129,14.256 5.299,14.128 5.516 C 14.036 5.672,14.020 5.746,14.020 6.003 C 14.020 6.271,14.034 6.329,14.141 6.503 C 14.288 6.741,14.577 6.946,14.819 6.982 L 14.997 7.009 15.008 8.658 L 15.020 10.306 15.141 10.503 C 15.543 11.156,16.457 11.156,16.859 10.503 L 16.980 10.306 16.980 8.003 L 16.980 5.700 16.872 5.516 C 16.740 5.293,16.533 5.128,16.290 5.055 C 16.050 4.983,14.928 4.984,14.695 5.057 M6.140 9.270 C 5.760 9.314,4.608 9.841,4.060 10.220 C 2.780 11.108,1.828 12.370,1.359 13.801 C 0.792 15.532,0.905 17.329,1.685 18.996 C 2.690 21.141,4.741 22.626,7.132 22.938 C 10.326 23.356,13.427 21.475,14.554 18.436 C 14.763 17.874,14.784 17.732,14.699 17.461 C 14.480 16.767,13.685 16.531,13.092 16.983 C 12.939 17.100,12.882 17.200,12.718 17.646 C 12.422 18.447,12.107 18.943,11.524 19.520 C 10.481 20.554,9.252 21.043,7.840 20.986 C 6.449 20.931,5.312 20.418,4.371 19.424 C 3.679 18.693,3.236 17.808,3.071 16.823 C 2.996 16.379,3.010 15.403,3.096 15.000 C 3.306 14.021,3.827 13.091,4.563 12.382 C 5.099 11.865,5.581 11.571,6.391 11.267 C 6.846 11.097,6.988 10.991,7.139 10.716 C 7.402 10.231,7.200 9.597,6.710 9.370 C 6.523 9.284,6.324 9.249,6.140 9.270 M6.472 13.431 C 5.937 13.708,5.513 13.978,5.377 14.128 C 5.212 14.311,5.101 14.664,5.137 14.889 C 5.218 15.395,5.638 15.760,6.140 15.760 C 6.268 15.760,6.417 15.732,6.489 15.695 C 6.600 15.638,6.619 15.638,6.657 15.690 C 6.681 15.723,7.024 16.314,7.420 17.004 C 8.191 18.347,8.367 18.583,8.665 18.671 C 9.030 18.780,9.436 18.692,9.694 18.448 C 9.959 18.196,10.068 17.749,9.942 17.421 C 9.860 17.204,7.923 13.840,7.766 13.640 C 7.602 13.431,7.278 13.280,6.995 13.280 C 6.806 13.280,6.711 13.308,6.472 13.431 " stroke="none" fill-rule="evenodd" fill="#000000"></path></svg>