<svg  xmlns="http://www.w3.org/2000/svg" width="24" height="24" viewBox="0 0 24 24" fill="none" stroke="currentColor" stroke-width="2" stroke-linecap="round" stroke-linejoin="round"><path d="M2.620 2.041 C 1.633 2.245,0.943 3.137,1.011 4.120 C 1.036 4.482,1.153 4.830,1.339 5.100 C 1.415 5.210,2.984 6.965,4.825 9.000 C 9.134 13.762,8.864 13.455,8.938 13.672 C 8.992 13.831,9.000 14.265,9.000 17.039 C 9.000 20.505,8.996 20.437,9.228 20.920 C 9.289 21.046,9.447 21.253,9.598 21.405 C 9.849 21.658,9.925 21.702,11.101 22.288 C 12.563 23.017,12.794 23.084,13.408 22.956 C 13.954 22.842,14.543 22.394,14.772 21.920 C 15.006 21.433,15.000 21.552,15.000 17.542 C 15.000 15.251,15.015 13.806,15.040 13.718 C 15.093 13.528,15.162 13.440,15.881 12.645 C 16.605 11.844,16.720 11.659,16.719 11.305 C 16.718 10.988,16.623 10.783,16.381 10.569 C 16.024 10.255,15.516 10.230,15.151 10.510 C 14.981 10.639,13.780 11.963,13.551 12.273 C 13.366 12.522,13.192 12.882,13.092 13.220 C 13.027 13.441,13.020 13.761,13.010 17.230 L 12.998 20.999 11.999 20.499 L 11.000 20.000 11.000 16.863 C 11.000 13.482,10.996 13.398,10.787 12.881 C 10.733 12.748,10.616 12.527,10.526 12.390 C 10.436 12.252,8.710 10.313,6.691 8.080 L 3.018 4.020 8.319 4.000 C 14.205 3.978,13.757 4.000,14.047 3.711 C 14.545 3.213,14.411 2.412,13.778 2.098 C 13.624 2.022,13.498 2.020,8.200 2.014 C 5.219 2.011,2.708 2.023,2.620 2.041 M18.695 2.057 C 18.466 2.129,18.256 2.299,18.128 2.516 L 18.020 2.700 18.008 3.850 L 17.995 5.000 16.944 5.000 C 15.797 5.000,15.643 5.022,15.382 5.221 C 15.302 5.282,15.187 5.415,15.128 5.516 C 15.037 5.672,15.020 5.746,15.020 6.000 C 15.020 6.256,15.036 6.328,15.131 6.489 C 15.192 6.592,15.304 6.725,15.381 6.783 C 15.642 6.983,15.738 6.996,16.908 6.998 L 17.995 7.000 18.008 8.153 L 18.020 9.307 18.141 9.503 C 18.543 10.156,19.457 10.156,19.859 9.503 L 19.980 9.307 19.992 8.153 L 20.005 7.000 21.092 6.998 C 22.262 6.996,22.358 6.983,22.619 6.783 C 22.696 6.725,22.808 6.592,22.869 6.489 C 22.964 6.328,22.980 6.256,22.980 6.000 C 22.980 5.746,22.963 5.672,22.872 5.516 C 22.813 5.415,22.698 5.282,22.618 5.221 C 22.357 5.022,22.203 5.000,21.056 5.000 L 20.005 5.000 19.992 3.850 L 19.980 2.700 19.872 2.516 C 19.628 2.101,19.150 1.915,18.695 2.057 " stroke="none" fill-rule="evenodd" fill="#000000"></path></svg>