<svg  xmlns="http://www.w3.org/2000/svg" width="24" height="24" viewBox="0 0 24 24" fill="none" stroke="currentColor" stroke-width="2" stroke-linecap="round" stroke-linejoin="round"><path d="M2.695 4.057 C 2.466 4.129,2.256 4.299,2.128 4.516 C 2.037 4.672,2.020 4.746,2.020 5.000 C 2.020 5.256,2.036 5.328,2.131 5.489 C 2.256 5.702,2.449 5.864,2.670 5.943 C 2.893 6.022,16.107 6.022,16.330 5.943 C 16.551 5.864,16.744 5.702,16.869 5.489 C 16.964 5.328,16.980 5.256,16.980 5.000 C 16.980 4.746,16.963 4.672,16.872 4.516 C 16.740 4.293,16.533 4.128,16.290 4.055 C 16.028 3.976,2.947 3.978,2.695 4.057 M15.044 8.625 C 14.540 8.876,14.346 9.567,14.651 10.020 C 14.695 10.086,15.147 10.558,15.655 11.070 L 16.579 12.000 15.655 12.930 C 15.147 13.442,14.695 13.914,14.651 13.980 C 14.373 14.392,14.510 15.024,14.940 15.320 C 15.238 15.525,15.740 15.540,16.017 15.352 C 16.085 15.306,16.558 14.853,17.070 14.345 L 18.000 13.421 18.930 14.345 C 19.442 14.853,19.915 15.306,19.981 15.351 C 20.384 15.624,21.047 15.475,21.330 15.048 C 21.525 14.753,21.536 14.254,21.352 13.983 C 21.306 13.915,20.853 13.442,20.345 12.930 L 19.421 12.000 20.345 11.070 C 20.853 10.558,21.306 10.085,21.351 10.019 C 21.468 9.846,21.514 9.545,21.462 9.291 C 21.369 8.831,20.980 8.519,20.502 8.521 C 20.089 8.522,19.997 8.588,18.950 9.631 L 18.000 10.578 17.050 9.631 C 16.371 8.954,16.049 8.661,15.920 8.603 C 15.654 8.483,15.313 8.492,15.044 8.625 M2.695 11.057 C 2.466 11.129,2.256 11.299,2.128 11.516 C 2.037 11.672,2.020 11.746,2.020 12.000 C 2.020 12.256,2.036 12.328,2.131 12.489 C 2.256 12.702,2.449 12.864,2.670 12.943 C 2.892 13.022,11.108 13.022,11.330 12.943 C 11.551 12.864,11.744 12.702,11.869 12.489 C 11.964 12.328,11.980 12.256,11.980 12.000 C 11.980 11.746,11.963 11.672,11.872 11.516 C 11.740 11.293,11.533 11.128,11.290 11.055 C 11.029 10.976,2.946 10.979,2.695 11.057 M2.695 18.057 C 2.466 18.129,2.256 18.299,2.128 18.516 C 2.037 18.672,2.020 18.746,2.020 19.000 C 2.020 19.256,2.036 19.328,2.131 19.489 C 2.256 19.702,2.449 19.864,2.670 19.943 C 2.793 19.987,4.021 19.996,9.500 19.996 C 14.979 19.996,16.207 19.987,16.330 19.943 C 16.551 19.864,16.744 19.702,16.869 19.489 C 16.964 19.328,16.980 19.256,16.980 19.000 C 16.980 18.746,16.963 18.672,16.872 18.516 C 16.740 18.293,16.533 18.128,16.290 18.055 C 16.028 17.976,2.947 17.978,2.695 18.057 " stroke="none" fill-rule="evenodd" fill="#000000"></path></svg>