<svg  xmlns="http://www.w3.org/2000/svg" width="24" height="24" viewBox="0 0 24 24" fill="none" stroke="currentColor" stroke-width="2" stroke-linecap="round" stroke-linejoin="round"><path d="M15.214 1.041 C 13.094 1.309,11.257 2.453,10.110 4.220 C 9.385 5.337,1.278 18.603,1.175 18.840 C 1.031 19.174,0.920 19.656,0.920 19.948 C 0.921 20.611,1.202 21.413,1.604 21.901 C 2.242 22.675,3.296 23.116,4.230 22.999 C 5.032 22.898,5.670 22.587,6.148 22.062 C 6.293 21.903,6.658 21.353,7.124 20.594 C 7.533 19.926,9.513 16.691,11.524 13.404 C 13.535 10.116,15.241 7.365,15.316 7.289 C 15.796 6.801,16.613 6.950,16.905 7.578 C 17.051 7.891,17.035 8.151,16.846 8.542 C 16.623 9.005,16.521 9.328,16.486 9.685 C 16.399 10.590,16.678 11.413,17.292 12.065 C 18.465 13.309,20.424 13.322,21.604 12.094 C 21.876 11.811,22.017 11.604,22.235 11.170 C 22.711 10.223,22.941 9.335,22.986 8.280 C 23.113 5.323,21.370 2.632,18.598 1.502 C 18.232 1.353,17.728 1.209,17.240 1.115 C 16.759 1.023,15.672 0.983,15.214 1.041 M17.000 3.102 C 17.481 3.176,18.252 3.503,18.818 3.873 C 19.161 4.097,19.837 4.763,20.092 5.127 C 20.471 5.667,20.749 6.322,20.905 7.042 C 20.994 7.456,21.005 8.433,20.924 8.880 C 20.806 9.534,20.422 10.452,20.153 10.721 C 19.965 10.909,19.742 10.998,19.460 10.998 C 18.898 10.998,18.483 10.581,18.481 10.014 C 18.480 9.803,18.506 9.713,18.660 9.394 C 18.929 8.834,19.013 8.451,18.991 7.883 C 18.963 7.151,18.889 6.979,17.716 4.890 C 17.163 3.906,16.701 3.085,16.690 3.066 C 16.679 3.047,16.704 3.041,16.745 3.053 C 16.786 3.065,16.901 3.087,17.000 3.102 M14.992 4.126 C 15.263 4.611,15.477 5.016,15.468 5.025 C 15.459 5.034,15.346 5.069,15.216 5.102 C 14.463 5.298,13.853 5.784,13.352 6.589 C 13.205 6.826,13.067 7.047,13.047 7.080 C 13.026 7.113,13.000 7.131,12.989 7.120 C 12.978 7.109,12.741 6.644,12.462 6.086 C 11.876 4.913,11.884 5.084,12.391 4.554 C 12.725 4.204,13.145 3.872,13.530 3.654 C 13.786 3.509,14.388 3.243,14.460 3.243 C 14.482 3.243,14.722 3.640,14.992 4.126 M11.243 8.125 L 11.765 9.170 11.409 9.755 C 10.469 11.298,10.058 11.960,10.040 11.959 C 10.010 11.958,9.059 9.830,9.065 9.776 C 9.069 9.732,10.686 7.080,10.709 7.080 C 10.715 7.080,10.955 7.550,11.243 8.125 M8.760 14.048 C 8.760 14.077,7.151 16.735,7.098 16.794 C 7.068 16.827,6.037 14.706,6.057 14.654 C 6.069 14.623,6.460 13.977,6.926 13.220 L 7.773 11.842 8.267 12.927 C 8.538 13.523,8.760 14.028,8.760 14.048 M5.337 17.791 L 5.853 18.829 5.337 19.682 C 4.770 20.617,4.559 20.873,4.283 20.955 C 3.884 21.073,3.394 20.944,3.181 20.665 C 2.965 20.382,2.889 19.952,3.002 19.655 C 3.065 19.488,4.768 16.720,4.796 16.738 C 4.809 16.747,5.053 17.221,5.337 17.791 " stroke="none" fill-rule="evenodd" fill="#000000"></path></svg>