<svg  xmlns="http://www.w3.org/2000/svg" width="24" height="24" viewBox="0 0 24 24" fill="none" stroke="currentColor" stroke-width="2" stroke-linecap="round" stroke-linejoin="round"><path d="M8.580 1.559 C 8.343 1.610,7.739 1.849,7.220 2.096 C 5.465 2.930,3.922 4.284,2.793 5.980 C 2.443 6.506,1.931 7.513,1.695 8.140 C 1.550 8.523,1.544 8.562,1.542 9.040 C 1.540 9.428,1.557 9.589,1.615 9.760 C 1.738 10.121,1.954 10.501,2.175 10.744 L 2.383 10.973 2.292 11.376 C 1.973 12.787,1.917 14.487,2.145 15.860 C 2.251 16.502,2.446 17.294,2.559 17.540 C 2.799 18.067,3.221 18.492,3.761 18.753 L 4.062 18.898 4.132 19.256 C 4.576 21.519,6.303 23.104,8.198 22.988 C 9.439 22.911,10.508 22.062,10.878 20.860 C 10.943 20.650,10.974 20.399,11.003 19.860 C 11.061 18.766,11.175 18.053,11.407 17.322 C 11.513 16.988,11.784 16.284,11.821 16.247 C 11.828 16.239,12.029 16.342,12.267 16.475 C 13.036 16.903,13.493 17.026,14.175 16.989 C 15.454 16.919,16.491 16.096,16.886 14.839 C 16.966 14.583,16.980 14.459,16.978 13.980 C 16.977 13.475,16.966 13.389,16.866 13.100 C 16.805 12.924,16.638 12.567,16.495 12.306 C 16.351 12.046,16.240 11.827,16.247 11.819 C 16.255 11.812,16.419 11.742,16.612 11.664 C 17.659 11.242,18.473 11.077,19.860 11.003 C 20.860 10.950,21.349 10.786,21.891 10.321 C 23.182 9.216,23.361 7.532,22.348 6.020 C 21.757 5.137,20.506 4.377,19.248 4.135 L 18.900 4.068 18.753 3.762 C 18.583 3.408,18.375 3.143,18.073 2.893 C 17.778 2.648,17.461 2.506,16.895 2.364 C 15.140 1.921,13.173 1.896,11.391 2.292 L 10.962 2.388 10.871 2.289 C 10.641 2.040,10.214 1.777,9.802 1.632 C 9.551 1.543,8.844 1.501,8.580 1.559 M9.320 3.610 C 9.426 3.683,9.845 4.412,11.506 7.420 C 12.637 9.466,13.880 11.716,14.271 12.420 L 14.980 13.700 14.979 14.000 C 14.978 14.228,14.958 14.338,14.893 14.460 C 14.721 14.782,14.441 14.960,14.062 14.989 C 13.766 15.012,13.708 14.988,12.760 14.461 C 12.375 14.247,11.673 13.859,11.200 13.598 C 5.119 10.251,3.696 9.449,3.610 9.321 C 3.488 9.141,3.496 9.029,3.662 8.617 C 4.550 6.414,6.352 4.602,8.570 3.679 C 9.002 3.500,9.140 3.487,9.320 3.610 M14.820 4.040 C 15.600 4.111,16.601 4.306,16.789 4.425 C 17.004 4.560,17.001 4.526,16.990 7.063 L 16.980 9.409 16.440 9.597 C 16.143 9.700,15.756 9.850,15.581 9.930 C 15.406 10.010,15.260 10.072,15.257 10.068 C 15.223 10.019,12.040 4.239,12.040 4.226 C 12.040 4.190,12.167 4.163,12.627 4.103 C 13.424 3.998,14.133 3.978,14.820 4.040 M19.478 6.269 C 20.285 6.591,20.858 7.161,20.968 7.752 C 21.054 8.215,20.871 8.645,20.492 8.867 C 20.339 8.956,20.244 8.977,19.846 9.003 C 19.590 9.021,19.294 9.036,19.190 9.037 L 19.000 9.040 19.000 7.576 L 19.000 6.111 19.110 6.139 C 19.171 6.154,19.336 6.212,19.478 6.269 M7.172 13.658 L 10.065 15.256 9.869 15.718 C 9.761 15.972,9.614 16.360,9.543 16.580 L 9.414 16.980 7.008 16.980 L 4.602 16.980 4.498 16.876 C 4.330 16.708,4.133 15.825,4.037 14.800 C 3.982 14.221,4.010 13.272,4.101 12.619 C 4.171 12.118,4.192 12.031,4.243 12.048 C 4.263 12.055,5.581 12.779,7.172 13.658 M9.013 19.530 C 9.003 19.822,8.977 20.144,8.954 20.246 C 8.901 20.490,8.718 20.734,8.486 20.871 C 8.325 20.965,8.257 20.980,7.979 20.980 C 7.698 20.980,7.626 20.964,7.393 20.850 C 6.869 20.592,6.316 19.825,6.139 19.110 L 6.111 19.000 7.571 19.000 L 9.031 19.000 9.013 19.530 " stroke="none" fill-rule="evenodd" fill="#000000"></path></svg>