<svg  xmlns="http://www.w3.org/2000/svg" width="24" height="24" viewBox="0 0 24 24" fill="none" stroke="currentColor" stroke-width="2" stroke-linecap="round" stroke-linejoin="round"><path d="M6.873 1.060 C 4.640 1.485,3.411 3.811,4.299 5.930 C 4.326 5.993,4.299 6.000,4.034 6.002 C 3.088 6.010,2.292 6.617,2.060 7.508 C 2.013 7.687,2.000 8.009,2.000 9.000 C 2.000 10.359,2.019 10.523,2.218 10.915 C 2.330 11.137,2.650 11.502,2.857 11.643 L 2.997 11.740 3.009 15.660 L 3.020 19.580 3.114 19.860 C 3.446 20.851,4.184 21.582,5.160 21.886 L 5.460 21.980 12.000 21.980 L 18.540 21.980 18.840 21.886 C 19.816 21.582,20.554 20.851,20.886 19.860 L 20.980 19.580 20.991 15.660 L 21.003 11.740 21.143 11.643 C 21.347 11.503,21.670 11.138,21.779 10.922 C 21.979 10.528,22.000 10.342,21.999 9.014 C 21.999 7.682,21.974 7.463,21.781 7.083 C 21.646 6.816,21.297 6.449,21.017 6.281 C 20.727 6.106,20.346 6.005,19.966 6.002 C 19.701 6.000,19.674 5.993,19.701 5.930 C 20.548 3.909,19.477 1.689,17.378 1.114 C 17.115 1.041,16.956 1.027,16.460 1.028 C 15.946 1.029,15.804 1.045,15.467 1.133 C 14.550 1.375,13.640 1.975,12.940 2.800 C 12.647 3.145,12.295 3.640,12.121 3.950 C 12.068 4.043,12.015 4.120,12.003 4.120 C 11.990 4.119,11.878 3.953,11.753 3.750 C 10.927 2.402,9.749 1.446,8.533 1.137 C 8.029 1.009,7.314 0.976,6.873 1.060 M7.990 3.060 C 8.489 3.178,8.990 3.499,9.439 3.989 C 9.858 4.446,10.321 5.195,10.561 5.803 L 10.640 6.003 8.890 5.992 L 7.140 5.980 6.900 5.868 C 6.583 5.720,6.275 5.413,6.135 5.104 C 6.040 4.896,6.024 4.808,6.024 4.500 C 6.023 4.191,6.039 4.106,6.134 3.900 C 6.455 3.201,7.185 2.870,7.990 3.060 M16.808 3.045 C 17.270 3.143,17.665 3.462,17.866 3.900 C 17.961 4.106,17.977 4.192,17.977 4.500 C 17.977 4.808,17.961 4.894,17.866 5.100 C 17.722 5.414,17.414 5.724,17.104 5.867 L 16.860 5.980 15.110 5.992 L 13.360 6.003 13.439 5.803 C 13.710 5.116,14.194 4.363,14.679 3.878 C 15.393 3.162,16.084 2.891,16.808 3.045 M11.000 9.000 L 11.000 10.000 7.500 10.000 L 4.000 10.000 4.000 9.000 L 4.000 8.000 7.500 8.000 L 11.000 8.000 11.000 9.000 M20.000 9.000 L 20.000 10.000 16.500 10.000 L 13.000 10.000 13.000 9.000 L 13.000 8.000 16.500 8.000 L 20.000 8.000 20.000 9.000 M11.000 16.001 L 11.000 20.002 8.350 19.991 L 5.700 19.980 5.516 19.872 C 5.415 19.813,5.284 19.700,5.225 19.623 C 4.992 19.317,5.000 19.464,5.000 15.575 L 5.000 12.000 8.000 12.000 L 11.000 12.000 11.000 16.001 M19.000 15.554 C 19.000 19.410,19.005 19.322,18.779 19.618 C 18.718 19.698,18.585 19.813,18.484 19.872 L 18.300 19.980 15.650 19.991 L 13.000 20.002 13.000 16.001 L 13.000 12.000 16.000 12.000 L 19.000 12.000 19.000 15.554 " stroke="none" fill-rule="evenodd" fill="#000000"></path></svg>