<svg  xmlns="http://www.w3.org/2000/svg" width="24" height="24" viewBox="0 0 24 24" fill="none" stroke="currentColor" stroke-width="2" stroke-linecap="round" stroke-linejoin="round"><path d="M11.300 1.027 C 10.069 1.131,9.086 1.344,8.100 1.721 C 3.213 3.590,0.311 8.614,1.146 13.760 C 1.641 16.813,3.410 19.521,6.020 21.219 C 7.428 22.136,8.964 22.694,10.720 22.926 C 11.502 23.030,13.269 22.978,13.814 22.835 C 13.981 22.791,14.293 22.528,14.382 22.356 C 14.609 21.916,14.478 21.373,14.073 21.080 C 13.800 20.882,13.667 20.865,12.984 20.942 C 12.282 21.021,11.210 21.004,10.620 20.904 C 9.165 20.657,7.773 20.065,6.581 19.187 C 5.000 18.023,3.766 16.154,3.261 14.160 C 3.081 13.448,3.022 12.924,3.023 12.040 C 3.025 10.469,3.308 9.246,3.968 7.948 C 5.310 5.312,7.693 3.594,10.700 3.094 C 11.244 3.004,12.630 2.992,13.180 3.074 C 16.310 3.536,18.832 5.396,20.168 8.229 C 20.660 9.272,20.882 10.182,20.977 11.541 C 21.029 12.289,21.036 12.333,21.147 12.512 C 21.543 13.156,22.460 13.151,22.859 12.503 L 22.980 12.306 22.976 11.703 C 22.961 9.085,21.839 6.382,19.955 4.422 C 18.033 2.423,15.667 1.295,12.860 1.040 C 12.449 1.003,11.665 0.996,11.300 1.027 M11.695 5.057 C 11.466 5.129,11.256 5.299,11.128 5.516 L 11.020 5.700 11.009 8.917 C 10.997 12.549,10.985 12.389,11.297 12.696 C 11.533 12.929,13.620 13.962,13.910 13.990 C 14.347 14.032,14.795 13.748,14.934 13.340 C 15.017 13.095,15.018 12.906,14.935 12.664 C 14.825 12.341,14.656 12.210,13.791 11.776 L 13.002 11.380 12.991 8.540 L 12.980 5.700 12.872 5.516 C 12.628 5.101,12.150 4.915,11.695 5.057 M17.670 13.061 C 17.448 13.142,17.250 13.309,17.128 13.516 C 17.036 13.672,17.020 13.745,17.021 14.000 C 17.021 14.213,17.043 14.341,17.095 14.440 C 17.136 14.517,17.711 15.125,18.374 15.790 L 19.578 17.000 16.735 17.000 C 13.651 17.000,13.674 16.998,13.382 17.221 C 13.302 17.282,13.187 17.415,13.128 17.516 C 13.037 17.672,13.020 17.746,13.020 18.000 C 13.020 18.256,13.036 18.328,13.131 18.489 C 13.256 18.702,13.449 18.864,13.670 18.943 C 13.790 18.986,14.399 18.997,16.699 18.998 L 19.578 19.000 18.374 20.210 C 17.711 20.876,17.138 21.481,17.101 21.555 C 16.872 22.009,17.056 22.601,17.508 22.867 C 17.673 22.964,17.742 22.980,18.000 22.979 C 18.212 22.979,18.341 22.957,18.440 22.905 C 18.517 22.865,19.531 21.884,20.694 20.726 C 22.996 18.433,22.999 18.429,22.999 18.000 C 22.999 17.569,22.999 17.569,20.674 15.255 C 18.750 13.340,18.521 13.124,18.343 13.065 C 18.107 12.987,17.874 12.986,17.670 13.061 " stroke="none" fill-rule="evenodd" fill="#000000"></path></svg>