<svg  xmlns="http://www.w3.org/2000/svg" width="24" height="24" viewBox="0 0 24 24" fill="none" stroke="currentColor" stroke-width="2" stroke-linecap="round" stroke-linejoin="round"><path d="M2.670 3.061 C 2.448 3.142,2.250 3.309,2.128 3.516 C 2.036 3.672,2.020 3.745,2.021 4.000 C 2.021 4.213,2.043 4.341,2.095 4.440 C 2.136 4.517,2.711 5.125,3.374 5.790 L 4.578 7.000 3.374 8.210 C 2.711 8.876,2.138 9.481,2.101 9.555 C 1.872 10.009,2.056 10.601,2.508 10.867 C 2.673 10.964,2.742 10.980,3.000 10.979 C 3.212 10.979,3.341 10.957,3.440 10.905 C 3.632 10.804,6.739 7.704,6.873 7.480 C 6.964 7.328,6.980 7.254,6.980 7.000 C 6.980 6.746,6.963 6.672,6.873 6.520 C 6.814 6.421,6.040 5.618,5.153 4.736 C 3.714 3.305,3.519 3.124,3.343 3.066 C 3.108 2.987,2.875 2.986,2.670 3.061 M9.695 4.057 C 9.466 4.129,9.256 4.299,9.128 4.516 C 9.037 4.672,9.020 4.746,9.020 5.000 C 9.020 5.256,9.036 5.328,9.131 5.489 C 9.256 5.702,9.449 5.864,9.670 5.943 C 9.793 5.987,10.856 5.996,15.500 5.996 C 20.144 5.996,21.207 5.987,21.330 5.943 C 21.551 5.864,21.744 5.702,21.869 5.489 C 21.964 5.328,21.980 5.256,21.980 5.000 C 21.980 4.746,21.963 4.672,21.872 4.516 C 21.740 4.293,21.533 4.128,21.290 4.055 C 21.028 3.976,9.947 3.978,9.695 4.057 M9.695 11.057 C 9.466 11.129,9.256 11.299,9.128 11.516 C 9.037 11.672,9.020 11.746,9.020 12.000 C 9.020 12.256,9.036 12.328,9.131 12.489 C 9.256 12.702,9.449 12.864,9.670 12.943 C 9.793 12.987,10.856 12.996,15.500 12.996 C 20.144 12.996,21.207 12.987,21.330 12.943 C 21.551 12.864,21.744 12.702,21.869 12.489 C 21.964 12.328,21.980 12.256,21.980 12.000 C 21.980 11.746,21.963 11.672,21.872 11.516 C 21.740 11.293,21.533 11.128,21.290 11.055 C 21.028 10.976,9.947 10.978,9.695 11.057 M2.670 13.061 C 2.448 13.142,2.250 13.309,2.128 13.516 C 2.036 13.672,2.020 13.745,2.021 14.000 C 2.021 14.213,2.043 14.341,2.095 14.440 C 2.136 14.517,2.711 15.125,3.374 15.790 L 4.578 17.000 3.374 18.210 C 2.711 18.875,2.138 19.481,2.101 19.555 C 1.872 20.009,2.056 20.601,2.508 20.867 C 2.673 20.964,2.742 20.980,3.000 20.979 C 3.212 20.979,3.341 20.957,3.440 20.905 C 3.632 20.804,6.739 17.704,6.873 17.480 C 6.964 17.328,6.980 17.254,6.980 17.000 C 6.980 16.746,6.963 16.672,6.873 16.520 C 6.814 16.421,6.040 15.618,5.153 14.736 C 3.714 13.305,3.519 13.124,3.343 13.066 C 3.108 12.987,2.875 12.986,2.670 13.061 M9.695 18.057 C 9.466 18.129,9.256 18.299,9.128 18.516 C 9.037 18.672,9.020 18.746,9.020 19.000 C 9.020 19.256,9.036 19.328,9.131 19.489 C 9.256 19.702,9.449 19.864,9.670 19.943 C 9.793 19.987,10.856 19.996,15.500 19.996 C 20.144 19.996,21.207 19.987,21.330 19.943 C 21.551 19.864,21.744 19.702,21.869 19.489 C 21.964 19.328,21.980 19.256,21.980 19.000 C 21.980 18.746,21.963 18.672,21.872 18.516 C 21.740 18.293,21.533 18.128,21.290 18.055 C 21.028 17.976,9.947 17.978,9.695 18.057 " stroke="none" fill-rule="evenodd" fill="#000000"></path></svg>