<svg  xmlns="http://www.w3.org/2000/svg" width="24" height="24" viewBox="0 0 24 24" fill="none" stroke="currentColor" stroke-width="2" stroke-linecap="round" stroke-linejoin="round"><path d="M4.499 2.043 C 3.380 2.232,2.461 3.048,2.114 4.160 L 2.020 4.460 2.020 12.000 L 2.020 19.540 2.114 19.840 C 2.422 20.827,3.173 21.578,4.160 21.886 L 4.460 21.980 12.000 21.980 L 19.540 21.980 19.840 21.886 C 20.827 21.578,21.578 20.827,21.886 19.840 L 21.980 19.540 21.980 12.000 L 21.980 4.460 21.886 4.160 C 21.581 3.182,20.832 2.428,19.861 2.121 L 19.540 2.020 12.120 2.014 C 8.039 2.011,4.609 2.024,4.499 2.043 M19.310 4.061 C 19.589 4.144,19.856 4.411,19.939 4.690 C 19.993 4.870,20.000 5.755,20.000 12.001 C 20.000 17.907,19.991 19.138,19.945 19.290 C 19.872 19.533,19.707 19.740,19.484 19.872 L 19.300 19.980 12.000 19.980 L 4.700 19.980 4.516 19.872 C 4.415 19.813,4.284 19.700,4.225 19.623 C 3.986 19.309,4.000 19.795,4.000 12.022 C 4.000 5.758,4.007 4.870,4.061 4.690 C 4.140 4.421,4.412 4.143,4.673 4.063 C 4.964 3.974,19.009 3.971,19.310 4.061 M8.477 7.073 C 7.806 7.249,7.238 7.823,7.060 8.508 C 7.009 8.702,7.000 9.237,7.000 12.000 C 7.000 15.547,6.996 15.478,7.225 15.930 C 7.361 16.199,7.801 16.639,8.070 16.775 C 8.522 17.004,8.454 17.000,11.993 17.000 C 15.539 17.000,15.479 17.003,15.937 16.771 C 16.197 16.639,16.639 16.197,16.771 15.937 C 17.003 15.479,17.000 15.537,16.999 12.014 C 16.999 8.515,16.999 8.511,16.781 8.083 C 16.646 7.816,16.297 7.449,16.017 7.281 C 15.548 6.999,15.636 7.005,12.000 7.005 C 9.047 7.005,8.715 7.011,8.477 7.073 M15.000 12.000 L 15.000 15.000 12.000 15.000 L 9.000 15.000 9.000 12.000 L 9.000 9.000 12.000 9.000 L 15.000 9.000 15.000 12.000 " stroke="none" fill="#000000" fill-rule="evenodd"></path></svg>