<svg  xmlns="http://www.w3.org/2000/svg" width="24" height="24" viewBox="0 0 24 24" fill="none" stroke="currentColor" stroke-width="2" stroke-linecap="round" stroke-linejoin="round"><path d="M9.485 4.045 C 9.002 4.126,8.476 4.368,8.106 4.680 C 7.695 5.027,1.526 10.641,1.427 10.759 C 0.868 11.424,0.862 12.515,1.413 13.216 C 1.535 13.371,7.726 19.008,8.180 19.378 C 8.453 19.601,8.862 19.806,9.240 19.909 C 9.483 19.975,9.855 19.980,15.020 19.980 L 20.540 19.980 20.840 19.886 C 21.827 19.578,22.578 18.827,22.886 17.840 L 22.980 17.540 22.980 12.000 L 22.980 6.460 22.886 6.160 C 22.581 5.182,21.832 4.428,20.861 4.121 L 20.540 4.020 15.120 4.014 C 12.038 4.011,9.607 4.024,9.485 4.045 M20.310 6.061 C 20.589 6.144,20.856 6.411,20.939 6.690 C 20.992 6.868,21.000 7.546,21.000 12.001 C 21.000 16.212,20.990 17.139,20.945 17.290 C 20.872 17.533,20.707 17.740,20.484 17.872 L 20.300 17.980 15.000 17.980 L 9.700 17.980 9.534 17.880 C 9.347 17.768,3.040 12.057,3.040 12.000 C 3.040 11.967,9.152 6.402,9.414 6.197 C 9.670 5.997,9.476 6.004,14.963 6.002 C 19.454 6.000,20.131 6.008,20.310 6.061 M11.670 8.061 C 11.448 8.142,11.250 8.309,11.128 8.516 C 11.036 8.672,11.020 8.745,11.021 9.000 C 11.021 9.213,11.043 9.341,11.095 9.440 C 11.136 9.517,11.711 10.125,12.374 10.790 L 13.578 12.000 12.374 13.210 C 11.711 13.876,11.138 14.481,11.101 14.555 C 10.872 15.009,11.056 15.601,11.508 15.867 C 11.673 15.964,11.742 15.980,12.000 15.979 C 12.213 15.979,12.341 15.957,12.440 15.905 C 12.517 15.864,13.125 15.289,13.790 14.626 L 15.000 13.422 16.210 14.626 C 16.875 15.289,17.481 15.862,17.555 15.899 C 18.009 16.128,18.601 15.944,18.867 15.492 C 18.964 15.327,18.980 15.258,18.979 15.000 C 18.979 14.787,18.957 14.659,18.905 14.560 C 18.864 14.483,18.289 13.876,17.626 13.210 L 16.422 12.000 17.626 10.790 C 18.289 10.125,18.864 9.517,18.905 9.440 C 18.957 9.341,18.979 9.213,18.979 9.000 C 18.980 8.745,18.964 8.672,18.872 8.516 C 18.618 8.084,18.137 7.905,17.657 8.066 C 17.484 8.124,17.312 8.279,16.230 9.354 L 15.000 10.576 13.770 9.354 C 12.688 8.279,12.516 8.124,12.343 8.066 C 12.108 7.987,11.875 7.985,11.670 8.061 " stroke="none" fill-rule="evenodd" fill="#000000"></path></svg>