<svg  xmlns="http://www.w3.org/2000/svg" width="24" height="24" viewBox="0 0 24 24" fill="none" stroke="currentColor" stroke-width="2" stroke-linecap="round" stroke-linejoin="round"><path d="M6.634 3.061 C 4.797 3.312,3.124 4.358,2.099 5.898 C 0.887 7.718,0.669 9.890,1.496 11.922 C 1.936 13.006,2.722 14.093,4.045 15.449 C 5.070 16.500,10.102 21.331,10.340 21.493 C 11.085 22.000,12.051 22.131,12.922 21.842 C 13.475 21.658,13.748 21.466,14.565 20.680 C 15.122 20.146,15.314 19.935,15.385 19.781 C 15.556 19.414,15.494 19.034,15.213 18.720 C 15.008 18.492,14.783 18.392,14.475 18.392 C 14.095 18.392,13.948 18.487,13.208 19.212 C 12.626 19.782,12.512 19.876,12.325 19.938 C 12.057 20.027,11.785 20.006,11.544 19.876 C 11.309 19.750,5.445 14.062,4.846 13.380 C 4.293 12.750,3.982 12.340,3.715 11.888 C 3.156 10.943,2.930 10.007,3.030 9.053 C 3.314 6.361,5.832 4.538,8.470 5.116 C 9.354 5.310,10.010 5.676,10.740 6.383 C 11.237 6.864,11.480 6.979,12.000 6.980 C 12.343 6.980,12.405 6.968,12.640 6.855 C 12.822 6.768,13.008 6.626,13.260 6.381 C 13.721 5.933,14.052 5.687,14.469 5.480 C 15.135 5.150,15.769 5.000,16.486 5.001 C 17.083 5.002,17.406 5.052,17.918 5.223 C 19.094 5.616,19.973 6.382,20.533 7.500 C 21.021 8.475,21.118 9.484,20.837 10.660 C 20.754 11.009,20.764 11.159,20.890 11.431 C 21.030 11.733,21.448 12.000,21.780 12.000 C 22.172 12.000,22.607 11.673,22.732 11.284 C 22.919 10.701,22.975 10.286,22.977 9.480 C 22.979 8.603,22.934 8.290,22.696 7.525 C 22.378 6.500,21.844 5.634,21.042 4.840 C 19.346 3.160,16.777 2.566,14.473 3.321 C 13.660 3.587,12.822 4.063,12.247 4.583 L 11.998 4.808 11.829 4.653 C 10.483 3.419,8.488 2.808,6.634 3.061 M17.695 11.057 C 17.466 11.129,17.256 11.299,17.128 11.516 L 17.020 11.700 17.008 12.850 L 16.995 14.000 15.944 14.000 C 14.797 14.000,14.643 14.022,14.382 14.221 C 14.302 14.282,14.187 14.415,14.128 14.516 C 14.037 14.672,14.020 14.746,14.020 15.000 C 14.020 15.256,14.036 15.328,14.131 15.489 C 14.192 15.592,14.304 15.725,14.381 15.783 C 14.642 15.983,14.738 15.996,15.908 15.998 L 16.995 16.000 17.008 17.153 L 17.020 18.307 17.141 18.503 C 17.543 19.156,18.457 19.156,18.859 18.503 L 18.980 18.307 18.992 17.153 L 19.005 16.000 20.092 15.998 C 21.262 15.996,21.358 15.983,21.619 15.783 C 21.696 15.725,21.808 15.592,21.869 15.489 C 21.964 15.328,21.980 15.256,21.980 15.000 C 21.980 14.746,21.963 14.672,21.872 14.516 C 21.813 14.415,21.698 14.282,21.618 14.221 C 21.357 14.022,21.203 14.000,20.056 14.000 L 19.005 14.000 18.992 12.850 L 18.980 11.700 18.872 11.516 C 18.628 11.101,18.150 10.915,17.695 11.057 " stroke="none" fill-rule="evenodd" fill="#000000"></path></svg>