<svg  xmlns="http://www.w3.org/2000/svg" width="24" height="24" viewBox="0 0 24 24" fill="none" stroke="currentColor" stroke-width="2" stroke-linecap="round" stroke-linejoin="round"><path d="M3.499 2.043 C 2.380 2.232,1.461 3.048,1.114 4.160 L 1.020 4.460 1.020 10.000 L 1.020 15.540 1.114 15.840 C 1.418 16.816,2.149 17.554,3.140 17.886 L 3.420 17.980 7.210 17.991 L 11.000 18.003 11.000 19.001 L 11.000 20.000 9.446 20.000 C 7.758 20.000,7.658 20.011,7.382 20.221 C 7.302 20.282,7.187 20.415,7.128 20.516 C 7.037 20.672,7.020 20.746,7.020 21.000 C 7.020 21.256,7.036 21.328,7.131 21.489 C 7.256 21.702,7.449 21.864,7.670 21.943 C 7.892 22.022,16.108 22.022,16.330 21.943 C 16.551 21.864,16.744 21.702,16.869 21.489 C 16.964 21.328,16.980 21.256,16.980 21.000 C 16.980 20.746,16.963 20.672,16.872 20.516 C 16.813 20.415,16.698 20.282,16.618 20.221 C 16.342 20.011,16.242 20.000,14.554 20.000 L 13.000 20.000 13.000 19.001 L 13.000 18.003 16.790 17.991 L 20.580 17.980 20.860 17.886 C 21.851 17.554,22.582 16.816,22.886 15.840 L 22.980 15.540 22.980 10.000 L 22.980 4.460 22.886 4.160 C 22.581 3.182,21.832 2.428,20.861 2.121 L 20.540 2.020 12.120 2.014 C 7.489 2.011,3.609 2.024,3.499 2.043 M20.310 4.061 C 20.589 4.144,20.856 4.411,20.939 4.690 C 20.992 4.868,21.000 5.546,21.000 10.001 C 21.000 14.212,20.990 15.139,20.945 15.290 C 20.872 15.533,20.707 15.740,20.484 15.872 L 20.300 15.980 12.000 15.980 L 3.700 15.980 3.516 15.872 C 3.303 15.747,3.141 15.550,3.058 15.316 C 2.969 15.061,2.971 4.993,3.061 4.690 C 3.140 4.421,3.412 4.143,3.673 4.063 C 3.833 4.014,5.030 4.005,11.983 4.003 C 19.144 4.000,20.130 4.007,20.310 4.061 M10.289 6.040 C 9.829 6.138,9.371 6.519,9.147 6.991 L 9.020 7.260 9.020 10.000 L 9.020 12.740 9.147 13.009 C 9.500 13.753,10.280 14.138,11.040 13.943 C 11.243 13.891,11.770 13.605,13.460 12.629 C 15.859 11.243,15.946 11.181,16.191 10.685 C 16.332 10.401,16.340 10.363,16.340 10.000 C 16.340 9.637,16.332 9.599,16.190 9.312 C 16.086 9.101,15.973 8.947,15.826 8.814 C 15.685 8.686,14.917 8.218,13.556 7.432 C 12.425 6.778,11.396 6.197,11.270 6.139 C 11.012 6.022,10.581 5.978,10.289 6.040 M12.513 9.139 C 13.309 9.600,13.956 9.992,13.950 10.008 C 13.941 10.036,11.055 11.720,11.017 11.720 C 11.008 11.720,11.000 10.945,11.000 9.997 C 11.000 9.049,11.015 8.279,11.033 8.287 C 11.051 8.294,11.717 8.678,12.513 9.139 " stroke="none" fill-rule="evenodd" fill="#000000"></path></svg>