<svg  xmlns="http://www.w3.org/2000/svg" width="24" height="24" viewBox="0 0 24 24" fill="none" stroke="currentColor" stroke-width="2" stroke-linecap="round" stroke-linejoin="round"><path d="M3.499 5.043 C 2.383 5.230,1.461 6.048,1.114 7.160 L 1.020 7.460 1.020 12.000 L 1.020 16.540 1.114 16.840 C 1.419 17.817,2.158 18.563,3.140 18.884 C 3.404 18.970,3.495 18.976,4.764 18.991 C 5.647 19.001,6.163 18.992,6.268 18.963 C 6.498 18.901,6.737 18.713,6.867 18.492 C 6.964 18.327,6.980 18.257,6.980 18.000 C 6.980 17.746,6.963 17.672,6.872 17.516 C 6.761 17.327,6.569 17.156,6.373 17.071 C 6.296 17.038,5.854 17.016,4.980 17.001 L 3.700 16.980 3.516 16.872 C 3.415 16.813,3.284 16.700,3.225 16.623 C 2.990 16.315,3.000 16.515,3.000 12.022 C 3.000 7.357,2.983 7.623,3.303 7.303 C 3.587 7.019,3.694 7.000,5.037 6.998 C 6.266 6.996,6.356 6.984,6.619 6.783 C 6.696 6.725,6.808 6.592,6.869 6.489 C 6.964 6.328,6.980 6.256,6.980 6.000 C 6.980 5.746,6.963 5.672,6.872 5.516 C 6.813 5.415,6.698 5.282,6.618 5.221 C 6.350 5.016,6.216 5.000,4.904 5.005 C 4.242 5.007,3.609 5.025,3.499 5.043 M13.695 5.055 C 13.464 5.130,13.255 5.300,13.128 5.516 C 13.037 5.672,13.020 5.746,13.020 6.000 C 13.020 6.256,13.036 6.328,13.131 6.489 C 13.192 6.592,13.304 6.725,13.381 6.783 C 13.644 6.984,13.734 6.996,14.963 6.998 C 16.306 7.000,16.413 7.019,16.697 7.303 C 17.017 7.623,17.000 7.359,17.000 12.001 C 17.000 16.458,17.007 16.319,16.779 16.618 C 16.718 16.698,16.585 16.813,16.484 16.872 L 16.300 16.980 15.020 17.001 C 14.146 17.016,13.704 17.038,13.627 17.071 C 13.431 17.156,13.239 17.327,13.128 17.516 C 13.037 17.672,13.020 17.746,13.020 18.000 C 13.020 18.257,13.036 18.327,13.133 18.492 C 13.263 18.713,13.502 18.901,13.732 18.963 C 13.837 18.992,14.353 19.001,15.236 18.991 C 16.505 18.976,16.596 18.970,16.860 18.884 C 17.842 18.563,18.581 17.817,18.886 16.840 L 18.980 16.540 18.980 12.000 L 18.980 7.460 18.886 7.160 C 18.581 6.181,17.825 5.421,16.861 5.124 C 16.551 5.028,16.495 5.025,15.200 5.014 C 14.166 5.005,13.822 5.014,13.695 5.055 M9.695 6.057 C 9.466 6.129,9.256 6.299,9.128 6.516 L 9.020 6.700 9.020 10.003 L 9.020 13.306 9.141 13.503 C 9.543 14.156,10.457 14.156,10.859 13.503 L 10.980 13.306 10.980 10.003 L 10.980 6.700 10.872 6.516 C 10.628 6.101,10.150 5.915,9.695 6.057 M21.695 9.057 C 21.466 9.129,21.256 9.299,21.128 9.516 L 21.020 9.700 21.020 12.003 L 21.020 14.306 21.141 14.503 C 21.543 15.156,22.457 15.156,22.859 14.503 L 22.980 14.306 22.980 12.003 L 22.980 9.700 22.872 9.516 C 22.628 9.101,22.150 8.915,21.695 9.057 M9.695 16.055 C 9.464 16.130,9.255 16.300,9.128 16.516 C 9.037 16.672,9.020 16.746,9.020 17.000 C 9.020 17.257,9.036 17.327,9.133 17.492 C 9.651 18.374,10.998 18.018,10.998 17.000 C 10.998 16.623,10.792 16.281,10.463 16.112 C 10.265 16.010,9.911 15.984,9.695 16.055 " stroke="none" fill-rule="evenodd" fill="#000000"></path></svg>