<svg  xmlns="http://www.w3.org/2000/svg" width="24" height="24" viewBox="0 0 24 24" fill="none" stroke="currentColor" stroke-width="2" stroke-linecap="round" stroke-linejoin="round"><path d="M7.695 1.057 C 7.466 1.129,7.256 1.299,7.128 1.516 C 7.025 1.692,7.019 1.728,7.007 2.347 L 6.993 2.993 5.727 3.009 C 4.518 3.025,4.445 3.030,4.139 3.124 C 3.176 3.420,2.420 4.180,2.114 5.160 L 2.020 5.460 2.020 13.000 L 2.020 20.540 2.114 20.840 C 2.419 21.816,3.152 22.557,4.140 22.885 C 4.419 22.978,4.425 22.978,6.939 22.991 C 9.754 23.005,9.650 23.015,9.973 22.724 C 10.181 22.536,10.288 22.292,10.288 22.003 C 10.288 21.615,10.094 21.298,9.740 21.106 C 9.582 21.021,9.546 21.020,7.140 21.000 L 4.700 20.980 4.516 20.872 C 4.415 20.813,4.284 20.700,4.225 20.623 C 3.989 20.314,4.000 20.557,4.000 15.575 L 4.000 11.000 5.590 10.998 C 7.300 10.996,7.346 10.991,7.619 10.783 C 7.696 10.725,7.808 10.592,7.869 10.489 C 7.964 10.328,7.980 10.256,7.980 10.000 C 7.980 9.746,7.963 9.672,7.872 9.516 C 7.813 9.415,7.698 9.282,7.618 9.221 C 7.342 9.011,7.242 9.000,5.554 9.000 L 4.000 9.000 4.000 7.447 C 4.000 5.650,4.007 5.599,4.303 5.303 C 4.584 5.022,4.703 5.000,5.944 5.000 L 6.993 5.000 7.007 5.653 C 7.020 6.300,7.021 6.308,7.141 6.503 C 7.543 7.156,8.457 7.156,8.859 6.503 C 8.979 6.308,8.980 6.300,8.993 5.653 L 9.007 5.000 12.000 5.000 L 14.993 5.000 15.007 5.653 C 15.020 6.300,15.021 6.308,15.141 6.503 C 15.543 7.156,16.457 7.156,16.859 6.503 C 16.979 6.308,16.980 6.300,16.993 5.653 L 17.007 5.000 18.056 5.000 C 19.297 5.000,19.416 5.022,19.697 5.303 C 19.989 5.595,20.000 5.666,20.000 7.297 C 20.001 8.689,20.002 8.702,20.095 8.900 C 20.276 9.282,20.595 9.488,21.003 9.488 C 21.292 9.488,21.536 9.381,21.724 9.173 C 22.006 8.860,22.007 8.849,21.991 7.037 C 21.977 5.478,21.973 5.410,21.884 5.140 C 21.563 4.163,20.814 3.417,19.861 3.124 C 19.555 3.030,19.482 3.025,18.273 3.009 L 17.007 2.993 16.993 2.347 C 16.981 1.726,16.976 1.693,16.871 1.514 C 16.479 0.848,15.521 0.848,15.129 1.514 C 15.024 1.693,15.019 1.726,15.007 2.350 L 14.993 3.000 12.000 3.000 L 9.007 3.000 8.993 2.350 C 8.981 1.728,8.975 1.692,8.872 1.516 C 8.628 1.101,8.150 0.915,7.695 1.057 M10.695 9.057 C 10.466 9.129,10.256 9.299,10.128 9.516 L 10.020 9.700 10.009 11.940 C 9.998 13.948,10.004 14.198,10.063 14.354 C 10.155 14.595,10.343 14.796,10.580 14.906 L 10.780 14.999 12.980 14.998 C 14.714 14.997,15.212 14.985,15.330 14.943 C 15.551 14.864,15.744 14.702,15.869 14.489 C 15.964 14.328,15.980 14.256,15.980 14.000 C 15.980 13.746,15.963 13.672,15.872 13.516 C 15.813 13.415,15.698 13.282,15.618 13.221 C 15.365 13.028,15.189 13.000,14.249 13.000 C 13.281 13.000,13.296 13.008,13.718 12.721 C 14.956 11.882,16.488 11.778,17.810 12.445 C 18.574 12.830,19.136 13.404,19.617 14.289 C 19.697 14.437,19.822 14.603,19.894 14.658 C 20.578 15.180,21.516 14.744,21.526 13.899 C 21.528 13.717,21.498 13.613,21.361 13.328 C 20.559 11.657,18.924 10.438,17.020 10.091 C 16.456 9.988,15.376 10.000,14.840 10.115 C 13.841 10.328,12.915 10.767,12.193 11.367 L 12.005 11.523 11.993 10.611 C 11.980 9.704,11.980 9.699,11.872 9.516 C 11.628 9.101,11.150 8.915,10.695 9.057 M16.695 17.057 C 16.466 17.129,16.256 17.299,16.128 17.516 C 16.037 17.672,16.020 17.746,16.020 18.000 C 16.020 18.256,16.036 18.328,16.131 18.489 C 16.192 18.592,16.304 18.725,16.381 18.783 C 16.635 18.978,16.752 18.996,17.715 18.998 C 18.723 19.000,18.705 18.991,18.282 19.279 C 17.045 20.118,15.529 20.227,14.221 19.571 C 13.427 19.173,12.871 18.610,12.382 17.708 C 12.147 17.276,11.840 17.098,11.380 17.127 C 10.865 17.160,10.481 17.571,10.474 18.095 C 10.472 18.284,10.500 18.383,10.639 18.672 C 11.363 20.182,12.806 21.360,14.468 21.801 C 16.266 22.277,18.254 21.866,19.695 20.722 L 19.995 20.483 20.007 21.395 L 20.020 22.307 20.141 22.503 C 20.543 23.156,21.457 23.156,21.859 22.503 L 21.980 22.306 21.991 20.063 C 22.002 18.053,21.996 17.802,21.937 17.646 C 21.845 17.405,21.657 17.204,21.420 17.094 L 21.220 17.001 19.040 17.003 C 17.374 17.005,16.821 17.018,16.695 17.057 " stroke="none" fill-rule="evenodd" fill="#000000"></path></svg>