<svg  xmlns="http://www.w3.org/2000/svg" width="24" height="24" viewBox="0 0 24 24" fill="none" stroke="currentColor" stroke-width="2" stroke-linecap="round" stroke-linejoin="round"><path d="M4.499 2.043 C 3.380 2.232,2.461 3.048,2.114 4.160 C 2.023 4.451,2.020 4.503,2.020 5.883 L 2.020 7.306 2.141 7.503 C 2.543 8.156,3.457 8.156,3.859 7.503 L 3.980 7.307 4.000 6.023 C 4.023 4.581,4.025 4.571,4.321 4.283 C 4.635 3.979,4.062 4.000,12.000 4.000 C 19.938 4.000,19.365 3.979,19.679 4.283 C 19.975 4.571,19.977 4.581,20.000 6.023 L 20.020 7.307 20.141 7.503 C 20.543 8.156,21.457 8.156,21.859 7.503 L 21.980 7.306 21.980 5.883 C 21.980 4.503,21.977 4.451,21.886 4.160 C 21.581 3.182,20.832 2.428,19.861 2.121 L 19.540 2.020 12.120 2.014 C 8.039 2.011,4.609 2.024,4.499 2.043 M11.243 6.046 C 10.258 6.121,9.220 6.408,8.302 6.859 C 6.587 7.701,5.241 9.024,4.418 10.677 C 3.859 11.800,3.859 12.200,4.418 13.323 C 5.337 15.168,6.946 16.636,8.900 17.412 C 10.378 17.999,12.029 18.148,13.625 17.839 C 16.188 17.342,18.423 15.649,19.579 13.329 C 20.141 12.200,20.142 11.801,19.582 10.677 C 19.162 9.835,18.649 9.128,17.997 8.494 C 17.466 7.978,17.247 7.799,16.700 7.435 C 15.466 6.613,14.124 6.151,12.660 6.042 C 12.037 5.996,11.901 5.996,11.243 6.046 M12.580 8.041 C 13.416 8.118,14.064 8.293,14.784 8.637 C 16.110 9.270,17.145 10.283,17.799 11.590 L 18.004 12.000 17.799 12.410 C 17.135 13.736,16.108 14.736,14.745 15.381 C 12.997 16.208,11.001 16.208,9.251 15.379 C 7.890 14.734,6.872 13.745,6.199 12.410 L 5.993 12.000 6.199 11.590 C 6.607 10.782,7.153 10.082,7.776 9.568 C 9.200 8.394,10.821 7.879,12.580 8.041 M11.477 10.073 C 10.806 10.249,10.238 10.823,10.060 11.508 C 9.941 11.962,10.003 12.492,10.225 12.930 C 10.361 13.199,10.801 13.639,11.070 13.775 C 11.659 14.073,12.341 14.073,12.930 13.775 C 13.196 13.640,13.638 13.200,13.771 12.937 C 13.994 12.498,14.052 12.007,13.940 11.529 C 13.858 11.182,13.720 10.927,13.465 10.653 C 13.074 10.232,12.560 10.005,12.000 10.005 C 11.857 10.005,11.622 10.036,11.477 10.073 M2.695 16.057 C 2.466 16.129,2.256 16.299,2.128 16.516 L 2.020 16.700 2.020 18.120 C 2.020 19.497,2.023 19.549,2.114 19.840 C 2.422 20.827,3.173 21.578,4.160 21.886 L 4.460 21.980 12.000 21.980 L 19.540 21.980 19.840 21.886 C 20.827 21.578,21.578 20.827,21.886 19.840 C 21.977 19.549,21.980 19.497,21.980 18.120 L 21.980 16.700 21.871 16.514 C 21.479 15.848,20.521 15.848,20.129 16.514 L 20.020 16.700 19.999 17.980 C 19.984 18.854,19.962 19.296,19.929 19.373 C 19.844 19.569,19.673 19.761,19.484 19.872 L 19.300 19.980 12.000 19.980 L 4.700 19.980 4.516 19.872 C 4.327 19.761,4.157 19.570,4.071 19.373 C 4.037 19.295,4.015 18.865,4.001 17.980 L 3.980 16.700 3.872 16.516 C 3.628 16.101,3.150 15.915,2.695 16.057 " stroke="none" fill-rule="evenodd" fill="#000000"></path></svg>