<svg  xmlns="http://www.w3.org/2000/svg" width="24" height="24" viewBox="0 0 24 24" fill="none" stroke="currentColor" stroke-width="2" stroke-linecap="round" stroke-linejoin="round"><path d="M11.280 1.023 C 11.203 1.032,10.951 1.059,10.720 1.083 C 8.832 1.283,6.991 2.023,5.360 3.235 C 4.751 3.688,3.684 4.755,3.226 5.367 C 0.728 8.714,0.301 13.032,2.097 16.780 C 2.643 17.918,3.276 18.801,4.238 19.762 C 5.199 20.724,6.082 21.357,7.220 21.903 C 10.967 23.699,15.288 23.270,18.637 20.770 C 19.246 20.316,20.316 19.246,20.770 18.637 C 23.744 14.652,23.744 9.348,20.770 5.363 C 20.316 4.755,19.247 3.686,18.640 3.235 C 17.045 2.049,15.365 1.360,13.423 1.096 C 13.000 1.038,11.574 0.990,11.280 1.023 M13.320 3.101 C 15.883 3.488,18.124 4.931,19.560 7.120 C 19.863 7.583,20.303 8.479,20.492 9.020 C 20.838 10.013,20.977 10.865,20.977 12.000 C 20.977 13.493,20.720 14.621,20.080 15.940 C 19.375 17.394,18.311 18.607,16.927 19.532 C 16.138 20.060,14.876 20.588,13.908 20.797 C 11.266 21.366,8.479 20.708,6.370 19.019 C 4.857 17.807,3.722 16.029,3.267 14.160 C 3.081 13.397,3.023 12.888,3.023 12.000 C 3.023 10.507,3.280 9.379,3.920 8.060 C 4.971 5.891,6.877 4.221,9.160 3.466 C 9.865 3.233,10.432 3.118,11.340 3.024 C 11.662 2.991,12.911 3.039,13.320 3.101 M9.536 7.058 C 8.970 7.218,8.446 7.627,8.228 8.080 C 7.996 8.563,8.000 8.492,8.000 12.000 C 8.000 15.508,7.996 15.437,8.228 15.920 C 8.366 16.206,8.794 16.634,9.080 16.772 C 9.593 17.019,10.153 17.060,10.650 16.885 C 10.948 16.781,16.123 13.675,16.353 13.463 C 17.181 12.701,17.213 11.414,16.424 10.618 C 16.215 10.406,15.819 10.155,13.640 8.852 C 10.641 7.059,10.869 7.191,10.620 7.105 C 10.343 7.009,9.793 6.985,9.536 7.058 M14.960 12.004 C 14.960 12.017,13.885 12.673,12.570 13.461 C 11.255 14.249,10.139 14.920,10.090 14.951 L 10.000 15.009 10.000 12.007 L 10.000 9.004 12.480 10.492 C 13.844 11.310,14.960 11.991,14.960 12.004 " stroke="none" fill-rule="evenodd" fill="#000000"></path></svg>