<svg  xmlns="http://www.w3.org/2000/svg" width="24" height="24" viewBox="0 0 24 24" fill="none" stroke="currentColor" stroke-width="2" stroke-linecap="round" stroke-linejoin="round"><path d="M14.400 2.060 C 14.257 2.092,14.086 2.140,14.020 2.166 C 13.767 2.265,2.964 7.168,2.658 7.322 C 1.921 7.695,1.364 8.357,1.114 9.160 L 1.020 9.460 1.020 14.500 L 1.020 19.540 1.114 19.840 C 1.422 20.827,2.173 21.578,3.160 21.886 L 3.460 21.980 12.000 21.980 L 20.540 21.980 20.840 21.886 C 21.827 21.578,22.578 20.827,22.886 19.840 L 22.980 19.540 22.980 14.500 L 22.980 9.460 22.886 9.160 C 22.580 8.179,21.816 7.412,20.861 7.127 C 20.603 7.050,20.408 7.026,19.868 7.006 L 19.196 6.980 18.423 5.278 C 17.997 4.342,17.581 3.469,17.498 3.338 C 17.164 2.814,16.584 2.380,15.920 2.157 C 15.458 2.002,14.833 1.962,14.400 2.060 M15.329 4.067 C 15.589 4.168,15.773 4.332,15.891 4.567 C 15.950 4.684,16.222 5.275,16.497 5.880 L 16.997 6.980 14.821 6.990 C 13.625 6.996,11.653 6.996,10.438 6.990 L 8.230 6.980 11.465 5.513 C 13.244 4.706,14.736 4.037,14.780 4.027 C 14.954 3.988,15.166 4.003,15.329 4.067 M5.007 9.653 C 5.020 10.300,5.021 10.308,5.141 10.503 C 5.543 11.156,6.457 11.156,6.859 10.503 C 6.979 10.308,6.980 10.300,6.993 9.653 L 7.007 9.000 13.556 9.000 C 20.926 9.000,20.370 8.976,20.697 9.303 C 21.019 9.625,21.000 9.301,21.000 14.501 C 21.000 19.501,21.008 19.318,20.779 19.618 C 20.718 19.698,20.585 19.813,20.484 19.872 L 20.300 19.980 13.653 19.990 L 7.007 20.001 6.993 19.350 C 6.981 18.726,6.976 18.693,6.871 18.514 C 6.479 17.848,5.521 17.848,5.129 18.514 C 5.024 18.693,5.019 18.725,5.007 19.353 L 4.993 20.007 4.347 19.993 C 3.728 19.981,3.692 19.975,3.516 19.872 C 3.415 19.813,3.284 19.700,3.225 19.623 C 2.989 19.314,3.000 19.562,3.000 14.522 C 3.000 9.310,2.982 9.624,3.297 9.309 C 3.550 9.057,3.738 9.005,4.427 9.002 L 4.993 9.000 5.007 9.653 M17.670 11.057 C 17.587 11.087,17.443 11.174,17.350 11.251 C 17.212 11.364,15.968 12.485,15.560 12.863 L 15.460 12.955 13.840 12.738 C 12.125 12.508,11.837 12.487,11.626 12.575 C 11.170 12.765,10.908 13.307,11.040 13.781 C 11.105 14.012,11.385 14.329,11.598 14.415 C 11.686 14.450,12.113 14.525,12.549 14.581 C 12.984 14.638,13.374 14.698,13.416 14.714 C 13.480 14.740,13.401 14.827,12.923 15.262 C 12.091 16.021,12.200 15.976,11.120 16.001 C 10.299 16.020,10.206 16.029,10.060 16.107 C 9.707 16.297,9.512 16.615,9.512 17.003 C 9.512 17.292,9.619 17.536,9.827 17.724 C 10.125 17.992,10.227 18.011,11.327 17.991 C 12.199 17.975,12.329 17.964,12.580 17.883 C 12.940 17.766,13.332 17.561,13.570 17.364 C 13.673 17.279,14.892 16.178,16.279 14.918 C 19.079 12.373,18.980 12.480,18.980 11.980 C 18.980 11.746,18.962 11.669,18.869 11.511 C 18.625 11.096,18.109 10.900,17.670 11.057 M5.695 13.057 C 5.466 13.129,5.256 13.299,5.128 13.516 C 5.020 13.699,5.020 13.703,5.020 14.503 L 5.020 15.306 5.141 15.503 C 5.543 16.156,6.457 16.156,6.859 15.503 L 6.980 15.306 6.980 14.503 C 6.980 13.703,6.980 13.699,6.872 13.516 C 6.628 13.101,6.150 12.915,5.695 13.057 " stroke="none" fill-rule="evenodd" fill="#000000"></path></svg>