<svg  xmlns="http://www.w3.org/2000/svg" width="24" height="24" viewBox="0 0 24 24" fill="none" stroke="currentColor" stroke-width="2" stroke-linecap="round" stroke-linejoin="round"><path d="M17.358 8.061 C 15.851 8.296,14.597 9.415,14.143 10.930 C 14.124 10.996,13.820 11.000,8.508 11.000 C 3.866 11.000,2.861 11.010,2.710 11.055 C 2.467 11.128,2.260 11.293,2.128 11.516 C 2.037 11.672,2.020 11.746,2.020 12.000 C 2.020 12.256,2.036 12.328,2.131 12.489 C 2.256 12.702,2.449 12.864,2.670 12.943 C 2.793 12.987,3.855 12.997,8.471 12.998 C 13.818 13.000,14.124 13.004,14.143 13.070 C 14.510 14.292,15.362 15.240,16.512 15.704 C 18.558 16.528,20.877 15.538,21.704 13.488 C 22.090 12.530,22.090 11.469,21.705 10.516 C 21.172 9.197,20.001 8.269,18.605 8.058 C 18.144 7.989,17.816 7.990,17.358 8.061 M18.523 10.073 C 19.262 10.266,19.850 10.924,19.967 11.690 C 20.067 12.343,19.873 12.933,19.403 13.404 C 19.002 13.807,18.547 14.000,18.000 14.000 C 17.485 14.000,17.038 13.822,16.653 13.465 C 15.323 12.229,16.189 10.005,18.000 10.005 C 18.143 10.005,18.378 10.036,18.523 10.073 " stroke="none" fill-rule="evenodd" fill="#000000"></path></svg>