<svg  xmlns="http://www.w3.org/2000/svg" width="24" height="24" viewBox="0 0 24 24" fill="none" stroke="currentColor" stroke-width="2" stroke-linecap="round" stroke-linejoin="round"><path d="M1.670 1.061 C 1.448 1.142,1.250 1.309,1.128 1.516 C 1.037 1.672,1.020 1.746,1.020 2.000 C 1.020 2.254,1.036 2.327,1.127 2.480 C 1.187 2.579,2.227 3.651,3.452 4.875 L 5.669 7.089 5.375 7.525 C 5.035 8.028,4.713 8.651,4.503 9.213 C 4.333 9.668,4.135 10.425,4.096 10.765 L 4.070 11.000 2.981 11.000 C 1.794 11.000,1.645 11.021,1.382 11.221 C 1.302 11.282,1.187 11.415,1.128 11.516 C 1.037 11.672,1.020 11.746,1.020 12.000 C 1.020 12.256,1.036 12.328,1.131 12.489 C 1.192 12.592,1.304 12.725,1.381 12.783 C 1.644 12.984,1.735 12.996,2.950 12.998 L 4.080 13.000 4.080 13.102 C 4.080 13.528,4.451 14.751,4.800 15.471 C 5.197 16.294,5.611 16.886,6.259 17.554 C 7.180 18.506,8.272 19.193,9.500 19.595 C 9.976 19.751,10.703 19.920,10.896 19.920 L 10.996 19.920 11.008 21.113 L 11.020 22.306 11.141 22.503 C 11.543 23.156,12.457 23.156,12.859 22.503 L 12.980 22.306 12.992 21.118 L 13.004 19.930 13.237 19.904 C 13.575 19.865,14.333 19.666,14.787 19.497 C 15.349 19.287,15.972 18.965,16.475 18.625 L 16.911 18.331 19.125 20.548 C 20.349 21.773,21.421 22.813,21.520 22.873 C 21.673 22.964,21.746 22.980,22.000 22.980 C 22.257 22.980,22.327 22.964,22.492 22.867 C 22.968 22.587,23.139 21.967,22.865 21.508 C 22.810 21.416,18.215 16.793,12.653 11.235 C 3.300 1.889,2.525 1.125,2.343 1.065 C 2.107 0.987,1.874 0.986,1.670 1.061 M11.695 1.057 C 11.466 1.129,11.256 1.299,11.128 1.516 L 11.020 1.700 11.008 2.887 L 10.996 4.075 10.768 4.102 C 10.316 4.155,10.022 4.348,9.855 4.700 C 9.626 5.185,9.832 5.749,10.332 6.007 C 10.536 6.113,10.763 6.120,11.420 6.044 C 12.528 5.916,13.590 6.111,14.660 6.640 C 15.875 7.240,16.760 8.125,17.360 9.340 C 17.910 10.453,18.097 11.547,17.943 12.752 C 17.905 13.045,17.887 13.342,17.902 13.412 C 18.013 13.926,18.480 14.280,18.980 14.228 C 19.496 14.175,19.836 13.806,19.904 13.227 L 19.931 13.000 21.056 12.998 C 22.265 12.996,22.356 12.984,22.619 12.783 C 22.696 12.725,22.808 12.592,22.869 12.489 C 22.964 12.328,22.980 12.256,22.980 12.000 C 22.980 11.746,22.963 11.672,22.872 11.516 C 22.813 11.415,22.698 11.282,22.618 11.221 C 22.355 11.021,22.206 11.000,21.014 11.000 L 19.920 11.000 19.920 10.898 C 19.920 10.703,19.751 9.979,19.595 9.500 C 19.306 8.618,18.800 7.690,18.209 6.956 C 17.863 6.528,17.121 5.827,16.689 5.520 C 15.687 4.809,14.433 4.286,13.324 4.116 L 13.004 4.067 12.992 2.883 L 12.980 1.700 12.872 1.516 C 12.628 1.101,12.150 0.915,11.695 1.057 M11.300 12.722 L 15.460 16.884 15.341 16.981 C 15.170 17.119,14.431 17.496,14.080 17.623 C 12.709 18.120,11.295 18.122,9.935 17.629 C 8.514 17.113,7.319 16.038,6.623 14.647 C 5.781 12.968,5.815 10.848,6.708 9.192 C 6.915 8.810,7.074 8.560,7.111 8.560 C 7.127 8.560,9.012 10.433,11.300 12.722 " stroke="none" fill-rule="evenodd" fill="#000000"></path></svg>