<svg  xmlns="http://www.w3.org/2000/svg" width="24" height="24" viewBox="0 0 24 24" fill="none" stroke="currentColor" stroke-width="2" stroke-linecap="round" stroke-linejoin="round"><path d="M6.873 1.060 C 6.136 1.200,5.468 1.565,4.958 2.105 C 4.559 2.527,4.314 2.957,4.133 3.548 C 4.038 3.863,4.026 3.963,4.026 4.500 C 4.026 5.037,4.038 5.137,4.133 5.452 C 4.725 7.393,6.674 8.429,8.588 7.821 C 9.604 7.498,10.497 6.606,10.820 5.591 C 10.943 5.205,10.999 4.860,10.999 4.500 C 10.999 2.928,9.904 1.515,8.378 1.118 C 7.959 1.009,7.280 0.983,6.873 1.060 M8.119 3.143 C 8.417 3.279,8.727 3.592,8.865 3.896 C 8.960 4.105,8.976 4.192,8.976 4.500 C 8.976 4.808,8.960 4.895,8.865 5.104 C 8.725 5.413,8.417 5.720,8.100 5.868 C 7.893 5.965,7.810 5.980,7.500 5.980 C 7.190 5.980,7.107 5.965,6.900 5.868 C 6.583 5.720,6.275 5.413,6.135 5.104 C 6.040 4.896,6.024 4.808,6.024 4.500 C 6.023 4.191,6.039 4.106,6.134 3.900 C 6.327 3.478,6.749 3.129,7.174 3.039 C 7.441 2.982,7.870 3.030,8.119 3.143 M17.900 4.045 C 16.431 4.229,15.051 5.245,14.421 6.609 C 13.787 7.981,13.883 9.574,14.677 10.864 C 15.287 11.855,16.242 12.550,17.437 12.871 C 17.778 12.963,17.895 12.974,18.500 12.974 C 19.105 12.974,19.222 12.963,19.563 12.871 C 21.550 12.337,22.890 10.711,22.988 8.717 C 23.126 5.921,20.702 3.695,17.900 4.045 M19.020 6.060 C 19.741 6.211,20.395 6.713,20.715 7.362 C 21.087 8.118,21.090 8.878,20.723 9.620 C 20.439 10.195,19.932 10.646,19.320 10.868 C 19.052 10.965,18.965 10.976,18.500 10.976 C 18.035 10.976,17.948 10.965,17.680 10.868 C 17.068 10.646,16.561 10.195,16.277 9.620 C 15.347 7.740,16.972 5.631,19.020 6.060 M6.842 10.043 C 6.135 10.111,5.488 10.287,4.820 10.591 C 2.848 11.489,1.494 13.242,1.090 15.420 C 0.998 15.915,0.998 17.085,1.090 17.580 C 1.604 20.351,3.649 22.396,6.420 22.910 C 6.915 23.002,8.085 23.002,8.580 22.910 C 11.351 22.396,13.396 20.351,13.910 17.580 C 14.002 17.085,14.002 15.915,13.910 15.420 C 13.459 12.987,11.820 11.094,9.500 10.325 C 8.672 10.050,7.766 9.955,6.842 10.043 M8.060 12.044 C 9.549 12.227,10.886 13.184,11.540 14.537 C 12.261 16.026,12.099 17.841,11.129 19.143 C 10.547 19.925,9.816 20.462,8.929 20.759 C 7.980 21.077,7.020 21.077,6.071 20.759 C 4.090 20.095,2.818 18.127,3.033 16.060 C 3.297 13.527,5.540 11.736,8.060 12.044 M6.966 14.061 C 6.315 14.203,5.947 14.644,6.013 15.205 C 6.056 15.564,6.274 15.852,6.613 15.997 C 6.834 16.092,6.999 16.100,7.323 16.033 C 7.727 15.949,7.947 16.110,7.999 16.528 C 8.071 17.116,8.459 17.488,9.000 17.488 C 9.405 17.488,9.724 17.281,9.905 16.900 C 10.024 16.648,10.029 16.328,9.921 15.904 C 9.585 14.592,8.278 13.777,6.966 14.061 " stroke="none" fill-rule="evenodd" fill="#000000"></path></svg>