<svg  xmlns="http://www.w3.org/2000/svg" width="24" height="24" viewBox="0 0 24 24" fill="none" stroke="currentColor" stroke-width="2" stroke-linecap="round" stroke-linejoin="round"><path d="M3.499 4.043 C 2.380 4.232,1.461 5.048,1.114 6.160 L 1.020 6.460 1.020 12.000 L 1.020 17.540 1.114 17.840 C 1.422 18.827,2.173 19.578,3.160 19.886 L 3.460 19.980 12.000 19.980 L 20.540 19.980 20.840 19.886 C 21.827 19.578,22.578 18.827,22.886 17.840 L 22.980 17.540 22.980 12.000 L 22.980 6.460 22.886 6.160 C 22.581 5.182,21.832 4.428,20.861 4.121 L 20.540 4.020 12.120 4.014 C 7.489 4.011,3.609 4.024,3.499 4.043 M20.310 6.061 C 20.589 6.144,20.856 6.411,20.939 6.690 C 20.992 6.868,21.000 7.546,21.000 12.001 C 21.000 16.212,20.990 17.139,20.945 17.290 C 20.872 17.533,20.707 17.740,20.484 17.872 L 20.300 17.980 12.000 17.980 L 3.700 17.980 3.516 17.872 C 3.303 17.747,3.141 17.550,3.058 17.316 C 2.969 17.061,2.971 6.993,3.061 6.690 C 3.140 6.421,3.412 6.143,3.673 6.063 C 3.833 6.014,5.030 6.005,11.983 6.003 C 19.144 6.000,20.130 6.007,20.310 6.061 M8.540 8.024 C 7.765 8.138,7.099 8.419,6.486 8.891 C 5.849 9.381,5.294 10.279,5.094 11.140 C 4.992 11.581,4.992 12.419,5.094 12.860 C 5.345 13.943,6.048 14.907,6.985 15.455 C 7.332 15.658,7.795 15.828,8.260 15.925 C 8.978 16.074,9.975 15.970,10.486 15.692 C 10.821 15.511,11.028 15.119,10.988 14.739 C 10.950 14.363,10.745 14.080,10.400 13.923 C 10.171 13.820,9.916 13.819,9.550 13.920 C 8.524 14.204,7.465 13.646,7.116 12.636 C 6.993 12.279,6.993 11.721,7.116 11.364 C 7.471 10.336,8.572 9.779,9.616 10.100 C 10.297 10.309,10.920 9.928,10.988 9.261 C 11.028 8.881,10.820 8.488,10.486 8.309 C 10.179 8.144,9.677 8.036,9.140 8.021 C 8.876 8.013,8.606 8.015,8.540 8.024 M15.540 8.024 C 14.765 8.138,14.099 8.419,13.486 8.891 C 12.849 9.381,12.294 10.279,12.094 11.140 C 11.992 11.581,11.992 12.419,12.094 12.860 C 12.345 13.943,13.048 14.907,13.985 15.455 C 14.332 15.658,14.795 15.828,15.260 15.925 C 15.978 16.074,16.975 15.970,17.486 15.692 C 17.821 15.511,18.028 15.119,17.988 14.739 C 17.950 14.363,17.745 14.080,17.400 13.923 C 17.171 13.820,16.916 13.819,16.550 13.920 C 15.524 14.204,14.465 13.646,14.116 12.636 C 14.050 12.442,14.028 12.288,14.028 12.000 C 14.028 11.547,14.122 11.230,14.361 10.879 C 14.851 10.157,15.769 9.840,16.616 10.100 C 17.297 10.309,17.920 9.928,17.988 9.261 C 18.028 8.881,17.820 8.488,17.486 8.309 C 17.179 8.144,16.677 8.036,16.140 8.021 C 15.876 8.013,15.606 8.015,15.540 8.024 " stroke="none" fill-rule="evenodd" fill="#000000"></path></svg>