<svg  xmlns="http://www.w3.org/2000/svg" width="24" height="24" viewBox="0 0 24 24" fill="none" stroke="currentColor" stroke-width="2" stroke-linecap="round" stroke-linejoin="round"><path d="M4.499 2.043 C 3.380 2.232,2.461 3.048,2.114 4.160 L 2.020 4.460 2.020 12.000 L 2.020 19.540 2.114 19.840 C 2.419 20.816,3.153 21.557,4.140 21.885 C 4.418 21.977,4.435 21.978,6.759 21.991 C 8.880 22.003,9.114 21.998,9.275 21.936 C 9.503 21.849,9.753 21.623,9.845 21.420 C 9.937 21.220,9.943 20.812,9.858 20.609 C 9.742 20.331,9.442 20.089,9.130 20.022 L 9.000 19.994 9.000 17.836 L 9.000 15.678 9.105 15.520 C 9.227 15.335,9.274 14.953,9.205 14.698 C 9.150 14.494,8.921 14.224,8.706 14.109 C 8.541 14.021,8.527 14.020,6.270 14.009 L 4.000 13.997 4.000 11.999 L 4.000 10.001 7.750 9.991 C 11.920 9.979,11.622 9.999,11.918 9.710 C 12.127 9.506,12.214 9.296,12.214 9.000 C 12.214 8.604,12.027 8.302,11.661 8.106 C 11.508 8.024,11.440 8.019,10.250 8.008 L 9.000 7.996 9.000 5.998 L 9.000 4.000 12.000 4.000 L 15.000 4.000 15.000 4.625 C 15.000 5.387,15.032 5.512,15.299 5.787 C 15.724 6.223,16.326 6.212,16.733 5.760 C 16.967 5.499,17.000 5.360,17.000 4.625 L 17.000 4.000 18.053 4.000 C 19.297 4.000,19.416 4.022,19.697 4.303 C 19.997 4.603,20.000 4.627,20.000 6.660 C 20.000 8.669,20.001 8.674,20.304 8.978 C 20.710 9.384,21.316 9.372,21.726 8.949 C 22.005 8.661,22.006 8.650,21.991 6.413 C 21.978 4.455,21.976 4.415,21.885 4.140 C 21.561 3.163,20.822 2.425,19.861 2.121 L 19.540 2.020 12.120 2.014 C 8.039 2.011,4.609 2.024,4.499 2.043 M7.000 6.000 L 7.000 8.000 5.500 8.000 L 4.000 8.000 4.000 6.447 C 4.000 4.649,4.007 4.599,4.304 4.303 C 4.582 4.024,4.680 4.006,5.930 4.003 L 7.000 4.000 7.000 6.000 M16.540 8.062 C 15.734 8.264,14.727 9.055,14.153 9.939 C 13.696 10.643,13.509 11.244,13.506 12.020 C 13.505 12.465,13.520 12.597,13.612 12.934 C 13.789 13.578,14.123 14.168,14.630 14.734 C 14.939 15.077,15.012 15.257,14.993 15.623 C 14.981 15.870,14.960 15.942,14.858 16.086 C 14.595 16.461,14.165 16.626,13.760 16.507 C 13.427 16.410,13.264 16.250,13.060 15.821 C 12.803 15.284,12.531 15.099,12.037 15.127 C 11.550 15.155,11.244 15.437,11.092 16.000 C 10.981 16.409,10.994 17.601,11.114 18.160 C 11.638 20.587,13.417 22.365,15.840 22.885 C 16.190 22.960,16.383 22.975,17.000 22.975 C 17.822 22.975,18.248 22.909,18.940 22.672 C 21.749 21.710,23.459 18.777,22.879 15.915 C 22.594 14.502,21.878 13.327,20.715 12.362 C 19.722 11.537,19.600 11.430,19.333 11.148 C 18.836 10.625,18.338 9.769,18.037 8.922 C 17.964 8.715,17.849 8.473,17.781 8.385 C 17.533 8.059,17.051 7.934,16.540 8.062 M16.655 10.760 C 17.196 11.860,17.802 12.562,19.183 13.688 C 20.001 14.354,20.349 14.778,20.656 15.477 C 21.547 17.503,20.569 19.853,18.479 20.711 C 16.589 21.487,14.365 20.639,13.434 18.789 L 13.273 18.469 13.427 18.493 C 13.840 18.559,14.054 18.566,14.369 18.524 C 15.383 18.389,16.236 17.801,16.672 16.936 C 17.138 16.013,17.132 15.023,16.656 14.120 C 16.581 13.977,16.365 13.681,16.178 13.462 C 15.974 13.225,15.777 12.944,15.690 12.768 C 15.564 12.513,15.542 12.426,15.528 12.126 C 15.508 11.714,15.576 11.443,15.783 11.096 C 15.908 10.888,16.382 10.357,16.439 10.362 C 16.450 10.363,16.548 10.542,16.655 10.760 M7.000 18.002 L 7.000 20.005 5.850 19.992 L 4.700 19.980 4.516 19.872 C 4.415 19.813,4.284 19.700,4.225 19.623 C 4.006 19.336,4.000 19.283,4.000 17.575 L 4.000 16.000 5.500 16.000 L 7.000 16.000 7.000 18.002 " stroke="none" fill-rule="evenodd" fill="#000000"></path></svg>