<svg  xmlns="http://www.w3.org/2000/svg" width="24" height="24" viewBox="0 0 24 24" fill="none" stroke="currentColor" stroke-width="2" stroke-linecap="round" stroke-linejoin="round"><path d="M1.670 1.061 C 1.448 1.142,1.250 1.309,1.128 1.516 C 1.036 1.672,1.020 1.745,1.021 2.000 C 1.021 2.212,1.043 2.341,1.095 2.440 C 1.135 2.517,1.934 3.348,2.870 4.286 L 4.571 5.992 4.410 6.486 C 4.225 7.051,4.104 7.608,4.042 8.168 C 3.973 8.803,3.986 15.348,4.057 15.922 C 4.479 19.296,6.830 21.946,10.140 22.777 C 13.075 23.514,16.275 22.417,18.247 20.000 L 18.394 19.820 19.907 21.326 C 20.739 22.154,21.483 22.865,21.560 22.905 C 21.659 22.957,21.788 22.979,22.000 22.979 C 22.258 22.980,22.327 22.964,22.492 22.867 C 22.968 22.587,23.139 21.967,22.865 21.508 C 22.810 21.416,18.215 16.793,12.653 11.235 C 3.300 1.889,2.525 1.125,2.343 1.065 C 2.107 0.987,1.874 0.986,1.670 1.061 M11.360 1.025 C 11.305 1.033,11.098 1.059,10.900 1.083 C 10.134 1.175,9.341 1.415,8.540 1.796 C 7.824 2.137,7.614 2.364,7.571 2.839 C 7.530 3.285,7.847 3.730,8.298 3.861 C 8.596 3.948,8.781 3.906,9.364 3.620 C 10.246 3.187,10.963 3.025,12.000 3.023 C 12.791 3.022,13.322 3.104,13.951 3.326 C 15.973 4.040,17.409 5.681,17.884 7.820 C 17.970 8.205,17.974 8.324,17.997 10.920 C 18.014 12.910,18.033 13.649,18.069 13.730 C 18.154 13.922,18.437 14.192,18.629 14.266 C 19.134 14.459,19.674 14.236,19.906 13.740 L 19.999 13.540 19.999 11.040 C 19.999 9.665,19.981 8.372,19.959 8.166 C 19.805 6.704,19.198 5.217,18.265 4.020 C 18.024 3.711,17.414 3.093,17.081 2.821 C 16.112 2.030,14.835 1.417,13.662 1.180 C 12.919 1.030,11.832 0.957,11.360 1.025 M11.695 5.057 C 11.466 5.129,11.256 5.299,11.130 5.514 C 11.040 5.667,11.020 5.755,11.007 6.069 C 10.986 6.549,11.041 6.748,11.267 6.999 C 11.662 7.439,12.319 7.451,12.711 7.026 C 12.950 6.766,13.013 6.560,12.994 6.091 C 12.980 5.753,12.963 5.672,12.871 5.515 C 12.628 5.101,12.150 4.915,11.695 5.057 M16.931 18.418 C 16.918 18.441,16.793 18.607,16.655 18.786 C 15.827 19.854,14.439 20.659,12.964 20.925 C 12.371 21.032,11.392 21.014,10.813 20.885 C 8.961 20.475,7.523 19.386,6.685 17.760 C 6.300 17.012,6.123 16.430,6.042 15.644 C 5.988 15.114,5.986 8.831,6.040 8.360 C 6.061 8.173,6.099 7.923,6.123 7.804 L 6.168 7.588 11.562 12.982 C 14.528 15.948,16.944 18.394,16.931 18.418 " stroke="none" fill-rule="evenodd" fill="#000000"></path></svg>