<svg  xmlns="http://www.w3.org/2000/svg" width="24" height="24" viewBox="0 0 24 24" fill="none" stroke="currentColor" stroke-width="2" stroke-linecap="round" stroke-linejoin="round"><path d="M5.499 1.042 C 4.378 1.234,3.461 2.048,3.114 3.160 L 3.020 3.460 3.020 7.883 L 3.020 12.306 3.141 12.503 C 3.543 13.156,4.457 13.156,4.859 12.503 L 4.980 12.306 5.000 8.023 C 5.022 3.224,4.997 3.598,5.321 3.283 C 5.625 2.989,5.459 3.000,9.447 3.000 L 13.000 3.000 13.000 5.132 C 13.000 7.443,13.004 7.494,13.225 7.930 C 13.361 8.199,13.801 8.639,14.070 8.775 C 14.506 8.996,14.557 9.000,16.868 9.000 L 19.000 9.000 19.000 14.554 C 19.000 20.584,19.010 20.315,18.779 20.618 C 18.613 20.835,18.380 20.954,18.034 20.998 C 17.870 21.019,17.686 21.055,17.625 21.078 C 17.439 21.149,17.242 21.323,17.128 21.516 C 17.037 21.672,17.020 21.746,17.020 22.000 C 17.020 22.257,17.036 22.327,17.133 22.492 C 17.263 22.714,17.502 22.901,17.736 22.965 C 17.960 23.026,18.519 22.982,18.863 22.877 C 19.820 22.584,20.581 21.818,20.886 20.840 L 20.980 20.540 20.980 13.980 L 20.980 7.420 20.868 7.060 C 20.732 6.627,20.505 6.192,20.241 5.863 C 19.921 5.464,16.162 1.748,15.920 1.592 C 15.585 1.376,15.319 1.252,14.932 1.131 L 14.580 1.020 10.140 1.014 C 7.698 1.011,5.609 1.024,5.499 1.042 M16.800 5.220 L 18.580 7.000 16.790 7.000 L 15.000 7.000 15.000 5.220 C 15.000 4.241,15.005 3.440,15.010 3.440 C 15.016 3.440,15.821 4.241,16.800 5.220 M3.499 15.040 C 2.363 15.246,1.461 16.048,1.114 17.160 C 1.022 17.453,1.020 17.497,1.020 19.000 C 1.020 20.503,1.022 20.547,1.114 20.840 C 1.422 21.827,2.174 22.579,3.160 22.886 C 3.412 22.964,3.547 22.979,4.000 22.979 C 4.453 22.979,4.588 22.964,4.840 22.886 C 5.826 22.579,6.578 21.827,6.886 20.840 C 6.978 20.547,6.980 20.503,6.980 19.000 C 6.980 17.497,6.978 17.453,6.886 17.160 C 6.580 16.178,5.810 15.407,4.861 15.129 C 4.500 15.023,3.832 14.980,3.499 15.040 M9.695 15.057 C 9.466 15.129,9.256 15.299,9.128 15.516 C 9.037 15.672,9.020 15.746,9.020 16.000 C 9.020 16.256,9.036 16.328,9.131 16.489 C 9.256 16.702,9.449 16.864,9.670 16.943 C 9.768 16.978,10.023 16.997,10.410 16.998 L 11.000 17.000 11.000 19.000 L 11.000 21.000 10.446 21.000 C 9.648 21.000,9.367 21.110,9.128 21.516 C 9.037 21.672,9.020 21.746,9.020 22.000 C 9.020 22.256,9.036 22.328,9.131 22.489 C 9.256 22.702,9.449 22.864,9.670 22.943 C 9.889 23.021,14.111 23.021,14.330 22.943 C 14.551 22.864,14.744 22.702,14.869 22.489 C 14.964 22.328,14.980 22.256,14.980 22.000 C 14.980 21.746,14.963 21.672,14.872 21.516 C 14.633 21.110,14.352 21.000,13.555 21.000 L 13.002 21.000 12.991 18.350 L 12.980 15.700 12.872 15.516 C 12.740 15.293,12.533 15.128,12.290 15.055 C 12.039 14.979,9.937 14.981,9.695 15.057 M4.310 17.061 C 4.589 17.144,4.856 17.411,4.939 17.690 C 5.023 17.972,5.028 20.015,4.945 20.290 C 4.872 20.533,4.707 20.740,4.484 20.872 C 4.328 20.963,4.254 20.980,4.000 20.980 C 3.746 20.980,3.672 20.963,3.516 20.872 C 3.415 20.813,3.284 20.700,3.225 20.623 C 3.014 20.347,3.000 20.245,3.000 19.022 C 3.000 17.695,3.019 17.587,3.304 17.303 C 3.583 17.024,3.916 16.944,4.310 17.061 " stroke="none" fill-rule="evenodd" fill="#000000"></path></svg>