<svg  xmlns="http://www.w3.org/2000/svg" width="24" height="24" viewBox="0 0 24 24" fill="none" stroke="currentColor" stroke-width="2" stroke-linecap="round" stroke-linejoin="round"><path d="M5.499 1.043 C 4.379 1.234,3.461 2.048,3.114 3.160 L 3.020 3.460 3.020 12.000 L 3.020 20.540 3.114 20.840 C 3.422 21.827,4.173 22.578,5.160 22.886 L 5.460 22.980 12.000 22.980 L 18.540 22.980 18.840 22.886 C 19.827 22.578,20.578 21.827,20.886 20.840 L 20.980 20.540 20.980 13.980 L 20.980 7.420 20.868 7.060 C 20.728 6.613,20.498 6.179,20.219 5.840 C 19.855 5.397,16.159 1.747,15.910 1.585 C 15.591 1.378,15.236 1.218,14.860 1.111 L 14.540 1.021 10.120 1.015 C 7.689 1.011,5.609 1.024,5.499 1.043 M14.560 3.116 C 14.750 3.200,15.047 3.479,16.752 5.176 C 18.505 6.922,18.738 7.169,18.852 7.399 L 18.980 7.658 18.992 13.839 C 19.001 18.220,18.992 20.079,18.961 20.224 C 18.905 20.484,18.724 20.731,18.486 20.871 L 18.300 20.980 12.000 20.980 L 5.700 20.980 5.516 20.872 C 5.415 20.813,5.284 20.700,5.225 20.623 C 4.985 20.308,5.000 20.888,5.000 12.022 C 5.000 2.888,4.974 3.632,5.304 3.303 C 5.620 2.986,5.329 3.004,10.100 3.012 L 14.340 3.020 14.560 3.116 M11.055 6.120 C 10.019 6.354,9.032 7.056,8.514 7.926 C 8.129 8.573,8.025 9.022,8.176 9.380 C 8.377 9.854,8.963 10.117,9.426 9.940 C 9.720 9.828,9.906 9.629,10.100 9.222 C 10.321 8.758,10.649 8.428,11.100 8.214 C 11.364 8.088,11.455 8.066,11.778 8.049 C 12.437 8.015,12.932 8.209,13.366 8.672 C 13.685 9.014,13.832 9.327,13.887 9.787 C 13.927 10.114,13.924 10.157,13.841 10.373 C 13.631 10.923,12.770 11.592,11.764 11.989 C 11.486 12.098,11.335 12.185,11.216 12.303 C 11.039 12.479,10.920 12.759,10.920 13.000 C 10.920 13.531,11.393 14.000,11.927 14.000 C 12.350 14.000,13.565 13.410,14.292 12.851 C 15.450 11.961,15.974 10.956,15.906 9.760 C 15.818 8.226,14.761 6.804,13.319 6.277 C 12.658 6.036,11.716 5.971,11.055 6.120 M11.695 16.055 C 11.464 16.130,11.255 16.300,11.128 16.516 C 11.037 16.672,11.020 16.746,11.020 17.000 C 11.020 17.257,11.036 17.327,11.133 17.492 C 11.651 18.374,12.998 18.018,12.998 17.000 C 12.998 16.623,12.792 16.281,12.463 16.112 C 12.265 16.010,11.911 15.984,11.695 16.055 " stroke="none" fill-rule="evenodd" fill="#000000"></path></svg>