<svg  xmlns="http://www.w3.org/2000/svg" width="24" height="24" viewBox="0 0 24 24" fill="none" stroke="currentColor" stroke-width="2" stroke-linecap="round" stroke-linejoin="round"><path d="M11.640 1.038 C 11.356 1.091,11.039 1.232,10.800 1.411 C 10.145 1.903,5.601 5.568,5.493 5.691 C 5.330 5.877,5.187 6.126,5.096 6.380 C 5.038 6.542,5.020 6.758,5.002 7.516 L 4.980 8.453 3.380 9.426 C 1.648 10.481,1.443 10.638,1.226 11.086 C 0.990 11.572,0.996 11.434,1.009 15.686 L 1.020 19.580 1.114 19.860 C 1.446 20.851,2.184 21.582,3.160 21.886 L 3.460 21.980 12.000 21.980 L 20.540 21.980 20.840 21.886 C 21.816 21.582,22.554 20.851,22.886 19.860 L 22.980 19.580 22.991 15.686 C 23.004 11.434,23.010 11.572,22.774 11.086 C 22.557 10.638,22.352 10.481,20.620 9.426 L 19.020 8.453 18.998 7.516 C 18.980 6.758,18.962 6.542,18.904 6.380 C 18.813 6.126,18.670 5.877,18.507 5.691 C 18.400 5.568,13.869 1.915,13.198 1.409 C 12.784 1.098,12.140 0.945,11.640 1.038 M14.500 5.000 L 17.000 7.001 17.000 13.500 L 17.000 20.000 16.003 20.000 L 15.007 20.000 14.991 18.710 C 14.976 17.498,14.969 17.403,14.884 17.140 C 14.565 16.165,13.812 15.415,12.861 15.125 C 12.588 15.042,12.458 15.027,12.000 15.027 C 11.542 15.027,11.412 15.042,11.139 15.125 C 10.188 15.415,9.435 16.165,9.116 17.140 C 9.031 17.403,9.024 17.498,9.009 18.710 L 8.993 20.000 7.997 20.000 L 7.000 20.000 7.000 13.500 L 7.000 7.001 9.490 5.003 C 10.860 3.905,11.985 3.004,11.990 3.003 C 11.996 3.001,13.126 3.900,14.500 5.000 M11.695 6.057 C 11.466 6.129,11.256 6.299,11.128 6.516 C 11.025 6.692,11.019 6.728,11.007 7.350 L 10.993 8.000 10.443 8.000 C 9.648 8.000,9.366 8.111,9.128 8.516 C 9.037 8.672,9.020 8.746,9.020 9.000 C 9.020 9.256,9.036 9.328,9.131 9.489 C 9.256 9.702,9.449 9.864,9.670 9.943 C 9.768 9.978,10.022 9.997,10.408 9.998 L 10.995 10.000 11.008 11.153 L 11.020 12.307 11.141 12.503 C 11.543 13.156,12.457 13.156,12.859 12.503 L 12.980 12.307 12.992 11.153 L 13.005 10.000 13.592 9.998 C 13.978 9.997,14.232 9.978,14.330 9.943 C 14.551 9.864,14.744 9.702,14.869 9.489 C 14.964 9.328,14.980 9.256,14.980 9.000 C 14.980 8.746,14.963 8.672,14.872 8.516 C 14.634 8.111,14.352 8.000,13.557 8.000 L 13.007 8.000 12.993 7.350 C 12.981 6.728,12.975 6.692,12.872 6.516 C 12.628 6.101,12.150 5.915,11.695 6.057 M5.000 15.403 L 5.000 20.007 4.350 19.993 C 3.728 19.981,3.692 19.975,3.516 19.872 C 3.415 19.813,3.283 19.700,3.224 19.621 C 2.991 19.316,2.999 19.457,3.010 15.565 L 3.020 11.991 3.980 11.399 C 4.508 11.074,4.954 10.806,4.970 10.804 C 4.986 10.802,5.000 12.872,5.000 15.403 M20.005 11.397 L 20.980 11.994 20.992 15.507 C 21.001 17.940,20.991 19.083,20.961 19.224 C 20.905 19.484,20.724 19.731,20.486 19.871 C 20.307 19.976,20.274 19.981,19.650 19.993 L 19.000 20.007 19.000 15.403 C 19.000 12.872,19.007 10.800,19.015 10.800 C 19.024 10.800,19.470 11.069,20.005 11.397 M12.310 17.061 C 12.452 17.103,12.571 17.178,12.697 17.303 C 12.978 17.584,13.000 17.703,13.000 18.947 L 13.000 20.000 12.000 20.000 L 11.000 20.000 11.000 18.947 C 11.000 17.702,11.022 17.585,11.304 17.303 C 11.583 17.024,11.916 16.944,12.310 17.061 " stroke="none" fill-rule="evenodd" fill="#000000"></path></svg>