<svg  xmlns="http://www.w3.org/2000/svg" width="24" height="24" viewBox="0 0 24 24" fill="none" stroke="currentColor" stroke-width="2" stroke-linecap="round" stroke-linejoin="round"><path d="M19.640 3.068 C 19.483 3.121,18.793 3.795,14.230 8.354 L 9.001 13.578 6.770 11.355 C 4.756 9.346,4.521 9.124,4.343 9.065 C 3.862 8.906,3.382 9.084,3.128 9.516 C 3.036 9.672,3.020 9.745,3.021 10.000 C 3.021 10.212,3.043 10.341,3.095 10.440 C 3.135 10.517,4.341 11.756,5.774 13.194 C 8.607 16.036,8.565 15.999,9.000 15.999 C 9.450 15.999,9.149 16.280,15.226 10.194 C 18.309 7.106,20.865 4.517,20.905 4.440 C 20.957 4.341,20.979 4.212,20.979 4.000 C 20.980 3.745,20.964 3.672,20.872 3.516 C 20.617 3.083,20.122 2.903,19.640 3.068 M2.695 18.057 C 2.466 18.129,2.256 18.299,2.128 18.516 C 2.037 18.672,2.020 18.746,2.020 19.000 C 2.020 19.256,2.036 19.328,2.131 19.489 C 2.256 19.702,2.449 19.864,2.670 19.943 C 2.893 20.023,21.107 20.023,21.330 19.943 C 21.551 19.864,21.744 19.702,21.869 19.489 C 21.964 19.328,21.980 19.256,21.980 19.000 C 21.980 18.746,21.963 18.672,21.872 18.516 C 21.740 18.293,21.533 18.128,21.290 18.055 C 21.027 17.976,2.947 17.978,2.695 18.057 " stroke="none" fill-rule="evenodd" fill="#000000"></path></svg>