<svg  xmlns="http://www.w3.org/2000/svg" width="24" height="24" viewBox="0 0 24 24" fill="none" stroke="currentColor" stroke-width="2" stroke-linecap="round" stroke-linejoin="round"><path d="M3.499 5.043 C 2.380 5.232,1.461 6.048,1.114 7.160 L 1.020 7.460 1.020 12.000 L 1.020 16.540 1.114 16.840 C 1.418 17.816,2.149 18.554,3.140 18.886 L 3.420 18.980 8.272 18.991 C 11.491 18.998,13.175 18.988,13.276 18.961 C 13.498 18.901,13.739 18.710,13.867 18.492 C 13.964 18.327,13.980 18.257,13.980 18.000 C 13.980 17.746,13.963 17.672,13.872 17.516 C 13.761 17.328,13.572 17.158,13.373 17.070 C 13.285 17.031,12.184 17.015,8.480 17.000 L 3.700 16.980 3.516 16.872 C 3.415 16.813,3.284 16.700,3.225 16.623 C 2.990 16.315,3.000 16.515,3.000 12.022 C 3.000 7.357,2.983 7.623,3.303 7.303 C 3.632 6.974,2.892 7.000,12.000 7.000 C 21.050 7.000,20.364 6.978,20.679 7.283 C 20.996 7.591,20.978 7.404,21.000 10.523 L 21.020 13.306 21.141 13.503 C 21.543 14.156,22.457 14.156,22.859 13.503 L 22.980 13.306 22.980 10.383 L 22.980 7.460 22.886 7.160 C 22.581 6.182,21.832 5.428,20.861 5.121 L 20.540 5.020 12.120 5.014 C 7.489 5.011,3.609 5.024,3.499 5.043 M11.499 9.040 C 10.363 9.246,9.460 10.049,9.114 11.160 C 8.979 11.594,8.979 12.406,9.114 12.840 C 9.421 13.826,10.174 14.579,11.160 14.886 C 11.594 15.021,12.406 15.021,12.840 14.886 C 13.826 14.579,14.579 13.826,14.886 12.840 C 15.021 12.406,15.021 11.594,14.886 11.160 C 14.581 10.179,13.810 9.407,12.861 9.129 C 12.500 9.023,11.832 8.980,11.499 9.040 M5.695 11.055 C 5.464 11.130,5.255 11.300,5.128 11.516 C 5.037 11.672,5.020 11.746,5.020 12.000 C 5.020 12.257,5.036 12.327,5.133 12.492 C 5.651 13.374,6.998 13.018,6.998 12.000 C 6.998 11.623,6.792 11.281,6.463 11.112 C 6.265 11.010,5.911 10.984,5.695 11.055 M12.310 11.061 C 12.688 11.173,13.000 11.598,13.000 12.001 C 13.000 12.331,12.784 12.696,12.484 12.872 C 12.328 12.963,12.254 12.980,12.000 12.980 C 11.746 12.980,11.672 12.963,11.516 12.872 C 10.935 12.530,10.833 11.774,11.304 11.303 C 11.583 11.024,11.916 10.944,12.310 11.061 M17.695 11.055 C 17.464 11.130,17.255 11.300,17.128 11.516 C 17.037 11.672,17.020 11.746,17.020 12.000 C 17.020 12.257,17.036 12.327,17.133 12.492 C 17.651 13.374,18.998 13.018,18.998 12.000 C 18.998 11.623,18.792 11.281,18.463 11.112 C 18.265 11.010,17.911 10.984,17.695 11.055 M16.670 16.061 C 16.448 16.142,16.250 16.309,16.128 16.516 C 16.037 16.672,16.020 16.746,16.020 17.000 C 16.020 17.254,16.036 17.328,16.127 17.480 C 16.186 17.579,16.650 18.074,17.157 18.579 L 18.079 19.499 17.124 20.459 C 16.599 20.988,16.138 21.481,16.101 21.555 C 15.872 22.009,16.056 22.601,16.508 22.867 C 16.673 22.964,16.743 22.980,17.000 22.980 C 17.254 22.980,17.328 22.964,17.480 22.873 C 17.579 22.814,18.074 22.350,18.579 21.843 L 19.499 20.921 20.459 21.876 C 20.988 22.401,21.483 22.864,21.560 22.905 C 21.659 22.957,21.787 22.979,22.000 22.979 C 22.258 22.980,22.327 22.964,22.492 22.867 C 22.714 22.737,22.901 22.498,22.965 22.264 C 23.019 22.061,22.989 21.733,22.899 21.555 C 22.862 21.481,22.401 20.988,21.876 20.459 L 20.921 19.499 21.843 18.579 C 22.350 18.074,22.814 17.579,22.873 17.480 C 22.964 17.328,22.980 17.254,22.980 17.000 C 22.980 16.746,22.963 16.672,22.872 16.516 C 22.618 16.084,22.136 15.905,21.657 16.066 C 21.486 16.124,21.330 16.262,20.480 17.104 L 19.500 18.076 18.520 17.104 C 17.671 16.262,17.514 16.124,17.343 16.066 C 17.108 15.987,16.875 15.985,16.670 16.061 " stroke="none" fill-rule="evenodd" fill="#000000"></path></svg>