<svg  xmlns="http://www.w3.org/2000/svg" width="24" height="24" viewBox="0 0 24 24" fill="none" stroke="currentColor" stroke-width="2" stroke-linecap="round" stroke-linejoin="round"><path d="M5.695 2.057 C 5.466 2.129,5.256 2.299,5.128 2.516 L 5.020 2.700 5.000 8.413 L 4.980 14.126 4.720 14.217 C 3.824 14.531,3.024 15.177,2.569 15.953 C 1.320 18.083,2.233 20.785,4.512 21.704 C 6.558 22.528,8.877 21.538,9.704 19.488 C 9.884 19.040,10.000 18.459,10.000 18.000 C 10.000 17.327,9.776 16.525,9.421 15.932 C 8.966 15.170,8.117 14.492,7.270 14.215 L 7.041 14.140 7.063 14.000 C 7.228 12.962,7.435 12.277,7.816 11.500 C 8.337 10.440,8.980 9.622,9.900 8.848 C 10.886 8.019,12.210 7.387,13.424 7.165 C 14.176 7.028,14.160 7.029,14.160 7.101 C 14.160 7.136,14.217 7.304,14.286 7.473 C 14.715 8.516,15.487 9.291,16.512 9.704 C 18.558 10.528,20.877 9.538,21.704 7.488 C 22.090 6.530,22.090 5.469,21.705 4.516 C 21.172 3.197,20.001 2.269,18.605 2.058 C 18.121 1.986,17.879 1.986,17.395 2.058 C 16.030 2.264,14.863 3.171,14.320 4.446 C 14.255 4.598,14.183 4.793,14.160 4.879 C 14.119 5.032,14.115 5.035,13.889 5.061 C 12.033 5.279,10.304 5.990,8.800 7.154 C 8.401 7.463,7.502 8.350,7.218 8.715 L 7.020 8.970 7.000 5.835 L 6.980 2.700 6.872 2.516 C 6.628 2.101,6.150 1.915,5.695 2.057 M18.523 4.073 C 19.262 4.266,19.850 4.924,19.967 5.690 C 20.029 6.098,19.967 6.522,19.793 6.880 C 19.638 7.198,19.227 7.625,18.930 7.775 C 18.492 7.997,17.962 8.059,17.508 7.940 C 16.823 7.762,16.249 7.194,16.073 6.523 C 15.683 5.028,17.028 3.683,18.523 4.073 M6.523 16.073 C 7.262 16.266,7.850 16.924,7.967 17.690 C 8.067 18.343,7.873 18.933,7.403 19.404 C 7.002 19.807,6.547 20.000,6.000 20.000 C 5.485 20.000,5.038 19.822,4.653 19.465 C 3.323 18.229,4.189 16.005,6.000 16.005 C 6.143 16.005,6.378 16.036,6.523 16.073 " stroke="none" fill-rule="evenodd" fill="#000000"></path></svg>