<svg  xmlns="http://www.w3.org/2000/svg" width="24" height="24" viewBox="0 0 24 24" fill="none" stroke="currentColor" stroke-width="2" stroke-linecap="round" stroke-linejoin="round"><path d="M11.604 1.045 C 11.191 1.114,10.816 1.325,10.220 1.823 C 9.149 2.719,7.340 3.615,6.066 3.881 C 5.851 3.926,5.428 3.979,5.127 3.999 C 4.493 4.040,4.264 4.100,3.937 4.312 C 3.486 4.604,3.141 5.091,3.040 5.582 C 3.010 5.725,3.001 7.075,3.011 9.925 C 3.026 14.371,3.020 14.237,3.241 15.257 C 3.875 18.178,5.973 20.521,9.353 22.079 C 10.043 22.397,10.735 22.675,11.320 22.868 C 11.698 22.993,11.774 23.005,12.080 22.990 C 12.308 22.978,12.525 22.937,12.740 22.863 C 14.234 22.353,15.900 21.520,16.980 20.745 C 18.095 19.945,19.034 18.966,19.667 17.946 C 20.148 17.171,20.568 16.135,20.759 15.257 C 20.980 14.237,20.974 14.371,20.989 9.934 C 21.005 5.448,21.008 5.530,20.784 5.088 C 20.572 4.670,20.056 4.230,19.623 4.097 C 19.511 4.063,19.174 4.018,18.873 3.999 C 17.911 3.935,17.061 3.701,16.034 3.217 C 15.145 2.798,14.399 2.331,13.680 1.743 C 13.220 1.367,13.114 1.295,12.853 1.185 C 12.453 1.017,12.048 0.972,11.604 1.045 M12.282 3.186 C 14.106 4.743,16.618 5.858,18.588 5.985 L 19.005 6.012 18.989 9.936 C 18.972 14.198,18.977 14.108,18.739 15.051 C 18.337 16.647,17.319 18.055,15.776 19.149 C 14.898 19.773,13.709 20.374,12.358 20.877 L 12.016 21.005 11.538 20.826 C 9.667 20.129,8.243 19.300,7.212 18.307 C 5.874 17.018,5.191 15.570,5.041 13.704 C 5.017 13.400,5.000 11.716,5.000 9.600 L 5.000 6.012 5.427 5.984 C 7.373 5.858,9.908 4.730,11.718 3.186 C 11.837 3.084,11.964 3.000,12.000 3.000 C 12.036 3.000,12.163 3.084,12.282 3.186 M9.044 8.625 C 8.787 8.753,8.583 9.016,8.529 9.289 C 8.482 9.527,8.535 9.851,8.649 10.019 C 8.694 10.085,9.147 10.558,9.655 11.070 L 10.579 12.000 9.655 12.930 C 9.147 13.442,8.695 13.914,8.651 13.980 C 8.376 14.389,8.513 15.026,8.940 15.320 C 9.238 15.525,9.740 15.540,10.017 15.352 C 10.085 15.306,10.558 14.853,11.070 14.345 L 12.000 13.421 12.930 14.345 C 13.442 14.853,13.915 15.306,13.981 15.351 C 14.262 15.541,14.762 15.525,15.065 15.317 C 15.478 15.033,15.618 14.376,15.351 13.981 C 15.306 13.915,14.853 13.442,14.345 12.930 L 13.421 12.001 14.369 11.050 C 15.074 10.343,15.337 10.052,15.398 9.914 C 15.695 9.241,15.230 8.518,14.502 8.521 C 14.089 8.522,13.997 8.588,12.950 9.631 L 12.000 10.578 11.050 9.631 C 10.371 8.954,10.049 8.661,9.920 8.603 C 9.654 8.483,9.313 8.492,9.044 8.625 " stroke="none" fill-rule="evenodd" fill="#000000"></path></svg>