<svg  xmlns="http://www.w3.org/2000/svg" width="24" height="24" viewBox="0 0 24 24" fill="none" stroke="currentColor" stroke-width="2" stroke-linecap="round" stroke-linejoin="round"><path d="M13.477 1.072 C 12.803 1.251,12.238 1.824,12.060 2.508 C 12.009 2.704,12.000 3.350,12.000 7.000 C 12.000 11.640,11.992 11.471,12.225 11.930 C 12.361 12.199,12.801 12.639,13.070 12.775 C 13.522 13.004,13.453 13.000,17.000 13.000 C 20.547 13.000,20.478 13.004,20.930 12.775 C 21.196 12.640,21.638 12.200,21.771 11.937 C 22.006 11.473,22.005 11.504,21.992 8.328 L 21.980 5.420 21.875 5.113 C 21.726 4.677,21.528 4.345,21.187 3.957 C 20.835 3.559,19.099 1.838,18.840 1.632 C 18.576 1.421,18.181 1.217,17.840 1.115 C 17.550 1.027,17.479 1.024,15.640 1.013 C 13.935 1.003,13.713 1.009,13.477 1.072 M17.323 3.064 C 17.528 3.124,17.605 3.192,18.706 4.294 C 19.808 5.395,19.876 5.472,19.936 5.677 C 19.992 5.866,20.000 6.230,20.000 8.447 L 20.000 11.000 17.000 11.000 L 14.000 11.000 14.000 7.000 L 14.000 3.000 15.553 3.000 C 16.855 3.000,17.141 3.010,17.323 3.064 M8.477 6.073 C 7.806 6.249,7.238 6.823,7.060 7.508 C 7.009 7.704,7.000 8.350,7.000 12.000 C 7.000 16.640,6.992 16.471,7.225 16.930 C 7.361 17.199,7.801 17.639,8.070 17.775 C 8.522 18.004,8.454 18.000,11.993 18.000 C 15.539 18.000,15.479 18.003,15.937 17.771 C 16.197 17.639,16.639 17.197,16.771 16.937 C 17.126 16.238,17.055 15.544,16.595 15.205 C 16.005 14.771,15.131 15.117,15.017 15.830 L 14.990 16.000 11.995 16.000 L 9.000 16.000 9.000 12.005 L 9.000 8.009 9.179 7.982 C 9.422 7.946,9.712 7.742,9.859 7.503 C 9.966 7.329,9.980 7.271,9.980 7.003 C 9.980 6.746,9.964 6.672,9.872 6.516 C 9.603 6.059,9.120 5.905,8.477 6.073 M3.477 11.073 C 2.806 11.249,2.238 11.823,2.060 12.508 C 2.009 12.704,2.000 13.350,2.000 17.000 C 2.000 21.640,1.992 21.471,2.225 21.930 C 2.361 22.199,2.801 22.639,3.070 22.775 C 3.522 23.004,3.453 23.000,7.000 23.000 C 10.547 23.000,10.478 23.004,10.930 22.775 C 11.196 22.640,11.638 22.200,11.771 21.937 C 12.126 21.238,12.055 20.544,11.595 20.205 C 11.005 19.771,10.131 20.117,10.017 20.830 L 9.990 21.000 6.995 21.000 L 4.000 21.000 4.000 17.005 L 4.000 13.009 4.179 12.982 C 4.422 12.946,4.712 12.742,4.859 12.503 C 4.966 12.329,4.980 12.271,4.980 12.003 C 4.980 11.746,4.964 11.672,4.872 11.516 C 4.605 11.062,4.115 10.907,3.477 11.073 " stroke="none" fill-rule="evenodd" fill="#000000"></path></svg>