<svg  xmlns="http://www.w3.org/2000/svg" width="24" height="24" viewBox="0 0 24 24" fill="none" stroke="currentColor" stroke-width="2" stroke-linecap="round" stroke-linejoin="round"><path d="M5.499 1.042 C 4.378 1.234,3.461 2.048,3.114 3.160 L 3.020 3.460 3.020 6.883 L 3.020 10.306 3.141 10.503 C 3.543 11.156,4.457 11.156,4.859 10.503 L 4.980 10.306 5.000 7.023 C 5.022 3.344,5.001 3.594,5.321 3.283 C 5.625 2.989,5.459 3.000,9.447 3.000 L 13.000 3.000 13.000 5.132 C 13.000 7.443,13.004 7.494,13.225 7.930 C 13.361 8.199,13.801 8.639,14.070 8.775 C 14.506 8.996,14.557 9.000,16.868 9.000 L 19.000 9.000 19.000 14.554 C 19.000 19.144,18.990 20.139,18.945 20.290 C 18.872 20.533,18.707 20.740,18.484 20.872 L 18.300 20.980 15.020 21.000 C 12.517 21.015,11.713 21.032,11.627 21.070 C 11.428 21.158,11.239 21.328,11.128 21.516 C 11.037 21.672,11.020 21.746,11.020 22.000 C 11.020 22.257,11.036 22.327,11.133 22.492 C 11.261 22.711,11.502 22.901,11.726 22.962 C 11.828 22.989,13.010 22.999,15.230 22.991 L 18.580 22.979 18.860 22.886 C 19.850 22.555,20.582 21.816,20.886 20.840 L 20.980 20.540 20.980 13.980 L 20.980 7.420 20.868 7.060 C 20.732 6.627,20.505 6.192,20.241 5.863 C 19.921 5.464,16.162 1.748,15.920 1.592 C 15.585 1.376,15.319 1.252,14.932 1.131 L 14.580 1.020 10.140 1.014 C 7.698 1.011,5.609 1.024,5.499 1.042 M16.800 5.220 L 18.580 7.000 16.790 7.000 L 15.000 7.000 15.000 5.220 C 15.000 4.241,15.005 3.440,15.010 3.440 C 15.016 3.440,15.821 4.241,16.800 5.220 M3.174 13.041 C 2.755 13.125,2.330 13.476,2.132 13.900 L 2.020 14.140 2.020 15.223 L 2.020 16.306 2.141 16.503 C 2.543 17.156,3.457 17.156,3.859 16.503 C 3.979 16.308,3.980 16.300,3.993 15.653 L 4.007 15.000 5.003 15.000 L 6.000 15.000 6.000 17.994 L 6.000 20.987 5.786 21.035 C 5.515 21.096,5.270 21.275,5.129 21.514 C 5.036 21.672,5.020 21.745,5.020 22.000 C 5.020 22.256,5.036 22.328,5.131 22.489 C 5.256 22.702,5.449 22.864,5.670 22.943 C 5.885 23.020,8.115 23.020,8.330 22.943 C 8.551 22.864,8.744 22.702,8.869 22.489 C 8.964 22.328,8.980 22.256,8.980 22.000 C 8.980 21.745,8.964 21.672,8.871 21.514 C 8.730 21.275,8.485 21.096,8.214 21.035 L 8.000 20.987 8.000 17.994 L 8.000 15.000 8.997 15.000 L 9.993 15.000 10.007 15.653 C 10.020 16.300,10.021 16.308,10.141 16.503 C 10.543 17.156,11.457 17.156,11.859 16.503 L 11.980 16.306 11.980 15.223 L 11.980 14.140 11.867 13.896 C 11.724 13.587,11.415 13.279,11.100 13.132 L 10.860 13.020 7.100 13.014 C 5.032 13.010,3.265 13.023,3.174 13.041 " stroke="none" fill-rule="evenodd" fill="#000000"></path></svg>