<svg  xmlns="http://www.w3.org/2000/svg" width="24" height="24" viewBox="0 0 24 24" fill="none" stroke="currentColor" stroke-width="2" stroke-linecap="round" stroke-linejoin="round"><path d="M3.499 1.043 C 2.390 1.231,1.488 2.024,1.114 3.140 L 1.020 3.420 1.009 8.956 C 0.999 13.956,1.004 14.515,1.063 14.715 C 1.157 15.038,1.264 15.227,1.484 15.460 C 1.905 15.906,2.541 16.095,3.110 15.943 C 3.571 15.820,3.647 15.759,4.980 14.438 C 5.684 13.740,6.323 13.136,6.400 13.095 C 6.533 13.024,6.737 13.019,10.560 13.000 L 14.580 12.979 14.860 12.886 C 15.849 12.555,16.582 11.816,16.886 10.840 L 16.980 10.540 16.980 7.000 L 16.980 3.460 16.886 3.160 C 16.581 2.182,15.832 1.428,14.861 1.121 L 14.540 1.020 9.120 1.014 C 6.139 1.011,3.609 1.024,3.499 1.043 M14.310 3.061 C 14.589 3.144,14.856 3.411,14.939 3.690 C 15.025 3.980,15.031 10.004,14.945 10.290 C 14.872 10.533,14.707 10.740,14.484 10.872 L 14.300 10.980 10.280 11.000 L 6.260 11.021 5.980 11.115 C 5.292 11.346,5.119 11.475,3.970 12.615 L 3.000 13.576 3.000 8.735 C 3.000 3.273,2.980 3.626,3.304 3.303 C 3.621 2.985,3.234 3.006,8.983 3.003 C 13.458 3.000,14.131 3.008,14.310 3.061 M19.695 8.054 C 19.048 8.267,18.799 9.040,19.198 9.591 C 19.369 9.827,19.608 9.953,19.972 9.999 C 20.364 10.049,20.516 10.114,20.717 10.321 C 21.016 10.630,21.000 10.316,21.000 15.735 L 21.000 20.576 20.030 19.615 C 18.881 18.475,18.708 18.346,18.020 18.115 L 17.740 18.021 13.720 18.000 L 9.700 17.980 9.516 17.872 C 9.326 17.760,9.155 17.568,9.072 17.373 C 9.043 17.305,9.015 16.947,9.002 16.480 C 8.981 15.721,8.977 15.695,8.871 15.514 C 8.479 14.848,7.521 14.848,7.129 15.514 L 7.020 15.700 7.020 16.620 C 7.020 17.473,7.027 17.562,7.114 17.840 C 7.418 18.816,8.151 19.555,9.140 19.886 L 9.420 19.979 13.440 20.000 C 17.263 20.019,17.467 20.024,17.600 20.095 C 17.677 20.136,18.316 20.740,19.020 21.438 C 20.353 22.759,20.429 22.820,20.890 22.943 C 21.459 23.095,22.095 22.906,22.516 22.460 C 22.736 22.227,22.843 22.038,22.937 21.715 C 22.996 21.515,23.001 20.956,22.991 15.956 L 22.980 10.420 22.886 10.140 C 22.555 9.154,21.797 8.401,20.863 8.130 C 20.463 8.015,19.922 7.979,19.695 8.054 " stroke="none" fill-rule="evenodd" fill="#000000"></path></svg>