<svg  xmlns="http://www.w3.org/2000/svg" width="24" height="24" viewBox="0 0 24 24" fill="none" stroke="currentColor" stroke-width="2" stroke-linecap="round" stroke-linejoin="round"><path d="M5.499 1.043 C 4.379 1.234,3.461 2.048,3.114 3.160 L 3.020 3.460 3.020 12.000 L 3.020 20.540 3.114 20.840 C 3.422 21.827,4.173 22.578,5.160 22.886 L 5.460 22.980 12.000 22.980 L 18.540 22.980 18.840 22.886 C 19.827 22.578,20.578 21.827,20.886 20.840 L 20.980 20.540 20.980 13.980 L 20.980 7.420 20.868 7.060 C 20.728 6.613,20.498 6.179,20.219 5.840 C 19.855 5.397,16.159 1.747,15.910 1.585 C 15.591 1.378,15.236 1.218,14.860 1.111 L 14.540 1.021 10.120 1.015 C 7.689 1.011,5.609 1.024,5.499 1.043 M13.000 5.132 C 13.000 7.443,13.004 7.494,13.225 7.930 C 13.361 8.199,13.801 8.639,14.070 8.775 C 14.506 8.996,14.557 9.000,16.868 9.000 L 19.000 9.000 19.000 14.554 C 19.000 19.144,18.990 20.139,18.945 20.290 C 18.872 20.533,18.707 20.740,18.484 20.872 L 18.300 20.980 12.000 20.980 L 5.700 20.980 5.516 20.872 C 5.415 20.813,5.284 20.700,5.225 20.623 C 4.985 20.308,5.000 20.888,5.000 12.022 C 5.000 2.888,4.974 3.632,5.304 3.303 C 5.615 2.991,5.409 3.006,9.430 3.003 L 13.000 3.000 13.000 5.132 M16.800 5.220 L 18.580 7.000 16.790 7.000 L 15.000 7.000 15.000 5.220 C 15.000 4.241,15.005 3.440,15.010 3.440 C 15.016 3.440,15.821 4.241,16.800 5.220 M9.174 11.041 C 8.754 11.126,8.329 11.477,8.133 11.900 C 8.035 12.112,8.020 12.197,8.007 12.621 C 7.999 12.895,8.011 13.173,8.036 13.265 C 8.099 13.497,8.286 13.737,8.508 13.867 C 8.673 13.964,8.743 13.980,9.003 13.980 C 9.271 13.980,9.329 13.966,9.503 13.859 C 9.742 13.712,9.946 13.422,9.982 13.179 L 10.009 13.000 10.505 13.000 L 11.000 13.000 11.000 14.994 L 11.000 16.987 10.786 17.035 C 10.515 17.096,10.270 17.275,10.129 17.514 C 10.036 17.672,10.020 17.745,10.020 18.000 C 10.020 18.256,10.036 18.328,10.131 18.489 C 10.256 18.702,10.449 18.864,10.670 18.943 C 10.885 19.020,13.115 19.020,13.330 18.943 C 13.551 18.864,13.744 18.702,13.869 18.489 C 13.964 18.328,13.980 18.256,13.980 18.000 C 13.980 17.745,13.964 17.672,13.871 17.514 C 13.730 17.275,13.485 17.096,13.214 17.035 L 13.000 16.987 13.000 14.994 L 13.000 13.000 13.495 13.000 L 13.991 13.000 14.018 13.179 C 14.054 13.422,14.258 13.712,14.497 13.859 C 14.671 13.966,14.729 13.980,14.997 13.980 C 15.257 13.980,15.327 13.964,15.492 13.867 C 15.714 13.737,15.901 13.497,15.964 13.265 C 15.989 13.173,16.001 12.895,15.993 12.621 C 15.980 12.197,15.965 12.112,15.867 11.900 C 15.722 11.586,15.414 11.276,15.104 11.133 L 14.860 11.020 12.100 11.014 C 10.582 11.010,9.265 11.022,9.174 11.041 " stroke="none" fill-rule="evenodd" fill="#000000"></path></svg>