<svg  xmlns="http://www.w3.org/2000/svg" width="24" height="24" viewBox="0 0 24 24" fill="none" stroke="currentColor" stroke-width="2" stroke-linecap="round" stroke-linejoin="round"><path d="M3.499 2.043 C 2.380 2.232,1.461 3.048,1.114 4.160 L 1.020 4.460 1.020 10.000 L 1.020 15.540 1.114 15.840 C 1.418 16.816,2.149 17.554,3.140 17.886 L 3.420 17.980 7.210 17.991 L 11.000 18.003 11.000 19.001 L 11.000 20.000 9.446 20.000 C 7.758 20.000,7.658 20.011,7.382 20.221 C 7.302 20.282,7.187 20.415,7.128 20.516 C 7.037 20.672,7.020 20.746,7.020 21.000 C 7.020 21.256,7.036 21.328,7.131 21.489 C 7.256 21.702,7.449 21.864,7.670 21.943 C 7.892 22.022,16.108 22.022,16.330 21.943 C 16.551 21.864,16.744 21.702,16.869 21.489 C 16.964 21.328,16.980 21.256,16.980 21.000 C 16.980 20.746,16.963 20.672,16.872 20.516 C 16.813 20.415,16.698 20.282,16.618 20.221 C 16.342 20.011,16.242 20.000,14.554 20.000 L 13.000 20.000 13.000 19.001 L 13.000 18.003 16.790 17.991 L 20.580 17.980 20.860 17.886 C 21.851 17.554,22.582 16.816,22.886 15.840 L 22.980 15.540 22.980 10.000 L 22.980 4.460 22.886 4.160 C 22.581 3.182,21.832 2.428,20.861 2.121 L 20.540 2.020 12.120 2.014 C 7.489 2.011,3.609 2.024,3.499 2.043 M20.310 4.061 C 20.589 4.144,20.856 4.411,20.939 4.690 C 20.992 4.868,21.000 5.546,21.000 10.001 C 21.000 14.212,20.990 15.139,20.945 15.290 C 20.872 15.533,20.707 15.740,20.484 15.872 L 20.300 15.980 12.000 15.980 L 3.700 15.980 3.516 15.872 C 3.303 15.747,3.141 15.550,3.058 15.316 C 2.969 15.061,2.971 4.993,3.061 4.690 C 3.140 4.421,3.412 4.143,3.673 4.063 C 3.833 4.014,5.030 4.005,11.983 4.003 C 19.144 4.000,20.130 4.007,20.310 4.061 M9.477 6.073 C 8.806 6.249,8.238 6.823,8.060 7.508 C 8.010 7.698,8.000 8.123,8.000 10.000 C 8.000 12.455,8.003 12.491,8.225 12.930 C 8.361 13.199,8.801 13.639,9.070 13.775 C 9.509 13.997,9.545 14.000,12.000 14.000 C 14.455 14.000,14.491 13.997,14.930 13.775 C 15.196 13.640,15.638 13.200,15.771 12.937 C 15.996 12.494,16.000 12.442,15.999 10.014 C 15.999 7.601,15.991 7.496,15.781 7.083 C 15.646 6.816,15.297 6.449,15.017 6.281 C 14.564 6.008,14.524 6.005,12.000 6.005 C 9.992 6.005,9.711 6.012,9.477 6.073 M14.000 10.000 L 14.000 12.000 12.000 12.000 L 10.000 12.000 10.000 10.000 L 10.000 8.000 12.000 8.000 L 14.000 8.000 14.000 10.000 " stroke="none" fill-rule="evenodd" fill="#000000"></path></svg>