<svg  xmlns="http://www.w3.org/2000/svg" width="24" height="24" viewBox="0 0 24 24" fill="none" stroke="currentColor" stroke-width="2" stroke-linecap="round" stroke-linejoin="round"><path d="M8.318 2.043 C 6.219 2.217,4.230 3.253,2.872 4.880 C 1.400 6.643,0.745 8.991,1.101 11.224 C 1.651 14.670,4.312 17.341,7.751 17.901 C 8.089 17.956,8.197 17.959,8.360 17.920 C 8.794 17.816,9.077 17.472,9.110 17.007 C 9.134 16.680,9.036 16.438,8.794 16.219 C 8.603 16.047,8.514 16.010,8.100 15.935 C 6.635 15.670,5.515 15.066,4.573 14.033 C 3.828 13.216,3.292 12.129,3.096 11.040 C 3.002 10.515,3.003 9.513,3.097 8.980 C 3.318 7.736,3.866 6.691,4.778 5.776 C 5.934 4.616,7.347 4.028,8.980 4.027 C 10.649 4.025,12.060 4.607,13.222 5.775 C 13.918 6.475,14.298 7.065,14.640 7.976 C 14.842 8.512,14.883 8.592,15.026 8.725 C 15.297 8.977,15.299 8.977,16.760 9.004 C 17.942 9.026,18.136 9.038,18.405 9.111 C 19.390 9.379,20.233 10.096,20.678 11.046 C 20.906 11.532,20.978 11.881,20.978 12.500 C 20.978 13.119,20.906 13.468,20.678 13.954 C 20.231 14.908,19.442 15.584,18.420 15.888 C 18.172 15.962,17.996 15.974,16.860 15.996 C 15.649 16.019,15.571 16.025,15.417 16.107 C 14.664 16.509,14.688 17.546,15.460 17.906 C 15.654 17.997,15.691 17.999,16.770 18.000 C 18.223 18.000,18.772 17.917,19.624 17.570 C 20.899 17.049,22.049 15.899,22.570 14.624 C 23.137 13.234,23.137 11.766,22.570 10.376 C 22.033 9.062,20.895 7.946,19.539 7.403 C 18.800 7.108,18.136 7.000,17.051 7.000 L 16.418 7.000 16.246 6.625 C 15.378 4.732,13.670 3.175,11.700 2.480 C 10.556 2.077,9.521 1.943,8.318 2.043 M11.695 11.057 C 11.466 11.129,11.256 11.299,11.128 11.516 L 11.020 11.700 11.020 14.003 L 11.020 16.306 11.141 16.503 C 11.209 16.613,11.346 16.756,11.452 16.828 C 11.923 17.144,12.554 16.999,12.859 16.503 L 12.980 16.306 12.980 14.003 L 12.980 11.700 12.872 11.516 C 12.628 11.101,12.150 10.915,11.695 11.057 M11.695 19.055 C 11.464 19.130,11.255 19.300,11.128 19.516 C 11.037 19.672,11.020 19.746,11.020 20.000 C 11.020 20.257,11.036 20.327,11.133 20.492 C 11.651 21.374,12.998 21.018,12.998 20.000 C 12.998 19.623,12.792 19.281,12.463 19.112 C 12.265 19.010,11.911 18.984,11.695 19.055 " stroke="none" fill-rule="evenodd" fill="#000000"></path></svg>