<svg  xmlns="http://www.w3.org/2000/svg" width="24" height="24" viewBox="0 0 24 24" fill="none" stroke="currentColor" stroke-width="2" stroke-linecap="round" stroke-linejoin="round"><path d="M5.873 1.063 C 5.147 1.194,4.470 1.562,3.958 2.105 C 3.562 2.524,3.318 2.949,3.130 3.548 L 3.020 3.900 3.020 12.000 L 3.020 20.100 3.130 20.452 C 3.511 21.666,4.334 22.489,5.548 22.870 L 5.900 22.980 12.560 22.991 C 17.107 22.998,19.284 22.988,19.422 22.960 C 19.938 22.852,20.538 22.398,20.771 21.937 C 21.015 21.455,21.000 22.127,20.999 12.014 C 20.999 1.974,21.011 2.536,20.781 2.083 C 20.646 1.816,20.297 1.449,20.017 1.281 C 19.527 0.986,20.016 1.004,12.720 1.006 C 7.322 1.007,6.126 1.017,5.873 1.063 M19.000 9.500 L 19.000 16.000 12.625 16.000 C 5.699 16.000,5.896 15.994,5.296 16.220 C 5.150 16.275,5.023 16.320,5.014 16.320 C 5.006 16.320,5.003 13.580,5.009 10.230 L 5.020 4.140 5.132 3.900 C 5.330 3.475,5.756 3.124,6.174 3.042 C 6.265 3.024,9.189 3.007,12.670 3.004 L 19.000 3.000 19.000 9.500 M11.647 5.067 C 11.552 5.101,11.407 5.194,11.324 5.274 C 11.225 5.371,10.721 6.214,9.840 7.760 C 9.106 9.047,8.428 10.215,8.333 10.355 C 8.238 10.495,8.160 10.629,8.160 10.653 C 8.160 10.677,7.907 11.141,7.598 11.684 C 7.114 12.532,7.032 12.703,7.012 12.890 C 6.918 13.803,8.024 14.358,8.677 13.725 C 8.760 13.644,9.024 13.233,9.276 12.790 L 9.726 12.000 12.000 12.000 L 14.274 12.000 14.724 12.790 C 14.976 13.233,15.240 13.644,15.323 13.725 C 15.977 14.359,17.082 13.803,16.987 12.889 C 16.967 12.689,16.777 12.340,14.896 9.044 C 13.532 6.656,12.777 5.372,12.680 5.278 C 12.423 5.029,12.000 4.943,11.647 5.067 M12.569 9.011 L 13.119 9.980 12.559 9.991 C 12.252 9.997,11.748 9.997,11.441 9.991 L 10.881 9.980 11.431 9.011 C 11.733 8.478,11.989 8.042,12.000 8.042 C 12.011 8.042,12.267 8.478,12.569 9.011 M19.000 19.500 L 19.000 21.001 12.570 20.990 L 6.140 20.980 5.900 20.868 C 5.583 20.720,5.275 20.413,5.135 20.104 C 5.040 19.896,5.024 19.808,5.024 19.500 C 5.023 19.191,5.039 19.106,5.134 18.900 C 5.328 18.477,5.755 18.124,6.174 18.042 C 6.265 18.024,9.189 18.007,12.670 18.004 L 19.000 18.000 19.000 19.500 " stroke="none" fill-rule="evenodd" fill="#000000"></path></svg>