<svg  xmlns="http://www.w3.org/2000/svg" width="24" height="24" viewBox="0 0 24 24" fill="none" stroke="currentColor" stroke-width="2" stroke-linecap="round" stroke-linejoin="round"><path d="M15.320 1.025 C 13.375 1.270,11.808 2.103,10.623 3.520 C 9.869 4.421,9.388 5.427,9.131 6.638 C 9.034 7.091,9.024 7.224,9.022 8.000 C 9.021 8.905,9.073 9.305,9.279 9.968 L 9.358 10.220 5.506 14.080 C 2.963 16.628,1.601 18.021,1.500 18.177 C 1.138 18.736,0.975 19.357,1.013 20.038 C 1.025 20.270,1.065 20.568,1.101 20.700 C 1.379 21.724,2.276 22.621,3.300 22.899 C 3.432 22.935,3.730 22.975,3.962 22.987 C 4.643 23.025,5.264 22.862,5.823 22.500 C 5.979 22.399,7.372 21.037,9.920 18.494 L 13.780 14.642 14.033 14.721 C 14.706 14.930,15.055 14.976,15.980 14.976 C 16.782 14.977,16.904 14.967,17.362 14.870 C 18.850 14.553,20.060 13.883,21.087 12.808 C 22.008 11.845,22.605 10.674,22.888 9.276 C 22.966 8.887,22.980 8.699,22.980 8.000 C 22.979 7.292,22.966 7.117,22.884 6.720 C 22.832 6.467,22.756 6.166,22.717 6.051 C 22.473 5.342,21.765 4.918,21.020 5.034 C 20.479 5.118,20.453 5.139,18.649 6.935 L 16.999 8.578 16.210 7.789 L 15.421 7.001 17.045 5.370 C 18.004 4.408,18.712 3.666,18.772 3.560 C 19.122 2.939,19.053 2.237,18.587 1.697 C 18.226 1.279,17.375 1.044,16.140 1.021 C 15.766 1.013,15.397 1.016,15.320 1.025 M16.460 3.025 C 16.510 3.045,16.191 3.388,15.131 4.455 C 13.828 5.767,13.727 5.879,13.609 6.141 C 13.345 6.726,13.350 7.310,13.626 7.888 C 13.753 8.155,13.854 8.269,14.792 9.204 C 15.729 10.138,15.847 10.242,16.120 10.374 C 16.704 10.658,17.295 10.658,17.887 10.374 C 18.157 10.244,18.283 10.131,19.567 8.851 C 21.164 7.261,21.027 7.324,20.989 8.195 C 20.931 9.520,20.460 10.590,19.525 11.525 C 18.542 12.509,17.356 12.999,15.960 13.000 C 15.318 13.000,14.790 12.892,14.060 12.610 C 13.751 12.490,13.666 12.474,13.458 12.490 C 13.325 12.501,13.154 12.541,13.078 12.579 C 13.002 12.617,11.086 14.498,8.820 16.759 C 5.046 20.525,4.683 20.876,4.503 20.935 C 3.953 21.116,3.379 20.884,3.120 20.375 C 2.991 20.124,2.980 19.667,3.097 19.420 C 3.148 19.311,4.468 17.962,7.264 15.160 C 10.441 11.977,11.374 11.020,11.437 10.880 C 11.563 10.600,11.546 10.321,11.379 9.905 C 10.757 8.364,10.920 6.635,11.817 5.259 C 12.068 4.874,12.618 4.283,12.976 4.014 C 13.649 3.509,14.472 3.165,15.301 3.045 C 15.588 3.003,16.367 2.990,16.460 3.025 " stroke="none" fill-rule="evenodd" fill="#000000"></path></svg>