<svg  xmlns="http://www.w3.org/2000/svg" width="24" height="24" viewBox="0 0 24 24" fill="none" stroke="currentColor" stroke-width="2" stroke-linecap="round" stroke-linejoin="round"><path d="M1.695 3.057 C 1.466 3.129,1.256 3.299,1.128 3.516 L 1.020 3.700 1.020 6.003 L 1.020 8.306 1.141 8.503 C 1.543 9.156,2.457 9.156,2.859 8.503 C 2.979 8.308,2.980 8.300,2.993 7.653 L 3.007 7.000 12.000 7.000 L 20.993 7.000 21.007 7.653 C 21.020 8.300,21.021 8.308,21.141 8.503 C 21.543 9.156,22.457 9.156,22.859 8.503 L 22.980 8.306 22.980 6.003 L 22.980 3.700 22.871 3.514 C 22.479 2.848,21.521 2.848,21.129 3.514 C 21.024 3.693,21.019 3.726,21.007 4.350 L 20.993 5.000 12.000 5.000 L 3.007 5.000 2.993 4.350 C 2.981 3.728,2.975 3.692,2.872 3.516 C 2.628 3.101,2.150 2.915,1.695 3.057 M3.499 11.043 C 2.380 11.232,1.461 12.048,1.114 13.160 L 1.020 13.460 1.020 16.000 L 1.020 18.540 1.114 18.840 C 1.422 19.827,2.173 20.578,3.160 20.886 L 3.460 20.980 12.000 20.980 L 20.540 20.980 20.840 20.886 C 21.827 20.578,22.578 19.827,22.886 18.840 L 22.980 18.540 22.980 16.000 L 22.980 13.460 22.886 13.160 C 22.581 12.182,21.832 11.428,20.861 11.121 L 20.540 11.020 12.120 11.014 C 7.489 11.011,3.609 11.024,3.499 11.043 M5.008 14.153 L 5.020 15.307 5.141 15.503 C 5.543 16.156,6.457 16.156,6.859 15.503 L 6.980 15.307 6.992 14.153 L 7.005 13.000 8.000 13.000 L 8.995 13.000 9.008 14.153 L 9.020 15.307 9.141 15.503 C 9.543 16.156,10.457 16.156,10.859 15.503 L 10.980 15.307 10.992 14.153 L 11.005 13.000 12.000 13.000 L 12.995 13.000 13.008 14.153 L 13.020 15.307 13.141 15.503 C 13.543 16.156,14.457 16.156,14.859 15.503 L 14.980 15.307 14.992 14.153 L 15.005 13.000 16.000 13.000 L 16.995 13.000 17.008 14.153 L 17.020 15.307 17.141 15.503 C 17.543 16.156,18.457 16.156,18.859 15.503 L 18.980 15.307 18.992 14.153 L 19.005 13.000 19.555 13.000 C 20.249 13.000,20.446 13.052,20.697 13.303 C 21.002 13.609,21.000 13.589,21.000 16.001 C 21.000 18.287,20.996 18.333,20.779 18.618 C 20.718 18.698,20.585 18.813,20.484 18.872 L 20.300 18.980 12.000 18.980 L 3.700 18.980 3.516 18.872 C 3.415 18.813,3.284 18.700,3.225 18.623 C 3.000 18.327,3.000 18.332,3.000 16.022 C 3.000 13.586,2.997 13.609,3.304 13.303 C 3.554 13.053,3.728 13.006,4.428 13.003 L 4.995 13.000 5.008 14.153 " stroke="none" fill-rule="evenodd" fill="#000000"></path></svg>