<svg  xmlns="http://www.w3.org/2000/svg" width="24" height="24" viewBox="0 0 24 24" fill="none" stroke="currentColor" stroke-width="2" stroke-linecap="round" stroke-linejoin="round"><path d="M11.695 1.057 C 11.466 1.129,11.256 1.299,11.128 1.516 L 11.020 1.700 11.009 3.850 L 10.997 6.000 8.926 6.000 C 7.616 6.000,6.768 6.016,6.617 6.043 C 6.114 6.135,5.553 6.526,5.293 6.965 C 5.128 7.245,2.105 14.323,2.045 14.568 C 1.947 14.974,2.007 15.446,2.211 15.880 C 2.364 16.206,2.770 16.623,3.080 16.772 C 3.546 16.996,3.596 17.000,5.888 17.000 L 8.000 17.000 8.000 17.184 C 8.000 17.455,8.141 18.095,8.280 18.455 C 8.750 19.672,9.774 20.562,11.080 20.891 C 11.540 21.006,12.395 21.014,12.860 20.906 C 14.174 20.601,15.245 19.684,15.720 18.455 C 15.859 18.095,16.000 17.455,16.000 17.184 L 16.000 17.000 18.112 17.000 C 20.404 17.000,20.454 16.996,20.920 16.772 C 21.230 16.623,21.636 16.206,21.789 15.880 C 22.015 15.399,22.059 14.919,21.918 14.463 C 21.797 14.072,18.816 7.133,18.672 6.909 C 18.408 6.495,17.865 6.131,17.383 6.043 C 17.232 6.016,16.384 6.000,15.074 6.000 L 13.003 6.000 12.991 3.850 L 12.980 1.700 12.872 1.516 C 12.628 1.101,12.150 0.915,11.695 1.057 M18.497 11.500 L 19.988 14.980 15.994 14.990 C 13.797 14.996,10.203 14.996,8.006 14.990 L 4.011 14.980 5.480 11.553 C 6.288 9.668,6.960 8.097,6.973 8.063 C 6.995 8.006,7.482 8.001,12.002 8.010 L 17.006 8.020 18.497 11.500 M13.999 17.090 C 13.998 17.260,13.879 17.686,13.770 17.913 C 13.629 18.205,13.209 18.627,12.920 18.766 C 12.092 19.166,11.230 19.030,10.600 18.400 C 10.448 18.248,10.294 18.046,10.230 17.913 C 10.121 17.686,10.002 17.260,10.001 17.090 L 10.000 17.000 12.000 17.000 L 14.000 17.000 13.999 17.090 " stroke="none" fill-rule="evenodd" fill="#000000"></path></svg>