<svg  xmlns="http://www.w3.org/2000/svg" width="24" height="24" viewBox="0 0 24 24" fill="none" stroke="currentColor" stroke-width="2" stroke-linecap="round" stroke-linejoin="round"><path d="M3.499 2.042 C 2.376 2.236,1.461 3.048,1.114 4.160 L 1.020 4.460 1.020 11.500 L 1.020 18.540 1.114 18.840 C 1.418 19.816,2.150 20.554,3.140 20.886 L 3.420 20.980 7.095 20.991 C 11.247 21.004,11.013 21.021,11.336 20.698 C 11.729 20.305,11.736 19.713,11.353 19.318 C 11.045 19.000,11.330 19.022,7.300 19.000 L 3.700 18.980 3.516 18.872 C 3.303 18.747,3.141 18.550,3.058 18.316 C 2.968 18.060,2.971 4.993,3.061 4.690 C 3.144 4.411,3.411 4.144,3.690 4.061 C 3.979 3.975,7.928 3.970,8.211 4.055 C 8.507 4.144,8.610 4.247,9.046 4.890 C 9.684 5.829,9.891 6.093,10.166 6.316 C 10.497 6.583,10.975 6.817,11.400 6.918 C 11.730 6.997,11.861 6.999,15.923 7.000 C 20.649 7.000,20.376 6.983,20.697 7.303 C 20.999 7.605,21.000 7.616,21.000 9.757 L 21.001 11.620 21.095 11.820 C 21.280 12.210,21.581 12.401,22.009 12.399 C 22.319 12.398,22.530 12.308,22.724 12.092 C 23.011 11.774,23.006 11.823,22.991 9.498 C 22.978 7.450,22.976 7.416,22.885 7.140 C 22.561 6.162,21.820 5.424,20.861 5.122 L 20.540 5.021 16.160 5.000 L 11.780 4.980 11.613 4.891 C 11.409 4.781,11.285 4.629,10.759 3.840 C 10.204 3.007,9.805 2.605,9.278 2.346 C 8.596 2.011,8.723 2.024,6.060 2.015 C 4.762 2.011,3.609 2.023,3.499 2.042 M15.780 14.026 C 14.696 14.199,13.771 14.885,13.320 15.851 C 13.075 16.375,13.022 16.622,13.022 17.240 C 13.022 17.823,13.074 18.090,13.272 18.540 C 13.502 19.063,13.559 19.133,15.465 21.200 C 16.145 21.937,16.787 22.597,16.891 22.667 C 17.255 22.911,17.488 22.976,18.000 22.976 C 18.512 22.976,18.745 22.911,19.109 22.667 C 19.281 22.552,21.488 20.201,22.159 19.419 C 23.124 18.292,23.262 16.856,22.526 15.580 C 22.349 15.274,21.732 14.658,21.420 14.476 C 20.870 14.156,20.388 14.026,19.740 14.026 C 19.175 14.025,18.786 14.116,18.295 14.362 C 17.993 14.514,17.986 14.516,17.884 14.446 C 17.730 14.341,17.331 14.173,17.059 14.099 C 16.823 14.034,16.016 13.988,15.780 14.026 M16.778 16.119 C 16.883 16.170,17.083 16.325,17.222 16.463 C 17.729 16.968,18.266 16.969,18.775 16.468 C 19.108 16.140,19.369 16.022,19.760 16.024 C 20.118 16.025,20.372 16.130,20.621 16.379 C 20.870 16.628,20.975 16.882,20.976 17.240 C 20.978 17.740,20.929 17.812,19.636 19.221 C 19.011 19.902,18.387 20.576,18.250 20.719 L 18.000 20.980 17.750 20.719 C 16.781 19.709,15.197 17.935,15.116 17.771 C 14.981 17.496,14.980 16.978,15.115 16.720 C 15.283 16.397,15.575 16.148,15.920 16.035 C 16.105 15.974,16.574 16.020,16.778 16.119 " stroke="none" fill-rule="evenodd" fill="#000000"></path></svg>