<svg  xmlns="http://www.w3.org/2000/svg" width="24" height="24" viewBox="0 0 24 24" fill="none" stroke="currentColor" stroke-width="2" stroke-linecap="round" stroke-linejoin="round"><path d="M2.670 2.061 C 2.448 2.142,2.250 2.309,2.128 2.516 C 2.036 2.672,2.020 2.745,2.021 3.000 C 2.021 3.213,2.043 3.341,2.095 3.440 C 2.136 3.517,2.711 4.125,3.374 4.790 L 4.578 6.000 3.374 7.210 C 2.711 7.875,2.138 8.481,2.101 8.555 C 1.872 9.009,2.056 9.601,2.508 9.867 C 2.673 9.964,2.742 9.980,3.000 9.979 C 3.213 9.979,3.341 9.957,3.440 9.905 C 3.517 9.864,4.125 9.289,4.790 8.626 L 6.000 7.422 7.210 8.626 C 7.875 9.289,8.481 9.862,8.555 9.899 C 9.009 10.128,9.601 9.944,9.867 9.492 C 9.964 9.327,9.980 9.258,9.979 9.000 C 9.979 8.787,9.957 8.659,9.905 8.560 C 9.864 8.483,9.289 7.875,8.626 7.210 L 7.422 6.000 8.626 4.790 C 9.289 4.125,9.864 3.517,9.905 3.440 C 9.957 3.341,9.979 3.213,9.979 3.000 C 9.980 2.745,9.964 2.672,9.872 2.516 C 9.618 2.084,9.137 1.905,8.657 2.066 C 8.484 2.124,8.312 2.279,7.230 3.354 L 6.000 4.576 4.770 3.354 C 3.688 2.279,3.516 2.124,3.343 2.066 C 3.108 1.987,2.875 1.985,2.670 2.061 M11.695 5.056 C 11.465 5.129,11.255 5.300,11.128 5.516 C 11.037 5.672,11.020 5.746,11.020 6.000 C 11.020 6.256,11.036 6.328,11.131 6.489 C 11.256 6.702,11.449 6.864,11.670 6.943 C 11.788 6.985,12.278 6.997,13.963 6.998 C 16.416 7.000,16.391 6.998,16.697 7.304 C 17.013 7.620,17.002 7.475,16.990 11.014 L 16.980 14.126 16.720 14.217 C 15.824 14.531,15.024 15.177,14.569 15.953 C 13.320 18.083,14.233 20.785,16.512 21.704 C 18.558 22.528,20.877 21.538,21.704 19.488 C 22.560 17.365,21.464 14.983,19.280 14.217 L 19.020 14.126 19.000 10.773 L 18.979 7.420 18.886 7.140 C 18.558 6.159,17.818 5.422,16.861 5.122 L 16.540 5.022 14.200 5.013 C 12.351 5.005,11.825 5.014,11.695 5.056 M5.695 11.057 C 5.466 11.129,5.256 11.299,5.128 11.516 L 5.020 11.700 5.020 16.503 L 5.020 21.306 5.141 21.503 C 5.543 22.156,6.457 22.156,6.859 21.503 L 6.980 21.306 6.980 16.503 L 6.980 11.700 6.872 11.516 C 6.628 11.101,6.150 10.915,5.695 11.057 M18.523 16.073 C 19.262 16.266,19.850 16.924,19.967 17.690 C 20.067 18.343,19.873 18.933,19.403 19.404 C 19.002 19.807,18.547 20.000,18.000 20.000 C 17.485 20.000,17.038 19.822,16.653 19.465 C 15.323 18.229,16.189 16.005,18.000 16.005 C 18.143 16.005,18.378 16.036,18.523 16.073 " stroke="none" fill-rule="evenodd" fill="#000000"></path></svg>