<svg  xmlns="http://www.w3.org/2000/svg" width="24" height="24" viewBox="0 0 24 24" fill="none" stroke="currentColor" stroke-width="2" stroke-linecap="round" stroke-linejoin="round"><path d="M5.695 4.057 C 5.466 4.129,5.256 4.299,5.128 4.516 C 5.037 4.672,5.020 4.746,5.020 5.000 C 5.020 5.256,5.036 5.328,5.131 5.489 C 5.256 5.702,5.449 5.864,5.670 5.943 C 5.892 6.022,18.108 6.022,18.330 5.943 C 18.551 5.864,18.744 5.702,18.869 5.489 C 18.964 5.328,18.980 5.256,18.980 5.000 C 18.980 4.746,18.963 4.672,18.872 4.516 C 18.740 4.293,18.533 4.128,18.290 4.055 C 18.028 3.976,5.947 3.978,5.695 4.057 M3.695 11.057 C 3.466 11.129,3.256 11.299,3.128 11.516 C 3.037 11.672,3.020 11.746,3.020 12.000 C 3.020 12.256,3.036 12.328,3.131 12.489 C 3.256 12.702,3.449 12.864,3.670 12.943 C 3.892 13.022,14.108 13.022,14.330 12.943 C 14.551 12.864,14.744 12.702,14.869 12.489 C 14.964 12.328,14.980 12.256,14.980 12.000 C 14.980 11.746,14.963 11.672,14.872 11.516 C 14.740 11.293,14.533 11.128,14.290 11.055 C 14.028 10.976,3.946 10.978,3.695 11.057 M11.695 18.057 C 11.466 18.129,11.256 18.299,11.128 18.516 C 11.037 18.672,11.020 18.746,11.020 19.000 C 11.020 19.256,11.036 19.328,11.131 19.489 C 11.256 19.702,11.449 19.864,11.670 19.943 C 11.892 20.022,20.108 20.022,20.330 19.943 C 20.551 19.864,20.744 19.702,20.869 19.489 C 20.964 19.328,20.980 19.256,20.980 19.000 C 20.980 18.746,20.963 18.672,20.872 18.516 C 20.740 18.293,20.533 18.128,20.290 18.055 C 20.029 17.976,11.946 17.979,11.695 18.057 " stroke="none" fill-rule="evenodd" fill="#000000"></path></svg>