<svg  xmlns="http://www.w3.org/2000/svg" width="24" height="24" viewBox="0 0 24 24" fill="none" stroke="currentColor" stroke-width="2" stroke-linecap="round" stroke-linejoin="round"><path d="M3.499 5.043 C 2.380 5.233,1.461 6.048,1.114 7.160 L 1.020 7.460 1.020 12.000 L 1.020 16.540 1.114 16.840 C 1.422 17.827,2.173 18.578,3.160 18.886 L 3.460 18.980 10.000 18.980 L 16.540 18.980 16.840 18.886 C 17.827 18.578,18.578 17.827,18.886 16.840 L 18.980 16.540 18.980 12.000 L 18.980 7.460 18.886 7.160 C 18.581 6.182,17.832 5.428,16.861 5.121 L 16.540 5.020 10.120 5.014 C 6.589 5.011,3.609 5.024,3.499 5.043 M16.310 7.061 C 16.589 7.144,16.856 7.411,16.939 7.690 C 16.992 7.867,17.000 8.441,17.000 12.001 C 17.000 16.458,17.007 16.319,16.779 16.618 C 16.718 16.698,16.585 16.813,16.484 16.872 L 16.300 16.980 10.000 16.980 L 3.700 16.980 3.516 16.872 C 3.303 16.747,3.141 16.550,3.058 16.316 C 2.969 16.062,2.971 7.992,3.061 7.690 C 3.140 7.421,3.412 7.143,3.673 7.063 C 3.963 6.974,16.010 6.972,16.310 7.061 M5.695 9.057 C 5.466 9.129,5.256 9.299,5.128 9.516 L 5.020 9.700 5.020 12.003 L 5.020 14.306 5.141 14.503 C 5.209 14.613,5.346 14.756,5.452 14.828 C 5.923 15.144,6.554 14.999,6.859 14.503 L 6.980 14.306 6.980 12.003 L 6.980 9.700 6.872 9.516 C 6.628 9.101,6.150 8.915,5.695 9.057 M21.695 9.057 C 21.466 9.129,21.256 9.299,21.128 9.516 L 21.020 9.700 21.020 12.003 L 21.020 14.306 21.141 14.503 C 21.543 15.156,22.457 15.156,22.859 14.503 L 22.980 14.306 22.980 12.003 L 22.980 9.700 22.872 9.516 C 22.628 9.101,22.150 8.915,21.695 9.057 " stroke="none" fill-rule="evenodd" fill="#000000"></path></svg>