<svg  xmlns="http://www.w3.org/2000/svg" width="24" height="24" viewBox="0 0 24 24" fill="none" stroke="currentColor" stroke-width="2" stroke-linecap="round" stroke-linejoin="round"><path d="M11.490 1.042 C 11.166 1.100,10.804 1.231,10.542 1.385 C 10.319 1.517,5.791 4.752,2.846 6.884 C 2.180 7.366,2.050 7.522,2.013 7.890 C 1.956 8.442,2.347 8.932,2.888 8.987 C 3.210 9.020,3.394 8.948,3.877 8.600 C 4.288 8.305,4.320 8.289,4.339 8.371 C 4.369 8.501,5.800 16.919,5.800 16.963 C 5.800 16.985,5.410 17.000,4.846 17.000 C 3.804 17.000,3.639 17.025,3.382 17.221 C 3.302 17.282,3.187 17.415,3.128 17.516 C 3.037 17.672,3.020 17.746,3.020 18.000 C 3.020 18.256,3.036 18.328,3.131 18.489 C 3.256 18.702,3.449 18.864,3.670 18.943 C 3.791 18.986,4.515 18.997,7.408 18.998 L 10.997 19.000 11.008 20.653 L 11.020 22.306 11.141 22.503 C 11.543 23.156,12.457 23.156,12.859 22.503 L 12.980 22.306 12.992 20.653 L 13.003 19.000 16.592 18.998 C 19.485 18.997,20.209 18.986,20.330 18.943 C 20.551 18.864,20.744 18.702,20.869 18.489 C 20.964 18.328,20.980 18.256,20.980 18.000 C 20.980 17.746,20.963 17.672,20.872 17.516 C 20.813 17.415,20.698 17.282,20.618 17.221 C 20.361 17.025,20.196 17.000,19.154 17.000 C 18.557 17.000,18.200 16.985,18.200 16.961 C 18.200 16.916,19.630 8.505,19.660 8.373 C 19.679 8.292,19.714 8.309,20.122 8.602 C 20.606 8.948,20.791 9.020,21.112 8.987 C 21.823 8.914,22.229 8.093,21.852 7.488 C 21.739 7.306,21.650 7.237,19.975 6.032 C 15.248 2.633,13.533 1.418,13.300 1.303 C 13.146 1.228,12.912 1.137,12.780 1.102 C 12.486 1.023,11.775 0.990,11.490 1.042 M12.317 3.059 C 12.496 3.122,17.795 6.904,17.830 6.994 C 17.846 7.032,16.337 16.028,16.171 16.890 L 16.150 17.000 12.000 17.000 L 7.850 17.000 7.829 16.890 C 7.666 16.050,6.154 7.033,6.169 6.994 C 6.202 6.911,11.497 3.124,11.669 3.061 C 11.869 2.987,12.112 2.987,12.317 3.059 M11.499 7.040 C 10.363 7.246,9.460 8.049,9.114 9.160 C 8.979 9.594,8.979 10.406,9.114 10.840 C 9.421 11.826,10.174 12.579,11.160 12.886 C 11.594 13.021,12.406 13.021,12.840 12.886 C 13.826 12.579,14.579 11.826,14.886 10.840 C 15.021 10.406,15.021 9.594,14.886 9.160 C 14.581 8.179,13.810 7.407,12.861 7.129 C 12.500 7.023,11.832 6.980,11.499 7.040 M12.310 9.061 C 12.688 9.173,13.000 9.598,13.000 10.001 C 13.000 10.331,12.784 10.696,12.484 10.872 C 12.328 10.963,12.254 10.980,12.000 10.980 C 11.746 10.980,11.672 10.963,11.516 10.872 C 10.935 10.530,10.833 9.774,11.304 9.303 C 11.583 9.024,11.916 8.944,12.310 9.061 " stroke="none" fill-rule="evenodd" fill="#000000"></path></svg>