<svg  xmlns="http://www.w3.org/2000/svg" width="24" height="24" viewBox="0 0 24 24" fill="none" stroke="currentColor" stroke-width="2" stroke-linecap="round" stroke-linejoin="round"><path d="M11.695 1.057 C 11.352 1.164,11.073 1.481,11.018 1.825 L 10.991 1.991 10.226 2.010 C 9.567 2.027,9.415 2.043,9.139 2.126 C 8.181 2.415,7.420 3.179,7.114 4.160 L 7.020 4.460 7.020 10.000 L 7.020 15.540 7.114 15.840 C 7.422 16.827,8.173 17.578,9.160 17.886 L 9.460 17.980 15.000 17.980 L 20.540 17.980 20.840 17.886 C 21.827 17.578,22.578 16.827,22.886 15.840 L 22.980 15.540 22.980 10.000 L 22.980 4.460 22.886 4.160 C 22.580 3.179,21.819 2.415,20.861 2.126 C 20.585 2.043,20.433 2.027,19.774 2.010 L 19.009 1.991 18.982 1.825 C 18.922 1.448,18.606 1.123,18.214 1.035 C 17.666 0.913,17.104 1.285,17.017 1.830 L 16.990 2.000 15.000 2.000 L 13.010 2.000 12.983 1.830 C 12.926 1.473,12.648 1.163,12.290 1.055 C 12.068 0.988,11.913 0.989,11.695 1.057 M11.018 4.179 C 11.054 4.422,11.258 4.712,11.497 4.859 C 11.671 4.966,11.729 4.980,12.000 4.980 C 12.271 4.980,12.329 4.966,12.503 4.859 C 12.742 4.712,12.946 4.422,12.982 4.179 L 13.009 4.000 15.000 4.000 L 16.991 4.000 17.018 4.179 C 17.054 4.422,17.258 4.712,17.497 4.859 C 17.671 4.966,17.729 4.980,18.000 4.980 C 18.271 4.980,18.329 4.966,18.503 4.859 C 18.742 4.712,18.946 4.422,18.982 4.179 L 19.009 4.000 19.557 4.000 C 20.249 4.000,20.446 4.052,20.697 4.303 C 20.978 4.584,21.000 4.703,21.000 5.947 L 21.000 7.000 15.000 7.000 L 9.000 7.000 9.000 5.947 C 9.000 4.702,9.022 4.585,9.304 4.303 C 9.553 4.053,9.728 4.006,10.425 4.003 L 10.991 4.000 11.018 4.179 M3.499 7.043 C 2.383 7.230,1.461 8.048,1.114 9.160 L 1.020 9.460 1.020 15.000 L 1.020 20.540 1.114 20.840 C 1.422 21.827,2.173 22.578,3.160 22.886 L 3.460 22.980 8.980 22.980 C 15.090 22.980,14.599 23.000,15.220 22.729 C 15.805 22.474,16.343 21.982,16.602 21.464 C 16.850 20.966,16.685 20.405,16.215 20.154 C 15.947 20.010,15.712 19.983,15.440 20.064 C 15.216 20.130,15.212 20.133,14.688 20.695 C 14.381 21.023,14.777 21.003,8.898 20.991 L 3.700 20.980 3.516 20.872 C 3.415 20.813,3.284 20.700,3.225 20.623 C 2.994 20.320,3.000 20.418,3.000 17.075 L 3.000 14.000 3.590 13.998 C 3.977 13.997,4.232 13.978,4.330 13.943 C 4.551 13.864,4.744 13.702,4.869 13.489 C 4.964 13.328,4.980 13.256,4.980 13.000 C 4.980 12.746,4.963 12.672,4.872 12.516 C 4.633 12.110,4.352 12.000,3.554 12.000 L 3.000 12.000 3.000 10.947 C 3.000 9.725,3.024 9.589,3.283 9.321 C 3.484 9.114,3.636 9.049,4.028 8.999 C 4.392 8.953,4.631 8.827,4.802 8.591 C 5.207 8.032,4.947 7.253,4.290 7.055 C 4.090 6.995,3.811 6.991,3.499 7.043 M21.000 12.054 C 21.000 15.367,21.003 15.325,20.779 15.618 C 20.718 15.698,20.585 15.813,20.484 15.872 L 20.300 15.980 15.000 15.980 L 9.700 15.980 9.516 15.872 C 9.415 15.813,9.284 15.700,9.225 15.623 C 8.994 15.320,9.000 15.418,9.000 12.075 L 9.000 9.000 15.000 9.000 L 21.000 9.000 21.000 12.054 " stroke="none" fill-rule="evenodd" fill="#000000"></path></svg>