<svg  xmlns="http://www.w3.org/2000/svg" width="24" height="24" viewBox="0 0 24 24" fill="none" stroke="currentColor" stroke-width="2" stroke-linecap="round" stroke-linejoin="round"><path d="M1.670 1.061 C 1.448 1.142,1.250 1.309,1.128 1.516 C 1.036 1.672,1.020 1.745,1.021 2.000 C 1.021 2.212,1.043 2.341,1.095 2.440 C 1.135 2.517,1.846 3.261,2.674 4.092 L 4.180 5.605 3.980 5.769 C 3.633 6.053,2.863 6.853,2.619 7.183 C 1.096 9.239,0.624 11.764,1.309 14.180 C 2.109 17.000,4.379 19.145,7.260 19.803 C 8.102 19.996,8.237 20.000,13.206 20.000 C 16.317 20.000,17.977 19.986,18.183 19.957 L 18.493 19.914 19.956 21.373 C 20.761 22.175,21.483 22.865,21.560 22.905 C 21.659 22.957,21.788 22.979,22.000 22.979 C 22.258 22.980,22.327 22.964,22.492 22.867 C 22.968 22.587,23.139 21.967,22.865 21.508 C 22.810 21.416,18.215 16.793,12.653 11.235 C 3.300 1.889,2.525 1.125,2.343 1.065 C 2.107 0.987,1.874 0.986,1.670 1.061 M10.540 4.375 C 10.022 4.621,9.803 5.194,10.038 5.689 C 10.180 5.987,10.362 6.122,10.860 6.296 C 12.402 6.834,13.604 7.858,14.315 9.238 C 14.445 9.492,14.608 9.857,14.675 10.049 C 14.828 10.485,14.884 10.593,15.026 10.725 C 15.296 10.976,15.301 10.977,16.740 11.004 C 17.893 11.026,18.098 11.040,18.360 11.111 C 19.190 11.337,19.890 11.824,20.358 12.500 C 20.999 13.428,21.149 14.448,20.815 15.609 C 20.654 16.169,20.731 16.512,21.086 16.816 C 21.558 17.220,22.318 17.072,22.598 16.524 C 22.854 16.022,23.016 15.103,22.988 14.320 C 22.936 12.889,22.387 11.624,21.381 10.619 C 20.609 9.846,19.695 9.353,18.591 9.114 C 18.307 9.052,18.010 9.028,17.319 9.012 L 16.418 8.990 16.261 8.645 C 15.660 7.320,14.593 6.097,13.311 5.264 C 12.592 4.795,11.345 4.280,10.936 4.280 C 10.813 4.281,10.665 4.316,10.540 4.375 M16.070 17.992 C 15.801 17.998,13.915 17.997,11.880 17.989 C 8.234 17.976,8.174 17.974,7.792 17.887 C 5.930 17.464,4.443 16.311,3.627 14.658 C 3.266 13.927,3.051 13.075,3.011 12.215 C 2.920 10.252,3.886 8.278,5.500 7.129 L 5.620 7.044 11.090 12.512 L 16.560 17.980 16.070 17.992 " stroke="none" fill-rule="evenodd" fill="#000000"></path></svg>