<svg  xmlns="http://www.w3.org/2000/svg" width="24" height="24" viewBox="0 0 24 24" fill="none" stroke="currentColor" stroke-width="2" stroke-linecap="round" stroke-linejoin="round"><path d="M11.499 1.040 C 10.363 1.246,9.461 2.048,9.114 3.160 C 9.034 3.417,9.020 3.541,9.022 4.020 C 9.024 4.541,9.033 4.605,9.149 4.940 L 9.274 5.300 7.287 7.290 C 5.878 8.702,5.283 9.273,5.240 9.255 C 5.207 9.240,5.036 9.183,4.860 9.128 C 4.584 9.041,4.465 9.027,4.000 9.027 C 3.542 9.027,3.412 9.042,3.139 9.125 C 2.178 9.418,1.419 10.181,1.114 11.160 C 0.979 11.594,0.979 12.406,1.114 12.840 C 1.421 13.826,2.174 14.579,3.160 14.886 C 3.412 14.964,3.547 14.979,4.000 14.979 C 4.453 14.979,4.588 14.964,4.840 14.886 C 5.645 14.635,6.318 14.069,6.688 13.330 L 6.853 13.000 12.006 13.000 L 17.159 13.000 17.221 13.148 L 17.283 13.297 15.291 15.289 C 13.879 16.701,13.283 17.273,13.240 17.255 C 13.207 17.240,13.036 17.183,12.860 17.128 C 12.584 17.041,12.465 17.027,12.000 17.027 C 11.542 17.027,11.412 17.042,11.139 17.125 C 10.178 17.418,9.419 18.181,9.114 19.160 C 8.979 19.594,8.979 20.406,9.114 20.840 C 9.421 21.826,10.174 22.579,11.160 22.886 C 11.594 23.021,12.406 23.021,12.840 22.886 C 13.826 22.579,14.578 21.827,14.886 20.840 C 14.966 20.583,14.980 20.459,14.978 19.980 C 14.976 19.459,14.967 19.395,14.851 19.060 L 14.725 18.700 16.713 16.713 L 18.700 14.725 19.060 14.851 C 19.395 14.967,19.459 14.976,19.980 14.978 C 20.459 14.980,20.583 14.966,20.840 14.886 C 21.827 14.578,22.579 13.826,22.886 12.840 C 23.021 12.406,23.021 11.594,22.886 11.160 C 22.581 10.181,21.822 9.418,20.861 9.125 C 20.588 9.042,20.458 9.027,20.000 9.027 C 19.542 9.027,19.412 9.042,19.139 9.125 C 18.358 9.363,17.679 9.938,17.312 10.670 L 17.147 11.000 11.994 11.000 L 6.841 11.000 6.779 10.852 L 6.717 10.703 8.709 8.714 L 10.700 6.725 11.060 6.851 C 11.395 6.967,11.459 6.976,11.980 6.978 C 12.459 6.980,12.583 6.966,12.840 6.886 C 13.827 6.578,14.579 5.826,14.886 4.840 C 15.021 4.406,15.021 3.594,14.886 3.160 C 14.581 2.179,13.810 1.407,12.861 1.129 C 12.500 1.023,11.832 0.980,11.499 1.040 M12.310 3.061 C 12.688 3.173,13.000 3.598,13.000 4.001 C 13.000 4.331,12.784 4.696,12.484 4.872 C 12.328 4.964,12.255 4.980,12.000 4.979 C 11.654 4.978,11.519 4.921,11.281 4.676 C 10.905 4.289,10.915 3.691,11.304 3.303 C 11.583 3.024,11.916 2.944,12.310 3.061 M4.310 11.061 C 4.688 11.173,5.000 11.598,5.000 12.001 C 5.000 12.331,4.784 12.696,4.484 12.872 C 4.328 12.963,4.254 12.980,4.000 12.980 C 3.746 12.980,3.672 12.963,3.516 12.872 C 2.935 12.530,2.833 11.774,3.304 11.303 C 3.583 11.024,3.916 10.944,4.310 11.061 M20.310 11.061 C 20.688 11.173,21.000 11.598,21.000 12.001 C 21.000 12.331,20.784 12.696,20.484 12.872 C 20.328 12.964,20.255 12.980,20.000 12.979 C 19.654 12.978,19.519 12.921,19.281 12.676 C 18.905 12.289,18.915 11.691,19.304 11.303 C 19.583 11.024,19.916 10.944,20.310 11.061 M12.310 19.061 C 12.688 19.173,13.000 19.598,13.000 20.001 C 13.000 20.331,12.784 20.696,12.484 20.872 C 12.328 20.963,12.254 20.980,12.000 20.980 C 11.746 20.980,11.672 20.963,11.516 20.872 C 10.935 20.530,10.833 19.774,11.304 19.303 C 11.583 19.024,11.916 18.944,12.310 19.061 " stroke="none" fill-rule="evenodd" fill="#000000"></path></svg>