<svg  xmlns="http://www.w3.org/2000/svg" width="24" height="24" viewBox="0 0 24 24" fill="none" stroke="currentColor" stroke-width="2" stroke-linecap="round" stroke-linejoin="round"><path d="M5.695 1.057 C 5.466 1.129,5.256 1.299,5.128 1.516 L 5.020 1.700 5.020 3.003 L 5.020 4.306 5.141 4.503 C 5.543 5.156,6.457 5.156,6.859 4.503 L 6.980 4.306 6.980 3.003 L 6.980 1.700 6.872 1.516 C 6.628 1.101,6.150 0.915,5.695 1.057 M9.695 1.057 C 9.466 1.129,9.256 1.299,9.128 1.516 L 9.020 1.700 9.020 3.003 L 9.020 4.306 9.141 4.503 C 9.543 5.156,10.457 5.156,10.859 4.503 L 10.980 4.306 10.980 3.003 L 10.980 1.700 10.872 1.516 C 10.628 1.101,10.150 0.915,9.695 1.057 M13.695 1.057 C 13.466 1.129,13.256 1.299,13.128 1.516 L 13.020 1.700 13.020 3.003 L 13.020 4.306 13.141 4.503 C 13.543 5.156,14.457 5.156,14.859 4.503 L 14.980 4.306 14.980 3.003 L 14.980 1.700 14.872 1.516 C 14.628 1.101,14.150 0.915,13.695 1.057 M3.477 7.073 C 2.788 7.253,2.184 7.886,2.040 8.579 C 2.011 8.719,2.002 10.203,2.011 13.242 C 2.025 18.137,2.011 17.845,2.268 18.600 C 2.844 20.289,4.253 21.525,6.040 21.907 C 6.355 21.975,6.651 21.980,10.000 21.980 C 13.349 21.980,13.645 21.975,13.960 21.907 C 15.488 21.580,16.748 20.630,17.433 19.288 C 17.760 18.645,17.940 18.015,17.988 17.336 L 18.011 17.011 18.336 16.988 C 20.073 16.865,21.647 15.827,22.433 14.288 C 22.838 13.494,22.980 12.899,22.980 12.000 C 22.980 11.101,22.838 10.506,22.433 9.713 C 21.794 8.461,20.604 7.510,19.240 7.162 C 18.625 7.005,18.377 7.000,10.952 7.002 C 4.268 7.004,3.721 7.010,3.477 7.073 M15.991 13.270 L 15.980 17.540 15.879 17.861 C 15.572 18.832,14.818 19.581,13.840 19.886 L 13.540 19.980 10.000 19.980 L 6.460 19.980 6.160 19.886 C 5.182 19.581,4.428 18.832,4.121 17.861 L 4.020 17.540 4.009 13.270 L 3.998 9.000 10.000 9.000 L 16.002 9.000 15.991 13.270 M18.876 9.134 C 19.801 9.402,20.586 10.190,20.875 11.139 C 20.958 11.412,20.973 11.542,20.973 12.000 C 20.973 12.458,20.958 12.588,20.875 12.861 C 20.522 14.018,19.482 14.877,18.302 14.984 L 18.000 15.011 18.000 12.000 L 18.000 8.990 18.286 9.018 C 18.443 9.033,18.709 9.086,18.876 9.134 " stroke="none" fill-rule="evenodd" fill="#000000"></path></svg>