<svg  xmlns="http://www.w3.org/2000/svg" width="24" height="24" viewBox="0 0 24 24" fill="none" stroke="currentColor" stroke-width="2" stroke-linecap="round" stroke-linejoin="round"><path d="M5.499 1.042 C 4.388 1.232,3.482 2.029,3.115 3.140 C 3.025 3.414,3.023 3.460,3.009 5.327 C 3.000 6.617,3.009 7.286,3.039 7.395 C 3.148 7.802,3.570 8.120,4.000 8.120 C 4.423 8.120,4.848 7.805,4.958 7.409 C 4.984 7.317,5.000 6.613,5.000 5.577 C 5.000 3.636,5.005 3.602,5.303 3.303 C 5.621 2.986,5.423 3.000,9.447 3.000 L 13.000 3.000 13.000 5.132 C 13.000 7.443,13.004 7.494,13.225 7.930 C 13.361 8.199,13.801 8.639,14.070 8.775 C 14.506 8.996,14.557 9.000,16.868 9.000 L 19.000 9.000 19.000 14.554 C 19.000 19.144,18.990 20.139,18.945 20.290 C 18.872 20.533,18.707 20.740,18.484 20.872 L 18.300 20.980 12.019 20.980 L 5.738 20.980 5.539 20.878 C 5.419 20.816,5.290 20.705,5.213 20.598 C 4.829 20.065,4.646 19.942,4.239 19.943 C 3.641 19.945,3.240 20.353,3.240 20.959 C 3.240 21.626,4.137 22.536,5.120 22.866 L 5.460 22.980 12.000 22.980 L 18.540 22.980 18.840 22.886 C 19.827 22.578,20.578 21.827,20.886 20.840 L 20.980 20.540 20.980 13.980 L 20.980 7.420 20.868 7.060 C 20.732 6.627,20.505 6.192,20.241 5.863 C 19.921 5.464,16.162 1.748,15.920 1.592 C 15.585 1.376,15.319 1.252,14.932 1.131 L 14.580 1.020 10.140 1.014 C 7.698 1.011,5.609 1.024,5.499 1.042 M16.800 5.220 L 18.580 7.000 16.790 7.000 L 15.000 7.000 15.000 5.220 C 15.000 4.241,15.005 3.440,15.010 3.440 C 15.016 3.440,15.821 4.241,16.800 5.220 M4.640 10.069 C 4.488 10.121,4.205 10.384,2.825 11.755 C 1.040 13.530,1.001 13.578,1.001 14.000 C 1.001 14.420,1.043 14.472,2.806 16.226 C 3.694 17.109,4.481 17.862,4.555 17.899 C 5.010 18.128,5.601 17.944,5.867 17.492 C 5.964 17.327,5.980 17.258,5.979 17.000 C 5.979 16.787,5.957 16.660,5.904 16.560 C 5.864 16.483,5.514 16.101,5.127 15.710 L 4.423 15.000 8.301 14.998 C 11.437 14.997,12.209 14.986,12.330 14.943 C 12.551 14.864,12.744 14.702,12.869 14.489 C 12.964 14.328,12.980 14.256,12.980 14.000 C 12.980 13.746,12.963 13.672,12.872 13.516 C 12.813 13.415,12.698 13.282,12.618 13.221 C 12.320 12.994,12.435 13.000,8.265 13.000 L 4.423 13.000 5.127 12.290 C 5.514 11.900,5.864 11.517,5.904 11.440 C 5.957 11.340,5.979 11.213,5.979 11.000 C 5.980 10.745,5.964 10.672,5.872 10.516 C 5.617 10.083,5.121 9.902,4.640 10.069 " stroke="none" fill-rule="evenodd" fill="#000000"></path></svg>