<svg  xmlns="http://www.w3.org/2000/svg" width="24" height="24" viewBox="0 0 24 24" fill="none" stroke="currentColor" stroke-width="2" stroke-linecap="round" stroke-linejoin="round"><path d="M5.499 1.042 C 4.378 1.234,3.461 2.048,3.114 3.160 L 3.020 3.460 3.020 6.783 L 3.020 10.106 3.141 10.303 C 3.543 10.956,4.457 10.956,4.859 10.303 L 4.980 10.106 5.000 6.923 C 5.022 3.356,5.001 3.594,5.321 3.283 C 5.625 2.989,5.459 3.000,9.447 3.000 L 13.000 3.000 13.000 5.132 C 13.000 7.443,13.004 7.494,13.225 7.930 C 13.361 8.199,13.801 8.639,14.070 8.775 C 14.506 8.996,14.557 9.000,16.868 9.000 L 19.000 9.000 19.000 14.554 C 19.000 19.144,18.990 20.139,18.945 20.290 C 18.872 20.533,18.707 20.740,18.484 20.872 L 18.300 20.980 16.520 21.001 C 15.232 21.015,14.709 21.035,14.627 21.071 C 14.429 21.158,14.239 21.327,14.128 21.516 C 14.037 21.672,14.020 21.746,14.020 22.000 C 14.020 22.257,14.036 22.327,14.133 22.492 C 14.262 22.712,14.502 22.901,14.730 22.963 C 14.834 22.991,15.515 23.000,16.734 22.991 C 18.536 22.977,18.587 22.975,18.860 22.885 C 19.845 22.559,20.581 21.817,20.886 20.840 L 20.980 20.540 20.980 13.980 L 20.980 7.420 20.868 7.060 C 20.732 6.627,20.505 6.192,20.241 5.863 C 19.921 5.464,16.162 1.748,15.920 1.592 C 15.585 1.376,15.319 1.252,14.932 1.131 L 14.580 1.020 10.140 1.014 C 7.698 1.011,5.609 1.024,5.499 1.042 M16.800 5.220 L 18.580 7.000 16.790 7.000 L 15.000 7.000 15.000 5.220 C 15.000 4.241,15.005 3.440,15.010 3.440 C 15.016 3.440,15.821 4.241,16.800 5.220 M6.499 12.040 C 5.373 12.244,4.470 13.041,4.118 14.140 C 4.042 14.378,4.026 14.536,4.010 15.202 L 3.991 15.983 3.685 16.032 C 3.259 16.099,2.918 16.275,2.596 16.597 C 2.310 16.882,2.154 17.147,2.060 17.508 C 1.972 17.844,1.972 21.156,2.060 21.492 C 2.153 21.852,2.310 22.118,2.596 22.404 C 2.882 22.690,3.148 22.847,3.508 22.940 C 3.850 23.029,10.150 23.029,10.492 22.940 C 10.852 22.847,11.118 22.690,11.404 22.404 C 11.694 22.114,11.841 21.863,11.937 21.491 C 12.027 21.144,12.029 17.909,11.940 17.529 C 11.852 17.156,11.699 16.891,11.404 16.597 C 11.082 16.275,10.741 16.099,10.315 16.032 L 10.009 15.983 9.990 15.202 C 9.974 14.536,9.958 14.378,9.882 14.140 C 9.571 13.170,8.801 12.404,7.861 12.129 C 7.500 12.023,6.832 11.980,6.499 12.040 M7.310 14.061 C 7.452 14.103,7.571 14.178,7.697 14.303 C 7.948 14.554,8.000 14.751,8.000 15.447 L 8.000 16.000 7.000 16.000 L 6.000 16.000 6.000 15.447 C 6.000 14.750,6.052 14.554,6.304 14.303 C 6.583 14.024,6.916 13.944,7.310 14.061 M10.000 19.500 L 10.000 21.000 7.000 21.000 L 4.000 21.000 4.000 19.500 L 4.000 18.000 7.000 18.000 L 10.000 18.000 10.000 19.500 " stroke="none" fill-rule="evenodd" fill="#000000"></path></svg>