<svg  xmlns="http://www.w3.org/2000/svg" width="24" height="24" viewBox="0 0 24 24" fill="none" stroke="currentColor" stroke-width="2" stroke-linecap="round" stroke-linejoin="round"><path d="M6.174 5.039 C 5.797 5.119,5.380 5.437,5.191 5.789 C 5.135 5.894,4.175 8.175,3.058 10.859 C 1.670 14.192,1.021 15.797,1.009 15.924 C 0.956 16.477,1.438 17.000,2.000 17.000 C 2.241 17.000,2.521 16.881,2.697 16.704 C 2.837 16.563,2.933 16.365,3.384 15.280 L 3.908 14.020 6.500 14.020 L 9.092 14.020 9.616 15.280 C 10.067 16.365,10.163 16.563,10.303 16.704 C 10.479 16.881,10.759 17.000,11.000 17.000 C 11.562 17.000,12.044 16.477,11.991 15.924 C 11.979 15.797,11.330 14.192,9.942 10.859 C 8.825 8.175,7.865 5.894,7.809 5.789 C 7.676 5.541,7.372 5.259,7.108 5.138 C 6.870 5.030,6.436 4.984,6.174 5.039 M17.695 6.057 C 17.466 6.129,17.256 6.299,17.128 6.516 L 17.020 6.700 17.009 10.137 L 16.998 13.574 15.769 12.351 C 14.610 11.199,14.528 11.125,14.323 11.064 C 14.057 10.986,13.946 10.984,13.710 11.055 C 13.467 11.128,13.260 11.293,13.128 11.516 C 13.036 11.672,13.020 11.745,13.021 12.000 C 13.021 12.212,13.043 12.341,13.095 12.440 C 13.135 12.517,14.116 13.531,15.274 14.694 C 17.567 16.996,17.571 16.999,18.000 16.999 C 18.429 16.999,18.433 16.996,20.726 14.694 C 21.884 13.531,22.865 12.517,22.905 12.440 C 22.957 12.341,22.979 12.212,22.979 12.000 C 22.980 11.745,22.964 11.672,22.872 11.516 C 22.740 11.293,22.533 11.128,22.290 11.055 C 22.054 10.984,21.943 10.986,21.677 11.064 C 21.472 11.125,21.390 11.199,20.231 12.351 L 19.002 13.574 18.991 10.137 L 18.980 6.700 18.872 6.516 C 18.628 6.101,18.150 5.915,17.695 6.057 M7.385 9.929 C 7.837 11.013,8.217 11.922,8.228 11.950 C 8.244 11.990,7.883 12.000,6.500 12.000 C 5.117 12.000,4.756 11.990,4.772 11.950 C 4.783 11.922,5.165 11.009,5.620 9.920 C 6.075 8.831,6.457 7.916,6.470 7.886 C 6.502 7.807,6.475 7.748,7.385 9.929 " stroke="none" fill-rule="evenodd" fill="#000000"></path></svg>