<svg  xmlns="http://www.w3.org/2000/svg" width="24" height="24" viewBox="0 0 24 24" fill="none" stroke="currentColor" stroke-width="2" stroke-linecap="round" stroke-linejoin="round"><path d="M3.499 1.042 C 2.388 1.232,1.488 2.024,1.114 3.140 L 1.020 3.420 1.009 7.446 C 0.996 11.831,0.992 11.724,1.223 12.305 C 1.283 12.456,1.404 12.688,1.491 12.820 C 1.673 13.095,10.397 21.857,10.872 22.243 C 11.215 22.521,11.696 22.764,12.142 22.886 C 12.587 23.007,13.407 23.009,13.844 22.889 C 14.216 22.788,14.601 22.616,14.908 22.415 C 15.166 22.246,17.143 20.314,17.321 20.057 C 17.767 19.413,17.290 18.518,16.502 18.521 C 16.086 18.522,16.003 18.582,14.860 19.718 C 14.249 20.325,13.753 20.784,13.658 20.832 C 13.375 20.974,13.037 21.024,12.752 20.965 C 12.616 20.937,12.431 20.877,12.342 20.833 C 12.133 20.729,3.232 11.849,3.107 11.620 L 3.020 11.460 3.009 7.683 C 2.997 3.399,2.982 3.625,3.303 3.303 C 3.625 2.982,3.399 2.997,7.683 3.009 L 11.460 3.020 11.620 3.107 C 11.709 3.156,12.664 4.081,13.780 5.200 C 14.880 6.303,15.853 7.257,15.943 7.320 C 16.379 7.625,17.033 7.497,17.330 7.048 C 17.539 6.732,17.535 6.251,17.321 5.945 C 17.159 5.712,13.098 1.677,12.880 1.531 C 12.623 1.359,12.342 1.223,12.020 1.115 L 11.740 1.020 7.720 1.014 C 5.509 1.011,3.609 1.024,3.499 1.042 M7.174 6.039 C 6.750 6.129,6.329 6.477,6.132 6.900 C 6.035 7.107,6.020 7.190,6.020 7.500 C 6.020 7.811,6.035 7.894,6.133 8.104 C 6.276 8.413,6.585 8.721,6.900 8.868 C 7.107 8.965,7.190 8.980,7.500 8.980 C 7.810 8.980,7.893 8.965,8.100 8.868 C 8.415 8.721,8.724 8.413,8.867 8.104 C 8.965 7.894,8.980 7.811,8.980 7.500 C 8.980 7.189,8.965 7.106,8.867 6.896 C 8.727 6.592,8.415 6.278,8.119 6.143 C 7.870 6.030,7.441 5.982,7.174 6.039 M16.044 9.625 C 15.540 9.876,15.346 10.567,15.651 11.020 C 15.695 11.086,16.147 11.558,16.655 12.070 L 17.579 13.000 16.655 13.930 C 16.147 14.442,15.695 14.914,15.651 14.980 C 15.373 15.392,15.510 16.024,15.940 16.320 C 16.238 16.525,16.740 16.540,17.017 16.352 C 17.085 16.306,17.558 15.853,18.070 15.345 L 19.000 14.421 19.930 15.345 C 20.442 15.853,20.915 16.306,20.981 16.351 C 21.384 16.624,22.047 16.475,22.330 16.048 C 22.525 15.753,22.536 15.254,22.352 14.983 C 22.306 14.915,21.853 14.442,21.345 13.930 L 20.421 13.000 21.345 12.070 C 21.853 11.558,22.306 11.085,22.351 11.019 C 22.468 10.846,22.514 10.545,22.462 10.291 C 22.369 9.831,21.980 9.519,21.502 9.521 C 21.089 9.522,20.997 9.588,19.950 10.631 L 19.000 11.578 18.050 10.631 C 17.371 9.954,17.049 9.661,16.920 9.603 C 16.654 9.483,16.313 9.492,16.044 9.625 " stroke="none" fill-rule="evenodd" fill="#000000"></path></svg>