<svg  xmlns="http://www.w3.org/2000/svg" width="24" height="24" viewBox="0 0 24 24" fill="none" stroke="currentColor" stroke-width="2" stroke-linecap="round" stroke-linejoin="round"><path d="M7.695 1.057 C 7.466 1.129,7.256 1.299,7.128 1.516 C 7.037 1.672,7.020 1.746,7.020 2.000 C 7.020 2.256,7.036 2.328,7.131 2.489 C 7.192 2.592,7.304 2.725,7.381 2.783 C 7.654 2.991,7.700 2.996,9.410 2.998 L 11.000 3.000 11.000 3.998 L 11.000 4.996 8.230 5.009 L 5.460 5.022 5.139 5.122 C 4.181 5.423,3.438 6.163,3.116 7.140 C 3.026 7.413,3.023 7.467,3.009 9.210 L 2.995 11.000 2.444 11.000 C 1.648 11.000,1.366 11.111,1.128 11.516 C 1.037 11.672,1.020 11.746,1.020 12.000 C 1.020 12.256,1.036 12.328,1.131 12.489 C 1.256 12.702,1.449 12.864,1.670 12.943 C 1.768 12.978,2.023 12.997,2.410 12.998 L 3.000 13.000 3.000 16.756 C 3.000 20.323,3.004 20.525,3.075 20.755 C 3.178 21.083,3.315 21.307,3.551 21.528 C 3.981 21.930,4.570 22.087,5.110 21.943 C 5.571 21.820,5.647 21.759,6.980 20.438 C 7.684 19.740,8.323 19.136,8.400 19.095 C 8.534 19.023,8.761 19.019,13.560 19.000 L 18.580 18.980 18.860 18.886 C 19.840 18.557,20.563 17.834,20.884 16.860 C 20.974 16.587,20.977 16.533,20.991 14.790 L 21.005 13.000 21.593 12.998 C 21.978 12.997,22.232 12.978,22.330 12.943 C 22.551 12.864,22.744 12.702,22.869 12.489 C 22.964 12.328,22.980 12.256,22.980 12.000 C 22.980 11.746,22.963 11.672,22.872 11.516 C 22.634 11.111,22.352 11.000,21.556 11.000 L 21.005 11.000 20.991 9.210 C 20.977 7.467,20.974 7.413,20.884 7.140 C 20.562 6.163,19.819 5.423,18.861 5.122 L 18.540 5.022 15.772 5.009 L 13.003 4.996 12.992 3.348 L 12.980 1.700 12.872 1.516 C 12.740 1.293,12.533 1.128,12.290 1.055 C 12.033 0.978,7.943 0.979,7.695 1.057 M18.310 7.061 C 18.589 7.144,18.856 7.411,18.939 7.690 C 18.992 7.867,19.000 8.441,19.000 12.001 C 19.000 16.458,19.007 16.319,18.779 16.618 C 18.718 16.698,18.585 16.813,18.484 16.872 L 18.300 16.980 13.280 17.000 L 8.260 17.020 7.980 17.115 C 7.291 17.347,7.119 17.475,5.970 18.615 L 5.000 19.576 5.000 13.735 C 5.000 7.156,4.978 7.629,5.304 7.303 C 5.623 6.983,5.120 7.006,11.983 7.003 C 17.353 7.000,18.131 7.007,18.310 7.061 M8.695 10.057 C 8.466 10.129,8.256 10.299,8.128 10.516 L 8.020 10.700 8.020 12.003 L 8.020 13.306 8.141 13.503 C 8.543 14.156,9.457 14.156,9.859 13.503 L 9.980 13.306 9.980 12.003 L 9.980 10.700 9.872 10.516 C 9.628 10.101,9.150 9.915,8.695 10.057 M14.695 10.057 C 14.466 10.129,14.256 10.299,14.128 10.516 L 14.020 10.700 14.020 12.003 L 14.020 13.306 14.141 13.503 C 14.543 14.156,15.457 14.156,15.859 13.503 L 15.980 13.306 15.980 12.003 L 15.980 10.700 15.872 10.516 C 15.628 10.101,15.150 9.915,14.695 10.057 " stroke="none" fill-rule="evenodd" fill="#000000"></path></svg>