<svg  xmlns="http://www.w3.org/2000/svg" width="24" height="24" viewBox="0 0 24 24" fill="none" stroke="currentColor" stroke-width="2" stroke-linecap="round" stroke-linejoin="round"><path d="M11.670 1.055 C 11.401 1.155,11.245 1.316,10.879 1.868 C 10.005 3.187,9.406 4.841,9.157 6.620 C 9.130 6.818,9.104 6.985,9.100 6.990 C 9.096 6.996,8.942 6.909,8.757 6.797 C 7.688 6.150,6.277 5.558,5.150 5.283 C 4.241 5.062,3.142 4.948,2.770 5.038 C 2.329 5.143,2.043 5.489,2.010 5.957 C 1.919 7.219,2.946 9.304,4.537 11.091 L 4.885 11.482 4.753 11.528 C 4.444 11.634,3.482 12.148,3.048 12.438 C 2.139 13.046,1.524 13.681,1.196 14.352 C 0.997 14.761,0.960 15.020,1.060 15.321 C 1.176 15.671,1.376 15.833,1.983 16.072 C 3.212 16.555,4.414 16.866,5.585 17.004 L 5.989 17.051 5.817 17.397 C 5.330 18.377,4.949 20.086,5.009 21.020 C 5.031 21.370,5.160 21.621,5.409 21.802 C 5.654 21.979,5.833 22.013,6.380 21.986 C 7.759 21.916,9.194 21.413,10.495 20.544 L 10.995 20.210 11.008 21.258 L 11.020 22.307 11.141 22.503 C 11.543 23.156,12.457 23.156,12.859 22.503 L 12.980 22.307 12.992 21.258 L 13.005 20.210 13.505 20.544 C 14.809 21.415,16.238 21.916,17.620 21.986 C 18.167 22.013,18.346 21.979,18.591 21.802 C 18.840 21.621,18.969 21.370,18.991 21.020 C 19.051 20.084,18.671 18.383,18.183 17.402 L 18.008 17.051 18.434 17.001 C 19.564 16.871,20.803 16.549,22.017 16.072 C 22.612 15.837,22.821 15.671,22.934 15.340 C 23.025 15.072,23.017 14.887,22.899 14.574 C 22.618 13.828,21.975 13.122,20.952 12.438 C 20.518 12.148,19.556 11.634,19.247 11.528 L 19.115 11.482 19.463 11.091 C 19.898 10.602,20.521 9.776,20.862 9.234 C 21.793 7.754,22.231 6.129,21.866 5.507 C 21.633 5.110,21.282 4.973,20.604 5.016 C 19.429 5.090,18.225 5.385,17.040 5.888 C 16.530 6.105,15.657 6.546,15.244 6.796 C 15.059 6.908,14.904 7.000,14.899 7.000 C 14.895 7.000,14.869 6.834,14.842 6.630 C 14.619 4.954,14.006 3.220,13.197 1.980 C 12.811 1.388,12.703 1.257,12.501 1.138 C 12.286 1.012,11.890 0.972,11.670 1.055 M12.136 4.230 C 12.646 5.419,12.917 6.771,12.983 8.460 C 13.000 8.876,13.034 9.244,13.064 9.331 C 13.280 9.950,14.065 10.199,14.571 9.810 C 14.650 9.750,14.873 9.558,15.067 9.385 C 15.913 8.631,17.330 7.856,18.660 7.419 C 19.197 7.243,19.631 7.137,19.667 7.174 C 19.705 7.211,19.322 7.927,19.022 8.380 C 18.307 9.463,17.464 10.394,16.600 11.057 C 16.250 11.325,16.140 11.452,16.059 11.682 C 15.902 12.126,16.086 12.620,16.499 12.861 C 16.630 12.938,16.767 12.974,17.042 13.002 C 17.784 13.079,18.604 13.368,19.433 13.845 C 19.882 14.103,20.409 14.487,20.370 14.526 C 20.315 14.581,19.356 14.827,18.860 14.914 C 17.889 15.083,17.057 15.122,16.294 15.033 C 15.926 14.991,15.868 14.993,15.694 15.060 C 15.428 15.160,15.256 15.299,15.128 15.516 C 15.036 15.672,15.020 15.745,15.021 16.000 C 15.022 16.366,15.054 16.431,15.472 16.913 C 15.980 17.499,16.277 17.988,16.561 18.703 C 16.678 18.996,16.880 19.708,16.880 19.825 C 16.880 19.893,16.806 19.879,16.300 19.713 C 15.207 19.355,14.101 18.629,12.917 17.492 C 12.522 17.112,12.315 17.002,12.000 17.002 C 11.685 17.002,11.478 17.112,11.083 17.492 C 9.899 18.629,8.793 19.355,7.700 19.713 C 7.194 19.879,7.120 19.893,7.120 19.825 C 7.120 19.708,7.322 18.996,7.439 18.703 C 7.726 17.981,8.046 17.458,8.568 16.860 C 8.993 16.373,9.080 16.088,8.934 15.659 C 8.843 15.394,8.580 15.143,8.300 15.055 C 8.111 14.995,8.037 14.993,7.704 15.033 C 6.975 15.123,6.108 15.083,5.140 14.914 C 4.644 14.827,3.685 14.581,3.630 14.526 C 3.591 14.487,4.118 14.103,4.567 13.845 C 5.396 13.368,6.216 13.079,6.958 13.002 C 7.390 12.958,7.616 12.847,7.802 12.591 C 7.954 12.381,8.014 12.153,7.987 11.888 C 7.956 11.584,7.813 11.370,7.468 11.110 C 6.570 10.434,5.701 9.478,4.957 8.347 C 4.639 7.865,4.292 7.214,4.332 7.175 C 4.407 7.099,5.617 7.482,6.400 7.829 C 7.548 8.339,8.357 8.855,9.211 9.624 C 9.381 9.777,9.562 9.900,9.672 9.938 C 10.138 10.097,10.617 9.918,10.866 9.493 C 10.968 9.320,10.976 9.268,11.006 8.605 C 11.079 7.001,11.249 5.963,11.614 4.894 C 11.762 4.461,11.969 3.961,12.000 3.961 C 12.011 3.961,12.072 4.082,12.136 4.230 " stroke="none" fill-rule="evenodd" fill="#000000"></path></svg>