<svg  xmlns="http://www.w3.org/2000/svg" width="24" height="24" viewBox="0 0 24 24" fill="none" stroke="currentColor" stroke-width="2" stroke-linecap="round" stroke-linejoin="round"><path d="M11.680 1.025 C 11.206 1.083,10.848 1.206,10.450 1.447 C 10.313 1.531,9.139 2.338,7.842 3.241 C 6.545 4.143,5.409 4.909,5.317 4.941 C 5.185 4.988,4.899 5.000,3.945 5.002 C 2.940 5.004,2.696 5.016,2.477 5.073 C 1.789 5.253,1.184 5.886,1.040 6.578 C 1.012 6.716,1.002 8.812,1.009 13.180 L 1.020 19.580 1.114 19.860 C 1.446 20.851,2.184 21.582,3.160 21.886 L 3.460 21.980 12.000 21.980 L 20.540 21.980 20.840 21.886 C 21.816 21.582,22.554 20.851,22.886 19.860 L 22.980 19.580 22.991 13.190 C 23.003 6.232,23.012 6.537,22.782 6.083 C 22.646 5.816,22.297 5.449,22.017 5.281 C 21.604 5.032,21.412 5.005,20.055 5.002 C 19.095 5.000,18.816 4.988,18.681 4.941 C 18.589 4.908,17.430 4.128,16.106 3.208 C 14.783 2.288,13.610 1.481,13.500 1.415 C 13.271 1.278,12.941 1.146,12.680 1.086 C 12.466 1.037,11.877 1.001,11.680 1.025 M12.400 3.092 C 12.477 3.129,13.638 3.924,14.980 4.859 C 16.322 5.793,17.528 6.610,17.660 6.675 C 18.246 6.962,18.505 6.999,19.890 7.000 L 21.000 7.000 21.000 13.054 C 21.000 18.067,20.991 19.139,20.945 19.290 C 20.872 19.533,20.707 19.740,20.484 19.872 L 20.300 19.980 17.653 19.991 L 15.007 20.002 14.991 18.711 C 14.976 17.498,14.969 17.403,14.884 17.140 C 14.565 16.165,13.812 15.415,12.861 15.125 C 12.588 15.042,12.458 15.027,12.000 15.027 C 11.542 15.027,11.412 15.042,11.139 15.125 C 10.188 15.415,9.435 16.165,9.116 17.140 C 9.031 17.403,9.024 17.498,9.009 18.711 L 8.993 20.002 6.347 19.991 L 3.700 19.980 3.516 19.872 C 3.415 19.813,3.284 19.700,3.225 19.623 C 2.987 19.311,3.000 19.696,3.000 13.075 L 3.000 7.000 4.116 7.000 C 5.333 7.000,5.661 6.963,6.121 6.777 C 6.459 6.639,6.476 6.628,9.172 4.751 C 10.466 3.851,11.591 3.089,11.672 3.058 C 11.858 2.987,12.216 3.004,12.400 3.092 M11.499 7.040 C 10.363 7.246,9.460 8.049,9.114 9.160 C 8.979 9.594,8.979 10.406,9.114 10.840 C 9.421 11.826,10.174 12.579,11.160 12.886 C 11.594 13.021,12.406 13.021,12.840 12.886 C 13.826 12.579,14.579 11.826,14.886 10.840 C 15.021 10.406,15.021 9.594,14.886 9.160 C 14.581 8.179,13.810 7.407,12.861 7.129 C 12.500 7.023,11.832 6.980,11.499 7.040 M12.310 9.061 C 12.688 9.173,13.000 9.598,13.000 10.001 C 13.000 10.331,12.784 10.696,12.484 10.872 C 12.328 10.963,12.254 10.980,12.000 10.980 C 11.746 10.980,11.672 10.963,11.516 10.872 C 10.935 10.530,10.833 9.774,11.304 9.303 C 11.583 9.024,11.916 8.944,12.310 9.061 M5.695 11.055 C 5.464 11.130,5.255 11.300,5.128 11.516 C 5.037 11.672,5.020 11.746,5.020 12.000 C 5.020 12.257,5.036 12.327,5.133 12.492 C 5.651 13.374,6.998 13.018,6.998 12.000 C 6.998 11.623,6.792 11.281,6.463 11.112 C 6.265 11.010,5.911 10.984,5.695 11.055 M17.695 11.055 C 17.464 11.130,17.255 11.300,17.128 11.516 C 17.037 11.672,17.020 11.746,17.020 12.000 C 17.020 12.257,17.036 12.327,17.133 12.492 C 17.651 13.374,18.998 13.018,18.998 12.000 C 18.998 11.623,18.792 11.281,18.463 11.112 C 18.265 11.010,17.911 10.984,17.695 11.055 M5.695 15.055 C 5.464 15.130,5.255 15.300,5.128 15.516 C 5.037 15.672,5.020 15.746,5.020 16.000 C 5.020 16.257,5.036 16.327,5.133 16.492 C 5.651 17.374,6.998 17.018,6.998 16.000 C 6.998 15.623,6.792 15.281,6.463 15.112 C 6.265 15.010,5.911 14.984,5.695 15.055 M17.695 15.055 C 17.464 15.130,17.255 15.300,17.128 15.516 C 17.037 15.672,17.020 15.746,17.020 16.000 C 17.020 16.257,17.036 16.327,17.133 16.492 C 17.651 17.374,18.998 17.018,18.998 16.000 C 18.998 15.623,18.792 15.281,18.463 15.112 C 18.265 15.010,17.911 14.984,17.695 15.055 M12.310 17.061 C 12.452 17.103,12.571 17.178,12.697 17.303 C 12.978 17.584,13.000 17.703,13.000 18.947 L 13.000 20.000 12.000 20.000 L 11.000 20.000 11.000 18.947 C 11.000 17.702,11.022 17.585,11.304 17.303 C 11.583 17.024,11.916 16.944,12.310 17.061 " stroke="none" fill-rule="evenodd" fill="#000000"></path></svg>