<svg  xmlns="http://www.w3.org/2000/svg" width="24" height="24" viewBox="0 0 24 24" fill="none" stroke="currentColor" stroke-width="2" stroke-linecap="round" stroke-linejoin="round"><path d="M11.300 1.027 C 9.251 1.197,7.497 1.791,5.900 2.855 C 4.755 3.618,3.616 4.756,2.854 5.900 C 0.932 8.783,0.479 12.421,1.638 15.668 C 2.179 17.185,2.962 18.449,4.083 19.615 C 5.729 21.328,7.672 22.364,10.140 22.844 C 11.150 23.041,13.142 23.039,13.660 22.841 C 13.820 22.780,14.067 22.538,14.171 22.340 C 14.286 22.119,14.286 21.721,14.170 21.497 C 14.059 21.282,13.817 21.068,13.584 20.979 C 13.413 20.914,13.350 20.912,12.908 20.954 C 9.173 21.313,5.676 19.392,3.978 16.051 C 2.391 12.927,2.783 9.129,4.977 6.384 C 7.627 3.069,12.280 2.058,16.051 3.978 C 17.188 4.557,18.118 5.297,18.919 6.260 C 20.422 8.067,21.155 10.392,20.960 12.738 C 20.899 13.474,20.926 13.625,21.170 13.902 C 21.394 14.157,21.600 14.254,21.920 14.256 C 22.224 14.258,22.377 14.191,22.632 13.946 C 22.752 13.830,22.820 13.720,22.860 13.580 C 22.959 13.229,23.012 12.424,22.987 11.660 C 22.890 8.765,21.710 6.101,19.643 4.109 C 18.010 2.536,16.037 1.538,13.820 1.163 C 13.047 1.033,11.947 0.973,11.300 1.027 M11.695 5.057 C 11.466 5.129,11.256 5.299,11.128 5.516 L 11.020 5.700 11.009 8.917 C 10.999 11.823,11.005 12.153,11.064 12.333 C 11.190 12.712,11.280 12.769,13.427 13.837 C 15.328 14.782,15.399 14.813,15.626 14.812 C 15.755 14.811,15.937 14.779,16.030 14.741 C 16.241 14.654,16.529 14.341,16.592 14.129 C 16.705 13.754,16.590 13.340,16.303 13.088 C 16.221 13.016,15.444 12.602,14.578 12.169 L 13.002 11.381 12.991 8.541 L 12.980 5.700 12.872 5.516 C 12.628 5.101,12.150 4.915,11.695 5.057 M18.695 15.057 C 18.466 15.129,18.256 15.299,18.128 15.516 L 18.020 15.700 18.008 16.850 L 17.995 18.000 16.944 18.000 C 15.797 18.000,15.643 18.022,15.382 18.221 C 15.302 18.282,15.187 18.415,15.128 18.516 C 15.037 18.672,15.020 18.746,15.020 19.000 C 15.020 19.256,15.036 19.328,15.131 19.489 C 15.192 19.592,15.304 19.725,15.381 19.783 C 15.642 19.983,15.738 19.996,16.908 19.998 L 17.995 20.000 18.008 21.153 L 18.020 22.307 18.141 22.503 C 18.543 23.156,19.457 23.156,19.859 22.503 L 19.980 22.307 19.992 21.153 L 20.005 20.000 21.092 19.998 C 22.262 19.996,22.358 19.983,22.619 19.783 C 22.696 19.725,22.808 19.592,22.869 19.489 C 22.964 19.328,22.980 19.256,22.980 19.000 C 22.980 18.746,22.963 18.672,22.872 18.516 C 22.813 18.415,22.698 18.282,22.618 18.221 C 22.357 18.022,22.203 18.000,21.056 18.000 L 20.005 18.000 19.992 16.850 L 19.980 15.700 19.872 15.516 C 19.628 15.101,19.150 14.915,18.695 15.057 " stroke="none" fill-rule="evenodd" fill="#000000"></path></svg>