<svg  xmlns="http://www.w3.org/2000/svg" width="24" height="24" viewBox="0 0 24 24" fill="none" stroke="currentColor" stroke-width="2" stroke-linecap="round" stroke-linejoin="round"><path d="M13.695 1.057 C 13.466 1.129,13.256 1.299,13.128 1.516 L 13.020 1.700 13.020 3.003 L 13.020 4.306 13.141 4.503 C 13.543 5.156,14.457 5.156,14.859 4.503 L 14.980 4.306 14.980 3.003 L 14.980 1.700 14.872 1.516 C 14.628 1.101,14.150 0.915,13.695 1.057 M1.695 2.056 C 1.465 2.129,1.256 2.299,1.128 2.516 C 1.037 2.672,1.020 2.746,1.020 3.000 C 1.020 3.256,1.036 3.328,1.131 3.489 C 1.192 3.592,1.304 3.725,1.381 3.783 C 1.643 3.983,1.738 3.996,2.910 3.998 L 4.000 4.000 4.000 6.000 L 4.000 8.000 2.946 8.000 C 1.797 8.000,1.644 8.022,1.382 8.221 C 1.302 8.282,1.187 8.415,1.128 8.516 C 1.037 8.672,1.020 8.746,1.020 9.000 C 1.020 9.256,1.036 9.328,1.131 9.489 C 1.192 9.592,1.304 9.725,1.381 9.783 C 1.643 9.983,1.738 9.996,2.910 9.998 L 4.000 10.000 4.000 12.000 L 4.000 14.000 2.946 14.000 C 1.797 14.000,1.644 14.022,1.382 14.221 C 1.302 14.282,1.187 14.415,1.128 14.516 C 1.037 14.672,1.020 14.746,1.020 15.000 C 1.020 15.256,1.036 15.328,1.131 15.489 C 1.192 15.592,1.304 15.725,1.381 15.783 C 1.643 15.983,1.738 15.996,2.910 15.998 L 4.000 16.000 4.000 18.000 L 4.000 20.000 2.946 20.000 C 1.797 20.000,1.644 20.022,1.382 20.221 C 1.302 20.282,1.187 20.415,1.128 20.516 C 1.037 20.672,1.020 20.746,1.020 21.000 C 1.020 21.257,1.036 21.327,1.133 21.492 C 1.261 21.711,1.502 21.901,1.726 21.962 C 1.828 21.989,3.010 21.999,5.230 21.991 L 8.580 21.979 8.860 21.886 C 9.850 21.555,10.582 20.816,10.886 19.840 L 10.980 19.540 10.980 12.000 L 10.980 4.460 10.886 4.160 C 10.581 3.182,9.831 2.427,8.861 2.122 L 8.540 2.021 5.200 2.012 C 2.535 2.006,1.827 2.014,1.695 2.056 M19.499 2.043 C 18.383 2.230,17.461 3.048,17.114 4.160 L 17.020 4.460 17.020 12.000 L 17.020 19.540 17.114 19.840 C 17.419 20.817,18.158 21.563,19.140 21.884 C 19.404 21.970,19.495 21.976,20.764 21.991 C 21.647 22.001,22.163 21.992,22.268 21.963 C 22.498 21.901,22.737 21.713,22.867 21.492 C 22.964 21.327,22.980 21.257,22.980 21.000 C 22.980 20.746,22.963 20.672,22.872 20.516 C 22.761 20.327,22.569 20.156,22.373 20.071 C 22.296 20.038,21.854 20.016,20.980 20.001 L 19.700 19.980 19.516 19.872 C 19.415 19.813,19.284 19.700,19.225 19.623 C 19.006 19.336,19.000 19.283,19.000 17.575 L 19.000 16.000 20.590 15.998 C 22.300 15.996,22.346 15.991,22.619 15.783 C 22.696 15.725,22.808 15.592,22.869 15.489 C 22.964 15.328,22.980 15.256,22.980 15.000 C 22.980 14.746,22.963 14.672,22.872 14.516 C 22.813 14.415,22.698 14.282,22.618 14.221 C 22.342 14.011,22.242 14.000,20.554 14.000 L 19.000 14.000 19.000 12.000 L 19.000 10.000 20.590 9.998 C 22.300 9.996,22.346 9.991,22.619 9.783 C 22.696 9.725,22.808 9.592,22.869 9.489 C 22.964 9.328,22.980 9.256,22.980 9.000 C 22.980 8.746,22.963 8.672,22.872 8.516 C 22.813 8.415,22.698 8.282,22.618 8.221 C 22.342 8.011,22.242 8.000,20.554 8.000 L 19.000 8.000 19.000 6.447 C 19.000 4.650,19.007 4.599,19.303 4.303 C 19.587 4.019,19.694 4.000,21.037 3.998 C 22.266 3.996,22.356 3.984,22.619 3.783 C 22.696 3.725,22.808 3.592,22.869 3.489 C 22.964 3.328,22.980 3.256,22.980 3.000 C 22.980 2.746,22.963 2.672,22.872 2.516 C 22.813 2.415,22.698 2.282,22.618 2.221 C 22.350 2.016,22.216 2.000,20.904 2.005 C 20.242 2.007,19.609 2.025,19.499 2.043 M8.310 4.061 C 8.452 4.103,8.571 4.178,8.697 4.303 C 8.993 4.599,9.000 4.650,9.000 6.447 L 9.000 8.000 7.500 8.000 L 6.000 8.000 6.000 6.000 L 6.000 4.000 7.053 4.000 C 7.879 4.000,8.150 4.013,8.310 4.061 M13.695 7.057 C 13.466 7.129,13.256 7.299,13.128 7.516 L 13.020 7.700 13.020 9.003 L 13.020 10.306 13.141 10.503 C 13.543 11.156,14.457 11.156,14.859 10.503 L 14.980 10.306 14.980 9.003 L 14.980 7.700 14.872 7.516 C 14.628 7.101,14.150 6.915,13.695 7.057 M9.000 12.000 L 9.000 14.000 7.500 14.000 L 6.000 14.000 6.000 12.000 L 6.000 10.000 7.500 10.000 L 9.000 10.000 9.000 12.000 M13.695 13.057 C 13.466 13.129,13.256 13.299,13.128 13.516 L 13.020 13.700 13.020 15.003 L 13.020 16.306 13.141 16.503 C 13.543 17.156,14.457 17.156,14.859 16.503 L 14.980 16.306 14.980 15.003 L 14.980 13.700 14.872 13.516 C 14.628 13.101,14.150 12.915,13.695 13.057 M9.000 17.554 C 9.000 19.242,8.989 19.342,8.779 19.618 C 8.718 19.698,8.585 19.813,8.484 19.872 L 8.300 19.980 7.150 19.992 L 6.000 20.005 6.000 18.002 L 6.000 16.000 7.500 16.000 L 9.000 16.000 9.000 17.554 M13.695 19.057 C 13.466 19.129,13.256 19.299,13.128 19.516 L 13.020 19.700 13.020 21.003 L 13.020 22.306 13.141 22.503 C 13.543 23.156,14.457 23.156,14.859 22.503 L 14.980 22.306 14.980 21.003 L 14.980 19.700 14.872 19.516 C 14.628 19.101,14.150 18.915,13.695 19.057 " stroke="none" fill-rule="evenodd" fill="#000000"></path></svg>