<svg  xmlns="http://www.w3.org/2000/svg" width="24" height="24" viewBox="0 0 24 24" fill="none" stroke="currentColor" stroke-width="2" stroke-linecap="round" stroke-linejoin="round"><path d="M3.499 2.043 C 2.391 2.230,1.488 3.024,1.114 4.140 L 1.020 4.420 1.009 12.958 C 1.000 20.694,1.005 21.516,1.063 21.718 C 1.326 22.631,2.237 23.176,3.110 22.943 C 3.571 22.820,3.647 22.759,4.980 21.438 C 5.684 20.740,6.323 20.136,6.400 20.095 C 6.535 20.023,6.810 20.019,13.560 20.000 L 20.580 19.980 20.860 19.886 C 21.851 19.554,22.582 18.816,22.886 17.840 L 22.980 17.540 22.980 11.000 L 22.980 4.460 22.886 4.160 C 22.581 3.182,21.832 2.428,20.861 2.121 L 20.540 2.020 12.120 2.014 C 7.489 2.011,3.609 2.024,3.499 2.043 M20.310 4.061 C 20.589 4.144,20.856 4.411,20.939 4.690 C 20.992 4.869,21.000 5.651,21.000 11.001 C 21.000 16.059,20.991 17.139,20.945 17.290 C 20.872 17.533,20.707 17.740,20.484 17.872 L 20.300 17.980 13.280 18.000 L 6.260 18.020 5.980 18.115 C 5.291 18.347,5.119 18.475,3.970 19.615 L 3.000 20.576 3.000 12.735 C 3.000 5.832,3.007 4.870,3.061 4.690 C 3.140 4.421,3.412 4.143,3.673 4.063 C 3.833 4.014,5.030 4.005,11.983 4.003 C 19.144 4.000,20.130 4.007,20.310 4.061 M9.640 7.069 C 9.488 7.121,9.205 7.384,7.825 8.755 C 6.040 10.530,6.001 10.578,6.001 11.000 C 6.001 11.420,6.043 11.472,7.806 13.226 C 8.694 14.109,9.481 14.862,9.555 14.899 C 10.010 15.128,10.601 14.944,10.867 14.492 C 10.964 14.327,10.980 14.258,10.979 14.000 C 10.979 13.787,10.957 13.660,10.904 13.560 C 10.864 13.483,10.514 13.101,10.127 12.710 L 9.423 12.000 12.264 12.000 C 15.463 12.000,15.380 11.993,15.679 12.283 C 15.950 12.547,15.973 12.636,15.998 13.523 L 16.020 14.306 16.141 14.503 C 16.543 15.156,17.457 15.156,17.859 14.503 L 17.980 14.306 17.980 13.383 C 17.980 12.527,17.973 12.438,17.886 12.160 C 17.581 11.182,16.830 10.426,15.861 10.122 L 15.540 10.021 12.483 10.009 L 9.426 9.997 10.128 9.288 C 10.515 8.899,10.864 8.517,10.904 8.440 C 10.957 8.340,10.979 8.213,10.979 8.000 C 10.980 7.745,10.964 7.672,10.872 7.516 C 10.617 7.083,10.121 6.902,9.640 7.069 " stroke="none" fill-rule="evenodd" fill="#000000"></path></svg>