<svg  xmlns="http://www.w3.org/2000/svg" width="24" height="24" viewBox="0 0 24 24" fill="none" stroke="currentColor" stroke-width="2" stroke-linecap="round" stroke-linejoin="round"><path d="M1.670 1.061 C 1.448 1.142,1.250 1.309,1.128 1.516 C 1.036 1.672,1.020 1.745,1.021 2.000 C 1.021 2.213,1.043 2.341,1.095 2.440 C 1.136 2.517,1.701 3.114,2.351 3.767 C 3.455 4.877,3.529 4.960,3.477 5.033 C 3.445 5.076,3.282 5.298,3.114 5.526 C 1.758 7.363,1.000 9.682,1.000 12.000 C 1.000 13.688,1.383 15.318,2.141 16.860 C 2.649 17.895,3.264 18.777,3.998 19.526 C 4.381 19.916,4.441 19.962,4.651 20.021 C 5.016 20.124,5.362 20.032,5.637 19.757 C 5.814 19.580,5.886 19.422,5.910 19.154 C 5.942 18.803,5.853 18.621,5.410 18.124 C 4.711 17.341,4.277 16.700,3.878 15.860 C 3.275 14.592,3.023 13.455,3.023 12.000 C 3.023 10.865,3.162 10.013,3.508 9.020 C 3.785 8.227,4.383 7.118,4.830 6.566 L 4.972 6.392 5.681 7.101 L 6.390 7.809 6.178 8.127 C 6.061 8.302,5.876 8.619,5.767 8.832 C 4.662 10.999,4.767 13.580,6.044 15.666 C 6.400 16.248,6.992 16.945,7.267 17.106 C 7.635 17.322,8.124 17.259,8.430 16.956 C 8.660 16.728,8.737 16.551,8.738 16.240 C 8.740 15.923,8.665 15.756,8.381 15.445 C 7.363 14.331,6.887 12.946,7.034 11.531 C 7.113 10.773,7.251 10.317,7.611 9.628 L 7.815 9.236 8.548 9.969 L 9.281 10.702 9.183 10.952 C 9.037 11.325,8.986 11.616,8.990 12.060 C 9.005 13.688,10.316 14.999,11.940 15.011 C 12.385 15.014,12.676 14.963,13.048 14.817 L 13.298 14.719 17.359 18.775 C 19.593 21.007,21.483 22.865,21.560 22.905 C 21.659 22.957,21.788 22.979,22.000 22.979 C 22.258 22.980,22.327 22.964,22.492 22.867 C 22.968 22.587,23.139 21.967,22.865 21.508 C 22.810 21.416,18.215 16.793,12.653 11.235 C 3.300 1.889,2.525 1.125,2.343 1.065 C 2.107 0.987,1.874 0.986,1.670 1.061 M18.893 3.963 C 18.677 4.004,18.519 4.088,18.363 4.243 C 18.182 4.424,18.112 4.583,18.090 4.863 C 18.063 5.199,18.180 5.440,18.586 5.881 C 19.188 6.535,19.578 7.082,19.954 7.800 C 21.143 10.074,21.323 12.674,20.456 15.068 C 20.248 15.643,20.288 16.026,20.588 16.335 C 20.790 16.543,20.936 16.609,21.241 16.631 C 21.573 16.655,21.861 16.542,22.058 16.311 C 22.263 16.072,22.637 14.943,22.817 14.020 C 22.987 13.149,23.050 11.838,22.960 11.020 C 22.702 8.668,21.879 6.679,20.466 4.988 C 19.694 4.065,19.394 3.869,18.893 3.963 M15.962 6.804 C 15.674 6.892,15.388 7.176,15.286 7.476 C 15.169 7.822,15.271 8.170,15.595 8.527 C 15.955 8.924,16.177 9.234,16.393 9.642 C 16.793 10.397,16.948 11.007,16.995 12.012 C 17.022 12.587,17.036 12.684,17.114 12.811 C 17.225 12.990,17.453 13.193,17.626 13.265 C 17.844 13.356,18.194 13.335,18.432 13.216 C 18.858 13.004,19.000 12.694,18.999 11.983 C 18.996 10.277,18.341 8.586,17.187 7.303 C 17.037 7.137,16.838 6.955,16.744 6.900 C 16.547 6.785,16.176 6.739,15.962 6.804 M11.303 12.730 L 11.420 12.860 11.290 12.743 C 11.169 12.633,11.142 12.600,11.173 12.600 C 11.179 12.600,11.238 12.659,11.303 12.730 " stroke="none" fill-rule="evenodd" fill="#000000"></path></svg>