<svg  xmlns="http://www.w3.org/2000/svg" width="24" height="24" viewBox="0 0 24 24" fill="none" stroke="currentColor" stroke-width="2" stroke-linecap="round" stroke-linejoin="round"><path d="M11.300 1.024 C 9.395 1.169,7.759 1.696,6.180 2.673 C 5.475 3.109,4.913 3.562,4.237 4.238 C 3.307 5.167,2.770 5.901,2.200 7.022 C 1.138 9.112,0.772 11.447,1.146 13.760 C 1.525 16.101,2.646 18.241,4.360 19.894 C 6.113 21.583,8.231 22.594,10.720 22.928 C 11.350 23.012,12.872 22.991,13.524 22.888 C 14.494 22.736,15.133 22.565,16.059 22.208 C 16.437 22.063,16.574 21.988,16.703 21.859 C 16.881 21.681,17.000 21.400,17.000 21.160 C 17.000 20.629,16.527 20.160,15.992 20.160 C 15.905 20.160,15.617 20.245,15.324 20.357 C 14.232 20.774,13.374 20.954,12.300 20.988 C 9.773 21.069,7.367 20.108,5.612 18.316 C 4.846 17.535,4.380 16.881,3.918 15.940 C 3.467 15.022,3.186 14.051,3.060 12.978 C 2.760 10.410,3.642 7.761,5.441 5.830 C 6.518 4.673,8.170 3.688,9.680 3.301 C 11.239 2.902,12.775 2.902,14.320 3.300 C 15.845 3.694,17.528 4.705,18.591 5.866 C 19.245 6.580,19.650 7.186,20.144 8.189 C 20.442 8.795,20.503 8.892,20.651 8.993 C 20.889 9.155,21.095 9.214,21.341 9.188 C 22.025 9.118,22.410 8.458,22.159 7.788 C 22.017 7.408,21.526 6.479,21.226 6.023 C 20.622 5.105,19.867 4.250,19.060 3.571 C 17.699 2.425,15.896 1.557,14.177 1.219 C 13.396 1.066,11.997 0.971,11.300 1.024 M11.695 5.057 C 11.466 5.129,11.256 5.299,11.128 5.516 L 11.020 5.700 11.009 8.917 C 10.997 12.549,10.985 12.389,11.297 12.696 C 11.542 12.937,15.612 14.961,15.908 14.990 C 16.347 15.032,16.795 14.749,16.934 14.340 C 17.017 14.095,17.018 13.906,16.935 13.664 C 16.810 13.298,16.726 13.243,14.791 12.275 L 13.002 11.381 12.991 8.540 L 12.980 5.700 12.872 5.516 C 12.628 5.101,12.150 4.915,11.695 5.057 M19.695 11.057 C 19.466 11.129,19.256 11.299,19.128 11.516 L 19.020 11.700 19.020 14.503 L 19.020 17.306 19.141 17.503 C 19.543 18.156,20.457 18.156,20.859 17.503 L 20.980 17.306 20.980 14.503 L 20.980 11.700 20.872 11.516 C 20.628 11.101,20.150 10.915,19.695 11.057 M19.695 20.055 C 19.464 20.130,19.255 20.300,19.128 20.516 C 19.037 20.672,19.020 20.746,19.020 21.000 C 19.020 21.257,19.036 21.327,19.133 21.492 C 19.651 22.374,20.998 22.018,20.998 21.000 C 20.998 20.623,20.792 20.281,20.463 20.112 C 20.265 20.010,19.911 19.984,19.695 20.055 " stroke="none" fill-rule="evenodd" fill="#000000"></path></svg>