<svg  xmlns="http://www.w3.org/2000/svg" width="24" height="24" viewBox="0 0 24 24" fill="none" stroke="currentColor" stroke-width="2" stroke-linecap="round" stroke-linejoin="round"><path d="M4.499 2.043 C 3.380 2.232,2.461 3.048,2.114 4.160 L 2.020 4.460 2.020 12.000 L 2.020 19.540 2.114 19.840 C 2.422 20.827,3.173 21.578,4.160 21.886 L 4.460 21.980 12.000 21.980 L 19.540 21.980 19.840 21.886 C 20.827 21.578,21.578 20.827,21.886 19.840 L 21.980 19.540 21.980 12.000 L 21.980 4.460 21.886 4.160 C 21.581 3.182,20.832 2.428,19.861 2.121 L 19.540 2.020 12.120 2.014 C 8.039 2.011,4.609 2.024,4.499 2.043 M19.310 4.061 C 19.589 4.144,19.856 4.411,19.939 4.690 C 19.993 4.870,20.000 5.755,20.000 12.001 C 20.000 17.907,19.991 19.138,19.945 19.290 C 19.872 19.533,19.707 19.740,19.484 19.872 L 19.300 19.980 12.000 19.980 L 4.700 19.980 4.516 19.872 C 4.415 19.813,4.284 19.700,4.225 19.623 C 3.986 19.309,4.000 19.795,4.000 12.022 C 4.000 5.758,4.007 4.870,4.061 4.690 C 4.140 4.421,4.412 4.143,4.673 4.063 C 4.964 3.974,19.009 3.971,19.310 4.061 M8.670 8.061 C 8.448 8.142,8.250 8.309,8.128 8.516 C 8.036 8.672,8.020 8.745,8.021 9.000 C 8.021 9.212,8.043 9.341,8.095 9.440 C 8.135 9.517,9.161 10.575,10.374 11.790 L 12.579 14.000 10.736 14.000 C 8.735 14.000,8.663 14.007,8.382 14.221 C 8.302 14.282,8.187 14.415,8.128 14.516 C 8.037 14.672,8.020 14.746,8.020 15.000 C 8.020 15.256,8.036 15.328,8.131 15.489 C 8.256 15.702,8.449 15.864,8.670 15.943 C 8.790 15.986,9.451 15.997,12.020 15.998 L 15.220 15.999 15.420 15.906 C 15.657 15.796,15.845 15.595,15.936 15.354 C 15.996 15.196,16.001 14.874,15.991 11.940 L 15.980 8.700 15.871 8.514 C 15.648 8.134,15.208 7.941,14.786 8.035 C 14.515 8.096,14.270 8.275,14.129 8.514 L 14.020 8.700 14.009 10.637 L 13.997 12.575 11.769 10.353 C 9.755 8.346,9.521 8.124,9.343 8.065 C 9.107 7.987,8.874 7.986,8.670 8.061 " stroke="none" fill-rule="evenodd" fill="#000000"></path></svg>