<svg  xmlns="http://www.w3.org/2000/svg" width="24" height="24" viewBox="0 0 24 24" fill="none" stroke="currentColor" stroke-width="2" stroke-linecap="round" stroke-linejoin="round"><path d="M5.499 1.042 C 4.378 1.234,3.461 2.048,3.114 3.160 L 3.020 3.460 3.020 7.383 L 3.020 11.306 3.141 11.503 C 3.543 12.156,4.457 12.156,4.859 11.503 L 4.980 11.306 5.000 7.523 C 5.022 3.284,4.999 3.596,5.321 3.283 C 5.625 2.989,5.459 3.000,9.447 3.000 L 13.000 3.000 13.000 5.132 C 13.000 7.443,13.004 7.494,13.225 7.930 C 13.361 8.199,13.801 8.639,14.070 8.775 C 14.506 8.996,14.557 9.000,16.868 9.000 L 19.000 9.000 19.000 14.554 C 19.000 19.144,18.990 20.139,18.945 20.290 C 18.872 20.533,18.707 20.740,18.484 20.872 L 18.300 20.980 12.000 20.980 L 5.700 20.980 5.516 20.872 C 5.326 20.760,5.155 20.568,5.072 20.373 C 5.043 20.305,5.015 19.947,5.002 19.480 C 4.981 18.721,4.977 18.695,4.871 18.514 C 4.479 17.848,3.521 17.848,3.129 18.514 L 3.020 18.700 3.020 19.620 C 3.020 20.473,3.027 20.562,3.114 20.840 C 3.422 21.827,4.173 22.578,5.160 22.886 L 5.460 22.980 12.000 22.980 L 18.540 22.980 18.840 22.886 C 19.827 22.578,20.578 21.827,20.886 20.840 L 20.980 20.540 20.980 13.980 L 20.980 7.420 20.868 7.060 C 20.732 6.627,20.505 6.192,20.241 5.863 C 19.921 5.464,16.162 1.748,15.920 1.592 C 15.585 1.376,15.319 1.252,14.932 1.131 L 14.580 1.020 10.140 1.014 C 7.698 1.011,5.609 1.024,5.499 1.042 M16.800 5.220 L 18.580 7.000 16.790 7.000 L 15.000 7.000 15.000 5.220 C 15.000 4.241,15.005 3.440,15.010 3.440 C 15.016 3.440,15.821 4.241,16.800 5.220 M8.695 11.057 C 8.466 11.129,8.256 11.299,8.128 11.516 C 8.036 11.672,8.020 11.745,8.021 12.000 C 8.021 12.213,8.043 12.340,8.096 12.440 C 8.136 12.517,8.486 12.900,8.873 13.290 L 9.577 14.000 5.735 14.000 C 1.565 14.000,1.680 13.994,1.382 14.221 C 1.302 14.282,1.187 14.415,1.128 14.516 C 1.037 14.672,1.020 14.746,1.020 15.000 C 1.020 15.256,1.036 15.328,1.131 15.489 C 1.256 15.702,1.449 15.864,1.670 15.943 C 1.791 15.986,2.563 15.997,5.699 15.998 L 9.577 16.000 8.873 16.710 C 8.486 17.101,8.139 17.481,8.101 17.555 C 7.872 18.008,8.056 18.601,8.508 18.867 C 8.673 18.964,8.742 18.980,9.000 18.979 C 9.212 18.979,9.341 18.957,9.440 18.905 C 9.517 18.865,10.306 18.109,11.194 17.226 C 12.957 15.472,12.999 15.420,12.999 15.000 C 12.999 14.578,12.960 14.530,11.175 12.754 C 9.616 11.203,9.530 11.125,9.323 11.064 C 9.066 10.988,8.919 10.987,8.695 11.057 " stroke="none" fill-rule="evenodd" fill="#000000"></path></svg>