<svg  xmlns="http://www.w3.org/2000/svg" width="24" height="24" viewBox="0 0 24 24" fill="none" stroke="currentColor" stroke-width="2" stroke-linecap="round" stroke-linejoin="round"><path d="M11.038 1.042 C 10.335 1.110,9.776 1.223,9.580 1.338 C 9.110 1.613,8.965 2.282,9.275 2.741 C 9.401 2.927,9.733 3.139,9.953 3.174 C 10.037 3.188,10.253 3.173,10.434 3.141 C 11.350 2.980,12.429 2.967,13.310 3.107 C 13.546 3.144,13.831 3.174,13.942 3.173 C 14.454 3.166,14.891 2.708,14.891 2.176 C 14.891 1.782,14.646 1.419,14.273 1.263 C 13.843 1.083,11.951 0.954,11.038 1.042 M5.978 2.820 C 5.330 3.147,3.883 4.487,3.233 5.360 C 2.819 5.916,2.760 6.028,2.732 6.299 C 2.663 6.964,3.300 7.521,3.947 7.362 C 4.227 7.294,4.403 7.148,4.713 6.728 C 5.330 5.894,5.883 5.341,6.734 4.708 C 7.203 4.360,7.326 4.208,7.392 3.899 C 7.562 3.104,6.707 2.451,5.978 2.820 M17.353 2.757 C 16.871 2.913,16.553 3.378,16.616 3.834 C 16.661 4.167,16.816 4.373,17.277 4.717 C 18.146 5.364,18.634 5.853,19.307 6.754 C 19.609 7.156,19.672 7.219,19.873 7.312 C 20.710 7.700,21.577 6.862,21.206 6.024 C 20.872 5.269,19.162 3.520,18.130 2.878 C 17.913 2.744,17.563 2.689,17.353 2.757 M1.691 9.240 C 1.452 9.378,1.302 9.575,1.220 9.860 C 0.949 10.807,0.949 13.186,1.220 14.143 C 1.301 14.426,1.470 14.640,1.720 14.776 C 2.285 15.084,2.983 14.767,3.148 14.128 C 3.189 13.971,3.183 13.859,3.111 13.401 C 2.991 12.636,2.991 11.366,3.111 10.600 C 3.210 9.967,3.190 9.800,2.982 9.515 C 2.692 9.118,2.117 8.996,1.691 9.240 M21.364 9.225 C 21.113 9.351,20.902 9.616,20.844 9.880 C 20.814 10.019,20.824 10.182,20.889 10.600 C 21.009 11.366,21.009 12.636,20.889 13.400 C 20.791 14.021,20.809 14.182,21.004 14.466 C 21.490 15.172,22.539 14.979,22.780 14.140 C 22.916 13.665,22.978 12.997,22.978 12.000 C 22.978 11.274,22.959 10.896,22.907 10.540 C 22.783 9.688,22.673 9.449,22.309 9.240 C 22.024 9.077,21.673 9.071,21.364 9.225 M20.008 16.657 C 19.733 16.746,19.600 16.862,19.274 17.294 C 18.621 18.161,18.104 18.675,17.254 19.305 C 16.866 19.592,16.794 19.664,16.698 19.860 C 16.414 20.441,16.708 21.078,17.345 21.263 C 17.716 21.371,17.965 21.278,18.615 20.787 C 19.604 20.040,20.868 18.679,21.183 18.020 C 21.542 17.270,20.794 16.403,20.008 16.657 M2.515 16.952 C 2.387 17.019,2.256 17.128,2.188 17.225 C 2.027 17.454,1.046 20.479,1.013 20.848 C 0.961 21.422,1.169 21.977,1.596 22.403 C 1.884 22.690,2.152 22.840,2.560 22.944 C 3.014 23.059,3.245 23.017,5.000 22.502 C 6.725 21.995,6.811 21.958,7.019 21.622 C 7.126 21.449,7.140 21.391,7.140 21.123 C 7.140 20.864,7.124 20.793,7.029 20.631 C 6.847 20.322,6.504 20.120,6.160 20.120 C 6.078 20.120,5.338 20.317,4.516 20.557 C 3.694 20.798,3.019 20.992,3.017 20.987 C 3.014 20.983,3.225 20.323,3.486 19.520 C 3.747 18.717,3.971 17.995,3.984 17.915 C 4.019 17.707,3.908 17.368,3.743 17.174 C 3.445 16.826,2.933 16.734,2.515 16.952 M9.602 20.967 C 9.086 21.281,8.955 21.886,9.293 22.390 C 9.482 22.671,9.732 22.782,10.420 22.889 C 10.887 22.961,11.150 22.976,12.000 22.976 C 12.850 22.976,13.113 22.961,13.580 22.889 C 14.268 22.782,14.518 22.671,14.707 22.390 C 15.045 21.886,14.914 21.281,14.398 20.967 C 14.183 20.835,14.175 20.834,13.820 20.856 C 13.622 20.868,13.253 20.905,13.000 20.938 C 12.747 20.971,12.297 20.997,12.000 20.997 C 11.703 20.997,11.253 20.971,11.000 20.938 C 10.747 20.905,10.378 20.868,10.180 20.856 C 9.825 20.834,9.817 20.835,9.602 20.967 " stroke="none" fill-rule="evenodd" fill="#000000"></path></svg>