<svg  xmlns="http://www.w3.org/2000/svg" width="24" height="24" viewBox="0 0 24 24" fill="none" stroke="currentColor" stroke-width="2" stroke-linecap="round" stroke-linejoin="round"><path d="M2.477 1.073 C 1.806 1.249,1.238 1.823,1.060 2.508 C 0.972 2.844,0.972 6.156,1.060 6.492 C 1.153 6.852,1.310 7.118,1.596 7.404 C 2.001 7.809,2.453 8.000,3.008 8.000 C 3.158 8.000,3.280 8.014,3.280 8.030 C 3.280 8.046,3.237 8.393,3.184 8.800 C 3.031 9.968,2.984 10.731,2.984 12.000 C 2.984 13.281,3.032 14.057,3.183 15.195 C 3.236 15.599,3.280 15.945,3.280 15.965 C 3.280 15.984,3.159 16.001,3.010 16.002 C 2.089 16.010,1.289 16.627,1.060 17.508 C 0.972 17.844,0.972 21.156,1.060 21.492 C 1.153 21.852,1.310 22.118,1.596 22.404 C 1.882 22.690,2.148 22.847,2.508 22.940 C 2.844 23.028,6.156 23.028,6.492 22.940 C 6.852 22.847,7.118 22.690,7.404 22.404 C 7.806 22.002,8.000 21.540,8.000 20.984 C 8.000 20.839,8.014 20.720,8.030 20.720 C 8.046 20.720,8.393 20.763,8.800 20.816 C 9.963 20.968,10.729 21.016,12.000 21.016 C 13.271 21.016,14.037 20.968,15.200 20.816 C 15.607 20.763,15.954 20.720,15.970 20.720 C 15.987 20.720,16.000 20.842,16.000 20.992 C 16.000 21.547,16.191 21.999,16.596 22.404 C 16.882 22.690,17.148 22.847,17.508 22.940 C 17.844 23.028,21.156 23.028,21.492 22.940 C 21.852 22.847,22.118 22.690,22.404 22.404 C 22.694 22.114,22.841 21.863,22.937 21.491 C 23.027 21.144,23.029 17.909,22.940 17.529 C 22.858 17.182,22.720 16.927,22.465 16.653 C 22.072 16.231,21.566 16.007,20.990 16.002 C 20.841 16.001,20.720 15.987,20.720 15.970 C 20.720 15.954,20.763 15.607,20.816 15.200 C 20.968 14.037,21.016 13.271,21.016 12.000 C 21.016 10.729,20.968 9.963,20.816 8.800 C 20.763 8.393,20.720 8.046,20.720 8.030 C 20.720 8.014,20.842 8.000,20.992 8.000 C 21.313 8.000,21.642 7.921,21.930 7.775 C 22.196 7.640,22.638 7.200,22.771 6.937 C 22.990 6.506,23.000 6.396,22.999 4.514 C 22.999 2.642,22.985 2.484,22.781 2.083 C 22.646 1.816,22.297 1.449,22.017 1.281 C 21.578 1.016,21.470 1.005,19.500 1.005 C 17.965 1.005,17.706 1.013,17.477 1.073 C 17.130 1.164,16.802 1.366,16.535 1.653 C 16.176 2.040,16.000 2.485,16.000 3.008 C 16.000 3.213,15.986 3.280,15.945 3.280 C 15.914 3.280,15.617 3.244,15.284 3.199 C 13.164 2.916,10.836 2.916,8.716 3.199 C 8.383 3.244,8.086 3.280,8.055 3.280 C 8.014 3.280,8.000 3.216,7.999 3.030 C 7.999 2.719,7.911 2.339,7.781 2.083 C 7.646 1.816,7.297 1.449,7.017 1.281 C 6.578 1.016,6.470 1.005,4.500 1.005 C 2.965 1.005,2.706 1.013,2.477 1.073 M6.000 4.500 L 6.000 6.000 4.500 6.000 L 3.000 6.000 3.000 4.500 L 3.000 3.000 4.500 3.000 L 6.000 3.000 6.000 4.500 M21.000 4.500 L 21.000 6.000 19.500 6.000 L 18.000 6.000 18.000 4.500 L 18.000 3.000 19.500 3.000 L 21.000 3.000 21.000 4.500 M13.680 5.044 C 14.242 5.083,15.239 5.199,15.750 5.286 L 16.000 5.328 16.000 5.796 C 16.000 6.558,16.147 6.955,16.596 7.404 C 17.045 7.853,17.442 8.000,18.204 8.000 L 18.672 8.000 18.714 8.250 C 18.914 9.429,19.008 10.636,19.008 12.000 C 19.008 13.364,18.914 14.571,18.714 15.750 L 18.672 16.000 18.206 16.002 C 17.424 16.006,16.973 16.182,16.535 16.653 C 16.135 17.084,16.000 17.475,16.000 18.203 L 16.000 18.670 15.770 18.713 C 15.416 18.781,14.362 18.911,13.740 18.965 C 13.018 19.028,10.982 19.028,10.260 18.965 C 9.638 18.911,8.584 18.781,8.230 18.713 L 8.000 18.670 7.999 18.225 C 7.998 17.485,7.860 17.078,7.465 16.653 C 7.027 16.182,6.576 16.006,5.794 16.002 L 5.328 16.000 5.286 15.750 C 5.086 14.571,4.992 13.364,4.992 12.000 C 4.992 10.636,5.086 9.429,5.286 8.250 L 5.328 8.000 5.796 8.000 C 6.558 8.000,6.955 7.853,7.404 7.404 C 7.850 6.958,8.000 6.552,8.000 5.788 L 8.000 5.328 8.250 5.286 C 9.098 5.142,10.440 5.013,11.360 4.986 C 11.908 4.970,13.008 4.997,13.680 5.044 M6.000 19.500 L 6.000 21.000 4.500 21.000 L 3.000 21.000 3.000 19.500 L 3.000 18.000 4.500 18.000 L 6.000 18.000 6.000 19.500 M21.000 19.500 L 21.000 21.000 19.500 21.000 L 18.000 21.000 18.000 19.500 L 18.000 18.000 19.500 18.000 L 21.000 18.000 21.000 19.500 " stroke="none" fill-rule="evenodd" fill="#000000"></path></svg>