<svg  xmlns="http://www.w3.org/2000/svg" width="24" height="24" viewBox="0 0 24 24" fill="none" stroke="currentColor" stroke-width="2" stroke-linecap="round" stroke-linejoin="round"><path d="M3.499 5.042 C 2.377 5.235,1.461 6.048,1.114 7.160 L 1.020 7.460 1.020 12.000 L 1.020 16.540 1.114 16.840 C 1.419 17.817,2.163 18.567,3.140 18.882 C 3.389 18.963,3.524 18.975,4.353 18.991 C 5.408 19.011,5.516 18.991,5.813 18.724 C 6.214 18.362,6.240 17.715,5.868 17.326 C 5.598 17.045,5.515 17.024,4.560 17.001 C 3.715 16.980,3.697 16.978,3.516 16.872 C 3.415 16.813,3.284 16.700,3.225 16.623 C 2.990 16.315,3.000 16.515,3.000 12.022 C 3.000 7.357,2.983 7.623,3.303 7.303 C 3.601 7.006,3.642 7.000,5.517 7.000 C 7.133 6.999,7.141 6.999,7.340 6.906 C 8.101 6.551,8.126 5.505,7.383 5.107 C 7.223 5.022,7.185 5.020,5.460 5.014 C 4.492 5.011,3.609 5.023,3.499 5.042 M14.600 5.035 C 14.288 5.137,14.008 5.396,13.918 5.665 C 13.845 5.881,13.852 6.155,13.935 6.373 C 14.021 6.598,14.326 6.885,14.551 6.952 C 14.647 6.981,14.984 7.000,15.407 7.000 C 16.262 7.000,16.434 7.040,16.697 7.303 C 17.017 7.623,17.000 7.359,17.000 12.001 C 17.000 16.458,17.007 16.319,16.779 16.618 C 16.718 16.698,16.585 16.813,16.484 16.872 L 16.300 16.980 14.540 17.000 C 12.819 17.020,12.776 17.022,12.614 17.109 C 12.041 17.415,11.896 18.169,12.319 18.649 C 12.413 18.757,12.559 18.864,12.682 18.917 C 12.885 19.004,12.903 19.005,14.733 18.991 C 16.536 18.977,16.587 18.975,16.860 18.885 C 17.845 18.559,18.581 17.817,18.886 16.840 L 18.980 16.540 18.980 12.000 L 18.980 7.460 18.886 7.160 C 18.580 6.180,17.821 5.417,16.861 5.125 C 16.568 5.036,16.460 5.027,15.620 5.015 C 15.114 5.008,14.655 5.017,14.600 5.035 M10.671 6.064 C 10.563 6.097,10.415 6.186,10.327 6.271 C 10.168 6.425,7.149 11.412,7.054 11.680 C 6.933 12.018,7.033 12.435,7.299 12.701 C 7.580 12.983,7.681 13.000,9.027 13.000 C 9.672 13.000,10.200 13.011,10.200 13.024 C 10.200 13.037,9.728 13.833,9.152 14.794 C 8.575 15.754,8.081 16.603,8.054 16.680 C 7.901 17.107,8.096 17.626,8.499 17.862 C 8.840 18.061,9.299 18.028,9.624 17.780 C 9.718 17.708,10.216 16.913,11.333 15.049 C 12.200 13.603,12.932 12.350,12.960 12.264 C 13.072 11.916,12.920 11.452,12.618 11.221 C 12.352 11.018,12.212 11.000,10.936 11.000 L 9.764 11.000 10.864 9.166 C 11.867 7.494,11.967 7.312,11.987 7.111 C 12.020 6.798,11.917 6.513,11.695 6.297 C 11.411 6.021,11.066 5.942,10.671 6.064 M21.695 9.057 C 21.466 9.129,21.256 9.299,21.128 9.516 L 21.020 9.700 21.020 12.003 L 21.020 14.306 21.141 14.503 C 21.543 15.156,22.457 15.156,22.859 14.503 L 22.980 14.306 22.980 12.003 L 22.980 9.700 22.872 9.516 C 22.628 9.101,22.150 8.915,21.695 9.057 " stroke="none" fill-rule="evenodd" fill="#000000"></path></svg>