<svg  xmlns="http://www.w3.org/2000/svg" width="24" height="24" viewBox="0 0 24 24" fill="none" stroke="currentColor" stroke-width="2" stroke-linecap="round" stroke-linejoin="round"><path d="M5.499 1.042 C 4.378 1.234,3.461 2.048,3.114 3.160 L 3.020 3.460 3.020 7.883 L 3.020 12.306 3.141 12.503 C 3.543 13.156,4.457 13.156,4.859 12.503 L 4.980 12.306 5.000 8.023 C 5.022 3.224,4.997 3.598,5.321 3.283 C 5.625 2.989,5.459 3.000,9.447 3.000 L 13.000 3.000 13.000 5.132 C 13.000 7.443,13.004 7.494,13.225 7.930 C 13.361 8.199,13.801 8.639,14.070 8.775 C 14.506 8.996,14.557 9.000,16.868 9.000 L 19.000 9.000 19.000 14.554 C 19.000 20.584,19.010 20.315,18.779 20.618 C 18.613 20.835,18.380 20.954,18.034 20.998 C 17.870 21.019,17.686 21.055,17.625 21.078 C 17.439 21.149,17.242 21.323,17.128 21.516 C 17.037 21.672,17.020 21.746,17.020 22.000 C 17.020 22.257,17.036 22.327,17.133 22.492 C 17.263 22.714,17.502 22.901,17.736 22.965 C 17.960 23.026,18.519 22.982,18.863 22.877 C 19.820 22.584,20.581 21.818,20.886 20.840 L 20.980 20.540 20.980 13.980 L 20.980 7.420 20.868 7.060 C 20.732 6.627,20.505 6.192,20.241 5.863 C 19.921 5.464,16.162 1.748,15.920 1.592 C 15.585 1.376,15.319 1.252,14.932 1.131 L 14.580 1.020 10.140 1.014 C 7.698 1.011,5.609 1.024,5.499 1.042 M16.800 5.220 L 18.580 7.000 16.790 7.000 L 15.000 7.000 15.000 5.220 C 15.000 4.241,15.005 3.440,15.010 3.440 C 15.016 3.440,15.821 4.241,16.800 5.220 M3.477 15.073 C 2.806 15.249,2.238 15.823,2.060 16.508 C 2.010 16.698,2.000 17.123,2.000 19.000 C 2.000 21.455,2.003 21.491,2.225 21.930 C 2.361 22.199,2.801 22.639,3.070 22.775 C 3.516 23.001,3.499 23.000,6.500 23.000 C 9.501 23.000,9.484 23.001,9.930 22.775 C 10.183 22.646,10.635 22.205,10.756 21.967 C 10.840 21.803,10.849 21.797,10.932 21.851 C 10.981 21.882,11.398 22.125,11.860 22.392 C 12.944 23.017,13.239 23.098,13.795 22.925 C 14.294 22.769,14.630 22.478,14.853 22.007 L 14.980 21.740 14.991 19.106 C 15.004 16.248,15.000 16.192,14.783 15.821 C 14.426 15.214,13.643 14.882,12.973 15.053 C 12.763 15.107,11.796 15.626,10.972 16.126 L 10.844 16.204 10.763 16.045 C 10.643 15.811,10.281 15.440,10.017 15.281 C 9.555 15.003,9.580 15.005,6.500 15.005 C 4.020 15.005,3.713 15.012,3.477 15.073 M9.000 19.000 L 9.000 21.000 6.500 21.000 L 4.000 21.000 4.000 19.000 L 4.000 17.000 6.500 17.000 L 9.000 17.000 9.000 19.000 M13.000 19.003 C 13.000 19.973,12.985 20.721,12.965 20.713 C 12.946 20.706,12.496 20.449,11.965 20.142 L 11.000 19.583 11.000 19.002 L 11.001 18.420 11.970 17.854 C 12.504 17.543,12.954 17.286,12.970 17.284 C 12.987 17.282,13.000 18.055,13.000 19.003 " stroke="none" fill-rule="evenodd" fill="#000000"></path></svg>