<svg  xmlns="http://www.w3.org/2000/svg" width="24" height="24" viewBox="0 0 24 24" fill="none" stroke="currentColor" stroke-width="2" stroke-linecap="round" stroke-linejoin="round"><path d="M10.477 1.073 C 9.806 1.249,9.238 1.823,9.060 2.508 C 9.013 2.687,9.000 3.009,9.000 3.999 C 9.000 5.676,8.936 6.155,8.610 6.920 C 8.410 7.392,8.226 7.687,7.651 8.466 C 7.089 9.227,6.845 9.619,6.612 10.140 C 6.319 10.796,6.168 11.326,6.060 12.085 C 6.011 12.430,6.001 13.236,6.001 16.882 C 6.000 21.651,5.992 21.470,6.225 21.930 C 6.361 22.199,6.801 22.639,7.070 22.775 C 7.529 23.008,7.360 23.000,12.000 23.000 C 16.640 23.000,16.471 23.008,16.930 22.775 C 17.196 22.640,17.638 22.200,17.771 21.937 C 18.008 21.470,18.000 21.648,17.999 16.874 C 17.999 13.235,17.989 12.430,17.940 12.085 C 17.832 11.326,17.681 10.796,17.388 10.140 C 17.155 9.619,16.911 9.227,16.349 8.466 C 15.774 7.687,15.590 7.392,15.390 6.920 C 15.065 6.158,15.000 5.676,14.999 4.021 C 14.999 2.681,14.974 2.463,14.781 2.083 C 14.551 1.628,14.022 1.203,13.523 1.073 C 13.134 0.972,10.866 0.972,10.477 1.073 M13.001 4.250 C 13.001 5.551,13.037 5.982,13.197 6.658 C 13.428 7.630,13.810 8.400,14.568 9.420 C 15.333 10.450,15.541 10.811,15.761 11.484 C 15.951 12.063,16.128 12.000,14.310 12.002 C 12.551 12.005,12.414 12.021,11.983 12.281 C 11.703 12.449,11.354 12.816,11.219 13.083 C 11.009 13.496,11.000 13.599,11.000 15.500 C 11.000 17.411,11.009 17.503,11.225 17.930 C 11.361 18.199,11.801 18.639,12.070 18.775 C 12.493 18.990,12.601 19.000,14.368 19.000 L 16.000 19.000 16.000 20.000 L 16.000 21.000 12.000 21.000 L 8.000 21.000 8.000 16.869 C 8.000 14.278,8.015 12.612,8.041 12.399 C 8.124 11.721,8.352 11.045,8.693 10.474 C 8.780 10.328,9.075 9.905,9.349 9.534 C 9.911 8.773,10.155 8.381,10.388 7.860 C 10.881 6.758,10.998 6.065,10.999 4.250 L 11.000 3.000 12.000 3.000 L 13.000 3.000 13.001 4.250 M16.000 15.500 L 16.000 17.000 14.500 17.000 L 13.000 17.000 13.000 15.500 L 13.000 14.000 14.500 14.000 L 16.000 14.000 16.000 15.500 " stroke="none" fill-rule="evenodd" fill="#000000"></path></svg>