<svg  xmlns="http://www.w3.org/2000/svg" width="24" height="24" viewBox="0 0 24 24" fill="none" stroke="currentColor" stroke-width="2" stroke-linecap="round" stroke-linejoin="round"><path d="M3.499 2.043 C 2.383 2.230,1.461 3.048,1.114 4.160 C 1.027 4.438,1.020 4.527,1.020 5.383 L 1.020 6.306 1.141 6.503 C 1.543 7.156,2.457 7.156,2.859 6.503 L 2.980 6.306 3.002 5.523 C 3.027 4.648,3.050 4.553,3.301 4.301 C 3.491 4.112,3.645 4.048,4.028 3.999 C 4.392 3.953,4.631 3.827,4.802 3.591 C 5.207 3.032,4.947 2.253,4.290 2.055 C 4.090 1.995,3.811 1.991,3.499 2.043 M7.695 2.057 C 7.466 2.129,7.256 2.299,7.128 2.516 C 7.037 2.672,7.020 2.746,7.020 3.000 C 7.020 3.256,7.036 3.328,7.131 3.489 C 7.256 3.702,7.449 3.864,7.670 3.943 C 7.885 4.020,10.115 4.020,10.330 3.943 C 10.551 3.864,10.744 3.702,10.869 3.489 C 10.964 3.328,10.980 3.256,10.980 3.000 C 10.980 2.746,10.963 2.672,10.872 2.516 C 10.740 2.293,10.533 2.128,10.290 2.055 C 10.039 1.979,7.937 1.981,7.695 2.057 M13.695 2.057 C 13.466 2.129,13.256 2.299,13.128 2.516 C 13.037 2.672,13.020 2.746,13.020 3.000 C 13.020 3.256,13.036 3.328,13.131 3.489 C 13.256 3.702,13.449 3.864,13.670 3.943 C 13.885 4.020,16.115 4.020,16.330 3.943 C 16.551 3.864,16.744 3.702,16.869 3.489 C 16.964 3.328,16.980 3.256,16.980 3.000 C 16.980 2.746,16.963 2.672,16.872 2.516 C 16.740 2.293,16.533 2.128,16.290 2.055 C 16.039 1.979,13.937 1.981,13.695 2.057 M19.695 2.054 C 19.048 2.267,18.799 3.040,19.198 3.591 C 19.369 3.827,19.608 3.953,19.972 3.999 C 20.355 4.048,20.509 4.112,20.699 4.301 C 20.950 4.553,20.973 4.648,20.998 5.523 L 21.020 6.306 21.141 6.503 C 21.543 7.156,22.457 7.156,22.859 6.503 L 22.980 6.306 22.980 5.383 C 22.980 4.527,22.973 4.438,22.886 4.160 C 22.580 3.178,21.808 2.404,20.863 2.130 C 20.463 2.015,19.922 1.979,19.695 2.054 M1.695 9.057 C 1.466 9.129,1.256 9.299,1.128 9.516 L 1.020 9.700 1.020 11.003 L 1.020 12.306 1.141 12.503 C 1.543 13.156,2.457 13.156,2.859 12.503 L 2.980 12.306 2.980 11.003 L 2.980 9.700 2.872 9.516 C 2.628 9.101,2.150 8.915,1.695 9.057 M21.695 9.057 C 21.466 9.129,21.256 9.299,21.128 9.516 L 21.020 9.700 21.020 11.003 L 21.020 12.306 21.141 12.503 C 21.543 13.156,22.457 13.156,22.859 12.503 L 22.980 12.306 22.980 11.003 L 22.980 9.700 22.872 9.516 C 22.628 9.101,22.150 8.915,21.695 9.057 M1.695 15.057 C 1.466 15.129,1.256 15.299,1.128 15.516 L 1.020 15.700 1.009 18.596 C 0.997 21.721,0.995 21.677,1.208 22.096 C 1.322 22.320,1.645 22.648,1.873 22.772 C 2.397 23.057,2.949 23.065,3.510 22.796 C 3.742 22.684,5.075 21.388,5.234 21.120 C 5.323 20.968,5.340 20.893,5.340 20.640 C 5.340 20.383,5.324 20.313,5.227 20.148 C 5.022 19.798,4.655 19.611,4.255 19.652 C 3.962 19.682,3.836 19.761,3.394 20.189 L 3.002 20.570 2.991 18.135 L 2.980 15.700 2.872 15.516 C 2.628 15.101,2.150 14.915,1.695 15.057 M21.695 15.057 C 21.466 15.129,21.256 15.299,21.128 15.516 C 21.023 15.694,21.019 15.724,20.997 16.480 C 20.973 17.294,20.955 17.387,20.774 17.625 C 20.613 17.835,20.377 17.955,20.034 17.998 C 19.870 18.019,19.686 18.055,19.625 18.078 C 19.439 18.149,19.242 18.323,19.128 18.516 C 19.037 18.672,19.020 18.746,19.020 19.000 C 19.020 19.257,19.036 19.327,19.133 19.492 C 19.263 19.714,19.502 19.901,19.736 19.965 C 19.960 20.026,20.519 19.982,20.863 19.877 C 21.820 19.584,22.581 18.818,22.886 17.840 C 22.973 17.562,22.980 17.473,22.980 16.620 L 22.980 15.700 22.872 15.516 C 22.628 15.101,22.150 14.915,21.695 15.057 M7.695 18.057 C 7.466 18.129,7.256 18.299,7.128 18.516 C 7.037 18.672,7.020 18.746,7.020 19.000 C 7.020 19.256,7.036 19.328,7.131 19.489 C 7.256 19.702,7.449 19.864,7.670 19.943 C 7.885 20.020,10.115 20.020,10.330 19.943 C 10.551 19.864,10.744 19.702,10.869 19.489 C 10.964 19.328,10.980 19.256,10.980 19.000 C 10.980 18.746,10.963 18.672,10.872 18.516 C 10.740 18.293,10.533 18.128,10.290 18.055 C 10.039 17.979,7.937 17.981,7.695 18.057 M13.695 18.057 C 13.466 18.129,13.256 18.299,13.128 18.516 C 13.037 18.672,13.020 18.746,13.020 19.000 C 13.020 19.256,13.036 19.328,13.131 19.489 C 13.256 19.702,13.449 19.864,13.670 19.943 C 13.885 20.020,16.115 20.020,16.330 19.943 C 16.551 19.864,16.744 19.702,16.869 19.489 C 16.964 19.328,16.980 19.256,16.980 19.000 C 16.980 18.746,16.963 18.672,16.872 18.516 C 16.740 18.293,16.533 18.128,16.290 18.055 C 16.039 17.979,13.937 17.981,13.695 18.057 " stroke="none" fill-rule="evenodd" fill="#000000"></path></svg>