<svg  xmlns="http://www.w3.org/2000/svg" width="24" height="24" viewBox="0 0 24 24" fill="none" stroke="currentColor" stroke-width="2" stroke-linecap="round" stroke-linejoin="round"><path d="M4.670 1.057 C 4.312 1.185,4.051 1.515,4.013 1.888 C 3.981 2.195,4.049 2.384,4.323 2.764 C 4.628 3.185,4.865 3.669,4.940 4.025 C 5.105 4.801,4.904 5.445,4.199 6.402 C 3.589 7.230,3.328 7.735,3.130 8.473 C 3.039 8.813,3.026 8.937,3.026 9.500 C 3.026 10.063,3.039 10.187,3.130 10.527 C 3.328 11.265,3.589 11.770,4.199 12.598 C 5.266 14.047,5.266 14.953,4.199 16.402 C 3.760 16.998,3.570 17.309,3.378 17.754 C 2.961 18.717,2.896 19.711,3.185 20.716 C 3.399 21.458,4.062 22.562,4.454 22.828 C 5.203 23.336,6.204 22.612,5.960 21.739 C 5.932 21.639,5.802 21.409,5.671 21.228 C 5.371 20.814,5.135 20.329,5.060 19.975 C 4.895 19.199,5.096 18.555,5.801 17.598 C 6.411 16.770,6.672 16.265,6.870 15.527 C 6.961 15.187,6.974 15.063,6.974 14.500 C 6.974 13.937,6.961 13.813,6.870 13.473 C 6.672 12.735,6.411 12.230,5.801 11.402 C 5.384 10.835,5.144 10.374,5.060 9.975 C 4.895 9.199,5.096 8.555,5.801 7.598 C 6.411 6.770,6.672 6.265,6.870 5.527 C 6.961 5.187,6.974 5.063,6.974 4.500 C 6.974 3.936,6.961 3.814,6.869 3.470 C 6.812 3.256,6.689 2.908,6.597 2.699 C 6.405 2.260,5.945 1.543,5.697 1.295 C 5.434 1.032,5.013 0.935,4.670 1.057 M11.670 1.057 C 11.312 1.185,11.051 1.515,11.013 1.888 C 10.981 2.195,11.049 2.384,11.323 2.764 C 11.628 3.185,11.865 3.669,11.940 4.025 C 12.105 4.801,11.904 5.445,11.199 6.402 C 10.589 7.230,10.328 7.735,10.130 8.473 C 10.039 8.813,10.026 8.937,10.026 9.500 C 10.026 10.063,10.039 10.187,10.130 10.527 C 10.328 11.265,10.589 11.770,11.199 12.598 C 12.266 14.047,12.266 14.953,11.199 16.402 C 10.760 16.998,10.570 17.309,10.378 17.754 C 9.961 18.717,9.896 19.711,10.185 20.716 C 10.399 21.458,11.062 22.562,11.454 22.828 C 12.203 23.336,13.204 22.612,12.960 21.739 C 12.932 21.639,12.802 21.409,12.671 21.228 C 12.371 20.814,12.135 20.329,12.060 19.975 C 11.895 19.199,12.096 18.555,12.801 17.598 C 13.411 16.770,13.672 16.265,13.870 15.527 C 13.961 15.187,13.974 15.063,13.974 14.500 C 13.974 13.937,13.961 13.813,13.870 13.473 C 13.672 12.735,13.411 12.230,12.801 11.402 C 11.734 9.953,11.734 9.047,12.801 7.598 C 13.411 6.770,13.672 6.265,13.870 5.527 C 13.961 5.187,13.974 5.063,13.974 4.500 C 13.974 3.936,13.961 3.814,13.869 3.470 C 13.812 3.256,13.689 2.908,13.597 2.699 C 13.405 2.260,12.945 1.543,12.697 1.295 C 12.434 1.032,12.013 0.935,11.670 1.057 M18.670 1.057 C 18.312 1.185,18.051 1.515,18.013 1.888 C 17.981 2.195,18.049 2.384,18.323 2.764 C 18.628 3.185,18.865 3.669,18.940 4.025 C 19.105 4.801,18.904 5.445,18.199 6.402 C 17.589 7.230,17.328 7.735,17.130 8.473 C 17.039 8.813,17.026 8.937,17.026 9.500 C 17.026 10.063,17.039 10.187,17.130 10.527 C 17.328 11.265,17.589 11.770,18.199 12.598 C 19.266 14.047,19.266 14.953,18.199 16.402 C 17.760 16.998,17.570 17.309,17.378 17.754 C 16.961 18.717,16.896 19.711,17.185 20.716 C 17.399 21.458,18.062 22.562,18.454 22.828 C 19.203 23.336,20.204 22.612,19.960 21.739 C 19.932 21.639,19.802 21.409,19.671 21.228 C 19.371 20.814,19.135 20.329,19.060 19.975 C 18.895 19.199,19.096 18.555,19.801 17.598 C 20.411 16.770,20.672 16.265,20.870 15.527 C 20.961 15.187,20.974 15.063,20.974 14.500 C 20.974 13.937,20.961 13.813,20.870 13.473 C 20.672 12.735,20.411 12.230,19.801 11.402 C 18.734 9.953,18.734 9.047,19.801 7.598 C 20.411 6.770,20.672 6.265,20.870 5.527 C 20.961 5.187,20.974 5.063,20.974 4.500 C 20.974 3.936,20.961 3.814,20.869 3.470 C 20.812 3.256,20.689 2.908,20.597 2.699 C 20.405 2.260,19.945 1.543,19.697 1.295 C 19.434 1.032,19.013 0.935,18.670 1.057 " stroke="none" fill-rule="evenodd" fill="#000000"></path></svg>