<svg  xmlns="http://www.w3.org/2000/svg" width="24" height="24" viewBox="0 0 24 24" fill="none" stroke="currentColor" stroke-width="2" stroke-linecap="round" stroke-linejoin="round"><path d="M4.499 1.043 C 3.383 1.230,2.461 2.048,2.114 3.160 L 2.020 3.460 2.020 6.480 L 2.020 9.500 2.114 9.800 C 2.325 10.478,2.842 11.198,3.262 11.401 C 3.651 11.589,4.116 11.489,4.427 11.150 C 4.608 10.953,4.679 10.763,4.680 10.475 C 4.680 10.220,4.597 10.043,4.323 9.717 C 4.169 9.534,4.074 9.378,4.045 9.262 C 4.014 9.141,4.000 8.264,4.000 6.490 C 4.000 3.533,3.992 3.614,4.303 3.303 C 4.558 3.048,4.747 3.000,5.487 3.000 C 5.813 3.000,6.080 3.014,6.080 3.030 C 6.080 3.046,6.269 5.310,6.500 8.060 C 6.731 10.810,6.920 13.091,6.920 13.128 C 6.920 13.170,6.852 13.226,6.741 13.275 C 6.041 13.585,5.415 14.279,5.166 15.021 C 5.049 15.371,4.000 20.758,4.000 21.010 C 4.000 21.917,4.698 22.769,5.592 22.956 C 5.891 23.018,18.109 23.018,18.408 22.956 C 18.777 22.879,19.117 22.690,19.403 22.404 C 19.782 22.023,20.000 21.515,20.000 21.010 C 20.000 20.758,18.951 15.371,18.834 15.021 C 18.585 14.279,17.959 13.585,17.259 13.275 C 17.160 13.232,17.080 13.178,17.080 13.156 C 17.080 13.133,17.269 10.849,17.500 8.080 C 17.731 5.311,17.920 3.035,17.920 3.023 C 17.920 3.010,18.203 2.999,18.550 2.998 C 18.971 2.997,19.230 2.979,19.330 2.943 C 19.551 2.864,19.744 2.702,19.869 2.489 C 19.964 2.328,19.980 2.256,19.980 2.000 C 19.980 1.746,19.963 1.672,19.872 1.516 C 19.740 1.293,19.533 1.128,19.290 1.055 C 19.138 1.009,17.902 1.001,11.904 1.005 C 7.942 1.007,4.609 1.025,4.499 1.043 M15.894 3.210 C 15.882 3.326,15.825 4.003,15.767 4.715 L 15.660 6.009 14.980 6.020 C 13.634 6.040,12.667 6.347,11.527 7.113 C 10.771 7.623,10.312 7.825,9.656 7.940 C 9.273 8.006,8.652 8.019,8.562 7.962 C 8.517 7.934,8.464 7.437,8.316 5.673 C 8.212 4.434,8.118 3.326,8.106 3.210 L 8.086 3.000 12.000 3.000 L 15.914 3.000 15.894 3.210 M15.461 8.047 C 15.483 8.069,15.184 11.908,15.094 12.770 L 15.070 13.000 11.995 13.000 C 9.022 13.000,8.920 12.998,8.920 12.925 C 8.920 12.884,8.866 12.225,8.800 11.460 C 8.734 10.695,8.680 10.054,8.680 10.035 C 8.680 10.016,8.842 10.000,9.040 10.000 C 9.748 10.000,10.670 9.808,11.341 9.522 C 11.772 9.337,12.089 9.158,12.580 8.818 C 13.245 8.359,13.751 8.156,14.560 8.024 C 14.716 7.998,15.430 8.017,15.461 8.047 M16.289 15.042 C 16.506 15.102,16.762 15.314,16.868 15.520 C 16.934 15.650,17.098 16.411,17.459 18.260 C 17.734 19.668,17.969 20.861,17.980 20.910 L 18.002 21.000 12.000 21.000 L 5.998 21.000 6.020 20.910 C 6.031 20.861,6.266 19.668,6.541 18.260 C 7.073 15.532,7.096 15.449,7.365 15.231 C 7.659 14.993,7.452 15.004,11.980 15.002 C 14.728 15.001,16.191 15.014,16.289 15.042 M11.695 17.055 C 11.464 17.130,11.255 17.300,11.128 17.516 C 11.037 17.672,11.020 17.746,11.020 18.000 C 11.020 18.257,11.036 18.327,11.133 18.492 C 11.651 19.374,12.998 19.018,12.998 18.000 C 12.998 17.623,12.792 17.281,12.463 17.112 C 12.265 17.010,11.911 16.984,11.695 17.055 " stroke="none" fill-rule="evenodd" fill="#000000"></path></svg>