<svg  xmlns="http://www.w3.org/2000/svg" width="24" height="24" viewBox="0 0 24 24" fill="none" stroke="currentColor" stroke-width="2" stroke-linecap="round" stroke-linejoin="round"><path d="M11.695 2.057 C 11.466 2.129,11.256 2.299,11.128 2.516 C 11.021 2.698,11.020 2.710,11.007 3.544 L 10.994 4.388 10.847 4.459 C 8.727 5.482,6.355 5.999,3.776 6.000 C 2.809 6.000,2.636 6.028,2.382 6.221 C 2.302 6.282,2.187 6.415,2.128 6.516 C 2.037 6.672,2.020 6.746,2.020 7.000 C 2.020 7.256,2.036 7.328,2.131 7.489 C 2.369 7.895,2.617 7.996,3.374 7.998 C 3.800 8.000,3.924 8.012,3.910 8.050 C 3.900 8.078,3.245 9.819,2.456 11.920 C 1.108 15.508,1.021 15.756,1.020 16.001 C 1.020 16.488,1.204 16.714,1.980 17.180 C 3.648 18.183,5.805 18.266,7.620 17.399 C 8.065 17.186,8.669 16.774,8.800 16.594 C 8.939 16.402,9.016 16.127,8.991 15.910 C 8.981 15.816,8.311 13.978,7.504 11.825 C 6.697 9.672,6.042 7.906,6.048 7.901 C 6.055 7.895,6.330 7.851,6.660 7.803 C 7.979 7.608,9.551 7.181,10.709 6.703 C 10.846 6.646,10.968 6.600,10.979 6.600 C 10.991 6.600,11.000 9.615,11.000 13.300 L 11.000 20.000 8.946 20.000 C 6.717 20.000,6.666 20.004,6.382 20.221 C 6.302 20.282,6.187 20.415,6.128 20.516 C 6.037 20.672,6.020 20.746,6.020 21.000 C 6.020 21.256,6.036 21.328,6.131 21.489 C 6.256 21.702,6.449 21.864,6.670 21.943 C 6.892 22.022,17.108 22.022,17.330 21.943 C 17.551 21.864,17.744 21.702,17.869 21.489 C 17.964 21.328,17.980 21.256,17.980 21.000 C 17.980 20.746,17.963 20.672,17.872 20.516 C 17.813 20.415,17.698 20.282,17.618 20.221 C 17.334 20.004,17.283 20.000,15.054 20.000 L 13.000 20.000 13.000 13.300 C 13.000 9.615,13.009 6.600,13.021 6.600 C 13.032 6.600,13.154 6.646,13.291 6.703 C 14.449 7.181,16.021 7.608,17.340 7.803 C 17.670 7.851,17.945 7.895,17.952 7.901 C 17.958 7.906,17.303 9.672,16.496 11.825 C 15.689 13.978,15.019 15.816,15.009 15.910 C 14.984 16.127,15.061 16.402,15.200 16.594 C 15.331 16.774,15.935 17.186,16.380 17.399 C 18.195 18.266,20.352 18.183,22.020 17.180 C 22.796 16.714,22.980 16.488,22.980 16.001 C 22.979 15.756,22.892 15.508,21.544 11.920 C 20.755 9.819,20.100 8.078,20.090 8.050 C 20.076 8.012,20.200 8.000,20.626 7.998 C 21.383 7.996,21.631 7.895,21.869 7.489 C 21.964 7.328,21.980 7.256,21.980 7.000 C 21.980 6.746,21.963 6.672,21.872 6.516 C 21.813 6.415,21.698 6.282,21.618 6.221 C 21.364 6.028,21.191 6.000,20.224 6.000 C 17.645 5.999,15.273 5.482,13.153 4.459 L 13.006 4.388 12.993 3.544 C 12.980 2.710,12.979 2.698,12.872 2.516 C 12.628 2.101,12.150 1.915,11.695 2.057 M5.895 13.240 C 6.373 14.516,6.755 15.576,6.742 15.596 C 6.701 15.663,6.039 15.880,5.692 15.940 C 5.256 16.016,4.744 16.016,4.308 15.940 C 3.961 15.880,3.299 15.663,3.258 15.596 C 3.233 15.556,4.960 10.920,5.000 10.920 C 5.014 10.920,5.417 11.964,5.895 13.240 M19.895 13.240 C 20.373 14.516,20.755 15.576,20.742 15.596 C 20.701 15.663,20.039 15.880,19.692 15.940 C 19.256 16.016,18.744 16.016,18.308 15.940 C 17.961 15.880,17.299 15.663,17.258 15.596 C 17.233 15.556,18.960 10.920,19.000 10.920 C 19.014 10.920,19.417 11.964,19.895 13.240 " stroke="none" fill-rule="evenodd" fill="#000000"></path></svg>