<svg  xmlns="http://www.w3.org/2000/svg" width="24" height="24" viewBox="0 0 24 24" fill="none" stroke="currentColor" stroke-width="2" stroke-linecap="round" stroke-linejoin="round"><path d="M1.670 1.061 C 1.448 1.142,1.250 1.309,1.128 1.516 C 1.036 1.672,1.020 1.745,1.021 2.000 C 1.021 2.212,1.043 2.341,1.095 2.440 C 1.135 2.517,2.555 3.969,4.251 5.667 L 7.333 8.754 7.198 8.867 C 5.650 10.159,4.641 11.653,4.220 13.279 C 3.953 14.312,3.934 15.491,4.166 16.600 C 4.682 19.057,6.260 21.089,8.500 22.181 C 10.108 22.966,11.824 23.186,13.580 22.835 C 15.393 22.473,16.984 21.509,18.228 20.020 L 18.395 19.820 19.908 21.326 C 20.739 22.154,21.483 22.865,21.560 22.905 C 21.659 22.957,21.788 22.979,22.000 22.979 C 22.258 22.980,22.327 22.964,22.492 22.867 C 22.968 22.587,23.139 21.967,22.865 21.508 C 22.810 21.416,18.215 16.793,12.653 11.235 C 3.300 1.889,2.525 1.125,2.343 1.065 C 2.107 0.987,1.874 0.986,1.670 1.061 M11.664 2.063 C 11.454 2.140,11.267 2.288,11.160 2.460 C 11.112 2.538,11.004 2.867,10.920 3.191 C 10.750 3.849,10.574 4.355,10.318 4.920 C 10.212 5.154,10.139 5.379,10.128 5.506 C 10.070 6.194,10.725 6.732,11.386 6.540 C 11.564 6.488,11.666 6.426,11.815 6.276 C 12.021 6.070,12.040 6.057,12.040 6.117 C 12.040 6.191,12.575 7.108,12.881 7.558 C 13.583 8.592,14.307 9.383,15.400 10.307 C 15.741 10.596,16.112 10.928,16.224 11.046 C 16.928 11.783,17.379 12.479,17.704 13.330 C 17.779 13.527,17.878 13.741,17.923 13.804 C 18.030 13.954,18.291 14.105,18.544 14.164 C 19.071 14.286,19.639 13.857,19.707 13.287 C 19.752 12.899,19.218 11.654,18.680 10.896 C 18.085 10.059,17.663 9.612,16.612 8.709 C 15.900 8.098,15.493 7.688,15.059 7.148 C 14.202 6.080,13.458 4.643,13.142 3.440 C 12.896 2.507,12.887 2.484,12.698 2.300 C 12.413 2.023,12.019 1.933,11.664 2.063 M12.867 14.287 L 16.955 18.375 16.787 18.617 C 16.695 18.751,16.440 19.040,16.219 19.260 C 14.938 20.539,13.020 21.195,11.253 20.958 C 10.532 20.861,9.559 20.533,8.984 20.194 C 7.491 19.314,6.379 17.725,6.103 16.081 C 5.793 14.232,6.260 12.707,7.587 11.243 C 7.853 10.949,8.680 10.202,8.740 10.201 C 8.762 10.200,10.619 12.039,12.867 14.287 " stroke="none" fill-rule="evenodd" fill="#000000"></path></svg>