<svg  xmlns="http://www.w3.org/2000/svg" width="24" height="24" viewBox="0 0 24 24" fill="none" stroke="currentColor" stroke-width="2" stroke-linecap="round" stroke-linejoin="round"><path d="M11.820 1.041 C 9.613 1.224,7.547 2.442,6.276 4.309 C 5.763 5.063,5.448 5.824,4.878 7.692 C 4.428 9.167,4.320 9.474,4.095 9.920 C 3.791 10.522,3.567 10.800,2.662 11.700 C 1.782 12.576,1.528 12.907,1.316 13.458 C 1.120 13.965,1.035 14.347,1.012 14.820 C 0.986 15.356,1.039 15.726,1.219 16.266 C 1.379 16.742,3.357 20.723,3.681 21.220 C 4.209 22.027,5.081 22.635,6.080 22.893 C 6.380 22.970,6.521 22.980,7.280 22.978 C 10.471 22.969,14.255 21.745,17.320 19.730 C 18.312 19.078,19.305 18.298,19.881 17.721 C 21.036 16.562,21.770 14.995,21.978 13.246 C 22.025 12.853,22.005 11.941,21.939 11.500 C 21.789 10.490,21.749 10.387,20.478 7.777 C 19.835 6.459,19.274 5.299,19.230 5.200 C 18.836 4.317,17.972 3.262,17.080 2.576 C 15.558 1.404,13.762 0.880,11.820 1.041 M13.526 3.103 C 14.484 3.285,15.390 3.735,16.170 4.415 C 16.856 5.013,17.412 5.872,17.720 6.809 C 18.333 8.673,17.876 10.774,16.541 12.228 C 16.263 12.531,15.423 13.223,14.747 13.705 C 12.410 15.373,9.421 16.549,6.620 16.902 C 5.903 16.992,4.864 17.023,4.598 16.961 C 4.003 16.824,3.498 16.432,3.240 15.907 C 3.017 15.456,2.958 15.050,3.051 14.619 C 3.170 14.073,3.264 13.937,4.083 13.120 C 5.097 12.110,5.518 11.574,5.891 10.820 C 6.143 10.310,6.239 10.054,6.539 9.080 C 7.399 6.291,7.608 5.793,8.243 5.020 C 9.018 4.076,10.213 3.348,11.362 3.121 C 12.017 2.992,12.900 2.985,13.526 3.103 M11.873 5.060 C 11.136 5.200,10.468 5.565,9.958 6.105 C 9.559 6.527,9.314 6.957,9.133 7.548 C 9.038 7.863,9.026 7.963,9.026 8.500 C 9.026 9.037,9.038 9.137,9.133 9.452 C 9.725 11.393,11.674 12.429,13.588 11.821 C 14.604 11.498,15.497 10.606,15.820 9.591 C 15.943 9.205,15.999 8.860,15.999 8.500 C 15.999 6.928,14.904 5.515,13.378 5.118 C 12.959 5.009,12.280 4.983,11.873 5.060 M13.119 7.143 C 13.417 7.279,13.727 7.592,13.865 7.896 C 13.960 8.105,13.976 8.192,13.976 8.500 C 13.976 8.808,13.960 8.895,13.865 9.104 C 13.725 9.413,13.417 9.720,13.100 9.868 C 12.893 9.965,12.810 9.980,12.500 9.980 C 12.190 9.980,12.107 9.965,11.900 9.868 C 11.583 9.720,11.275 9.413,11.135 9.104 C 11.040 8.896,11.024 8.808,11.024 8.500 C 11.023 8.191,11.039 8.106,11.134 7.900 C 11.327 7.478,11.749 7.129,12.174 7.039 C 12.441 6.982,12.870 7.030,13.119 7.143 M19.776 10.950 C 19.935 11.432,19.979 11.771,19.979 12.500 C 19.979 13.050,19.961 13.300,19.905 13.560 C 19.678 14.606,19.205 15.529,18.528 16.247 C 18.245 16.547,17.403 17.237,16.750 17.704 C 16.000 18.240,14.912 18.881,14.126 19.248 C 11.830 20.324,9.594 20.909,7.480 20.987 C 6.938 21.006,6.774 20.999,6.560 20.944 C 6.174 20.846,5.891 20.688,5.616 20.420 C 5.411 20.220,5.323 20.085,5.085 19.610 C 4.928 19.297,4.800 19.035,4.800 19.027 C 4.800 19.019,5.120 19.001,5.510 18.988 C 7.152 18.930,8.742 18.632,10.469 18.058 C 12.972 17.227,15.090 16.063,17.120 14.403 C 18.323 13.419,19.100 12.335,19.565 10.993 C 19.616 10.846,19.670 10.734,19.686 10.744 C 19.701 10.753,19.742 10.846,19.776 10.950 " stroke="none" fill-rule="evenodd" fill="#000000"></path></svg>