<svg  xmlns="http://www.w3.org/2000/svg" width="24" height="24" viewBox="0 0 24 24" fill="none" stroke="currentColor" stroke-width="2" stroke-linecap="round" stroke-linejoin="round"><path d="M5.695 1.057 C 5.466 1.129,5.256 1.299,5.128 1.516 L 5.020 1.700 5.020 4.620 L 5.020 7.540 5.114 7.840 C 5.356 8.616,5.913 9.294,6.610 9.662 C 6.821 9.773,6.880 9.824,6.880 9.894 C 6.880 9.982,6.145 16.660,6.100 16.984 C 6.080 17.128,6.060 17.153,5.940 17.190 C 5.385 17.360,4.657 18.003,4.344 18.600 C 4.068 19.126,4.030 19.323,4.010 20.303 C 3.990 21.282,4.014 21.479,4.202 21.877 C 4.348 22.186,4.771 22.623,5.070 22.775 C 5.538 23.012,5.172 23.000,12.000 23.000 C 18.828 23.000,18.462 23.012,18.930 22.775 C 19.196 22.640,19.638 22.200,19.771 21.937 C 19.980 21.526,20.010 21.305,19.990 20.320 C 19.970 19.321,19.933 19.129,19.656 18.600 C 19.343 18.003,18.615 17.360,18.060 17.190 C 17.940 17.153,17.920 17.128,17.900 16.984 C 17.855 16.660,17.120 9.982,17.120 9.894 C 17.120 9.824,17.179 9.773,17.390 9.662 C 18.087 9.294,18.644 8.616,18.886 7.840 L 18.980 7.540 18.980 4.620 L 18.980 1.700 18.871 1.514 C 18.479 0.848,17.521 0.848,17.129 1.514 C 17.024 1.693,17.019 1.726,17.007 2.350 L 16.993 3.000 16.000 3.000 L 15.007 3.000 14.993 2.350 C 14.981 1.726,14.976 1.693,14.871 1.514 C 14.479 0.848,13.521 0.848,13.129 1.514 C 13.024 1.693,13.019 1.726,13.007 2.350 L 12.993 3.000 12.000 3.000 L 11.007 3.000 10.993 2.350 C 10.981 1.726,10.976 1.693,10.871 1.514 C 10.479 0.848,9.521 0.848,9.129 1.514 C 9.024 1.693,9.019 1.726,9.007 2.350 L 8.993 3.000 8.000 3.000 L 7.007 3.000 6.993 2.350 C 6.981 1.728,6.975 1.692,6.872 1.516 C 6.628 1.101,6.150 0.915,5.695 1.057 M17.000 6.054 C 17.000 7.203,16.978 7.356,16.779 7.618 C 16.718 7.698,16.585 7.813,16.484 7.872 L 16.300 7.980 12.000 7.980 L 7.700 7.980 7.516 7.872 C 7.415 7.813,7.284 7.700,7.225 7.623 C 7.016 7.349,7.000 7.241,7.000 6.075 L 7.000 5.000 12.000 5.000 L 17.000 5.000 17.000 6.054 M15.475 13.390 C 15.681 15.255,15.859 16.829,15.870 16.890 L 15.890 17.000 12.000 17.000 L 8.110 17.000 8.130 16.890 C 8.141 16.829,8.319 15.255,8.525 13.390 L 8.899 10.000 12.000 10.000 L 15.101 10.000 15.475 13.390 M17.310 19.061 C 17.452 19.103,17.571 19.178,17.697 19.303 C 17.948 19.554,18.000 19.751,18.000 20.447 L 18.000 21.000 12.000 21.000 L 6.000 21.000 6.000 20.447 C 6.000 19.750,6.052 19.554,6.304 19.303 C 6.621 18.985,6.234 19.006,11.983 19.003 C 16.458 19.000,17.131 19.008,17.310 19.061 " stroke="none" fill-rule="evenodd" fill="#000000"></path></svg>