<svg  xmlns="http://www.w3.org/2000/svg" width="24" height="24" viewBox="0 0 24 24" fill="none" stroke="currentColor" stroke-width="2" stroke-linecap="round" stroke-linejoin="round"><path d="M4.499 2.043 C 3.380 2.232,2.461 3.048,2.114 4.160 L 2.020 4.460 2.020 12.000 L 2.020 19.540 2.114 19.840 C 2.422 20.827,3.173 21.578,4.160 21.886 L 4.460 21.980 12.000 21.980 L 19.540 21.980 19.840 21.886 C 20.827 21.578,21.578 20.827,21.886 19.840 L 21.980 19.540 21.980 12.000 L 21.980 4.460 21.886 4.160 C 21.581 3.182,20.832 2.428,19.861 2.121 L 19.540 2.020 12.120 2.014 C 8.039 2.011,4.609 2.024,4.499 2.043 M19.310 4.061 C 19.589 4.144,19.856 4.411,19.939 4.690 C 19.993 4.870,20.000 5.755,20.000 12.001 C 20.000 17.907,19.991 19.138,19.945 19.290 C 19.872 19.533,19.707 19.740,19.484 19.872 L 19.300 19.980 12.000 19.980 L 4.700 19.980 4.516 19.872 C 4.415 19.813,4.284 19.700,4.225 19.623 C 3.986 19.309,4.000 19.795,4.000 12.022 C 4.000 5.758,4.007 4.870,4.061 4.690 C 4.140 4.421,4.412 4.143,4.673 4.063 C 4.964 3.974,19.009 3.971,19.310 4.061 M9.477 8.073 C 8.806 8.249,8.238 8.823,8.060 9.508 C 8.010 9.698,8.000 10.123,8.000 12.000 C 8.000 14.455,8.003 14.491,8.225 14.930 C 8.361 15.199,8.801 15.639,9.070 15.775 C 9.509 15.997,9.545 16.000,12.000 16.000 C 14.455 16.000,14.491 15.997,14.930 15.775 C 15.196 15.640,15.638 15.200,15.771 14.937 C 15.996 14.494,16.000 14.442,15.999 12.014 C 15.999 9.601,15.991 9.496,15.781 9.083 C 15.646 8.816,15.297 8.449,15.017 8.281 C 14.564 8.008,14.524 8.005,12.000 8.005 C 9.992 8.005,9.711 8.012,9.477 8.073 M14.000 12.000 L 14.000 14.000 12.000 14.000 L 10.000 14.000 10.000 12.000 L 10.000 10.000 12.000 10.000 L 14.000 10.000 14.000 12.000 " stroke="none" fill="#000000" fill-rule="evenodd"></path></svg>