<svg  xmlns="http://www.w3.org/2000/svg" width="24" height="24" viewBox="0 0 24 24" fill="none" stroke="currentColor" stroke-width="2" stroke-linecap="round" stroke-linejoin="round"><path d="M8.695 1.057 C 8.466 1.129,8.256 1.299,8.128 1.516 C 8.036 1.672,8.020 1.746,8.020 2.003 C 8.020 2.271,8.034 2.329,8.141 2.503 C 8.288 2.742,8.578 2.946,8.821 2.982 L 9.000 3.009 9.000 3.500 L 9.000 3.991 8.230 4.010 C 7.567 4.027,7.416 4.043,7.139 4.126 C 6.181 4.415,5.419 5.180,5.114 6.160 C 4.979 6.594,4.979 7.407,5.114 7.839 C 5.326 8.514,5.685 9.012,6.280 9.454 C 6.401 9.543,6.505 9.620,6.512 9.623 C 6.518 9.627,6.415 9.781,6.282 9.965 C 5.794 10.641,5.314 11.737,5.145 12.562 C 4.889 13.806,4.987 15.311,5.414 16.700 C 5.839 18.084,6.687 19.533,7.742 20.680 L 8.018 20.980 6.879 21.001 C 6.108 21.015,5.704 21.038,5.627 21.071 C 5.430 21.157,5.239 21.327,5.128 21.516 C 5.037 21.672,5.020 21.746,5.020 22.000 C 5.020 22.256,5.036 22.328,5.131 22.489 C 5.256 22.702,5.449 22.864,5.670 22.943 C 5.892 23.022,18.108 23.022,18.330 22.943 C 18.551 22.864,18.744 22.702,18.869 22.489 C 18.964 22.328,18.980 22.256,18.980 22.000 C 18.980 21.746,18.963 21.672,18.872 21.516 C 18.761 21.327,18.570 21.157,18.373 21.071 C 18.296 21.038,17.892 21.015,17.124 21.001 L 15.987 20.980 16.244 20.700 C 16.948 19.932,17.540 19.075,18.008 18.143 C 18.893 16.382,19.211 14.291,18.855 12.562 C 18.686 11.737,18.206 10.641,17.718 9.965 C 17.585 9.781,17.482 9.627,17.488 9.623 C 17.495 9.620,17.599 9.543,17.720 9.454 C 18.315 9.012,18.674 8.514,18.886 7.839 C 19.021 7.407,19.021 6.594,18.886 6.160 C 18.581 5.180,17.819 4.415,16.861 4.126 C 16.584 4.043,16.433 4.027,15.770 4.010 L 15.000 3.991 15.000 3.500 L 15.000 3.009 15.179 2.982 C 15.422 2.946,15.712 2.742,15.859 2.503 C 15.966 2.329,15.980 2.271,15.980 2.003 C 15.980 1.746,15.964 1.672,15.872 1.516 C 15.740 1.293,15.533 1.128,15.290 1.055 C 15.030 0.977,8.945 0.979,8.695 1.057 M13.000 5.432 C 13.000 8.077,13.000 8.077,13.230 8.553 C 13.388 8.878,13.825 9.305,14.220 9.520 C 14.999 9.943,15.562 10.416,16.010 11.020 C 16.321 11.439,16.692 12.202,16.819 12.680 C 17.035 13.495,17.042 14.477,16.840 15.460 C 16.431 17.448,14.986 19.526,13.174 20.732 L 12.772 21.000 12.000 21.000 L 11.228 21.000 10.826 20.732 C 9.016 19.528,7.569 17.446,7.160 15.460 C 7.116 15.245,7.059 14.811,7.033 14.497 C 6.951 13.484,7.096 12.680,7.517 11.818 C 8.016 10.798,8.697 10.106,9.780 9.519 C 10.176 9.304,10.612 8.878,10.770 8.553 C 11.000 8.077,11.000 8.077,11.000 5.432 L 11.000 3.000 12.000 3.000 L 13.000 3.000 13.000 5.432 M9.000 6.814 C 9.000 7.741,9.030 7.660,8.611 7.879 C 8.375 8.003,8.344 8.009,8.027 7.993 C 7.758 7.978,7.657 7.954,7.513 7.869 C 6.932 7.529,6.833 6.773,7.307 6.299 C 7.554 6.053,7.730 6.006,8.430 6.003 L 9.000 6.000 9.000 6.814 M16.310 6.061 C 16.688 6.173,17.000 6.598,17.000 7.001 C 17.000 7.176,16.897 7.462,16.779 7.618 C 16.591 7.865,16.359 7.972,15.973 7.993 C 15.656 8.009,15.625 8.003,15.389 7.879 C 14.970 7.660,15.000 7.741,15.000 6.814 L 15.000 6.000 15.553 6.000 C 15.931 6.000,16.170 6.019,16.310 6.061 " stroke="none" fill-rule="evenodd" fill="#000000"></path></svg>