<svg  xmlns="http://www.w3.org/2000/svg" width="24" height="24" viewBox="0 0 24 24" fill="none" stroke="currentColor" stroke-width="2" stroke-linecap="round" stroke-linejoin="round"><path d="M5.873 1.063 C 5.147 1.194,4.470 1.562,3.958 2.105 C 3.562 2.524,3.318 2.949,3.130 3.548 L 3.020 3.900 3.020 12.000 L 3.020 20.100 3.130 20.452 C 3.511 21.666,4.334 22.489,5.548 22.870 L 5.900 22.980 12.560 22.991 C 17.107 22.998,19.284 22.988,19.422 22.960 C 19.938 22.852,20.538 22.398,20.771 21.937 C 21.006 21.474,21.003 21.533,20.991 18.071 L 20.980 14.900 20.871 14.714 C 20.479 14.048,19.521 14.048,19.129 14.714 C 19.027 14.888,19.019 14.935,19.006 15.450 L 18.992 16.000 12.621 16.000 C 5.699 16.000,5.896 15.994,5.296 16.220 C 5.150 16.275,5.023 16.320,5.014 16.320 C 5.006 16.320,5.003 13.580,5.009 10.230 L 5.020 4.140 5.133 3.896 C 5.276 3.587,5.585 3.279,5.900 3.132 L 6.140 3.020 9.720 3.000 L 13.300 2.980 13.492 2.867 C 14.248 2.423,14.123 1.306,13.290 1.055 C 13.021 0.974,6.324 0.981,5.873 1.063 M16.695 1.057 C 16.466 1.129,16.256 1.299,16.128 1.516 L 16.020 1.700 16.000 4.426 L 15.980 7.153 15.660 7.317 C 14.919 7.698,14.363 8.360,14.114 9.160 C 13.979 9.594,13.979 10.406,14.114 10.840 C 14.421 11.826,15.174 12.579,16.160 12.886 C 16.594 13.021,17.406 13.021,17.840 12.886 C 18.826 12.579,19.579 11.826,19.886 10.840 C 20.021 10.406,20.021 9.594,19.886 9.160 C 19.635 8.355,19.078 7.693,18.330 7.313 L 18.000 7.145 18.000 6.073 L 18.000 5.000 18.590 4.998 C 18.977 4.997,19.232 4.978,19.330 4.943 C 19.551 4.864,19.744 4.702,19.869 4.489 C 19.964 4.328,19.980 4.256,19.980 4.000 C 19.980 3.746,19.963 3.672,19.872 3.516 C 19.634 3.111,19.352 3.000,18.557 3.000 L 18.007 3.000 17.993 2.350 C 17.981 1.728,17.975 1.692,17.872 1.516 C 17.628 1.101,17.150 0.915,16.695 1.057 M17.310 9.061 C 17.688 9.173,18.000 9.598,18.000 10.001 C 18.000 10.331,17.784 10.696,17.484 10.872 C 17.328 10.963,17.254 10.980,17.000 10.980 C 16.746 10.980,16.672 10.963,16.516 10.872 C 15.932 10.528,15.831 9.775,16.307 9.299 C 16.582 9.024,16.918 8.944,17.310 9.061 M19.000 19.500 L 19.000 21.001 12.570 20.990 L 6.140 20.980 5.900 20.868 C 5.583 20.720,5.275 20.413,5.135 20.104 C 5.040 19.896,5.024 19.808,5.024 19.500 C 5.023 19.191,5.039 19.106,5.134 18.900 C 5.328 18.477,5.755 18.124,6.174 18.042 C 6.265 18.024,9.189 18.007,12.670 18.004 L 19.000 18.000 19.000 19.500 " stroke="none" fill-rule="evenodd" fill="#000000"></path></svg>