<svg  xmlns="http://www.w3.org/2000/svg" width="24" height="24" viewBox="0 0 24 24" fill="none" stroke="currentColor" stroke-width="2" stroke-linecap="round" stroke-linejoin="round"><path d="M9.499 1.042 C 8.385 1.234,7.470 2.041,7.118 3.140 C 7.042 3.379,7.026 3.536,7.010 4.207 L 6.991 4.995 5.225 5.009 C 3.477 5.023,3.457 5.024,3.139 5.123 C 2.173 5.423,1.419 6.181,1.114 7.160 L 1.020 7.460 1.020 13.000 L 1.020 18.540 1.114 18.840 C 1.422 19.827,2.173 20.578,3.160 20.886 L 3.460 20.980 12.000 20.980 L 20.540 20.980 20.840 20.886 C 21.827 20.578,22.578 19.827,22.886 18.840 L 22.980 18.540 22.980 13.000 L 22.980 7.460 22.886 7.160 C 22.581 6.181,21.827 5.423,20.861 5.123 C 20.543 5.024,20.523 5.023,18.775 5.009 L 17.009 4.995 16.990 4.207 C 16.974 3.536,16.958 3.379,16.882 3.140 C 16.573 2.174,15.820 1.422,14.861 1.122 L 14.540 1.022 12.120 1.015 C 10.789 1.011,9.609 1.023,9.499 1.042 M14.310 3.061 C 14.452 3.103,14.571 3.178,14.697 3.303 C 14.948 3.554,15.000 3.751,15.000 4.447 L 15.000 5.000 12.000 5.000 L 9.000 5.000 9.000 4.447 C 9.000 3.750,9.052 3.554,9.304 3.303 C 9.604 3.002,9.569 3.006,11.983 3.003 C 13.772 3.000,14.138 3.010,14.310 3.061 M20.310 7.061 C 20.452 7.103,20.571 7.178,20.697 7.303 C 21.004 7.611,21.000 7.569,21.000 10.177 L 21.000 12.460 20.530 12.727 C 15.190 15.761,8.790 15.761,3.470 12.728 L 3.000 12.460 3.000 10.177 C 3.000 7.568,2.995 7.611,3.304 7.303 C 3.421 7.185,3.552 7.100,3.673 7.063 C 3.833 7.014,5.030 7.005,11.983 7.003 C 19.144 7.000,20.130 7.007,20.310 7.061 M11.695 11.055 C 11.464 11.130,11.255 11.300,11.128 11.516 C 11.037 11.672,11.020 11.746,11.020 12.000 C 11.020 12.257,11.036 12.327,11.133 12.492 C 11.651 13.374,12.998 13.018,12.998 12.000 C 12.998 11.623,12.792 11.281,12.463 11.112 C 12.265 11.010,11.911 10.984,11.695 11.055 M4.512 15.477 C 6.394 16.282,8.594 16.809,10.687 16.958 C 14.014 17.195,17.544 16.492,20.521 14.999 L 21.000 14.759 21.000 16.433 C 21.000 18.251,20.991 18.340,20.779 18.618 C 20.718 18.698,20.585 18.813,20.484 18.872 L 20.300 18.980 12.000 18.980 L 3.700 18.980 3.516 18.872 C 3.415 18.813,3.284 18.700,3.225 18.623 C 3.004 18.333,3.000 18.294,3.000 16.455 L 3.000 14.759 3.479 14.999 C 3.742 15.132,4.207 15.346,4.512 15.477 " stroke="none" fill-rule="evenodd" fill="#000000"></path></svg>