<svg  xmlns="http://www.w3.org/2000/svg" width="24" height="24" viewBox="0 0 24 24" fill="none" stroke="currentColor" stroke-width="2" stroke-linecap="round" stroke-linejoin="round"><path d="M1.670 1.061 C 1.448 1.142,1.250 1.309,1.128 1.516 C 1.036 1.672,1.020 1.745,1.021 2.000 C 1.021 2.212,1.043 2.341,1.095 2.440 C 1.135 2.517,2.241 3.655,3.552 4.968 C 5.089 6.508,5.915 7.363,5.878 7.376 C 5.846 7.386,5.001 7.513,4.000 7.658 C 2.999 7.803,2.116 7.941,2.038 7.965 C 1.960 7.989,1.799 8.074,1.679 8.154 C 0.902 8.676,0.781 9.775,1.424 10.468 C 1.510 10.560,2.392 11.424,3.384 12.388 C 4.377 13.351,5.237 14.197,5.295 14.266 C 5.435 14.434,5.520 14.684,5.520 14.932 C 5.520 15.043,5.319 16.296,5.074 17.717 C 4.788 19.375,4.628 20.400,4.629 20.580 C 4.631 21.003,4.751 21.278,5.076 21.604 C 5.419 21.946,5.674 22.053,6.161 22.057 C 6.577 22.061,6.423 22.132,9.393 20.568 C 10.566 19.950,11.589 19.423,11.667 19.398 C 11.848 19.338,12.151 19.338,12.330 19.397 C 12.407 19.422,13.430 19.948,14.605 20.567 C 17.581 22.133,17.423 22.061,17.839 22.057 C 18.279 22.053,18.560 21.948,18.861 21.672 C 19.103 21.451,19.245 21.234,19.323 20.968 L 19.374 20.796 20.397 21.813 C 20.960 22.373,21.483 22.864,21.560 22.905 C 21.659 22.957,21.787 22.979,22.000 22.979 C 22.258 22.980,22.327 22.964,22.492 22.867 C 22.968 22.587,23.139 21.967,22.865 21.508 C 22.810 21.416,18.215 16.793,12.653 11.235 C 3.300 1.889,2.525 1.125,2.343 1.065 C 2.107 0.987,1.874 0.986,1.670 1.061 M11.660 1.035 C 11.401 1.103,11.151 1.244,10.950 1.434 C 10.760 1.614,10.674 1.767,10.047 3.028 C 9.376 4.377,9.353 4.431,9.355 4.666 C 9.356 4.990,9.450 5.206,9.680 5.413 C 10.057 5.751,10.575 5.771,10.979 5.463 C 11.087 5.381,11.214 5.166,11.549 4.499 C 11.786 4.027,11.990 3.640,12.002 3.640 C 12.015 3.640,12.456 4.515,12.982 5.585 C 13.508 6.655,14.002 7.627,14.080 7.744 C 14.399 8.230,15.013 8.735,15.511 8.921 C 15.917 9.072,16.129 9.111,18.300 9.428 C 19.477 9.600,20.438 9.749,20.436 9.760 C 20.434 9.771,19.838 10.356,19.112 11.060 C 18.320 11.828,17.760 12.402,17.713 12.495 C 17.378 13.149,17.875 13.940,18.618 13.936 C 19.012 13.934,19.083 13.878,20.770 12.238 C 22.686 10.375,22.702 10.359,22.847 10.054 C 23.132 9.455,22.981 8.708,22.488 8.275 C 22.141 7.971,22.087 7.958,19.220 7.541 C 17.768 7.329,16.508 7.137,16.420 7.114 C 16.177 7.050,15.982 6.938,15.859 6.792 C 15.798 6.719,15.195 5.541,14.519 4.173 C 13.152 1.409,13.140 1.389,12.649 1.155 C 12.448 1.059,12.325 1.029,12.086 1.017 C 11.918 1.010,11.726 1.017,11.660 1.035 M17.117 19.051 L 17.226 19.674 16.945 19.532 C 16.790 19.455,16.021 19.052,15.236 18.638 C 13.274 17.603,13.147 17.542,12.762 17.445 C 12.090 17.276,11.245 17.358,10.660 17.650 C 10.528 17.715,9.614 18.192,8.628 18.709 C 7.643 19.227,6.826 19.639,6.812 19.626 C 6.799 19.613,6.953 18.641,7.154 17.468 C 7.551 15.149,7.581 14.832,7.456 14.268 C 7.376 13.908,7.103 13.324,6.893 13.060 C 6.805 12.950,6.023 12.167,5.156 11.320 C 4.289 10.473,3.575 9.771,3.570 9.760 C 3.564 9.748,4.491 9.602,5.630 9.435 L 7.700 9.131 12.354 13.780 L 17.009 18.429 17.117 19.051 " stroke="none" fill-rule="evenodd" fill="#000000"></path></svg>