<svg  xmlns="http://www.w3.org/2000/svg" width="24" height="24" viewBox="0 0 24 24" fill="none" stroke="currentColor" stroke-width="2" stroke-linecap="round" stroke-linejoin="round"><path d="M1.670 1.061 C 1.448 1.142,1.250 1.309,1.128 1.516 C 1.037 1.672,1.020 1.746,1.020 2.000 C 1.020 2.254,1.036 2.328,1.127 2.480 C 1.186 2.579,1.676 3.100,2.215 3.638 L 3.196 4.615 2.804 5.022 C 1.271 6.614,0.661 8.893,1.199 11.025 C 1.564 12.467,2.391 13.754,4.045 15.449 C 5.070 16.500,10.102 21.331,10.340 21.493 C 11.084 22.000,12.056 22.131,12.921 21.842 C 13.560 21.628,13.715 21.505,15.391 19.882 C 16.234 19.067,16.936 18.400,16.951 18.400 C 16.967 18.400,17.961 19.382,19.160 20.583 C 20.363 21.787,21.421 22.813,21.520 22.873 C 21.673 22.964,21.746 22.980,22.000 22.980 C 22.257 22.980,22.327 22.964,22.492 22.867 C 22.968 22.587,23.139 21.967,22.865 21.508 C 22.810 21.416,18.215 16.793,12.653 11.235 C 3.300 1.889,2.525 1.125,2.343 1.065 C 2.107 0.987,1.874 0.986,1.670 1.061 M15.400 3.087 C 14.247 3.288,13.052 3.855,12.250 4.581 L 12.004 4.804 11.712 4.558 C 11.047 4.000,10.712 3.846,10.324 3.919 C 9.660 4.045,9.318 4.726,9.614 5.332 C 9.703 5.513,9.787 5.601,10.091 5.831 C 10.294 5.984,10.604 6.250,10.780 6.421 C 10.996 6.630,11.185 6.772,11.360 6.855 C 11.594 6.967,11.658 6.979,12.000 6.980 C 12.343 6.980,12.405 6.968,12.640 6.855 C 12.822 6.768,13.008 6.626,13.260 6.381 C 14.038 5.626,14.679 5.276,15.646 5.079 C 16.076 4.991,16.757 4.975,17.218 5.042 C 17.591 5.096,18.272 5.327,18.640 5.526 C 20.563 6.561,21.455 8.838,20.747 10.902 C 20.521 11.560,20.071 12.300,19.450 13.033 C 18.827 13.769,18.733 13.989,18.858 14.418 C 19.024 14.989,19.617 15.290,20.168 15.082 C 20.353 15.012,20.446 14.940,20.671 14.688 C 21.936 13.278,22.615 12.027,22.908 10.570 C 23.006 10.079,23.006 8.844,22.908 8.340 C 22.507 6.287,21.261 4.617,19.435 3.688 C 18.934 3.433,18.162 3.179,17.582 3.080 C 16.950 2.972,16.041 2.975,15.400 3.087 M15.510 16.968 C 15.505 16.984,14.831 17.643,14.014 18.433 C 12.677 19.727,12.508 19.878,12.320 19.940 C 12.057 20.027,11.783 20.005,11.544 19.876 C 11.309 19.750,5.445 14.062,4.846 13.380 C 3.641 12.007,3.164 11.096,3.032 9.910 C 2.890 8.638,3.375 7.278,4.306 6.338 L 4.610 6.030 10.065 11.485 C 13.065 14.485,15.516 16.953,15.510 16.968 " stroke="none" fill-rule="evenodd" fill="#000000"></path></svg>