<svg  xmlns="http://www.w3.org/2000/svg" width="24" height="24" viewBox="0 0 24 24" fill="none" stroke="currentColor" stroke-width="2" stroke-linecap="round" stroke-linejoin="round"><path d="M10.105 1.063 C 9.781 1.142,9.422 1.342,9.179 1.580 C 8.848 1.903,8.078 3.268,7.578 4.420 C 5.144 10.019,5.550 16.459,8.665 21.700 C 9.012 22.284,9.259 22.554,9.625 22.749 C 10.080 22.991,10.164 23.000,12.000 23.000 C 13.836 23.000,13.920 22.991,14.375 22.749 C 14.739 22.555,14.988 22.284,15.337 21.700 C 15.950 20.674,16.583 19.296,16.986 18.107 C 18.638 13.239,18.264 8.001,15.938 3.400 C 15.497 2.529,15.055 1.809,14.821 1.580 C 14.572 1.336,14.218 1.142,13.876 1.062 C 13.515 0.976,10.459 0.978,10.105 1.063 M13.619 3.330 C 14.170 4.250,14.707 5.415,15.073 6.487 C 16.386 10.332,16.295 14.424,14.811 18.240 C 14.592 18.803,13.969 20.081,13.655 20.610 L 13.424 21.000 12.002 21.000 L 10.579 21.000 10.381 20.670 C 8.861 18.133,8.001 15.002,8.001 12.000 C 8.001 8.998,8.861 5.867,10.381 3.330 L 10.579 3.000 12.000 3.000 L 13.421 3.000 13.619 3.330 " stroke="none" fill-rule="evenodd" fill="#000000"></path></svg>