<svg  xmlns="http://www.w3.org/2000/svg" width="24" height="24" viewBox="0 0 24 24" fill="none" stroke="currentColor" stroke-width="2" stroke-linecap="round" stroke-linejoin="round"><path d="M11.440 1.027 C 10.552 1.091,9.592 1.369,8.780 1.795 C 7.421 2.508,6.433 3.511,5.760 4.860 C 5.213 5.956,5.052 6.651,4.999 8.160 C 4.924 10.272,4.716 11.364,4.182 12.460 C 3.867 13.106,3.559 13.534,2.865 14.293 C 2.179 15.043,2.002 15.390,2.000 15.982 C 1.999 16.916,2.685 17.767,3.592 17.956 C 3.892 18.018,20.108 18.018,20.408 17.956 C 20.777 17.879,21.117 17.690,21.403 17.404 C 22.017 16.788,22.168 15.924,21.798 15.140 C 21.688 14.906,21.115 14.196,20.700 13.779 C 20.095 13.171,19.100 13.525,19.012 14.379 C 18.999 14.499,19.011 14.655,19.040 14.744 C 19.097 14.923,19.432 15.381,19.775 15.748 L 20.009 16.000 11.996 16.000 L 3.982 16.000 4.286 15.690 C 5.650 14.297,6.363 12.934,6.737 11.004 C 6.883 10.249,6.958 9.495,7.000 8.340 C 7.050 6.974,7.145 6.532,7.564 5.715 C 8.575 3.747,10.758 2.687,12.947 3.101 C 13.337 3.175,13.672 3.282,14.100 3.471 C 14.570 3.678,14.735 3.704,15.028 3.619 C 15.340 3.529,15.605 3.268,15.696 2.963 C 15.777 2.689,15.776 2.619,15.692 2.357 C 15.594 2.055,15.402 1.874,14.957 1.663 C 13.878 1.153,12.684 0.937,11.440 1.027 M17.695 4.057 C 17.466 4.129,17.256 4.299,17.128 4.516 L 17.020 4.700 17.008 5.850 L 16.995 7.000 15.944 7.000 C 14.797 7.000,14.643 7.022,14.382 7.221 C 14.302 7.282,14.187 7.415,14.128 7.516 C 14.037 7.672,14.020 7.746,14.020 8.000 C 14.020 8.256,14.036 8.328,14.131 8.489 C 14.192 8.592,14.304 8.725,14.381 8.783 C 14.642 8.983,14.738 8.996,15.908 8.998 L 16.995 9.000 17.008 10.153 L 17.020 11.307 17.141 11.503 C 17.543 12.156,18.457 12.156,18.859 11.503 L 18.980 11.307 18.992 10.153 L 19.005 9.000 20.092 8.998 C 21.262 8.996,21.358 8.983,21.619 8.783 C 21.696 8.725,21.808 8.592,21.869 8.489 C 21.964 8.328,21.980 8.256,21.980 8.000 C 21.980 7.746,21.963 7.672,21.872 7.516 C 21.813 7.415,21.698 7.282,21.618 7.221 C 21.357 7.022,21.203 7.000,20.056 7.000 L 19.005 7.000 18.992 5.850 L 18.980 4.700 18.872 4.516 C 18.628 4.101,18.150 3.915,17.695 4.057 M9.946 20.065 C 9.698 20.141,9.398 20.433,9.329 20.665 C 9.245 20.947,9.267 21.201,9.398 21.464 C 9.657 21.982,10.195 22.474,10.780 22.729 C 11.253 22.935,11.467 22.979,12.000 22.979 C 12.533 22.979,12.747 22.935,13.220 22.729 C 13.640 22.546,13.983 22.286,14.312 21.902 C 14.811 21.318,14.857 20.735,14.436 20.313 C 14.075 19.951,13.551 19.905,13.148 20.200 C 13.065 20.261,12.935 20.398,12.860 20.503 C 12.693 20.738,12.538 20.863,12.318 20.941 C 11.883 21.094,11.423 20.925,11.143 20.510 C 10.932 20.196,10.583 19.996,10.260 20.003 C 10.194 20.004,10.053 20.032,9.946 20.065 " stroke="none" fill-rule="evenodd" fill="#000000"></path></svg>