<svg  xmlns="http://www.w3.org/2000/svg" width="24" height="24" viewBox="0 0 24 24" fill="none" stroke="currentColor" stroke-width="2" stroke-linecap="round" stroke-linejoin="round"><path d="M3.499 2.043 C 2.393 2.228,1.488 3.024,1.114 4.140 L 1.020 4.420 1.009 12.958 C 1.000 20.694,1.005 21.516,1.063 21.718 C 1.326 22.631,2.237 23.176,3.110 22.943 C 3.571 22.820,3.647 22.759,4.980 21.438 C 5.684 20.740,6.323 20.136,6.400 20.095 C 6.535 20.023,6.810 20.019,13.560 20.000 L 20.580 19.980 20.860 19.886 C 21.851 19.554,22.582 18.816,22.886 17.840 L 22.980 17.540 22.980 15.120 L 22.980 12.700 22.871 12.514 C 22.479 11.848,21.521 11.848,21.129 12.514 L 21.020 12.700 21.000 14.980 C 20.985 16.681,20.967 17.289,20.930 17.373 C 20.842 17.572,20.672 17.761,20.484 17.872 L 20.300 17.980 13.280 18.000 L 6.260 18.020 5.980 18.115 C 5.291 18.347,5.119 18.475,3.970 19.615 L 3.000 20.576 3.000 12.735 C 3.000 3.923,2.975 4.632,3.303 4.303 C 3.623 3.983,3.356 4.000,8.037 3.998 C 11.393 3.997,12.208 3.986,12.330 3.943 C 12.551 3.864,12.744 3.702,12.869 3.489 C 12.964 3.328,12.980 3.256,12.980 3.000 C 12.980 2.746,12.963 2.672,12.872 2.516 C 12.813 2.415,12.698 2.282,12.618 2.221 C 12.318 1.993,12.469 2.000,7.904 2.005 C 5.592 2.007,3.609 2.025,3.499 2.043 M15.695 2.057 C 15.466 2.129,15.256 2.299,15.128 2.516 C 15.037 2.672,15.020 2.746,15.020 3.000 C 15.020 3.256,15.036 3.328,15.131 3.489 C 15.256 3.702,15.449 3.864,15.670 3.943 C 15.787 3.985,16.234 3.997,17.700 3.998 L 19.579 4.000 17.374 6.210 C 16.161 7.425,15.138 8.481,15.101 8.555 C 14.872 9.010,15.056 9.601,15.508 9.867 C 15.673 9.964,15.742 9.980,16.000 9.979 C 16.212 9.979,16.341 9.957,16.440 9.905 C 16.517 9.865,17.574 8.840,18.789 7.628 L 20.997 5.424 21.009 7.365 L 21.020 9.306 21.141 9.503 C 21.543 10.156,22.457 10.156,22.859 9.503 L 22.980 9.306 22.991 6.063 C 23.001 3.126,22.996 2.804,22.936 2.646 C 22.845 2.405,22.657 2.204,22.420 2.094 L 22.220 2.001 19.040 2.003 C 16.557 2.005,15.824 2.017,15.695 2.057 " stroke="none" fill-rule="evenodd" fill="#000000"></path></svg>