<svg  xmlns="http://www.w3.org/2000/svg" width="24" height="24" viewBox="0 0 24 24" fill="none" stroke="currentColor" stroke-width="2" stroke-linecap="round" stroke-linejoin="round"><path d="M5.695 2.057 C 5.466 2.129,5.256 2.299,5.128 2.516 L 5.020 2.700 5.008 5.080 L 4.996 7.460 4.634 7.616 C 3.909 7.928,3.207 8.402,2.586 8.999 C 2.169 9.400,2.043 9.596,2.012 9.894 C 1.937 10.619,2.626 11.171,3.319 10.940 C 3.485 10.885,3.614 10.789,3.942 10.478 C 4.282 10.155,4.898 9.680,4.976 9.680 C 4.987 9.680,5.003 11.061,5.012 12.750 C 5.030 16.018,5.027 15.976,5.236 16.786 C 5.857 19.200,7.846 21.170,10.275 21.777 C 10.908 21.936,11.264 21.977,12.000 21.977 C 12.944 21.977,13.538 21.876,14.380 21.573 C 16.325 20.873,17.874 19.324,18.573 17.380 C 18.928 16.392,18.965 16.112,18.988 14.170 C 19.003 12.874,19.018 12.520,19.058 12.520 C 19.173 12.520,20.247 11.941,20.596 11.690 C 21.060 11.357,21.728 10.728,21.864 10.496 C 22.080 10.128,22.017 9.617,21.717 9.317 C 21.423 9.023,21.104 8.941,20.706 9.057 C 20.510 9.114,20.420 9.178,20.062 9.518 C 19.716 9.847,19.103 10.320,19.023 10.320 C 19.011 10.320,18.997 8.606,18.991 6.510 L 18.980 2.700 18.871 2.514 C 18.479 1.848,17.521 1.848,17.129 2.514 L 17.020 2.700 17.009 6.855 L 16.999 11.011 16.389 10.988 C 15.553 10.957,15.047 10.837,14.337 10.503 C 13.765 10.233,13.389 9.952,12.700 9.281 C 12.010 8.608,11.749 8.394,11.232 8.072 C 10.086 7.360,8.624 6.958,7.351 7.007 L 7.002 7.020 6.991 4.860 L 6.980 2.700 6.872 2.516 C 6.628 2.101,6.150 1.915,5.695 2.057 M8.446 9.096 C 8.850 9.173,9.407 9.362,9.768 9.544 C 10.283 9.803,10.631 10.072,11.335 10.753 C 11.714 11.120,12.194 11.541,12.402 11.688 C 13.590 12.532,15.046 12.997,16.510 12.999 L 17.000 13.000 17.000 14.082 C 17.000 15.235,16.961 15.759,16.839 16.240 C 16.488 17.622,15.495 18.845,14.212 19.476 C 13.467 19.842,12.862 19.980,12.000 19.980 C 11.330 19.980,10.956 19.922,10.400 19.732 C 8.808 19.188,7.575 17.858,7.162 16.240 C 7.017 15.672,7.000 15.245,7.000 12.104 L 7.000 9.046 7.090 9.025 C 7.249 8.990,8.130 9.036,8.446 9.096 " stroke="none" fill-rule="evenodd" fill="#000000"></path></svg>